G75*
%MOIN*%
%OFA0B0*%
%FSLAX25Y25*%
%IPPOS*%
%LPD*%
%AMOC8*
5,1,8,0,0,1.08239X$1,22.5*
%
%ADD10C,0.06400*%
%ADD11C,0.04800*%
%ADD12C,0.04762*%
D10*
X0031681Y0082351D02*
X0037681Y0082351D01*
X0037681Y0092351D02*
X0031681Y0092351D01*
X0031681Y0102351D02*
X0037681Y0102351D01*
X0060815Y0098926D02*
X0066815Y0098926D01*
X0066815Y0108926D02*
X0060815Y0108926D01*
X0060815Y0118926D02*
X0066815Y0118926D01*
X0066815Y0128926D02*
X0060815Y0128926D01*
X0060815Y0138926D02*
X0066815Y0138926D01*
X0066815Y0148926D02*
X0060815Y0148926D01*
X0075193Y0150375D02*
X0075193Y0156375D01*
X0085193Y0156375D02*
X0085193Y0150375D01*
X0095193Y0150375D02*
X0095193Y0156375D01*
X0105193Y0156375D02*
X0105193Y0150375D01*
X0115193Y0150375D02*
X0115193Y0156375D01*
X0125193Y0156375D02*
X0125193Y0150375D01*
X0135193Y0150375D02*
X0135193Y0156375D01*
X0145193Y0156375D02*
X0145193Y0150375D01*
X0155193Y0150375D02*
X0155193Y0156375D01*
X0165193Y0156375D02*
X0165193Y0150375D01*
X0175193Y0150375D02*
X0175193Y0156375D01*
X0185193Y0156375D02*
X0185193Y0150375D01*
X0197330Y0151524D02*
X0203330Y0151524D01*
X0203330Y0141524D02*
X0197330Y0141524D01*
X0197330Y0131524D02*
X0203330Y0131524D01*
X0203330Y0121524D02*
X0197330Y0121524D01*
X0197330Y0111524D02*
X0203330Y0111524D01*
X0203330Y0101524D02*
X0197330Y0101524D01*
X0197330Y0091524D02*
X0203330Y0091524D01*
X0203330Y0081524D02*
X0197330Y0081524D01*
X0197330Y0071524D02*
X0203330Y0071524D01*
X0203330Y0061524D02*
X0197330Y0061524D01*
X0197330Y0051524D02*
X0203330Y0051524D01*
X0203330Y0041524D02*
X0197330Y0041524D01*
X0186531Y0044170D02*
X0186531Y0038170D01*
X0176531Y0038170D02*
X0176531Y0044170D01*
X0166531Y0044170D02*
X0166531Y0038170D01*
X0156531Y0038170D02*
X0156531Y0044170D01*
X0146531Y0044170D02*
X0146531Y0038170D01*
X0136531Y0038170D02*
X0136531Y0044170D01*
X0126531Y0044170D02*
X0126531Y0038170D01*
X0116531Y0038170D02*
X0116531Y0044170D01*
X0106531Y0044170D02*
X0106531Y0038170D01*
X0096531Y0038170D02*
X0096531Y0044170D01*
X0086531Y0044170D02*
X0086531Y0038170D01*
X0076531Y0038170D02*
X0076531Y0044170D01*
X0066815Y0048926D02*
X0060815Y0048926D01*
X0060815Y0058926D02*
X0066815Y0058926D01*
X0066815Y0068926D02*
X0060815Y0068926D01*
X0060815Y0078926D02*
X0066815Y0078926D01*
X0066815Y0088926D02*
X0060815Y0088926D01*
X0060815Y0038926D02*
X0066815Y0038926D01*
X0131216Y0024485D02*
X0131216Y0018485D01*
X0141216Y0018485D02*
X0141216Y0024485D01*
X0151216Y0024485D02*
X0151216Y0018485D01*
X0161216Y0018485D02*
X0161216Y0024485D01*
X0171216Y0024485D02*
X0171216Y0018485D01*
X0220291Y0162087D02*
X0220291Y0168087D01*
X0220291Y0176162D02*
X0220291Y0182162D01*
X0230291Y0182162D02*
X0230291Y0176162D01*
X0230291Y0168087D02*
X0230291Y0162087D01*
X0240291Y0162087D02*
X0240291Y0168087D01*
X0240291Y0176162D02*
X0240291Y0182162D01*
X0107760Y0202036D02*
X0101760Y0202036D01*
X0092799Y0202036D02*
X0086799Y0202036D01*
X0086799Y0212036D02*
X0092799Y0212036D01*
X0092799Y0222036D02*
X0086799Y0222036D01*
X0086996Y0232509D02*
X0092996Y0232509D01*
X0101819Y0232666D02*
X0107819Y0232666D01*
X0107819Y0242666D02*
X0101819Y0242666D01*
X0092996Y0242509D02*
X0086996Y0242509D01*
X0086996Y0252509D02*
X0092996Y0252509D01*
X0101819Y0252666D02*
X0107819Y0252666D01*
X0107760Y0222036D02*
X0101760Y0222036D01*
X0101760Y0212036D02*
X0107760Y0212036D01*
X0023291Y0286662D02*
X0017291Y0286662D01*
X0017291Y0296662D02*
X0023291Y0296662D01*
X0020535Y0246209D02*
X0014535Y0246209D01*
X0014535Y0236209D02*
X0020535Y0236209D01*
X0019748Y0215934D02*
X0013748Y0215934D01*
X0013748Y0205934D02*
X0019748Y0205934D01*
D11*
X0015783Y0011643D03*
X0021689Y0023454D03*
X0044523Y0026209D03*
X0050035Y0029359D03*
X0053185Y0014792D03*
X0061059Y0019123D03*
X0068539Y0028178D03*
X0073264Y0026209D03*
X0078382Y0026209D03*
X0088618Y0026209D03*
X0111846Y0013611D03*
X0116571Y0020698D03*
X0131531Y0117548D03*
X0120508Y0164005D03*
X0192161Y0115973D03*
X0227594Y0059674D03*
X0211846Y0034083D03*
X0219327Y0024241D03*
X0226413Y0024241D03*
X0196492Y0012036D03*
X0040980Y0122666D03*
D12*
X0079563Y0054556D03*
X0091374Y0051406D03*
X0111846Y0064792D03*
X0122082Y0030934D03*
X0140980Y0104950D03*
X0146295Y0105737D03*
X0134681Y0122272D03*
X0133893Y0128572D03*
X0133106Y0135658D03*
X0133106Y0143532D03*
X0115783Y0134871D03*
X0114208Y0126209D03*
X0103185Y0131721D03*
X0099248Y0106524D03*
X0123657Y0109674D03*
X0178775Y0078965D03*
X0181138Y0108099D03*
X0206334Y0180540D03*
X0207909Y0193139D03*
X0207122Y0203375D03*
X0218145Y0204162D03*
X0218145Y0238808D03*
X0207909Y0260855D03*
X0201610Y0260068D03*
X0199248Y0248257D03*
X0201610Y0275816D03*
X0203185Y0286839D03*
X0208697Y0288414D03*
X0203972Y0305737D03*
X0194523Y0326209D03*
X0193736Y0334871D03*
X0185075Y0319910D03*
X0178775Y0323847D03*
X0174838Y0297863D03*
X0183500Y0291564D03*
X0169327Y0273454D03*
X0159090Y0290776D03*
X0138618Y0294713D03*
X0146492Y0263217D03*
X0158303Y0244320D03*
X0167752Y0248257D03*
X0174051Y0249044D03*
X0178775Y0252194D03*
X0175626Y0230934D03*
X0173264Y0226209D03*
X0186649Y0207312D03*
X0182712Y0198650D03*
X0156728Y0229359D03*
X0148854Y0212824D03*
X0154366Y0201800D03*
X0129956Y0234083D03*
X0123657Y0214398D03*
X0122870Y0204950D03*
X0081138Y0249831D03*
X0069327Y0248257D03*
X0073264Y0231721D03*
X0073264Y0212824D03*
X0065390Y0196288D03*
X0052004Y0196288D03*
X0053579Y0215186D03*
X0049642Y0234083D03*
X0052004Y0243532D03*
X0049642Y0250619D03*
X0055941Y0262430D03*
X0037043Y0274241D03*
X0027594Y0261643D03*
X0027594Y0248257D03*
X0026807Y0226997D03*
X0031531Y0210461D03*
X0081925Y0265580D03*
X0080350Y0294713D03*
X0095311Y0321485D03*
X0058303Y0289989D03*
X0009484Y0340383D03*
X0145705Y0347469D03*
X0242555Y0265580D03*
X0044130Y0042745D03*
X0011846Y0040383D03*
M02*
