G75*
%MOIN*%
%OFA0B0*%
%FSLAX25Y25*%
%IPPOS*%
%LPD*%
%AMOC8*
5,1,8,0,0,1.08239X$1,22.5*
%
%ADD10C,0.06400*%
%ADD11C,0.00538*%
%ADD12C,0.00470*%
%ADD13C,0.00434*%
%ADD14C,0.00749*%
%ADD15C,0.00788*%
%ADD16C,0.00670*%
%ADD17C,0.00494*%
%ADD18C,0.00462*%
%ADD19C,0.00450*%
%ADD20C,0.01940*%
%ADD21C,0.04800*%
%ADD22C,0.04762*%
D10*
X0051261Y0041524D02*
X0057261Y0041524D01*
X0057261Y0051524D02*
X0051261Y0051524D01*
X0051261Y0061524D02*
X0057261Y0061524D01*
X0057261Y0071524D02*
X0051261Y0071524D01*
X0051261Y0081524D02*
X0057261Y0081524D01*
X0057261Y0091524D02*
X0051261Y0091524D01*
X0051261Y0101524D02*
X0057261Y0101524D01*
X0057261Y0111524D02*
X0051261Y0111524D01*
X0051261Y0121524D02*
X0057261Y0121524D01*
X0057261Y0131524D02*
X0051261Y0131524D01*
X0051261Y0141524D02*
X0057261Y0141524D01*
X0057261Y0151524D02*
X0051261Y0151524D01*
X0069398Y0150375D02*
X0069398Y0156375D01*
X0079398Y0156375D02*
X0079398Y0150375D01*
X0089398Y0150375D02*
X0089398Y0156375D01*
X0099398Y0156375D02*
X0099398Y0150375D01*
X0109398Y0150375D02*
X0109398Y0156375D01*
X0119398Y0156375D02*
X0119398Y0150375D01*
X0129398Y0150375D02*
X0129398Y0156375D01*
X0139398Y0156375D02*
X0139398Y0150375D01*
X0149398Y0150375D02*
X0149398Y0156375D01*
X0159398Y0156375D02*
X0159398Y0150375D01*
X0169398Y0150375D02*
X0169398Y0156375D01*
X0179398Y0156375D02*
X0179398Y0150375D01*
X0187776Y0148926D02*
X0193776Y0148926D01*
X0193776Y0138926D02*
X0187776Y0138926D01*
X0187776Y0128926D02*
X0193776Y0128926D01*
X0193776Y0118926D02*
X0187776Y0118926D01*
X0187776Y0108926D02*
X0193776Y0108926D01*
X0193776Y0098926D02*
X0187776Y0098926D01*
X0187776Y0088926D02*
X0193776Y0088926D01*
X0193776Y0078926D02*
X0187776Y0078926D01*
X0187776Y0068926D02*
X0193776Y0068926D01*
X0193776Y0058926D02*
X0187776Y0058926D01*
X0187776Y0048926D02*
X0193776Y0048926D01*
X0193776Y0038926D02*
X0187776Y0038926D01*
X0178060Y0038170D02*
X0178060Y0044170D01*
X0168060Y0044170D02*
X0168060Y0038170D01*
X0158060Y0038170D02*
X0158060Y0044170D01*
X0148060Y0044170D02*
X0148060Y0038170D01*
X0138060Y0038170D02*
X0138060Y0044170D01*
X0128060Y0044170D02*
X0128060Y0038170D01*
X0118060Y0038170D02*
X0118060Y0044170D01*
X0108060Y0044170D02*
X0108060Y0038170D01*
X0098060Y0038170D02*
X0098060Y0044170D01*
X0088060Y0044170D02*
X0088060Y0038170D01*
X0078060Y0038170D02*
X0078060Y0044170D01*
X0068060Y0044170D02*
X0068060Y0038170D01*
X0083375Y0024485D02*
X0083375Y0018485D01*
X0093375Y0018485D02*
X0093375Y0024485D01*
X0103375Y0024485D02*
X0103375Y0018485D01*
X0113375Y0018485D02*
X0113375Y0024485D01*
X0123375Y0024485D02*
X0123375Y0018485D01*
X0216910Y0082351D02*
X0222910Y0082351D01*
X0222910Y0092351D02*
X0216910Y0092351D01*
X0216910Y0102351D02*
X0222910Y0102351D01*
X0167792Y0202036D02*
X0161792Y0202036D01*
X0152831Y0202036D02*
X0146831Y0202036D01*
X0146831Y0212036D02*
X0152831Y0212036D01*
X0152831Y0222036D02*
X0146831Y0222036D01*
X0146772Y0232666D02*
X0152772Y0232666D01*
X0161595Y0232509D02*
X0167595Y0232509D01*
X0167595Y0242509D02*
X0161595Y0242509D01*
X0152772Y0242666D02*
X0146772Y0242666D01*
X0146772Y0252666D02*
X0152772Y0252666D01*
X0161595Y0252509D02*
X0167595Y0252509D01*
X0167792Y0222036D02*
X0161792Y0222036D01*
X0161792Y0212036D02*
X0167792Y0212036D01*
X0231300Y0286662D02*
X0237300Y0286662D01*
X0237300Y0296662D02*
X0231300Y0296662D01*
X0234056Y0246209D02*
X0240056Y0246209D01*
X0240056Y0236209D02*
X0234056Y0236209D01*
X0234843Y0215934D02*
X0240843Y0215934D01*
X0240843Y0205934D02*
X0234843Y0205934D01*
X0034300Y0182162D02*
X0034300Y0176162D01*
X0034300Y0168087D02*
X0034300Y0162087D01*
X0024300Y0162087D02*
X0024300Y0168087D01*
X0024300Y0176162D02*
X0024300Y0182162D01*
X0014300Y0182162D02*
X0014300Y0176162D01*
X0014300Y0168087D02*
X0014300Y0162087D01*
D11*
X0090275Y0106514D02*
X0090275Y0105472D01*
X0090275Y0106514D02*
X0094861Y0106514D01*
X0094861Y0105472D01*
X0090275Y0105472D01*
X0090275Y0106009D02*
X0094861Y0106009D01*
X0090275Y0104545D02*
X0090275Y0103503D01*
X0090275Y0104545D02*
X0094861Y0104545D01*
X0094861Y0103503D01*
X0090275Y0103503D01*
X0090275Y0104040D02*
X0094861Y0104040D01*
X0090275Y0102577D02*
X0090275Y0101535D01*
X0090275Y0102577D02*
X0094861Y0102577D01*
X0094861Y0101535D01*
X0090275Y0101535D01*
X0090275Y0102072D02*
X0094861Y0102072D01*
X0090275Y0100608D02*
X0090275Y0099566D01*
X0090275Y0100608D02*
X0094861Y0100608D01*
X0094861Y0099566D01*
X0090275Y0099566D01*
X0090275Y0100103D02*
X0094861Y0100103D01*
X0090275Y0098640D02*
X0090275Y0097598D01*
X0090275Y0098640D02*
X0094861Y0098640D01*
X0094861Y0097598D01*
X0090275Y0097598D01*
X0090275Y0098135D02*
X0094861Y0098135D01*
X0090275Y0096671D02*
X0090275Y0095629D01*
X0090275Y0096671D02*
X0094861Y0096671D01*
X0094861Y0095629D01*
X0090275Y0095629D01*
X0090275Y0096166D02*
X0094861Y0096166D01*
X0090275Y0094703D02*
X0090275Y0093661D01*
X0090275Y0094703D02*
X0094861Y0094703D01*
X0094861Y0093661D01*
X0090275Y0093661D01*
X0090275Y0094198D02*
X0094861Y0094198D01*
X0090275Y0092734D02*
X0090275Y0091692D01*
X0090275Y0092734D02*
X0094861Y0092734D01*
X0094861Y0091692D01*
X0090275Y0091692D01*
X0090275Y0092229D02*
X0094861Y0092229D01*
X0090275Y0090766D02*
X0090275Y0089724D01*
X0090275Y0090766D02*
X0094861Y0090766D01*
X0094861Y0089724D01*
X0090275Y0089724D01*
X0090275Y0090261D02*
X0094861Y0090261D01*
X0090275Y0088797D02*
X0090275Y0087755D01*
X0090275Y0088797D02*
X0094861Y0088797D01*
X0094861Y0087755D01*
X0090275Y0087755D01*
X0090275Y0088292D02*
X0094861Y0088292D01*
X0090275Y0086829D02*
X0090275Y0085787D01*
X0090275Y0086829D02*
X0094861Y0086829D01*
X0094861Y0085787D01*
X0090275Y0085787D01*
X0090275Y0086324D02*
X0094861Y0086324D01*
X0090275Y0084860D02*
X0090275Y0083818D01*
X0090275Y0084860D02*
X0094861Y0084860D01*
X0094861Y0083818D01*
X0090275Y0083818D01*
X0090275Y0084355D02*
X0094861Y0084355D01*
X0097952Y0080727D02*
X0098994Y0080727D01*
X0098994Y0076141D01*
X0097952Y0076141D01*
X0097952Y0080727D01*
X0097952Y0076678D02*
X0098994Y0076678D01*
X0098994Y0077215D02*
X0097952Y0077215D01*
X0097952Y0077752D02*
X0098994Y0077752D01*
X0098994Y0078289D02*
X0097952Y0078289D01*
X0097952Y0078826D02*
X0098994Y0078826D01*
X0098994Y0079363D02*
X0097952Y0079363D01*
X0097952Y0079900D02*
X0098994Y0079900D01*
X0098994Y0080437D02*
X0097952Y0080437D01*
X0099921Y0080727D02*
X0100963Y0080727D01*
X0100963Y0076141D01*
X0099921Y0076141D01*
X0099921Y0080727D01*
X0099921Y0076678D02*
X0100963Y0076678D01*
X0100963Y0077215D02*
X0099921Y0077215D01*
X0099921Y0077752D02*
X0100963Y0077752D01*
X0100963Y0078289D02*
X0099921Y0078289D01*
X0099921Y0078826D02*
X0100963Y0078826D01*
X0100963Y0079363D02*
X0099921Y0079363D01*
X0099921Y0079900D02*
X0100963Y0079900D01*
X0100963Y0080437D02*
X0099921Y0080437D01*
X0101889Y0080727D02*
X0102931Y0080727D01*
X0102931Y0076141D01*
X0101889Y0076141D01*
X0101889Y0080727D01*
X0101889Y0076678D02*
X0102931Y0076678D01*
X0102931Y0077215D02*
X0101889Y0077215D01*
X0101889Y0077752D02*
X0102931Y0077752D01*
X0102931Y0078289D02*
X0101889Y0078289D01*
X0101889Y0078826D02*
X0102931Y0078826D01*
X0102931Y0079363D02*
X0101889Y0079363D01*
X0101889Y0079900D02*
X0102931Y0079900D01*
X0102931Y0080437D02*
X0101889Y0080437D01*
X0103858Y0080727D02*
X0104900Y0080727D01*
X0104900Y0076141D01*
X0103858Y0076141D01*
X0103858Y0080727D01*
X0103858Y0076678D02*
X0104900Y0076678D01*
X0104900Y0077215D02*
X0103858Y0077215D01*
X0103858Y0077752D02*
X0104900Y0077752D01*
X0104900Y0078289D02*
X0103858Y0078289D01*
X0103858Y0078826D02*
X0104900Y0078826D01*
X0104900Y0079363D02*
X0103858Y0079363D01*
X0103858Y0079900D02*
X0104900Y0079900D01*
X0104900Y0080437D02*
X0103858Y0080437D01*
X0105826Y0080727D02*
X0106868Y0080727D01*
X0106868Y0076141D01*
X0105826Y0076141D01*
X0105826Y0080727D01*
X0105826Y0076678D02*
X0106868Y0076678D01*
X0106868Y0077215D02*
X0105826Y0077215D01*
X0105826Y0077752D02*
X0106868Y0077752D01*
X0106868Y0078289D02*
X0105826Y0078289D01*
X0105826Y0078826D02*
X0106868Y0078826D01*
X0106868Y0079363D02*
X0105826Y0079363D01*
X0105826Y0079900D02*
X0106868Y0079900D01*
X0106868Y0080437D02*
X0105826Y0080437D01*
X0107795Y0080727D02*
X0108837Y0080727D01*
X0108837Y0076141D01*
X0107795Y0076141D01*
X0107795Y0080727D01*
X0107795Y0076678D02*
X0108837Y0076678D01*
X0108837Y0077215D02*
X0107795Y0077215D01*
X0107795Y0077752D02*
X0108837Y0077752D01*
X0108837Y0078289D02*
X0107795Y0078289D01*
X0107795Y0078826D02*
X0108837Y0078826D01*
X0108837Y0079363D02*
X0107795Y0079363D01*
X0107795Y0079900D02*
X0108837Y0079900D01*
X0108837Y0080437D02*
X0107795Y0080437D01*
X0109763Y0080727D02*
X0110805Y0080727D01*
X0110805Y0076141D01*
X0109763Y0076141D01*
X0109763Y0080727D01*
X0109763Y0076678D02*
X0110805Y0076678D01*
X0110805Y0077215D02*
X0109763Y0077215D01*
X0109763Y0077752D02*
X0110805Y0077752D01*
X0110805Y0078289D02*
X0109763Y0078289D01*
X0109763Y0078826D02*
X0110805Y0078826D01*
X0110805Y0079363D02*
X0109763Y0079363D01*
X0109763Y0079900D02*
X0110805Y0079900D01*
X0110805Y0080437D02*
X0109763Y0080437D01*
X0111732Y0080727D02*
X0112774Y0080727D01*
X0112774Y0076141D01*
X0111732Y0076141D01*
X0111732Y0080727D01*
X0111732Y0076678D02*
X0112774Y0076678D01*
X0112774Y0077215D02*
X0111732Y0077215D01*
X0111732Y0077752D02*
X0112774Y0077752D01*
X0112774Y0078289D02*
X0111732Y0078289D01*
X0111732Y0078826D02*
X0112774Y0078826D01*
X0112774Y0079363D02*
X0111732Y0079363D01*
X0111732Y0079900D02*
X0112774Y0079900D01*
X0112774Y0080437D02*
X0111732Y0080437D01*
X0113700Y0080727D02*
X0114742Y0080727D01*
X0114742Y0076141D01*
X0113700Y0076141D01*
X0113700Y0080727D01*
X0113700Y0076678D02*
X0114742Y0076678D01*
X0114742Y0077215D02*
X0113700Y0077215D01*
X0113700Y0077752D02*
X0114742Y0077752D01*
X0114742Y0078289D02*
X0113700Y0078289D01*
X0113700Y0078826D02*
X0114742Y0078826D01*
X0114742Y0079363D02*
X0113700Y0079363D01*
X0113700Y0079900D02*
X0114742Y0079900D01*
X0114742Y0080437D02*
X0113700Y0080437D01*
X0115669Y0080727D02*
X0116711Y0080727D01*
X0116711Y0076141D01*
X0115669Y0076141D01*
X0115669Y0080727D01*
X0115669Y0076678D02*
X0116711Y0076678D01*
X0116711Y0077215D02*
X0115669Y0077215D01*
X0115669Y0077752D02*
X0116711Y0077752D01*
X0116711Y0078289D02*
X0115669Y0078289D01*
X0115669Y0078826D02*
X0116711Y0078826D01*
X0116711Y0079363D02*
X0115669Y0079363D01*
X0115669Y0079900D02*
X0116711Y0079900D01*
X0116711Y0080437D02*
X0115669Y0080437D01*
X0117637Y0080727D02*
X0118679Y0080727D01*
X0118679Y0076141D01*
X0117637Y0076141D01*
X0117637Y0080727D01*
X0117637Y0076678D02*
X0118679Y0076678D01*
X0118679Y0077215D02*
X0117637Y0077215D01*
X0117637Y0077752D02*
X0118679Y0077752D01*
X0118679Y0078289D02*
X0117637Y0078289D01*
X0117637Y0078826D02*
X0118679Y0078826D01*
X0118679Y0079363D02*
X0117637Y0079363D01*
X0117637Y0079900D02*
X0118679Y0079900D01*
X0118679Y0080437D02*
X0117637Y0080437D01*
X0119606Y0080727D02*
X0120648Y0080727D01*
X0120648Y0076141D01*
X0119606Y0076141D01*
X0119606Y0080727D01*
X0119606Y0076678D02*
X0120648Y0076678D01*
X0120648Y0077215D02*
X0119606Y0077215D01*
X0119606Y0077752D02*
X0120648Y0077752D01*
X0120648Y0078289D02*
X0119606Y0078289D01*
X0119606Y0078826D02*
X0120648Y0078826D01*
X0120648Y0079363D02*
X0119606Y0079363D01*
X0119606Y0079900D02*
X0120648Y0079900D01*
X0120648Y0080437D02*
X0119606Y0080437D01*
X0123739Y0083818D02*
X0123739Y0084860D01*
X0128325Y0084860D01*
X0128325Y0083818D01*
X0123739Y0083818D01*
X0123739Y0084355D02*
X0128325Y0084355D01*
X0123739Y0085787D02*
X0123739Y0086829D01*
X0128325Y0086829D01*
X0128325Y0085787D01*
X0123739Y0085787D01*
X0123739Y0086324D02*
X0128325Y0086324D01*
X0123739Y0087755D02*
X0123739Y0088797D01*
X0128325Y0088797D01*
X0128325Y0087755D01*
X0123739Y0087755D01*
X0123739Y0088292D02*
X0128325Y0088292D01*
X0123739Y0089724D02*
X0123739Y0090766D01*
X0128325Y0090766D01*
X0128325Y0089724D01*
X0123739Y0089724D01*
X0123739Y0090261D02*
X0128325Y0090261D01*
X0123739Y0091692D02*
X0123739Y0092734D01*
X0128325Y0092734D01*
X0128325Y0091692D01*
X0123739Y0091692D01*
X0123739Y0092229D02*
X0128325Y0092229D01*
X0123739Y0093661D02*
X0123739Y0094703D01*
X0128325Y0094703D01*
X0128325Y0093661D01*
X0123739Y0093661D01*
X0123739Y0094198D02*
X0128325Y0094198D01*
X0123739Y0095629D02*
X0123739Y0096671D01*
X0128325Y0096671D01*
X0128325Y0095629D01*
X0123739Y0095629D01*
X0123739Y0096166D02*
X0128325Y0096166D01*
X0123739Y0097598D02*
X0123739Y0098640D01*
X0128325Y0098640D01*
X0128325Y0097598D01*
X0123739Y0097598D01*
X0123739Y0098135D02*
X0128325Y0098135D01*
X0123739Y0099566D02*
X0123739Y0100608D01*
X0128325Y0100608D01*
X0128325Y0099566D01*
X0123739Y0099566D01*
X0123739Y0100103D02*
X0128325Y0100103D01*
X0123739Y0101535D02*
X0123739Y0102577D01*
X0128325Y0102577D01*
X0128325Y0101535D01*
X0123739Y0101535D01*
X0123739Y0102072D02*
X0128325Y0102072D01*
X0123739Y0103503D02*
X0123739Y0104545D01*
X0128325Y0104545D01*
X0128325Y0103503D01*
X0123739Y0103503D01*
X0123739Y0104040D02*
X0128325Y0104040D01*
X0123739Y0105472D02*
X0123739Y0106514D01*
X0128325Y0106514D01*
X0128325Y0105472D01*
X0123739Y0105472D01*
X0123739Y0106009D02*
X0128325Y0106009D01*
X0120648Y0114191D02*
X0119606Y0114191D01*
X0120648Y0114191D02*
X0120648Y0109605D01*
X0119606Y0109605D01*
X0119606Y0114191D01*
X0119606Y0110142D02*
X0120648Y0110142D01*
X0120648Y0110679D02*
X0119606Y0110679D01*
X0119606Y0111216D02*
X0120648Y0111216D01*
X0120648Y0111753D02*
X0119606Y0111753D01*
X0119606Y0112290D02*
X0120648Y0112290D01*
X0120648Y0112827D02*
X0119606Y0112827D01*
X0119606Y0113364D02*
X0120648Y0113364D01*
X0120648Y0113901D02*
X0119606Y0113901D01*
X0118679Y0114191D02*
X0117637Y0114191D01*
X0118679Y0114191D02*
X0118679Y0109605D01*
X0117637Y0109605D01*
X0117637Y0114191D01*
X0117637Y0110142D02*
X0118679Y0110142D01*
X0118679Y0110679D02*
X0117637Y0110679D01*
X0117637Y0111216D02*
X0118679Y0111216D01*
X0118679Y0111753D02*
X0117637Y0111753D01*
X0117637Y0112290D02*
X0118679Y0112290D01*
X0118679Y0112827D02*
X0117637Y0112827D01*
X0117637Y0113364D02*
X0118679Y0113364D01*
X0118679Y0113901D02*
X0117637Y0113901D01*
X0116711Y0114191D02*
X0115669Y0114191D01*
X0116711Y0114191D02*
X0116711Y0109605D01*
X0115669Y0109605D01*
X0115669Y0114191D01*
X0115669Y0110142D02*
X0116711Y0110142D01*
X0116711Y0110679D02*
X0115669Y0110679D01*
X0115669Y0111216D02*
X0116711Y0111216D01*
X0116711Y0111753D02*
X0115669Y0111753D01*
X0115669Y0112290D02*
X0116711Y0112290D01*
X0116711Y0112827D02*
X0115669Y0112827D01*
X0115669Y0113364D02*
X0116711Y0113364D01*
X0116711Y0113901D02*
X0115669Y0113901D01*
X0114742Y0114191D02*
X0113700Y0114191D01*
X0114742Y0114191D02*
X0114742Y0109605D01*
X0113700Y0109605D01*
X0113700Y0114191D01*
X0113700Y0110142D02*
X0114742Y0110142D01*
X0114742Y0110679D02*
X0113700Y0110679D01*
X0113700Y0111216D02*
X0114742Y0111216D01*
X0114742Y0111753D02*
X0113700Y0111753D01*
X0113700Y0112290D02*
X0114742Y0112290D01*
X0114742Y0112827D02*
X0113700Y0112827D01*
X0113700Y0113364D02*
X0114742Y0113364D01*
X0114742Y0113901D02*
X0113700Y0113901D01*
X0112774Y0114191D02*
X0111732Y0114191D01*
X0112774Y0114191D02*
X0112774Y0109605D01*
X0111732Y0109605D01*
X0111732Y0114191D01*
X0111732Y0110142D02*
X0112774Y0110142D01*
X0112774Y0110679D02*
X0111732Y0110679D01*
X0111732Y0111216D02*
X0112774Y0111216D01*
X0112774Y0111753D02*
X0111732Y0111753D01*
X0111732Y0112290D02*
X0112774Y0112290D01*
X0112774Y0112827D02*
X0111732Y0112827D01*
X0111732Y0113364D02*
X0112774Y0113364D01*
X0112774Y0113901D02*
X0111732Y0113901D01*
X0110805Y0114191D02*
X0109763Y0114191D01*
X0110805Y0114191D02*
X0110805Y0109605D01*
X0109763Y0109605D01*
X0109763Y0114191D01*
X0109763Y0110142D02*
X0110805Y0110142D01*
X0110805Y0110679D02*
X0109763Y0110679D01*
X0109763Y0111216D02*
X0110805Y0111216D01*
X0110805Y0111753D02*
X0109763Y0111753D01*
X0109763Y0112290D02*
X0110805Y0112290D01*
X0110805Y0112827D02*
X0109763Y0112827D01*
X0109763Y0113364D02*
X0110805Y0113364D01*
X0110805Y0113901D02*
X0109763Y0113901D01*
X0108837Y0114191D02*
X0107795Y0114191D01*
X0108837Y0114191D02*
X0108837Y0109605D01*
X0107795Y0109605D01*
X0107795Y0114191D01*
X0107795Y0110142D02*
X0108837Y0110142D01*
X0108837Y0110679D02*
X0107795Y0110679D01*
X0107795Y0111216D02*
X0108837Y0111216D01*
X0108837Y0111753D02*
X0107795Y0111753D01*
X0107795Y0112290D02*
X0108837Y0112290D01*
X0108837Y0112827D02*
X0107795Y0112827D01*
X0107795Y0113364D02*
X0108837Y0113364D01*
X0108837Y0113901D02*
X0107795Y0113901D01*
X0106868Y0114191D02*
X0105826Y0114191D01*
X0106868Y0114191D02*
X0106868Y0109605D01*
X0105826Y0109605D01*
X0105826Y0114191D01*
X0105826Y0110142D02*
X0106868Y0110142D01*
X0106868Y0110679D02*
X0105826Y0110679D01*
X0105826Y0111216D02*
X0106868Y0111216D01*
X0106868Y0111753D02*
X0105826Y0111753D01*
X0105826Y0112290D02*
X0106868Y0112290D01*
X0106868Y0112827D02*
X0105826Y0112827D01*
X0105826Y0113364D02*
X0106868Y0113364D01*
X0106868Y0113901D02*
X0105826Y0113901D01*
X0104900Y0114191D02*
X0103858Y0114191D01*
X0104900Y0114191D02*
X0104900Y0109605D01*
X0103858Y0109605D01*
X0103858Y0114191D01*
X0103858Y0110142D02*
X0104900Y0110142D01*
X0104900Y0110679D02*
X0103858Y0110679D01*
X0103858Y0111216D02*
X0104900Y0111216D01*
X0104900Y0111753D02*
X0103858Y0111753D01*
X0103858Y0112290D02*
X0104900Y0112290D01*
X0104900Y0112827D02*
X0103858Y0112827D01*
X0103858Y0113364D02*
X0104900Y0113364D01*
X0104900Y0113901D02*
X0103858Y0113901D01*
X0102931Y0114191D02*
X0101889Y0114191D01*
X0102931Y0114191D02*
X0102931Y0109605D01*
X0101889Y0109605D01*
X0101889Y0114191D01*
X0101889Y0110142D02*
X0102931Y0110142D01*
X0102931Y0110679D02*
X0101889Y0110679D01*
X0101889Y0111216D02*
X0102931Y0111216D01*
X0102931Y0111753D02*
X0101889Y0111753D01*
X0101889Y0112290D02*
X0102931Y0112290D01*
X0102931Y0112827D02*
X0101889Y0112827D01*
X0101889Y0113364D02*
X0102931Y0113364D01*
X0102931Y0113901D02*
X0101889Y0113901D01*
X0100963Y0114191D02*
X0099921Y0114191D01*
X0100963Y0114191D02*
X0100963Y0109605D01*
X0099921Y0109605D01*
X0099921Y0114191D01*
X0099921Y0110142D02*
X0100963Y0110142D01*
X0100963Y0110679D02*
X0099921Y0110679D01*
X0099921Y0111216D02*
X0100963Y0111216D01*
X0100963Y0111753D02*
X0099921Y0111753D01*
X0099921Y0112290D02*
X0100963Y0112290D01*
X0100963Y0112827D02*
X0099921Y0112827D01*
X0099921Y0113364D02*
X0100963Y0113364D01*
X0100963Y0113901D02*
X0099921Y0113901D01*
X0098994Y0114191D02*
X0097952Y0114191D01*
X0098994Y0114191D02*
X0098994Y0109605D01*
X0097952Y0109605D01*
X0097952Y0114191D01*
X0097952Y0110142D02*
X0098994Y0110142D01*
X0098994Y0110679D02*
X0097952Y0110679D01*
X0097952Y0111216D02*
X0098994Y0111216D01*
X0098994Y0111753D02*
X0097952Y0111753D01*
X0097952Y0112290D02*
X0098994Y0112290D01*
X0098994Y0112827D02*
X0097952Y0112827D01*
X0097952Y0113364D02*
X0098994Y0113364D01*
X0098994Y0113901D02*
X0097952Y0113901D01*
D12*
X0036686Y0041017D02*
X0034394Y0041017D01*
X0036686Y0041017D02*
X0036686Y0036363D01*
X0034394Y0036363D01*
X0034394Y0041017D01*
X0034394Y0036832D02*
X0036686Y0036832D01*
X0036686Y0037301D02*
X0034394Y0037301D01*
X0034394Y0037770D02*
X0036686Y0037770D01*
X0036686Y0038239D02*
X0034394Y0038239D01*
X0034394Y0038708D02*
X0036686Y0038708D01*
X0036686Y0039177D02*
X0034394Y0039177D01*
X0034394Y0039646D02*
X0036686Y0039646D01*
X0036686Y0040115D02*
X0034394Y0040115D01*
X0034394Y0040584D02*
X0036686Y0040584D01*
X0029206Y0041017D02*
X0026914Y0041017D01*
X0029206Y0041017D02*
X0029206Y0036363D01*
X0026914Y0036363D01*
X0026914Y0041017D01*
X0026914Y0036832D02*
X0029206Y0036832D01*
X0029206Y0037301D02*
X0026914Y0037301D01*
X0026914Y0037770D02*
X0029206Y0037770D01*
X0029206Y0038239D02*
X0026914Y0038239D01*
X0026914Y0038708D02*
X0029206Y0038708D01*
X0029206Y0039177D02*
X0026914Y0039177D01*
X0026914Y0039646D02*
X0029206Y0039646D01*
X0029206Y0040115D02*
X0026914Y0040115D01*
X0026914Y0040584D02*
X0029206Y0040584D01*
X0029206Y0031962D02*
X0026914Y0031962D01*
X0029206Y0031962D02*
X0029206Y0027308D01*
X0026914Y0027308D01*
X0026914Y0031962D01*
X0026914Y0027777D02*
X0029206Y0027777D01*
X0029206Y0028246D02*
X0026914Y0028246D01*
X0026914Y0028715D02*
X0029206Y0028715D01*
X0029206Y0029184D02*
X0026914Y0029184D01*
X0026914Y0029653D02*
X0029206Y0029653D01*
X0029206Y0030122D02*
X0026914Y0030122D01*
X0026914Y0030591D02*
X0029206Y0030591D01*
X0029206Y0031060D02*
X0026914Y0031060D01*
X0026914Y0031529D02*
X0029206Y0031529D01*
X0030654Y0031962D02*
X0032946Y0031962D01*
X0032946Y0027308D01*
X0030654Y0027308D01*
X0030654Y0031962D01*
X0030654Y0027777D02*
X0032946Y0027777D01*
X0032946Y0028246D02*
X0030654Y0028246D01*
X0030654Y0028715D02*
X0032946Y0028715D01*
X0032946Y0029184D02*
X0030654Y0029184D01*
X0030654Y0029653D02*
X0032946Y0029653D01*
X0032946Y0030122D02*
X0030654Y0030122D01*
X0030654Y0030591D02*
X0032946Y0030591D01*
X0032946Y0031060D02*
X0030654Y0031060D01*
X0030654Y0031529D02*
X0032946Y0031529D01*
X0034394Y0031962D02*
X0036686Y0031962D01*
X0036686Y0027308D01*
X0034394Y0027308D01*
X0034394Y0031962D01*
X0034394Y0027777D02*
X0036686Y0027777D01*
X0036686Y0028246D02*
X0034394Y0028246D01*
X0034394Y0028715D02*
X0036686Y0028715D01*
X0036686Y0029184D02*
X0034394Y0029184D01*
X0034394Y0029653D02*
X0036686Y0029653D01*
X0036686Y0030122D02*
X0034394Y0030122D01*
X0034394Y0030591D02*
X0036686Y0030591D01*
X0036686Y0031060D02*
X0034394Y0031060D01*
X0034394Y0031529D02*
X0036686Y0031529D01*
X0046844Y0018871D02*
X0046844Y0016579D01*
X0043764Y0016579D01*
X0043764Y0018871D01*
X0046844Y0018871D01*
X0046844Y0017048D02*
X0043764Y0017048D01*
X0043764Y0017517D02*
X0046844Y0017517D01*
X0046844Y0017986D02*
X0043764Y0017986D01*
X0043764Y0018455D02*
X0046844Y0018455D01*
X0056686Y0018871D02*
X0056686Y0016579D01*
X0053606Y0016579D01*
X0053606Y0018871D01*
X0056686Y0018871D01*
X0056686Y0017048D02*
X0053606Y0017048D01*
X0053606Y0017517D02*
X0056686Y0017517D01*
X0056686Y0017986D02*
X0053606Y0017986D01*
X0053606Y0018455D02*
X0056686Y0018455D01*
X0030496Y0074788D02*
X0030496Y0077080D01*
X0033576Y0077080D01*
X0033576Y0074788D01*
X0030496Y0074788D01*
X0030496Y0075257D02*
X0033576Y0075257D01*
X0033576Y0075726D02*
X0030496Y0075726D01*
X0030496Y0076195D02*
X0033576Y0076195D01*
X0033576Y0076664D02*
X0030496Y0076664D01*
X0020654Y0077080D02*
X0020654Y0074788D01*
X0020654Y0077080D02*
X0023734Y0077080D01*
X0023734Y0074788D01*
X0020654Y0074788D01*
X0020654Y0075257D02*
X0023734Y0075257D01*
X0023734Y0075726D02*
X0020654Y0075726D01*
X0020654Y0076195D02*
X0023734Y0076195D01*
X0023734Y0076664D02*
X0020654Y0076664D01*
D13*
X0024593Y0016286D02*
X0028889Y0016286D01*
X0024593Y0016286D02*
X0024593Y0020188D01*
X0028889Y0020188D01*
X0028889Y0016286D01*
X0028889Y0016719D02*
X0024593Y0016719D01*
X0024593Y0017152D02*
X0028889Y0017152D01*
X0028889Y0017585D02*
X0024593Y0017585D01*
X0024593Y0018018D02*
X0028889Y0018018D01*
X0028889Y0018451D02*
X0024593Y0018451D01*
X0024593Y0018884D02*
X0028889Y0018884D01*
X0028889Y0019317D02*
X0024593Y0019317D01*
X0024593Y0019750D02*
X0028889Y0019750D01*
X0028889Y0020183D02*
X0024593Y0020183D01*
X0031286Y0016286D02*
X0035582Y0016286D01*
X0031286Y0016286D02*
X0031286Y0020188D01*
X0035582Y0020188D01*
X0035582Y0016286D01*
X0035582Y0016719D02*
X0031286Y0016719D01*
X0031286Y0017152D02*
X0035582Y0017152D01*
X0035582Y0017585D02*
X0031286Y0017585D01*
X0031286Y0018018D02*
X0035582Y0018018D01*
X0035582Y0018451D02*
X0031286Y0018451D01*
X0031286Y0018884D02*
X0035582Y0018884D01*
X0035582Y0019317D02*
X0031286Y0019317D01*
X0031286Y0019750D02*
X0035582Y0019750D01*
X0035582Y0020183D02*
X0031286Y0020183D01*
X0031640Y0052644D02*
X0035936Y0052644D01*
X0031640Y0052644D02*
X0031640Y0056546D01*
X0035936Y0056546D01*
X0035936Y0052644D01*
X0035936Y0053077D02*
X0031640Y0053077D01*
X0031640Y0053510D02*
X0035936Y0053510D01*
X0035936Y0053943D02*
X0031640Y0053943D01*
X0031640Y0054376D02*
X0035936Y0054376D01*
X0035936Y0054809D02*
X0031640Y0054809D01*
X0031640Y0055242D02*
X0035936Y0055242D01*
X0035936Y0055675D02*
X0031640Y0055675D01*
X0031640Y0056108D02*
X0035936Y0056108D01*
X0035936Y0056541D02*
X0031640Y0056541D01*
X0029243Y0052644D02*
X0024947Y0052644D01*
X0024947Y0056546D01*
X0029243Y0056546D01*
X0029243Y0052644D01*
X0029243Y0053077D02*
X0024947Y0053077D01*
X0024947Y0053510D02*
X0029243Y0053510D01*
X0029243Y0053943D02*
X0024947Y0053943D01*
X0024947Y0054376D02*
X0029243Y0054376D01*
X0029243Y0054809D02*
X0024947Y0054809D01*
X0024947Y0055242D02*
X0029243Y0055242D01*
X0029243Y0055675D02*
X0024947Y0055675D01*
X0024947Y0056108D02*
X0029243Y0056108D01*
X0029243Y0056541D02*
X0024947Y0056541D01*
X0025380Y0068849D02*
X0029676Y0068849D01*
X0029676Y0064947D01*
X0025380Y0064947D01*
X0025380Y0068849D01*
X0025380Y0065380D02*
X0029676Y0065380D01*
X0029676Y0065813D02*
X0025380Y0065813D01*
X0025380Y0066246D02*
X0029676Y0066246D01*
X0029676Y0066679D02*
X0025380Y0066679D01*
X0025380Y0067112D02*
X0029676Y0067112D01*
X0029676Y0067545D02*
X0025380Y0067545D01*
X0025380Y0067978D02*
X0029676Y0067978D01*
X0029676Y0068411D02*
X0025380Y0068411D01*
X0025380Y0068844D02*
X0029676Y0068844D01*
X0032073Y0068849D02*
X0036369Y0068849D01*
X0036369Y0064947D01*
X0032073Y0064947D01*
X0032073Y0068849D01*
X0032073Y0065380D02*
X0036369Y0065380D01*
X0036369Y0065813D02*
X0032073Y0065813D01*
X0032073Y0066246D02*
X0036369Y0066246D01*
X0036369Y0066679D02*
X0032073Y0066679D01*
X0032073Y0067112D02*
X0036369Y0067112D01*
X0036369Y0067545D02*
X0032073Y0067545D01*
X0032073Y0067978D02*
X0036369Y0067978D01*
X0036369Y0068411D02*
X0032073Y0068411D01*
X0032073Y0068844D02*
X0036369Y0068844D01*
X0083751Y0071168D02*
X0083751Y0075464D01*
X0083751Y0071168D02*
X0079849Y0071168D01*
X0079849Y0075464D01*
X0083751Y0075464D01*
X0083751Y0071601D02*
X0079849Y0071601D01*
X0079849Y0072034D02*
X0083751Y0072034D01*
X0083751Y0072467D02*
X0079849Y0072467D01*
X0079849Y0072900D02*
X0083751Y0072900D01*
X0083751Y0073333D02*
X0079849Y0073333D01*
X0079849Y0073766D02*
X0083751Y0073766D01*
X0083751Y0074199D02*
X0079849Y0074199D01*
X0079849Y0074632D02*
X0083751Y0074632D01*
X0083751Y0075065D02*
X0079849Y0075065D01*
X0083751Y0077861D02*
X0083751Y0082157D01*
X0083751Y0077861D02*
X0079849Y0077861D01*
X0079849Y0082157D01*
X0083751Y0082157D01*
X0083751Y0078294D02*
X0079849Y0078294D01*
X0079849Y0078727D02*
X0083751Y0078727D01*
X0083751Y0079160D02*
X0079849Y0079160D01*
X0079849Y0079593D02*
X0083751Y0079593D01*
X0083751Y0080026D02*
X0079849Y0080026D01*
X0079849Y0080459D02*
X0083751Y0080459D01*
X0083751Y0080892D02*
X0079849Y0080892D01*
X0079849Y0081325D02*
X0083751Y0081325D01*
X0083751Y0081758D02*
X0079849Y0081758D01*
X0124042Y0075149D02*
X0128338Y0075149D01*
X0128338Y0071247D01*
X0124042Y0071247D01*
X0124042Y0075149D01*
X0124042Y0071680D02*
X0128338Y0071680D01*
X0128338Y0072113D02*
X0124042Y0072113D01*
X0124042Y0072546D02*
X0128338Y0072546D01*
X0128338Y0072979D02*
X0124042Y0072979D01*
X0124042Y0073412D02*
X0128338Y0073412D01*
X0128338Y0073845D02*
X0124042Y0073845D01*
X0124042Y0074278D02*
X0128338Y0074278D01*
X0128338Y0074711D02*
X0124042Y0074711D01*
X0124042Y0075144D02*
X0128338Y0075144D01*
X0130735Y0075149D02*
X0135031Y0075149D01*
X0135031Y0071247D01*
X0130735Y0071247D01*
X0130735Y0075149D01*
X0130735Y0071680D02*
X0135031Y0071680D01*
X0135031Y0072113D02*
X0130735Y0072113D01*
X0130735Y0072546D02*
X0135031Y0072546D01*
X0135031Y0072979D02*
X0130735Y0072979D01*
X0130735Y0073412D02*
X0135031Y0073412D01*
X0135031Y0073845D02*
X0130735Y0073845D01*
X0130735Y0074278D02*
X0135031Y0074278D01*
X0135031Y0074711D02*
X0130735Y0074711D01*
X0130735Y0075144D02*
X0135031Y0075144D01*
X0137664Y0109790D02*
X0141960Y0109790D01*
X0137664Y0109790D02*
X0137664Y0113692D01*
X0141960Y0113692D01*
X0141960Y0109790D01*
X0141960Y0110223D02*
X0137664Y0110223D01*
X0137664Y0110656D02*
X0141960Y0110656D01*
X0141960Y0111089D02*
X0137664Y0111089D01*
X0137664Y0111522D02*
X0141960Y0111522D01*
X0141960Y0111955D02*
X0137664Y0111955D01*
X0137664Y0112388D02*
X0141960Y0112388D01*
X0141960Y0112821D02*
X0137664Y0112821D01*
X0137664Y0113254D02*
X0141960Y0113254D01*
X0141960Y0113687D02*
X0137664Y0113687D01*
X0128589Y0114160D02*
X0128589Y0118456D01*
X0132491Y0118456D01*
X0132491Y0114160D01*
X0128589Y0114160D01*
X0128589Y0114593D02*
X0132491Y0114593D01*
X0132491Y0115026D02*
X0128589Y0115026D01*
X0128589Y0115459D02*
X0132491Y0115459D01*
X0132491Y0115892D02*
X0128589Y0115892D01*
X0128589Y0116325D02*
X0132491Y0116325D01*
X0132491Y0116758D02*
X0128589Y0116758D01*
X0128589Y0117191D02*
X0132491Y0117191D01*
X0132491Y0117624D02*
X0128589Y0117624D01*
X0128589Y0118057D02*
X0132491Y0118057D01*
X0128589Y0120853D02*
X0128589Y0125149D01*
X0132491Y0125149D01*
X0132491Y0120853D01*
X0128589Y0120853D01*
X0128589Y0121286D02*
X0132491Y0121286D01*
X0132491Y0121719D02*
X0128589Y0121719D01*
X0128589Y0122152D02*
X0132491Y0122152D01*
X0132491Y0122585D02*
X0128589Y0122585D01*
X0128589Y0123018D02*
X0132491Y0123018D01*
X0132491Y0123451D02*
X0128589Y0123451D01*
X0128589Y0123884D02*
X0132491Y0123884D01*
X0132491Y0124317D02*
X0128589Y0124317D01*
X0128589Y0124750D02*
X0132491Y0124750D01*
X0144357Y0109790D02*
X0148653Y0109790D01*
X0144357Y0109790D02*
X0144357Y0113692D01*
X0148653Y0113692D01*
X0148653Y0109790D01*
X0148653Y0110223D02*
X0144357Y0110223D01*
X0144357Y0110656D02*
X0148653Y0110656D01*
X0148653Y0111089D02*
X0144357Y0111089D01*
X0144357Y0111522D02*
X0148653Y0111522D01*
X0148653Y0111955D02*
X0144357Y0111955D01*
X0144357Y0112388D02*
X0148653Y0112388D01*
X0148653Y0112821D02*
X0144357Y0112821D01*
X0144357Y0113254D02*
X0148653Y0113254D01*
X0148653Y0113687D02*
X0144357Y0113687D01*
X0123353Y0184121D02*
X0123353Y0188023D01*
X0127649Y0188023D01*
X0127649Y0184121D01*
X0123353Y0184121D01*
X0123353Y0184554D02*
X0127649Y0184554D01*
X0127649Y0184987D02*
X0123353Y0184987D01*
X0123353Y0185420D02*
X0127649Y0185420D01*
X0127649Y0185853D02*
X0123353Y0185853D01*
X0123353Y0186286D02*
X0127649Y0186286D01*
X0127649Y0186719D02*
X0123353Y0186719D01*
X0123353Y0187152D02*
X0127649Y0187152D01*
X0127649Y0187585D02*
X0123353Y0187585D01*
X0123353Y0188018D02*
X0127649Y0188018D01*
X0123353Y0190814D02*
X0123353Y0194716D01*
X0127649Y0194716D01*
X0127649Y0190814D01*
X0123353Y0190814D01*
X0123353Y0191247D02*
X0127649Y0191247D01*
X0127649Y0191680D02*
X0123353Y0191680D01*
X0123353Y0192113D02*
X0127649Y0192113D01*
X0127649Y0192546D02*
X0123353Y0192546D01*
X0123353Y0192979D02*
X0127649Y0192979D01*
X0127649Y0193412D02*
X0123353Y0193412D01*
X0123353Y0193845D02*
X0127649Y0193845D01*
X0127649Y0194278D02*
X0123353Y0194278D01*
X0123353Y0194711D02*
X0127649Y0194711D01*
X0100759Y0212309D02*
X0100759Y0216605D01*
X0100759Y0212309D02*
X0096857Y0212309D01*
X0096857Y0216605D01*
X0100759Y0216605D01*
X0100759Y0212742D02*
X0096857Y0212742D01*
X0096857Y0213175D02*
X0100759Y0213175D01*
X0100759Y0213608D02*
X0096857Y0213608D01*
X0096857Y0214041D02*
X0100759Y0214041D01*
X0100759Y0214474D02*
X0096857Y0214474D01*
X0096857Y0214907D02*
X0100759Y0214907D01*
X0100759Y0215340D02*
X0096857Y0215340D01*
X0096857Y0215773D02*
X0100759Y0215773D01*
X0100759Y0216206D02*
X0096857Y0216206D01*
X0100759Y0219002D02*
X0100759Y0223298D01*
X0100759Y0219002D02*
X0096857Y0219002D01*
X0096857Y0223298D01*
X0100759Y0223298D01*
X0100759Y0219435D02*
X0096857Y0219435D01*
X0096857Y0219868D02*
X0100759Y0219868D01*
X0100759Y0220301D02*
X0096857Y0220301D01*
X0096857Y0220734D02*
X0100759Y0220734D01*
X0100759Y0221167D02*
X0096857Y0221167D01*
X0096857Y0221600D02*
X0100759Y0221600D01*
X0100759Y0222033D02*
X0096857Y0222033D01*
X0096857Y0222466D02*
X0100759Y0222466D01*
X0100759Y0222899D02*
X0096857Y0222899D01*
X0079794Y0184711D02*
X0075498Y0184711D01*
X0075498Y0188613D01*
X0079794Y0188613D01*
X0079794Y0184711D01*
X0079794Y0185144D02*
X0075498Y0185144D01*
X0075498Y0185577D02*
X0079794Y0185577D01*
X0079794Y0186010D02*
X0075498Y0186010D01*
X0075498Y0186443D02*
X0079794Y0186443D01*
X0079794Y0186876D02*
X0075498Y0186876D01*
X0075498Y0187309D02*
X0079794Y0187309D01*
X0079794Y0187742D02*
X0075498Y0187742D01*
X0075498Y0188175D02*
X0079794Y0188175D01*
X0079794Y0188608D02*
X0075498Y0188608D01*
X0073102Y0184711D02*
X0068806Y0184711D01*
X0068806Y0188613D01*
X0073102Y0188613D01*
X0073102Y0184711D01*
X0073102Y0185144D02*
X0068806Y0185144D01*
X0068806Y0185577D02*
X0073102Y0185577D01*
X0073102Y0186010D02*
X0068806Y0186010D01*
X0068806Y0186443D02*
X0073102Y0186443D01*
X0073102Y0186876D02*
X0068806Y0186876D01*
X0068806Y0187309D02*
X0073102Y0187309D01*
X0073102Y0187742D02*
X0068806Y0187742D01*
X0068806Y0188175D02*
X0073102Y0188175D01*
X0073102Y0188608D02*
X0068806Y0188608D01*
X0064597Y0192014D02*
X0060695Y0192014D01*
X0060695Y0196310D01*
X0064597Y0196310D01*
X0064597Y0192014D01*
X0064597Y0192447D02*
X0060695Y0192447D01*
X0060695Y0192880D02*
X0064597Y0192880D01*
X0064597Y0193313D02*
X0060695Y0193313D01*
X0060695Y0193746D02*
X0064597Y0193746D01*
X0064597Y0194179D02*
X0060695Y0194179D01*
X0060695Y0194612D02*
X0064597Y0194612D01*
X0064597Y0195045D02*
X0060695Y0195045D01*
X0060695Y0195478D02*
X0064597Y0195478D01*
X0064597Y0195911D02*
X0060695Y0195911D01*
X0057905Y0192014D02*
X0054003Y0192014D01*
X0054003Y0196310D01*
X0057905Y0196310D01*
X0057905Y0192014D01*
X0057905Y0192447D02*
X0054003Y0192447D01*
X0054003Y0192880D02*
X0057905Y0192880D01*
X0057905Y0193313D02*
X0054003Y0193313D01*
X0054003Y0193746D02*
X0057905Y0193746D01*
X0057905Y0194179D02*
X0054003Y0194179D01*
X0054003Y0194612D02*
X0057905Y0194612D01*
X0057905Y0195045D02*
X0054003Y0195045D01*
X0054003Y0195478D02*
X0057905Y0195478D01*
X0057905Y0195911D02*
X0054003Y0195911D01*
X0054003Y0174514D02*
X0057905Y0174514D01*
X0054003Y0174514D02*
X0054003Y0178810D01*
X0057905Y0178810D01*
X0057905Y0174514D01*
X0057905Y0174947D02*
X0054003Y0174947D01*
X0054003Y0175380D02*
X0057905Y0175380D01*
X0057905Y0175813D02*
X0054003Y0175813D01*
X0054003Y0176246D02*
X0057905Y0176246D01*
X0057905Y0176679D02*
X0054003Y0176679D01*
X0054003Y0177112D02*
X0057905Y0177112D01*
X0057905Y0177545D02*
X0054003Y0177545D01*
X0054003Y0177978D02*
X0057905Y0177978D01*
X0057905Y0178411D02*
X0054003Y0178411D01*
X0060695Y0174514D02*
X0064597Y0174514D01*
X0060695Y0174514D02*
X0060695Y0178810D01*
X0064597Y0178810D01*
X0064597Y0174514D01*
X0064597Y0174947D02*
X0060695Y0174947D01*
X0060695Y0175380D02*
X0064597Y0175380D01*
X0064597Y0175813D02*
X0060695Y0175813D01*
X0060695Y0176246D02*
X0064597Y0176246D01*
X0064597Y0176679D02*
X0060695Y0176679D01*
X0060695Y0177112D02*
X0064597Y0177112D01*
X0064597Y0177545D02*
X0060695Y0177545D01*
X0060695Y0177978D02*
X0064597Y0177978D01*
X0064597Y0178411D02*
X0060695Y0178411D01*
X0042294Y0227211D02*
X0037998Y0227211D01*
X0037998Y0231113D01*
X0042294Y0231113D01*
X0042294Y0227211D01*
X0042294Y0227644D02*
X0037998Y0227644D01*
X0037998Y0228077D02*
X0042294Y0228077D01*
X0042294Y0228510D02*
X0037998Y0228510D01*
X0037998Y0228943D02*
X0042294Y0228943D01*
X0042294Y0229376D02*
X0037998Y0229376D01*
X0037998Y0229809D02*
X0042294Y0229809D01*
X0042294Y0230242D02*
X0037998Y0230242D01*
X0037998Y0230675D02*
X0042294Y0230675D01*
X0042294Y0231108D02*
X0037998Y0231108D01*
X0035602Y0227211D02*
X0031306Y0227211D01*
X0031306Y0231113D01*
X0035602Y0231113D01*
X0035602Y0227211D01*
X0035602Y0227644D02*
X0031306Y0227644D01*
X0031306Y0228077D02*
X0035602Y0228077D01*
X0035602Y0228510D02*
X0031306Y0228510D01*
X0031306Y0228943D02*
X0035602Y0228943D01*
X0035602Y0229376D02*
X0031306Y0229376D01*
X0031306Y0229809D02*
X0035602Y0229809D01*
X0035602Y0230242D02*
X0031306Y0230242D01*
X0031306Y0230675D02*
X0035602Y0230675D01*
X0035602Y0231108D02*
X0031306Y0231108D01*
X0024597Y0234514D02*
X0020695Y0234514D01*
X0020695Y0238810D01*
X0024597Y0238810D01*
X0024597Y0234514D01*
X0024597Y0234947D02*
X0020695Y0234947D01*
X0020695Y0235380D02*
X0024597Y0235380D01*
X0024597Y0235813D02*
X0020695Y0235813D01*
X0020695Y0236246D02*
X0024597Y0236246D01*
X0024597Y0236679D02*
X0020695Y0236679D01*
X0020695Y0237112D02*
X0024597Y0237112D01*
X0024597Y0237545D02*
X0020695Y0237545D01*
X0020695Y0237978D02*
X0024597Y0237978D01*
X0024597Y0238411D02*
X0020695Y0238411D01*
X0017905Y0234514D02*
X0014003Y0234514D01*
X0014003Y0238810D01*
X0017905Y0238810D01*
X0017905Y0234514D01*
X0017905Y0234947D02*
X0014003Y0234947D01*
X0014003Y0235380D02*
X0017905Y0235380D01*
X0017905Y0235813D02*
X0014003Y0235813D01*
X0014003Y0236246D02*
X0017905Y0236246D01*
X0017905Y0236679D02*
X0014003Y0236679D01*
X0014003Y0237112D02*
X0017905Y0237112D01*
X0017905Y0237545D02*
X0014003Y0237545D01*
X0014003Y0237978D02*
X0017905Y0237978D01*
X0017905Y0238411D02*
X0014003Y0238411D01*
X0014003Y0219514D02*
X0017905Y0219514D01*
X0014003Y0219514D02*
X0014003Y0223810D01*
X0017905Y0223810D01*
X0017905Y0219514D01*
X0017905Y0219947D02*
X0014003Y0219947D01*
X0014003Y0220380D02*
X0017905Y0220380D01*
X0017905Y0220813D02*
X0014003Y0220813D01*
X0014003Y0221246D02*
X0017905Y0221246D01*
X0017905Y0221679D02*
X0014003Y0221679D01*
X0014003Y0222112D02*
X0017905Y0222112D01*
X0017905Y0222545D02*
X0014003Y0222545D01*
X0014003Y0222978D02*
X0017905Y0222978D01*
X0017905Y0223411D02*
X0014003Y0223411D01*
X0020695Y0219514D02*
X0024597Y0219514D01*
X0020695Y0219514D02*
X0020695Y0223810D01*
X0024597Y0223810D01*
X0024597Y0219514D01*
X0024597Y0219947D02*
X0020695Y0219947D01*
X0020695Y0220380D02*
X0024597Y0220380D01*
X0024597Y0220813D02*
X0020695Y0220813D01*
X0020695Y0221246D02*
X0024597Y0221246D01*
X0024597Y0221679D02*
X0020695Y0221679D01*
X0020695Y0222112D02*
X0024597Y0222112D01*
X0024597Y0222545D02*
X0020695Y0222545D01*
X0020695Y0222978D02*
X0024597Y0222978D01*
X0024597Y0223411D02*
X0020695Y0223411D01*
X0021089Y0278038D02*
X0024991Y0278038D01*
X0021089Y0278038D02*
X0021089Y0282334D01*
X0024991Y0282334D01*
X0024991Y0278038D01*
X0024991Y0278471D02*
X0021089Y0278471D01*
X0021089Y0278904D02*
X0024991Y0278904D01*
X0024991Y0279337D02*
X0021089Y0279337D01*
X0021089Y0279770D02*
X0024991Y0279770D01*
X0024991Y0280203D02*
X0021089Y0280203D01*
X0021089Y0280636D02*
X0024991Y0280636D01*
X0024991Y0281069D02*
X0021089Y0281069D01*
X0021089Y0281502D02*
X0024991Y0281502D01*
X0024991Y0281935D02*
X0021089Y0281935D01*
X0027782Y0278038D02*
X0031684Y0278038D01*
X0027782Y0278038D02*
X0027782Y0282334D01*
X0031684Y0282334D01*
X0031684Y0278038D01*
X0031684Y0278471D02*
X0027782Y0278471D01*
X0027782Y0278904D02*
X0031684Y0278904D01*
X0031684Y0279337D02*
X0027782Y0279337D01*
X0027782Y0279770D02*
X0031684Y0279770D01*
X0031684Y0280203D02*
X0027782Y0280203D01*
X0027782Y0280636D02*
X0031684Y0280636D01*
X0031684Y0281069D02*
X0027782Y0281069D01*
X0027782Y0281502D02*
X0031684Y0281502D01*
X0031684Y0281935D02*
X0027782Y0281935D01*
X0027782Y0289809D02*
X0031684Y0289809D01*
X0027782Y0289809D02*
X0027782Y0294105D01*
X0031684Y0294105D01*
X0031684Y0289809D01*
X0031684Y0290242D02*
X0027782Y0290242D01*
X0027782Y0290675D02*
X0031684Y0290675D01*
X0031684Y0291108D02*
X0027782Y0291108D01*
X0027782Y0291541D02*
X0031684Y0291541D01*
X0031684Y0291974D02*
X0027782Y0291974D01*
X0027782Y0292407D02*
X0031684Y0292407D01*
X0031684Y0292840D02*
X0027782Y0292840D01*
X0027782Y0293273D02*
X0031684Y0293273D01*
X0031684Y0293706D02*
X0027782Y0293706D01*
X0024991Y0289809D02*
X0021089Y0289809D01*
X0021089Y0294105D01*
X0024991Y0294105D01*
X0024991Y0289809D01*
X0024991Y0290242D02*
X0021089Y0290242D01*
X0021089Y0290675D02*
X0024991Y0290675D01*
X0024991Y0291108D02*
X0021089Y0291108D01*
X0021089Y0291541D02*
X0024991Y0291541D01*
X0024991Y0291974D02*
X0021089Y0291974D01*
X0021089Y0292407D02*
X0024991Y0292407D01*
X0024991Y0292840D02*
X0021089Y0292840D01*
X0021089Y0293273D02*
X0024991Y0293273D01*
X0024991Y0293706D02*
X0021089Y0293706D01*
X0028195Y0301030D02*
X0028195Y0305326D01*
X0032097Y0305326D01*
X0032097Y0301030D01*
X0028195Y0301030D01*
X0028195Y0301463D02*
X0032097Y0301463D01*
X0032097Y0301896D02*
X0028195Y0301896D01*
X0028195Y0302329D02*
X0032097Y0302329D01*
X0032097Y0302762D02*
X0028195Y0302762D01*
X0028195Y0303195D02*
X0032097Y0303195D01*
X0032097Y0303628D02*
X0028195Y0303628D01*
X0028195Y0304061D02*
X0032097Y0304061D01*
X0032097Y0304494D02*
X0028195Y0304494D01*
X0028195Y0304927D02*
X0032097Y0304927D01*
X0028195Y0307723D02*
X0028195Y0312019D01*
X0032097Y0312019D01*
X0032097Y0307723D01*
X0028195Y0307723D01*
X0028195Y0308156D02*
X0032097Y0308156D01*
X0032097Y0308589D02*
X0028195Y0308589D01*
X0028195Y0309022D02*
X0032097Y0309022D01*
X0032097Y0309455D02*
X0028195Y0309455D01*
X0028195Y0309888D02*
X0032097Y0309888D01*
X0032097Y0310321D02*
X0028195Y0310321D01*
X0028195Y0310754D02*
X0032097Y0310754D01*
X0032097Y0311187D02*
X0028195Y0311187D01*
X0028195Y0311620D02*
X0032097Y0311620D01*
X0030361Y0316187D02*
X0034263Y0316187D01*
X0030361Y0316187D02*
X0030361Y0320483D01*
X0034263Y0320483D01*
X0034263Y0316187D01*
X0034263Y0316620D02*
X0030361Y0316620D01*
X0030361Y0317053D02*
X0034263Y0317053D01*
X0034263Y0317486D02*
X0030361Y0317486D01*
X0030361Y0317919D02*
X0034263Y0317919D01*
X0034263Y0318352D02*
X0030361Y0318352D01*
X0030361Y0318785D02*
X0034263Y0318785D01*
X0034263Y0319218D02*
X0030361Y0319218D01*
X0030361Y0319651D02*
X0034263Y0319651D01*
X0034263Y0320084D02*
X0030361Y0320084D01*
X0025995Y0316187D02*
X0022093Y0316187D01*
X0022093Y0320483D01*
X0025995Y0320483D01*
X0025995Y0316187D01*
X0025995Y0316620D02*
X0022093Y0316620D01*
X0022093Y0317053D02*
X0025995Y0317053D01*
X0025995Y0317486D02*
X0022093Y0317486D01*
X0022093Y0317919D02*
X0025995Y0317919D01*
X0025995Y0318352D02*
X0022093Y0318352D01*
X0022093Y0318785D02*
X0025995Y0318785D01*
X0025995Y0319218D02*
X0022093Y0319218D01*
X0022093Y0319651D02*
X0025995Y0319651D01*
X0025995Y0320084D02*
X0022093Y0320084D01*
X0019302Y0316187D02*
X0015400Y0316187D01*
X0015400Y0320483D01*
X0019302Y0320483D01*
X0019302Y0316187D01*
X0019302Y0316620D02*
X0015400Y0316620D01*
X0015400Y0317053D02*
X0019302Y0317053D01*
X0019302Y0317486D02*
X0015400Y0317486D01*
X0015400Y0317919D02*
X0019302Y0317919D01*
X0019302Y0318352D02*
X0015400Y0318352D01*
X0015400Y0318785D02*
X0019302Y0318785D01*
X0019302Y0319218D02*
X0015400Y0319218D01*
X0015400Y0319651D02*
X0019302Y0319651D01*
X0019302Y0320084D02*
X0015400Y0320084D01*
X0029770Y0327014D02*
X0029770Y0331310D01*
X0033672Y0331310D01*
X0033672Y0327014D01*
X0029770Y0327014D01*
X0029770Y0327447D02*
X0033672Y0327447D01*
X0033672Y0327880D02*
X0029770Y0327880D01*
X0029770Y0328313D02*
X0033672Y0328313D01*
X0033672Y0328746D02*
X0029770Y0328746D01*
X0029770Y0329179D02*
X0033672Y0329179D01*
X0033672Y0329612D02*
X0029770Y0329612D01*
X0029770Y0330045D02*
X0033672Y0330045D01*
X0033672Y0330478D02*
X0029770Y0330478D01*
X0029770Y0330911D02*
X0033672Y0330911D01*
X0029770Y0333707D02*
X0029770Y0338003D01*
X0033672Y0338003D01*
X0033672Y0333707D01*
X0029770Y0333707D01*
X0029770Y0334140D02*
X0033672Y0334140D01*
X0033672Y0334573D02*
X0029770Y0334573D01*
X0029770Y0335006D02*
X0033672Y0335006D01*
X0033672Y0335439D02*
X0029770Y0335439D01*
X0029770Y0335872D02*
X0033672Y0335872D01*
X0033672Y0336305D02*
X0029770Y0336305D01*
X0029770Y0336738D02*
X0033672Y0336738D01*
X0033672Y0337171D02*
X0029770Y0337171D01*
X0029770Y0337604D02*
X0033672Y0337604D01*
X0037447Y0339022D02*
X0041349Y0339022D01*
X0037447Y0339022D02*
X0037447Y0343318D01*
X0041349Y0343318D01*
X0041349Y0339022D01*
X0041349Y0339455D02*
X0037447Y0339455D01*
X0037447Y0339888D02*
X0041349Y0339888D01*
X0041349Y0340321D02*
X0037447Y0340321D01*
X0037447Y0340754D02*
X0041349Y0340754D01*
X0041349Y0341187D02*
X0037447Y0341187D01*
X0037447Y0341620D02*
X0041349Y0341620D01*
X0041349Y0342053D02*
X0037447Y0342053D01*
X0037447Y0342486D02*
X0041349Y0342486D01*
X0041349Y0342919D02*
X0037447Y0342919D01*
X0044140Y0339022D02*
X0048042Y0339022D01*
X0044140Y0339022D02*
X0044140Y0343318D01*
X0048042Y0343318D01*
X0048042Y0339022D01*
X0048042Y0339455D02*
X0044140Y0339455D01*
X0044140Y0339888D02*
X0048042Y0339888D01*
X0048042Y0340321D02*
X0044140Y0340321D01*
X0044140Y0340754D02*
X0048042Y0340754D01*
X0048042Y0341187D02*
X0044140Y0341187D01*
X0044140Y0341620D02*
X0048042Y0341620D01*
X0048042Y0342053D02*
X0044140Y0342053D01*
X0044140Y0342486D02*
X0048042Y0342486D01*
X0048042Y0342919D02*
X0044140Y0342919D01*
X0051030Y0338003D02*
X0051030Y0333707D01*
X0051030Y0338003D02*
X0054932Y0338003D01*
X0054932Y0333707D01*
X0051030Y0333707D01*
X0051030Y0334140D02*
X0054932Y0334140D01*
X0054932Y0334573D02*
X0051030Y0334573D01*
X0051030Y0335006D02*
X0054932Y0335006D01*
X0054932Y0335439D02*
X0051030Y0335439D01*
X0051030Y0335872D02*
X0054932Y0335872D01*
X0054932Y0336305D02*
X0051030Y0336305D01*
X0051030Y0336738D02*
X0054932Y0336738D01*
X0054932Y0337171D02*
X0051030Y0337171D01*
X0051030Y0337604D02*
X0054932Y0337604D01*
X0051030Y0331310D02*
X0051030Y0327014D01*
X0051030Y0331310D02*
X0054932Y0331310D01*
X0054932Y0327014D01*
X0051030Y0327014D01*
X0051030Y0327447D02*
X0054932Y0327447D01*
X0054932Y0327880D02*
X0051030Y0327880D01*
X0051030Y0328313D02*
X0054932Y0328313D01*
X0054932Y0328746D02*
X0051030Y0328746D01*
X0051030Y0329179D02*
X0054932Y0329179D01*
X0054932Y0329612D02*
X0051030Y0329612D01*
X0051030Y0330045D02*
X0054932Y0330045D01*
X0054932Y0330478D02*
X0051030Y0330478D01*
X0051030Y0330911D02*
X0054932Y0330911D01*
X0061069Y0339809D02*
X0064971Y0339809D01*
X0061069Y0339809D02*
X0061069Y0344105D01*
X0064971Y0344105D01*
X0064971Y0339809D01*
X0064971Y0340242D02*
X0061069Y0340242D01*
X0061069Y0340675D02*
X0064971Y0340675D01*
X0064971Y0341108D02*
X0061069Y0341108D01*
X0061069Y0341541D02*
X0064971Y0341541D01*
X0064971Y0341974D02*
X0061069Y0341974D01*
X0061069Y0342407D02*
X0064971Y0342407D01*
X0064971Y0342840D02*
X0061069Y0342840D01*
X0061069Y0343273D02*
X0064971Y0343273D01*
X0064971Y0343706D02*
X0061069Y0343706D01*
X0067762Y0339809D02*
X0071664Y0339809D01*
X0067762Y0339809D02*
X0067762Y0344105D01*
X0071664Y0344105D01*
X0071664Y0339809D01*
X0071664Y0340242D02*
X0067762Y0340242D01*
X0067762Y0340675D02*
X0071664Y0340675D01*
X0071664Y0341108D02*
X0067762Y0341108D01*
X0067762Y0341541D02*
X0071664Y0341541D01*
X0071664Y0341974D02*
X0067762Y0341974D01*
X0067762Y0342407D02*
X0071664Y0342407D01*
X0071664Y0342840D02*
X0067762Y0342840D01*
X0067762Y0343273D02*
X0071664Y0343273D01*
X0071664Y0343706D02*
X0067762Y0343706D01*
X0076227Y0338003D02*
X0076227Y0333707D01*
X0076227Y0338003D02*
X0080129Y0338003D01*
X0080129Y0333707D01*
X0076227Y0333707D01*
X0076227Y0334140D02*
X0080129Y0334140D01*
X0080129Y0334573D02*
X0076227Y0334573D01*
X0076227Y0335006D02*
X0080129Y0335006D01*
X0080129Y0335439D02*
X0076227Y0335439D01*
X0076227Y0335872D02*
X0080129Y0335872D01*
X0080129Y0336305D02*
X0076227Y0336305D01*
X0076227Y0336738D02*
X0080129Y0336738D01*
X0080129Y0337171D02*
X0076227Y0337171D01*
X0076227Y0337604D02*
X0080129Y0337604D01*
X0081542Y0339809D02*
X0085444Y0339809D01*
X0081542Y0339809D02*
X0081542Y0344105D01*
X0085444Y0344105D01*
X0085444Y0339809D01*
X0085444Y0340242D02*
X0081542Y0340242D01*
X0081542Y0340675D02*
X0085444Y0340675D01*
X0085444Y0341108D02*
X0081542Y0341108D01*
X0081542Y0341541D02*
X0085444Y0341541D01*
X0085444Y0341974D02*
X0081542Y0341974D01*
X0081542Y0342407D02*
X0085444Y0342407D01*
X0085444Y0342840D02*
X0081542Y0342840D01*
X0081542Y0343273D02*
X0085444Y0343273D01*
X0085444Y0343706D02*
X0081542Y0343706D01*
X0088235Y0339809D02*
X0092137Y0339809D01*
X0088235Y0339809D02*
X0088235Y0344105D01*
X0092137Y0344105D01*
X0092137Y0339809D01*
X0092137Y0340242D02*
X0088235Y0340242D01*
X0088235Y0340675D02*
X0092137Y0340675D01*
X0092137Y0341108D02*
X0088235Y0341108D01*
X0088235Y0341541D02*
X0092137Y0341541D01*
X0092137Y0341974D02*
X0088235Y0341974D01*
X0088235Y0342407D02*
X0092137Y0342407D01*
X0092137Y0342840D02*
X0088235Y0342840D01*
X0088235Y0343273D02*
X0092137Y0343273D01*
X0092137Y0343706D02*
X0088235Y0343706D01*
X0096188Y0337491D02*
X0096188Y0333195D01*
X0096188Y0337491D02*
X0100090Y0337491D01*
X0100090Y0333195D01*
X0096188Y0333195D01*
X0096188Y0333628D02*
X0100090Y0333628D01*
X0100090Y0334061D02*
X0096188Y0334061D01*
X0096188Y0334494D02*
X0100090Y0334494D01*
X0100090Y0334927D02*
X0096188Y0334927D01*
X0096188Y0335360D02*
X0100090Y0335360D01*
X0100090Y0335793D02*
X0096188Y0335793D01*
X0096188Y0336226D02*
X0100090Y0336226D01*
X0100090Y0336659D02*
X0096188Y0336659D01*
X0096188Y0337092D02*
X0100090Y0337092D01*
X0096188Y0330798D02*
X0096188Y0326502D01*
X0096188Y0330798D02*
X0100090Y0330798D01*
X0100090Y0326502D01*
X0096188Y0326502D01*
X0096188Y0326935D02*
X0100090Y0326935D01*
X0100090Y0327368D02*
X0096188Y0327368D01*
X0096188Y0327801D02*
X0100090Y0327801D01*
X0100090Y0328234D02*
X0096188Y0328234D01*
X0096188Y0328667D02*
X0100090Y0328667D01*
X0100090Y0329100D02*
X0096188Y0329100D01*
X0096188Y0329533D02*
X0100090Y0329533D01*
X0100090Y0329966D02*
X0096188Y0329966D01*
X0096188Y0330399D02*
X0100090Y0330399D01*
X0099538Y0309376D02*
X0095636Y0309376D01*
X0095636Y0313672D01*
X0099538Y0313672D01*
X0099538Y0309376D01*
X0099538Y0309809D02*
X0095636Y0309809D01*
X0095636Y0310242D02*
X0099538Y0310242D01*
X0099538Y0310675D02*
X0095636Y0310675D01*
X0095636Y0311108D02*
X0099538Y0311108D01*
X0099538Y0311541D02*
X0095636Y0311541D01*
X0095636Y0311974D02*
X0099538Y0311974D01*
X0099538Y0312407D02*
X0095636Y0312407D01*
X0095636Y0312840D02*
X0099538Y0312840D01*
X0099538Y0313273D02*
X0095636Y0313273D01*
X0092845Y0309376D02*
X0088943Y0309376D01*
X0088943Y0313672D01*
X0092845Y0313672D01*
X0092845Y0309376D01*
X0092845Y0309809D02*
X0088943Y0309809D01*
X0088943Y0310242D02*
X0092845Y0310242D01*
X0092845Y0310675D02*
X0088943Y0310675D01*
X0088943Y0311108D02*
X0092845Y0311108D01*
X0092845Y0311541D02*
X0088943Y0311541D01*
X0088943Y0311974D02*
X0092845Y0311974D01*
X0092845Y0312407D02*
X0088943Y0312407D01*
X0088943Y0312840D02*
X0092845Y0312840D01*
X0092845Y0313273D02*
X0088943Y0313273D01*
X0082688Y0309888D02*
X0078786Y0309888D01*
X0078786Y0314184D01*
X0082688Y0314184D01*
X0082688Y0309888D01*
X0082688Y0310321D02*
X0078786Y0310321D01*
X0078786Y0310754D02*
X0082688Y0310754D01*
X0082688Y0311187D02*
X0078786Y0311187D01*
X0078786Y0311620D02*
X0082688Y0311620D01*
X0082688Y0312053D02*
X0078786Y0312053D01*
X0078786Y0312486D02*
X0082688Y0312486D01*
X0082688Y0312919D02*
X0078786Y0312919D01*
X0078786Y0313352D02*
X0082688Y0313352D01*
X0082688Y0313785D02*
X0078786Y0313785D01*
X0075995Y0309888D02*
X0072093Y0309888D01*
X0072093Y0314184D01*
X0075995Y0314184D01*
X0075995Y0309888D01*
X0075995Y0310321D02*
X0072093Y0310321D01*
X0072093Y0310754D02*
X0075995Y0310754D01*
X0075995Y0311187D02*
X0072093Y0311187D01*
X0072093Y0311620D02*
X0075995Y0311620D01*
X0075995Y0312053D02*
X0072093Y0312053D01*
X0072093Y0312486D02*
X0075995Y0312486D01*
X0075995Y0312919D02*
X0072093Y0312919D01*
X0072093Y0313352D02*
X0075995Y0313352D01*
X0075995Y0313785D02*
X0072093Y0313785D01*
X0076227Y0327014D02*
X0076227Y0331310D01*
X0080129Y0331310D01*
X0080129Y0327014D01*
X0076227Y0327014D01*
X0076227Y0327447D02*
X0080129Y0327447D01*
X0080129Y0327880D02*
X0076227Y0327880D01*
X0076227Y0328313D02*
X0080129Y0328313D01*
X0080129Y0328746D02*
X0076227Y0328746D01*
X0076227Y0329179D02*
X0080129Y0329179D01*
X0080129Y0329612D02*
X0076227Y0329612D01*
X0076227Y0330045D02*
X0080129Y0330045D01*
X0080129Y0330478D02*
X0076227Y0330478D01*
X0076227Y0330911D02*
X0080129Y0330911D01*
X0084613Y0304558D02*
X0084613Y0300262D01*
X0084613Y0304558D02*
X0088515Y0304558D01*
X0088515Y0300262D01*
X0084613Y0300262D01*
X0084613Y0300695D02*
X0088515Y0300695D01*
X0088515Y0301128D02*
X0084613Y0301128D01*
X0084613Y0301561D02*
X0088515Y0301561D01*
X0088515Y0301994D02*
X0084613Y0301994D01*
X0084613Y0302427D02*
X0088515Y0302427D01*
X0088515Y0302860D02*
X0084613Y0302860D01*
X0084613Y0303293D02*
X0088515Y0303293D01*
X0088515Y0303726D02*
X0084613Y0303726D01*
X0084613Y0304159D02*
X0088515Y0304159D01*
X0084613Y0297865D02*
X0084613Y0293569D01*
X0084613Y0297865D02*
X0088515Y0297865D01*
X0088515Y0293569D01*
X0084613Y0293569D01*
X0084613Y0294002D02*
X0088515Y0294002D01*
X0088515Y0294435D02*
X0084613Y0294435D01*
X0084613Y0294868D02*
X0088515Y0294868D01*
X0088515Y0295301D02*
X0084613Y0295301D01*
X0084613Y0295734D02*
X0088515Y0295734D01*
X0088515Y0296167D02*
X0084613Y0296167D01*
X0084613Y0296600D02*
X0088515Y0296600D01*
X0088515Y0297033D02*
X0084613Y0297033D01*
X0084613Y0297466D02*
X0088515Y0297466D01*
X0080346Y0279534D02*
X0076050Y0279534D01*
X0076050Y0283436D01*
X0080346Y0283436D01*
X0080346Y0279534D01*
X0080346Y0279967D02*
X0076050Y0279967D01*
X0076050Y0280400D02*
X0080346Y0280400D01*
X0080346Y0280833D02*
X0076050Y0280833D01*
X0076050Y0281266D02*
X0080346Y0281266D01*
X0080346Y0281699D02*
X0076050Y0281699D01*
X0076050Y0282132D02*
X0080346Y0282132D01*
X0080346Y0282565D02*
X0076050Y0282565D01*
X0076050Y0282998D02*
X0080346Y0282998D01*
X0080346Y0283431D02*
X0076050Y0283431D01*
X0073653Y0279534D02*
X0069357Y0279534D01*
X0069357Y0283436D01*
X0073653Y0283436D01*
X0073653Y0279534D01*
X0073653Y0279967D02*
X0069357Y0279967D01*
X0069357Y0280400D02*
X0073653Y0280400D01*
X0073653Y0280833D02*
X0069357Y0280833D01*
X0069357Y0281266D02*
X0073653Y0281266D01*
X0073653Y0281699D02*
X0069357Y0281699D01*
X0069357Y0282132D02*
X0073653Y0282132D01*
X0073653Y0282565D02*
X0069357Y0282565D01*
X0069357Y0282998D02*
X0073653Y0282998D01*
X0073653Y0283431D02*
X0069357Y0283431D01*
X0065011Y0279750D02*
X0061109Y0279750D01*
X0061109Y0284046D01*
X0065011Y0284046D01*
X0065011Y0279750D01*
X0065011Y0280183D02*
X0061109Y0280183D01*
X0061109Y0280616D02*
X0065011Y0280616D01*
X0065011Y0281049D02*
X0061109Y0281049D01*
X0061109Y0281482D02*
X0065011Y0281482D01*
X0065011Y0281915D02*
X0061109Y0281915D01*
X0061109Y0282348D02*
X0065011Y0282348D01*
X0065011Y0282781D02*
X0061109Y0282781D01*
X0061109Y0283214D02*
X0065011Y0283214D01*
X0065011Y0283647D02*
X0061109Y0283647D01*
X0058318Y0279750D02*
X0054416Y0279750D01*
X0054416Y0284046D01*
X0058318Y0284046D01*
X0058318Y0279750D01*
X0058318Y0280183D02*
X0054416Y0280183D01*
X0054416Y0280616D02*
X0058318Y0280616D01*
X0058318Y0281049D02*
X0054416Y0281049D01*
X0054416Y0281482D02*
X0058318Y0281482D01*
X0058318Y0281915D02*
X0054416Y0281915D01*
X0054416Y0282348D02*
X0058318Y0282348D01*
X0058318Y0282781D02*
X0054416Y0282781D01*
X0054416Y0283214D02*
X0058318Y0283214D01*
X0058318Y0283647D02*
X0054416Y0283647D01*
X0054416Y0290735D02*
X0058318Y0290735D01*
X0054416Y0290735D02*
X0054416Y0295031D01*
X0058318Y0295031D01*
X0058318Y0290735D01*
X0058318Y0291168D02*
X0054416Y0291168D01*
X0054416Y0291601D02*
X0058318Y0291601D01*
X0058318Y0292034D02*
X0054416Y0292034D01*
X0054416Y0292467D02*
X0058318Y0292467D01*
X0058318Y0292900D02*
X0054416Y0292900D01*
X0054416Y0293333D02*
X0058318Y0293333D01*
X0058318Y0293766D02*
X0054416Y0293766D01*
X0054416Y0294199D02*
X0058318Y0294199D01*
X0058318Y0294632D02*
X0054416Y0294632D01*
X0061109Y0290735D02*
X0065011Y0290735D01*
X0061109Y0290735D02*
X0061109Y0295031D01*
X0065011Y0295031D01*
X0065011Y0290735D01*
X0065011Y0291168D02*
X0061109Y0291168D01*
X0061109Y0291601D02*
X0065011Y0291601D01*
X0065011Y0292034D02*
X0061109Y0292034D01*
X0061109Y0292467D02*
X0065011Y0292467D01*
X0065011Y0292900D02*
X0061109Y0292900D01*
X0061109Y0293333D02*
X0065011Y0293333D01*
X0065011Y0293766D02*
X0061109Y0293766D01*
X0061109Y0294199D02*
X0065011Y0294199D01*
X0065011Y0294632D02*
X0061109Y0294632D01*
X0042369Y0301030D02*
X0042369Y0305326D01*
X0046271Y0305326D01*
X0046271Y0301030D01*
X0042369Y0301030D01*
X0042369Y0301463D02*
X0046271Y0301463D01*
X0046271Y0301896D02*
X0042369Y0301896D01*
X0042369Y0302329D02*
X0046271Y0302329D01*
X0046271Y0302762D02*
X0042369Y0302762D01*
X0042369Y0303195D02*
X0046271Y0303195D01*
X0046271Y0303628D02*
X0042369Y0303628D01*
X0042369Y0304061D02*
X0046271Y0304061D01*
X0046271Y0304494D02*
X0042369Y0304494D01*
X0042369Y0304927D02*
X0046271Y0304927D01*
X0042369Y0307723D02*
X0042369Y0312019D01*
X0046271Y0312019D01*
X0046271Y0307723D01*
X0042369Y0307723D01*
X0042369Y0308156D02*
X0046271Y0308156D01*
X0046271Y0308589D02*
X0042369Y0308589D01*
X0042369Y0309022D02*
X0046271Y0309022D01*
X0046271Y0309455D02*
X0042369Y0309455D01*
X0042369Y0309888D02*
X0046271Y0309888D01*
X0046271Y0310321D02*
X0042369Y0310321D01*
X0042369Y0310754D02*
X0046271Y0310754D01*
X0046271Y0311187D02*
X0042369Y0311187D01*
X0042369Y0311620D02*
X0046271Y0311620D01*
X0040956Y0316187D02*
X0037054Y0316187D01*
X0037054Y0320483D01*
X0040956Y0320483D01*
X0040956Y0316187D01*
X0040956Y0316620D02*
X0037054Y0316620D01*
X0037054Y0317053D02*
X0040956Y0317053D01*
X0040956Y0317486D02*
X0037054Y0317486D01*
X0037054Y0317919D02*
X0040956Y0317919D01*
X0040956Y0318352D02*
X0037054Y0318352D01*
X0037054Y0318785D02*
X0040956Y0318785D01*
X0040956Y0319218D02*
X0037054Y0319218D01*
X0037054Y0319651D02*
X0040956Y0319651D01*
X0040956Y0320084D02*
X0037054Y0320084D01*
X0025838Y0338687D02*
X0021936Y0338687D01*
X0021936Y0342983D01*
X0025838Y0342983D01*
X0025838Y0338687D01*
X0025838Y0339120D02*
X0021936Y0339120D01*
X0021936Y0339553D02*
X0025838Y0339553D01*
X0025838Y0339986D02*
X0021936Y0339986D01*
X0021936Y0340419D02*
X0025838Y0340419D01*
X0025838Y0340852D02*
X0021936Y0340852D01*
X0021936Y0341285D02*
X0025838Y0341285D01*
X0025838Y0341718D02*
X0021936Y0341718D01*
X0021936Y0342151D02*
X0025838Y0342151D01*
X0025838Y0342584D02*
X0021936Y0342584D01*
X0019145Y0338687D02*
X0015243Y0338687D01*
X0015243Y0342983D01*
X0019145Y0342983D01*
X0019145Y0338687D01*
X0019145Y0339120D02*
X0015243Y0339120D01*
X0015243Y0339553D02*
X0019145Y0339553D01*
X0019145Y0339986D02*
X0015243Y0339986D01*
X0015243Y0340419D02*
X0019145Y0340419D01*
X0019145Y0340852D02*
X0015243Y0340852D01*
X0015243Y0341285D02*
X0019145Y0341285D01*
X0019145Y0341718D02*
X0015243Y0341718D01*
X0015243Y0342151D02*
X0019145Y0342151D01*
X0019145Y0342584D02*
X0015243Y0342584D01*
X0034455Y0277821D02*
X0038751Y0277821D01*
X0034455Y0277821D02*
X0034455Y0281723D01*
X0038751Y0281723D01*
X0038751Y0277821D01*
X0038751Y0278254D02*
X0034455Y0278254D01*
X0034455Y0278687D02*
X0038751Y0278687D01*
X0038751Y0279120D02*
X0034455Y0279120D01*
X0034455Y0279553D02*
X0038751Y0279553D01*
X0038751Y0279986D02*
X0034455Y0279986D01*
X0034455Y0280419D02*
X0038751Y0280419D01*
X0038751Y0280852D02*
X0034455Y0280852D01*
X0034455Y0281285D02*
X0038751Y0281285D01*
X0038751Y0281718D02*
X0034455Y0281718D01*
X0041148Y0277821D02*
X0045444Y0277821D01*
X0041148Y0277821D02*
X0041148Y0281723D01*
X0045444Y0281723D01*
X0045444Y0277821D01*
X0045444Y0278254D02*
X0041148Y0278254D01*
X0041148Y0278687D02*
X0045444Y0278687D01*
X0045444Y0279120D02*
X0041148Y0279120D01*
X0041148Y0279553D02*
X0045444Y0279553D01*
X0045444Y0279986D02*
X0041148Y0279986D01*
X0041148Y0280419D02*
X0045444Y0280419D01*
X0045444Y0280852D02*
X0041148Y0280852D01*
X0041148Y0281285D02*
X0045444Y0281285D01*
X0045444Y0281718D02*
X0041148Y0281718D01*
X0101562Y0293195D02*
X0101562Y0297491D01*
X0105464Y0297491D01*
X0105464Y0293195D01*
X0101562Y0293195D01*
X0101562Y0293628D02*
X0105464Y0293628D01*
X0105464Y0294061D02*
X0101562Y0294061D01*
X0101562Y0294494D02*
X0105464Y0294494D01*
X0105464Y0294927D02*
X0101562Y0294927D01*
X0101562Y0295360D02*
X0105464Y0295360D01*
X0105464Y0295793D02*
X0101562Y0295793D01*
X0101562Y0296226D02*
X0105464Y0296226D01*
X0105464Y0296659D02*
X0101562Y0296659D01*
X0101562Y0297092D02*
X0105464Y0297092D01*
X0101562Y0299888D02*
X0101562Y0304184D01*
X0105464Y0304184D01*
X0105464Y0299888D01*
X0101562Y0299888D01*
X0101562Y0300321D02*
X0105464Y0300321D01*
X0105464Y0300754D02*
X0101562Y0300754D01*
X0101562Y0301187D02*
X0105464Y0301187D01*
X0105464Y0301620D02*
X0101562Y0301620D01*
X0101562Y0302053D02*
X0105464Y0302053D01*
X0105464Y0302486D02*
X0101562Y0302486D01*
X0101562Y0302919D02*
X0105464Y0302919D01*
X0105464Y0303352D02*
X0101562Y0303352D01*
X0101562Y0303785D02*
X0105464Y0303785D01*
X0159829Y0303594D02*
X0164125Y0303594D01*
X0164125Y0299692D01*
X0159829Y0299692D01*
X0159829Y0303594D01*
X0159829Y0300125D02*
X0164125Y0300125D01*
X0164125Y0300558D02*
X0159829Y0300558D01*
X0159829Y0300991D02*
X0164125Y0300991D01*
X0164125Y0301424D02*
X0159829Y0301424D01*
X0159829Y0301857D02*
X0164125Y0301857D01*
X0164125Y0302290D02*
X0159829Y0302290D01*
X0159829Y0302723D02*
X0164125Y0302723D01*
X0164125Y0303156D02*
X0159829Y0303156D01*
X0159829Y0303589D02*
X0164125Y0303589D01*
X0166522Y0303594D02*
X0170818Y0303594D01*
X0170818Y0299692D01*
X0166522Y0299692D01*
X0166522Y0303594D01*
X0166522Y0300125D02*
X0170818Y0300125D01*
X0170818Y0300558D02*
X0166522Y0300558D01*
X0166522Y0300991D02*
X0170818Y0300991D01*
X0170818Y0301424D02*
X0166522Y0301424D01*
X0166522Y0301857D02*
X0170818Y0301857D01*
X0170818Y0302290D02*
X0166522Y0302290D01*
X0166522Y0302723D02*
X0170818Y0302723D01*
X0170818Y0303156D02*
X0166522Y0303156D01*
X0166522Y0303589D02*
X0170818Y0303589D01*
X0170877Y0311463D02*
X0166975Y0311463D01*
X0166975Y0315759D01*
X0170877Y0315759D01*
X0170877Y0311463D01*
X0170877Y0311896D02*
X0166975Y0311896D01*
X0166975Y0312329D02*
X0170877Y0312329D01*
X0170877Y0312762D02*
X0166975Y0312762D01*
X0166975Y0313195D02*
X0170877Y0313195D01*
X0170877Y0313628D02*
X0166975Y0313628D01*
X0166975Y0314061D02*
X0170877Y0314061D01*
X0170877Y0314494D02*
X0166975Y0314494D01*
X0166975Y0314927D02*
X0170877Y0314927D01*
X0170877Y0315360D02*
X0166975Y0315360D01*
X0164184Y0311463D02*
X0160282Y0311463D01*
X0160282Y0315759D01*
X0164184Y0315759D01*
X0164184Y0311463D01*
X0164184Y0311896D02*
X0160282Y0311896D01*
X0160282Y0312329D02*
X0164184Y0312329D01*
X0164184Y0312762D02*
X0160282Y0312762D01*
X0160282Y0313195D02*
X0164184Y0313195D01*
X0164184Y0313628D02*
X0160282Y0313628D01*
X0160282Y0314061D02*
X0164184Y0314061D01*
X0164184Y0314494D02*
X0160282Y0314494D01*
X0160282Y0314927D02*
X0164184Y0314927D01*
X0164184Y0315360D02*
X0160282Y0315360D01*
X0191188Y0307294D02*
X0191188Y0302998D01*
X0191188Y0307294D02*
X0195090Y0307294D01*
X0195090Y0302998D01*
X0191188Y0302998D01*
X0191188Y0303431D02*
X0195090Y0303431D01*
X0195090Y0303864D02*
X0191188Y0303864D01*
X0191188Y0304297D02*
X0195090Y0304297D01*
X0195090Y0304730D02*
X0191188Y0304730D01*
X0191188Y0305163D02*
X0195090Y0305163D01*
X0195090Y0305596D02*
X0191188Y0305596D01*
X0191188Y0306029D02*
X0195090Y0306029D01*
X0195090Y0306462D02*
X0191188Y0306462D01*
X0191188Y0306895D02*
X0195090Y0306895D01*
X0191188Y0300602D02*
X0191188Y0296306D01*
X0191188Y0300602D02*
X0195090Y0300602D01*
X0195090Y0296306D01*
X0191188Y0296306D01*
X0191188Y0296739D02*
X0195090Y0296739D01*
X0195090Y0297172D02*
X0191188Y0297172D01*
X0191188Y0297605D02*
X0195090Y0297605D01*
X0195090Y0298038D02*
X0191188Y0298038D01*
X0191188Y0298471D02*
X0195090Y0298471D01*
X0195090Y0298904D02*
X0191188Y0298904D01*
X0191188Y0299337D02*
X0195090Y0299337D01*
X0195090Y0299770D02*
X0191188Y0299770D01*
X0191188Y0300203D02*
X0195090Y0300203D01*
X0199652Y0302802D02*
X0203554Y0302802D01*
X0199652Y0302802D02*
X0199652Y0307098D01*
X0203554Y0307098D01*
X0203554Y0302802D01*
X0203554Y0303235D02*
X0199652Y0303235D01*
X0199652Y0303668D02*
X0203554Y0303668D01*
X0203554Y0304101D02*
X0199652Y0304101D01*
X0199652Y0304534D02*
X0203554Y0304534D01*
X0203554Y0304967D02*
X0199652Y0304967D01*
X0199652Y0305400D02*
X0203554Y0305400D01*
X0203554Y0305833D02*
X0199652Y0305833D01*
X0199652Y0306266D02*
X0203554Y0306266D01*
X0203554Y0306699D02*
X0199652Y0306699D01*
X0206345Y0302802D02*
X0210247Y0302802D01*
X0206345Y0302802D02*
X0206345Y0307098D01*
X0210247Y0307098D01*
X0210247Y0302802D01*
X0210247Y0303235D02*
X0206345Y0303235D01*
X0206345Y0303668D02*
X0210247Y0303668D01*
X0210247Y0304101D02*
X0206345Y0304101D01*
X0206345Y0304534D02*
X0210247Y0304534D01*
X0210247Y0304967D02*
X0206345Y0304967D01*
X0206345Y0305400D02*
X0210247Y0305400D01*
X0210247Y0305833D02*
X0206345Y0305833D01*
X0206345Y0306266D02*
X0210247Y0306266D01*
X0210247Y0306699D02*
X0206345Y0306699D01*
X0206345Y0292565D02*
X0210247Y0292565D01*
X0206345Y0292565D02*
X0206345Y0296861D01*
X0210247Y0296861D01*
X0210247Y0292565D01*
X0210247Y0292998D02*
X0206345Y0292998D01*
X0206345Y0293431D02*
X0210247Y0293431D01*
X0210247Y0293864D02*
X0206345Y0293864D01*
X0206345Y0294297D02*
X0210247Y0294297D01*
X0210247Y0294730D02*
X0206345Y0294730D01*
X0206345Y0295163D02*
X0210247Y0295163D01*
X0210247Y0295596D02*
X0206345Y0295596D01*
X0206345Y0296029D02*
X0210247Y0296029D01*
X0210247Y0296462D02*
X0206345Y0296462D01*
X0203554Y0292565D02*
X0199652Y0292565D01*
X0199652Y0296861D01*
X0203554Y0296861D01*
X0203554Y0292565D01*
X0203554Y0292998D02*
X0199652Y0292998D01*
X0199652Y0293431D02*
X0203554Y0293431D01*
X0203554Y0293864D02*
X0199652Y0293864D01*
X0199652Y0294297D02*
X0203554Y0294297D01*
X0203554Y0294730D02*
X0199652Y0294730D01*
X0199652Y0295163D02*
X0203554Y0295163D01*
X0203554Y0295596D02*
X0199652Y0295596D01*
X0199652Y0296029D02*
X0203554Y0296029D01*
X0203554Y0296462D02*
X0199652Y0296462D01*
X0210956Y0282629D02*
X0210956Y0278727D01*
X0206660Y0278727D01*
X0206660Y0282629D01*
X0210956Y0282629D01*
X0210956Y0279160D02*
X0206660Y0279160D01*
X0206660Y0279593D02*
X0210956Y0279593D01*
X0210956Y0280026D02*
X0206660Y0280026D01*
X0206660Y0280459D02*
X0210956Y0280459D01*
X0210956Y0280892D02*
X0206660Y0280892D01*
X0206660Y0281325D02*
X0210956Y0281325D01*
X0210956Y0281758D02*
X0206660Y0281758D01*
X0206660Y0282191D02*
X0210956Y0282191D01*
X0210956Y0282624D02*
X0206660Y0282624D01*
X0210956Y0275936D02*
X0210956Y0272034D01*
X0206660Y0272034D01*
X0206660Y0275936D01*
X0210956Y0275936D01*
X0210956Y0272467D02*
X0206660Y0272467D01*
X0206660Y0272900D02*
X0210956Y0272900D01*
X0210956Y0273333D02*
X0206660Y0273333D01*
X0206660Y0273766D02*
X0210956Y0273766D01*
X0210956Y0274199D02*
X0206660Y0274199D01*
X0206660Y0274632D02*
X0210956Y0274632D01*
X0210956Y0275065D02*
X0206660Y0275065D01*
X0206660Y0275498D02*
X0210956Y0275498D01*
X0210956Y0275931D02*
X0206660Y0275931D01*
X0196645Y0259066D02*
X0196645Y0254770D01*
X0192743Y0254770D01*
X0192743Y0259066D01*
X0196645Y0259066D01*
X0196645Y0255203D02*
X0192743Y0255203D01*
X0192743Y0255636D02*
X0196645Y0255636D01*
X0196645Y0256069D02*
X0192743Y0256069D01*
X0192743Y0256502D02*
X0196645Y0256502D01*
X0196645Y0256935D02*
X0192743Y0256935D01*
X0192743Y0257368D02*
X0196645Y0257368D01*
X0196645Y0257801D02*
X0192743Y0257801D01*
X0192743Y0258234D02*
X0196645Y0258234D01*
X0196645Y0258667D02*
X0192743Y0258667D01*
X0190321Y0264317D02*
X0190321Y0268613D01*
X0194223Y0268613D01*
X0194223Y0264317D01*
X0190321Y0264317D01*
X0190321Y0264750D02*
X0194223Y0264750D01*
X0194223Y0265183D02*
X0190321Y0265183D01*
X0190321Y0265616D02*
X0194223Y0265616D01*
X0194223Y0266049D02*
X0190321Y0266049D01*
X0190321Y0266482D02*
X0194223Y0266482D01*
X0194223Y0266915D02*
X0190321Y0266915D01*
X0190321Y0267348D02*
X0194223Y0267348D01*
X0194223Y0267781D02*
X0190321Y0267781D01*
X0190321Y0268214D02*
X0194223Y0268214D01*
X0190321Y0271010D02*
X0190321Y0275306D01*
X0194223Y0275306D01*
X0194223Y0271010D01*
X0190321Y0271010D01*
X0190321Y0271443D02*
X0194223Y0271443D01*
X0194223Y0271876D02*
X0190321Y0271876D01*
X0190321Y0272309D02*
X0194223Y0272309D01*
X0194223Y0272742D02*
X0190321Y0272742D01*
X0190321Y0273175D02*
X0194223Y0273175D01*
X0194223Y0273608D02*
X0190321Y0273608D01*
X0190321Y0274041D02*
X0194223Y0274041D01*
X0194223Y0274474D02*
X0190321Y0274474D01*
X0190321Y0274907D02*
X0194223Y0274907D01*
X0196645Y0252373D02*
X0196645Y0248077D01*
X0192743Y0248077D01*
X0192743Y0252373D01*
X0196645Y0252373D01*
X0196645Y0248510D02*
X0192743Y0248510D01*
X0192743Y0248943D02*
X0196645Y0248943D01*
X0196645Y0249376D02*
X0192743Y0249376D01*
X0192743Y0249809D02*
X0196645Y0249809D01*
X0196645Y0250242D02*
X0192743Y0250242D01*
X0192743Y0250675D02*
X0196645Y0250675D01*
X0196645Y0251108D02*
X0192743Y0251108D01*
X0192743Y0251541D02*
X0196645Y0251541D01*
X0196645Y0251974D02*
X0192743Y0251974D01*
X0197432Y0244716D02*
X0197432Y0240420D01*
X0193530Y0240420D01*
X0193530Y0244716D01*
X0197432Y0244716D01*
X0197432Y0240853D02*
X0193530Y0240853D01*
X0193530Y0241286D02*
X0197432Y0241286D01*
X0197432Y0241719D02*
X0193530Y0241719D01*
X0193530Y0242152D02*
X0197432Y0242152D01*
X0197432Y0242585D02*
X0193530Y0242585D01*
X0193530Y0243018D02*
X0197432Y0243018D01*
X0197432Y0243451D02*
X0193530Y0243451D01*
X0193530Y0243884D02*
X0197432Y0243884D01*
X0197432Y0244317D02*
X0193530Y0244317D01*
X0197432Y0238023D02*
X0197432Y0233727D01*
X0193530Y0233727D01*
X0193530Y0238023D01*
X0197432Y0238023D01*
X0197432Y0234160D02*
X0193530Y0234160D01*
X0193530Y0234593D02*
X0197432Y0234593D01*
X0197432Y0235026D02*
X0193530Y0235026D01*
X0193530Y0235459D02*
X0197432Y0235459D01*
X0197432Y0235892D02*
X0193530Y0235892D01*
X0193530Y0236325D02*
X0197432Y0236325D01*
X0197432Y0236758D02*
X0193530Y0236758D01*
X0193530Y0237191D02*
X0197432Y0237191D01*
X0197432Y0237624D02*
X0193530Y0237624D01*
X0195857Y0228515D02*
X0195857Y0224219D01*
X0191955Y0224219D01*
X0191955Y0228515D01*
X0195857Y0228515D01*
X0195857Y0224652D02*
X0191955Y0224652D01*
X0191955Y0225085D02*
X0195857Y0225085D01*
X0195857Y0225518D02*
X0191955Y0225518D01*
X0191955Y0225951D02*
X0195857Y0225951D01*
X0195857Y0226384D02*
X0191955Y0226384D01*
X0191955Y0226817D02*
X0195857Y0226817D01*
X0195857Y0227250D02*
X0191955Y0227250D01*
X0191955Y0227683D02*
X0195857Y0227683D01*
X0195857Y0228116D02*
X0191955Y0228116D01*
X0195857Y0221822D02*
X0195857Y0217526D01*
X0191955Y0217526D01*
X0191955Y0221822D01*
X0195857Y0221822D01*
X0195857Y0217959D02*
X0191955Y0217959D01*
X0191955Y0218392D02*
X0195857Y0218392D01*
X0195857Y0218825D02*
X0191955Y0218825D01*
X0191955Y0219258D02*
X0195857Y0219258D01*
X0195857Y0219691D02*
X0191955Y0219691D01*
X0191955Y0220124D02*
X0195857Y0220124D01*
X0195857Y0220557D02*
X0191955Y0220557D01*
X0191955Y0220990D02*
X0195857Y0220990D01*
X0195857Y0221423D02*
X0191955Y0221423D01*
X0195070Y0212590D02*
X0195070Y0208294D01*
X0191168Y0208294D01*
X0191168Y0212590D01*
X0195070Y0212590D01*
X0195070Y0208727D02*
X0191168Y0208727D01*
X0191168Y0209160D02*
X0195070Y0209160D01*
X0195070Y0209593D02*
X0191168Y0209593D01*
X0191168Y0210026D02*
X0195070Y0210026D01*
X0195070Y0210459D02*
X0191168Y0210459D01*
X0191168Y0210892D02*
X0195070Y0210892D01*
X0195070Y0211325D02*
X0191168Y0211325D01*
X0191168Y0211758D02*
X0195070Y0211758D01*
X0195070Y0212191D02*
X0191168Y0212191D01*
X0195070Y0205897D02*
X0195070Y0201601D01*
X0191168Y0201601D01*
X0191168Y0205897D01*
X0195070Y0205897D01*
X0195070Y0202034D02*
X0191168Y0202034D01*
X0191168Y0202467D02*
X0195070Y0202467D01*
X0195070Y0202900D02*
X0191168Y0202900D01*
X0191168Y0203333D02*
X0195070Y0203333D01*
X0195070Y0203766D02*
X0191168Y0203766D01*
X0191168Y0204199D02*
X0195070Y0204199D01*
X0195070Y0204632D02*
X0191168Y0204632D01*
X0191168Y0205065D02*
X0195070Y0205065D01*
X0195070Y0205498D02*
X0191168Y0205498D01*
X0230203Y0039632D02*
X0234105Y0039632D01*
X0230203Y0039632D02*
X0230203Y0045110D01*
X0234105Y0045110D01*
X0234105Y0039632D01*
X0234105Y0040065D02*
X0230203Y0040065D01*
X0230203Y0040498D02*
X0234105Y0040498D01*
X0234105Y0040931D02*
X0230203Y0040931D01*
X0230203Y0041364D02*
X0234105Y0041364D01*
X0234105Y0041797D02*
X0230203Y0041797D01*
X0230203Y0042230D02*
X0234105Y0042230D01*
X0234105Y0042663D02*
X0230203Y0042663D01*
X0230203Y0043096D02*
X0234105Y0043096D01*
X0234105Y0043529D02*
X0230203Y0043529D01*
X0230203Y0043962D02*
X0234105Y0043962D01*
X0234105Y0044395D02*
X0230203Y0044395D01*
X0230203Y0044828D02*
X0234105Y0044828D01*
X0233943Y0030970D02*
X0237845Y0030970D01*
X0233943Y0030970D02*
X0233943Y0036448D01*
X0237845Y0036448D01*
X0237845Y0030970D01*
X0237845Y0031403D02*
X0233943Y0031403D01*
X0233943Y0031836D02*
X0237845Y0031836D01*
X0237845Y0032269D02*
X0233943Y0032269D01*
X0233943Y0032702D02*
X0237845Y0032702D01*
X0237845Y0033135D02*
X0233943Y0033135D01*
X0233943Y0033568D02*
X0237845Y0033568D01*
X0237845Y0034001D02*
X0233943Y0034001D01*
X0233943Y0034434D02*
X0237845Y0034434D01*
X0237845Y0034867D02*
X0233943Y0034867D01*
X0233943Y0035300D02*
X0237845Y0035300D01*
X0237845Y0035733D02*
X0233943Y0035733D01*
X0233943Y0036166D02*
X0237845Y0036166D01*
X0230365Y0030970D02*
X0226463Y0030970D01*
X0226463Y0036448D01*
X0230365Y0036448D01*
X0230365Y0030970D01*
X0230365Y0031403D02*
X0226463Y0031403D01*
X0226463Y0031836D02*
X0230365Y0031836D01*
X0230365Y0032269D02*
X0226463Y0032269D01*
X0226463Y0032702D02*
X0230365Y0032702D01*
X0230365Y0033135D02*
X0226463Y0033135D01*
X0226463Y0033568D02*
X0230365Y0033568D01*
X0230365Y0034001D02*
X0226463Y0034001D01*
X0226463Y0034434D02*
X0230365Y0034434D01*
X0230365Y0034867D02*
X0226463Y0034867D01*
X0226463Y0035300D02*
X0230365Y0035300D01*
X0230365Y0035733D02*
X0226463Y0035733D01*
X0226463Y0036166D02*
X0230365Y0036166D01*
X0222235Y0028628D02*
X0218333Y0028628D01*
X0218333Y0032924D01*
X0222235Y0032924D01*
X0222235Y0028628D01*
X0222235Y0029061D02*
X0218333Y0029061D01*
X0218333Y0029494D02*
X0222235Y0029494D01*
X0222235Y0029927D02*
X0218333Y0029927D01*
X0218333Y0030360D02*
X0222235Y0030360D01*
X0222235Y0030793D02*
X0218333Y0030793D01*
X0218333Y0031226D02*
X0222235Y0031226D01*
X0222235Y0031659D02*
X0218333Y0031659D01*
X0218333Y0032092D02*
X0222235Y0032092D01*
X0222235Y0032525D02*
X0218333Y0032525D01*
X0215542Y0028628D02*
X0211640Y0028628D01*
X0211640Y0032924D01*
X0215542Y0032924D01*
X0215542Y0028628D01*
X0215542Y0029061D02*
X0211640Y0029061D01*
X0211640Y0029494D02*
X0215542Y0029494D01*
X0215542Y0029927D02*
X0211640Y0029927D01*
X0211640Y0030360D02*
X0215542Y0030360D01*
X0215542Y0030793D02*
X0211640Y0030793D01*
X0211640Y0031226D02*
X0215542Y0031226D01*
X0215542Y0031659D02*
X0211640Y0031659D01*
X0211640Y0032092D02*
X0215542Y0032092D01*
X0215542Y0032525D02*
X0211640Y0032525D01*
X0210542Y0016128D02*
X0206640Y0016128D01*
X0206640Y0020424D01*
X0210542Y0020424D01*
X0210542Y0016128D01*
X0210542Y0016561D02*
X0206640Y0016561D01*
X0206640Y0016994D02*
X0210542Y0016994D01*
X0210542Y0017427D02*
X0206640Y0017427D01*
X0206640Y0017860D02*
X0210542Y0017860D01*
X0210542Y0018293D02*
X0206640Y0018293D01*
X0206640Y0018726D02*
X0210542Y0018726D01*
X0210542Y0019159D02*
X0206640Y0019159D01*
X0206640Y0019592D02*
X0210542Y0019592D01*
X0210542Y0020025D02*
X0206640Y0020025D01*
X0213333Y0016128D02*
X0217235Y0016128D01*
X0213333Y0016128D02*
X0213333Y0020424D01*
X0217235Y0020424D01*
X0217235Y0016128D01*
X0217235Y0016561D02*
X0213333Y0016561D01*
X0213333Y0016994D02*
X0217235Y0016994D01*
X0217235Y0017427D02*
X0213333Y0017427D01*
X0213333Y0017860D02*
X0217235Y0017860D01*
X0217235Y0018293D02*
X0213333Y0018293D01*
X0213333Y0018726D02*
X0217235Y0018726D01*
X0217235Y0019159D02*
X0213333Y0019159D01*
X0213333Y0019592D02*
X0217235Y0019592D01*
X0217235Y0020025D02*
X0213333Y0020025D01*
X0224140Y0016128D02*
X0228042Y0016128D01*
X0224140Y0016128D02*
X0224140Y0020424D01*
X0228042Y0020424D01*
X0228042Y0016128D01*
X0228042Y0016561D02*
X0224140Y0016561D01*
X0224140Y0016994D02*
X0228042Y0016994D01*
X0228042Y0017427D02*
X0224140Y0017427D01*
X0224140Y0017860D02*
X0228042Y0017860D01*
X0228042Y0018293D02*
X0224140Y0018293D01*
X0224140Y0018726D02*
X0228042Y0018726D01*
X0228042Y0019159D02*
X0224140Y0019159D01*
X0224140Y0019592D02*
X0228042Y0019592D01*
X0228042Y0020025D02*
X0224140Y0020025D01*
X0230833Y0016128D02*
X0234735Y0016128D01*
X0230833Y0016128D02*
X0230833Y0020424D01*
X0234735Y0020424D01*
X0234735Y0016128D01*
X0234735Y0016561D02*
X0230833Y0016561D01*
X0230833Y0016994D02*
X0234735Y0016994D01*
X0234735Y0017427D02*
X0230833Y0017427D01*
X0230833Y0017860D02*
X0234735Y0017860D01*
X0234735Y0018293D02*
X0230833Y0018293D01*
X0230833Y0018726D02*
X0234735Y0018726D01*
X0234735Y0019159D02*
X0230833Y0019159D01*
X0230833Y0019592D02*
X0234735Y0019592D01*
X0234735Y0020025D02*
X0230833Y0020025D01*
X0237566Y0016128D02*
X0241468Y0016128D01*
X0237566Y0016128D02*
X0237566Y0020424D01*
X0241468Y0020424D01*
X0241468Y0016128D01*
X0241468Y0016561D02*
X0237566Y0016561D01*
X0237566Y0016994D02*
X0241468Y0016994D01*
X0241468Y0017427D02*
X0237566Y0017427D01*
X0237566Y0017860D02*
X0241468Y0017860D01*
X0241468Y0018293D02*
X0237566Y0018293D01*
X0237566Y0018726D02*
X0241468Y0018726D01*
X0241468Y0019159D02*
X0237566Y0019159D01*
X0237566Y0019592D02*
X0241468Y0019592D01*
X0241468Y0020025D02*
X0237566Y0020025D01*
X0244258Y0016128D02*
X0248160Y0016128D01*
X0244258Y0016128D02*
X0244258Y0020424D01*
X0248160Y0020424D01*
X0248160Y0016128D01*
X0248160Y0016561D02*
X0244258Y0016561D01*
X0244258Y0016994D02*
X0248160Y0016994D01*
X0248160Y0017427D02*
X0244258Y0017427D01*
X0244258Y0017860D02*
X0248160Y0017860D01*
X0248160Y0018293D02*
X0244258Y0018293D01*
X0244258Y0018726D02*
X0248160Y0018726D01*
X0248160Y0019159D02*
X0244258Y0019159D01*
X0244258Y0019592D02*
X0248160Y0019592D01*
X0248160Y0020025D02*
X0244258Y0020025D01*
D14*
X0189519Y0006384D02*
X0182781Y0006384D01*
X0182781Y0013516D01*
X0189519Y0013516D01*
X0189519Y0006384D01*
X0189519Y0007132D02*
X0182781Y0007132D01*
X0182781Y0007880D02*
X0189519Y0007880D01*
X0189519Y0008628D02*
X0182781Y0008628D01*
X0182781Y0009376D02*
X0189519Y0009376D01*
X0189519Y0010124D02*
X0182781Y0010124D01*
X0182781Y0010872D02*
X0189519Y0010872D01*
X0189519Y0011620D02*
X0182781Y0011620D01*
X0182781Y0012368D02*
X0189519Y0012368D01*
X0189519Y0013116D02*
X0182781Y0013116D01*
X0159598Y0006384D02*
X0152860Y0006384D01*
X0152860Y0013516D01*
X0159598Y0013516D01*
X0159598Y0006384D01*
X0159598Y0007132D02*
X0152860Y0007132D01*
X0152860Y0007880D02*
X0159598Y0007880D01*
X0159598Y0008628D02*
X0152860Y0008628D01*
X0152860Y0009376D02*
X0159598Y0009376D01*
X0159598Y0010124D02*
X0152860Y0010124D01*
X0152860Y0010872D02*
X0159598Y0010872D01*
X0159598Y0011620D02*
X0152860Y0011620D01*
X0152860Y0012368D02*
X0159598Y0012368D01*
X0159598Y0013116D02*
X0152860Y0013116D01*
D15*
X0162919Y0006404D02*
X0170011Y0006404D01*
X0162919Y0006404D02*
X0162919Y0013496D01*
X0170011Y0013496D01*
X0170011Y0006404D01*
X0170011Y0007191D02*
X0162919Y0007191D01*
X0162919Y0007978D02*
X0170011Y0007978D01*
X0170011Y0008765D02*
X0162919Y0008765D01*
X0162919Y0009552D02*
X0170011Y0009552D01*
X0170011Y0010339D02*
X0162919Y0010339D01*
X0162919Y0011126D02*
X0170011Y0011126D01*
X0170011Y0011913D02*
X0162919Y0011913D01*
X0162919Y0012700D02*
X0170011Y0012700D01*
X0170011Y0013487D02*
X0162919Y0013487D01*
X0172368Y0006404D02*
X0179460Y0006404D01*
X0172368Y0006404D02*
X0172368Y0013496D01*
X0179460Y0013496D01*
X0179460Y0006404D01*
X0179460Y0007191D02*
X0172368Y0007191D01*
X0172368Y0007978D02*
X0179460Y0007978D01*
X0179460Y0008765D02*
X0172368Y0008765D01*
X0172368Y0009552D02*
X0179460Y0009552D01*
X0179460Y0010339D02*
X0172368Y0010339D01*
X0172368Y0011126D02*
X0179460Y0011126D01*
X0179460Y0011913D02*
X0172368Y0011913D01*
X0172368Y0012700D02*
X0179460Y0012700D01*
X0179460Y0013487D02*
X0172368Y0013487D01*
D16*
X0179395Y0016975D02*
X0187393Y0016975D01*
X0179395Y0016975D02*
X0179395Y0023003D01*
X0187393Y0023003D01*
X0187393Y0016975D01*
X0187393Y0017644D02*
X0179395Y0017644D01*
X0179395Y0018313D02*
X0187393Y0018313D01*
X0187393Y0018982D02*
X0179395Y0018982D01*
X0179395Y0019651D02*
X0187393Y0019651D01*
X0187393Y0020320D02*
X0179395Y0020320D01*
X0179395Y0020989D02*
X0187393Y0020989D01*
X0187393Y0021658D02*
X0179395Y0021658D01*
X0179395Y0022327D02*
X0187393Y0022327D01*
X0187393Y0022996D02*
X0179395Y0022996D01*
X0162984Y0016975D02*
X0154986Y0016975D01*
X0154986Y0023003D01*
X0162984Y0023003D01*
X0162984Y0016975D01*
X0162984Y0017644D02*
X0154986Y0017644D01*
X0154986Y0018313D02*
X0162984Y0018313D01*
X0162984Y0018982D02*
X0154986Y0018982D01*
X0154986Y0019651D02*
X0162984Y0019651D01*
X0162984Y0020320D02*
X0154986Y0020320D01*
X0154986Y0020989D02*
X0162984Y0020989D01*
X0162984Y0021658D02*
X0154986Y0021658D01*
X0154986Y0022327D02*
X0162984Y0022327D01*
X0162984Y0022996D02*
X0154986Y0022996D01*
X0219495Y0308471D02*
X0225523Y0308471D01*
X0219495Y0308471D02*
X0219495Y0320011D01*
X0225523Y0320011D01*
X0225523Y0308471D01*
X0225523Y0309140D02*
X0219495Y0309140D01*
X0219495Y0309809D02*
X0225523Y0309809D01*
X0225523Y0310478D02*
X0219495Y0310478D01*
X0219495Y0311147D02*
X0225523Y0311147D01*
X0225523Y0311816D02*
X0219495Y0311816D01*
X0219495Y0312485D02*
X0225523Y0312485D01*
X0225523Y0313154D02*
X0219495Y0313154D01*
X0219495Y0313823D02*
X0225523Y0313823D01*
X0225523Y0314492D02*
X0219495Y0314492D01*
X0219495Y0315161D02*
X0225523Y0315161D01*
X0225523Y0315830D02*
X0219495Y0315830D01*
X0219495Y0316499D02*
X0225523Y0316499D01*
X0225523Y0317168D02*
X0219495Y0317168D01*
X0219495Y0317837D02*
X0225523Y0317837D01*
X0225523Y0318506D02*
X0219495Y0318506D01*
X0219495Y0319175D02*
X0225523Y0319175D01*
X0225523Y0319844D02*
X0219495Y0319844D01*
X0237447Y0308471D02*
X0243475Y0308471D01*
X0237447Y0308471D02*
X0237447Y0320011D01*
X0243475Y0320011D01*
X0243475Y0308471D01*
X0243475Y0309140D02*
X0237447Y0309140D01*
X0237447Y0309809D02*
X0243475Y0309809D01*
X0243475Y0310478D02*
X0237447Y0310478D01*
X0237447Y0311147D02*
X0243475Y0311147D01*
X0243475Y0311816D02*
X0237447Y0311816D01*
X0237447Y0312485D02*
X0243475Y0312485D01*
X0243475Y0313154D02*
X0237447Y0313154D01*
X0237447Y0313823D02*
X0243475Y0313823D01*
X0243475Y0314492D02*
X0237447Y0314492D01*
X0237447Y0315161D02*
X0243475Y0315161D01*
X0243475Y0315830D02*
X0237447Y0315830D01*
X0237447Y0316499D02*
X0243475Y0316499D01*
X0243475Y0317168D02*
X0237447Y0317168D01*
X0237447Y0317837D02*
X0243475Y0317837D01*
X0243475Y0318506D02*
X0237447Y0318506D01*
X0237447Y0319175D02*
X0243475Y0319175D01*
X0243475Y0319844D02*
X0237447Y0319844D01*
D17*
X0177048Y0017970D02*
X0175568Y0017970D01*
X0175568Y0023190D01*
X0177048Y0023190D01*
X0177048Y0017970D01*
X0177048Y0018463D02*
X0175568Y0018463D01*
X0175568Y0018956D02*
X0177048Y0018956D01*
X0177048Y0019449D02*
X0175568Y0019449D01*
X0175568Y0019942D02*
X0177048Y0019942D01*
X0177048Y0020435D02*
X0175568Y0020435D01*
X0175568Y0020928D02*
X0177048Y0020928D01*
X0177048Y0021421D02*
X0175568Y0021421D01*
X0175568Y0021914D02*
X0177048Y0021914D01*
X0177048Y0022407D02*
X0175568Y0022407D01*
X0175568Y0022900D02*
X0177048Y0022900D01*
X0174489Y0017970D02*
X0173009Y0017970D01*
X0173009Y0023190D01*
X0174489Y0023190D01*
X0174489Y0017970D01*
X0174489Y0018463D02*
X0173009Y0018463D01*
X0173009Y0018956D02*
X0174489Y0018956D01*
X0174489Y0019449D02*
X0173009Y0019449D01*
X0173009Y0019942D02*
X0174489Y0019942D01*
X0174489Y0020435D02*
X0173009Y0020435D01*
X0173009Y0020928D02*
X0174489Y0020928D01*
X0174489Y0021421D02*
X0173009Y0021421D01*
X0173009Y0021914D02*
X0174489Y0021914D01*
X0174489Y0022407D02*
X0173009Y0022407D01*
X0173009Y0022900D02*
X0174489Y0022900D01*
X0171930Y0017970D02*
X0170450Y0017970D01*
X0170450Y0023190D01*
X0171930Y0023190D01*
X0171930Y0017970D01*
X0171930Y0018463D02*
X0170450Y0018463D01*
X0170450Y0018956D02*
X0171930Y0018956D01*
X0171930Y0019449D02*
X0170450Y0019449D01*
X0170450Y0019942D02*
X0171930Y0019942D01*
X0171930Y0020435D02*
X0170450Y0020435D01*
X0170450Y0020928D02*
X0171930Y0020928D01*
X0171930Y0021421D02*
X0170450Y0021421D01*
X0170450Y0021914D02*
X0171930Y0021914D01*
X0171930Y0022407D02*
X0170450Y0022407D01*
X0170450Y0022900D02*
X0171930Y0022900D01*
X0169371Y0017970D02*
X0167891Y0017970D01*
X0167891Y0023190D01*
X0169371Y0023190D01*
X0169371Y0017970D01*
X0169371Y0018463D02*
X0167891Y0018463D01*
X0167891Y0018956D02*
X0169371Y0018956D01*
X0169371Y0019449D02*
X0167891Y0019449D01*
X0167891Y0019942D02*
X0169371Y0019942D01*
X0169371Y0020435D02*
X0167891Y0020435D01*
X0167891Y0020928D02*
X0169371Y0020928D01*
X0169371Y0021421D02*
X0167891Y0021421D01*
X0167891Y0021914D02*
X0169371Y0021914D01*
X0169371Y0022407D02*
X0167891Y0022407D01*
X0167891Y0022900D02*
X0169371Y0022900D01*
X0166812Y0017970D02*
X0165332Y0017970D01*
X0165332Y0023190D01*
X0166812Y0023190D01*
X0166812Y0017970D01*
X0166812Y0018463D02*
X0165332Y0018463D01*
X0165332Y0018956D02*
X0166812Y0018956D01*
X0166812Y0019449D02*
X0165332Y0019449D01*
X0165332Y0019942D02*
X0166812Y0019942D01*
X0166812Y0020435D02*
X0165332Y0020435D01*
X0165332Y0020928D02*
X0166812Y0020928D01*
X0166812Y0021421D02*
X0165332Y0021421D01*
X0165332Y0021914D02*
X0166812Y0021914D01*
X0166812Y0022407D02*
X0165332Y0022407D01*
X0165332Y0022900D02*
X0166812Y0022900D01*
D18*
X0207756Y0196005D02*
X0207756Y0198107D01*
X0212418Y0198107D01*
X0212418Y0196005D01*
X0207756Y0196005D01*
X0207756Y0196466D02*
X0212418Y0196466D01*
X0212418Y0196927D02*
X0207756Y0196927D01*
X0207756Y0197388D02*
X0212418Y0197388D01*
X0212418Y0197849D02*
X0207756Y0197849D01*
X0207756Y0199745D02*
X0207756Y0201847D01*
X0212418Y0201847D01*
X0212418Y0199745D01*
X0207756Y0199745D01*
X0207756Y0200206D02*
X0212418Y0200206D01*
X0212418Y0200667D02*
X0207756Y0200667D01*
X0207756Y0201128D02*
X0212418Y0201128D01*
X0212418Y0201589D02*
X0207756Y0201589D01*
X0207756Y0203485D02*
X0207756Y0205587D01*
X0212418Y0205587D01*
X0212418Y0203485D01*
X0207756Y0203485D01*
X0207756Y0203946D02*
X0212418Y0203946D01*
X0212418Y0204407D02*
X0207756Y0204407D01*
X0207756Y0204868D02*
X0212418Y0204868D01*
X0212418Y0205329D02*
X0207756Y0205329D01*
X0208543Y0215867D02*
X0208543Y0217969D01*
X0213205Y0217969D01*
X0213205Y0215867D01*
X0208543Y0215867D01*
X0208543Y0216328D02*
X0213205Y0216328D01*
X0213205Y0216789D02*
X0208543Y0216789D01*
X0208543Y0217250D02*
X0213205Y0217250D01*
X0213205Y0217711D02*
X0208543Y0217711D01*
X0208543Y0219607D02*
X0208543Y0221709D01*
X0213205Y0221709D01*
X0213205Y0219607D01*
X0208543Y0219607D01*
X0208543Y0220068D02*
X0213205Y0220068D01*
X0213205Y0220529D02*
X0208543Y0220529D01*
X0208543Y0220990D02*
X0213205Y0220990D01*
X0213205Y0221451D02*
X0208543Y0221451D01*
X0208543Y0223347D02*
X0208543Y0225449D01*
X0213205Y0225449D01*
X0213205Y0223347D01*
X0208543Y0223347D01*
X0208543Y0223808D02*
X0213205Y0223808D01*
X0213205Y0224269D02*
X0208543Y0224269D01*
X0208543Y0224730D02*
X0213205Y0224730D01*
X0213205Y0225191D02*
X0208543Y0225191D01*
X0209331Y0236005D02*
X0209331Y0238107D01*
X0213993Y0238107D01*
X0213993Y0236005D01*
X0209331Y0236005D01*
X0209331Y0236466D02*
X0213993Y0236466D01*
X0213993Y0236927D02*
X0209331Y0236927D01*
X0209331Y0237388D02*
X0213993Y0237388D01*
X0213993Y0237849D02*
X0209331Y0237849D01*
X0209331Y0239745D02*
X0209331Y0241847D01*
X0213993Y0241847D01*
X0213993Y0239745D01*
X0209331Y0239745D01*
X0209331Y0240206D02*
X0213993Y0240206D01*
X0213993Y0240667D02*
X0209331Y0240667D01*
X0209331Y0241128D02*
X0213993Y0241128D01*
X0213993Y0241589D02*
X0209331Y0241589D01*
X0209331Y0243485D02*
X0209331Y0245587D01*
X0213993Y0245587D01*
X0213993Y0243485D01*
X0209331Y0243485D01*
X0209331Y0243946D02*
X0213993Y0243946D01*
X0213993Y0244407D02*
X0209331Y0244407D01*
X0209331Y0244868D02*
X0213993Y0244868D01*
X0213993Y0245329D02*
X0209331Y0245329D01*
X0208543Y0251930D02*
X0208543Y0254032D01*
X0213205Y0254032D01*
X0213205Y0251930D01*
X0208543Y0251930D01*
X0208543Y0252391D02*
X0213205Y0252391D01*
X0213205Y0252852D02*
X0208543Y0252852D01*
X0208543Y0253313D02*
X0213205Y0253313D01*
X0213205Y0253774D02*
X0208543Y0253774D01*
X0208543Y0255670D02*
X0208543Y0257772D01*
X0213205Y0257772D01*
X0213205Y0255670D01*
X0208543Y0255670D01*
X0208543Y0256131D02*
X0213205Y0256131D01*
X0213205Y0256592D02*
X0208543Y0256592D01*
X0208543Y0257053D02*
X0213205Y0257053D01*
X0213205Y0257514D02*
X0208543Y0257514D01*
X0208543Y0259410D02*
X0208543Y0261512D01*
X0213205Y0261512D01*
X0213205Y0259410D01*
X0208543Y0259410D01*
X0208543Y0259871D02*
X0213205Y0259871D01*
X0213205Y0260332D02*
X0208543Y0260332D01*
X0208543Y0260793D02*
X0213205Y0260793D01*
X0213205Y0261254D02*
X0208543Y0261254D01*
X0218780Y0261512D02*
X0218780Y0259410D01*
X0218780Y0261512D02*
X0223442Y0261512D01*
X0223442Y0259410D01*
X0218780Y0259410D01*
X0218780Y0259871D02*
X0223442Y0259871D01*
X0223442Y0260332D02*
X0218780Y0260332D01*
X0218780Y0260793D02*
X0223442Y0260793D01*
X0223442Y0261254D02*
X0218780Y0261254D01*
X0218780Y0254032D02*
X0218780Y0251930D01*
X0218780Y0254032D02*
X0223442Y0254032D01*
X0223442Y0251930D01*
X0218780Y0251930D01*
X0218780Y0252391D02*
X0223442Y0252391D01*
X0223442Y0252852D02*
X0218780Y0252852D01*
X0218780Y0253313D02*
X0223442Y0253313D01*
X0223442Y0253774D02*
X0218780Y0253774D01*
X0219568Y0245587D02*
X0219568Y0243485D01*
X0219568Y0245587D02*
X0224230Y0245587D01*
X0224230Y0243485D01*
X0219568Y0243485D01*
X0219568Y0243946D02*
X0224230Y0243946D01*
X0224230Y0244407D02*
X0219568Y0244407D01*
X0219568Y0244868D02*
X0224230Y0244868D01*
X0224230Y0245329D02*
X0219568Y0245329D01*
X0219568Y0238107D02*
X0219568Y0236005D01*
X0219568Y0238107D02*
X0224230Y0238107D01*
X0224230Y0236005D01*
X0219568Y0236005D01*
X0219568Y0236466D02*
X0224230Y0236466D01*
X0224230Y0236927D02*
X0219568Y0236927D01*
X0219568Y0237388D02*
X0224230Y0237388D01*
X0224230Y0237849D02*
X0219568Y0237849D01*
X0218780Y0225449D02*
X0218780Y0223347D01*
X0218780Y0225449D02*
X0223442Y0225449D01*
X0223442Y0223347D01*
X0218780Y0223347D01*
X0218780Y0223808D02*
X0223442Y0223808D01*
X0223442Y0224269D02*
X0218780Y0224269D01*
X0218780Y0224730D02*
X0223442Y0224730D01*
X0223442Y0225191D02*
X0218780Y0225191D01*
X0218780Y0217969D02*
X0218780Y0215867D01*
X0218780Y0217969D02*
X0223442Y0217969D01*
X0223442Y0215867D01*
X0218780Y0215867D01*
X0218780Y0216328D02*
X0223442Y0216328D01*
X0223442Y0216789D02*
X0218780Y0216789D01*
X0218780Y0217250D02*
X0223442Y0217250D01*
X0223442Y0217711D02*
X0218780Y0217711D01*
X0217993Y0205587D02*
X0217993Y0203485D01*
X0217993Y0205587D02*
X0222655Y0205587D01*
X0222655Y0203485D01*
X0217993Y0203485D01*
X0217993Y0203946D02*
X0222655Y0203946D01*
X0222655Y0204407D02*
X0217993Y0204407D01*
X0217993Y0204868D02*
X0222655Y0204868D01*
X0222655Y0205329D02*
X0217993Y0205329D01*
X0217993Y0198107D02*
X0217993Y0196005D01*
X0217993Y0198107D02*
X0222655Y0198107D01*
X0222655Y0196005D01*
X0217993Y0196005D01*
X0217993Y0196466D02*
X0222655Y0196466D01*
X0222655Y0196927D02*
X0217993Y0196927D01*
X0217993Y0197388D02*
X0222655Y0197388D01*
X0222655Y0197849D02*
X0217993Y0197849D01*
X0188347Y0281025D02*
X0188347Y0283127D01*
X0193009Y0283127D01*
X0193009Y0281025D01*
X0188347Y0281025D01*
X0188347Y0281486D02*
X0193009Y0281486D01*
X0193009Y0281947D02*
X0188347Y0281947D01*
X0188347Y0282408D02*
X0193009Y0282408D01*
X0193009Y0282869D02*
X0188347Y0282869D01*
X0188347Y0288505D02*
X0188347Y0290607D01*
X0193009Y0290607D01*
X0193009Y0288505D01*
X0188347Y0288505D01*
X0188347Y0288966D02*
X0193009Y0288966D01*
X0193009Y0289427D02*
X0188347Y0289427D01*
X0188347Y0289888D02*
X0193009Y0289888D01*
X0193009Y0290349D02*
X0188347Y0290349D01*
X0178110Y0290607D02*
X0178110Y0288505D01*
X0178110Y0290607D02*
X0182772Y0290607D01*
X0182772Y0288505D01*
X0178110Y0288505D01*
X0178110Y0288966D02*
X0182772Y0288966D01*
X0182772Y0289427D02*
X0178110Y0289427D01*
X0178110Y0289888D02*
X0182772Y0289888D01*
X0182772Y0290349D02*
X0178110Y0290349D01*
X0178110Y0286867D02*
X0178110Y0284765D01*
X0178110Y0286867D02*
X0182772Y0286867D01*
X0182772Y0284765D01*
X0178110Y0284765D01*
X0178110Y0285226D02*
X0182772Y0285226D01*
X0182772Y0285687D02*
X0178110Y0285687D01*
X0178110Y0286148D02*
X0182772Y0286148D01*
X0182772Y0286609D02*
X0178110Y0286609D01*
X0178110Y0283127D02*
X0178110Y0281025D01*
X0178110Y0283127D02*
X0182772Y0283127D01*
X0182772Y0281025D01*
X0178110Y0281025D01*
X0178110Y0281486D02*
X0182772Y0281486D01*
X0182772Y0281947D02*
X0178110Y0281947D01*
X0178110Y0282408D02*
X0182772Y0282408D01*
X0182772Y0282869D02*
X0178110Y0282869D01*
D19*
X0091303Y0243387D02*
X0088753Y0243387D01*
X0091303Y0243387D02*
X0091303Y0235437D01*
X0088753Y0235437D01*
X0088753Y0243387D01*
X0088753Y0235886D02*
X0091303Y0235886D01*
X0091303Y0236335D02*
X0088753Y0236335D01*
X0088753Y0236784D02*
X0091303Y0236784D01*
X0091303Y0237233D02*
X0088753Y0237233D01*
X0088753Y0237682D02*
X0091303Y0237682D01*
X0091303Y0238131D02*
X0088753Y0238131D01*
X0088753Y0238580D02*
X0091303Y0238580D01*
X0091303Y0239029D02*
X0088753Y0239029D01*
X0088753Y0239478D02*
X0091303Y0239478D01*
X0091303Y0239927D02*
X0088753Y0239927D01*
X0088753Y0240376D02*
X0091303Y0240376D01*
X0091303Y0240825D02*
X0088753Y0240825D01*
X0088753Y0241274D02*
X0091303Y0241274D01*
X0091303Y0241723D02*
X0088753Y0241723D01*
X0088753Y0242172D02*
X0091303Y0242172D01*
X0091303Y0242621D02*
X0088753Y0242621D01*
X0088753Y0243070D02*
X0091303Y0243070D01*
X0086303Y0243387D02*
X0083753Y0243387D01*
X0086303Y0243387D02*
X0086303Y0235437D01*
X0083753Y0235437D01*
X0083753Y0243387D01*
X0083753Y0235886D02*
X0086303Y0235886D01*
X0086303Y0236335D02*
X0083753Y0236335D01*
X0083753Y0236784D02*
X0086303Y0236784D01*
X0086303Y0237233D02*
X0083753Y0237233D01*
X0083753Y0237682D02*
X0086303Y0237682D01*
X0086303Y0238131D02*
X0083753Y0238131D01*
X0083753Y0238580D02*
X0086303Y0238580D01*
X0086303Y0239029D02*
X0083753Y0239029D01*
X0083753Y0239478D02*
X0086303Y0239478D01*
X0086303Y0239927D02*
X0083753Y0239927D01*
X0083753Y0240376D02*
X0086303Y0240376D01*
X0086303Y0240825D02*
X0083753Y0240825D01*
X0083753Y0241274D02*
X0086303Y0241274D01*
X0086303Y0241723D02*
X0083753Y0241723D01*
X0083753Y0242172D02*
X0086303Y0242172D01*
X0086303Y0242621D02*
X0083753Y0242621D01*
X0083753Y0243070D02*
X0086303Y0243070D01*
X0081303Y0243387D02*
X0078753Y0243387D01*
X0081303Y0243387D02*
X0081303Y0235437D01*
X0078753Y0235437D01*
X0078753Y0243387D01*
X0078753Y0235886D02*
X0081303Y0235886D01*
X0081303Y0236335D02*
X0078753Y0236335D01*
X0078753Y0236784D02*
X0081303Y0236784D01*
X0081303Y0237233D02*
X0078753Y0237233D01*
X0078753Y0237682D02*
X0081303Y0237682D01*
X0081303Y0238131D02*
X0078753Y0238131D01*
X0078753Y0238580D02*
X0081303Y0238580D01*
X0081303Y0239029D02*
X0078753Y0239029D01*
X0078753Y0239478D02*
X0081303Y0239478D01*
X0081303Y0239927D02*
X0078753Y0239927D01*
X0078753Y0240376D02*
X0081303Y0240376D01*
X0081303Y0240825D02*
X0078753Y0240825D01*
X0078753Y0241274D02*
X0081303Y0241274D01*
X0081303Y0241723D02*
X0078753Y0241723D01*
X0078753Y0242172D02*
X0081303Y0242172D01*
X0081303Y0242621D02*
X0078753Y0242621D01*
X0078753Y0243070D02*
X0081303Y0243070D01*
X0076303Y0243387D02*
X0073753Y0243387D01*
X0076303Y0243387D02*
X0076303Y0235437D01*
X0073753Y0235437D01*
X0073753Y0243387D01*
X0073753Y0235886D02*
X0076303Y0235886D01*
X0076303Y0236335D02*
X0073753Y0236335D01*
X0073753Y0236784D02*
X0076303Y0236784D01*
X0076303Y0237233D02*
X0073753Y0237233D01*
X0073753Y0237682D02*
X0076303Y0237682D01*
X0076303Y0238131D02*
X0073753Y0238131D01*
X0073753Y0238580D02*
X0076303Y0238580D01*
X0076303Y0239029D02*
X0073753Y0239029D01*
X0073753Y0239478D02*
X0076303Y0239478D01*
X0076303Y0239927D02*
X0073753Y0239927D01*
X0073753Y0240376D02*
X0076303Y0240376D01*
X0076303Y0240825D02*
X0073753Y0240825D01*
X0073753Y0241274D02*
X0076303Y0241274D01*
X0076303Y0241723D02*
X0073753Y0241723D01*
X0073753Y0242172D02*
X0076303Y0242172D01*
X0076303Y0242621D02*
X0073753Y0242621D01*
X0073753Y0243070D02*
X0076303Y0243070D01*
X0071303Y0243387D02*
X0068753Y0243387D01*
X0071303Y0243387D02*
X0071303Y0235437D01*
X0068753Y0235437D01*
X0068753Y0243387D01*
X0068753Y0235886D02*
X0071303Y0235886D01*
X0071303Y0236335D02*
X0068753Y0236335D01*
X0068753Y0236784D02*
X0071303Y0236784D01*
X0071303Y0237233D02*
X0068753Y0237233D01*
X0068753Y0237682D02*
X0071303Y0237682D01*
X0071303Y0238131D02*
X0068753Y0238131D01*
X0068753Y0238580D02*
X0071303Y0238580D01*
X0071303Y0239029D02*
X0068753Y0239029D01*
X0068753Y0239478D02*
X0071303Y0239478D01*
X0071303Y0239927D02*
X0068753Y0239927D01*
X0068753Y0240376D02*
X0071303Y0240376D01*
X0071303Y0240825D02*
X0068753Y0240825D01*
X0068753Y0241274D02*
X0071303Y0241274D01*
X0071303Y0241723D02*
X0068753Y0241723D01*
X0068753Y0242172D02*
X0071303Y0242172D01*
X0071303Y0242621D02*
X0068753Y0242621D01*
X0068753Y0243070D02*
X0071303Y0243070D01*
X0066303Y0243387D02*
X0063753Y0243387D01*
X0066303Y0243387D02*
X0066303Y0235437D01*
X0063753Y0235437D01*
X0063753Y0243387D01*
X0063753Y0235886D02*
X0066303Y0235886D01*
X0066303Y0236335D02*
X0063753Y0236335D01*
X0063753Y0236784D02*
X0066303Y0236784D01*
X0066303Y0237233D02*
X0063753Y0237233D01*
X0063753Y0237682D02*
X0066303Y0237682D01*
X0066303Y0238131D02*
X0063753Y0238131D01*
X0063753Y0238580D02*
X0066303Y0238580D01*
X0066303Y0239029D02*
X0063753Y0239029D01*
X0063753Y0239478D02*
X0066303Y0239478D01*
X0066303Y0239927D02*
X0063753Y0239927D01*
X0063753Y0240376D02*
X0066303Y0240376D01*
X0066303Y0240825D02*
X0063753Y0240825D01*
X0063753Y0241274D02*
X0066303Y0241274D01*
X0066303Y0241723D02*
X0063753Y0241723D01*
X0063753Y0242172D02*
X0066303Y0242172D01*
X0066303Y0242621D02*
X0063753Y0242621D01*
X0063753Y0243070D02*
X0066303Y0243070D01*
X0061303Y0243387D02*
X0058753Y0243387D01*
X0061303Y0243387D02*
X0061303Y0235437D01*
X0058753Y0235437D01*
X0058753Y0243387D01*
X0058753Y0235886D02*
X0061303Y0235886D01*
X0061303Y0236335D02*
X0058753Y0236335D01*
X0058753Y0236784D02*
X0061303Y0236784D01*
X0061303Y0237233D02*
X0058753Y0237233D01*
X0058753Y0237682D02*
X0061303Y0237682D01*
X0061303Y0238131D02*
X0058753Y0238131D01*
X0058753Y0238580D02*
X0061303Y0238580D01*
X0061303Y0239029D02*
X0058753Y0239029D01*
X0058753Y0239478D02*
X0061303Y0239478D01*
X0061303Y0239927D02*
X0058753Y0239927D01*
X0058753Y0240376D02*
X0061303Y0240376D01*
X0061303Y0240825D02*
X0058753Y0240825D01*
X0058753Y0241274D02*
X0061303Y0241274D01*
X0061303Y0241723D02*
X0058753Y0241723D01*
X0058753Y0242172D02*
X0061303Y0242172D01*
X0061303Y0242621D02*
X0058753Y0242621D01*
X0058753Y0243070D02*
X0061303Y0243070D01*
X0061303Y0219187D02*
X0058753Y0219187D01*
X0061303Y0219187D02*
X0061303Y0211237D01*
X0058753Y0211237D01*
X0058753Y0219187D01*
X0058753Y0211686D02*
X0061303Y0211686D01*
X0061303Y0212135D02*
X0058753Y0212135D01*
X0058753Y0212584D02*
X0061303Y0212584D01*
X0061303Y0213033D02*
X0058753Y0213033D01*
X0058753Y0213482D02*
X0061303Y0213482D01*
X0061303Y0213931D02*
X0058753Y0213931D01*
X0058753Y0214380D02*
X0061303Y0214380D01*
X0061303Y0214829D02*
X0058753Y0214829D01*
X0058753Y0215278D02*
X0061303Y0215278D01*
X0061303Y0215727D02*
X0058753Y0215727D01*
X0058753Y0216176D02*
X0061303Y0216176D01*
X0061303Y0216625D02*
X0058753Y0216625D01*
X0058753Y0217074D02*
X0061303Y0217074D01*
X0061303Y0217523D02*
X0058753Y0217523D01*
X0058753Y0217972D02*
X0061303Y0217972D01*
X0061303Y0218421D02*
X0058753Y0218421D01*
X0058753Y0218870D02*
X0061303Y0218870D01*
X0063753Y0219187D02*
X0066303Y0219187D01*
X0066303Y0211237D01*
X0063753Y0211237D01*
X0063753Y0219187D01*
X0063753Y0211686D02*
X0066303Y0211686D01*
X0066303Y0212135D02*
X0063753Y0212135D01*
X0063753Y0212584D02*
X0066303Y0212584D01*
X0066303Y0213033D02*
X0063753Y0213033D01*
X0063753Y0213482D02*
X0066303Y0213482D01*
X0066303Y0213931D02*
X0063753Y0213931D01*
X0063753Y0214380D02*
X0066303Y0214380D01*
X0066303Y0214829D02*
X0063753Y0214829D01*
X0063753Y0215278D02*
X0066303Y0215278D01*
X0066303Y0215727D02*
X0063753Y0215727D01*
X0063753Y0216176D02*
X0066303Y0216176D01*
X0066303Y0216625D02*
X0063753Y0216625D01*
X0063753Y0217074D02*
X0066303Y0217074D01*
X0066303Y0217523D02*
X0063753Y0217523D01*
X0063753Y0217972D02*
X0066303Y0217972D01*
X0066303Y0218421D02*
X0063753Y0218421D01*
X0063753Y0218870D02*
X0066303Y0218870D01*
X0068753Y0219187D02*
X0071303Y0219187D01*
X0071303Y0211237D01*
X0068753Y0211237D01*
X0068753Y0219187D01*
X0068753Y0211686D02*
X0071303Y0211686D01*
X0071303Y0212135D02*
X0068753Y0212135D01*
X0068753Y0212584D02*
X0071303Y0212584D01*
X0071303Y0213033D02*
X0068753Y0213033D01*
X0068753Y0213482D02*
X0071303Y0213482D01*
X0071303Y0213931D02*
X0068753Y0213931D01*
X0068753Y0214380D02*
X0071303Y0214380D01*
X0071303Y0214829D02*
X0068753Y0214829D01*
X0068753Y0215278D02*
X0071303Y0215278D01*
X0071303Y0215727D02*
X0068753Y0215727D01*
X0068753Y0216176D02*
X0071303Y0216176D01*
X0071303Y0216625D02*
X0068753Y0216625D01*
X0068753Y0217074D02*
X0071303Y0217074D01*
X0071303Y0217523D02*
X0068753Y0217523D01*
X0068753Y0217972D02*
X0071303Y0217972D01*
X0071303Y0218421D02*
X0068753Y0218421D01*
X0068753Y0218870D02*
X0071303Y0218870D01*
X0073753Y0219187D02*
X0076303Y0219187D01*
X0076303Y0211237D01*
X0073753Y0211237D01*
X0073753Y0219187D01*
X0073753Y0211686D02*
X0076303Y0211686D01*
X0076303Y0212135D02*
X0073753Y0212135D01*
X0073753Y0212584D02*
X0076303Y0212584D01*
X0076303Y0213033D02*
X0073753Y0213033D01*
X0073753Y0213482D02*
X0076303Y0213482D01*
X0076303Y0213931D02*
X0073753Y0213931D01*
X0073753Y0214380D02*
X0076303Y0214380D01*
X0076303Y0214829D02*
X0073753Y0214829D01*
X0073753Y0215278D02*
X0076303Y0215278D01*
X0076303Y0215727D02*
X0073753Y0215727D01*
X0073753Y0216176D02*
X0076303Y0216176D01*
X0076303Y0216625D02*
X0073753Y0216625D01*
X0073753Y0217074D02*
X0076303Y0217074D01*
X0076303Y0217523D02*
X0073753Y0217523D01*
X0073753Y0217972D02*
X0076303Y0217972D01*
X0076303Y0218421D02*
X0073753Y0218421D01*
X0073753Y0218870D02*
X0076303Y0218870D01*
X0078753Y0219187D02*
X0081303Y0219187D01*
X0081303Y0211237D01*
X0078753Y0211237D01*
X0078753Y0219187D01*
X0078753Y0211686D02*
X0081303Y0211686D01*
X0081303Y0212135D02*
X0078753Y0212135D01*
X0078753Y0212584D02*
X0081303Y0212584D01*
X0081303Y0213033D02*
X0078753Y0213033D01*
X0078753Y0213482D02*
X0081303Y0213482D01*
X0081303Y0213931D02*
X0078753Y0213931D01*
X0078753Y0214380D02*
X0081303Y0214380D01*
X0081303Y0214829D02*
X0078753Y0214829D01*
X0078753Y0215278D02*
X0081303Y0215278D01*
X0081303Y0215727D02*
X0078753Y0215727D01*
X0078753Y0216176D02*
X0081303Y0216176D01*
X0081303Y0216625D02*
X0078753Y0216625D01*
X0078753Y0217074D02*
X0081303Y0217074D01*
X0081303Y0217523D02*
X0078753Y0217523D01*
X0078753Y0217972D02*
X0081303Y0217972D01*
X0081303Y0218421D02*
X0078753Y0218421D01*
X0078753Y0218870D02*
X0081303Y0218870D01*
X0083753Y0219187D02*
X0086303Y0219187D01*
X0086303Y0211237D01*
X0083753Y0211237D01*
X0083753Y0219187D01*
X0083753Y0211686D02*
X0086303Y0211686D01*
X0086303Y0212135D02*
X0083753Y0212135D01*
X0083753Y0212584D02*
X0086303Y0212584D01*
X0086303Y0213033D02*
X0083753Y0213033D01*
X0083753Y0213482D02*
X0086303Y0213482D01*
X0086303Y0213931D02*
X0083753Y0213931D01*
X0083753Y0214380D02*
X0086303Y0214380D01*
X0086303Y0214829D02*
X0083753Y0214829D01*
X0083753Y0215278D02*
X0086303Y0215278D01*
X0086303Y0215727D02*
X0083753Y0215727D01*
X0083753Y0216176D02*
X0086303Y0216176D01*
X0086303Y0216625D02*
X0083753Y0216625D01*
X0083753Y0217074D02*
X0086303Y0217074D01*
X0086303Y0217523D02*
X0083753Y0217523D01*
X0083753Y0217972D02*
X0086303Y0217972D01*
X0086303Y0218421D02*
X0083753Y0218421D01*
X0083753Y0218870D02*
X0086303Y0218870D01*
X0088753Y0219187D02*
X0091303Y0219187D01*
X0091303Y0211237D01*
X0088753Y0211237D01*
X0088753Y0219187D01*
X0088753Y0211686D02*
X0091303Y0211686D01*
X0091303Y0212135D02*
X0088753Y0212135D01*
X0088753Y0212584D02*
X0091303Y0212584D01*
X0091303Y0213033D02*
X0088753Y0213033D01*
X0088753Y0213482D02*
X0091303Y0213482D01*
X0091303Y0213931D02*
X0088753Y0213931D01*
X0088753Y0214380D02*
X0091303Y0214380D01*
X0091303Y0214829D02*
X0088753Y0214829D01*
X0088753Y0215278D02*
X0091303Y0215278D01*
X0091303Y0215727D02*
X0088753Y0215727D01*
X0088753Y0216176D02*
X0091303Y0216176D01*
X0091303Y0216625D02*
X0088753Y0216625D01*
X0088753Y0217074D02*
X0091303Y0217074D01*
X0091303Y0217523D02*
X0088753Y0217523D01*
X0088753Y0217972D02*
X0091303Y0217972D01*
X0091303Y0218421D02*
X0088753Y0218421D01*
X0088753Y0218870D02*
X0091303Y0218870D01*
D20*
X0222755Y0330918D02*
X0240215Y0330918D01*
X0222755Y0330918D02*
X0222755Y0351878D01*
X0240215Y0351878D01*
X0240215Y0330918D01*
X0240215Y0332857D02*
X0222755Y0332857D01*
X0222755Y0334796D02*
X0240215Y0334796D01*
X0240215Y0336735D02*
X0222755Y0336735D01*
X0222755Y0338674D02*
X0240215Y0338674D01*
X0240215Y0340613D02*
X0222755Y0340613D01*
X0222755Y0342552D02*
X0240215Y0342552D01*
X0240215Y0344491D02*
X0222755Y0344491D01*
X0222755Y0346430D02*
X0240215Y0346430D01*
X0240215Y0348369D02*
X0222755Y0348369D01*
X0222755Y0350308D02*
X0240215Y0350308D01*
D21*
X0134083Y0164005D03*
X0123060Y0117548D03*
X0062430Y0115973D03*
X0026997Y0059674D03*
X0042745Y0034083D03*
X0035265Y0024241D03*
X0028178Y0024241D03*
X0058099Y0012036D03*
X0138020Y0020698D03*
X0142745Y0013611D03*
X0165973Y0026209D03*
X0176209Y0026209D03*
X0181328Y0026209D03*
X0186052Y0028178D03*
X0193532Y0019123D03*
X0201406Y0014792D03*
X0210068Y0026209D03*
X0204556Y0029359D03*
X0232902Y0023454D03*
X0238808Y0011643D03*
X0213611Y0122666D03*
D22*
X0175028Y0054556D03*
X0163217Y0051406D03*
X0142745Y0064792D03*
X0132509Y0030934D03*
X0113611Y0104950D03*
X0108296Y0105737D03*
X0119910Y0122272D03*
X0120698Y0128572D03*
X0121485Y0135658D03*
X0121485Y0143532D03*
X0138808Y0134871D03*
X0140383Y0126209D03*
X0151406Y0131721D03*
X0155343Y0106524D03*
X0130934Y0109674D03*
X0075816Y0078965D03*
X0073454Y0108099D03*
X0048257Y0180540D03*
X0046682Y0193139D03*
X0047469Y0203375D03*
X0036446Y0204162D03*
X0036446Y0238808D03*
X0046682Y0260855D03*
X0052981Y0260068D03*
X0055343Y0248257D03*
X0052981Y0275816D03*
X0051406Y0286839D03*
X0045894Y0288414D03*
X0050619Y0305737D03*
X0060068Y0326209D03*
X0060855Y0334871D03*
X0069517Y0319910D03*
X0075816Y0323847D03*
X0079753Y0297863D03*
X0071091Y0291564D03*
X0085265Y0273454D03*
X0095501Y0290776D03*
X0115973Y0294713D03*
X0108099Y0263217D03*
X0096288Y0244320D03*
X0086839Y0248257D03*
X0080540Y0249044D03*
X0075816Y0252194D03*
X0078965Y0230934D03*
X0081328Y0226209D03*
X0067942Y0207312D03*
X0071879Y0198650D03*
X0097863Y0229359D03*
X0105737Y0212824D03*
X0100225Y0201800D03*
X0124635Y0234083D03*
X0130934Y0214398D03*
X0131721Y0204950D03*
X0173454Y0249831D03*
X0185265Y0248257D03*
X0181328Y0231721D03*
X0181328Y0212824D03*
X0189202Y0196288D03*
X0202587Y0196288D03*
X0201013Y0215186D03*
X0204950Y0234083D03*
X0202587Y0243532D03*
X0204950Y0250619D03*
X0198650Y0262430D03*
X0217548Y0274241D03*
X0226997Y0261643D03*
X0226997Y0248257D03*
X0227784Y0226997D03*
X0223060Y0210461D03*
X0172666Y0265580D03*
X0174241Y0294713D03*
X0159280Y0321485D03*
X0196288Y0289989D03*
X0245107Y0340383D03*
X0108887Y0347469D03*
X0012036Y0265580D03*
X0210461Y0042745D03*
X0242745Y0040383D03*
M02*
