%
M48
M72
T01C0.02362
T02C0.02400
T03C0.04000
%
T01
X75816Y78965
X73454Y108099
X108296Y105737
X113611Y104950
X119910Y122272
X120698Y128572
X121485Y135658
X121485Y143532
X138808Y134871
X140383Y126209
X151406Y131721
X155343Y106524
X130934Y109674
X142745Y64792
X163217Y51406
X175028Y54556
X210461Y42745
X242745Y40383
X132509Y30934
X48257Y180540
X46682Y193139
X47469Y203375
X36446Y204162
X36446Y238808
X46682Y260855
X52981Y260068
X55343Y248257
X52981Y275816
X51406Y286839
X45894Y288414
X50619Y305737
X60068Y326209
X60855Y334871
X69517Y319910
X75816Y323847
X79753Y297863
X71091Y291564
X85265Y273454
X95501Y290776
X115973Y294713
X108099Y263217
X96288Y244320
X86839Y248257
X80540Y249044
X75816Y252194
X78965Y230934
X81328Y226209
X67942Y207312
X71879Y198650
X97863Y229359
X105737Y212824
X100225Y201800
X124635Y234083
X130934Y214398
X131721Y204950
X173454Y249831
X185265Y248257
X181328Y231721
X181328Y212824
X189202Y196288
X202587Y196288
X201013Y215186
X204950Y234083
X202587Y243532
X204950Y250619
X198650Y262430
X217548Y274241
X226997Y261643
X226997Y248257
X227784Y226997
X223060Y210461
X172666Y265580
X174241Y294713
X159280Y321485
X196288Y289989
X245107Y340383
X108887Y347469
X12036Y265580
T02
X28178Y24241
X35265Y24241
X42745Y34083
X58099Y12036
X26997Y59674
X62430Y115973
X123060Y117548
X134083Y164005
X213611Y122666
X204556Y29359
X210068Y26209
X201406Y14792
X193532Y19123
X186052Y28178
X181328Y26209
X176209Y26209
X165973Y26209
X142745Y13611
X138020Y20698
X232902Y23454
X238808Y11643
T03
X190776Y38926
X190776Y48926
X190776Y58926
X190776Y68926
X190776Y78926
X190776Y88926
X190776Y98926
X190776Y108926
X190776Y118926
X190776Y128926
X190776Y138926
X190776Y148926
X179398Y153375
X169398Y153375
X159398Y153375
X149398Y153375
X139398Y153375
X129398Y153375
X119398Y153375
X109398Y153375
X99398Y153375
X89398Y153375
X79398Y153375
X69398Y153375
X54261Y151524
X54261Y141524
X54261Y131524
X54261Y121524
X54261Y111524
X54261Y101524
X54261Y91524
X54261Y81524
X54261Y71524
X54261Y61524
X54261Y51524
X54261Y41524
X68060Y41170
X78060Y41170
X88060Y41170
X98060Y41170
X108060Y41170
X118060Y41170
X128060Y41170
X138060Y41170
X148060Y41170
X158060Y41170
X168060Y41170
X178060Y41170
X219910Y82351
X219910Y92351
X219910Y102351
X164792Y202036
X164792Y212036
X164792Y222036
X164595Y232509
X164595Y242509
X164595Y252509
X149772Y252666
X149772Y242666
X149772Y232666
X149831Y222036
X149831Y212036
X149831Y202036
X234300Y286662
X234300Y296662
X237056Y246209
X237056Y236209
X237843Y215934
X237843Y205934
X123375Y21485
X113375Y21485
X103375Y21485
X93375Y21485
X83375Y21485
X34300Y165087
X34300Y179162
X24300Y179162
X24300Y165087
X14300Y165087
X14300Y179162
M30
