G75*
%MOIN*%
%OFA0B0*%
%FSLAX25Y25*%
%IPPOS*%
%LPD*%
%AMOC8*
5,1,8,0,0,1.08239X$1,22.5*
%
%ADD10C,0.00000*%
%ADD11C,0.01600*%
%ADD12C,0.01000*%
%ADD13C,0.00500*%
%ADD14C,0.00400*%
%ADD15C,0.00197*%
%ADD16C,0.00800*%
%ADD17C,0.00100*%
%ADD18C,0.00600*%
%ADD19C,0.00200*%
%ADD20R,0.03400X0.03000*%
%ADD21C,0.00300*%
%ADD22R,0.00591X0.01181*%
%ADD23R,0.01181X0.01181*%
D10*
X0004419Y0001800D02*
X0004419Y0261643D01*
X0154025Y0261643D01*
X0154045Y0001800D01*
X0004419Y0001800D01*
X0136114Y0041170D02*
X0136116Y0041326D01*
X0136122Y0041481D01*
X0136132Y0041637D01*
X0136146Y0041792D01*
X0136164Y0041947D01*
X0136185Y0042101D01*
X0136211Y0042255D01*
X0136241Y0042408D01*
X0136274Y0042560D01*
X0136312Y0042711D01*
X0136353Y0042861D01*
X0136398Y0043010D01*
X0136447Y0043158D01*
X0136500Y0043305D01*
X0136556Y0043450D01*
X0136616Y0043594D01*
X0136680Y0043736D01*
X0136747Y0043877D01*
X0136818Y0044015D01*
X0136893Y0044152D01*
X0136971Y0044287D01*
X0137052Y0044420D01*
X0137137Y0044551D01*
X0137225Y0044679D01*
X0137316Y0044806D01*
X0137410Y0044930D01*
X0137508Y0045051D01*
X0137609Y0045170D01*
X0137712Y0045286D01*
X0137819Y0045400D01*
X0137928Y0045511D01*
X0138041Y0045619D01*
X0138156Y0045724D01*
X0138273Y0045826D01*
X0138393Y0045925D01*
X0138516Y0046021D01*
X0138641Y0046114D01*
X0138769Y0046204D01*
X0138898Y0046290D01*
X0139030Y0046373D01*
X0139164Y0046453D01*
X0139300Y0046529D01*
X0139438Y0046602D01*
X0139577Y0046671D01*
X0139719Y0046736D01*
X0139862Y0046798D01*
X0140006Y0046856D01*
X0140152Y0046911D01*
X0140299Y0046962D01*
X0140448Y0047009D01*
X0140598Y0047052D01*
X0140748Y0047091D01*
X0140900Y0047127D01*
X0141053Y0047158D01*
X0141206Y0047186D01*
X0141360Y0047210D01*
X0141514Y0047230D01*
X0141669Y0047246D01*
X0141825Y0047258D01*
X0141980Y0047266D01*
X0142136Y0047270D01*
X0142292Y0047270D01*
X0142448Y0047266D01*
X0142603Y0047258D01*
X0142759Y0047246D01*
X0142914Y0047230D01*
X0143068Y0047210D01*
X0143222Y0047186D01*
X0143375Y0047158D01*
X0143528Y0047127D01*
X0143680Y0047091D01*
X0143830Y0047052D01*
X0143980Y0047009D01*
X0144129Y0046962D01*
X0144276Y0046911D01*
X0144422Y0046856D01*
X0144566Y0046798D01*
X0144709Y0046736D01*
X0144851Y0046671D01*
X0144990Y0046602D01*
X0145128Y0046529D01*
X0145264Y0046453D01*
X0145398Y0046373D01*
X0145530Y0046290D01*
X0145659Y0046204D01*
X0145787Y0046114D01*
X0145912Y0046021D01*
X0146035Y0045925D01*
X0146155Y0045826D01*
X0146272Y0045724D01*
X0146387Y0045619D01*
X0146500Y0045511D01*
X0146609Y0045400D01*
X0146716Y0045286D01*
X0146819Y0045170D01*
X0146920Y0045051D01*
X0147018Y0044930D01*
X0147112Y0044806D01*
X0147203Y0044679D01*
X0147291Y0044551D01*
X0147376Y0044420D01*
X0147457Y0044287D01*
X0147535Y0044152D01*
X0147610Y0044015D01*
X0147681Y0043877D01*
X0147748Y0043736D01*
X0147812Y0043594D01*
X0147872Y0043450D01*
X0147928Y0043305D01*
X0147981Y0043158D01*
X0148030Y0043010D01*
X0148075Y0042861D01*
X0148116Y0042711D01*
X0148154Y0042560D01*
X0148187Y0042408D01*
X0148217Y0042255D01*
X0148243Y0042101D01*
X0148264Y0041947D01*
X0148282Y0041792D01*
X0148296Y0041637D01*
X0148306Y0041481D01*
X0148312Y0041326D01*
X0148314Y0041170D01*
X0148312Y0041014D01*
X0148306Y0040859D01*
X0148296Y0040703D01*
X0148282Y0040548D01*
X0148264Y0040393D01*
X0148243Y0040239D01*
X0148217Y0040085D01*
X0148187Y0039932D01*
X0148154Y0039780D01*
X0148116Y0039629D01*
X0148075Y0039479D01*
X0148030Y0039330D01*
X0147981Y0039182D01*
X0147928Y0039035D01*
X0147872Y0038890D01*
X0147812Y0038746D01*
X0147748Y0038604D01*
X0147681Y0038463D01*
X0147610Y0038325D01*
X0147535Y0038188D01*
X0147457Y0038053D01*
X0147376Y0037920D01*
X0147291Y0037789D01*
X0147203Y0037661D01*
X0147112Y0037534D01*
X0147018Y0037410D01*
X0146920Y0037289D01*
X0146819Y0037170D01*
X0146716Y0037054D01*
X0146609Y0036940D01*
X0146500Y0036829D01*
X0146387Y0036721D01*
X0146272Y0036616D01*
X0146155Y0036514D01*
X0146035Y0036415D01*
X0145912Y0036319D01*
X0145787Y0036226D01*
X0145659Y0036136D01*
X0145530Y0036050D01*
X0145398Y0035967D01*
X0145264Y0035887D01*
X0145128Y0035811D01*
X0144990Y0035738D01*
X0144851Y0035669D01*
X0144709Y0035604D01*
X0144566Y0035542D01*
X0144422Y0035484D01*
X0144276Y0035429D01*
X0144129Y0035378D01*
X0143980Y0035331D01*
X0143830Y0035288D01*
X0143680Y0035249D01*
X0143528Y0035213D01*
X0143375Y0035182D01*
X0143222Y0035154D01*
X0143068Y0035130D01*
X0142914Y0035110D01*
X0142759Y0035094D01*
X0142603Y0035082D01*
X0142448Y0035074D01*
X0142292Y0035070D01*
X0142136Y0035070D01*
X0141980Y0035074D01*
X0141825Y0035082D01*
X0141669Y0035094D01*
X0141514Y0035110D01*
X0141360Y0035130D01*
X0141206Y0035154D01*
X0141053Y0035182D01*
X0140900Y0035213D01*
X0140748Y0035249D01*
X0140598Y0035288D01*
X0140448Y0035331D01*
X0140299Y0035378D01*
X0140152Y0035429D01*
X0140006Y0035484D01*
X0139862Y0035542D01*
X0139719Y0035604D01*
X0139577Y0035669D01*
X0139438Y0035738D01*
X0139300Y0035811D01*
X0139164Y0035887D01*
X0139030Y0035967D01*
X0138898Y0036050D01*
X0138769Y0036136D01*
X0138641Y0036226D01*
X0138516Y0036319D01*
X0138393Y0036415D01*
X0138273Y0036514D01*
X0138156Y0036616D01*
X0138041Y0036721D01*
X0137928Y0036829D01*
X0137819Y0036940D01*
X0137712Y0037054D01*
X0137609Y0037170D01*
X0137508Y0037289D01*
X0137410Y0037410D01*
X0137316Y0037534D01*
X0137225Y0037661D01*
X0137137Y0037789D01*
X0137052Y0037920D01*
X0136971Y0038053D01*
X0136893Y0038188D01*
X0136818Y0038325D01*
X0136747Y0038463D01*
X0136680Y0038604D01*
X0136616Y0038746D01*
X0136556Y0038890D01*
X0136500Y0039035D01*
X0136447Y0039182D01*
X0136398Y0039330D01*
X0136353Y0039479D01*
X0136312Y0039629D01*
X0136274Y0039780D01*
X0136241Y0039932D01*
X0136211Y0040085D01*
X0136185Y0040239D01*
X0136164Y0040393D01*
X0136146Y0040548D01*
X0136132Y0040703D01*
X0136122Y0040859D01*
X0136116Y0041014D01*
X0136114Y0041170D01*
X0136114Y0119910D02*
X0136116Y0120066D01*
X0136122Y0120221D01*
X0136132Y0120377D01*
X0136146Y0120532D01*
X0136164Y0120687D01*
X0136185Y0120841D01*
X0136211Y0120995D01*
X0136241Y0121148D01*
X0136274Y0121300D01*
X0136312Y0121451D01*
X0136353Y0121601D01*
X0136398Y0121750D01*
X0136447Y0121898D01*
X0136500Y0122045D01*
X0136556Y0122190D01*
X0136616Y0122334D01*
X0136680Y0122476D01*
X0136747Y0122617D01*
X0136818Y0122755D01*
X0136893Y0122892D01*
X0136971Y0123027D01*
X0137052Y0123160D01*
X0137137Y0123291D01*
X0137225Y0123419D01*
X0137316Y0123546D01*
X0137410Y0123670D01*
X0137508Y0123791D01*
X0137609Y0123910D01*
X0137712Y0124026D01*
X0137819Y0124140D01*
X0137928Y0124251D01*
X0138041Y0124359D01*
X0138156Y0124464D01*
X0138273Y0124566D01*
X0138393Y0124665D01*
X0138516Y0124761D01*
X0138641Y0124854D01*
X0138769Y0124944D01*
X0138898Y0125030D01*
X0139030Y0125113D01*
X0139164Y0125193D01*
X0139300Y0125269D01*
X0139438Y0125342D01*
X0139577Y0125411D01*
X0139719Y0125476D01*
X0139862Y0125538D01*
X0140006Y0125596D01*
X0140152Y0125651D01*
X0140299Y0125702D01*
X0140448Y0125749D01*
X0140598Y0125792D01*
X0140748Y0125831D01*
X0140900Y0125867D01*
X0141053Y0125898D01*
X0141206Y0125926D01*
X0141360Y0125950D01*
X0141514Y0125970D01*
X0141669Y0125986D01*
X0141825Y0125998D01*
X0141980Y0126006D01*
X0142136Y0126010D01*
X0142292Y0126010D01*
X0142448Y0126006D01*
X0142603Y0125998D01*
X0142759Y0125986D01*
X0142914Y0125970D01*
X0143068Y0125950D01*
X0143222Y0125926D01*
X0143375Y0125898D01*
X0143528Y0125867D01*
X0143680Y0125831D01*
X0143830Y0125792D01*
X0143980Y0125749D01*
X0144129Y0125702D01*
X0144276Y0125651D01*
X0144422Y0125596D01*
X0144566Y0125538D01*
X0144709Y0125476D01*
X0144851Y0125411D01*
X0144990Y0125342D01*
X0145128Y0125269D01*
X0145264Y0125193D01*
X0145398Y0125113D01*
X0145530Y0125030D01*
X0145659Y0124944D01*
X0145787Y0124854D01*
X0145912Y0124761D01*
X0146035Y0124665D01*
X0146155Y0124566D01*
X0146272Y0124464D01*
X0146387Y0124359D01*
X0146500Y0124251D01*
X0146609Y0124140D01*
X0146716Y0124026D01*
X0146819Y0123910D01*
X0146920Y0123791D01*
X0147018Y0123670D01*
X0147112Y0123546D01*
X0147203Y0123419D01*
X0147291Y0123291D01*
X0147376Y0123160D01*
X0147457Y0123027D01*
X0147535Y0122892D01*
X0147610Y0122755D01*
X0147681Y0122617D01*
X0147748Y0122476D01*
X0147812Y0122334D01*
X0147872Y0122190D01*
X0147928Y0122045D01*
X0147981Y0121898D01*
X0148030Y0121750D01*
X0148075Y0121601D01*
X0148116Y0121451D01*
X0148154Y0121300D01*
X0148187Y0121148D01*
X0148217Y0120995D01*
X0148243Y0120841D01*
X0148264Y0120687D01*
X0148282Y0120532D01*
X0148296Y0120377D01*
X0148306Y0120221D01*
X0148312Y0120066D01*
X0148314Y0119910D01*
X0148312Y0119754D01*
X0148306Y0119599D01*
X0148296Y0119443D01*
X0148282Y0119288D01*
X0148264Y0119133D01*
X0148243Y0118979D01*
X0148217Y0118825D01*
X0148187Y0118672D01*
X0148154Y0118520D01*
X0148116Y0118369D01*
X0148075Y0118219D01*
X0148030Y0118070D01*
X0147981Y0117922D01*
X0147928Y0117775D01*
X0147872Y0117630D01*
X0147812Y0117486D01*
X0147748Y0117344D01*
X0147681Y0117203D01*
X0147610Y0117065D01*
X0147535Y0116928D01*
X0147457Y0116793D01*
X0147376Y0116660D01*
X0147291Y0116529D01*
X0147203Y0116401D01*
X0147112Y0116274D01*
X0147018Y0116150D01*
X0146920Y0116029D01*
X0146819Y0115910D01*
X0146716Y0115794D01*
X0146609Y0115680D01*
X0146500Y0115569D01*
X0146387Y0115461D01*
X0146272Y0115356D01*
X0146155Y0115254D01*
X0146035Y0115155D01*
X0145912Y0115059D01*
X0145787Y0114966D01*
X0145659Y0114876D01*
X0145530Y0114790D01*
X0145398Y0114707D01*
X0145264Y0114627D01*
X0145128Y0114551D01*
X0144990Y0114478D01*
X0144851Y0114409D01*
X0144709Y0114344D01*
X0144566Y0114282D01*
X0144422Y0114224D01*
X0144276Y0114169D01*
X0144129Y0114118D01*
X0143980Y0114071D01*
X0143830Y0114028D01*
X0143680Y0113989D01*
X0143528Y0113953D01*
X0143375Y0113922D01*
X0143222Y0113894D01*
X0143068Y0113870D01*
X0142914Y0113850D01*
X0142759Y0113834D01*
X0142603Y0113822D01*
X0142448Y0113814D01*
X0142292Y0113810D01*
X0142136Y0113810D01*
X0141980Y0113814D01*
X0141825Y0113822D01*
X0141669Y0113834D01*
X0141514Y0113850D01*
X0141360Y0113870D01*
X0141206Y0113894D01*
X0141053Y0113922D01*
X0140900Y0113953D01*
X0140748Y0113989D01*
X0140598Y0114028D01*
X0140448Y0114071D01*
X0140299Y0114118D01*
X0140152Y0114169D01*
X0140006Y0114224D01*
X0139862Y0114282D01*
X0139719Y0114344D01*
X0139577Y0114409D01*
X0139438Y0114478D01*
X0139300Y0114551D01*
X0139164Y0114627D01*
X0139030Y0114707D01*
X0138898Y0114790D01*
X0138769Y0114876D01*
X0138641Y0114966D01*
X0138516Y0115059D01*
X0138393Y0115155D01*
X0138273Y0115254D01*
X0138156Y0115356D01*
X0138041Y0115461D01*
X0137928Y0115569D01*
X0137819Y0115680D01*
X0137712Y0115794D01*
X0137609Y0115910D01*
X0137508Y0116029D01*
X0137410Y0116150D01*
X0137316Y0116274D01*
X0137225Y0116401D01*
X0137137Y0116529D01*
X0137052Y0116660D01*
X0136971Y0116793D01*
X0136893Y0116928D01*
X0136818Y0117065D01*
X0136747Y0117203D01*
X0136680Y0117344D01*
X0136616Y0117486D01*
X0136556Y0117630D01*
X0136500Y0117775D01*
X0136447Y0117922D01*
X0136398Y0118070D01*
X0136353Y0118219D01*
X0136312Y0118369D01*
X0136274Y0118520D01*
X0136241Y0118672D01*
X0136211Y0118825D01*
X0136185Y0118979D01*
X0136164Y0119133D01*
X0136146Y0119288D01*
X0136132Y0119443D01*
X0136122Y0119599D01*
X0136116Y0119754D01*
X0136114Y0119910D01*
D11*
X0110718Y0080540D02*
X0102844Y0080540D01*
X0106781Y0076603D02*
X0106781Y0084477D01*
X0130403Y0025422D02*
X0154025Y0025422D01*
X0130403Y0025422D02*
X0130403Y0001800D01*
D12*
X0154025Y0001800D01*
X0154025Y0025422D01*
X0154025Y0139595D01*
D13*
X0118464Y0080540D02*
X0118471Y0081123D01*
X0118493Y0081705D01*
X0118528Y0082287D01*
X0118578Y0082868D01*
X0118643Y0083447D01*
X0118721Y0084025D01*
X0118814Y0084600D01*
X0118920Y0085173D01*
X0119041Y0085744D01*
X0119176Y0086311D01*
X0119324Y0086874D01*
X0119487Y0087434D01*
X0119663Y0087990D01*
X0119852Y0088541D01*
X0120055Y0089088D01*
X0120272Y0089629D01*
X0120502Y0090164D01*
X0120744Y0090694D01*
X0121000Y0091218D01*
X0121268Y0091736D01*
X0121549Y0092246D01*
X0121843Y0092750D01*
X0122149Y0093246D01*
X0122467Y0093735D01*
X0122796Y0094215D01*
X0123138Y0094688D01*
X0123491Y0095152D01*
X0123855Y0095607D01*
X0124230Y0096053D01*
X0124616Y0096490D01*
X0125013Y0096917D01*
X0125420Y0097334D01*
X0125837Y0097741D01*
X0126264Y0098138D01*
X0126701Y0098524D01*
X0127147Y0098899D01*
X0127602Y0099263D01*
X0128066Y0099616D01*
X0128539Y0099958D01*
X0129019Y0100287D01*
X0129508Y0100605D01*
X0130004Y0100911D01*
X0130508Y0101205D01*
X0131018Y0101486D01*
X0131536Y0101754D01*
X0132060Y0102010D01*
X0132590Y0102252D01*
X0133125Y0102482D01*
X0133666Y0102699D01*
X0134213Y0102902D01*
X0134764Y0103091D01*
X0135320Y0103267D01*
X0135880Y0103430D01*
X0136443Y0103578D01*
X0137010Y0103713D01*
X0137581Y0103834D01*
X0138154Y0103940D01*
X0138729Y0104033D01*
X0139307Y0104111D01*
X0139886Y0104176D01*
X0140467Y0104226D01*
X0141049Y0104261D01*
X0141631Y0104283D01*
X0142214Y0104290D01*
X0142797Y0104283D01*
X0143379Y0104261D01*
X0143961Y0104226D01*
X0144542Y0104176D01*
X0145121Y0104111D01*
X0145699Y0104033D01*
X0146274Y0103940D01*
X0146847Y0103834D01*
X0147418Y0103713D01*
X0147985Y0103578D01*
X0148548Y0103430D01*
X0149108Y0103267D01*
X0149664Y0103091D01*
X0150215Y0102902D01*
X0150762Y0102699D01*
X0151303Y0102482D01*
X0151838Y0102252D01*
X0152368Y0102010D01*
X0152892Y0101754D01*
X0153410Y0101486D01*
X0153920Y0101205D01*
X0154424Y0100911D01*
X0154920Y0100605D01*
X0155409Y0100287D01*
X0155889Y0099958D01*
X0156362Y0099616D01*
X0156826Y0099263D01*
X0157281Y0098899D01*
X0157727Y0098524D01*
X0158164Y0098138D01*
X0158591Y0097741D01*
X0159008Y0097334D01*
X0159415Y0096917D01*
X0159812Y0096490D01*
X0160198Y0096053D01*
X0160573Y0095607D01*
X0160937Y0095152D01*
X0161290Y0094688D01*
X0161632Y0094215D01*
X0161961Y0093735D01*
X0162279Y0093246D01*
X0162585Y0092750D01*
X0162879Y0092246D01*
X0163160Y0091736D01*
X0163428Y0091218D01*
X0163684Y0090694D01*
X0163926Y0090164D01*
X0164156Y0089629D01*
X0164373Y0089088D01*
X0164576Y0088541D01*
X0164765Y0087990D01*
X0164941Y0087434D01*
X0165104Y0086874D01*
X0165252Y0086311D01*
X0165387Y0085744D01*
X0165508Y0085173D01*
X0165614Y0084600D01*
X0165707Y0084025D01*
X0165785Y0083447D01*
X0165850Y0082868D01*
X0165900Y0082287D01*
X0165935Y0081705D01*
X0165957Y0081123D01*
X0165964Y0080540D01*
X0165957Y0079957D01*
X0165935Y0079375D01*
X0165900Y0078793D01*
X0165850Y0078212D01*
X0165785Y0077633D01*
X0165707Y0077055D01*
X0165614Y0076480D01*
X0165508Y0075907D01*
X0165387Y0075336D01*
X0165252Y0074769D01*
X0165104Y0074206D01*
X0164941Y0073646D01*
X0164765Y0073090D01*
X0164576Y0072539D01*
X0164373Y0071992D01*
X0164156Y0071451D01*
X0163926Y0070916D01*
X0163684Y0070386D01*
X0163428Y0069862D01*
X0163160Y0069344D01*
X0162879Y0068834D01*
X0162585Y0068330D01*
X0162279Y0067834D01*
X0161961Y0067345D01*
X0161632Y0066865D01*
X0161290Y0066392D01*
X0160937Y0065928D01*
X0160573Y0065473D01*
X0160198Y0065027D01*
X0159812Y0064590D01*
X0159415Y0064163D01*
X0159008Y0063746D01*
X0158591Y0063339D01*
X0158164Y0062942D01*
X0157727Y0062556D01*
X0157281Y0062181D01*
X0156826Y0061817D01*
X0156362Y0061464D01*
X0155889Y0061122D01*
X0155409Y0060793D01*
X0154920Y0060475D01*
X0154424Y0060169D01*
X0153920Y0059875D01*
X0153410Y0059594D01*
X0152892Y0059326D01*
X0152368Y0059070D01*
X0151838Y0058828D01*
X0151303Y0058598D01*
X0150762Y0058381D01*
X0150215Y0058178D01*
X0149664Y0057989D01*
X0149108Y0057813D01*
X0148548Y0057650D01*
X0147985Y0057502D01*
X0147418Y0057367D01*
X0146847Y0057246D01*
X0146274Y0057140D01*
X0145699Y0057047D01*
X0145121Y0056969D01*
X0144542Y0056904D01*
X0143961Y0056854D01*
X0143379Y0056819D01*
X0142797Y0056797D01*
X0142214Y0056790D01*
X0141631Y0056797D01*
X0141049Y0056819D01*
X0140467Y0056854D01*
X0139886Y0056904D01*
X0139307Y0056969D01*
X0138729Y0057047D01*
X0138154Y0057140D01*
X0137581Y0057246D01*
X0137010Y0057367D01*
X0136443Y0057502D01*
X0135880Y0057650D01*
X0135320Y0057813D01*
X0134764Y0057989D01*
X0134213Y0058178D01*
X0133666Y0058381D01*
X0133125Y0058598D01*
X0132590Y0058828D01*
X0132060Y0059070D01*
X0131536Y0059326D01*
X0131018Y0059594D01*
X0130508Y0059875D01*
X0130004Y0060169D01*
X0129508Y0060475D01*
X0129019Y0060793D01*
X0128539Y0061122D01*
X0128066Y0061464D01*
X0127602Y0061817D01*
X0127147Y0062181D01*
X0126701Y0062556D01*
X0126264Y0062942D01*
X0125837Y0063339D01*
X0125420Y0063746D01*
X0125013Y0064163D01*
X0124616Y0064590D01*
X0124230Y0065027D01*
X0123855Y0065473D01*
X0123491Y0065928D01*
X0123138Y0066392D01*
X0122796Y0066865D01*
X0122467Y0067345D01*
X0122149Y0067834D01*
X0121843Y0068330D01*
X0121549Y0068834D01*
X0121268Y0069344D01*
X0121000Y0069862D01*
X0120744Y0070386D01*
X0120502Y0070916D01*
X0120272Y0071451D01*
X0120055Y0071992D01*
X0119852Y0072539D01*
X0119663Y0073090D01*
X0119487Y0073646D01*
X0119324Y0074206D01*
X0119176Y0074769D01*
X0119041Y0075336D01*
X0118920Y0075907D01*
X0118814Y0076480D01*
X0118721Y0077055D01*
X0118643Y0077633D01*
X0118578Y0078212D01*
X0118528Y0078793D01*
X0118493Y0079375D01*
X0118471Y0079957D01*
X0118464Y0080540D01*
X0131190Y0080540D02*
X0131193Y0080811D01*
X0131203Y0081081D01*
X0131220Y0081351D01*
X0131243Y0081621D01*
X0131273Y0081889D01*
X0131309Y0082158D01*
X0131352Y0082425D01*
X0131402Y0082691D01*
X0131458Y0082955D01*
X0131520Y0083219D01*
X0131589Y0083480D01*
X0131665Y0083740D01*
X0131746Y0083998D01*
X0131834Y0084254D01*
X0131929Y0084507D01*
X0132029Y0084759D01*
X0132136Y0085007D01*
X0132248Y0085253D01*
X0132367Y0085497D01*
X0132492Y0085737D01*
X0132622Y0085974D01*
X0132758Y0086207D01*
X0132900Y0086438D01*
X0133048Y0086665D01*
X0133201Y0086888D01*
X0133359Y0087107D01*
X0133523Y0087322D01*
X0133692Y0087534D01*
X0133867Y0087741D01*
X0134046Y0087943D01*
X0134230Y0088141D01*
X0134419Y0088335D01*
X0134613Y0088524D01*
X0134811Y0088708D01*
X0135013Y0088887D01*
X0135220Y0089062D01*
X0135432Y0089231D01*
X0135647Y0089395D01*
X0135866Y0089553D01*
X0136089Y0089706D01*
X0136316Y0089854D01*
X0136547Y0089996D01*
X0136780Y0090132D01*
X0137017Y0090262D01*
X0137257Y0090387D01*
X0137501Y0090506D01*
X0137747Y0090618D01*
X0137995Y0090725D01*
X0138247Y0090825D01*
X0138500Y0090920D01*
X0138756Y0091008D01*
X0139014Y0091089D01*
X0139274Y0091165D01*
X0139535Y0091234D01*
X0139799Y0091296D01*
X0140063Y0091352D01*
X0140329Y0091402D01*
X0140596Y0091445D01*
X0140865Y0091481D01*
X0141133Y0091511D01*
X0141403Y0091534D01*
X0141673Y0091551D01*
X0141943Y0091561D01*
X0142214Y0091564D01*
X0142485Y0091561D01*
X0142755Y0091551D01*
X0143025Y0091534D01*
X0143295Y0091511D01*
X0143563Y0091481D01*
X0143832Y0091445D01*
X0144099Y0091402D01*
X0144365Y0091352D01*
X0144629Y0091296D01*
X0144893Y0091234D01*
X0145154Y0091165D01*
X0145414Y0091089D01*
X0145672Y0091008D01*
X0145928Y0090920D01*
X0146181Y0090825D01*
X0146433Y0090725D01*
X0146681Y0090618D01*
X0146927Y0090506D01*
X0147171Y0090387D01*
X0147411Y0090262D01*
X0147648Y0090132D01*
X0147881Y0089996D01*
X0148112Y0089854D01*
X0148339Y0089706D01*
X0148562Y0089553D01*
X0148781Y0089395D01*
X0148996Y0089231D01*
X0149208Y0089062D01*
X0149415Y0088887D01*
X0149617Y0088708D01*
X0149815Y0088524D01*
X0150009Y0088335D01*
X0150198Y0088141D01*
X0150382Y0087943D01*
X0150561Y0087741D01*
X0150736Y0087534D01*
X0150905Y0087322D01*
X0151069Y0087107D01*
X0151227Y0086888D01*
X0151380Y0086665D01*
X0151528Y0086438D01*
X0151670Y0086207D01*
X0151806Y0085974D01*
X0151936Y0085737D01*
X0152061Y0085497D01*
X0152180Y0085253D01*
X0152292Y0085007D01*
X0152399Y0084759D01*
X0152499Y0084507D01*
X0152594Y0084254D01*
X0152682Y0083998D01*
X0152763Y0083740D01*
X0152839Y0083480D01*
X0152908Y0083219D01*
X0152970Y0082955D01*
X0153026Y0082691D01*
X0153076Y0082425D01*
X0153119Y0082158D01*
X0153155Y0081889D01*
X0153185Y0081621D01*
X0153208Y0081351D01*
X0153225Y0081081D01*
X0153235Y0080811D01*
X0153238Y0080540D01*
X0153235Y0080269D01*
X0153225Y0079999D01*
X0153208Y0079729D01*
X0153185Y0079459D01*
X0153155Y0079191D01*
X0153119Y0078922D01*
X0153076Y0078655D01*
X0153026Y0078389D01*
X0152970Y0078125D01*
X0152908Y0077861D01*
X0152839Y0077600D01*
X0152763Y0077340D01*
X0152682Y0077082D01*
X0152594Y0076826D01*
X0152499Y0076573D01*
X0152399Y0076321D01*
X0152292Y0076073D01*
X0152180Y0075827D01*
X0152061Y0075583D01*
X0151936Y0075343D01*
X0151806Y0075106D01*
X0151670Y0074873D01*
X0151528Y0074642D01*
X0151380Y0074415D01*
X0151227Y0074192D01*
X0151069Y0073973D01*
X0150905Y0073758D01*
X0150736Y0073546D01*
X0150561Y0073339D01*
X0150382Y0073137D01*
X0150198Y0072939D01*
X0150009Y0072745D01*
X0149815Y0072556D01*
X0149617Y0072372D01*
X0149415Y0072193D01*
X0149208Y0072018D01*
X0148996Y0071849D01*
X0148781Y0071685D01*
X0148562Y0071527D01*
X0148339Y0071374D01*
X0148112Y0071226D01*
X0147881Y0071084D01*
X0147648Y0070948D01*
X0147411Y0070818D01*
X0147171Y0070693D01*
X0146927Y0070574D01*
X0146681Y0070462D01*
X0146433Y0070355D01*
X0146181Y0070255D01*
X0145928Y0070160D01*
X0145672Y0070072D01*
X0145414Y0069991D01*
X0145154Y0069915D01*
X0144893Y0069846D01*
X0144629Y0069784D01*
X0144365Y0069728D01*
X0144099Y0069678D01*
X0143832Y0069635D01*
X0143563Y0069599D01*
X0143295Y0069569D01*
X0143025Y0069546D01*
X0142755Y0069529D01*
X0142485Y0069519D01*
X0142214Y0069516D01*
X0141943Y0069519D01*
X0141673Y0069529D01*
X0141403Y0069546D01*
X0141133Y0069569D01*
X0140865Y0069599D01*
X0140596Y0069635D01*
X0140329Y0069678D01*
X0140063Y0069728D01*
X0139799Y0069784D01*
X0139535Y0069846D01*
X0139274Y0069915D01*
X0139014Y0069991D01*
X0138756Y0070072D01*
X0138500Y0070160D01*
X0138247Y0070255D01*
X0137995Y0070355D01*
X0137747Y0070462D01*
X0137501Y0070574D01*
X0137257Y0070693D01*
X0137017Y0070818D01*
X0136780Y0070948D01*
X0136547Y0071084D01*
X0136316Y0071226D01*
X0136089Y0071374D01*
X0135866Y0071527D01*
X0135647Y0071685D01*
X0135432Y0071849D01*
X0135220Y0072018D01*
X0135013Y0072193D01*
X0134811Y0072372D01*
X0134613Y0072556D01*
X0134419Y0072745D01*
X0134230Y0072939D01*
X0134046Y0073137D01*
X0133867Y0073339D01*
X0133692Y0073546D01*
X0133523Y0073758D01*
X0133359Y0073973D01*
X0133201Y0074192D01*
X0133048Y0074415D01*
X0132900Y0074642D01*
X0132758Y0074873D01*
X0132622Y0075106D01*
X0132492Y0075343D01*
X0132367Y0075583D01*
X0132248Y0075827D01*
X0132136Y0076073D01*
X0132029Y0076321D01*
X0131929Y0076573D01*
X0131834Y0076826D01*
X0131746Y0077082D01*
X0131665Y0077340D01*
X0131589Y0077600D01*
X0131520Y0077861D01*
X0131458Y0078125D01*
X0131402Y0078389D01*
X0131352Y0078655D01*
X0131309Y0078922D01*
X0131273Y0079191D01*
X0131243Y0079459D01*
X0131220Y0079729D01*
X0131203Y0079999D01*
X0131193Y0080269D01*
X0131190Y0080540D01*
X0138277Y0080540D02*
X0138279Y0080665D01*
X0138285Y0080790D01*
X0138295Y0080914D01*
X0138309Y0081038D01*
X0138326Y0081162D01*
X0138348Y0081285D01*
X0138374Y0081407D01*
X0138403Y0081529D01*
X0138436Y0081649D01*
X0138474Y0081768D01*
X0138514Y0081887D01*
X0138559Y0082003D01*
X0138607Y0082118D01*
X0138659Y0082232D01*
X0138715Y0082344D01*
X0138774Y0082454D01*
X0138836Y0082562D01*
X0138902Y0082669D01*
X0138971Y0082773D01*
X0139044Y0082874D01*
X0139119Y0082974D01*
X0139198Y0083071D01*
X0139280Y0083165D01*
X0139365Y0083257D01*
X0139452Y0083346D01*
X0139543Y0083432D01*
X0139636Y0083515D01*
X0139732Y0083596D01*
X0139830Y0083673D01*
X0139930Y0083747D01*
X0140033Y0083818D01*
X0140138Y0083885D01*
X0140246Y0083950D01*
X0140355Y0084010D01*
X0140466Y0084068D01*
X0140579Y0084121D01*
X0140693Y0084171D01*
X0140809Y0084218D01*
X0140926Y0084260D01*
X0141045Y0084299D01*
X0141165Y0084335D01*
X0141286Y0084366D01*
X0141408Y0084394D01*
X0141530Y0084417D01*
X0141654Y0084437D01*
X0141778Y0084453D01*
X0141902Y0084465D01*
X0142027Y0084473D01*
X0142152Y0084477D01*
X0142276Y0084477D01*
X0142401Y0084473D01*
X0142526Y0084465D01*
X0142650Y0084453D01*
X0142774Y0084437D01*
X0142898Y0084417D01*
X0143020Y0084394D01*
X0143142Y0084366D01*
X0143263Y0084335D01*
X0143383Y0084299D01*
X0143502Y0084260D01*
X0143619Y0084218D01*
X0143735Y0084171D01*
X0143849Y0084121D01*
X0143962Y0084068D01*
X0144073Y0084010D01*
X0144183Y0083950D01*
X0144290Y0083885D01*
X0144395Y0083818D01*
X0144498Y0083747D01*
X0144598Y0083673D01*
X0144696Y0083596D01*
X0144792Y0083515D01*
X0144885Y0083432D01*
X0144976Y0083346D01*
X0145063Y0083257D01*
X0145148Y0083165D01*
X0145230Y0083071D01*
X0145309Y0082974D01*
X0145384Y0082874D01*
X0145457Y0082773D01*
X0145526Y0082669D01*
X0145592Y0082562D01*
X0145654Y0082454D01*
X0145713Y0082344D01*
X0145769Y0082232D01*
X0145821Y0082118D01*
X0145869Y0082003D01*
X0145914Y0081887D01*
X0145954Y0081768D01*
X0145992Y0081649D01*
X0146025Y0081529D01*
X0146054Y0081407D01*
X0146080Y0081285D01*
X0146102Y0081162D01*
X0146119Y0081038D01*
X0146133Y0080914D01*
X0146143Y0080790D01*
X0146149Y0080665D01*
X0146151Y0080540D01*
X0146149Y0080415D01*
X0146143Y0080290D01*
X0146133Y0080166D01*
X0146119Y0080042D01*
X0146102Y0079918D01*
X0146080Y0079795D01*
X0146054Y0079673D01*
X0146025Y0079551D01*
X0145992Y0079431D01*
X0145954Y0079312D01*
X0145914Y0079193D01*
X0145869Y0079077D01*
X0145821Y0078962D01*
X0145769Y0078848D01*
X0145713Y0078736D01*
X0145654Y0078626D01*
X0145592Y0078518D01*
X0145526Y0078411D01*
X0145457Y0078307D01*
X0145384Y0078206D01*
X0145309Y0078106D01*
X0145230Y0078009D01*
X0145148Y0077915D01*
X0145063Y0077823D01*
X0144976Y0077734D01*
X0144885Y0077648D01*
X0144792Y0077565D01*
X0144696Y0077484D01*
X0144598Y0077407D01*
X0144498Y0077333D01*
X0144395Y0077262D01*
X0144290Y0077195D01*
X0144182Y0077130D01*
X0144073Y0077070D01*
X0143962Y0077012D01*
X0143849Y0076959D01*
X0143735Y0076909D01*
X0143619Y0076862D01*
X0143502Y0076820D01*
X0143383Y0076781D01*
X0143263Y0076745D01*
X0143142Y0076714D01*
X0143020Y0076686D01*
X0142898Y0076663D01*
X0142774Y0076643D01*
X0142650Y0076627D01*
X0142526Y0076615D01*
X0142401Y0076607D01*
X0142276Y0076603D01*
X0142152Y0076603D01*
X0142027Y0076607D01*
X0141902Y0076615D01*
X0141778Y0076627D01*
X0141654Y0076643D01*
X0141530Y0076663D01*
X0141408Y0076686D01*
X0141286Y0076714D01*
X0141165Y0076745D01*
X0141045Y0076781D01*
X0140926Y0076820D01*
X0140809Y0076862D01*
X0140693Y0076909D01*
X0140579Y0076959D01*
X0140466Y0077012D01*
X0140355Y0077070D01*
X0140245Y0077130D01*
X0140138Y0077195D01*
X0140033Y0077262D01*
X0139930Y0077333D01*
X0139830Y0077407D01*
X0139732Y0077484D01*
X0139636Y0077565D01*
X0139543Y0077648D01*
X0139452Y0077734D01*
X0139365Y0077823D01*
X0139280Y0077915D01*
X0139198Y0078009D01*
X0139119Y0078106D01*
X0139044Y0078206D01*
X0138971Y0078307D01*
X0138902Y0078411D01*
X0138836Y0078518D01*
X0138774Y0078626D01*
X0138715Y0078736D01*
X0138659Y0078848D01*
X0138607Y0078962D01*
X0138559Y0079077D01*
X0138514Y0079193D01*
X0138474Y0079312D01*
X0138436Y0079431D01*
X0138403Y0079551D01*
X0138374Y0079673D01*
X0138348Y0079795D01*
X0138326Y0079918D01*
X0138309Y0080042D01*
X0138295Y0080166D01*
X0138285Y0080290D01*
X0138279Y0080415D01*
X0138277Y0080540D01*
X0101672Y0122675D02*
X0091510Y0112514D01*
X0071188Y0132836D01*
X0081349Y0142997D01*
X0091510Y0132836D01*
X0071188Y0112514D01*
X0061027Y0122675D01*
X0071188Y0132836D01*
X0071188Y0112514D02*
X0081349Y0102353D01*
X0091510Y0112514D01*
X0083716Y0103605D02*
X0081349Y0101239D01*
X0078983Y0103605D01*
X0080562Y0104858D02*
X0080564Y0104914D01*
X0080570Y0104969D01*
X0080580Y0105023D01*
X0080593Y0105077D01*
X0080611Y0105130D01*
X0080632Y0105181D01*
X0080656Y0105231D01*
X0080684Y0105279D01*
X0080716Y0105325D01*
X0080750Y0105369D01*
X0080788Y0105410D01*
X0080828Y0105448D01*
X0080871Y0105483D01*
X0080916Y0105515D01*
X0080964Y0105544D01*
X0081013Y0105570D01*
X0081064Y0105592D01*
X0081116Y0105610D01*
X0081170Y0105624D01*
X0081225Y0105635D01*
X0081280Y0105642D01*
X0081335Y0105645D01*
X0081391Y0105644D01*
X0081446Y0105639D01*
X0081501Y0105630D01*
X0081555Y0105618D01*
X0081608Y0105601D01*
X0081660Y0105581D01*
X0081710Y0105557D01*
X0081758Y0105530D01*
X0081805Y0105500D01*
X0081849Y0105466D01*
X0081891Y0105429D01*
X0081929Y0105389D01*
X0081966Y0105347D01*
X0081999Y0105302D01*
X0082028Y0105256D01*
X0082055Y0105207D01*
X0082077Y0105156D01*
X0082097Y0105104D01*
X0082112Y0105050D01*
X0082124Y0104996D01*
X0082132Y0104941D01*
X0082136Y0104886D01*
X0082136Y0104830D01*
X0082132Y0104775D01*
X0082124Y0104720D01*
X0082112Y0104666D01*
X0082097Y0104612D01*
X0082077Y0104560D01*
X0082055Y0104509D01*
X0082028Y0104460D01*
X0081999Y0104414D01*
X0081966Y0104369D01*
X0081929Y0104327D01*
X0081891Y0104287D01*
X0081849Y0104250D01*
X0081805Y0104216D01*
X0081758Y0104186D01*
X0081710Y0104159D01*
X0081660Y0104135D01*
X0081608Y0104115D01*
X0081555Y0104098D01*
X0081501Y0104086D01*
X0081446Y0104077D01*
X0081391Y0104072D01*
X0081335Y0104071D01*
X0081280Y0104074D01*
X0081225Y0104081D01*
X0081170Y0104092D01*
X0081116Y0104106D01*
X0081064Y0104124D01*
X0081013Y0104146D01*
X0080964Y0104172D01*
X0080916Y0104201D01*
X0080871Y0104233D01*
X0080828Y0104268D01*
X0080788Y0104306D01*
X0080750Y0104347D01*
X0080716Y0104391D01*
X0080684Y0104437D01*
X0080656Y0104485D01*
X0080632Y0104535D01*
X0080611Y0104586D01*
X0080593Y0104639D01*
X0080580Y0104693D01*
X0080570Y0104747D01*
X0080564Y0104802D01*
X0080562Y0104858D01*
X0101672Y0122675D02*
X0091510Y0132836D01*
X0078214Y0159652D02*
X0076713Y0159652D01*
X0075962Y0160403D01*
X0074361Y0160403D02*
X0073610Y0159652D01*
X0072109Y0159652D01*
X0071358Y0160403D01*
X0071358Y0163406D01*
X0072109Y0164156D01*
X0073610Y0164156D01*
X0074361Y0163406D01*
X0075962Y0163406D02*
X0076713Y0164156D01*
X0078214Y0164156D01*
X0078965Y0163406D01*
X0078965Y0162655D01*
X0078214Y0161904D01*
X0078965Y0161154D01*
X0078965Y0160403D01*
X0078214Y0159652D01*
X0078214Y0161904D02*
X0077464Y0161904D01*
X0069790Y0159652D02*
X0068289Y0159652D01*
X0069040Y0159652D02*
X0069040Y0164156D01*
X0069790Y0164156D02*
X0068289Y0164156D01*
X0035521Y0139595D02*
X0034734Y0140383D01*
X0034734Y0130934D01*
X0029222Y0130934D02*
X0029222Y0140383D01*
X0028041Y0139202D01*
X0008029Y0174663D02*
X0008780Y0175414D01*
X0008780Y0176165D01*
X0008029Y0176915D01*
X0004276Y0176915D01*
X0004276Y0176165D02*
X0004276Y0177666D01*
X0004276Y0179267D02*
X0004276Y0181519D01*
X0005026Y0182270D01*
X0006528Y0182270D01*
X0007278Y0181519D01*
X0007278Y0179267D01*
X0008780Y0179267D02*
X0004276Y0179267D01*
X0005026Y0183871D02*
X0004276Y0184622D01*
X0004276Y0186123D01*
X0005026Y0186874D01*
X0005777Y0186874D01*
X0008780Y0183871D01*
X0008780Y0186874D01*
X0072023Y0238632D02*
X0072774Y0237881D01*
X0073524Y0237881D01*
X0074275Y0238632D01*
X0074275Y0242385D01*
X0073524Y0242385D02*
X0075026Y0242385D01*
X0076627Y0242385D02*
X0078879Y0242385D01*
X0079629Y0241635D01*
X0079629Y0240133D01*
X0078879Y0239383D01*
X0076627Y0239383D01*
X0076627Y0237881D02*
X0076627Y0242385D01*
X0081231Y0241635D02*
X0081231Y0240884D01*
X0081981Y0240133D01*
X0083483Y0240133D01*
X0084233Y0239383D01*
X0084233Y0238632D01*
X0083483Y0237881D01*
X0081981Y0237881D01*
X0081231Y0238632D01*
X0081231Y0239383D01*
X0081981Y0240133D01*
X0083483Y0240133D02*
X0084233Y0240884D01*
X0084233Y0241635D01*
X0083483Y0242385D01*
X0081981Y0242385D01*
X0081231Y0241635D01*
X0111393Y0238632D02*
X0112144Y0237881D01*
X0112894Y0237881D01*
X0113645Y0238632D01*
X0113645Y0242385D01*
X0112894Y0242385D02*
X0114396Y0242385D01*
X0115997Y0242385D02*
X0118249Y0242385D01*
X0119000Y0241635D01*
X0119000Y0240133D01*
X0118249Y0239383D01*
X0115997Y0239383D01*
X0115997Y0237881D02*
X0115997Y0242385D01*
X0120601Y0242385D02*
X0123603Y0242385D01*
X0123603Y0241635D01*
X0120601Y0238632D01*
X0120601Y0237881D01*
X0133552Y0247076D02*
X0143001Y0247076D01*
X0142214Y0246288D01*
X0143001Y0252587D02*
X0141820Y0253769D01*
X0143001Y0252587D02*
X0133552Y0252587D01*
X0007417Y0056938D02*
X0007417Y0053935D01*
X0007417Y0055436D02*
X0002913Y0055436D01*
X0004414Y0053935D01*
X0003663Y0052334D02*
X0002913Y0051583D01*
X0002913Y0049331D01*
X0007417Y0049331D01*
X0005915Y0049331D02*
X0005915Y0051583D01*
X0005165Y0052334D01*
X0003663Y0052334D01*
X0002913Y0047730D02*
X0002913Y0046228D01*
X0002913Y0046979D02*
X0006666Y0046979D01*
X0007417Y0046228D01*
X0007417Y0045478D01*
X0006666Y0044727D01*
X0012110Y0037868D02*
X0013611Y0037868D01*
X0012861Y0037868D02*
X0012861Y0034115D01*
X0012110Y0033364D01*
X0011359Y0033364D01*
X0010609Y0034115D01*
X0015213Y0034865D02*
X0017465Y0034865D01*
X0018215Y0035616D01*
X0018215Y0037117D01*
X0017465Y0037868D01*
X0015213Y0037868D01*
X0015213Y0033364D01*
X0019817Y0035616D02*
X0022819Y0035616D01*
X0022069Y0033364D02*
X0022069Y0037868D01*
X0019817Y0035616D01*
X0079222Y0040776D02*
X0080403Y0041957D01*
X0080403Y0032509D01*
X0085915Y0032509D02*
X0085915Y0041957D01*
X0086702Y0041170D01*
D14*
X0079691Y0050681D02*
X0080459Y0051448D01*
X0080459Y0052983D01*
X0079691Y0053750D01*
X0079691Y0055285D02*
X0078924Y0055285D01*
X0078157Y0056052D01*
X0078157Y0057587D01*
X0078924Y0058354D01*
X0079691Y0058354D01*
X0080459Y0057587D01*
X0080459Y0056052D01*
X0079691Y0055285D01*
X0078157Y0056052D02*
X0077390Y0055285D01*
X0076622Y0055285D01*
X0075855Y0056052D01*
X0075855Y0057587D01*
X0076622Y0058354D01*
X0077390Y0058354D01*
X0078157Y0057587D01*
X0076622Y0053750D02*
X0075855Y0052983D01*
X0075855Y0051448D01*
X0076622Y0050681D01*
X0079691Y0050681D01*
X0066837Y0051844D02*
X0066069Y0051077D01*
X0066837Y0051844D02*
X0066837Y0053379D01*
X0066069Y0054146D01*
X0065302Y0054146D01*
X0064535Y0053379D01*
X0064535Y0052612D01*
X0064535Y0053379D02*
X0063767Y0054146D01*
X0063000Y0054146D01*
X0062233Y0053379D01*
X0062233Y0051844D01*
X0063000Y0051077D01*
X0063000Y0049543D02*
X0062233Y0048775D01*
X0062233Y0047241D01*
X0063000Y0046473D01*
X0066069Y0046473D01*
X0066837Y0047241D01*
X0066837Y0048775D01*
X0066069Y0049543D01*
X0058963Y0048775D02*
X0058963Y0047241D01*
X0058195Y0046473D01*
X0055126Y0046473D01*
X0054359Y0047241D01*
X0054359Y0048775D01*
X0055126Y0049543D01*
X0055126Y0051077D02*
X0054359Y0051844D01*
X0054359Y0053379D01*
X0055126Y0054146D01*
X0055893Y0054146D01*
X0058963Y0051077D01*
X0058963Y0054146D01*
X0058195Y0049543D02*
X0058963Y0048775D01*
X0056661Y0038398D02*
X0056661Y0035329D01*
X0054359Y0037631D01*
X0058963Y0037631D01*
X0058963Y0033794D02*
X0058963Y0030725D01*
X0058963Y0032260D02*
X0054359Y0032260D01*
X0055893Y0030725D01*
X0055126Y0029191D02*
X0054359Y0028423D01*
X0054359Y0026889D01*
X0055126Y0026121D01*
X0058195Y0026121D01*
X0058963Y0026889D01*
X0058963Y0028423D01*
X0058195Y0029191D01*
X0069714Y0012076D02*
X0075852Y0012076D01*
X0075085Y0012843D02*
X0074317Y0013610D01*
X0073550Y0013610D01*
X0072783Y0012843D01*
X0072783Y0011308D01*
X0072015Y0010541D01*
X0071248Y0010541D01*
X0070481Y0011308D01*
X0070481Y0012843D01*
X0071248Y0013610D01*
X0072015Y0015145D02*
X0070481Y0016679D01*
X0075085Y0016679D01*
X0075085Y0015145D02*
X0075085Y0018214D01*
X0072783Y0019749D02*
X0072783Y0022818D01*
X0075085Y0022051D02*
X0070481Y0022051D01*
X0072783Y0019749D01*
X0076922Y0020148D02*
X0076922Y0017078D01*
X0077689Y0016311D01*
X0079224Y0016311D01*
X0079991Y0017078D01*
X0081526Y0016311D02*
X0084595Y0016311D01*
X0083060Y0016311D02*
X0083060Y0020915D01*
X0081526Y0019380D01*
X0079991Y0020148D02*
X0079224Y0020915D01*
X0077689Y0020915D01*
X0076922Y0020148D01*
X0076922Y0024185D02*
X0076922Y0028789D01*
X0079224Y0028789D01*
X0079991Y0028022D01*
X0079991Y0026487D01*
X0079224Y0025720D01*
X0076922Y0025720D01*
X0078456Y0025720D02*
X0079991Y0024185D01*
X0081526Y0024185D02*
X0084595Y0024185D01*
X0086130Y0024185D02*
X0086130Y0024952D01*
X0089199Y0028022D01*
X0089199Y0028789D01*
X0086130Y0028789D01*
X0083060Y0028789D02*
X0083060Y0024185D01*
X0081526Y0027254D02*
X0083060Y0028789D01*
X0086130Y0020915D02*
X0086130Y0018613D01*
X0087664Y0019380D01*
X0088432Y0019380D01*
X0089199Y0018613D01*
X0089199Y0017078D01*
X0088432Y0016311D01*
X0086897Y0016311D01*
X0086130Y0017078D01*
X0086130Y0020915D02*
X0089199Y0020915D01*
X0093729Y0041869D02*
X0093729Y0044171D01*
X0094496Y0044939D01*
X0096031Y0044939D01*
X0096798Y0044171D01*
X0096798Y0041869D01*
X0098333Y0041869D02*
X0093729Y0041869D01*
X0096798Y0043404D02*
X0098333Y0044939D01*
X0098333Y0046473D02*
X0098333Y0049543D01*
X0098333Y0048008D02*
X0093729Y0048008D01*
X0095264Y0046473D01*
X0096031Y0051077D02*
X0096031Y0054146D01*
X0098333Y0053379D02*
X0093729Y0053379D01*
X0096031Y0051077D01*
X0105540Y0073365D02*
X0105540Y0075667D01*
X0106307Y0076435D01*
X0107842Y0076435D01*
X0108609Y0075667D01*
X0108609Y0073365D01*
X0110144Y0073365D02*
X0105540Y0073365D01*
X0108609Y0074900D02*
X0110144Y0076435D01*
X0110144Y0077969D02*
X0107075Y0081039D01*
X0106307Y0081039D01*
X0105540Y0080271D01*
X0105540Y0078737D01*
X0106307Y0077969D01*
X0110144Y0077969D02*
X0110144Y0081039D01*
X0109377Y0082573D02*
X0110144Y0083341D01*
X0110144Y0084875D01*
X0109377Y0085642D01*
X0107842Y0085642D01*
X0107075Y0084875D01*
X0107075Y0084108D01*
X0107842Y0082573D01*
X0105540Y0082573D01*
X0105540Y0085642D01*
X0104949Y0086781D02*
X0105716Y0087548D01*
X0105716Y0089850D01*
X0107251Y0089850D02*
X0108018Y0089083D01*
X0108018Y0087548D01*
X0107251Y0086781D01*
X0107251Y0085246D02*
X0108018Y0084479D01*
X0108018Y0082944D01*
X0107251Y0082177D01*
X0104181Y0082177D01*
X0103414Y0082944D01*
X0103414Y0084479D01*
X0104181Y0085246D01*
X0104181Y0086781D02*
X0104949Y0086781D01*
X0104181Y0086781D02*
X0103414Y0087548D01*
X0103414Y0089083D01*
X0104181Y0089850D01*
X0107251Y0089850D01*
X0104628Y0091686D02*
X0105713Y0092771D01*
X0105713Y0093856D01*
X0107341Y0094399D02*
X0109511Y0096569D01*
X0108426Y0095484D02*
X0105171Y0098739D01*
X0105171Y0096569D01*
X0103543Y0096026D02*
X0102458Y0096026D01*
X0101373Y0094941D01*
X0101373Y0093856D01*
X0103543Y0091686D01*
X0104628Y0091686D01*
X0110596Y0097654D02*
X0110596Y0101995D01*
X0110054Y0102537D01*
X0108969Y0102537D01*
X0107883Y0101452D01*
X0107884Y0100367D01*
X0110596Y0097654D02*
X0112767Y0099824D01*
X0118118Y0073831D02*
X0118886Y0073831D01*
X0119653Y0073064D01*
X0120420Y0073831D01*
X0121188Y0073831D01*
X0121955Y0073064D01*
X0121955Y0071530D01*
X0121188Y0070762D01*
X0121955Y0069228D02*
X0121955Y0066158D01*
X0121955Y0064624D02*
X0120420Y0063089D01*
X0120420Y0063856D02*
X0120420Y0061554D01*
X0121955Y0061554D02*
X0117351Y0061554D01*
X0117351Y0063856D01*
X0118118Y0064624D01*
X0119653Y0064624D01*
X0120420Y0063856D01*
X0118886Y0066158D02*
X0117351Y0067693D01*
X0121955Y0067693D01*
X0118118Y0070762D02*
X0117351Y0071530D01*
X0117351Y0073064D01*
X0118118Y0073831D01*
X0119653Y0073064D02*
X0119653Y0072297D01*
X0118335Y0058083D02*
X0119102Y0056549D01*
X0120637Y0055014D01*
X0120637Y0057316D01*
X0121404Y0058083D01*
X0122172Y0058083D01*
X0122939Y0057316D01*
X0122939Y0055781D01*
X0122172Y0055014D01*
X0120637Y0055014D01*
X0119870Y0053480D02*
X0122939Y0050410D01*
X0122939Y0053480D01*
X0119870Y0053480D02*
X0119102Y0053480D01*
X0118335Y0052712D01*
X0118335Y0051178D01*
X0119102Y0050410D01*
X0119102Y0048876D02*
X0118335Y0048108D01*
X0118335Y0046574D01*
X0119102Y0045806D01*
X0122172Y0045806D01*
X0122939Y0046574D01*
X0122939Y0048108D01*
X0122172Y0048876D01*
X0126209Y0048108D02*
X0126209Y0045806D01*
X0130813Y0045806D01*
X0129278Y0045806D02*
X0129278Y0048108D01*
X0128511Y0048876D01*
X0126977Y0048876D01*
X0126209Y0048108D01*
X0127744Y0050410D02*
X0126209Y0051945D01*
X0130813Y0051945D01*
X0130813Y0050410D02*
X0130813Y0053480D01*
X0130046Y0055014D02*
X0130813Y0055781D01*
X0130813Y0057316D01*
X0130046Y0058083D01*
X0128511Y0058083D01*
X0127744Y0057316D01*
X0127744Y0056549D01*
X0128511Y0055014D01*
X0126209Y0055014D01*
X0126209Y0058083D01*
X0130813Y0048876D02*
X0129278Y0047341D01*
X0092270Y0082177D02*
X0087666Y0082177D01*
X0087666Y0084479D01*
X0088433Y0085246D01*
X0089968Y0085246D01*
X0090735Y0084479D01*
X0090735Y0082177D01*
X0090735Y0083712D02*
X0092270Y0085246D01*
X0092270Y0086781D02*
X0092270Y0089850D01*
X0092270Y0088316D02*
X0087666Y0088316D01*
X0089201Y0086781D01*
X0089968Y0091385D02*
X0089968Y0093687D01*
X0090735Y0094454D01*
X0091502Y0094454D01*
X0092270Y0093687D01*
X0092270Y0092152D01*
X0091502Y0091385D01*
X0089968Y0091385D01*
X0088433Y0092920D01*
X0087666Y0094454D01*
X0069723Y0086226D02*
X0069723Y0085141D01*
X0065382Y0085141D01*
X0065382Y0084056D01*
X0066467Y0082971D01*
X0067552Y0082971D01*
X0069723Y0085141D01*
X0069723Y0086226D02*
X0068638Y0087311D01*
X0067552Y0087311D01*
X0065382Y0085141D01*
X0063754Y0085684D02*
X0061584Y0087854D01*
X0062669Y0086769D02*
X0065925Y0090024D01*
X0063754Y0090024D01*
X0063212Y0091652D02*
X0063212Y0092737D01*
X0062127Y0093822D01*
X0061042Y0093822D01*
X0058871Y0091652D01*
X0058871Y0090567D01*
X0059956Y0089482D01*
X0061042Y0089482D01*
X0048963Y0074102D02*
X0048963Y0071033D01*
X0048963Y0072568D02*
X0044359Y0072568D01*
X0045893Y0071033D01*
X0045126Y0069498D02*
X0044359Y0068731D01*
X0044359Y0067196D01*
X0045126Y0066429D01*
X0048195Y0066429D01*
X0048963Y0067196D01*
X0048963Y0068731D01*
X0048195Y0069498D01*
X0040321Y0047210D02*
X0039554Y0047210D01*
X0038787Y0046443D01*
X0038787Y0044908D01*
X0038019Y0044141D01*
X0037252Y0044141D01*
X0036485Y0044908D01*
X0036485Y0046443D01*
X0037252Y0047210D01*
X0038019Y0047210D01*
X0038787Y0046443D01*
X0038787Y0044908D02*
X0039554Y0044141D01*
X0040321Y0044141D01*
X0041089Y0044908D01*
X0041089Y0046443D01*
X0040321Y0047210D01*
X0041089Y0042606D02*
X0041089Y0039537D01*
X0041089Y0041072D02*
X0036485Y0041072D01*
X0038019Y0039537D01*
X0037252Y0038002D02*
X0036485Y0037235D01*
X0036485Y0034933D01*
X0041089Y0034933D01*
X0039554Y0034933D02*
X0039554Y0037235D01*
X0038787Y0038002D01*
X0037252Y0038002D01*
X0039554Y0036468D02*
X0041089Y0038002D01*
X0040321Y0031462D02*
X0039554Y0031462D01*
X0038787Y0030695D01*
X0038787Y0028393D01*
X0040321Y0028393D01*
X0041089Y0029160D01*
X0041089Y0030695D01*
X0040321Y0031462D01*
X0037252Y0029928D02*
X0038787Y0028393D01*
X0037252Y0029928D02*
X0036485Y0031462D01*
X0033215Y0034933D02*
X0028611Y0034933D01*
X0028611Y0037235D01*
X0029378Y0038002D01*
X0030913Y0038002D01*
X0031680Y0037235D01*
X0031680Y0034933D01*
X0031680Y0036468D02*
X0033215Y0038002D01*
X0033215Y0039537D02*
X0033215Y0042606D01*
X0033215Y0041072D02*
X0028611Y0041072D01*
X0030145Y0039537D01*
X0030145Y0044141D02*
X0029378Y0044141D01*
X0028611Y0044908D01*
X0028611Y0046443D01*
X0029378Y0047210D01*
X0032447Y0047210D01*
X0033215Y0046443D01*
X0033215Y0044908D01*
X0032447Y0044141D01*
X0030913Y0044908D02*
X0030913Y0047210D01*
X0030913Y0044908D02*
X0030145Y0044141D01*
X0041089Y0026858D02*
X0041089Y0023789D01*
X0041089Y0025324D02*
X0036485Y0025324D01*
X0038019Y0023789D01*
X0037252Y0022254D02*
X0036485Y0021487D01*
X0036485Y0019952D01*
X0037252Y0019185D01*
X0040321Y0019185D01*
X0041089Y0019952D01*
X0041089Y0021487D01*
X0040321Y0022254D01*
X0021272Y0007643D02*
X0018203Y0007643D01*
X0016668Y0007643D02*
X0015134Y0009178D01*
X0015901Y0009178D02*
X0013599Y0009178D01*
X0013599Y0007643D02*
X0013599Y0012247D01*
X0015901Y0012247D01*
X0016668Y0011480D01*
X0016668Y0009945D01*
X0015901Y0009178D01*
X0018203Y0010713D02*
X0019738Y0012247D01*
X0019738Y0007643D01*
X0070481Y0009006D02*
X0074317Y0009006D01*
X0075085Y0008239D01*
X0075085Y0006704D01*
X0074317Y0005937D01*
X0070481Y0005937D01*
X0074317Y0010541D02*
X0075085Y0011308D01*
X0075085Y0012843D01*
X0048670Y0132547D02*
X0047585Y0132547D01*
X0045414Y0134717D01*
X0045414Y0135802D01*
X0046499Y0136887D01*
X0047585Y0136887D01*
X0049212Y0137430D02*
X0049212Y0139600D01*
X0052468Y0136345D01*
X0051383Y0135260D02*
X0053553Y0137430D01*
X0054638Y0138515D02*
X0056808Y0140685D01*
X0055723Y0139600D02*
X0052468Y0142856D01*
X0052468Y0140685D01*
X0049755Y0134717D02*
X0049755Y0133632D01*
X0048670Y0132547D01*
X0032376Y0163791D02*
X0032376Y0168395D01*
X0030074Y0166093D01*
X0033143Y0166093D01*
X0028539Y0166093D02*
X0027772Y0165326D01*
X0025470Y0165326D01*
X0027004Y0165326D02*
X0028539Y0163791D01*
X0028539Y0166093D02*
X0028539Y0167628D01*
X0027772Y0168395D01*
X0025470Y0168395D01*
X0025470Y0163791D01*
X0025470Y0171665D02*
X0028539Y0171665D01*
X0030074Y0171665D02*
X0033143Y0171665D01*
X0031608Y0171665D02*
X0031608Y0176269D01*
X0030074Y0174735D01*
X0025470Y0176269D02*
X0025470Y0171665D01*
X0026800Y0218368D02*
X0031404Y0218368D01*
X0031404Y0221437D01*
X0031404Y0222972D02*
X0031404Y0226041D01*
X0031404Y0227576D02*
X0031404Y0229878D01*
X0030636Y0230645D01*
X0027567Y0230645D01*
X0026800Y0229878D01*
X0026800Y0227576D01*
X0031404Y0227576D01*
X0029102Y0224506D02*
X0029102Y0222972D01*
X0026800Y0222972D02*
X0031404Y0222972D01*
X0034674Y0222972D02*
X0039278Y0222972D01*
X0039278Y0226041D01*
X0039278Y0227576D02*
X0039278Y0229878D01*
X0038510Y0230645D01*
X0035441Y0230645D01*
X0034674Y0229878D01*
X0034674Y0227576D01*
X0039278Y0227576D01*
X0036976Y0224506D02*
X0036976Y0222972D01*
X0039278Y0221437D02*
X0039278Y0218368D01*
X0034674Y0218368D01*
X0034674Y0222972D02*
X0034674Y0226041D01*
X0036208Y0232180D02*
X0034674Y0233714D01*
X0039278Y0233714D01*
X0039278Y0234116D02*
X0039278Y0237185D01*
X0039278Y0238720D02*
X0039278Y0241789D01*
X0039278Y0243324D02*
X0039278Y0245626D01*
X0038510Y0246393D01*
X0035441Y0246393D01*
X0034674Y0245626D01*
X0034674Y0243324D01*
X0039278Y0243324D01*
X0036976Y0240254D02*
X0036976Y0238720D01*
X0034674Y0238720D02*
X0039278Y0238720D01*
X0039278Y0235249D02*
X0039278Y0232180D01*
X0039278Y0234116D02*
X0034674Y0234116D01*
X0031404Y0234116D02*
X0031404Y0237185D01*
X0031404Y0238720D02*
X0031404Y0241789D01*
X0031404Y0243324D02*
X0031404Y0245626D01*
X0030636Y0246393D01*
X0027567Y0246393D01*
X0026800Y0245626D01*
X0026800Y0243324D01*
X0031404Y0243324D01*
X0029102Y0240254D02*
X0029102Y0238720D01*
X0026800Y0238720D02*
X0031404Y0238720D01*
X0031404Y0235249D02*
X0031404Y0232180D01*
X0028334Y0235249D01*
X0027567Y0235249D01*
X0026800Y0234481D01*
X0026800Y0232947D01*
X0027567Y0232180D01*
X0026800Y0234116D02*
X0031404Y0234116D01*
X0034674Y0238720D02*
X0034674Y0241789D01*
X0035441Y0247928D02*
X0034674Y0248695D01*
X0034674Y0250229D01*
X0035441Y0250997D01*
X0036208Y0250997D01*
X0036976Y0250229D01*
X0037743Y0250997D01*
X0038510Y0250997D01*
X0039278Y0250229D01*
X0039278Y0248695D01*
X0038510Y0247928D01*
X0036976Y0249462D02*
X0036976Y0250229D01*
X0042548Y0250230D02*
X0043315Y0250997D01*
X0046384Y0247928D01*
X0047152Y0248695D01*
X0047152Y0250230D01*
X0046384Y0250997D01*
X0043315Y0250997D01*
X0042548Y0250230D02*
X0042548Y0248695D01*
X0043315Y0247928D01*
X0046384Y0247928D01*
X0047152Y0246393D02*
X0047152Y0243324D01*
X0044082Y0246393D01*
X0043315Y0246393D01*
X0042548Y0245626D01*
X0042548Y0244091D01*
X0043315Y0243324D01*
X0043315Y0241789D02*
X0044850Y0241789D01*
X0045617Y0241022D01*
X0045617Y0238720D01*
X0045617Y0240254D02*
X0047152Y0241789D01*
X0047152Y0238720D02*
X0042548Y0238720D01*
X0042548Y0241022D01*
X0043315Y0241789D01*
X0043315Y0235249D02*
X0044082Y0235249D01*
X0044850Y0234481D01*
X0045617Y0235249D01*
X0046384Y0235249D01*
X0047152Y0234481D01*
X0047152Y0232947D01*
X0046384Y0232180D01*
X0047152Y0230645D02*
X0045617Y0229110D01*
X0045617Y0229878D02*
X0045617Y0227576D01*
X0047152Y0227576D02*
X0042548Y0227576D01*
X0042548Y0229878D01*
X0043315Y0230645D01*
X0044850Y0230645D01*
X0045617Y0229878D01*
X0048296Y0227545D02*
X0048296Y0226011D01*
X0049063Y0225243D01*
X0048296Y0227545D02*
X0049063Y0228313D01*
X0049830Y0228313D01*
X0052900Y0225243D01*
X0052900Y0228313D01*
X0056170Y0226778D02*
X0060774Y0226778D01*
X0060774Y0225243D02*
X0060774Y0228313D01*
X0057704Y0225243D02*
X0056170Y0226778D01*
X0052900Y0223709D02*
X0052900Y0220639D01*
X0052900Y0219105D02*
X0051365Y0217570D01*
X0051365Y0218337D02*
X0051365Y0216035D01*
X0052900Y0216035D02*
X0048296Y0216035D01*
X0048296Y0218337D01*
X0049063Y0219105D01*
X0050598Y0219105D01*
X0051365Y0218337D01*
X0049830Y0220639D02*
X0048296Y0222174D01*
X0052900Y0222174D01*
X0056170Y0222174D02*
X0060774Y0222174D01*
X0060774Y0220639D02*
X0060774Y0223709D01*
X0060774Y0219105D02*
X0059239Y0217570D01*
X0059239Y0218337D02*
X0059239Y0216035D01*
X0060774Y0216035D02*
X0056170Y0216035D01*
X0056170Y0218337D01*
X0056937Y0219105D01*
X0058472Y0219105D01*
X0059239Y0218337D01*
X0057704Y0220639D02*
X0056170Y0222174D01*
X0044850Y0233714D02*
X0044850Y0234481D01*
X0043315Y0235249D02*
X0042548Y0234481D01*
X0042548Y0232947D01*
X0043315Y0232180D01*
X0031404Y0250229D02*
X0026800Y0250229D01*
X0029102Y0247928D01*
X0029102Y0250997D01*
X0023530Y0250997D02*
X0023530Y0247928D01*
X0023530Y0249462D02*
X0018926Y0249462D01*
X0020460Y0247928D01*
X0020460Y0246393D02*
X0019693Y0246393D01*
X0018926Y0245626D01*
X0018926Y0244091D01*
X0019693Y0243324D01*
X0019693Y0241789D02*
X0021228Y0241789D01*
X0021995Y0241022D01*
X0021995Y0238720D01*
X0021995Y0240254D02*
X0023530Y0241789D01*
X0023530Y0243324D02*
X0020460Y0246393D01*
X0023530Y0246393D02*
X0023530Y0243324D01*
X0026800Y0241789D02*
X0026800Y0238720D01*
X0023530Y0238720D02*
X0018926Y0238720D01*
X0018926Y0241022D01*
X0019693Y0241789D01*
X0019693Y0235249D02*
X0018926Y0234481D01*
X0018926Y0232947D01*
X0019693Y0232180D01*
X0019693Y0230645D02*
X0021228Y0230645D01*
X0021995Y0229878D01*
X0021995Y0227576D01*
X0021995Y0229110D02*
X0023530Y0230645D01*
X0023530Y0232180D02*
X0020460Y0235249D01*
X0019693Y0235249D01*
X0019693Y0230645D02*
X0018926Y0229878D01*
X0018926Y0227576D01*
X0023530Y0227576D01*
X0026800Y0226041D02*
X0026800Y0222972D01*
X0023530Y0232180D02*
X0023530Y0235249D01*
X0070107Y0235249D02*
X0070107Y0232180D01*
X0072409Y0232180D01*
X0071641Y0233714D01*
X0071641Y0234481D01*
X0072409Y0235249D01*
X0073943Y0235249D01*
X0074711Y0234481D01*
X0074711Y0232947D01*
X0073943Y0232180D01*
X0074711Y0230645D02*
X0074711Y0227576D01*
X0071641Y0230645D01*
X0070874Y0230645D01*
X0070107Y0229878D01*
X0070107Y0228343D01*
X0070874Y0227576D01*
X0070874Y0226041D02*
X0070107Y0225274D01*
X0070107Y0223739D01*
X0070874Y0222972D01*
X0073943Y0222972D01*
X0074711Y0223739D01*
X0074711Y0225274D01*
X0073943Y0226041D01*
X0073452Y0223709D02*
X0074220Y0222941D01*
X0074220Y0221407D01*
X0073452Y0220639D01*
X0072685Y0220639D01*
X0071918Y0221407D01*
X0071918Y0222941D01*
X0072685Y0223709D01*
X0073452Y0223709D01*
X0074220Y0222941D02*
X0074987Y0223709D01*
X0075754Y0223709D01*
X0076522Y0222941D01*
X0076522Y0221407D01*
X0075754Y0220639D01*
X0074987Y0220639D01*
X0074220Y0221407D01*
X0074044Y0219501D02*
X0074811Y0219501D01*
X0077880Y0216431D01*
X0078648Y0216431D01*
X0079792Y0216035D02*
X0079792Y0218337D01*
X0080559Y0219105D01*
X0082094Y0219105D01*
X0082861Y0218337D01*
X0082861Y0216035D01*
X0084396Y0216035D02*
X0079792Y0216035D01*
X0078648Y0214130D02*
X0077880Y0214897D01*
X0078648Y0214130D02*
X0078648Y0212595D01*
X0077880Y0211828D01*
X0074811Y0211828D01*
X0074044Y0212595D01*
X0074044Y0214130D01*
X0074811Y0214897D01*
X0074987Y0216035D02*
X0074987Y0218337D01*
X0074220Y0219105D01*
X0072685Y0219105D01*
X0071918Y0218337D01*
X0071918Y0216035D01*
X0076522Y0216035D01*
X0074987Y0217570D02*
X0076522Y0219105D01*
X0074044Y0219501D02*
X0074044Y0216431D01*
X0079792Y0220639D02*
X0079792Y0223709D01*
X0080559Y0223709D01*
X0083628Y0220639D01*
X0084396Y0220639D01*
X0084396Y0219105D02*
X0082861Y0217570D01*
X0093729Y0223739D02*
X0094496Y0222972D01*
X0097565Y0222972D01*
X0098333Y0223739D01*
X0098333Y0225274D01*
X0097565Y0226041D01*
X0098333Y0227576D02*
X0095264Y0230645D01*
X0094496Y0230645D01*
X0093729Y0229878D01*
X0093729Y0228343D01*
X0094496Y0227576D01*
X0094496Y0226041D02*
X0093729Y0225274D01*
X0093729Y0223739D01*
X0095540Y0223709D02*
X0096307Y0222174D01*
X0097842Y0220639D01*
X0097842Y0222941D01*
X0098609Y0223709D01*
X0099377Y0223709D01*
X0100144Y0222941D01*
X0100144Y0221407D01*
X0099377Y0220639D01*
X0097842Y0220639D01*
X0097666Y0219501D02*
X0097666Y0216431D01*
X0099968Y0216431D01*
X0099201Y0217966D01*
X0099201Y0218733D01*
X0099968Y0219501D01*
X0101502Y0219501D01*
X0102270Y0218733D01*
X0102270Y0217199D01*
X0101502Y0216431D01*
X0100144Y0216035D02*
X0095540Y0216035D01*
X0095540Y0218337D01*
X0096307Y0219105D01*
X0097842Y0219105D01*
X0098609Y0218337D01*
X0098609Y0216035D01*
X0098433Y0214897D02*
X0097666Y0214130D01*
X0097666Y0212595D01*
X0098433Y0211828D01*
X0101502Y0211828D01*
X0102270Y0212595D01*
X0102270Y0214130D01*
X0101502Y0214897D01*
X0103414Y0216035D02*
X0103414Y0218337D01*
X0104181Y0219105D01*
X0105716Y0219105D01*
X0106483Y0218337D01*
X0106483Y0216035D01*
X0108018Y0216035D02*
X0103414Y0216035D01*
X0103414Y0220639D02*
X0105716Y0220639D01*
X0104949Y0222174D01*
X0104949Y0222941D01*
X0105716Y0223709D01*
X0107251Y0223709D01*
X0108018Y0222941D01*
X0108018Y0221407D01*
X0107251Y0220639D01*
X0108018Y0219105D02*
X0106483Y0217570D01*
X0103414Y0220639D02*
X0103414Y0223709D01*
X0100144Y0219105D02*
X0098609Y0217570D01*
X0098333Y0227576D02*
X0098333Y0230645D01*
X0097565Y0232180D02*
X0098333Y0232947D01*
X0098333Y0234481D01*
X0097565Y0235249D01*
X0096798Y0235249D01*
X0096031Y0234481D01*
X0096031Y0233714D01*
X0096031Y0234481D02*
X0095264Y0235249D01*
X0094496Y0235249D01*
X0093729Y0234481D01*
X0093729Y0232947D01*
X0094496Y0232180D01*
X0119162Y0211797D02*
X0119162Y0210263D01*
X0119929Y0209495D01*
X0122999Y0209495D01*
X0119929Y0212565D01*
X0122999Y0212565D01*
X0123766Y0211797D01*
X0123766Y0210263D01*
X0122999Y0209495D01*
X0123766Y0207961D02*
X0123766Y0204891D01*
X0123766Y0203357D02*
X0122231Y0201822D01*
X0122231Y0202589D02*
X0122231Y0200287D01*
X0123766Y0200287D02*
X0119162Y0200287D01*
X0119162Y0202589D01*
X0119929Y0203357D01*
X0121464Y0203357D01*
X0122231Y0202589D01*
X0120697Y0204891D02*
X0119162Y0206426D01*
X0123766Y0206426D01*
X0127036Y0207193D02*
X0127036Y0205659D01*
X0127803Y0204891D01*
X0128571Y0204891D01*
X0129338Y0205659D01*
X0129338Y0207961D01*
X0130873Y0207961D02*
X0127803Y0207961D01*
X0127036Y0207193D01*
X0127803Y0203357D02*
X0129338Y0203357D01*
X0130105Y0202589D01*
X0130105Y0200287D01*
X0131640Y0200287D02*
X0127036Y0200287D01*
X0127036Y0202589D01*
X0127803Y0203357D01*
X0130105Y0201822D02*
X0131640Y0203357D01*
X0130873Y0204891D02*
X0131640Y0205659D01*
X0131640Y0207193D01*
X0130873Y0207961D01*
X0125892Y0212595D02*
X0125892Y0214130D01*
X0125125Y0214897D01*
X0123590Y0216431D02*
X0123590Y0219501D01*
X0125892Y0218733D02*
X0121288Y0218733D01*
X0123590Y0216431D01*
X0122055Y0214897D02*
X0121288Y0214130D01*
X0121288Y0212595D01*
X0122055Y0211828D01*
X0125125Y0211828D01*
X0125892Y0212595D01*
X0119929Y0212565D02*
X0119162Y0211797D01*
X0122055Y0222972D02*
X0125125Y0222972D01*
X0125892Y0223739D01*
X0125892Y0225274D01*
X0125125Y0226041D01*
X0125892Y0227576D02*
X0122823Y0230645D01*
X0122055Y0230645D01*
X0121288Y0229878D01*
X0121288Y0228343D01*
X0122055Y0227576D01*
X0122055Y0226041D02*
X0121288Y0225274D01*
X0121288Y0223739D01*
X0122055Y0222972D01*
X0125892Y0227576D02*
X0125892Y0230645D01*
X0123590Y0232180D02*
X0123590Y0235249D01*
X0125892Y0234481D02*
X0121288Y0234481D01*
X0123590Y0232180D01*
X0144910Y0232947D02*
X0145677Y0232180D01*
X0144910Y0232947D02*
X0144910Y0234481D01*
X0145677Y0235249D01*
X0146445Y0235249D01*
X0149514Y0232180D01*
X0149514Y0235249D01*
X0149514Y0230645D02*
X0149514Y0227576D01*
X0146445Y0230645D01*
X0145677Y0230645D01*
X0144910Y0229878D01*
X0144910Y0228343D01*
X0145677Y0227576D01*
X0145677Y0226041D02*
X0144910Y0225274D01*
X0144910Y0223739D01*
X0145677Y0222972D01*
X0148747Y0222972D01*
X0149514Y0223739D01*
X0149514Y0225274D01*
X0148747Y0226041D01*
X0148747Y0203753D02*
X0147979Y0203753D01*
X0147212Y0202985D01*
X0147212Y0200683D01*
X0148747Y0200683D01*
X0149514Y0201451D01*
X0149514Y0202985D01*
X0148747Y0203753D01*
X0145677Y0202218D02*
X0147212Y0200683D01*
X0148747Y0199149D02*
X0149514Y0198381D01*
X0149514Y0196847D01*
X0148747Y0196080D01*
X0145677Y0196080D01*
X0144910Y0196847D01*
X0144910Y0198381D01*
X0145677Y0199149D01*
X0145677Y0202218D02*
X0144910Y0203753D01*
X0127803Y0185005D02*
X0130873Y0181936D01*
X0131640Y0181936D01*
X0131640Y0180402D02*
X0131640Y0177332D01*
X0128571Y0180402D01*
X0127803Y0180402D01*
X0127036Y0179634D01*
X0127036Y0178100D01*
X0127803Y0177332D01*
X0127803Y0175798D02*
X0127036Y0175030D01*
X0127036Y0172728D01*
X0131640Y0172728D01*
X0132999Y0173124D02*
X0133766Y0173892D01*
X0133766Y0175426D01*
X0132999Y0176194D01*
X0132231Y0176194D01*
X0131464Y0175426D01*
X0131464Y0174659D01*
X0131464Y0175426D02*
X0130697Y0176194D01*
X0129929Y0176194D01*
X0129162Y0175426D01*
X0129162Y0173892D01*
X0129929Y0173124D01*
X0130105Y0172728D02*
X0130105Y0175030D01*
X0129338Y0175798D01*
X0127803Y0175798D01*
X0130105Y0174263D02*
X0131640Y0175798D01*
X0130697Y0171590D02*
X0129929Y0171590D01*
X0129162Y0170822D01*
X0129162Y0169288D01*
X0129929Y0168520D01*
X0129929Y0166986D02*
X0131464Y0166986D01*
X0132231Y0166219D01*
X0132231Y0163917D01*
X0132231Y0165451D02*
X0133766Y0166986D01*
X0133766Y0168520D02*
X0130697Y0171590D01*
X0133766Y0171590D02*
X0133766Y0168520D01*
X0135677Y0165320D02*
X0134910Y0164553D01*
X0134910Y0163018D01*
X0135677Y0162251D01*
X0138747Y0162251D01*
X0135677Y0165320D01*
X0138747Y0165320D01*
X0139514Y0164553D01*
X0139514Y0163018D01*
X0138747Y0162251D01*
X0138747Y0160717D02*
X0139514Y0159949D01*
X0139514Y0158415D01*
X0138747Y0157647D01*
X0139338Y0156509D02*
X0139338Y0154207D01*
X0138571Y0153439D01*
X0137803Y0153439D01*
X0137036Y0154207D01*
X0137036Y0155741D01*
X0137803Y0156509D01*
X0140873Y0156509D01*
X0141640Y0155741D01*
X0141640Y0154207D01*
X0140873Y0153439D01*
X0139514Y0153043D02*
X0134910Y0153043D01*
X0134910Y0155345D01*
X0135677Y0156113D01*
X0137212Y0156113D01*
X0137979Y0155345D01*
X0137979Y0153043D01*
X0137803Y0151905D02*
X0137036Y0151137D01*
X0137036Y0149603D01*
X0137803Y0148835D01*
X0137803Y0147301D02*
X0137036Y0146533D01*
X0137036Y0144232D01*
X0141640Y0144232D01*
X0140105Y0144232D02*
X0140105Y0146533D01*
X0139338Y0147301D01*
X0137803Y0147301D01*
X0140105Y0145766D02*
X0141640Y0147301D01*
X0141640Y0148835D02*
X0138571Y0151905D01*
X0137803Y0151905D01*
X0137979Y0154578D02*
X0139514Y0156113D01*
X0137212Y0159182D02*
X0137212Y0159949D01*
X0137979Y0160717D01*
X0138747Y0160717D01*
X0137212Y0159949D02*
X0136445Y0160717D01*
X0135677Y0160717D01*
X0134910Y0159949D01*
X0134910Y0158415D01*
X0135677Y0157647D01*
X0133766Y0163917D02*
X0129162Y0163917D01*
X0129162Y0166219D01*
X0129929Y0166986D01*
X0123766Y0164553D02*
X0123766Y0163018D01*
X0122999Y0162251D01*
X0121464Y0162251D01*
X0121464Y0164553D01*
X0122231Y0165320D01*
X0122999Y0165320D01*
X0123766Y0164553D01*
X0123766Y0160717D02*
X0123766Y0157647D01*
X0120697Y0160717D01*
X0119929Y0160717D01*
X0119162Y0159949D01*
X0119162Y0158415D01*
X0119929Y0157647D01*
X0119929Y0156113D02*
X0121464Y0156113D01*
X0122231Y0155345D01*
X0122231Y0153043D01*
X0122055Y0151905D02*
X0121288Y0151137D01*
X0121288Y0149603D01*
X0122055Y0148835D01*
X0122055Y0147301D02*
X0123590Y0147301D01*
X0124357Y0146533D01*
X0124357Y0144232D01*
X0124357Y0145766D02*
X0125892Y0147301D01*
X0125892Y0148835D02*
X0122823Y0151905D01*
X0122055Y0151905D01*
X0123766Y0153043D02*
X0119162Y0153043D01*
X0119162Y0155345D01*
X0119929Y0156113D01*
X0121288Y0155741D02*
X0123590Y0153439D01*
X0123590Y0156509D01*
X0123766Y0156113D02*
X0122231Y0154578D01*
X0121288Y0155741D02*
X0125892Y0155741D01*
X0125892Y0151905D02*
X0125892Y0148835D01*
X0125892Y0144232D02*
X0121288Y0144232D01*
X0121288Y0146533D01*
X0122055Y0147301D01*
X0121464Y0162251D02*
X0119929Y0163786D01*
X0119162Y0165320D01*
X0115892Y0172728D02*
X0111288Y0172728D01*
X0111288Y0175030D01*
X0112055Y0175798D01*
X0113590Y0175798D01*
X0114357Y0175030D01*
X0114357Y0172728D01*
X0114357Y0174263D02*
X0115892Y0175798D01*
X0115892Y0177332D02*
X0112823Y0180402D01*
X0112055Y0180402D01*
X0111288Y0179634D01*
X0111288Y0178100D01*
X0112055Y0177332D01*
X0115892Y0177332D02*
X0115892Y0180402D01*
X0115892Y0181936D02*
X0112823Y0185005D01*
X0112055Y0185005D01*
X0111288Y0184238D01*
X0111288Y0182704D01*
X0112055Y0181936D01*
X0115892Y0181936D02*
X0115892Y0185005D01*
X0127036Y0185005D02*
X0127036Y0181936D01*
X0127036Y0185005D02*
X0127803Y0185005D01*
X0144910Y0175426D02*
X0145677Y0176194D01*
X0146445Y0176194D01*
X0147212Y0175426D01*
X0147212Y0173892D01*
X0146445Y0173124D01*
X0145677Y0173124D01*
X0144910Y0173892D01*
X0144910Y0175426D01*
X0145677Y0171590D02*
X0144910Y0170822D01*
X0144910Y0169288D01*
X0145677Y0168520D01*
X0145677Y0166986D02*
X0147212Y0166986D01*
X0147979Y0166219D01*
X0147979Y0163917D01*
X0147979Y0165451D02*
X0149514Y0166986D01*
X0149514Y0168520D02*
X0146445Y0171590D01*
X0145677Y0171590D01*
X0147979Y0173124D02*
X0147212Y0173892D01*
X0147979Y0173124D02*
X0148747Y0173124D01*
X0149514Y0173892D01*
X0149514Y0175426D01*
X0148747Y0176194D01*
X0147979Y0176194D01*
X0147212Y0175426D01*
X0149514Y0171590D02*
X0149514Y0168520D01*
X0149514Y0163917D02*
X0144910Y0163917D01*
X0144910Y0166219D01*
X0145677Y0166986D01*
X0141640Y0151905D02*
X0141640Y0148835D01*
X0102710Y0148973D02*
X0102167Y0148431D01*
X0101082Y0148431D01*
X0101082Y0147346D01*
X0100539Y0146803D01*
X0099454Y0146803D01*
X0098369Y0147888D01*
X0098369Y0148973D01*
X0096741Y0149516D02*
X0094571Y0151686D01*
X0095656Y0150601D02*
X0098912Y0153857D01*
X0096741Y0153857D01*
X0096199Y0155484D02*
X0096199Y0156570D01*
X0095114Y0157655D01*
X0094029Y0157655D01*
X0091858Y0155484D01*
X0091858Y0154399D01*
X0092943Y0153314D01*
X0094029Y0153314D01*
X0100539Y0151144D02*
X0101625Y0151144D01*
X0102710Y0150059D01*
X0102710Y0148973D01*
X0101082Y0148431D02*
X0100539Y0148973D01*
X0082193Y0164716D02*
X0085262Y0167785D01*
X0085262Y0168553D01*
X0082193Y0168553D01*
X0080658Y0167785D02*
X0079891Y0168553D01*
X0078356Y0168553D01*
X0077589Y0167785D01*
X0076054Y0167785D02*
X0075287Y0168553D01*
X0073752Y0168553D01*
X0072985Y0167785D01*
X0072985Y0164716D01*
X0073752Y0163949D01*
X0075287Y0163949D01*
X0076054Y0164716D01*
X0077589Y0163949D02*
X0080658Y0167018D01*
X0080658Y0167785D01*
X0082193Y0164716D02*
X0082193Y0163949D01*
X0080658Y0163949D02*
X0077589Y0163949D01*
D15*
X0046545Y0159280D02*
X0046545Y0151406D01*
X0041033Y0151406D01*
X0041033Y0159280D01*
X0046545Y0159280D01*
X0042017Y0159871D02*
X0040442Y0159871D01*
X0040442Y0159280D01*
X0041739Y0158296D02*
X0041741Y0158329D01*
X0041747Y0158361D01*
X0041756Y0158393D01*
X0041770Y0158423D01*
X0041786Y0158451D01*
X0041806Y0158477D01*
X0041829Y0158501D01*
X0041855Y0158522D01*
X0041883Y0158539D01*
X0041913Y0158554D01*
X0041944Y0158564D01*
X0041976Y0158571D01*
X0042009Y0158574D01*
X0042042Y0158573D01*
X0042074Y0158568D01*
X0042106Y0158559D01*
X0042137Y0158547D01*
X0042165Y0158531D01*
X0042192Y0158512D01*
X0042216Y0158490D01*
X0042238Y0158465D01*
X0042256Y0158437D01*
X0042271Y0158408D01*
X0042283Y0158377D01*
X0042291Y0158345D01*
X0042295Y0158312D01*
X0042295Y0158280D01*
X0042291Y0158247D01*
X0042283Y0158215D01*
X0042271Y0158184D01*
X0042256Y0158155D01*
X0042238Y0158127D01*
X0042216Y0158102D01*
X0042192Y0158080D01*
X0042165Y0158061D01*
X0042137Y0158045D01*
X0042106Y0158033D01*
X0042074Y0158024D01*
X0042042Y0158019D01*
X0042009Y0158018D01*
X0041976Y0158021D01*
X0041944Y0158028D01*
X0041913Y0158038D01*
X0041883Y0158053D01*
X0041855Y0158070D01*
X0041829Y0158091D01*
X0041806Y0158115D01*
X0041786Y0158141D01*
X0041770Y0158169D01*
X0041756Y0158199D01*
X0041747Y0158231D01*
X0041741Y0158263D01*
X0041739Y0158296D01*
X0042214Y0071879D02*
X0042214Y0068335D01*
X0043789Y0068335D01*
X0042214Y0066761D01*
X0043789Y0066761D01*
X0042214Y0066761D02*
X0042214Y0068335D01*
X0042214Y0066761D02*
X0042214Y0066367D01*
X0042214Y0065580D02*
X0042214Y0064792D01*
X0041427Y0064792D01*
X0038277Y0064792D02*
X0037489Y0064792D01*
X0037489Y0065580D01*
X0037489Y0066367D02*
X0037489Y0067154D01*
X0035915Y0067154D01*
X0037489Y0067154D02*
X0035915Y0068729D01*
X0037489Y0068729D01*
X0037489Y0071879D01*
X0037489Y0068729D02*
X0037489Y0067154D01*
X0041427Y0056918D02*
X0041427Y0056131D01*
X0041427Y0056918D02*
X0042214Y0056918D01*
X0041427Y0055343D02*
X0041427Y0054950D01*
X0039852Y0054950D01*
X0041427Y0054950D02*
X0039852Y0053375D01*
X0041427Y0053375D01*
X0041427Y0049831D01*
X0041427Y0053375D02*
X0041427Y0054950D01*
X0045364Y0056918D02*
X0046151Y0056918D01*
X0046151Y0056131D01*
X0046151Y0055343D02*
X0046151Y0054556D01*
X0047726Y0054556D01*
X0047726Y0052981D02*
X0046151Y0052981D01*
X0046151Y0049831D01*
X0046151Y0052981D02*
X0046151Y0054556D01*
X0047726Y0052981D01*
X0092411Y0246485D02*
X0093001Y0246485D01*
X0092411Y0246485D02*
X0092411Y0248060D01*
X0093001Y0247076D02*
X0093001Y0252587D01*
X0100875Y0252587D01*
X0100875Y0247076D01*
X0093001Y0247076D01*
X0093708Y0248060D02*
X0093710Y0248093D01*
X0093716Y0248125D01*
X0093725Y0248157D01*
X0093739Y0248187D01*
X0093755Y0248215D01*
X0093775Y0248241D01*
X0093798Y0248265D01*
X0093824Y0248286D01*
X0093852Y0248303D01*
X0093882Y0248318D01*
X0093913Y0248328D01*
X0093945Y0248335D01*
X0093978Y0248338D01*
X0094011Y0248337D01*
X0094043Y0248332D01*
X0094075Y0248323D01*
X0094106Y0248311D01*
X0094134Y0248295D01*
X0094161Y0248276D01*
X0094185Y0248254D01*
X0094207Y0248229D01*
X0094225Y0248201D01*
X0094240Y0248172D01*
X0094252Y0248141D01*
X0094260Y0248109D01*
X0094264Y0248076D01*
X0094264Y0248044D01*
X0094260Y0248011D01*
X0094252Y0247979D01*
X0094240Y0247948D01*
X0094225Y0247919D01*
X0094207Y0247891D01*
X0094185Y0247866D01*
X0094161Y0247844D01*
X0094134Y0247825D01*
X0094106Y0247809D01*
X0094075Y0247797D01*
X0094043Y0247788D01*
X0094011Y0247783D01*
X0093978Y0247782D01*
X0093945Y0247785D01*
X0093913Y0247792D01*
X0093882Y0247802D01*
X0093852Y0247817D01*
X0093824Y0247834D01*
X0093798Y0247855D01*
X0093775Y0247879D01*
X0093755Y0247905D01*
X0093739Y0247933D01*
X0093725Y0247963D01*
X0093716Y0247995D01*
X0093710Y0248027D01*
X0093708Y0248060D01*
D16*
X0103590Y0235140D02*
X0103590Y0233027D01*
X0105090Y0228483D02*
X0108471Y0228483D01*
X0108471Y0239683D02*
X0105090Y0239683D01*
X0127212Y0235140D02*
X0127212Y0233027D01*
X0128712Y0228483D02*
X0132093Y0228483D01*
X0136586Y0223935D02*
X0139967Y0223935D01*
X0135086Y0219392D02*
X0135086Y0217279D01*
X0136586Y0212735D02*
X0139967Y0212735D01*
X0132093Y0239683D02*
X0128712Y0239683D01*
X0080912Y0239683D02*
X0077531Y0239683D01*
X0076031Y0235140D02*
X0076031Y0233027D01*
X0077531Y0228483D02*
X0080912Y0228483D01*
X0097244Y0066483D02*
X0097244Y0063102D01*
X0101787Y0061602D02*
X0103901Y0061602D01*
X0108444Y0063102D02*
X0108444Y0066483D01*
X0097816Y0036166D02*
X0123619Y0036166D01*
X0123618Y0011779D01*
X0097818Y0011779D02*
X0097816Y0036166D01*
X0069101Y0031633D02*
X0065720Y0031633D01*
X0064220Y0036176D02*
X0064220Y0038290D01*
X0065720Y0042833D02*
X0069101Y0042833D01*
D17*
X0058861Y0037480D02*
X0058861Y0036980D01*
X0058611Y0036730D01*
X0058360Y0036730D01*
X0058110Y0036980D01*
X0058110Y0037480D01*
X0058360Y0037730D01*
X0058611Y0037730D01*
X0058861Y0037480D01*
X0058110Y0037480D02*
X0057860Y0037730D01*
X0057610Y0037730D01*
X0057359Y0037480D01*
X0057359Y0036980D01*
X0057610Y0036730D01*
X0057860Y0036730D01*
X0058110Y0036980D01*
X0058360Y0036257D02*
X0058110Y0036007D01*
X0058110Y0035507D01*
X0057860Y0035256D01*
X0057610Y0035256D01*
X0057359Y0035507D01*
X0057359Y0036007D01*
X0057610Y0036257D01*
X0057109Y0035757D02*
X0059111Y0035757D01*
X0058861Y0036007D02*
X0058611Y0036257D01*
X0058360Y0036257D01*
X0058861Y0036007D02*
X0058861Y0035507D01*
X0058611Y0035256D01*
X0058611Y0034784D02*
X0057359Y0034784D01*
X0057359Y0033783D02*
X0058611Y0033783D01*
X0058861Y0034033D01*
X0058861Y0034534D01*
X0058611Y0034784D01*
X0103447Y0054992D02*
X0103698Y0054742D01*
X0104198Y0054742D01*
X0104448Y0054992D01*
X0104448Y0056243D01*
X0104921Y0055743D02*
X0105421Y0056243D01*
X0105421Y0054742D01*
X0104921Y0054742D02*
X0105921Y0054742D01*
X0103447Y0054992D02*
X0103447Y0056243D01*
X0125267Y0035137D02*
X0126768Y0035137D01*
X0126768Y0034637D02*
X0126768Y0035637D01*
X0125767Y0034637D02*
X0125267Y0035137D01*
X0125517Y0034164D02*
X0125267Y0033914D01*
X0125267Y0033414D01*
X0125517Y0033163D01*
X0126518Y0033163D01*
X0126768Y0033414D01*
X0126768Y0033914D01*
X0126518Y0034164D01*
X0125517Y0034164D01*
X0126267Y0033664D02*
X0126768Y0034164D01*
X0128226Y0214885D02*
X0129477Y0214885D01*
X0129727Y0215136D01*
X0129727Y0215636D01*
X0129477Y0215886D01*
X0128226Y0215886D01*
X0128476Y0216359D02*
X0128226Y0216609D01*
X0128226Y0217109D01*
X0128476Y0217360D01*
X0128476Y0217832D02*
X0128226Y0218082D01*
X0128226Y0218583D01*
X0128476Y0218833D01*
X0128726Y0218833D01*
X0129727Y0217832D01*
X0129727Y0218833D01*
X0129477Y0217360D02*
X0129226Y0217360D01*
X0128976Y0217109D01*
X0128976Y0216609D01*
X0128726Y0216359D01*
X0128476Y0216359D01*
X0127975Y0216859D02*
X0129977Y0216859D01*
X0129727Y0216609D02*
X0129727Y0217109D01*
X0129477Y0217360D01*
X0129727Y0216609D02*
X0129477Y0216359D01*
X0121603Y0230633D02*
X0121853Y0230884D01*
X0121853Y0231384D01*
X0121603Y0231634D01*
X0120352Y0231634D01*
X0120602Y0232107D02*
X0120352Y0232357D01*
X0120352Y0232857D01*
X0120602Y0233108D01*
X0120352Y0233580D02*
X0121102Y0233580D01*
X0120852Y0234080D01*
X0120852Y0234331D01*
X0121102Y0234581D01*
X0121603Y0234581D01*
X0121853Y0234331D01*
X0121853Y0233830D01*
X0121603Y0233580D01*
X0121603Y0233108D02*
X0121352Y0233108D01*
X0121102Y0232857D01*
X0121102Y0232357D01*
X0120852Y0232107D01*
X0120602Y0232107D01*
X0120101Y0232607D02*
X0122103Y0232607D01*
X0121853Y0232357D02*
X0121853Y0232857D01*
X0121603Y0233108D01*
X0121853Y0232357D02*
X0121603Y0232107D01*
X0121603Y0230633D02*
X0120352Y0230633D01*
X0120352Y0233580D02*
X0120352Y0234581D01*
X0098481Y0232607D02*
X0096479Y0232607D01*
X0096730Y0232357D02*
X0096730Y0232857D01*
X0096980Y0233108D01*
X0097480Y0232857D02*
X0097480Y0232357D01*
X0097230Y0232107D01*
X0096980Y0232107D01*
X0096730Y0232357D01*
X0096730Y0231634D02*
X0097981Y0231634D01*
X0098231Y0231384D01*
X0098231Y0230884D01*
X0097981Y0230633D01*
X0096730Y0230633D01*
X0097981Y0232107D02*
X0098231Y0232357D01*
X0098231Y0232857D01*
X0097981Y0233108D01*
X0097730Y0233108D01*
X0097480Y0232857D01*
X0097480Y0233580D02*
X0097480Y0234581D01*
X0096730Y0234331D02*
X0097480Y0233580D01*
X0096730Y0234331D02*
X0098231Y0234331D01*
X0070922Y0232607D02*
X0068920Y0232607D01*
X0069170Y0232357D02*
X0069170Y0232857D01*
X0069421Y0233108D01*
X0069921Y0232857D02*
X0069921Y0232357D01*
X0069671Y0232107D01*
X0069421Y0232107D01*
X0069170Y0232357D01*
X0069170Y0231634D02*
X0070422Y0231634D01*
X0070672Y0231384D01*
X0070672Y0230884D01*
X0070422Y0230633D01*
X0069170Y0230633D01*
X0070422Y0232107D02*
X0070672Y0232357D01*
X0070672Y0232857D01*
X0070422Y0233108D01*
X0070171Y0233108D01*
X0069921Y0232857D01*
X0069921Y0233580D02*
X0069921Y0234331D01*
X0070171Y0234581D01*
X0070422Y0234581D01*
X0070672Y0234331D01*
X0070672Y0233830D01*
X0070422Y0233580D01*
X0069921Y0233580D01*
X0069421Y0234080D01*
X0069170Y0234581D01*
D18*
X0067785Y0244831D02*
X0065285Y0247331D01*
X0065285Y0252331D01*
X0067785Y0254831D01*
X0072785Y0254831D01*
X0075285Y0252331D01*
X0077785Y0254831D01*
X0082785Y0254831D01*
X0085285Y0252331D01*
X0085285Y0247331D01*
X0082785Y0244831D01*
X0077785Y0244831D01*
X0075285Y0247331D01*
X0072785Y0244831D01*
X0067785Y0244831D01*
X0075285Y0247331D02*
X0075285Y0252331D01*
X0104655Y0252331D02*
X0104655Y0247331D01*
X0107155Y0244831D01*
X0112155Y0244831D01*
X0114655Y0247331D01*
X0114655Y0252331D01*
X0112155Y0254831D01*
X0107155Y0254831D01*
X0104655Y0252331D01*
X0114655Y0252331D02*
X0117155Y0254831D01*
X0122155Y0254831D01*
X0124655Y0252331D01*
X0124655Y0247331D01*
X0122155Y0244831D01*
X0117155Y0244831D01*
X0114655Y0247331D01*
X0081016Y0198902D02*
X0081016Y0166902D01*
X0081014Y0166826D01*
X0081008Y0166750D01*
X0080999Y0166675D01*
X0080985Y0166600D01*
X0080968Y0166526D01*
X0080947Y0166453D01*
X0080923Y0166381D01*
X0080894Y0166310D01*
X0080863Y0166241D01*
X0080828Y0166174D01*
X0080789Y0166109D01*
X0080747Y0166045D01*
X0080702Y0165984D01*
X0080654Y0165925D01*
X0080603Y0165869D01*
X0080549Y0165815D01*
X0080493Y0165764D01*
X0080434Y0165716D01*
X0080373Y0165671D01*
X0080309Y0165629D01*
X0080244Y0165590D01*
X0080177Y0165555D01*
X0080108Y0165524D01*
X0080037Y0165495D01*
X0079965Y0165471D01*
X0079892Y0165450D01*
X0079818Y0165433D01*
X0079743Y0165419D01*
X0079668Y0165410D01*
X0079592Y0165404D01*
X0079516Y0165402D01*
X0075316Y0165402D01*
X0071316Y0165402D01*
X0067116Y0165402D01*
X0067040Y0165404D01*
X0066964Y0165410D01*
X0066889Y0165419D01*
X0066814Y0165433D01*
X0066740Y0165450D01*
X0066667Y0165471D01*
X0066595Y0165495D01*
X0066524Y0165524D01*
X0066455Y0165555D01*
X0066388Y0165590D01*
X0066323Y0165629D01*
X0066259Y0165671D01*
X0066198Y0165716D01*
X0066139Y0165764D01*
X0066083Y0165815D01*
X0066029Y0165869D01*
X0065978Y0165925D01*
X0065930Y0165984D01*
X0065885Y0166045D01*
X0065843Y0166109D01*
X0065804Y0166174D01*
X0065769Y0166241D01*
X0065738Y0166310D01*
X0065709Y0166381D01*
X0065685Y0166453D01*
X0065664Y0166526D01*
X0065647Y0166600D01*
X0065633Y0166675D01*
X0065624Y0166750D01*
X0065618Y0166826D01*
X0065616Y0166902D01*
X0065616Y0198902D01*
X0065618Y0198978D01*
X0065624Y0199054D01*
X0065633Y0199129D01*
X0065647Y0199204D01*
X0065664Y0199278D01*
X0065685Y0199351D01*
X0065709Y0199423D01*
X0065738Y0199494D01*
X0065769Y0199563D01*
X0065804Y0199630D01*
X0065843Y0199695D01*
X0065885Y0199759D01*
X0065930Y0199820D01*
X0065978Y0199879D01*
X0066029Y0199935D01*
X0066083Y0199989D01*
X0066139Y0200040D01*
X0066198Y0200088D01*
X0066259Y0200133D01*
X0066323Y0200175D01*
X0066388Y0200214D01*
X0066455Y0200249D01*
X0066524Y0200280D01*
X0066595Y0200309D01*
X0066667Y0200333D01*
X0066740Y0200354D01*
X0066814Y0200371D01*
X0066889Y0200385D01*
X0066964Y0200394D01*
X0067040Y0200400D01*
X0067116Y0200402D01*
X0079516Y0200402D01*
X0079592Y0200400D01*
X0079668Y0200394D01*
X0079743Y0200385D01*
X0079818Y0200371D01*
X0079892Y0200354D01*
X0079965Y0200333D01*
X0080037Y0200309D01*
X0080108Y0200280D01*
X0080177Y0200249D01*
X0080244Y0200214D01*
X0080309Y0200175D01*
X0080373Y0200133D01*
X0080434Y0200088D01*
X0080493Y0200040D01*
X0080549Y0199989D01*
X0080603Y0199935D01*
X0080654Y0199879D01*
X0080702Y0199820D01*
X0080747Y0199759D01*
X0080789Y0199695D01*
X0080828Y0199630D01*
X0080863Y0199563D01*
X0080894Y0199494D01*
X0080923Y0199423D01*
X0080947Y0199351D01*
X0080968Y0199278D01*
X0080985Y0199204D01*
X0080999Y0199129D01*
X0081008Y0199054D01*
X0081014Y0198978D01*
X0081016Y0198902D01*
X0075316Y0165402D02*
X0075314Y0165490D01*
X0075308Y0165579D01*
X0075298Y0165667D01*
X0075285Y0165754D01*
X0075267Y0165841D01*
X0075246Y0165927D01*
X0075221Y0166012D01*
X0075192Y0166095D01*
X0075159Y0166178D01*
X0075123Y0166258D01*
X0075084Y0166337D01*
X0075041Y0166415D01*
X0074994Y0166490D01*
X0074944Y0166563D01*
X0074891Y0166634D01*
X0074835Y0166703D01*
X0074776Y0166769D01*
X0074714Y0166832D01*
X0074650Y0166892D01*
X0074583Y0166950D01*
X0074513Y0167004D01*
X0074441Y0167056D01*
X0074367Y0167104D01*
X0074290Y0167149D01*
X0074212Y0167190D01*
X0074132Y0167228D01*
X0074051Y0167262D01*
X0073968Y0167293D01*
X0073883Y0167320D01*
X0073798Y0167343D01*
X0073712Y0167362D01*
X0073624Y0167378D01*
X0073537Y0167390D01*
X0073449Y0167398D01*
X0073360Y0167402D01*
X0073272Y0167402D01*
X0073183Y0167398D01*
X0073095Y0167390D01*
X0073008Y0167378D01*
X0072920Y0167362D01*
X0072834Y0167343D01*
X0072749Y0167320D01*
X0072664Y0167293D01*
X0072581Y0167262D01*
X0072500Y0167228D01*
X0072420Y0167190D01*
X0072342Y0167149D01*
X0072265Y0167104D01*
X0072191Y0167056D01*
X0072119Y0167004D01*
X0072049Y0166950D01*
X0071982Y0166892D01*
X0071918Y0166832D01*
X0071856Y0166769D01*
X0071797Y0166703D01*
X0071741Y0166634D01*
X0071688Y0166563D01*
X0071638Y0166490D01*
X0071591Y0166415D01*
X0071548Y0166337D01*
X0071509Y0166258D01*
X0071473Y0166178D01*
X0071440Y0166095D01*
X0071411Y0166012D01*
X0071386Y0165927D01*
X0071365Y0165841D01*
X0071347Y0165754D01*
X0071334Y0165667D01*
X0071324Y0165579D01*
X0071318Y0165490D01*
X0071316Y0165402D01*
X0030167Y0121977D02*
X0030167Y0116977D01*
X0027667Y0114477D01*
X0012667Y0114477D01*
X0010167Y0116977D01*
X0010167Y0121977D01*
X0012667Y0124477D01*
X0027667Y0124477D01*
X0030167Y0121977D01*
X0027667Y0114477D02*
X0030167Y0111977D01*
X0030167Y0106977D01*
X0027667Y0104477D01*
X0012667Y0104477D01*
X0010167Y0106977D01*
X0010167Y0111977D01*
X0012667Y0114477D01*
X0012667Y0104477D02*
X0010167Y0101977D01*
X0010167Y0096977D01*
X0012667Y0094477D01*
X0027667Y0094477D01*
X0030167Y0096977D01*
X0030167Y0101977D01*
X0027667Y0104477D01*
X0027667Y0094477D02*
X0030167Y0091977D01*
X0030167Y0086977D01*
X0027667Y0084477D01*
X0012667Y0084477D01*
X0010167Y0086977D01*
X0010167Y0091977D01*
X0012667Y0094477D01*
X0012667Y0084477D02*
X0010167Y0081977D01*
X0010167Y0076977D01*
X0012667Y0074477D01*
X0027667Y0074477D01*
X0030167Y0076977D01*
X0030167Y0081977D01*
X0027667Y0084477D01*
X0027667Y0074477D02*
X0030167Y0071977D01*
X0030167Y0066977D01*
X0027667Y0064477D01*
X0012667Y0064477D01*
X0010167Y0066977D01*
X0010167Y0071977D01*
X0012667Y0074477D01*
X0012667Y0064477D02*
X0010167Y0061977D01*
X0010167Y0056977D01*
X0012667Y0054477D01*
X0027667Y0054477D01*
X0030167Y0056977D01*
X0030167Y0061977D01*
X0027667Y0064477D01*
X0027667Y0054477D02*
X0030167Y0051977D01*
X0030167Y0046977D01*
X0027667Y0044477D01*
X0012667Y0044477D01*
X0010167Y0046977D01*
X0010167Y0051977D01*
X0012667Y0054477D01*
X0013159Y0030914D02*
X0010659Y0028414D01*
X0010659Y0023414D01*
X0013159Y0020914D01*
X0018159Y0020914D01*
X0020659Y0023414D01*
X0023159Y0020914D01*
X0028159Y0020914D01*
X0030659Y0023414D01*
X0030659Y0028414D01*
X0028159Y0030914D01*
X0023159Y0030914D01*
X0020659Y0028414D01*
X0020659Y0023414D01*
X0020659Y0028414D02*
X0018159Y0030914D01*
X0013159Y0030914D01*
X0013730Y0174713D02*
X0011230Y0177213D01*
X0011230Y0182213D01*
X0013730Y0184713D01*
X0011230Y0187213D01*
X0011230Y0192213D01*
X0013730Y0194713D01*
X0018730Y0194713D01*
X0021230Y0192213D01*
X0021230Y0187213D01*
X0018730Y0184713D01*
X0021230Y0182213D01*
X0021230Y0177213D01*
X0018730Y0174713D01*
X0013730Y0174713D01*
X0013730Y0184713D02*
X0018730Y0184713D01*
X0018730Y0194713D02*
X0021230Y0197213D01*
X0021230Y0202213D01*
X0018730Y0204713D01*
X0021230Y0207213D01*
X0021230Y0212213D01*
X0018730Y0214713D01*
X0013730Y0214713D01*
X0011230Y0212213D01*
X0011230Y0207213D01*
X0013730Y0204713D01*
X0018730Y0204713D01*
X0013730Y0204713D02*
X0011230Y0202213D01*
X0011230Y0197213D01*
X0013730Y0194713D01*
D19*
X0079616Y0200402D02*
X0079616Y0165402D01*
D20*
X0110718Y0038066D03*
D21*
X0080343Y0033029D02*
X0076473Y0033029D01*
X0076957Y0032546D02*
X0076957Y0033513D01*
X0077440Y0033997D01*
X0077440Y0035008D02*
X0077924Y0035008D01*
X0078408Y0035492D01*
X0078408Y0036943D01*
X0079375Y0036943D02*
X0077440Y0036943D01*
X0076957Y0036460D01*
X0076957Y0035492D01*
X0077440Y0035008D01*
X0078892Y0033997D02*
X0078408Y0033513D01*
X0078408Y0032546D01*
X0077924Y0032062D01*
X0077440Y0032062D01*
X0076957Y0032546D01*
X0076957Y0031050D02*
X0079375Y0031050D01*
X0079859Y0030567D01*
X0079859Y0029599D01*
X0079375Y0029115D01*
X0076957Y0029115D01*
X0079375Y0032062D02*
X0079859Y0032546D01*
X0079859Y0033513D01*
X0079375Y0033997D01*
X0078892Y0033997D01*
X0079375Y0035008D02*
X0079859Y0035492D01*
X0079859Y0036460D01*
X0079375Y0036943D01*
X0028194Y0127541D02*
X0025776Y0127541D01*
X0025776Y0129476D02*
X0028194Y0129476D01*
X0028678Y0128992D01*
X0028678Y0128024D01*
X0028194Y0127541D01*
X0028194Y0130487D02*
X0028678Y0130971D01*
X0028678Y0131938D01*
X0028194Y0132422D01*
X0027711Y0132422D01*
X0027227Y0131938D01*
X0027227Y0130971D01*
X0026743Y0130487D01*
X0026259Y0130487D01*
X0025776Y0130971D01*
X0025776Y0131938D01*
X0026259Y0132422D01*
X0026743Y0133434D02*
X0025776Y0134401D01*
X0028678Y0134401D01*
X0028678Y0133434D02*
X0028678Y0135369D01*
X0028194Y0136380D02*
X0028678Y0136864D01*
X0028678Y0137831D01*
X0028194Y0138315D01*
X0027711Y0138315D01*
X0027227Y0137831D01*
X0027227Y0137348D01*
X0027227Y0137831D02*
X0026743Y0138315D01*
X0026259Y0138315D01*
X0025776Y0137831D01*
X0025776Y0136864D01*
X0026259Y0136380D01*
X0025292Y0131455D02*
X0029162Y0131455D01*
X0036671Y0159824D02*
X0037885Y0159824D01*
X0038491Y0160431D01*
X0038491Y0163464D01*
X0039690Y0162857D02*
X0040297Y0163464D01*
X0041510Y0163464D01*
X0042117Y0162857D01*
X0043315Y0162251D02*
X0044528Y0163464D01*
X0044528Y0159824D01*
X0043315Y0159824D02*
X0045742Y0159824D01*
X0046940Y0159824D02*
X0049367Y0162251D01*
X0049367Y0162857D01*
X0048760Y0163464D01*
X0047547Y0163464D01*
X0046940Y0162857D01*
X0046940Y0159824D02*
X0049367Y0159824D01*
X0042117Y0160431D02*
X0042117Y0161037D01*
X0041510Y0161644D01*
X0040297Y0161644D01*
X0039690Y0162251D01*
X0039690Y0162857D01*
X0040903Y0164071D02*
X0040903Y0159217D01*
X0040297Y0159824D02*
X0041510Y0159824D01*
X0042117Y0160431D01*
X0040297Y0159824D02*
X0039690Y0160431D01*
X0036671Y0159824D02*
X0036065Y0160431D01*
X0036065Y0163464D01*
X0088211Y0246946D02*
X0093064Y0246946D01*
X0092458Y0247553D02*
X0091851Y0248159D01*
X0091244Y0248159D01*
X0090638Y0247553D01*
X0090638Y0246339D01*
X0090031Y0245733D01*
X0089424Y0245733D01*
X0088817Y0246339D01*
X0088817Y0247553D01*
X0089424Y0248159D01*
X0090031Y0249358D02*
X0088817Y0250571D01*
X0092458Y0250571D01*
X0092458Y0249358D02*
X0092458Y0251784D01*
X0092458Y0252983D02*
X0092458Y0255410D01*
X0092458Y0254196D02*
X0088817Y0254196D01*
X0090031Y0252983D01*
X0092458Y0247553D02*
X0092458Y0246339D01*
X0091851Y0245733D01*
X0091851Y0244534D02*
X0088817Y0244534D01*
X0088817Y0242107D02*
X0091851Y0242107D01*
X0092458Y0242714D01*
X0092458Y0243928D01*
X0091851Y0244534D01*
X0130159Y0253615D02*
X0130643Y0253131D01*
X0131610Y0253131D01*
X0132094Y0253615D01*
X0132094Y0256034D01*
X0133106Y0255550D02*
X0133106Y0255066D01*
X0133589Y0254582D01*
X0134557Y0254582D01*
X0135041Y0254099D01*
X0135041Y0253615D01*
X0134557Y0253131D01*
X0133589Y0253131D01*
X0133106Y0253615D01*
X0134073Y0252647D02*
X0134073Y0256517D01*
X0133589Y0256034D02*
X0134557Y0256034D01*
X0135041Y0255550D01*
X0136052Y0255066D02*
X0137020Y0256034D01*
X0137020Y0253131D01*
X0137987Y0253131D02*
X0136052Y0253131D01*
X0138999Y0253615D02*
X0140934Y0255550D01*
X0140934Y0253615D01*
X0140450Y0253131D01*
X0139482Y0253131D01*
X0138999Y0253615D01*
X0138999Y0255550D01*
X0139482Y0256034D01*
X0140450Y0256034D01*
X0140934Y0255550D01*
X0133589Y0256034D02*
X0133106Y0255550D01*
X0130159Y0256034D02*
X0130159Y0253615D01*
D22*
X0033454Y0249241D03*
X0030501Y0249241D03*
X0025580Y0249241D03*
X0022627Y0249241D03*
X0022627Y0233493D03*
X0025580Y0233493D03*
X0030501Y0233493D03*
X0033454Y0233493D03*
D23*
X0031978Y0233493D03*
X0024104Y0233493D03*
X0024104Y0249241D03*
X0031978Y0249241D03*
M02*
