  0
SECTION
  2
HEADER
  9
$ACADVER
  1
AC1027
  9
$ACADMAINTVER
 70
    10
  9
$DWGCODEPAGE
  3
ANSI_1252
  9
$LASTSAVEDBY
  1
aja042
  9
$REQUIREDVERSIONS
160
                 0
  9
$INSBASE
 10
0.0
 20
0.0
 30
0.0
  9
$EXTMIN
 10
0.0
 20
0.0
 30
0.0
  9
$EXTMAX
 10
38.005
 20
66.0
 30
0.0
  9
$LIMMIN
 10
0.0
 20
0.0
  9
$LIMMAX
 10
12.0
 20
9.0
  9
$ORTHOMODE
 70
     0
  9
$REGENMODE
 70
     1
  9
$FILLMODE
 70
     0
  9
$QTEXTMODE
 70
     0
  9
$MIRRTEXT
 70
     0
  9
$LTSCALE
 40
1.0
  9
$ATTMODE
 70
     1
  9
$TEXTSIZE
 40
0.2
  9
$TRACEWID
 40
0.05
  9
$TEXTSTYLE
  7
Standard
  9
$CLAYER
  8
0
  9
$CELTYPE
  6
CONTINUOUS
  9
$CECOLOR
 62
   256
  9
$CELTSCALE
 40
1.0
  9
$DISPSILH
 70
     0
  9
$DIMSCALE
 40
1.0
  9
$DIMASZ
 40
0.18
  9
$DIMEXO
 40
0.0625
  9
$DIMDLI
 40
0.38
  9
$DIMRND
 40
0.0
  9
$DIMDLE
 40
0.0
  9
$DIMEXE
 40
0.18
  9
$DIMTP
 40
0.0
  9
$DIMTM
 40
0.0
  9
$DIMTXT
 40
0.18
  9
$DIMCEN
 40
0.09
  9
$DIMTSZ
 40
0.0
  9
$DIMTOL
 70
     0
  9
$DIMLIM
 70
     0
  9
$DIMTIH
 70
     1
  9
$DIMTOH
 70
     1
  9
$DIMSE1
 70
     0
  9
$DIMSE2
 70
     0
  9
$DIMTAD
 70
     0
  9
$DIMZIN
 70
     0
  9
$DIMBLK
  1

  9
$DIMASO
 70
     1
  9
$DIMSHO
 70
     1
  9
$DIMPOST
  1

  9
$DIMAPOST
  1

  9
$DIMALT
 70
     0
  9
$DIMALTD
 70
     2
  9
$DIMALTF
 40
25.4
  9
$DIMLFAC
 40
1.0
  9
$DIMTOFL
 70
     0
  9
$DIMTVP
 40
0.0
  9
$DIMTIX
 70
     0
  9
$DIMSOXD
 70
     0
  9
$DIMSAH
 70
     0
  9
$DIMBLK1
  1

  9
$DIMBLK2
  1

  9
$DIMSTYLE
  2
Standard
  9
$DIMCLRD
 70
     0
  9
$DIMCLRE
 70
     0
  9
$DIMCLRT
 70
     0
  9
$DIMTFAC
 40
1.0
  9
$DIMGAP
 40
0.09
  9
$DIMJUST
 70
     0
  9
$DIMSD1
 70
     0
  9
$DIMSD2
 70
     0
  9
$DIMTOLJ
 70
     1
  9
$DIMTZIN
 70
     0
  9
$DIMALTZ
 70
     0
  9
$DIMALTTZ
 70
     0
  9
$DIMUPT
 70
     0
  9
$DIMDEC
 70
     4
  9
$DIMTDEC
 70
     4
  9
$DIMALTU
 70
     2
  9
$DIMALTTD
 70
     2
  9
$DIMTXSTY
  7
Standard
  9
$DIMAUNIT
 70
     0
  9
$DIMADEC
 70
     0
  9
$DIMALTRND
 40
0.0
  9
$DIMAZIN
 70
     0
  9
$DIMDSEP
 70
    46
  9
$DIMATFIT
 70
     3
  9
$DIMFRAC
 70
     0
  9
$DIMLDRBLK
  1

  9
$DIMLUNIT
 70
     2
  9
$DIMLWD
 70
    -2
  9
$DIMLWE
 70
    -2
  9
$DIMTMOVE
 70
     0
  9
$DIMFXL
 40
1.0
  9
$DIMFXLON
 70
     0
  9
$DIMJOGANG
 40
0.7853981633974483
  9
$DIMTFILL
 70
     0
  9
$DIMTFILLCLR
 70
     0
  9
$DIMARCSYM
 70
     0
  9
$DIMLTYPE
  6

  9
$DIMLTEX1
  6

  9
$DIMLTEX2
  6

  9
$DIMTXTDIRECTION
 70
     0
  9
$LUNITS
 70
     2
  9
$LUPREC
 70
     4
  9
$SKETCHINC
 40
0.1
  9
$FILLETRAD
 40
0.0
  9
$AUNITS
 70
     0
  9
$AUPREC
 70
     0
  9
$MENU
  1
.
  9
$ELEVATION
 40
0.0
  9
$PELEVATION
 40
0.0
  9
$THICKNESS
 40
0.0
  9
$LIMCHECK
 70
     0
  9
$CHAMFERA
 40
0.0
  9
$CHAMFERB
 40
0.0
  9
$CHAMFERC
 40
0.0
  9
$CHAMFERD
 40
0.0
  9
$SKPOLY
 70
     0
  9
$TDCREATE
 40
2457130.450808588
  9
$TDUCREATE
 40
2457130.700808588
  9
$TDUPDATE
 40
2457130.451834479
  9
$TDUUPDATE
 40
2457130.701834479
  9
$TDINDWG
 40
0.0010259838
  9
$TDUSRTIMER
 40
0.0010259838
  9
$USRTIMER
 70
     1
  9
$ANGBASE
 50
0.0
  9
$ANGDIR
 70
     0
  9
$PDMODE
 70
     0
  9
$PDSIZE
 40
0.0
  9
$PLINEWID
 40
0.0
  9
$SPLFRAME
 70
     0
  9
$SPLINETYPE
 70
     6
  9
$SPLINESEGS
 70
     8
  9
$HANDSEED
  5
3DC
  9
$SURFTAB1
 70
     6
  9
$SURFTAB2
 70
     6
  9
$SURFTYPE
 70
     6
  9
$SURFU
 70
     6
  9
$SURFV
 70
     6
  9
$UCSBASE
  2

  9
$UCSNAME
  2

  9
$UCSORG
 10
0.0
 20
0.0
 30
0.0
  9
$UCSXDIR
 10
1.0
 20
0.0
 30
0.0
  9
$UCSYDIR
 10
0.0
 20
1.0
 30
0.0
  9
$UCSORTHOREF
  2

  9
$UCSORTHOVIEW
 70
     0
  9
$UCSORGTOP
 10
0.0
 20
0.0
 30
0.0
  9
$UCSORGBOTTOM
 10
0.0
 20
0.0
 30
0.0
  9
$UCSORGLEFT
 10
0.0
 20
0.0
 30
0.0
  9
$UCSORGRIGHT
 10
0.0
 20
0.0
 30
0.0
  9
$UCSORGFRONT
 10
0.0
 20
0.0
 30
0.0
  9
$UCSORGBACK
 10
0.0
 20
0.0
 30
0.0
  9
$PUCSBASE
  2

  9
$PUCSNAME
  2

  9
$PUCSORG
 10
0.0
 20
0.0
 30
0.0
  9
$PUCSXDIR
 10
1.0
 20
0.0
 30
0.0
  9
$PUCSYDIR
 10
0.0
 20
1.0
 30
0.0
  9
$PUCSORTHOREF
  2

  9
$PUCSORTHOVIEW
 70
     0
  9
$PUCSORGTOP
 10
0.0
 20
0.0
 30
0.0
  9
$PUCSORGBOTTOM
 10
0.0
 20
0.0
 30
0.0
  9
$PUCSORGLEFT
 10
0.0
 20
0.0
 30
0.0
  9
$PUCSORGRIGHT
 10
0.0
 20
0.0
 30
0.0
  9
$PUCSORGFRONT
 10
0.0
 20
0.0
 30
0.0
  9
$PUCSORGBACK
 10
0.0
 20
0.0
 30
0.0
  9
$USERI1
 70
     0
  9
$USERI2
 70
     0
  9
$USERI3
 70
     0
  9
$USERI4
 70
     0
  9
$USERI5
 70
     0
  9
$USERR1
 40
0.0
  9
$USERR2
 40
0.0
  9
$USERR3
 40
0.0
  9
$USERR4
 40
0.0
  9
$USERR5
 40
0.0
  9
$WORLDVIEW
 70
     1
  9
$SHADEDGE
 70
     3
  9
$SHADEDIF
 70
    70
  9
$TILEMODE
 70
     1
  9
$MAXACTVP
 70
    64
  9
$PINSBASE
 10
0.0
 20
0.0
 30
0.0
  9
$PLIMCHECK
 70
     0
  9
$PEXTMIN
 10
1.000000000000000E+20
 20
1.000000000000000E+20
 30
1.000000000000000E+20
  9
$PEXTMAX
 10
-1.000000000000000E+20
 20
-1.000000000000000E+20
 30
-1.000000000000000E+20
  9
$PLIMMIN
 10
0.0
 20
0.0
  9
$PLIMMAX
 10
12.0
 20
9.0
  9
$UNITMODE
 70
     0
  9
$VISRETAIN
 70
     1
  9
$PLINEGEN
 70
     0
  9
$PSLTSCALE
 70
     1
  9
$TREEDEPTH
 70
  3020
  9
$CMLSTYLE
  2
Standard
  9
$CMLJUST
 70
     0
  9
$CMLSCALE
 40
1.0
  9
$PROXYGRAPHICS
 70
     1
  9
$MEASUREMENT
 70
     0
  9
$CELWEIGHT
370
    -1
  9
$ENDCAPS
280
     0
  9
$JOINSTYLE
280
     0
  9
$LWDISPLAY
290
     0
  9
$INSUNITS
 70
     0
  9
$HYPERLINKBASE
  1

  9
$STYLESHEET
  1

  9
$XEDIT
290
     1
  9
$CEPSNTYPE
380
     0
  9
$PSTYLEMODE
290
     1
  9
$FINGERPRINTGUID
  2
{46FD6736-5FFC-094B-9AE6-87B71C15771E}
  9
$VERSIONGUID
  2
{5C3A78C0-83B8-384B-9980-DBEAD2758324}
  9
$EXTNAMES
290
     1
  9
$PSVPSCALE
 40
0.0
  9
$OLESTARTUP
290
     0
  9
$SORTENTS
280
   127
  9
$INDEXCTL
280
     0
  9
$HIDETEXT
280
     0
  9
$XCLIPFRAME
280
     2
  9
$HALOGAP
280
     0
  9
$OBSCOLOR
 70
   257
  9
$OBSLTYPE
280
     0
  9
$INTERSECTIONDISPLAY
280
     0
  9
$INTERSECTIONCOLOR
 70
   257
  9
$DIMASSOC
280
     1
  9
$PROJECTNAME
  1

  9
$CAMERADISPLAY
290
     0
  9
$LENSLENGTH
 40
50.0
  9
$CAMERAHEIGHT
 40
0.0
  9
$STEPSPERSEC
 40
2.0
  9
$STEPSIZE
 40
6.0
  9
$3DDWFPREC
 40
2.0
  9
$PSOLWIDTH
 40
0.25
  9
$PSOLHEIGHT
 40
4.0
  9
$LOFTANG1
 40
1.570796326794896
  9
$LOFTANG2
 40
1.570796326794896
  9
$LOFTMAG1
 40
0.0
  9
$LOFTMAG2
 40
0.0
  9
$LOFTPARAM
 70
     7
  9
$LOFTNORMALS
280
     1
  9
$LATITUDE
 40
37.795
  9
$LONGITUDE
 40
-122.394
  9
$NORTHDIRECTION
 40
0.0
  9
$TIMEZONE
 70
 -8000
  9
$LIGHTGLYPHDISPLAY
280
     1
  9
$TILEMODELIGHTSYNCH
280
     1
  9
$CMATERIAL
347
11
  9
$SOLIDHIST
280
     0
  9
$SHOWHIST
280
     1
  9
$DWFFRAME
280
     2
  9
$DGNFRAME
280
     0
  9
$REALWORLDSCALE
290
     1
  9
$INTERFERECOLOR
 62
     1
  9
$INTERFEREOBJVS
345
33
  9
$INTERFEREVPVS
346
30
  9
$CSHADOW
280
     0
  9
$SHADOWPLANELOCATION
 40
0.0
  0
ENDSEC
  0
SECTION
  2
CLASSES
  0
CLASS
  1
ACDBDICTIONARYWDFLT
  2
AcDbDictionaryWithDefault
  3
ObjectDBX Classes
 90
        0
 91
        1
280
     0
281
     0
  0
CLASS
  1
MATERIAL
  2
AcDbMaterial
  3
ObjectDBX Classes
 90
     1153
 91
        3
280
     0
281
     0
  0
CLASS
  1
VISUALSTYLE
  2
AcDbVisualStyle
  3
ObjectDBX Classes
 90
     4095
 91
       24
280
     0
281
     0
  0
CLASS
  1
SCALE
  2
AcDbScale
  3
ObjectDBX Classes
 90
     1153
 91
       17
280
     0
281
     0
  0
CLASS
  1
TABLESTYLE
  2
AcDbTableStyle
  3
ObjectDBX Classes
 90
     4095
 91
        1
280
     0
281
     0
  0
CLASS
  1
MLEADERSTYLE
  2
AcDbMLeaderStyle
  3
ACDB_MLEADERSTYLE_CLASS
 90
     4095
 91
        1
280
     0
281
     0
  0
CLASS
  1
ACDBSECTIONVIEWSTYLE
  2
AcDbSectionViewStyle
  3
ObjectDBX Classes
 90
     1025
 91
        1
280
     0
281
     0
  0
CLASS
  1
ACDBDETAILVIEWSTYLE
  2
AcDbDetailViewStyle
  3
ObjectDBX Classes
 90
     1025
 91
        1
280
     0
281
     0
  0
CLASS
  1
SOLID_BACKGROUND
  2
AcDbSolidBackground
  3
SCENEOE
 90
     4095
 91
        1
280
     0
281
     0
  0
CLASS
  1
NPOCOLLECTION
  2
AcDbImpNonPersistentObjectsCollection
  3
ObjectDBX Classes
 90
     1153
 91
        1
280
     0
281
     0
  0
CLASS
  1
DICTIONARYVAR
  2
AcDbDictionaryVar
  3
ObjectDBX Classes
 90
        0
 91
        9
280
     0
281
     0
  0
CLASS
  1
CELLSTYLEMAP
  2
AcDbCellStyleMap
  3
ObjectDBX Classes
 90
     1152
 91
        1
280
     0
281
     0
  0
ENDSEC
  0
SECTION
  2
TABLES
  0
TABLE
  2
VPORT
  5
8
330
0
100
AcDbSymbolTable
 70
     1
  0
VPORT
  5
77
330
8
100
AcDbSymbolTableRecord
100
AcDbViewportTableRecord
  2
*Active
 70
     0
 10
0.0
 20
0.0
 11
1.0
 21
1.0
 12
-0.3401650553792397
 22
-4.928197243739944
 13
0.0
 23
0.0
 14
1.0
 24
1.0
 15
0.0
 25
0.0
 16
-0.0000000000000355
 26
0.0
 36
152.703198387671
 17
19.00250053405762
 27
33.0
 37
0.0
 40
13.92368105698082
 41
1.288488210818308
 42
50.0
 43
0.0
 44
0.0
 50
0.0
 51
0.0
 71
     0
 72
   100
 73
     1
 74
     1
 75
     0
 76
     0
 77
     0
 78
     0
281
     0
 65
     1
110
0.0
120
0.0
130
0.0
111
1.0
121
0.0
131
0.0
112
0.0
122
1.0
132
0.0
 79
     0
146
0.0
348
2F
 60
     3
 61
     5
292
     1
282
     1
141
0.0
142
0.0
 63
   250
421
  3355443
1001
ACAD_NAV_VCDISPLAY
1070
     3
  0
ENDTAB
  0
TABLE
  2
LTYPE
  5
5
330
0
100
AcDbSymbolTable
 70
     2
  0
LTYPE
  5
5A
330
5
100
AcDbSymbolTableRecord
100
AcDbLinetypeTableRecord
  2
ByBlock
 70
     0
  3

 72
    65
 73
     0
 40
0.0
  0
LTYPE
  5
5B
330
5
100
AcDbSymbolTableRecord
100
AcDbLinetypeTableRecord
  2
ByLayer
 70
     0
  3

 72
    65
 73
     0
 40
0.0
  0
LTYPE
  5
5C
330
5
100
AcDbSymbolTableRecord
100
AcDbLinetypeTableRecord
  2
CONTINUOUS
 70
     0
  3
Solid line
 72
    65
 73
     0
 40
0.0
  0
LTYPE
  5
68
330
5
100
AcDbSymbolTableRecord
100
AcDbLinetypeTableRecord
  2
PHANTOM2
 70
     0
  3
Phantom (.5x) ___ _ _ ___ _ _ ___ _ _ ___ _ _
 72
    65
 73
     6
 40
1.25
 49
0.625
 74
     0
 49
-0.125
 74
     0
 49
0.125
 74
     0
 49
-0.125
 74
     0
 49
0.125
 74
     0
 49
-0.125
 74
     0
  0
ENDTAB
  0
TABLE
  2
LAYER
  5
2
102
{ACAD_XDICTIONARY
360
3C8
102
}
330
0
100
AcDbSymbolTable
 70
     3
  0
LAYER
  5
54
102
{ACAD_XDICTIONARY
360
3BF
102
}
330
2
100
AcDbSymbolTableRecord
100
AcDbLayerTableRecord
  2
0
 70
     0
 62
     7
  6
CONTINUOUS
370
    -3
390
F
347
21
348
0
  0
LAYER
  5
74
102
{ACAD_XDICTIONARY
360
3C1
102
}
330
2
100
AcDbSymbolTableRecord
100
AcDbLayerTableRecord
  2
20
 70
     0
 62
     7
  6
CONTINUOUS
370
    -3
390
F
347
21
348
0
  0
LAYER
  5
75
102
{ACAD_XDICTIONARY
360
3C3
102
}
330
2
100
AcDbSymbolTableRecord
100
AcDbLayerTableRecord
  2
31
 70
     0
 62
   253
  6
CONTINUOUS
370
    -3
390
F
347
21
348
0
  0
ENDTAB
  0
TABLE
  2
STYLE
  5
3
330
0
100
AcDbSymbolTable
 70
     2
  0
STYLE
  5
55
330
3
100
AcDbSymbolTableRecord
100
AcDbTextStyleTableRecord
  2
Standard
 70
     0
 40
0.0
 41
1.0
 50
0.0
 71
     0
 42
0.2
  3
txt
  4

  0
STYLE
  5
59
330
3
100
AcDbSymbolTableRecord
100
AcDbTextStyleTableRecord
  2
Annotative
 70
     0
 40
0.0
 41
1.0
 50
0.0
 71
     0
 42
0.2
  3
txt
  4

1001
AcadAnnotative
1000
AnnotativeData
1002
{
1070
     1
1070
     1
1002
}
  0
ENDTAB
  0
TABLE
  2
VIEW
  5
6
330
0
100
AcDbSymbolTable
 70
     1
  0
ENDTAB
  0
TABLE
  2
UCS
  5
7
330
0
100
AcDbSymbolTable
 70
     0
  0
ENDTAB
  0
TABLE
  2
APPID
  5
9
330
0
100
AcDbSymbolTable
 70
     3
  0
APPID
  5
56
330
9
100
AcDbSymbolTableRecord
100
AcDbRegAppTableRecord
  2
ACAD
 70
     0
  0
APPID
  5
5D
330
9
100
AcDbSymbolTableRecord
100
AcDbRegAppTableRecord
  2
AcadAnnotative
 70
     0
  0
APPID
  5
3D8
330
9
100
AcDbSymbolTableRecord
100
AcDbRegAppTableRecord
  2
ACAD_NAV_VCDISPLAY
 70
     0
  0
ENDTAB
  0
TABLE
  2
DIMSTYLE
  5
A
330
0
100
AcDbSymbolTable
 70
     2
100
AcDbDimStyleTable
 71
     0
  0
DIMSTYLE
105
57
330
A
100
AcDbSymbolTableRecord
100
AcDbDimStyleTableRecord
  2
Standard
 70
     0
340
55
  0
DIMSTYLE
105
58
330
A
100
AcDbSymbolTableRecord
100
AcDbDimStyleTableRecord
  2
Annotative
 70
     0
340
55
1001
AcadAnnotative
1000
AnnotativeData
1002
{
1070
     1
1070
     1
1002
}
  0
ENDTAB
  0
TABLE
  2
BLOCK_RECORD
  5
1
330
0
100
AcDbSymbolTable
 70
    13
  0
BLOCK_RECORD
  5
70
330
1
100
AcDbSymbolTableRecord
100
AcDbBlockTableRecord
  2
*Model_Space
340
73
 70
     0
280
     1
281
     0
  0
BLOCK_RECORD
  5
6C
330
1
100
AcDbSymbolTableRecord
100
AcDbBlockTableRecord
  2
*Paper_Space
340
6F
 70
     0
280
     1
281
     0
  0
BLOCK_RECORD
  5
78
330
1
100
AcDbSymbolTableRecord
100
AcDbBlockTableRecord
  2
RECT
340
0
 70
     0
280
     1
281
     0
  0
BLOCK_RECORD
  5
7C
330
1
100
AcDbSymbolTableRecord
100
AcDbBlockTableRecord
  2
PIE
340
0
 70
     0
280
     1
281
     0
  0
BLOCK_RECORD
  5
80
330
1
100
AcDbSymbolTableRecord
100
AcDbBlockTableRecord
  2
OCTAGONP
340
0
 70
     0
280
     1
281
     0
  0
BLOCK_RECORD
  5
8D
330
1
100
AcDbSymbolTableRecord
100
AcDbBlockTableRecord
  2
SQUAREP
340
0
 70
     0
280
     1
281
     0
  0
BLOCK_RECORD
  5
91
330
1
100
AcDbSymbolTableRecord
100
AcDbBlockTableRecord
  2
ROUNDP
340
0
 70
     0
280
     1
281
     0
  0
BLOCK_RECORD
  5
95
330
1
100
AcDbSymbolTableRecord
100
AcDbBlockTableRecord
  2
ANNULUSP
340
0
 70
     0
280
     1
281
     0
  0
BLOCK_RECORD
  5
99
330
1
100
AcDbSymbolTableRecord
100
AcDbBlockTableRecord
  2
THERMALP
340
0
 70
     0
280
     1
281
     0
  0
BLOCK_RECORD
  5
A0
330
1
100
AcDbSymbolTableRecord
100
AcDbBlockTableRecord
  2
OCTAGONV
340
0
 70
     0
280
     1
281
     0
  0
BLOCK_RECORD
  5
AD
330
1
100
AcDbSymbolTableRecord
100
AcDbBlockTableRecord
  2
SQUAREV
340
0
 70
     0
280
     1
281
     0
  0
BLOCK_RECORD
  5
B1
330
1
100
AcDbSymbolTableRecord
100
AcDbBlockTableRecord
  2
ROUNDV
340
0
 70
     0
280
     1
281
     0
  0
BLOCK_RECORD
  5
B5
330
1
100
AcDbSymbolTableRecord
100
AcDbBlockTableRecord
  2
ANNULUSV
340
0
 70
     0
280
     1
281
     0
  0
BLOCK_RECORD
  5
B9
330
1
100
AcDbSymbolTableRecord
100
AcDbBlockTableRecord
  2
THERMALV
340
0
 70
     0
280
     1
281
     0
  0
BLOCK_RECORD
  5
C0
330
1
100
AcDbSymbolTableRecord
100
AcDbBlockTableRecord
  2
LONGP100
340
0
 70
     0
280
     1
281
     0
  0
ENDTAB
  0
ENDSEC
  0
SECTION
  2
BLOCKS
  0
BLOCK
  5
71
330
70
100
AcDbEntity
  8
0
100
AcDbBlockBegin
  2
*Model_Space
 70
     0
 10
0.0
 20
0.0
 30
0.0
  3
*Model_Space
  1

  0
ENDBLK
  5
72
330
70
100
AcDbEntity
  8
0
100
AcDbBlockEnd
  0
BLOCK
  5
6D
330
6C
100
AcDbEntity
 67
     1
  8
0
100
AcDbBlockBegin
  2
*Paper_Space
 70
     0
 10
0.0
 20
0.0
 30
0.0
  3
*Paper_Space
  1

  0
ENDBLK
  5
6E
330
6C
100
AcDbEntity
 67
     1
  8
0
100
AcDbBlockEnd
  0
BLOCK
  5
79
330
78
100
AcDbEntity
  8
0
100
AcDbBlockBegin
  2
RECT
 70
     0
 10
0.0
 20
0.0
 30
0.0
  3
RECT
  1

  0
SOLID
  5
7A
330
78
100
AcDbEntity
  8
0
100
AcDbTrace
 10
-0.5
 20
-0.5
 30
0.0
 11
0.5
 21
-0.5
 31
0.0
 12
-0.5
 22
0.5
 32
0.0
 13
0.5
 23
0.5
 33
0.0
  0
ENDBLK
  5
7B
330
78
100
AcDbEntity
  8
0
100
AcDbBlockEnd
  0
BLOCK
  5
7D
330
7C
100
AcDbEntity
  8
0
100
AcDbBlockBegin
  2
PIE
 70
     0
 10
0.0
 20
0.0
 30
0.0
  3
PIE
  1

  0
CIRCLE
  5
7E
330
7C
100
AcDbEntity
  8
0
100
AcDbCircle
 10
0.0
 20
0.0
 30
0.0
 40
0.5
  0
ENDBLK
  5
7F
330
7C
100
AcDbEntity
  8
0
100
AcDbBlockEnd
  0
BLOCK
  5
81
330
80
100
AcDbEntity
  8
0
100
AcDbBlockBegin
  2
OCTAGONP
 70
     0
 10
0.0
 20
0.0
 30
0.0
  3
OCTAGONP
  1

  0
LWPOLYLINE
  5
82
330
80
100
AcDbEntity
  8
0
100
AcDbPolyline
 90
        8
 70
     1
 43
0.0
 10
-0.5
 20
-0.2071
 10
-0.5
 20
0.2071
 10
-0.2071
 20
0.5
 10
0.2071
 20
0.5
 10
0.5
 20
0.2071
 10
0.5
 20
-0.2071
 10
0.2071
 20
-0.5
 10
-0.2071
 20
-0.5
  0
ENDBLK
  5
8C
330
80
100
AcDbEntity
  8
0
100
AcDbBlockEnd
  0
BLOCK
  5
8E
330
8D
100
AcDbEntity
  8
0
100
AcDbBlockBegin
  2
SQUAREP
 70
     0
 10
0.0
 20
0.0
 30
0.0
  3
SQUAREP
  1

  0
SOLID
  5
8F
330
8D
100
AcDbEntity
  8
0
100
AcDbTrace
 10
-0.5
 20
-0.5
 30
0.0
 11
0.5
 21
-0.5
 31
0.0
 12
-0.5
 22
0.5
 32
0.0
 13
0.5
 23
0.5
 33
0.0
  0
ENDBLK
  5
90
330
8D
100
AcDbEntity
  8
0
100
AcDbBlockEnd
  0
BLOCK
  5
92
330
91
100
AcDbEntity
  8
0
100
AcDbBlockBegin
  2
ROUNDP
 70
     0
 10
0.0
 20
0.0
 30
0.0
  3
ROUNDP
  1

  0
CIRCLE
  5
93
330
91
100
AcDbEntity
  8
0
100
AcDbCircle
 10
0.0
 20
0.0
 30
0.0
 40
0.5
  0
ENDBLK
  5
94
330
91
100
AcDbEntity
  8
0
100
AcDbBlockEnd
  0
BLOCK
  5
96
330
95
100
AcDbEntity
  8
0
100
AcDbBlockBegin
  2
ANNULUSP
 70
     0
 10
0.0
 20
0.0
 30
0.0
  3
ANNULUSP
  1

  0
CIRCLE
  5
97
330
95
100
AcDbEntity
  8
0
100
AcDbCircle
 10
0.0
 20
0.0
 30
0.0
 40
0.5
  0
ENDBLK
  5
98
330
95
100
AcDbEntity
  8
0
100
AcDbBlockEnd
  0
BLOCK
  5
9A
330
99
100
AcDbEntity
  8
0
100
AcDbBlockBegin
  2
THERMALP
 70
     0
 10
0.0
 20
0.0
 30
0.0
  3
THERMALP
  1

  0
LINE
  5
9B
330
99
100
AcDbEntity
  8
0
100
AcDbLine
 10
-0.2379
 20
0.45
 30
0.0
 11
0.2379
 21
0.45
 31
0.0
  0
LINE
  5
9C
330
99
100
AcDbEntity
  8
0
100
AcDbLine
 10
0.45
 20
0.2379
 30
0.0
 11
0.45
 21
-0.2379
 31
0.0
  0
LINE
  5
9D
330
99
100
AcDbEntity
  8
0
100
AcDbLine
 10
0.2379
 20
-0.45
 30
0.0
 11
-0.2379
 21
-0.45
 31
0.0
  0
LINE
  5
9E
330
99
100
AcDbEntity
  8
0
100
AcDbLine
 10
-0.45
 20
-0.2379
 30
0.0
 11
-0.45
 21
0.2379
 31
0.0
  0
ENDBLK
  5
9F
330
99
100
AcDbEntity
  8
0
100
AcDbBlockEnd
  0
BLOCK
  5
A1
330
A0
100
AcDbEntity
  8
0
100
AcDbBlockBegin
  2
OCTAGONV
 70
     0
 10
0.0
 20
0.0
 30
0.0
  3
OCTAGONV
  1

  0
LWPOLYLINE
  5
A2
330
A0
100
AcDbEntity
  8
0
100
AcDbPolyline
 90
        8
 70
     1
 43
0.0
 10
-0.5
 20
-0.2071
 10
-0.5
 20
0.2071
 10
-0.2071
 20
0.5
 10
0.2071
 20
0.5
 10
0.5
 20
0.2071
 10
0.5
 20
-0.2071
 10
0.2071
 20
-0.5
 10
-0.2071
 20
-0.5
  0
ENDBLK
  5
AC
330
A0
100
AcDbEntity
  8
0
100
AcDbBlockEnd
  0
BLOCK
  5
AE
330
AD
100
AcDbEntity
  8
0
100
AcDbBlockBegin
  2
SQUAREV
 70
     0
 10
0.0
 20
0.0
 30
0.0
  3
SQUAREV
  1

  0
SOLID
  5
AF
330
AD
100
AcDbEntity
  8
0
100
AcDbTrace
 10
-0.5
 20
-0.5
 30
0.0
 11
0.5
 21
-0.5
 31
0.0
 12
-0.5
 22
0.5
 32
0.0
 13
0.5
 23
0.5
 33
0.0
  0
ENDBLK
  5
B0
330
AD
100
AcDbEntity
  8
0
100
AcDbBlockEnd
  0
BLOCK
  5
B2
330
B1
100
AcDbEntity
  8
0
100
AcDbBlockBegin
  2
ROUNDV
 70
     0
 10
0.0
 20
0.0
 30
0.0
  3
ROUNDV
  1

  0
CIRCLE
  5
B3
330
B1
100
AcDbEntity
  8
0
100
AcDbCircle
 10
0.0
 20
0.0
 30
0.0
 40
0.5
  0
ENDBLK
  5
B4
330
B1
100
AcDbEntity
  8
0
100
AcDbBlockEnd
  0
BLOCK
  5
B6
330
B5
100
AcDbEntity
  8
0
100
AcDbBlockBegin
  2
ANNULUSV
 70
     0
 10
0.0
 20
0.0
 30
0.0
  3
ANNULUSV
  1

  0
CIRCLE
  5
B7
330
B5
100
AcDbEntity
  8
0
100
AcDbCircle
 10
0.0
 20
0.0
 30
0.0
 40
0.5
  0
ENDBLK
  5
B8
330
B5
100
AcDbEntity
  8
0
100
AcDbBlockEnd
  0
BLOCK
  5
BA
330
B9
100
AcDbEntity
  8
0
100
AcDbBlockBegin
  2
THERMALV
 70
     0
 10
0.0
 20
0.0
 30
0.0
  3
THERMALV
  1

  0
LINE
  5
BB
330
B9
100
AcDbEntity
  8
0
100
AcDbLine
 10
-0.2379
 20
0.45
 30
0.0
 11
0.2379
 21
0.45
 31
0.0
  0
LINE
  5
BC
330
B9
100
AcDbEntity
  8
0
100
AcDbLine
 10
0.45
 20
0.2379
 30
0.0
 11
0.45
 21
-0.2379
 31
0.0
  0
LINE
  5
BD
330
B9
100
AcDbEntity
  8
0
100
AcDbLine
 10
0.2379
 20
-0.45
 30
0.0
 11
-0.2379
 21
-0.45
 31
0.0
  0
LINE
  5
BE
330
B9
100
AcDbEntity
  8
0
100
AcDbLine
 10
-0.45
 20
-0.2379
 30
0.0
 11
-0.45
 21
0.2379
 31
0.0
  0
ENDBLK
  5
BF
330
B9
100
AcDbEntity
  8
0
100
AcDbBlockEnd
  0
BLOCK
  5
C1
330
C0
100
AcDbEntity
  8
0
100
AcDbBlockBegin
  2
LONGP100
 70
     0
 10
0.0
 20
0.0
 30
0.0
  3
LONGP100
  1

  0
LWPOLYLINE
  5
C2
330
C0
100
AcDbEntity
  8
0
100
AcDbPolyline
 90
        4
 70
     1
 43
0.0
 10
-0.5
 20
-0.5
 10
0.5
 20
-0.5
 42
1.0
 10
0.5
 20
0.5
 10
-0.5
 20
0.5
 42
1.0
  0
ENDBLK
  5
C8
330
C0
100
AcDbEntity
  8
0
100
AcDbBlockEnd
  0
ENDSEC
  0
SECTION
  2
ENTITIES
  0
LINE
  5
C9
330
70
100
AcDbEntity
  8
20
100
AcDbLine
 10
0.0
 20
0.0
 30
0.0
 11
38.005
 21
0.0
 31
0.0
  0
LINE
  5
CA
330
70
100
AcDbEntity
  8
20
100
AcDbLine
 10
38.005
 20
0.0
 30
0.0
 11
38.0
 21
66.0
 31
0.0
  0
LINE
  5
CB
330
70
100
AcDbEntity
  8
20
100
AcDbLine
 10
38.0
 20
66.0
 30
0.0
 11
0.0
 21
66.0
 31
0.0
  0
LINE
  5
CC
330
70
100
AcDbEntity
  8
20
100
AcDbLine
 10
0.0
 20
66.0
 30
0.0
 11
0.0
 21
0.0
 31
0.0
  0
CIRCLE
  5
CD
330
70
100
AcDbEntity
  8
20
100
AcDbCircle
 10
35.0
 20
10.0
 30
0.0
 40
1.5494
  0
CIRCLE
  5
CE
330
70
100
AcDbEntity
  8
20
100
AcDbCircle
 10
35.0
 20
30.0
 30
0.0
 40
1.5494
  0
SOLID
  5
2C6
330
70
100
AcDbEntity
  8
0
100
AcDbTrace
 10
26.225
 20
15.2999
 30
0.0
 11
25.675
 21
15.2999
 31
0.0
 12
26.225
 22
14.0999
 32
0.0
 13
25.675
 23
14.0999
 33
0.0
  0
SOLID
  5
2C7
330
70
100
AcDbEntity
  8
0
100
AcDbTrace
 10
24.325
 20
15.2999
 30
0.0
 11
23.775
 21
15.2999
 31
0.0
 12
24.325
 22
14.0999
 32
0.0
 13
23.775
 23
14.0999
 33
0.0
  0
SOLID
  5
2C8
330
70
100
AcDbEntity
  8
0
100
AcDbTrace
 10
24.325
 20
17.9001
 30
0.0
 11
23.775
 21
17.9001
 31
0.0
 12
24.325
 22
16.7001
 32
0.0
 13
23.775
 23
16.7001
 33
0.0
  0
SOLID
  5
2C9
330
70
100
AcDbEntity
  8
0
100
AcDbTrace
 10
25.275
 20
17.9001
 30
0.0
 11
24.725
 21
17.9001
 31
0.0
 12
25.275
 22
16.7001
 32
0.0
 13
24.725
 23
16.7001
 33
0.0
  0
SOLID
  5
2CA
330
70
100
AcDbEntity
  8
0
100
AcDbTrace
 10
26.225
 20
17.9001
 30
0.0
 11
25.675
 21
17.9001
 31
0.0
 12
26.225
 22
16.7001
 32
0.0
 13
25.675
 23
16.7001
 33
0.0
  0
SOLID
  5
2CB
330
70
100
AcDbEntity
  8
0
100
AcDbTrace
 10
16.525
 20
1.75
 30
0.0
 11
16.525
 21
6.25
 31
0.0
 12
14.725
 22
1.75
 32
0.0
 13
14.725
 23
6.25
 33
0.0
  0
SOLID
  5
2CC
330
70
100
AcDbEntity
  8
0
100
AcDbTrace
 10
13.275
 20
1.75
 30
0.0
 11
13.275
 21
6.25
 31
0.0
 12
11.475
 22
1.75
 32
0.0
 13
11.475
 23
6.25
 33
0.0
  0
SOLID
  5
2CD
330
70
100
AcDbEntity
  8
0
100
AcDbTrace
 10
7.609999999999999
 20
35.195
 30
0.0
 11
7.61
 21
36.105
 31
0.0
 12
6.389999999999999
 22
35.195
 32
0.0
 13
6.39
 23
36.105
 33
0.0
  0
SOLID
  5
2CE
330
70
100
AcDbEntity
  8
0
100
AcDbTrace
 10
7.609999999999999
 20
31.895
 30
0.0
 11
7.61
 21
32.805
 31
0.0
 12
6.389999999999999
 22
31.89500000000001
 32
0.0
 13
6.39
 23
32.805
 33
0.0
  0
SOLID
  5
2CF
330
70
100
AcDbEntity
  8
0
100
AcDbTrace
 10
10.7
 20
39.85
 30
0.0
 11
10.7
 21
39.45
 31
0.0
 12
11.3
 22
39.85
 32
0.0
 13
11.3
 23
39.45
 33
0.0
  0
SOLID
  5
2D0
330
70
100
AcDbEntity
  8
0
100
AcDbTrace
 10
10.7
 20
39.2
 30
0.0
 11
10.7
 21
38.8
 31
0.0
 12
11.3
 22
39.2
 32
0.0
 13
11.3
 23
38.8
 33
0.0
  0
SOLID
  5
2D1
330
70
100
AcDbEntity
  8
0
100
AcDbTrace
 10
10.7
 20
38.55
 30
0.0
 11
10.7
 21
38.15
 31
0.0
 12
11.3
 22
38.55
 32
0.0
 13
11.3
 23
38.15
 33
0.0
  0
SOLID
  5
2D2
330
70
100
AcDbEntity
  8
0
100
AcDbTrace
 10
8.699999999999999
 20
38.55
 30
0.0
 11
8.699999999999999
 21
38.15
 31
0.0
 12
9.3
 22
38.55
 32
0.0
 13
9.3
 23
38.15
 33
0.0
  0
SOLID
  5
2D3
330
70
100
AcDbEntity
  8
0
100
AcDbTrace
 10
8.699999999999999
 20
39.2
 30
0.0
 11
8.699999999999999
 21
38.8
 31
0.0
 12
9.3
 22
39.2
 32
0.0
 13
9.3
 23
38.8
 33
0.0
  0
SOLID
  5
2D4
330
70
100
AcDbEntity
  8
0
100
AcDbTrace
 10
8.699999999999999
 20
39.85
 30
0.0
 11
8.699999999999999
 21
39.45
 31
0.0
 12
9.3
 22
39.85
 32
0.0
 13
9.3
 23
39.45
 33
0.0
  0
SOLID
  5
2D5
330
70
100
AcDbEntity
  8
0
100
AcDbTrace
 10
22.65
 20
63.7
 30
0.0
 11
23.05
 21
63.7
 31
0.0
 12
22.65
 22
64.29999999999999
 32
0.0
 13
23.05
 23
64.29999999999999
 33
0.0
  0
SOLID
  5
2D6
330
70
100
AcDbEntity
  8
0
100
AcDbTrace
 10
23.3
 20
63.7
 30
0.0
 11
23.7
 21
63.7
 31
0.0
 12
23.3
 22
64.29999999999999
 32
0.0
 13
23.7
 23
64.29999999999999
 33
0.0
  0
SOLID
  5
2D7
330
70
100
AcDbEntity
  8
0
100
AcDbTrace
 10
23.95
 20
63.7
 30
0.0
 11
24.35
 21
63.7
 31
0.0
 12
23.95
 22
64.29999999999999
 32
0.0
 13
24.35
 23
64.29999999999999
 33
0.0
  0
SOLID
  5
2D8
330
70
100
AcDbEntity
  8
0
100
AcDbTrace
 10
23.95
 20
61.7
 30
0.0
 11
24.35
 21
61.7
 31
0.0
 12
23.95
 22
62.3
 32
0.0
 13
24.35
 23
62.3
 33
0.0
  0
SOLID
  5
2D9
330
70
100
AcDbEntity
  8
0
100
AcDbTrace
 10
23.3
 20
61.7
 30
0.0
 11
23.7
 21
61.7
 31
0.0
 12
23.3
 22
62.3
 32
0.0
 13
23.7
 23
62.3
 33
0.0
  0
SOLID
  5
2DA
330
70
100
AcDbEntity
  8
0
100
AcDbTrace
 10
22.65
 20
61.7
 30
0.0
 11
23.05
 21
61.7
 31
0.0
 12
22.65
 22
62.3
 32
0.0
 13
23.05
 23
62.3
 33
0.0
  0
SOLID
  5
2DB
330
70
100
AcDbEntity
  8
0
100
AcDbTrace
 10
35.195
 20
62.39
 30
0.0
 11
36.105
 21
62.39
 31
0.0
 12
35.195
 22
63.61
 32
0.0
 13
36.105
 23
63.61
 33
0.0
  0
SOLID
  5
2DC
330
70
100
AcDbEntity
  8
0
100
AcDbTrace
 10
31.89500000000001
 20
62.39
 30
0.0
 11
32.805
 21
62.39
 31
0.0
 12
31.89500000000001
 22
63.61
 32
0.0
 13
32.805
 23
63.61
 33
0.0
  0
SOLID
  5
2DD
330
70
100
AcDbEntity
  8
0
100
AcDbTrace
 10
20.61
 20
10.195
 30
0.0
 11
20.61
 21
11.105
 31
0.0
 12
19.39
 22
10.195
 32
0.0
 13
19.39
 23
11.105
 33
0.0
  0
SOLID
  5
2DE
330
70
100
AcDbEntity
  8
0
100
AcDbTrace
 10
20.61
 20
6.894999999999999
 30
0.0
 11
20.61
 21
7.804999999999999
 31
0.0
 12
19.39
 22
6.894999999999999
 32
0.0
 13
19.39
 23
7.804999999999999
 33
0.0
  0
SOLID
  5
2DF
330
70
100
AcDbEntity
  8
0
100
AcDbTrace
 10
15.2999
 20
7.775
 30
0.0
 11
15.2999
 21
8.325000000000001
 31
0.0
 12
14.0999
 22
7.775
 32
0.0
 13
14.0999
 23
8.325000000000001
 33
0.0
  0
SOLID
  5
2E0
330
70
100
AcDbEntity
  8
0
100
AcDbTrace
 10
15.2999
 20
9.674999999999998
 30
0.0
 11
15.2999
 21
10.225
 31
0.0
 12
14.0999
 22
9.674999999999998
 32
0.0
 13
14.0999
 23
10.225
 33
0.0
  0
SOLID
  5
2E1
330
70
100
AcDbEntity
  8
0
100
AcDbTrace
 10
17.9001
 20
9.674999999999998
 30
0.0
 11
17.9001
 21
10.225
 31
0.0
 12
16.7001
 22
9.674999999999998
 32
0.0
 13
16.7001
 23
10.225
 33
0.0
  0
SOLID
  5
2E2
330
70
100
AcDbEntity
  8
0
100
AcDbTrace
 10
17.9001
 20
8.724999999999999
 30
0.0
 11
17.9001
 21
9.275
 31
0.0
 12
16.7001
 22
8.724999999999999
 32
0.0
 13
16.7001
 23
9.275
 33
0.0
  0
SOLID
  5
2E3
330
70
100
AcDbEntity
  8
0
100
AcDbTrace
 10
17.9001
 20
7.775
 30
0.0
 11
17.9001
 21
8.325000000000001
 31
0.0
 12
16.7001
 22
7.775
 32
0.0
 13
16.7001
 23
8.325000000000001
 33
0.0
  0
SOLID
  5
2E4
330
70
100
AcDbEntity
  8
0
100
AcDbTrace
 10
18.2999
 20
57.77499999999999
 30
0.0
 11
18.2999
 21
58.32499999999999
 31
0.0
 12
17.0999
 22
57.77499999999999
 32
0.0
 13
17.0999
 23
58.32499999999999
 33
0.0
  0
SOLID
  5
2E5
330
70
100
AcDbEntity
  8
0
100
AcDbTrace
 10
18.2999
 20
59.67500000000001
 30
0.0
 11
18.2999
 21
60.225
 31
0.0
 12
17.0999
 22
59.67500000000001
 32
0.0
 13
17.0999
 23
60.225
 33
0.0
  0
SOLID
  5
2E6
330
70
100
AcDbEntity
  8
0
100
AcDbTrace
 10
20.9001
 20
59.67500000000001
 30
0.0
 11
20.9001
 21
60.225
 31
0.0
 12
19.7001
 22
59.67500000000001
 32
0.0
 13
19.7001
 23
60.225
 33
0.0
  0
SOLID
  5
2E7
330
70
100
AcDbEntity
  8
0
100
AcDbTrace
 10
20.9001
 20
58.725
 30
0.0
 11
20.9001
 21
59.275
 31
0.0
 12
19.7001
 22
58.725
 32
0.0
 13
19.7001
 23
59.275
 33
0.0
  0
SOLID
  5
2E8
330
70
100
AcDbEntity
  8
0
100
AcDbTrace
 10
20.9001
 20
57.77499999999999
 30
0.0
 11
20.9001
 21
58.32499999999999
 31
0.0
 12
19.7001
 22
57.77499999999999
 32
0.0
 13
19.7001
 23
58.32499999999999
 33
0.0
  0
SOLID
  5
2E9
330
70
100
AcDbEntity
  8
0
100
AcDbTrace
 10
31.2999
 20
57.77499999999999
 30
0.0
 11
31.2999
 21
58.32499999999999
 31
0.0
 12
30.0999
 22
57.77499999999999
 32
0.0
 13
30.0999
 23
58.32499999999999
 33
0.0
  0
SOLID
  5
2EA
330
70
100
AcDbEntity
  8
0
100
AcDbTrace
 10
31.2999
 20
59.67500000000001
 30
0.0
 11
31.2999
 21
60.225
 31
0.0
 12
30.0999
 22
59.67500000000001
 32
0.0
 13
30.0999
 23
60.225
 33
0.0
  0
SOLID
  5
2EB
330
70
100
AcDbEntity
  8
0
100
AcDbTrace
 10
33.9001
 20
59.67500000000001
 30
0.0
 11
33.9001
 21
60.225
 31
0.0
 12
32.7001
 22
59.67500000000001
 32
0.0
 13
32.7001
 23
60.225
 33
0.0
  0
SOLID
  5
2EC
330
70
100
AcDbEntity
  8
0
100
AcDbTrace
 10
33.9001
 20
58.725
 30
0.0
 11
33.9001
 21
59.275
 31
0.0
 12
32.7001
 22
58.725
 32
0.0
 13
32.7001
 23
59.275
 33
0.0
  0
SOLID
  5
2ED
330
70
100
AcDbEntity
  8
0
100
AcDbTrace
 10
33.9001
 20
57.77499999999999
 30
0.0
 11
33.9001
 21
58.32499999999999
 31
0.0
 12
32.7001
 22
57.77499999999999
 32
0.0
 13
32.7001
 23
58.32499999999999
 33
0.0
  0
SOLID
  5
2EE
330
70
100
AcDbEntity
  8
0
100
AcDbTrace
 10
25.2999
 20
57.77499999999999
 30
0.0
 11
25.2999
 21
58.32499999999999
 31
0.0
 12
24.0999
 22
57.77499999999999
 32
0.0
 13
24.0999
 23
58.32499999999999
 33
0.0
  0
SOLID
  5
2EF
330
70
100
AcDbEntity
  8
0
100
AcDbTrace
 10
25.2999
 20
59.67500000000001
 30
0.0
 11
25.2999
 21
60.225
 31
0.0
 12
24.0999
 22
59.67500000000001
 32
0.0
 13
24.0999
 23
60.225
 33
0.0
  0
SOLID
  5
2F0
330
70
100
AcDbEntity
  8
0
100
AcDbTrace
 10
27.9001
 20
59.67500000000001
 30
0.0
 11
27.9001
 21
60.225
 31
0.0
 12
26.7001
 22
59.67500000000001
 32
0.0
 13
26.7001
 23
60.225
 33
0.0
  0
SOLID
  5
2F1
330
70
100
AcDbEntity
  8
0
100
AcDbTrace
 10
27.9001
 20
58.725
 30
0.0
 11
27.9001
 21
59.275
 31
0.0
 12
26.7001
 22
58.725
 32
0.0
 13
26.7001
 23
59.275
 33
0.0
  0
SOLID
  5
2F2
330
70
100
AcDbEntity
  8
0
100
AcDbTrace
 10
27.9001
 20
57.77499999999999
 30
0.0
 11
27.9001
 21
58.32499999999999
 31
0.0
 12
26.7001
 22
57.77499999999999
 32
0.0
 13
26.7001
 23
58.32499999999999
 33
0.0
  0
SOLID
  5
2F3
330
70
100
AcDbEntity
  8
0
100
AcDbTrace
 10
3.094999999999999
 20
36.625
 30
0.0
 11
3.094999999999999
 21
36.225
 31
0.0
 12
4.445
 22
36.625
 32
0.0
 13
4.445
 23
36.225
 33
0.0
  0
SOLID
  5
2F4
330
70
100
AcDbEntity
  8
0
100
AcDbTrace
 10
3.094999999999999
 20
37.27500000000001
 30
0.0
 11
3.094999999999999
 21
36.875
 31
0.0
 12
4.445
 22
37.27500000000001
 32
0.0
 13
4.445
 23
36.875
 33
0.0
  0
SOLID
  5
2F5
330
70
100
AcDbEntity
  8
0
100
AcDbTrace
 10
3.094999999999999
 20
37.925
 30
0.0
 11
3.094999999999999
 21
37.525
 31
0.0
 12
4.445
 22
37.925
 32
0.0
 13
4.445
 23
37.525
 33
0.0
  0
SOLID
  5
2F6
330
70
100
AcDbEntity
  8
0
100
AcDbTrace
 10
3.094999999999999
 20
38.575
 30
0.0
 11
3.094999999999999
 21
38.175
 31
0.0
 12
4.445
 22
38.575
 32
0.0
 13
4.445
 23
38.175
 33
0.0
  0
SOLID
  5
2F7
330
70
100
AcDbEntity
  8
0
100
AcDbTrace
 10
3.094999999999999
 20
39.225
 30
0.0
 11
3.094999999999999
 21
38.825
 31
0.0
 12
4.445
 22
39.225
 32
0.0
 13
4.445
 23
38.825
 33
0.0
  0
SOLID
  5
2F8
330
70
100
AcDbEntity
  8
0
100
AcDbTrace
 10
2.82
 20
35.675
 30
0.0
 11
2.819999999999999
 21
33.575
 31
0.0
 12
4.419999999999999
 22
35.675
 32
0.0
 13
4.419999999999999
 23
33.575
 33
0.0
  0
SOLID
  5
2F9
330
70
100
AcDbEntity
  8
0
100
AcDbTrace
 10
2.82
 20
41.875
 30
0.0
 11
2.819999999999999
 21
39.77500000000001
 31
0.0
 12
4.419999999999999
 22
41.875
 32
0.0
 13
4.419999999999999
 23
39.77500000000001
 33
0.0
  0
SOLID
  5
2FA
330
70
100
AcDbEntity
  8
0
100
AcDbTrace
 10
0.1200000000000003
 20
37.475
 30
0.0
 11
0.1199999999999999
 21
35.575
 31
0.0
 12
2.02
 22
37.475
 32
0.0
 13
2.019999999999999
 23
35.575
 33
0.0
  0
SOLID
  5
2FB
330
70
100
AcDbEntity
  8
0
100
AcDbTrace
 10
0.1200000000000003
 20
39.875
 30
0.0
 11
0.1199999999999999
 21
37.97499999999999
 31
0.0
 12
2.02
 22
39.875
 32
0.0
 13
2.019999999999999
 23
37.97499999999999
 33
0.0
  0
SOLID
  5
2FC
330
70
100
AcDbEntity
  8
0
100
AcDbTrace
 10
0.1200000000000003
 20
42.42499999999999
 30
0.0
 11
0.1199999999999999
 21
40.625
 31
0.0
 12
2.02
 22
42.42499999999999
 32
0.0
 13
2.019999999999999
 23
40.625
 33
0.0
  0
SOLID
  5
2FD
330
70
100
AcDbEntity
  8
0
100
AcDbTrace
 10
0.1200000000000003
 20
34.825
 30
0.0
 11
0.1199999999999999
 21
33.025
 31
0.0
 12
2.02
 22
34.825
 32
0.0
 13
2.019999999999999
 23
33.025
 33
0.0
  0
SOLID
  5
2FE
330
70
100
AcDbEntity
  8
0
100
AcDbTrace
 10
33.2999
 20
53.775
 30
0.0
 11
33.2999
 21
54.325
 31
0.0
 12
32.0999
 22
53.775
 32
0.0
 13
32.0999
 23
54.325
 33
0.0
  0
SOLID
  5
2FF
330
70
100
AcDbEntity
  8
0
100
AcDbTrace
 10
33.2999
 20
55.675
 30
0.0
 11
33.2999
 21
56.225
 31
0.0
 12
32.0999
 22
55.675
 32
0.0
 13
32.0999
 23
56.225
 33
0.0
  0
SOLID
  5
300
330
70
100
AcDbEntity
  8
0
100
AcDbTrace
 10
35.9001
 20
55.675
 30
0.0
 11
35.9001
 21
56.225
 31
0.0
 12
34.7001
 22
55.675
 32
0.0
 13
34.7001
 23
56.225
 33
0.0
  0
SOLID
  5
301
330
70
100
AcDbEntity
  8
0
100
AcDbTrace
 10
35.9001
 20
54.725
 30
0.0
 11
35.9001
 21
55.27499999999999
 31
0.0
 12
34.7001
 22
54.725
 32
0.0
 13
34.7001
 23
55.27499999999999
 33
0.0
  0
SOLID
  5
302
330
70
100
AcDbEntity
  8
0
100
AcDbTrace
 10
35.9001
 20
53.775
 30
0.0
 11
35.9001
 21
54.325
 31
0.0
 12
34.7001
 22
53.775
 32
0.0
 13
34.7001
 23
54.325
 33
0.0
  0
SOLID
  5
303
330
70
100
AcDbEntity
  8
0
100
AcDbTrace
 10
18.95699707730092
 20
26.05302038200429
 30
0.0
 11
18.78022038200428
 21
26.22979707730092
 31
0.0
 12
18.17917961799572
 22
25.27520292269908
 32
0.0
 13
18.00240292269908
 23
25.45197961799572
 33
0.0
  0
SOLID
  5
304
330
70
100
AcDbEntity
  8
0
100
AcDbTrace
 10
18.60349707730092
 20
26.40662038200428
 30
0.0
 11
18.42672038200428
 21
26.58339707730092
 31
0.0
 12
17.82567961799571
 22
25.62880292269908
 32
0.0
 13
17.64890292269908
 23
25.80557961799572
 33
0.0
  0
SOLID
  5
305
330
70
100
AcDbEntity
  8
0
100
AcDbTrace
 10
18.24989707730092
 20
26.76012038200428
 30
0.0
 11
18.07312038200428
 21
26.93689707730092
 31
0.0
 12
17.47207961799572
 22
25.98230292269908
 32
0.0
 13
17.29530292269908
 23
26.15907961799571
 33
0.0
  0
SOLID
  5
306
330
70
100
AcDbEntity
  8
0
100
AcDbTrace
 10
17.89639707730092
 20
27.11372038200428
 30
0.0
 11
17.71962038200428
 21
27.29049707730092
 31
0.0
 12
17.11857961799571
 22
26.33590292269908
 32
0.0
 13
16.94180292269908
 23
26.51267961799572
 33
0.0
  0
SOLID
  5
307
330
70
100
AcDbEntity
  8
0
100
AcDbTrace
 10
17.54279707730092
 20
27.46722038200428
 30
0.0
 11
17.36602038200428
 21
27.64399707730092
 31
0.0
 12
16.76497961799572
 22
26.68940292269908
 32
0.0
 13
16.58820292269908
 23
26.86617961799572
 33
0.0
  0
SOLID
  5
308
330
70
100
AcDbEntity
  8
0
100
AcDbTrace
 10
17.18929707730092
 20
27.82082038200428
 30
0.0
 11
17.01252038200428
 21
27.99759707730092
 31
0.0
 12
16.41147961799571
 22
27.04300292269908
 32
0.0
 13
16.23470292269908
 23
27.21977961799572
 33
0.0
  0
SOLID
  5
309
330
70
100
AcDbEntity
  8
0
100
AcDbTrace
 10
16.83569707730092
 20
28.17432038200428
 30
0.0
 11
16.65892038200428
 21
28.35109707730092
 31
0.0
 12
16.05787961799572
 22
27.39650292269908
 32
0.0
 13
15.88110292269908
 23
27.57327961799572
 33
0.0
  0
SOLID
  5
30A
330
70
100
AcDbEntity
  8
0
100
AcDbTrace
 10
16.48209707730092
 20
28.52792038200428
 30
0.0
 11
16.30532038200428
 21
28.70469707730092
 31
0.0
 12
15.70427961799572
 22
27.75010292269908
 32
0.0
 13
15.52750292269908
 23
27.92687961799572
 33
0.0
  0
SOLID
  5
30B
330
70
100
AcDbEntity
  8
0
100
AcDbTrace
 10
16.12859707730092
 20
28.88142038200428
 30
0.0
 11
15.95182038200428
 21
29.05819707730092
 31
0.0
 12
15.35077961799571
 22
28.10360292269908
 32
0.0
 13
15.17400292269908
 23
28.28037961799572
 33
0.0
  0
SOLID
  5
30C
330
70
100
AcDbEntity
  8
0
100
AcDbTrace
 10
15.77499707730092
 20
29.23502038200428
 30
0.0
 11
15.59822038200428
 21
29.41179707730092
 31
0.0
 12
14.99717961799572
 22
28.45720292269908
 32
0.0
 13
14.82040292269908
 23
28.63397961799572
 33
0.0
  0
SOLID
  5
30D
330
70
100
AcDbEntity
  8
0
100
AcDbTrace
 10
15.42149707730092
 20
29.58852038200428
 30
0.0
 11
15.24472038200428
 21
29.76529707730092
 31
0.0
 12
14.64367961799571
 22
28.81070292269908
 32
0.0
 13
14.46690292269908
 23
28.98747961799572
 33
0.0
  0
SOLID
  5
30E
330
70
100
AcDbEntity
  8
0
100
AcDbTrace
 10
15.06789707730092
 20
29.94212038200429
 30
0.0
 11
14.89112038200428
 21
30.11889707730092
 31
0.0
 12
14.29007961799572
 22
29.16430292269908
 32
0.0
 13
14.11330292269908
 23
29.34107961799572
 33
0.0
  0
SOLID
  5
30F
330
70
100
AcDbEntity
  8
0
100
AcDbTrace
 10
14.89112038200428
 20
31.28560292269908
 30
0.0
 11
15.06789707730092
 21
31.46237961799572
 31
0.0
 12
14.11330292269908
 22
32.06342038200428
 32
0.0
 13
14.29007961799572
 23
32.24019707730092
 33
0.0
  0
SOLID
  5
310
330
70
100
AcDbEntity
  8
0
100
AcDbTrace
 10
15.24472038200428
 20
31.63920292269908
 30
0.0
 11
15.42149707730092
 21
31.81597961799572
 31
0.0
 12
14.46690292269908
 22
32.41702038200428
 32
0.0
 13
14.64367961799571
 23
32.59379707730092
 33
0.0
  0
SOLID
  5
311
330
70
100
AcDbEntity
  8
0
100
AcDbTrace
 10
15.59822038200428
 20
31.99270292269908
 30
0.0
 11
15.77499707730092
 21
32.16947961799572
 31
0.0
 12
14.82040292269908
 22
32.77052038200428
 32
0.0
 13
14.99717961799572
 23
32.94729707730092
 33
0.0
  0
SOLID
  5
312
330
70
100
AcDbEntity
  8
0
100
AcDbTrace
 10
15.95182038200428
 20
32.34630292269908
 30
0.0
 11
16.12859707730092
 21
32.52307961799572
 31
0.0
 12
15.17400292269908
 22
33.12412038200428
 32
0.0
 13
15.35077961799571
 23
33.30089707730092
 33
0.0
  0
SOLID
  5
313
330
70
100
AcDbEntity
  8
0
100
AcDbTrace
 10
16.30532038200428
 20
32.69980292269909
 30
0.0
 11
16.48209707730092
 21
32.87657961799573
 31
0.0
 12
15.52750292269908
 22
33.47762038200428
 32
0.0
 13
15.70427961799572
 23
33.65439707730092
 33
0.0
  0
SOLID
  5
314
330
70
100
AcDbEntity
  8
0
100
AcDbTrace
 10
16.65892038200428
 20
33.05340292269909
 30
0.0
 11
16.83569707730092
 21
33.23017961799572
 31
0.0
 12
15.88110292269908
 22
33.83122038200428
 32
0.0
 13
16.05787961799572
 23
34.00799707730092
 33
0.0
  0
SOLID
  5
315
330
70
100
AcDbEntity
  8
0
100
AcDbTrace
 10
17.01252038200428
 20
33.40690292269908
 30
0.0
 11
17.18929707730092
 21
33.58367961799572
 31
0.0
 12
16.23470292269908
 22
34.18472038200428
 32
0.0
 13
16.41147961799571
 23
34.36149707730092
 33
0.0
  0
SOLID
  5
316
330
70
100
AcDbEntity
  8
0
100
AcDbTrace
 10
17.36602038200428
 20
33.76050292269908
 30
0.0
 11
17.54279707730092
 21
33.93727961799572
 31
0.0
 12
16.58820292269908
 22
34.53832038200428
 32
0.0
 13
16.76497961799572
 23
34.71509707730092
 33
0.0
  0
SOLID
  5
317
330
70
100
AcDbEntity
  8
0
100
AcDbTrace
 10
17.71962038200428
 20
34.11400292269908
 30
0.0
 11
17.89639707730092
 21
34.29077961799572
 31
0.0
 12
16.94180292269908
 22
34.89182038200428
 32
0.0
 13
17.11857961799571
 23
35.06859707730092
 33
0.0
  0
SOLID
  5
318
330
70
100
AcDbEntity
  8
0
100
AcDbTrace
 10
18.07312038200428
 20
34.46760292269908
 30
0.0
 11
18.24989707730092
 21
34.64437961799572
 31
0.0
 12
17.29530292269908
 22
35.24542038200428
 32
0.0
 13
17.47207961799572
 23
35.42219707730092
 33
0.0
  0
SOLID
  5
319
330
70
100
AcDbEntity
  8
0
100
AcDbTrace
 10
18.42672038200428
 20
34.82120292269908
 30
0.0
 11
18.60349707730092
 21
34.99797961799572
 31
0.0
 12
17.64890292269908
 22
35.59902038200428
 32
0.0
 13
17.82567961799571
 23
35.77579707730091
 33
0.0
  0
SOLID
  5
31A
330
70
100
AcDbEntity
  8
0
100
AcDbTrace
 10
18.78022038200428
 20
35.17470292269909
 30
0.0
 11
18.95699707730092
 21
35.35147961799572
 31
0.0
 12
18.00240292269908
 22
35.95252038200428
 32
0.0
 13
18.17917961799572
 23
36.12929707730092
 33
0.0
  0
SOLID
  5
31B
330
70
100
AcDbEntity
  8
0
100
AcDbTrace
 10
21.07829707730092
 20
35.95252038200428
 30
0.0
 11
20.90152038200428
 21
36.12929707730092
 31
0.0
 12
20.30047961799572
 22
35.17470292269909
 32
0.0
 13
20.12370292269908
 23
35.35147961799572
 33
0.0
  0
SOLID
  5
31C
330
70
100
AcDbEntity
  8
0
100
AcDbTrace
 10
21.43189707730092
 20
35.59902038200428
 30
0.0
 11
21.25512038200428
 21
35.77579707730091
 31
0.0
 12
20.65407961799571
 22
34.82120292269908
 32
0.0
 13
20.47730292269908
 23
34.99797961799572
 33
0.0
  0
SOLID
  5
31D
330
70
100
AcDbEntity
  8
0
100
AcDbTrace
 10
21.78539707730092
 20
35.24542038200428
 30
0.0
 11
21.60862038200428
 21
35.42219707730092
 31
0.0
 12
21.00757961799572
 22
34.46760292269908
 32
0.0
 13
20.83080292269908
 23
34.64437961799572
 33
0.0
  0
SOLID
  5
31E
330
70
100
AcDbEntity
  8
0
100
AcDbTrace
 10
22.13899707730092
 20
34.89182038200428
 30
0.0
 11
21.96222038200428
 21
35.06859707730092
 31
0.0
 12
21.36117961799572
 22
34.11400292269908
 32
0.0
 13
21.18440292269908
 23
34.29077961799572
 33
0.0
  0
SOLID
  5
31F
330
70
100
AcDbEntity
  8
0
100
AcDbTrace
 10
22.49259707730092
 20
34.53832038200428
 30
0.0
 11
22.31582038200428
 21
34.71509707730092
 31
0.0
 12
21.71477961799572
 22
33.76050292269908
 32
0.0
 13
21.53800292269908
 23
33.93727961799572
 33
0.0
  0
SOLID
  5
320
330
70
100
AcDbEntity
  8
0
100
AcDbTrace
 10
22.84609707730092
 20
34.18472038200428
 30
0.0
 11
22.66932038200428
 21
34.36149707730092
 31
0.0
 12
22.06827961799572
 22
33.40690292269908
 32
0.0
 13
21.89150292269908
 23
33.58367961799572
 33
0.0
  0
SOLID
  5
321
330
70
100
AcDbEntity
  8
0
100
AcDbTrace
 10
23.19969707730092
 20
33.83122038200428
 30
0.0
 11
23.02292038200429
 21
34.00799707730092
 31
0.0
 12
22.42187961799572
 22
33.05340292269909
 32
0.0
 13
22.24510292269908
 23
33.23017961799572
 33
0.0
  0
SOLID
  5
322
330
70
100
AcDbEntity
  8
0
100
AcDbTrace
 10
23.55319707730092
 20
33.47762038200428
 30
0.0
 11
23.37642038200428
 21
33.65439707730092
 31
0.0
 12
22.77537961799572
 22
32.69980292269909
 32
0.0
 13
22.59860292269908
 23
32.87657961799573
 33
0.0
  0
SOLID
  5
323
330
70
100
AcDbEntity
  8
0
100
AcDbTrace
 10
23.90679707730092
 20
33.12412038200428
 30
0.0
 11
23.73002038200429
 21
33.30089707730092
 31
0.0
 12
23.12897961799572
 22
32.34630292269908
 32
0.0
 13
22.95220292269908
 23
32.52307961799572
 33
0.0
  0
SOLID
  5
324
330
70
100
AcDbEntity
  8
0
100
AcDbTrace
 10
24.26029707730092
 20
32.77052038200428
 30
0.0
 11
24.08352038200428
 21
32.94729707730092
 31
0.0
 12
23.48247961799572
 22
31.99270292269908
 32
0.0
 13
23.30570292269908
 23
32.16947961799572
 33
0.0
  0
SOLID
  5
325
330
70
100
AcDbEntity
  8
0
100
AcDbTrace
 10
24.61389707730092
 20
32.41702038200428
 30
0.0
 11
24.43712038200429
 21
32.59379707730092
 31
0.0
 12
23.83607961799572
 22
31.63920292269908
 32
0.0
 13
23.65930292269908
 23
31.81597961799572
 33
0.0
  0
SOLID
  5
326
330
70
100
AcDbEntity
  8
0
100
AcDbTrace
 10
24.96739707730093
 20
32.06342038200428
 30
0.0
 11
24.79062038200428
 21
32.24019707730092
 31
0.0
 12
24.18957961799572
 22
31.28560292269908
 32
0.0
 13
24.01280292269908
 23
31.46237961799572
 33
0.0
  0
SOLID
  5
327
330
70
100
AcDbEntity
  8
0
100
AcDbTrace
 10
24.79062038200428
 20
29.16430292269908
 30
0.0
 11
24.96739707730093
 21
29.34107961799572
 31
0.0
 12
24.01280292269908
 22
29.94212038200429
 32
0.0
 13
24.18957961799572
 23
30.11889707730092
 33
0.0
  0
SOLID
  5
328
330
70
100
AcDbEntity
  8
0
100
AcDbTrace
 10
24.43712038200429
 20
28.81070292269908
 30
0.0
 11
24.61389707730092
 21
28.98747961799572
 31
0.0
 12
23.65930292269908
 22
29.58852038200428
 32
0.0
 13
23.83607961799572
 23
29.76529707730092
 33
0.0
  0
SOLID
  5
329
330
70
100
AcDbEntity
  8
0
100
AcDbTrace
 10
24.08352038200428
 20
28.45720292269908
 30
0.0
 11
24.26029707730092
 21
28.63397961799572
 31
0.0
 12
23.30570292269908
 22
29.23502038200428
 32
0.0
 13
23.48247961799572
 23
29.41179707730092
 33
0.0
  0
SOLID
  5
32A
330
70
100
AcDbEntity
  8
0
100
AcDbTrace
 10
23.73002038200429
 20
28.10360292269908
 30
0.0
 11
23.90679707730092
 21
28.28037961799572
 31
0.0
 12
22.95220292269908
 22
28.88142038200428
 32
0.0
 13
23.12897961799572
 23
29.05819707730092
 33
0.0
  0
SOLID
  5
32B
330
70
100
AcDbEntity
  8
0
100
AcDbTrace
 10
23.37642038200428
 20
27.75010292269908
 30
0.0
 11
23.55319707730092
 21
27.92687961799572
 31
0.0
 12
22.59860292269908
 22
28.52792038200428
 32
0.0
 13
22.77537961799572
 23
28.70469707730092
 33
0.0
  0
SOLID
  5
32C
330
70
100
AcDbEntity
  8
0
100
AcDbTrace
 10
23.02292038200429
 20
27.39650292269908
 30
0.0
 11
23.19969707730092
 21
27.57327961799572
 31
0.0
 12
22.24510292269908
 22
28.17432038200428
 32
0.0
 13
22.42187961799572
 23
28.35109707730092
 33
0.0
  0
SOLID
  5
32D
330
70
100
AcDbEntity
  8
0
100
AcDbTrace
 10
22.66932038200428
 20
27.04300292269908
 30
0.0
 11
22.84609707730092
 21
27.21977961799572
 31
0.0
 12
21.89150292269908
 22
27.82082038200428
 32
0.0
 13
22.06827961799572
 23
27.99759707730092
 33
0.0
  0
SOLID
  5
32E
330
70
100
AcDbEntity
  8
0
100
AcDbTrace
 10
22.31582038200428
 20
26.68940292269908
 30
0.0
 11
22.49259707730092
 21
26.86617961799572
 31
0.0
 12
21.53800292269908
 22
27.46722038200428
 32
0.0
 13
21.71477961799572
 23
27.64399707730092
 33
0.0
  0
SOLID
  5
32F
330
70
100
AcDbEntity
  8
0
100
AcDbTrace
 10
21.96222038200428
 20
26.33590292269908
 30
0.0
 11
22.13899707730092
 21
26.51267961799572
 31
0.0
 12
21.18440292269908
 22
27.11372038200428
 32
0.0
 13
21.36117961799572
 23
27.29049707730092
 33
0.0
  0
SOLID
  5
330
330
70
100
AcDbEntity
  8
0
100
AcDbTrace
 10
21.60862038200428
 20
25.98230292269908
 30
0.0
 11
21.78539707730092
 21
26.15907961799571
 31
0.0
 12
20.83080292269908
 22
26.76012038200428
 32
0.0
 13
21.00757961799572
 23
26.93689707730092
 33
0.0
  0
SOLID
  5
331
330
70
100
AcDbEntity
  8
0
100
AcDbTrace
 10
21.25512038200428
 20
25.62880292269908
 30
0.0
 11
21.43189707730092
 21
25.80557961799572
 31
0.0
 12
20.47730292269908
 22
26.40662038200428
 32
0.0
 13
20.65407961799571
 23
26.58339707730092
 33
0.0
  0
SOLID
  5
332
330
70
100
AcDbEntity
  8
0
100
AcDbTrace
 10
20.90152038200428
 20
25.27520292269908
 30
0.0
 11
21.07829707730092
 21
25.45197961799572
 31
0.0
 12
20.12370292269908
 22
26.05302038200429
 32
0.0
 13
20.30047961799572
 23
26.22979707730092
 33
0.0
  0
SOLID
  5
333
330
70
100
AcDbEntity
  8
0
100
AcDbTrace
 10
15.25
 20
12.35
 30
0.0
 11
15.25
 21
11.75
 31
0.0
 12
16.45
 22
12.35
 32
0.0
 13
16.45
 23
11.75
 33
0.0
  0
SOLID
  5
334
330
70
100
AcDbEntity
  8
0
100
AcDbTrace
 10
17.55
 20
14.25
 30
0.0
 11
17.55
 21
13.65
 31
0.0
 12
18.75
 22
14.25
 32
0.0
 13
18.75
 23
13.65
 33
0.0
  0
SOLID
  5
335
330
70
100
AcDbEntity
  8
0
100
AcDbTrace
 10
17.55
 20
12.35
 30
0.0
 11
17.55
 21
11.75
 31
0.0
 12
18.75
 22
12.35
 32
0.0
 13
18.75
 23
11.75
 33
0.0
  0
SOLID
  5
336
330
70
100
AcDbEntity
  8
0
100
AcDbTrace
 10
17.55
 20
13.3
 30
0.0
 11
17.55
 21
12.7
 31
0.0
 12
18.75
 22
13.3
 32
0.0
 13
18.75
 23
12.7
 33
0.0
  0
SOLID
  5
337
330
70
100
AcDbEntity
  8
0
100
AcDbTrace
 10
15.25
 20
14.25
 30
0.0
 11
15.25
 21
13.65
 31
0.0
 12
16.45
 22
14.25
 32
0.0
 13
16.45
 23
13.65
 33
0.0
  0
SOLID
  5
338
330
70
100
AcDbEntity
  8
0
100
AcDbTrace
 10
35.55
 20
39.35
 30
0.0
 11
35.55
 21
40.35
 31
0.0
 12
34.45
 22
39.35
 32
0.0
 13
34.45
 23
40.35
 33
0.0
  0
SOLID
  5
339
330
70
100
AcDbEntity
  8
0
100
AcDbTrace
 10
35.55
 20
37.65
 30
0.0
 11
35.55
 21
38.65
 31
0.0
 12
34.45
 22
37.65
 32
0.0
 13
34.45
 23
38.65
 33
0.0
  0
SOLID
  5
33A
330
70
100
AcDbEntity
  8
0
100
AcDbTrace
 10
32.45
 20
38.65
 30
0.0
 11
32.45
 21
37.65
 31
0.0
 12
33.55
 22
38.65
 32
0.0
 13
33.55
 23
37.65
 33
0.0
  0
SOLID
  5
33B
330
70
100
AcDbEntity
  8
0
100
AcDbTrace
 10
32.45
 20
40.35
 30
0.0
 11
32.45
 21
39.35
 31
0.0
 12
33.55
 22
40.35
 32
0.0
 13
33.55
 23
39.35
 33
0.0
  0
SOLID
  5
33C
330
70
100
AcDbEntity
  8
0
100
AcDbTrace
 10
34.45
 20
43.65
 30
0.0
 11
34.45
 21
42.64999999999999
 31
0.0
 12
35.55
 22
43.65
 32
0.0
 13
35.55
 23
42.64999999999999
 33
0.0
  0
SOLID
  5
33D
330
70
100
AcDbEntity
  8
0
100
AcDbTrace
 10
34.45
 20
45.35
 30
0.0
 11
34.45
 21
44.35
 31
0.0
 12
35.55
 22
45.35
 32
0.0
 13
35.55
 23
44.35
 33
0.0
  0
SOLID
  5
33E
330
70
100
AcDbEntity
  8
0
100
AcDbTrace
 10
33.55
 20
44.35
 30
0.0
 11
33.55
 21
45.35
 31
0.0
 12
32.45
 22
44.35
 32
0.0
 13
32.45
 23
45.35
 33
0.0
  0
SOLID
  5
33F
330
70
100
AcDbEntity
  8
0
100
AcDbTrace
 10
33.55
 20
42.64999999999999
 30
0.0
 11
33.55
 21
43.65
 31
0.0
 12
32.45
 22
42.64999999999999
 32
0.0
 13
32.45
 23
43.65
 33
0.0
  0
SOLID
  5
340
330
70
100
AcDbEntity
  8
0
100
AcDbTrace
 10
31.55
 20
39.35
 30
0.0
 11
31.55
 21
40.35
 31
0.0
 12
30.45
 22
39.35
 32
0.0
 13
30.45
 23
40.35
 33
0.0
  0
SOLID
  5
341
330
70
100
AcDbEntity
  8
0
100
AcDbTrace
 10
31.55
 20
37.65
 30
0.0
 11
31.55
 21
38.65
 31
0.0
 12
30.45
 22
37.65
 32
0.0
 13
30.45
 23
38.65
 33
0.0
  0
SOLID
  5
342
330
70
100
AcDbEntity
  8
0
100
AcDbTrace
 10
24.45
 20
20.65
 30
0.0
 11
24.45
 21
19.65
 31
0.0
 12
25.55
 22
20.65
 32
0.0
 13
25.55
 23
19.65
 33
0.0
  0
SOLID
  5
343
330
70
100
AcDbEntity
  8
0
100
AcDbTrace
 10
24.45
 20
22.35
 30
0.0
 11
24.45
 21
21.35
 31
0.0
 12
25.55
 22
22.35
 32
0.0
 13
25.55
 23
21.35
 33
0.0
  0
SOLID
  5
344
330
70
100
AcDbEntity
  8
0
100
AcDbTrace
 10
28.45
 20
38.65
 30
0.0
 11
28.45
 21
37.65
 31
0.0
 12
29.55
 22
38.65
 32
0.0
 13
29.55
 23
37.65
 33
0.0
  0
SOLID
  5
345
330
70
100
AcDbEntity
  8
0
100
AcDbTrace
 10
28.45
 20
40.35
 30
0.0
 11
28.45
 21
39.35
 31
0.0
 12
29.55
 22
40.35
 32
0.0
 13
29.55
 23
39.35
 33
0.0
  0
SOLID
  5
346
330
70
100
AcDbEntity
  8
0
100
AcDbTrace
 10
30.45
 20
43.65
 30
0.0
 11
30.45
 21
42.64999999999999
 31
0.0
 12
31.55
 22
43.65
 32
0.0
 13
31.55
 23
42.64999999999999
 33
0.0
  0
SOLID
  5
347
330
70
100
AcDbEntity
  8
0
100
AcDbTrace
 10
30.45
 20
45.35
 30
0.0
 11
30.45
 21
44.35
 31
0.0
 12
31.55
 22
45.35
 32
0.0
 13
31.55
 23
44.35
 33
0.0
  0
SOLID
  5
348
330
70
100
AcDbEntity
  8
0
100
AcDbTrace
 10
29.55
 20
44.35
 30
0.0
 11
29.55
 21
45.35
 31
0.0
 12
28.45
 22
44.35
 32
0.0
 13
28.45
 23
45.35
 33
0.0
  0
SOLID
  5
349
330
70
100
AcDbEntity
  8
0
100
AcDbTrace
 10
29.55
 20
42.64999999999999
 30
0.0
 11
29.55
 21
43.65
 31
0.0
 12
28.45
 22
42.64999999999999
 32
0.0
 13
28.45
 23
43.65
 33
0.0
  0
SOLID
  5
34A
330
70
100
AcDbEntity
  8
0
100
AcDbTrace
 10
2.45
 20
62.65
 30
0.0
 11
2.449999999999999
 21
61.65
 31
0.0
 12
3.55
 22
62.65
 32
0.0
 13
3.549999999999999
 23
61.65
 33
0.0
  0
SOLID
  5
34B
330
70
100
AcDbEntity
  8
0
100
AcDbTrace
 10
2.45
 20
64.35000000000001
 30
0.0
 11
2.449999999999999
 21
63.35
 31
0.0
 12
3.55
 22
64.34999999999999
 32
0.0
 13
3.549999999999999
 23
63.35
 33
0.0
  0
SOLID
  5
34C
330
70
100
AcDbEntity
  8
0
100
AcDbTrace
 10
8.449999999999999
 20
62.65
 30
0.0
 11
8.449999999999999
 21
61.65
 31
0.0
 12
9.55
 22
62.65
 32
0.0
 13
9.55
 23
61.65
 33
0.0
  0
SOLID
  5
34D
330
70
100
AcDbEntity
  8
0
100
AcDbTrace
 10
8.449999999999999
 20
64.35000000000001
 30
0.0
 11
8.449999999999999
 21
63.35
 31
0.0
 12
9.55
 22
64.34999999999999
 32
0.0
 13
9.55
 23
63.35
 33
0.0
  0
SOLID
  5
34E
330
70
100
AcDbEntity
  8
0
100
AcDbTrace
 10
8.55
 20
9.349999999999999
 30
0.0
 11
8.55
 21
10.35
 31
0.0
 12
7.45
 22
9.349999999999999
 32
0.0
 13
7.45
 23
10.35
 33
0.0
  0
SOLID
  5
34F
330
70
100
AcDbEntity
  8
0
100
AcDbTrace
 10
8.55
 20
7.65
 30
0.0
 11
8.55
 21
8.65
 31
0.0
 12
7.45
 22
7.65
 32
0.0
 13
7.45
 23
8.65
 33
0.0
  0
SOLID
  5
350
330
70
100
AcDbEntity
  8
0
100
AcDbTrace
 10
10.55
 20
9.349999999999999
 30
0.0
 11
10.55
 21
10.35
 31
0.0
 12
9.449999999999999
 22
9.349999999999999
 32
0.0
 13
9.449999999999999
 23
10.35
 33
0.0
  0
SOLID
  5
351
330
70
100
AcDbEntity
  8
0
100
AcDbTrace
 10
10.55
 20
7.65
 30
0.0
 11
10.55
 21
8.65
 31
0.0
 12
9.449999999999999
 22
7.65
 32
0.0
 13
9.449999999999999
 23
8.65
 33
0.0
  0
SOLID
  5
352
330
70
100
AcDbEntity
  8
0
100
AcDbTrace
 10
19.35
 20
4.45
 30
0.0
 11
20.35
 21
4.45
 31
0.0
 12
19.35
 22
5.549999999999999
 32
0.0
 13
20.35
 23
5.549999999999999
 33
0.0
  0
SOLID
  5
353
330
70
100
AcDbEntity
  8
0
100
AcDbTrace
 10
17.65
 20
4.45
 30
0.0
 11
18.65
 21
4.45
 31
0.0
 12
17.65
 22
5.549999999999999
 32
0.0
 13
18.65
 23
5.549999999999999
 33
0.0
  0
SOLID
  5
354
330
70
100
AcDbEntity
  8
0
100
AcDbTrace
 10
23.55
 20
21.35
 30
0.0
 11
23.55
 21
22.35
 31
0.0
 12
22.45
 22
21.35
 32
0.0
 13
22.45
 23
22.35
 33
0.0
  0
SOLID
  5
355
330
70
100
AcDbEntity
  8
0
100
AcDbTrace
 10
23.55
 20
19.65
 30
0.0
 11
23.55
 21
20.65
 31
0.0
 12
22.45
 22
19.65
 32
0.0
 13
22.45
 23
20.65
 33
0.0
  0
SOLID
  5
356
330
70
100
AcDbEntity
  8
0
100
AcDbTrace
 10
29.7
 20
13.65
 30
0.0
 11
29.7
 21
12.65
 31
0.0
 12
30.8
 22
13.65
 32
0.0
 13
30.8
 23
12.65
 33
0.0
  0
SOLID
  5
357
330
70
100
AcDbEntity
  8
0
100
AcDbTrace
 10
29.7
 20
15.35
 30
0.0
 11
29.7
 21
14.35
 31
0.0
 12
30.8
 22
15.35
 32
0.0
 13
30.8
 23
14.35
 33
0.0
  0
SOLID
  5
358
330
70
100
AcDbEntity
  8
0
100
AcDbTrace
 10
21.45
 20
12.65
 30
0.0
 11
21.45
 21
11.65
 31
0.0
 12
22.55
 22
12.65
 32
0.0
 13
22.55
 23
11.65
 33
0.0
  0
SOLID
  5
359
330
70
100
AcDbEntity
  8
0
100
AcDbTrace
 10
21.45
 20
14.35
 30
0.0
 11
21.45
 21
13.35
 31
0.0
 12
22.55
 22
14.35
 32
0.0
 13
22.55
 23
13.35
 33
0.0
  0
SOLID
  5
35A
330
70
100
AcDbEntity
  8
0
100
AcDbTrace
 10
27.45
 20
17.65
 30
0.0
 11
27.45
 21
16.65
 31
0.0
 12
28.55
 22
17.65
 32
0.0
 13
28.55
 23
16.65
 33
0.0
  0
SOLID
  5
35B
330
70
100
AcDbEntity
  8
0
100
AcDbTrace
 10
27.45
 20
19.35
 30
0.0
 11
27.45
 21
18.35
 31
0.0
 12
28.55
 22
19.35
 32
0.0
 13
28.55
 23
18.35
 33
0.0
  0
SOLID
  5
35C
330
70
100
AcDbEntity
  8
0
100
AcDbTrace
 10
13.55
 20
55.35
 30
0.0
 11
13.55
 21
56.35
 31
0.0
 12
12.45
 22
55.35
 32
0.0
 13
12.45
 23
56.35
 33
0.0
  0
SOLID
  5
35D
330
70
100
AcDbEntity
  8
0
100
AcDbTrace
 10
13.55
 20
53.65
 30
0.0
 11
13.55
 21
54.64999999999999
 31
0.0
 12
12.45
 22
53.65
 32
0.0
 13
12.45
 23
54.64999999999999
 33
0.0
  0
SOLID
  5
35E
330
70
100
AcDbEntity
  8
0
100
AcDbTrace
 10
15.55
 20
55.35
 30
0.0
 11
15.55
 21
56.35
 31
0.0
 12
14.45
 22
55.35
 32
0.0
 13
14.45
 23
56.35
 33
0.0
  0
SOLID
  5
35F
330
70
100
AcDbEntity
  8
0
100
AcDbTrace
 10
15.55
 20
53.65
 30
0.0
 11
15.55
 21
54.64999999999999
 31
0.0
 12
14.45
 22
53.65
 32
0.0
 13
14.45
 23
54.64999999999999
 33
0.0
  0
SOLID
  5
360
330
70
100
AcDbEntity
  8
0
100
AcDbTrace
 10
31.55
 20
51.35
 30
0.0
 11
31.55
 21
52.35
 31
0.0
 12
30.45
 22
51.35
 32
0.0
 13
30.45
 23
52.35
 33
0.0
  0
SOLID
  5
361
330
70
100
AcDbEntity
  8
0
100
AcDbTrace
 10
31.55
 20
49.64999999999999
 30
0.0
 11
31.55
 21
50.65
 31
0.0
 12
30.45
 22
49.64999999999999
 32
0.0
 13
30.45
 23
50.65
 33
0.0
  0
SOLID
  5
362
330
70
100
AcDbEntity
  8
0
100
AcDbTrace
 10
33.55
 20
51.35
 30
0.0
 11
33.55
 21
52.35
 31
0.0
 12
32.45
 22
51.35
 32
0.0
 13
32.45
 23
52.35
 33
0.0
  0
SOLID
  5
363
330
70
100
AcDbEntity
  8
0
100
AcDbTrace
 10
33.55
 20
49.64999999999999
 30
0.0
 11
33.55
 21
50.65
 31
0.0
 12
32.45
 22
49.64999999999999
 32
0.0
 13
32.45
 23
50.65
 33
0.0
  0
SOLID
  5
364
330
70
100
AcDbEntity
  8
0
100
AcDbTrace
 10
19.55
 20
55.35
 30
0.0
 11
19.55
 21
56.35
 31
0.0
 12
18.45
 22
55.35
 32
0.0
 13
18.45
 23
56.35
 33
0.0
  0
SOLID
  5
365
330
70
100
AcDbEntity
  8
0
100
AcDbTrace
 10
19.55
 20
53.65
 30
0.0
 11
19.55
 21
54.64999999999999
 31
0.0
 12
18.45
 22
53.65
 32
0.0
 13
18.45
 23
54.64999999999999
 33
0.0
  0
SOLID
  5
366
330
70
100
AcDbEntity
  8
0
100
AcDbTrace
 10
21.55
 20
55.35
 30
0.0
 11
21.55
 21
56.35
 31
0.0
 12
20.45
 22
55.35
 32
0.0
 13
20.45
 23
56.35
 33
0.0
  0
SOLID
  5
367
330
70
100
AcDbEntity
  8
0
100
AcDbTrace
 10
21.55
 20
53.65
 30
0.0
 11
21.55
 21
54.64999999999999
 31
0.0
 12
20.45
 22
53.65
 32
0.0
 13
20.45
 23
54.64999999999999
 33
0.0
  0
SOLID
  5
368
330
70
100
AcDbEntity
  8
0
100
AcDbTrace
 10
25.55
 20
55.35
 30
0.0
 11
25.55
 21
56.35
 31
0.0
 12
24.45
 22
55.35
 32
0.0
 13
24.45
 23
56.35
 33
0.0
  0
SOLID
  5
369
330
70
100
AcDbEntity
  8
0
100
AcDbTrace
 10
25.55
 20
53.65
 30
0.0
 11
25.55
 21
54.64999999999999
 31
0.0
 12
24.45
 22
53.65
 32
0.0
 13
24.45
 23
54.64999999999999
 33
0.0
  0
SOLID
  5
36A
330
70
100
AcDbEntity
  8
0
100
AcDbTrace
 10
27.55
 20
55.35
 30
0.0
 11
27.55
 21
56.35
 31
0.0
 12
26.45
 22
55.35
 32
0.0
 13
26.45
 23
56.35
 33
0.0
  0
SOLID
  5
36B
330
70
100
AcDbEntity
  8
0
100
AcDbTrace
 10
27.55
 20
53.65
 30
0.0
 11
27.55
 21
54.64999999999999
 31
0.0
 12
26.45
 22
53.65
 32
0.0
 13
26.45
 23
54.64999999999999
 33
0.0
  0
SOLID
  5
36C
330
70
100
AcDbEntity
  8
0
100
AcDbTrace
 10
6.65
 20
43.54999999999999
 30
0.0
 11
5.65
 21
43.54999999999999
 31
0.0
 12
6.65
 22
42.45
 32
0.0
 13
5.65
 23
42.45
 33
0.0
  0
SOLID
  5
36D
330
70
100
AcDbEntity
  8
0
100
AcDbTrace
 10
8.349999999999999
 20
43.54999999999999
 30
0.0
 11
7.349999999999999
 21
43.54999999999999
 31
0.0
 12
8.349999999999999
 22
42.45
 32
0.0
 13
7.349999999999999
 23
42.45
 33
0.0
  0
SOLID
  5
36E
330
70
100
AcDbEntity
  8
0
100
AcDbTrace
 10
8.449999999999999
 20
58.65
 30
0.0
 11
8.449999999999999
 21
57.65
 31
0.0
 12
9.55
 22
58.65
 32
0.0
 13
9.55
 23
57.65
 33
0.0
  0
SOLID
  5
36F
330
70
100
AcDbEntity
  8
0
100
AcDbTrace
 10
8.449999999999999
 20
60.35
 30
0.0
 11
8.449999999999999
 21
59.35
 31
0.0
 12
9.55
 22
60.35
 32
0.0
 13
9.55
 23
59.35
 33
0.0
  0
SOLID
  5
370
330
70
100
AcDbEntity
  8
0
100
AcDbTrace
 10
2.45
 20
58.65
 30
0.0
 11
2.449999999999999
 21
57.65
 31
0.0
 12
3.55
 22
58.65
 32
0.0
 13
3.549999999999999
 23
57.65
 33
0.0
  0
SOLID
  5
371
330
70
100
AcDbEntity
  8
0
100
AcDbTrace
 10
2.45
 20
60.35
 30
0.0
 11
2.449999999999999
 21
59.35
 31
0.0
 12
3.55
 22
60.35
 32
0.0
 13
3.549999999999999
 23
59.35
 33
0.0
  0
SOLID
  5
372
330
70
100
AcDbEntity
  8
0
100
AcDbTrace
 10
3.634799999999999
 20
3.888399999999999
 30
0.0
 11
2.634799999999999
 21
3.8884
 31
0.0
 12
3.634799999999999
 22
2.788399999999999
 32
0.0
 13
2.634799999999999
 23
2.7884
 33
0.0
  0
SOLID
  5
373
330
70
100
AcDbEntity
  8
0
100
AcDbTrace
 10
5.3348
 20
3.888399999999999
 30
0.0
 11
4.3348
 21
3.8884
 31
0.0
 12
5.3348
 22
2.788399999999999
 32
0.0
 13
4.3348
 23
2.7884
 33
0.0
  0
SOLID
  5
374
330
70
100
AcDbEntity
  8
0
100
AcDbTrace
 10
29.413
 20
6.269499999999998
 30
0.0
 11
24.587
 21
6.2695
 31
0.0
 12
29.413
 22
0.5544999999999996
 32
0.0
 13
24.587
 23
0.5545000000000005
 33
0.0
  0
SOLID
  5
375
330
70
100
AcDbEntity
  8
0
100
AcDbTrace
 10
25.52
 20
11.81
 30
0.0
 11
23.92
 21
11.81
 31
0.0
 12
25.52
 22
8.81
 32
0.0
 13
23.92
 23
8.81
 33
0.0
  0
SOLID
  5
376
330
70
100
AcDbEntity
  8
0
100
AcDbTrace
 10
30.08
 20
11.81
 30
0.0
 11
28.48
 21
11.81
 31
0.0
 12
30.08
 22
8.81
 32
0.0
 13
28.48
 23
8.81
 33
0.0
  0
SOLID
  5
377
330
70
100
AcDbEntity
  8
0
100
AcDbTrace
 10
5.4
 20
62.65
 30
0.0
 11
4.599999999999999
 21
62.65
 31
0.0
 12
5.4
 22
61.85
 32
0.0
 13
4.599999999999999
 23
61.85
 33
0.0
  0
SOLID
  5
378
330
70
100
AcDbEntity
  8
0
100
AcDbTrace
 10
5.4
 20
64.15
 30
0.0
 11
4.599999999999999
 21
64.15
 31
0.0
 12
5.4
 22
63.35
 32
0.0
 13
4.599999999999999
 23
63.35
 33
0.0
  0
SOLID
  5
379
330
70
100
AcDbEntity
  8
0
100
AcDbTrace
 10
7.4
 20
62.65
 30
0.0
 11
6.599999999999999
 21
62.65
 31
0.0
 12
7.4
 22
61.85
 32
0.0
 13
6.599999999999999
 23
61.85
 33
0.0
  0
SOLID
  5
37A
330
70
100
AcDbEntity
  8
0
100
AcDbTrace
 10
7.4
 20
64.15
 30
0.0
 11
6.599999999999999
 21
64.15
 31
0.0
 12
7.4
 22
63.35
 32
0.0
 13
6.599999999999999
 23
63.35
 33
0.0
  0
SOLID
  5
37B
330
70
100
AcDbEntity
  8
0
100
AcDbTrace
 10
5.4
 20
58.65
 30
0.0
 11
4.599999999999999
 21
58.65
 31
0.0
 12
5.4
 22
57.85
 32
0.0
 13
4.599999999999999
 23
57.85
 33
0.0
  0
SOLID
  5
37C
330
70
100
AcDbEntity
  8
0
100
AcDbTrace
 10
5.4
 20
60.15
 30
0.0
 11
4.599999999999999
 21
60.15
 31
0.0
 12
5.4
 22
59.35
 32
0.0
 13
4.599999999999999
 23
59.35
 33
0.0
  0
SOLID
  5
37D
330
70
100
AcDbEntity
  8
0
100
AcDbTrace
 10
7.4
 20
58.65
 30
0.0
 11
6.599999999999999
 21
58.65
 31
0.0
 12
7.4
 22
57.85
 32
0.0
 13
6.599999999999999
 23
57.85
 33
0.0
  0
SOLID
  5
37E
330
70
100
AcDbEntity
  8
0
100
AcDbTrace
 10
7.4
 20
60.15
 30
0.0
 11
6.599999999999999
 21
60.15
 31
0.0
 12
7.4
 22
59.35
 32
0.0
 13
6.599999999999999
 23
59.35
 33
0.0
  0
SOLID
  5
37F
330
70
100
AcDbEntity
  8
0
100
AcDbTrace
 10
6.7
 20
45.49999999999999
 30
0.0
 11
5.6
 21
45.49999999999999
 31
0.0
 12
6.7
 22
44.5
 32
0.0
 13
5.6
 23
44.5
 33
0.0
  0
SOLID
  5
380
330
70
100
AcDbEntity
  8
0
100
AcDbTrace
 10
8.4
 20
45.49999999999999
 30
0.0
 11
7.299999999999999
 21
45.49999999999999
 31
0.0
 12
8.4
 22
44.5
 32
0.0
 13
7.299999999999999
 23
44.5
 33
0.0
  0
SOLID
  5
381
330
70
100
AcDbEntity
  8
0
100
AcDbTrace
 10
15.4426
 20
41.85979999999999
 30
0.0
 11
15.4426
 21
42.52019999999999
 31
0.0
 12
13.4106
 22
41.85979999999999
 32
0.0
 13
13.4106
 23
42.52019999999999
 33
0.0
  0
SOLID
  5
382
330
70
100
AcDbEntity
  8
0
100
AcDbTrace
 10
15.4426
 20
43.1298
 30
0.0
 11
15.4426
 21
43.79019999999999
 31
0.0
 12
13.4106
 22
43.1298
 32
0.0
 13
13.4106
 23
43.79019999999999
 33
0.0
  0
SOLID
  5
383
330
70
100
AcDbEntity
  8
0
100
AcDbTrace
 10
15.4426
 20
44.3998
 30
0.0
 11
15.4426
 21
45.06019999999999
 31
0.0
 12
13.4106
 22
44.3998
 32
0.0
 13
13.4106
 23
45.06019999999999
 33
0.0
  0
SOLID
  5
384
330
70
100
AcDbEntity
  8
0
100
AcDbTrace
 10
15.4426
 20
45.6698
 30
0.0
 11
15.4426
 21
46.3302
 31
0.0
 12
13.4106
 22
45.6698
 32
0.0
 13
13.4106
 23
46.3302
 33
0.0
  0
SOLID
  5
385
330
70
100
AcDbEntity
  8
0
100
AcDbTrace
 10
15.4426
 20
46.9398
 30
0.0
 11
15.4426
 21
47.60019999999999
 31
0.0
 12
13.4106
 22
46.9398
 32
0.0
 13
13.4106
 23
47.60019999999999
 33
0.0
  0
SOLID
  5
386
330
70
100
AcDbEntity
  8
0
100
AcDbTrace
 10
15.4426
 20
48.2098
 30
0.0
 11
15.4426
 21
48.87019999999999
 31
0.0
 12
13.4106
 22
48.2098
 32
0.0
 13
13.4106
 23
48.87019999999999
 33
0.0
  0
SOLID
  5
387
330
70
100
AcDbEntity
  8
0
100
AcDbTrace
 10
15.4426
 20
49.47980000000001
 30
0.0
 11
15.4426
 21
50.1402
 31
0.0
 12
13.4106
 22
49.47980000000001
 32
0.0
 13
13.4106
 23
50.1402
 33
0.0
  0
SOLID
  5
388
330
70
100
AcDbEntity
  8
0
100
AcDbTrace
 10
21.5894
 20
49.47980000000001
 30
0.0
 11
21.5894
 21
50.1402
 31
0.0
 12
19.5574
 22
49.47980000000001
 32
0.0
 13
19.5574
 23
50.1402
 33
0.0
  0
SOLID
  5
389
330
70
100
AcDbEntity
  8
0
100
AcDbTrace
 10
21.5894
 20
48.2098
 30
0.0
 11
21.5894
 21
48.87019999999999
 31
0.0
 12
19.5574
 22
48.2098
 32
0.0
 13
19.5574
 23
48.87019999999999
 33
0.0
  0
SOLID
  5
38A
330
70
100
AcDbEntity
  8
0
100
AcDbTrace
 10
21.5894
 20
46.9398
 30
0.0
 11
21.5894
 21
47.60019999999999
 31
0.0
 12
19.5574
 22
46.9398
 32
0.0
 13
19.5574
 23
47.60019999999999
 33
0.0
  0
SOLID
  5
38B
330
70
100
AcDbEntity
  8
0
100
AcDbTrace
 10
21.5894
 20
45.6698
 30
0.0
 11
21.5894
 21
46.3302
 31
0.0
 12
19.5574
 22
45.6698
 32
0.0
 13
19.5574
 23
46.3302
 33
0.0
  0
SOLID
  5
38C
330
70
100
AcDbEntity
  8
0
100
AcDbTrace
 10
21.5894
 20
44.3998
 30
0.0
 11
21.5894
 21
45.06019999999999
 31
0.0
 12
19.5574
 22
44.3998
 32
0.0
 13
19.5574
 23
45.06019999999999
 33
0.0
  0
SOLID
  5
38D
330
70
100
AcDbEntity
  8
0
100
AcDbTrace
 10
21.5894
 20
43.1298
 30
0.0
 11
21.5894
 21
43.79019999999999
 31
0.0
 12
19.5574
 22
43.1298
 32
0.0
 13
19.5574
 23
43.79019999999999
 33
0.0
  0
SOLID
  5
38E
330
70
100
AcDbEntity
  8
0
100
AcDbTrace
 10
21.5894
 20
41.85979999999999
 30
0.0
 11
21.5894
 21
42.52019999999999
 31
0.0
 12
19.5574
 22
41.85979999999999
 32
0.0
 13
19.5574
 23
42.52019999999999
 33
0.0
  0
SOLID
  5
38F
330
70
100
AcDbEntity
  8
0
100
AcDbTrace
 10
9.3
 20
18.65
 30
0.0
 11
8.699999999999999
 21
18.65
 31
0.0
 12
9.3
 22
17.85
 32
0.0
 13
8.699999999999999
 23
17.85
 33
0.0
  0
SOLID
  5
390
330
70
100
AcDbEntity
  8
0
100
AcDbTrace
 10
9.3
 20
16.15
 30
0.0
 11
8.699999999999999
 21
16.15
 31
0.0
 12
9.3
 22
15.35
 32
0.0
 13
8.699999999999999
 23
15.35
 33
0.0
  0
SOLID
  5
391
330
70
100
AcDbEntity
  8
0
100
AcDbTrace
 10
9.699999999999999
 20
11.35
 30
0.0
 11
10.3
 21
11.35
 31
0.0
 12
9.699999999999999
 22
12.15
 32
0.0
 13
10.3
 23
12.15
 33
0.0
  0
SOLID
  5
392
330
70
100
AcDbEntity
  8
0
100
AcDbTrace
 10
9.699999999999999
 20
13.85
 30
0.0
 11
10.3
 21
13.85
 31
0.0
 12
9.699999999999999
 22
14.65
 32
0.0
 13
10.3
 23
14.65
 33
0.0
  0
SOLID
  5
393
330
70
100
AcDbEntity
  8
0
100
AcDbTrace
 10
18.3
 20
40.0
 30
0.0
 11
19.4
 21
40.0
 31
0.0
 12
18.3
 22
41.0
 32
0.0
 13
19.4
 23
41.0
 33
0.0
  0
SOLID
  5
394
330
70
100
AcDbEntity
  8
0
100
AcDbTrace
 10
16.6
 20
40.0
 30
0.0
 11
17.7
 21
40.0
 31
0.0
 12
16.6
 22
41.0
 32
0.0
 13
17.7
 23
41.0
 33
0.0
  0
SOLID
  5
395
330
70
100
AcDbEntity
  8
0
100
AcDbTrace
 10
27.75
 20
13.7
 30
0.0
 11
27.75
 21
12.6
 31
0.0
 12
28.75
 22
13.7
 32
0.0
 13
28.75
 23
12.6
 33
0.0
  0
SOLID
  5
396
330
70
100
AcDbEntity
  8
0
100
AcDbTrace
 10
27.75
 20
15.4
 30
0.0
 11
27.75
 21
14.3
 31
0.0
 12
28.75
 22
15.4
 32
0.0
 13
28.75
 23
14.3
 33
0.0
  0
SOLID
  5
397
330
70
100
AcDbEntity
  8
0
100
AcDbTrace
 10
15.5
 20
58.7
 30
0.0
 11
15.5
 21
57.6
 31
0.0
 12
16.5
 22
58.7
 32
0.0
 13
16.5
 23
57.6
 33
0.0
  0
SOLID
  5
398
330
70
100
AcDbEntity
  8
0
100
AcDbTrace
 10
15.5
 20
60.4
 30
0.0
 11
15.5
 21
59.3
 31
0.0
 12
16.5
 22
60.4
 32
0.0
 13
16.5
 23
59.3
 33
0.0
  0
SOLID
  5
399
330
70
100
AcDbEntity
  8
0
100
AcDbTrace
 10
28.5
 20
58.7
 30
0.0
 11
28.5
 21
57.6
 31
0.0
 12
29.5
 22
58.7
 32
0.0
 13
29.5
 23
57.6
 33
0.0
  0
SOLID
  5
39A
330
70
100
AcDbEntity
  8
0
100
AcDbTrace
 10
28.5
 20
60.4
 30
0.0
 11
28.5
 21
59.3
 31
0.0
 12
29.5
 22
60.4
 32
0.0
 13
29.5
 23
59.3
 33
0.0
  0
SOLID
  5
39B
330
70
100
AcDbEntity
  8
0
100
AcDbTrace
 10
21.5
 20
58.7
 30
0.0
 11
21.5
 21
57.6
 31
0.0
 12
22.5
 22
58.7
 32
0.0
 13
22.5
 23
57.6
 33
0.0
  0
SOLID
  5
39C
330
70
100
AcDbEntity
  8
0
100
AcDbTrace
 10
21.5
 20
60.4
 30
0.0
 11
21.5
 21
59.3
 31
0.0
 12
22.5
 22
60.4
 32
0.0
 13
22.5
 23
59.3
 33
0.0
  0
SOLID
  5
39D
330
70
100
AcDbEntity
  8
0
100
AcDbTrace
 10
34.5
 20
58.7
 30
0.0
 11
34.5
 21
57.6
 31
0.0
 12
35.5
 22
58.7
 32
0.0
 13
35.5
 23
57.6
 33
0.0
  0
SOLID
  5
39E
330
70
100
AcDbEntity
  8
0
100
AcDbTrace
 10
34.5
 20
60.4
 30
0.0
 11
34.5
 21
59.3
 31
0.0
 12
35.5
 22
60.4
 32
0.0
 13
35.5
 23
59.3
 33
0.0
  0
SOLID
  5
39F
330
70
100
AcDbEntity
  8
0
100
AcDbTrace
 10
10.5
 20
5.299999999999999
 30
0.0
 11
10.5
 21
6.399999999999999
 31
0.0
 12
9.5
 22
5.299999999999999
 32
0.0
 13
9.5
 23
6.399999999999999
 33
0.0
  0
SOLID
  5
3A0
330
70
100
AcDbEntity
  8
0
100
AcDbTrace
 10
10.5
 20
3.6
 30
0.0
 11
10.5
 21
4.7
 31
0.0
 12
9.5
 22
3.6
 32
0.0
 13
9.5
 23
4.7
 33
0.0
  0
SOLID
  5
3A1
330
70
100
AcDbEntity
  8
0
100
AcDbTrace
 10
19.3
 20
2.5
 30
0.0
 11
20.4
 21
2.5
 31
0.0
 12
19.3
 22
3.5
 32
0.0
 13
20.4
 23
3.5
 33
0.0
  0
SOLID
  5
3A2
330
70
100
AcDbEntity
  8
0
100
AcDbTrace
 10
17.59999999999999
 20
2.5
 30
0.0
 11
18.7
 21
2.5
 31
0.0
 12
17.59999999999999
 22
3.5
 32
0.0
 13
18.7
 23
3.5
 33
0.0
  0
SOLID
  5
3A3
330
70
100
AcDbEntity
  8
0
100
AcDbTrace
 10
11.5
 20
8.700000000000001
 30
0.0
 11
11.5
 21
7.6
 31
0.0
 12
12.5
 22
8.700000000000001
 32
0.0
 13
12.5
 23
7.6
 33
0.0
  0
SOLID
  5
3A4
330
70
100
AcDbEntity
  8
0
100
AcDbTrace
 10
11.5
 20
10.4
 30
0.0
 11
11.5
 21
9.299999999999998
 31
0.0
 12
12.5
 22
10.4
 32
0.0
 13
12.5
 23
9.299999999999998
 33
0.0
  0
SOLID
  5
3A5
330
70
100
AcDbEntity
  8
0
100
AcDbTrace
 10
21.85853787975412
 20
37.43435533905933
 30
0.0
 11
22.63635533905933
 21
36.65653787975413
 31
0.0
 12
22.56564466094067
 22
38.14146212024588
 32
0.0
 13
23.34346212024588
 23
37.36364466094067
 33
0.0
  0
SOLID
  5
3A6
330
70
100
AcDbEntity
  8
0
100
AcDbTrace
 10
20.65653787975413
 20
38.63635533905933
 30
0.0
 11
21.43435533905933
 21
37.85853787975412
 31
0.0
 12
21.36364466094067
 22
39.34346212024588
 32
0.0
 13
22.14146212024588
 23
38.56564466094067
 33
0.0
  0
SOLID
  5
3A7
330
70
100
AcDbEntity
  8
0
100
AcDbTrace
 10
25.43435533905933
 20
26.14146212024588
 30
0.0
 11
24.65653787975413
 21
25.36364466094067
 31
0.0
 12
26.14146212024588
 22
25.43435533905933
 32
0.0
 13
25.36364466094067
 23
24.65653787975413
 33
0.0
  0
SOLID
  5
3A8
330
70
100
AcDbEntity
  8
0
100
AcDbTrace
 10
26.63635533905933
 20
27.34346212024588
 30
0.0
 11
25.85853787975413
 21
26.56564466094067
 31
0.0
 12
27.34346212024588
 22
26.63635533905933
 32
0.0
 13
26.56564466094067
 23
25.85853787975413
 33
0.0
  0
SOLID
  5
3A9
330
70
100
AcDbEntity
  8
0
100
AcDbTrace
 10
12.56564466094067
 20
32.85853787975412
 30
0.0
 11
13.34346212024587
 21
33.63635533905933
 31
0.0
 12
11.85853787975412
 22
33.56564466094067
 32
0.0
 13
12.63635533905933
 23
34.34346212024588
 33
0.0
  0
SOLID
  5
3AA
330
70
100
AcDbEntity
  8
0
100
AcDbTrace
 10
11.36364466094067
 20
31.65653787975413
 30
0.0
 11
12.14146212024587
 21
32.43435533905933
 31
0.0
 12
10.65653787975412
 22
32.36364466094067
 32
0.0
 13
11.43435533905932
 23
33.14146212024588
 33
0.0
  0
SOLID
  5
3AB
330
70
100
AcDbEntity
  8
0
100
AcDbTrace
 10
17.14146212024587
 20
22.56564466094067
 30
0.0
 11
16.36364466094067
 21
23.34346212024588
 31
0.0
 12
16.43435533905933
 22
21.85853787975412
 32
0.0
 13
15.65653787975412
 23
22.63635533905933
 33
0.0
  0
SOLID
  5
3AC
330
70
100
AcDbEntity
  8
0
100
AcDbTrace
 10
18.34346212024587
 20
21.36364466094067
 30
0.0
 11
17.56564466094067
 21
22.14146212024588
 31
0.0
 12
17.63635533905933
 22
20.65653787975413
 32
0.0
 13
16.85853787975412
 23
21.43435533905933
 33
0.0
  0
SOLID
  5
3AD
330
70
100
AcDbEntity
  8
0
100
AcDbTrace
 10
27.5
 20
21.3
 30
0.0
 11
27.5
 21
22.4
 31
0.0
 12
26.5
 22
21.3
 32
0.0
 13
26.5
 23
22.4
 33
0.0
  0
SOLID
  5
3AE
330
70
100
AcDbEntity
  8
0
100
AcDbTrace
 10
27.5
 20
19.6
 30
0.0
 11
27.5
 21
20.7
 31
0.0
 12
26.5
 22
19.6
 32
0.0
 13
26.5
 23
20.7
 33
0.0
  0
SOLID
  5
3AF
330
70
100
AcDbEntity
  8
0
100
AcDbTrace
 10
20.5
 20
13.3
 30
0.0
 11
20.5
 21
14.4
 31
0.0
 12
19.5
 22
13.3
 32
0.0
 13
19.5
 23
14.4
 33
0.0
  0
SOLID
  5
3B0
330
70
100
AcDbEntity
  8
0
100
AcDbTrace
 10
20.5
 20
11.6
 30
0.0
 11
20.5
 21
12.7
 31
0.0
 12
19.5
 22
11.6
 32
0.0
 13
19.5
 23
12.7
 33
0.0
  0
SOLID
  5
3B1
330
70
100
AcDbEntity
  8
0
100
AcDbTrace
 10
16.5
 20
54.69999999999999
 30
0.0
 11
16.5
 21
53.6
 31
0.0
 12
17.5
 22
54.69999999999999
 32
0.0
 13
17.5
 23
53.6
 33
0.0
  0
SOLID
  5
3B2
330
70
100
AcDbEntity
  8
0
100
AcDbTrace
 10
16.5
 20
56.4
 30
0.0
 11
16.5
 21
55.30000000000001
 31
0.0
 12
17.5
 22
56.4
 32
0.0
 13
17.5
 23
55.30000000000001
 33
0.0
  0
SOLID
  5
3B3
330
70
100
AcDbEntity
  8
0
100
AcDbTrace
 10
34.5
 20
50.7
 30
0.0
 11
34.5
 21
49.6
 31
0.0
 12
35.5
 22
50.7
 32
0.0
 13
35.5
 23
49.6
 33
0.0
  0
SOLID
  5
3B4
330
70
100
AcDbEntity
  8
0
100
AcDbTrace
 10
34.5
 20
52.4
 30
0.0
 11
34.5
 21
51.3
 31
0.0
 12
35.5
 22
52.4
 32
0.0
 13
35.5
 23
51.3
 33
0.0
  0
SOLID
  5
3B5
330
70
100
AcDbEntity
  8
0
100
AcDbTrace
 10
22.5
 20
54.69999999999999
 30
0.0
 11
22.5
 21
53.6
 31
0.0
 12
23.5
 22
54.69999999999999
 32
0.0
 13
23.5
 23
53.6
 33
0.0
  0
SOLID
  5
3B6
330
70
100
AcDbEntity
  8
0
100
AcDbTrace
 10
22.5
 20
56.4
 30
0.0
 11
22.5
 21
55.30000000000001
 31
0.0
 12
23.5
 22
56.4
 32
0.0
 13
23.5
 23
55.30000000000001
 33
0.0
  0
SOLID
  5
3B7
330
70
100
AcDbEntity
  8
0
100
AcDbTrace
 10
28.5
 20
54.69999999999999
 30
0.0
 11
28.5
 21
53.6
 31
0.0
 12
29.5
 22
54.69999999999999
 32
0.0
 13
29.5
 23
53.6
 33
0.0
  0
SOLID
  5
3B8
330
70
100
AcDbEntity
  8
0
100
AcDbTrace
 10
28.5
 20
56.4
 30
0.0
 11
28.5
 21
55.30000000000001
 31
0.0
 12
29.5
 22
56.4
 32
0.0
 13
29.5
 23
55.30000000000001
 33
0.0
  0
SOLID
  5
3B9
330
70
100
AcDbEntity
  8
0
100
AcDbTrace
 10
13.5
 20
12.7
 30
0.0
 11
13.5
 21
11.6
 31
0.0
 12
14.5
 22
12.7
 32
0.0
 13
14.5
 23
11.6
 33
0.0
  0
SOLID
  5
3BA
330
70
100
AcDbEntity
  8
0
100
AcDbTrace
 10
13.5
 20
14.4
 30
0.0
 11
13.5
 21
13.3
 31
0.0
 12
14.5
 22
14.4
 32
0.0
 13
14.5
 23
13.3
 33
0.0
  0
SOLID
  5
3BB
330
70
100
AcDbEntity
  8
0
100
AcDbTrace
 10
11.5
 20
12.7
 30
0.0
 11
11.5
 21
11.6
 31
0.0
 12
12.5
 22
12.7
 32
0.0
 13
12.5
 23
11.6
 33
0.0
  0
SOLID
  5
3BC
330
70
100
AcDbEntity
  8
0
100
AcDbTrace
 10
11.5
 20
14.4
 30
0.0
 11
11.5
 21
13.3
 31
0.0
 12
12.5
 22
14.4
 32
0.0
 13
12.5
 23
13.3
 33
0.0
  0
SOLID
  5
3BD
330
70
100
AcDbEntity
  8
0
100
AcDbTrace
 10
12.5
 20
17.3
 30
0.0
 11
12.5
 21
18.4
 31
0.0
 12
11.5
 22
17.3
 32
0.0
 13
11.5
 23
18.4
 33
0.0
  0
SOLID
  5
3BE
330
70
100
AcDbEntity
  8
0
100
AcDbTrace
 10
12.5
 20
15.6
 30
0.0
 11
12.5
 21
16.7
 31
0.0
 12
11.5
 22
15.6
 32
0.0
 13
11.5
 23
16.7
 33
0.0
  0
ENDSEC
  0
SECTION
  2
OBJECTS
  0
DICTIONARY
  5
C
330
0
100
AcDbDictionary
281
     1
  3
ACAD_BACKGROUND
350
1CA
  3
ACAD_CIP_PREVIOUS_PRODUCT_INFO
350
1C9
  3
ACAD_COLOR
350
62
  3
ACAD_DETAILVIEWSTYLE
350
6A
  3
ACAD_GROUP
350
D
  3
ACAD_LAYOUT
350
61
  3
ACAD_MATERIAL
350
10
  3
ACAD_MLEADERSTYLE
350
65
  3
ACAD_MLINESTYLE
350
5E
  3
ACAD_PLOTSETTINGS
350
60
  3
ACAD_PLOTSTYLENAME
350
E
  3
ACAD_SCALELIST
350
42
  3
ACAD_SECTIONVIEWSTYLE
350
67
  3
ACAD_TABLESTYLE
350
63
  3
ACAD_VISUALSTYLE
350
29
  3
ACDB_RECOMPOSE_DATA
350
3DB
  3
AcDbVariableDictionary
350
3CE
  0
DICTIONARY
  5
3C8
330
2
100
AcDbDictionary
280
     1
281
     1
  3
ACAD_LAYERSTATES
360
3C9
  0
DICTIONARY
  5
3BF
330
54
100
AcDbDictionary
280
     1
281
     1
  3
ADSK_XREC_LAYER_RECONCILED
360
3C0
  0
DICTIONARY
  5
3C1
330
74
100
AcDbDictionary
280
     1
281
     1
  3
ADSK_XREC_LAYER_RECONCILED
360
3C2
  0
DICTIONARY
  5
3C3
330
75
100
AcDbDictionary
280
     1
281
     1
  3
ADSK_XREC_LAYER_RECONCILED
360
3C4
  0
DICTIONARY
  5
1CA
102
{ACAD_REACTORS
330
C
102
}
330
C
100
AcDbDictionary
281
     1
  0
XRECORD
  5
1C9
102
{ACAD_REACTORS
330
C
102
}
330
C
100
AcDbXrecord
280
     1
300
ACDMAC
300
2013
300
ACDMAC_F_S
  0
DICTIONARY
  5
62
102
{ACAD_REACTORS
330
C
102
}
330
C
100
AcDbDictionary
281
     1
  0
DICTIONARY
  5
6A
102
{ACAD_REACTORS
330
C
102
}
330
C
100
AcDbDictionary
281
     1
  3
Imperial24
350
6B
  0
DICTIONARY
  5
D
102
{ACAD_REACTORS
330
C
102
}
330
C
100
AcDbDictionary
281
     1
  0
DICTIONARY
  5
61
102
{ACAD_REACTORS
330
C
102
}
330
C
100
AcDbDictionary
281
     1
  3
Layout1
350
6F
  3
Model
350
73
  0
DICTIONARY
  5
10
102
{ACAD_REACTORS
330
C
102
}
330
C
100
AcDbDictionary
281
     1
  3
ByBlock
350
19
  3
ByLayer
350
11
  3
Global
350
21
  0
DICTIONARY
  5
65
102
{ACAD_REACTORS
330
C
102
}
330
C
100
AcDbDictionary
281
     1
  3
Standard
350
66
  0
DICTIONARY
  5
5E
102
{ACAD_REACTORS
330
C
102
}
330
C
100
AcDbDictionary
281
     1
  3
Standard
350
5F
  0
DICTIONARY
  5
60
102
{ACAD_REACTORS
330
C
102
}
330
C
100
AcDbDictionary
281
     1
  0
ACDBDICTIONARYWDFLT
  5
E
102
{ACAD_REACTORS
330
C
102
}
330
C
100
AcDbDictionary
281
     1
  3
Normal
350
F
100
AcDbDictionaryWithDefault
340
F
  0
DICTIONARY
  5
42
102
{ACAD_REACTORS
330
C
102
}
330
C
100
AcDbDictionary
281
     1
  3
A0
350
43
  3
A1
350
44
  3
A2
350
45
  3
A3
350
46
  3
A4
350
47
  3
A5
350
48
  3
A6
350
49
  3
A7
350
4A
  3
A8
350
4B
  3
A9
350
4C
  3
B0
350
4D
  3
B1
350
4E
  3
B2
350
4F
  3
B3
350
50
  3
B4
350
51
  3
B5
350
52
  3
B6
350
53
  0
DICTIONARY
  5
67
102
{ACAD_REACTORS
330
C
102
}
330
C
100
AcDbDictionary
281
     1
  3
Imperial24
350
69
  0
DICTIONARY
  5
63
102
{ACAD_REACTORS
330
C
102
}
330
C
100
AcDbDictionary
281
     1
  3
Standard
350
64
  0
DICTIONARY
  5
29
102
{ACAD_REACTORS
330
C
102
}
330
C
100
AcDbDictionary
281
     1
  3
2dWireframe
350
2F
  3
Basic
350
2E
  3
Brighten
350
35
  3
ColorChange
350
39
  3
Conceptual
350
32
  3
Dim
350
34
  3
EdgeColorOff
350
41
  3
Facepattern
350
38
  3
Flat
350
2A
  3
FlatWithEdges
350
2B
  3
Gouraud
350
2C
  3
GouraudWithEdges
350
2D
  3
Hidden
350
31
  3
JitterOff
350
3F
  3
Linepattern
350
37
  3
OverhangOff
350
40
  3
Realistic
350
33
  3
Shaded
350
3E
  3
Shaded with edges
350
3D
  3
Shades of Gray
350
3A
  3
Sketchy
350
3B
  3
Thicken
350
36
  3
Wireframe
350
30
  3
X-Ray
350
3C
  0
XRECORD
  5
3DB
102
{ACAD_REACTORS
330
C
102
}
330
C
100
AcDbXrecord
280
     1
 90
        1
330
64
  0
DICTIONARY
  5
3CE
102
{ACAD_REACTORS
330
C
102
}
330
C
100
AcDbDictionary
281
     1
  3
CANNOSCALE
350
3D4
  3
CMLEADERSTYLE
350
3D0
  3
CTABLESTYLE
350
3CF
  3
CVIEWDETAILSTYLE
350
3D1
  3
CVIEWSECTIONSTYLE
350
3D2
  3
LAYEREVAL
350
3D6
  3
LAYERNOTIFY
350
3D7
  3
LIGHTINGUNITS
350
3D5
  3
MSLTSCALE
350
3D3
  0
DICTIONARY
  5
3C9
102
{ACAD_REACTORS
330
3C8
102
}
330
3C8
100
AcDbDictionary
281
     1
  0
XRECORD
  5
3C0
102
{ACAD_REACTORS
330
3BF
102
}
330
3BF
100
AcDbXrecord
280
     1
290
     1
  0
XRECORD
  5
3C2
102
{ACAD_REACTORS
330
3C1
102
}
330
3C1
100
AcDbXrecord
280
     1
290
     1
  0
XRECORD
  5
3C4
102
{ACAD_REACTORS
330
3C3
102
}
330
3C3
100
AcDbXrecord
280
     1
290
     1
  0
ACDBDETAILVIEWSTYLE
  5
6B
102
{ACAD_REACTORS
330
6A
102
}
330
6A
100
AcDbModelDocViewStyle
 70
     0
  3
Imperial24
290
     0
100
AcDbDetailViewStyle
 70
     0
 71
     0
 90
        3
 71
     1
340
55
 62
   256
 40
0.24
340
0
 62
   256
 40
0.24
300

 40
0.36
280
     3
 71
     2
340
5C
 90
       25
 62
   256
 71
     3
340
55
 62
   256
 40
0.24
 90
        1
 40
0.75
 90
        1
300
%<\AcVar ViewType \f "%tc1">% %<\AcVar ViewDetailId>%\PSCALE %<\AcVar ViewScale \f "%sn">%
 71
     4
340
5C
 90
       25
 62
   256
340
5C
 90
       25
 62
   256
280
     0
  0
LAYOUT
  5
6F
102
{ACAD_REACTORS
330
61
102
}
330
61
100
AcDbPlotSettings
  1

  2
Samsung_SCX_3400_Series__SEC001599E13E53_
  4

  6

 40
0.0
 41
0.0
 42
0.0
 43
0.0
 44
0.0
 45
0.0
 46
0.0
 47
0.0
 48
0.0
 49
0.0
140
0.0
141
0.0
142
1.0
143
1.0
 70
   688
 72
     0
 73
     0
 74
     5
  7

 75
    16
147
1.0
 76
     0
 77
     2
 78
   300
148
0.0
149
0.0
100
AcDbLayout
  1
Layout1
 70
     1
 71
     1
 10
0.0
 20
0.0
 11
12.0
 21
9.0
 12
0.0
 22
0.0
 32
0.0
 14
1.000000000000000E+20
 24
1.000000000000000E+20
 34
1.000000000000000E+20
 15
-1.000000000000000E+20
 25
-1.000000000000000E+20
 35
-1.000000000000000E+20
146
0.0
 13
0.0
 23
0.0
 33
0.0
 16
1.0
 26
0.0
 36
0.0
 17
0.0
 27
1.0
 37
0.0
 76
     0
330
6C
  0
LAYOUT
  5
73
102
{ACAD_REACTORS
330
61
102
}
330
61
100
AcDbPlotSettings
  1

  2
Samsung_SCX_3400_Series__SEC001599E13E53_
  4

  6

 40
0.0
 41
0.0
 42
0.0
 43
0.0
 44
0.0
 45
0.0
 46
0.0
 47
0.0
 48
0.0
 49
0.0
140
0.0
141
0.0
142
1.0
143
1.0
 70
  1712
 72
     0
 73
     0
 74
     0
  7

 75
     0
147
1.0
 76
     0
 77
     2
 78
   300
148
0.0
149
0.0
100
AcDbLayout
  1
Model
 70
     1
 71
     0
 10
0.0
 20
0.0
 11
12.0
 21
9.0
 12
0.0
 22
0.0
 32
0.0
 14
0.0
 24
0.0
 34
0.0
 15
0.0
 25
0.0
 35
0.0
146
0.0
 13
0.0
 23
0.0
 33
0.0
 16
1.0
 26
0.0
 36
0.0
 17
0.0
 27
1.0
 37
0.0
 76
     0
330
70
331
77
  0
MATERIAL
  5
19
102
{ACAD_XDICTIONARY
360
1A
102
}
102
{ACAD_REACTORS
330
10
102
}
330
10
100
AcDbMaterial
  1
ByBlock
 72
     0
 43
0.0208333333333333
 43
0.0
 43
0.0
 43
0.0
 43
0.0
 43
0.0208333333333333
 43
0.0
 43
0.0
 43
0.0
 43
0.0
 43
1.0
 43
0.0
 43
0.0
 43
0.0
 43
0.0
 43
1.0
 77
     0
 47
0.0208333333333333
 47
0.0
 47
0.0
 47
0.0
 47
0.0
 47
0.0208333333333333
 47
0.0
 47
0.0
 47
0.0
 47
0.0
 47
1.0
 47
0.0
 47
0.0
 47
0.0
 47
0.0
 47
1.0
171
     0
 49
0.0208333333333333
 49
0.0
 49
0.0
 49
0.0
 49
0.0
 49
0.0208333333333333
 49
0.0
 49
0.0
 49
0.0
 49
0.0
 49
1.0
 49
0.0
 49
0.0
 49
0.0
 49
0.0
 49
1.0
175
     0
142
0.0208333333333333
142
0.0
142
0.0
142
0.0
142
0.0
142
0.0208333333333333
142
0.0
142
0.0
142
0.0
142
0.0
142
1.0
142
0.0
142
0.0
142
0.0
142
0.0
142
1.0
179
     0
144
0.0208333333333333
144
0.0
144
0.0
144
0.0
144
0.0
144
0.0208333333333333
144
0.0
144
0.0
144
0.0
144
0.0
144
1.0
144
0.0
144
0.0
144
0.0
144
0.0
144
1.0
147
0.0208333333333333
147
0.0
147
0.0
147
0.0
147
0.0
147
0.0208333333333333
147
0.0
147
0.0
147
0.0
147
0.0
147
1.0
147
0.0
147
0.0
147
0.0
147
0.0
147
1.0
  0
MATERIAL
  5
11
102
{ACAD_XDICTIONARY
360
12
102
}
102
{ACAD_REACTORS
330
10
102
}
330
10
100
AcDbMaterial
  1
ByLayer
 72
     0
 43
0.0208333333333333
 43
0.0
 43
0.0
 43
0.0
 43
0.0
 43
0.0208333333333333
 43
0.0
 43
0.0
 43
0.0
 43
0.0
 43
1.0
 43
0.0
 43
0.0
 43
0.0
 43
0.0
 43
1.0
 77
     0
 47
0.0208333333333333
 47
0.0
 47
0.0
 47
0.0
 47
0.0
 47
0.0208333333333333
 47
0.0
 47
0.0
 47
0.0
 47
0.0
 47
1.0
 47
0.0
 47
0.0
 47
0.0
 47
0.0
 47
1.0
171
     0
 49
0.0208333333333333
 49
0.0
 49
0.0
 49
0.0
 49
0.0
 49
0.0208333333333333
 49
0.0
 49
0.0
 49
0.0
 49
0.0
 49
1.0
 49
0.0
 49
0.0
 49
0.0
 49
0.0
 49
1.0
175
     0
142
0.0208333333333333
142
0.0
142
0.0
142
0.0
142
0.0
142
0.0208333333333333
142
0.0
142
0.0
142
0.0
142
0.0
142
1.0
142
0.0
142
0.0
142
0.0
142
0.0
142
1.0
179
     0
144
0.0208333333333333
144
0.0
144
0.0
144
0.0
144
0.0
144
0.0208333333333333
144
0.0
144
0.0
144
0.0
144
0.0
144
1.0
144
0.0
144
0.0
144
0.0
144
0.0
144
1.0
147
0.0208333333333333
147
0.0
147
0.0
147
0.0
147
0.0
147
0.0208333333333333
147
0.0
147
0.0
147
0.0
147
0.0
147
1.0
147
0.0
147
0.0
147
0.0
147
0.0
147
1.0
  0
MATERIAL
  5
21
102
{ACAD_XDICTIONARY
360
22
102
}
102
{ACAD_REACTORS
330
10
102
}
330
10
100
AcDbMaterial
  1
Global
 72
     0
 43
0.0208333333333333
 43
0.0
 43
0.0
 43
0.0
 43
0.0
 43
0.0208333333333333
 43
0.0
 43
0.0
 43
0.0
 43
0.0
 43
1.0
 43
0.0
 43
0.0
 43
0.0
 43
0.0
 43
1.0
 77
     0
 47
0.0208333333333333
 47
0.0
 47
0.0
 47
0.0
 47
0.0
 47
0.0208333333333333
 47
0.0
 47
0.0
 47
0.0
 47
0.0
 47
1.0
 47
0.0
 47
0.0
 47
0.0
 47
0.0
 47
1.0
171
     0
 49
0.0208333333333333
 49
0.0
 49
0.0
 49
0.0
 49
0.0
 49
0.0208333333333333
 49
0.0
 49
0.0
 49
0.0
 49
0.0
 49
1.0
 49
0.0
 49
0.0
 49
0.0
 49
0.0
 49
1.0
175
     0
142
0.0208333333333333
142
0.0
142
0.0
142
0.0
142
0.0
142
0.0208333333333333
142
0.0
142
0.0
142
0.0
142
0.0
142
1.0
142
0.0
142
0.0
142
0.0
142
0.0
142
1.0
179
     0
144
0.0208333333333333
144
0.0
144
0.0
144
0.0
144
0.0
144
0.0208333333333333
144
0.0
144
0.0
144
0.0
144
0.0
144
1.0
144
0.0
144
0.0
144
0.0
144
0.0
144
1.0
147
0.0208333333333333
147
0.0
147
0.0
147
0.0
147
0.0
147
0.0208333333333333
147
0.0
147
0.0
147
0.0
147
0.0
147
1.0
147
0.0
147
0.0
147
0.0
147
0.0
147
1.0
  0
MLEADERSTYLE
  5
66
102
{ACAD_REACTORS
330
65
102
}
330
65
100
AcDbMLeaderStyle
179
     2
170
     2
171
     1
172
     0
 90
        2
 40
0.0
 41
0.0
173
     1
 91
-1056964608
340
5A
 92
       -2
290
     1
 42
0.09
291
     1
 43
0.36
  3
Standard
 44
0.18
300

342
55
174
     1
178
     6
175
     1
176
     0
 93
-1056964608
 45
0.18
292
     0
297
     0
 46
0.18
 94
-1056964608
 47
1.0
 49
1.0
140
1.0
293
     1
141
0.0
294
     1
177
     0
142
1.0
295
     0
296
     0
143
0.125
271
     0
272
     9
273
     9
298
     0
  0
MLINESTYLE
  5
5F
102
{ACAD_REACTORS
330
5E
102
}
330
5E
100
AcDbMlineStyle
  2
STANDARD
 70
     0
  3

 62
   256
 51
90.0
 52
90.0
 71
     2
 49
0.5
 62
   256
  6
BYLAYER
 49
-0.5
 62
   256
  6
BYLAYER
  0
ACDBPLACEHOLDER
  5
F
102
{ACAD_REACTORS
330
E
102
}
330
E
  0
SCALE
  5
43
102
{ACAD_REACTORS
330
42
102
}
330
42
100
AcDbScale
 70
     0
300
1:1
140
1.0
141
1.0
290
     1
  0
SCALE
  5
44
102
{ACAD_REACTORS
330
42
102
}
330
42
100
AcDbScale
 70
     0
300
1/128" = 1'-0"
140
0.0078125
141
12.0
290
     0
  0
SCALE
  5
45
102
{ACAD_REACTORS
330
42
102
}
330
42
100
AcDbScale
 70
     0
300
1/64" = 1'-0"
140
0.015625
141
12.0
290
     0
  0
SCALE
  5
46
102
{ACAD_REACTORS
330
42
102
}
330
42
100
AcDbScale
 70
     0
300
1/32" = 1'-0"
140
0.03125
141
12.0
290
     0
  0
SCALE
  5
47
102
{ACAD_REACTORS
330
42
102
}
330
42
100
AcDbScale
 70
     0
300
1/16" = 1'-0"
140
0.0625
141
12.0
290
     0
  0
SCALE
  5
48
102
{ACAD_REACTORS
330
42
102
}
330
42
100
AcDbScale
 70
     0
300
3/32" = 1'-0"
140
0.09375
141
12.0
290
     0
  0
SCALE
  5
49
102
{ACAD_REACTORS
330
42
102
}
330
42
100
AcDbScale
 70
     0
300
1/8" = 1'-0"
140
0.125
141
12.0
290
     0
  0
SCALE
  5
4A
102
{ACAD_REACTORS
330
42
102
}
330
42
100
AcDbScale
 70
     0
300
3/16" = 1'-0"
140
0.1875
141
12.0
290
     0
  0
SCALE
  5
4B
102
{ACAD_REACTORS
330
42
102
}
330
42
100
AcDbScale
 70
     0
300
1/4" = 1'-0"
140
0.25
141
12.0
290
     0
  0
SCALE
  5
4C
102
{ACAD_REACTORS
330
42
102
}
330
42
100
AcDbScale
 70
     0
300
3/8" = 1'-0"
140
0.375
141
12.0
290
     0
  0
SCALE
  5
4D
102
{ACAD_REACTORS
330
42
102
}
330
42
100
AcDbScale
 70
     0
300
1/2" = 1'-0"
140
0.5
141
12.0
290
     0
  0
SCALE
  5
4E
102
{ACAD_REACTORS
330
42
102
}
330
42
100
AcDbScale
 70
     0
300
3/4" = 1'-0"
140
0.75
141
12.0
290
     0
  0
SCALE
  5
4F
102
{ACAD_REACTORS
330
42
102
}
330
42
100
AcDbScale
 70
     0
300
1" = 1'-0"
140
1.0
141
12.0
290
     0
  0
SCALE
  5
50
102
{ACAD_REACTORS
330
42
102
}
330
42
100
AcDbScale
 70
     0
300
1-1/2" = 1'-0"
140
1.5
141
12.0
290
     0
  0
SCALE
  5
51
102
{ACAD_REACTORS
330
42
102
}
330
42
100
AcDbScale
 70
     0
300
3" = 1'-0"
140
3.0
141
12.0
290
     0
  0
SCALE
  5
52
102
{ACAD_REACTORS
330
42
102
}
330
42
100
AcDbScale
 70
     0
300
6" = 1'-0"
140
6.0
141
12.0
290
     0
  0
SCALE
  5
53
102
{ACAD_REACTORS
330
42
102
}
330
42
100
AcDbScale
 70
     0
300
1'-0" = 1'-0"
140
12.0
141
12.0
290
     0
  0
ACDBSECTIONVIEWSTYLE
  5
69
102
{ACAD_REACTORS
330
67
102
}
330
67
100
AcDbModelDocViewStyle
 70
     0
  3
Imperial24
290
     0
100
AcDbSectionViewStyle
 70
     0
 71
     0
 90
       78
 71
     1
340
55
 62
   256
 40
0.24
340
0
340
0
 62
   256
 40
0.24
300
I, O, Q, S, X, Z
 40
0.48
 90
        3
 40
0.18
 90
        1
 71
     2
340
68
 90
       25
 62
   256
340
5C
 90
       50
 62
   256
 40
0.24
 40
0.0
 40
0.24
 71
     3
340
55
 62
   256
 40
0.24
 90
        1
 40
0.75
 90
        1
300
%<\AcVar ViewType \f "%tc1">% %<\AcVar ViewSectionStartId>%-%<\AcVar ViewSectionEndId>%\PSCALE %<\AcVar ViewScale \f "%sn">%
 71
     4
 62
   256
 62
   257
300
ANSI31
 40
1.0
 90
        0
290
     0
290
     0
 90
        6
 40
0.0
 40
1.570796326794896
 40
0.2617993877991494
 40
1.308996938995747
 40
-0.2617993877991494
 40
1.832595714594046
  0
TABLESTYLE
  5
64
102
{ACAD_XDICTIONARY
360
3D9
102
}
102
{ACAD_REACTORS
330
63
102
}
330
63
100
AcDbTableStyle
280
     0
  3
Standard
 70
     0
 71
     0
 40
0.06
 41
0.06
280
     0
281
     0
  7
Standard
140
0.18
170
     2
 62
     0
 63
     7
283
     0
 90
      512
 91
        0
  1

274
    -2
284
     1
 64
     0
275
    -2
285
     1
 65
     0
276
    -2
286
     1
 66
     0
277
    -2
287
     1
 67
     0
278
    -2
288
     1
 68
     0
279
    -2
289
     1
 69
     0
  7
Standard
140
0.25
170
     5
 62
     0
 63
     7
283
     0
 90
      512
 91
        0
  1

274
    -2
284
     1
 64
     0
275
    -2
285
     1
 65
     0
276
    -2
286
     1
 66
     0
277
    -2
287
     1
 67
     0
278
    -2
288
     1
 68
     0
279
    -2
289
     1
 69
     0
  7
Standard
140
0.18
170
     5
 62
     0
 63
     7
283
     0
 90
      512
 91
        0
  1

274
    -2
284
     1
 64
     0
275
    -2
285
     1
 65
     0
276
    -2
286
     1
 66
     0
277
    -2
287
     1
 67
     0
278
    -2
288
     1
 68
     0
279
    -2
289
     1
 69
     0
  0
VISUALSTYLE
  5
2F
102
{ACAD_REACTORS
330
29
102
}
330
29
100
AcDbVisualStyle
  2
2dWireframe
 70
     4
177
     3
291
     0
 70
    58
 90
        0
176
     1
 90
        2
176
     1
 90
        0
176
     1
 90
        0
176
     1
 40
0.6
176
     1
 40
30.0
176
     1
 62
     7
420
 16777215
176
     1
 90
        1
176
     1
 90
        4
176
     1
 62
     7
176
     1
 62
   257
176
     1
 90
        1
176
     1
 90
        1
176
     1
 40
1.0
176
     1
 90
        0
176
     1
 62
   257
176
     1
 40
1.0
176
     1
 90
        1
176
     1
 90
        6
176
     1
 90
        2
176
     1
 62
     7
176
     1
 90
        5
176
     1
 90
        0
176
     1
 90
        0
176
     1
290
     0
176
     1
 90
        1
176
     1
 40
0.0
176
     1
 90
        0
176
     1
290
     1
176
     1
290
     1
176
     1
290
     0
176
     1
290
     0
176
     1
290
     0
176
     1
290
     0
176
     1
290
     0
176
     1
290
     0
176
     1
290
     0
176
     1
 90
       50
176
     1
 40
0.0
176
     1
 40
1.0
176
     1
 90
        0
176
     1
 62
    18
420
        0
176
     1
 90
       50
176
     1
 90
        3
176
     1
 62
     5
420
      255
176
     1
290
     0
176
     1
 90
       50
176
     1
 90
       50
176
     1
 90
       50
176
     1
290
     0
176
     1
 90
       50
176
     1
 62
   256
176
     0
 40
1.0
176
     0
 90
        2
176
     1
  1
strokes_ogs.tif
176
     1
290
     0
176
     1
 40
1.0
176
     1
 40
1.0
176
     1
  0
VISUALSTYLE
  5
2E
102
{ACAD_REACTORS
330
29
102
}
330
29
100
AcDbVisualStyle
  2
Basic
 70
     7
177
     3
291
     1
 70
    58
 90
        1
176
     1
 90
        0
176
     1
 90
        1
176
     1
 90
        0
176
     1
 40
0.6
176
     1
 40
30.0
176
     1
 62
     7
420
 16777215
176
     1
 90
        0
176
     1
 90
        4
176
     1
 62
     7
176
     1
 62
   257
176
     1
 90
        1
176
     1
 90
        1
176
     1
 40
1.0
176
     1
 90
        8
176
     1
 62
     7
176
     1
 40
1.0
176
     1
 90
        1
176
     1
 90
        6
176
     1
 90
        2
176
     1
 62
     7
176
     1
 90
        5
176
     1
 90
        0
176
     1
 90
        0
176
     1
290
     0
176
     1
 90
        1
176
     1
 40
0.0
176
     1
 90
        0
176
     1
290
     0
176
     1
290
     1
176
     1
290
     1
176
     1
290
     0
176
     1
290
     0
176
     1
290
     0
176
     1
290
     0
176
     1
290
     0
176
     1
290
     0
176
     1
 90
       50
176
     1
 40
0.0
176
     1
 40
1.0
176
     1
 90
        0
176
     1
 62
    18
420
        0
176
     1
 90
       50
176
     1
 90
        3
176
     1
 62
     5
420
      255
176
     1
290
     0
176
     1
 90
       50
176
     1
 90
       50
176
     1
 90
       50
176
     1
290
     0
176
     1
 90
       50
176
     1
 62
   256
176
     0
 40
1.0
176
     0
 90
        2
176
     1
  1
strokes_ogs.tif
176
     1
290
     0
176
     1
 40
1.0
176
     1
 40
1.0
176
     1
  0
VISUALSTYLE
  5
35
102
{ACAD_REACTORS
330
29
102
}
330
29
100
AcDbVisualStyle
  2
Brighten
 70
    12
177
     3
291
     1
 70
    58
 90
        2
176
     1
 90
        2
176
     1
 90
        0
176
     1
 90
        0
176
     1
 40
0.6
176
     1
 40
30.0
176
     1
 62
     7
420
 16777215
176
     1
 90
        1
176
     1
 90
        4
176
     1
 62
     7
176
     1
 62
   257
176
     1
 90
        1
176
     1
 90
        1
176
     1
 40
1.0
176
     1
 90
        8
176
     1
 62
     7
176
     1
 40
1.0
176
     1
 90
        1
176
     1
 90
        6
176
     1
 90
        2
176
     1
 62
     7
176
     1
 90
        5
176
     1
 90
        0
176
     1
 90
        0
176
     1
290
     0
176
     1
 90
        1
176
     1
 40
50.0
176
     1
 90
        0
176
     1
290
     0
176
     1
290
     1
176
     1
290
     1
176
     1
290
     0
176
     1
290
     0
176
     1
290
     0
176
     1
290
     0
176
     1
290
     0
176
     1
290
     0
176
     1
 90
       50
176
     1
 40
0.0
176
     1
 40
1.0
176
     1
 90
        0
176
     1
 62
    18
420
        0
176
     1
 90
       50
176
     1
 90
        3
176
     1
 62
     5
420
      255
176
     1
290
     0
176
     1
 90
       50
176
     1
 90
       50
176
     1
 90
       50
176
     1
290
     0
176
     1
 90
       50
176
     1
 62
   256
176
     0
 40
1.0
176
     0
 90
        2
176
     1
  1
strokes_ogs.tif
176
     1
290
     0
176
     1
 40
1.0
176
     1
 40
1.0
176
     1
  0
VISUALSTYLE
  5
39
102
{ACAD_REACTORS
330
29
102
}
330
29
100
AcDbVisualStyle
  2
ColorChange
 70
    16
177
     3
291
     1
 70
    58
 90
        2
176
     1
 90
        2
176
     1
 90
        3
176
     1
 90
        0
176
     1
 40
0.6
176
     1
 40
30.0
176
     1
 62
     8
420
  8421504
176
     1
 90
        1
176
     1
 90
        4
176
     1
 62
     7
176
     1
 62
   257
176
     1
 90
        1
176
     1
 90
        1
176
     1
 40
1.0
176
     1
 90
        8
176
     1
 62
     8
420
  8421504
176
     1
 40
1.0
176
     1
 90
        1
176
     1
 90
        6
176
     1
 90
        2
176
     1
 62
     7
176
     1
 90
        5
176
     1
 90
        0
176
     1
 90
        0
176
     1
290
     0
176
     1
 90
        1
176
     1
 40
0.0
176
     1
 90
        0
176
     1
290
     0
176
     1
290
     1
176
     1
290
     1
176
     1
290
     0
176
     1
290
     0
176
     1
290
     0
176
     1
290
     0
176
     1
290
     0
176
     1
290
     0
176
     1
 90
       50
176
     1
 40
0.0
176
     1
 40
1.0
176
     1
 90
        0
176
     1
 62
    18
420
        0
176
     1
 90
       50
176
     1
 90
        3
176
     1
 62
     5
420
      255
176
     1
290
     0
176
     1
 90
       50
176
     1
 90
       50
176
     1
 90
       50
176
     1
290
     0
176
     1
 90
       50
176
     1
 62
   256
176
     0
 40
1.0
176
     0
 90
        2
176
     1
  1
strokes_ogs.tif
176
     1
290
     0
176
     1
 40
1.0
176
     1
 40
1.0
176
     1
  0
VISUALSTYLE
  5
32
102
{ACAD_REACTORS
330
29
102
}
330
29
100
AcDbVisualStyle
  2
Conceptual
 70
     9
177
     3
291
     0
 70
    58
 90
        3
176
     1
 90
        2
176
     1
 90
        0
176
     1
 90
        0
176
     1
 40
0.6
176
     1
 40
30.0
176
     1
 62
     7
420
 16777215
176
     1
 90
        2
176
     1
 90
        2
176
     1
 62
     7
176
     1
 62
   257
176
     1
 90
        1
176
     1
 90
        1
176
     1
 40
179.0
176
     1
 90
        8
176
     1
 62
     7
176
     1
 40
1.0
176
     1
 90
        1
176
     1
 90
        6
176
     1
 90
        2
176
     1
 62
     7
176
     1
 90
        3
176
     1
 90
        0
176
     1
 90
        0
176
     1
290
     0
176
     1
 90
        1
176
     1
 40
0.0
176
     1
 90
        0
176
     1
290
     0
176
     1
290
     1
176
     1
290
     1
176
     1
290
     0
176
     1
290
     0
176
     1
290
     0
176
     1
290
     0
176
     1
290
     0
176
     1
290
     0
176
     1
 90
       50
176
     1
 40
0.0
176
     1
 40
1.0
176
     1
 90
        0
176
     1
 62
    18
420
        0
176
     1
 90
       50
176
     1
 90
        3
176
     1
 62
     5
420
      255
176
     1
290
     0
176
     1
 90
       50
176
     1
 90
       50
176
     1
 90
       50
176
     1
290
     0
176
     1
 90
       50
176
     1
 62
   256
176
     0
 40
1.0
176
     0
 90
        2
176
     1
  1
strokes_ogs.tif
176
     1
290
     0
176
     1
 40
1.0
176
     1
 40
1.0
176
     1
  0
VISUALSTYLE
  5
34
102
{ACAD_REACTORS
330
29
102
}
330
29
100
AcDbVisualStyle
  2
Dim
 70
    11
177
     3
291
     1
 70
    58
 90
        2
176
     1
 90
        2
176
     1
 90
        0
176
     1
 90
        0
176
     1
 40
0.6
176
     1
 40
30.0
176
     1
 62
     7
420
 16777215
176
     1
 90
        1
176
     1
 90
        4
176
     1
 62
     7
176
     1
 62
   257
176
     1
 90
        1
176
     1
 90
        1
176
     1
 40
1.0
176
     1
 90
        8
176
     1
 62
     7
176
     1
 40
1.0
176
     1
 90
        1
176
     1
 90
        6
176
     1
 90
        2
176
     1
 62
     7
176
     1
 90
        5
176
     1
 90
        0
176
     1
 90
        0
176
     1
290
     0
176
     1
 90
        1
176
     1
 40
-50.0
176
     1
 90
        0
176
     1
290
     0
176
     1
290
     1
176
     1
290
     1
176
     1
290
     0
176
     1
290
     0
176
     1
290
     0
176
     1
290
     0
176
     1
290
     0
176
     1
290
     0
176
     1
 90
       50
176
     1
 40
0.0
176
     1
 40
1.0
176
     1
 90
        0
176
     1
 62
    18
420
        0
176
     1
 90
       50
176
     1
 90
        3
176
     1
 62
     5
420
      255
176
     1
290
     0
176
     1
 90
       50
176
     1
 90
       50
176
     1
 90
       50
176
     1
290
     0
176
     1
 90
       50
176
     1
 62
   256
176
     0
 40
1.0
176
     0
 90
        2
176
     1
  1
strokes_ogs.tif
176
     1
290
     0
176
     1
 40
1.0
176
     1
 40
1.0
176
     1
  0
VISUALSTYLE
  5
41
102
{ACAD_REACTORS
330
29
102
}
330
29
100
AcDbVisualStyle
  2
EdgeColorOff
 70
    22
177
     3
291
     1
 70
    58
 90
        2
176
     0
 90
        2
176
     0
 90
        0
176
     0
 90
        0
176
     0
 40
0.6
176
     0
 40
30.0
176
     0
 62
     7
420
 16777215
176
     0
 90
        1
176
     0
 90
        4
176
     0
 62
     7
176
     0
 62
   257
176
     0
 90
        1
176
     0
 90
        1
176
     0
 40
1.0
176
     0
 90
        8
176
     2
 62
     7
176
     0
 40
1.0
176
     0
 90
        1
176
     0
 90
        6
176
     0
 90
        2
176
     0
 62
     7
176
     0
 90
        5
176
     0
 90
        0
176
     0
 90
        0
176
     0
290
     0
176
     0
 90
        1
176
     0
 40
0.0
176
     0
 90
        0
176
     0
290
     0
176
     1
290
     1
176
     1
290
     1
176
     1
290
     0
176
     1
290
     0
176
     1
290
     0
176
     1
290
     0
176
     1
290
     0
176
     1
290
     0
176
     1
 90
       50
176
     0
 40
0.0
176
     0
 40
1.0
176
     0
 90
        0
176
     0
 62
    18
420
        0
176
     0
 90
       50
176
     0
 90
        3
176
     0
 62
     5
420
      255
176
     0
290
     0
176
     1
 90
       50
176
     0
 90
       50
176
     0
 90
       50
176
     0
290
     0
176
     1
 90
       50
176
     0
 62
   256
176
     0
 40
1.0
176
     0
 90
        2
176
     0
  1
strokes_ogs.tif
176
     0
290
     0
176
     1
 40
1.0
176
     0
 40
1.0
176
     0
  0
VISUALSTYLE
  5
38
102
{ACAD_REACTORS
330
29
102
}
330
29
100
AcDbVisualStyle
  2
Facepattern
 70
    15
177
     3
291
     1
 70
    58
 90
        2
176
     1
 90
        2
176
     1
 90
        0
176
     1
 90
        0
176
     1
 40
0.6
176
     1
 40
30.0
176
     1
 62
     7
420
 16777215
176
     1
 90
        1
176
     1
 90
        4
176
     1
 62
     7
176
     1
 62
   257
176
     1
 90
        1
176
     1
 90
        1
176
     1
 40
1.0
176
     1
 90
        8
176
     1
 62
     7
176
     1
 40
1.0
176
     1
 90
        1
176
     1
 90
        6
176
     1
 90
        2
176
     1
 62
     7
176
     1
 90
        5
176
     1
 90
        0
176
     1
 90
        0
176
     1
290
     0
176
     1
 90
        1
176
     1
 40
0.0
176
     1
 90
        0
176
     1
290
     0
176
     1
290
     1
176
     1
290
     1
176
     1
290
     0
176
     1
290
     0
176
     1
290
     0
176
     1
290
     0
176
     1
290
     0
176
     1
290
     0
176
     1
 90
       50
176
     1
 40
0.0
176
     1
 40
1.0
176
     1
 90
        0
176
     1
 62
    18
420
        0
176
     1
 90
       50
176
     1
 90
        3
176
     1
 62
     5
420
      255
176
     1
290
     0
176
     1
 90
       50
176
     1
 90
       50
176
     1
 90
       50
176
     1
290
     0
176
     1
 90
       50
176
     1
 62
   256
176
     0
 40
1.0
176
     0
 90
        2
176
     1
  1
strokes_ogs.tif
176
     1
290
     0
176
     1
 40
1.0
176
     1
 40
1.0
176
     1
  0
VISUALSTYLE
  5
2A
102
{ACAD_REACTORS
330
29
102
}
330
29
100
AcDbVisualStyle
  2
Flat
 70
     0
177
     3
291
     1
 70
    58
 90
        2
176
     1
 90
        1
176
     1
 90
        1
176
     1
 90
        2
176
     1
 40
0.6
176
     1
 40
30.0
176
     1
 62
     7
420
 16777215
176
     1
 90
        0
176
     1
 90
        0
176
     1
 62
     7
176
     1
 62
   257
176
     1
 90
        1
176
     1
 90
        1
176
     1
 40
1.0
176
     1
 90
        8
176
     1
 62
     7
176
     1
 40
1.0
176
     1
 90
        1
176
     1
 90
        6
176
     1
 90
        2
176
     1
 62
     7
176
     1
 90
        5
176
     1
 90
        0
176
     1
 90
        0
176
     1
290
     0
176
     1
 90
       13
176
     1
 40
0.0
176
     1
 90
        0
176
     1
290
     0
176
     1
290
     1
176
     1
290
     1
176
     1
290
     0
176
     1
290
     0
176
     1
290
     0
176
     1
290
     0
176
     1
290
     0
176
     1
290
     0
176
     1
 90
       50
176
     1
 40
0.0
176
     1
 40
1.0
176
     1
 90
        0
176
     1
 62
    18
420
        0
176
     1
 90
       50
176
     1
 90
        3
176
     1
 62
     5
420
      255
176
     1
290
     0
176
     1
 90
       50
176
     1
 90
       50
176
     1
 90
       50
176
     1
290
     0
176
     1
 90
       50
176
     1
 62
   256
176
     0
 40
1.0
176
     0
 90
        2
176
     1
  1
strokes_ogs.tif
176
     1
290
     0
176
     1
 40
1.0
176
     1
 40
1.0
176
     1
  0
VISUALSTYLE
  5
2B
102
{ACAD_REACTORS
330
29
102
}
330
29
100
AcDbVisualStyle
  2
FlatWithEdges
 70
     1
177
     3
291
     1
 70
    58
 90
        2
176
     1
 90
        1
176
     1
 90
        1
176
     1
 90
        2
176
     1
 40
0.6
176
     1
 40
30.0
176
     1
 62
     7
420
 16777215
176
     1
 90
        1
176
     1
 90
        0
176
     1
 62
     7
176
     1
 62
   257
176
     1
 90
        1
176
     1
 90
        1
176
     1
 40
1.0
176
     1
 90
        0
176
     1
 62
   257
176
     1
 40
1.0
176
     1
 90
        1
176
     1
 90
        6
176
     1
 90
        2
176
     1
 62
     7
176
     1
 90
        5
176
     1
 90
        0
176
     1
 90
        0
176
     1
290
     0
176
     1
 90
       13
176
     1
 40
0.0
176
     1
 90
        0
176
     1
290
     0
176
     1
290
     1
176
     1
290
     1
176
     1
290
     0
176
     1
290
     0
176
     1
290
     0
176
     1
290
     0
176
     1
290
     0
176
     1
290
     0
176
     1
 90
       50
176
     1
 40
0.0
176
     1
 40
1.0
176
     1
 90
        0
176
     1
 62
    18
420
        0
176
     1
 90
       50
176
     1
 90
        3
176
     1
 62
     5
420
      255
176
     1
290
     0
176
     1
 90
       50
176
     1
 90
       50
176
     1
 90
       50
176
     1
290
     0
176
     1
 90
       50
176
     1
 62
   256
176
     0
 40
1.0
176
     0
 90
        2
176
     1
  1
strokes_ogs.tif
176
     1
290
     0
176
     1
 40
1.0
176
     1
 40
1.0
176
     1
  0
VISUALSTYLE
  5
2C
102
{ACAD_REACTORS
330
29
102
}
330
29
100
AcDbVisualStyle
  2
Gouraud
 70
     2
177
     3
291
     1
 70
    58
 90
        2
176
     1
 90
        2
176
     1
 90
        1
176
     1
 90
        2
176
     1
 40
0.6
176
     1
 40
30.0
176
     1
 62
     7
420
 16777215
176
     1
 90
        0
176
     1
 90
        0
176
     1
 62
     7
176
     1
 62
   257
176
     1
 90
        1
176
     1
 90
        1
176
     1
 40
1.0
176
     1
 90
        0
176
     1
 62
     7
176
     1
 40
1.0
176
     1
 90
        1
176
     1
 90
        6
176
     1
 90
        2
176
     1
 62
     7
176
     1
 90
        5
176
     1
 90
        0
176
     1
 90
        0
176
     1
290
     0
176
     1
 90
       13
176
     1
 40
0.0
176
     1
 90
        0
176
     1
290
     0
176
     1
290
     1
176
     1
290
     1
176
     1
290
     0
176
     1
290
     0
176
     1
290
     0
176
     1
290
     0
176
     1
290
     0
176
     1
290
     0
176
     1
 90
       50
176
     1
 40
0.0
176
     1
 40
1.0
176
     1
 90
        0
176
     1
 62
    18
420
        0
176
     1
 90
       50
176
     1
 90
        3
176
     1
 62
     5
420
      255
176
     1
290
     0
176
     1
 90
       50
176
     1
 90
       50
176
     1
 90
       50
176
     1
290
     0
176
     1
 90
       50
176
     1
 62
   256
176
     0
 40
1.0
176
     0
 90
        2
176
     1
  1
strokes_ogs.tif
176
     1
290
     0
176
     1
 40
1.0
176
     1
 40
1.0
176
     1
  0
VISUALSTYLE
  5
2D
102
{ACAD_REACTORS
330
29
102
}
330
29
100
AcDbVisualStyle
  2
GouraudWithEdges
 70
     3
177
     3
291
     1
 70
    58
 90
        2
176
     1
 90
        2
176
     1
 90
        1
176
     1
 90
        2
176
     1
 40
0.6
176
     1
 40
30.0
176
     1
 62
     7
420
 16777215
176
     1
 90
        1
176
     1
 90
        0
176
     1
 62
     7
176
     1
 62
   257
176
     1
 90
        1
176
     1
 90
        1
176
     1
 40
1.0
176
     1
 90
        0
176
     1
 62
   257
176
     1
 40
1.0
176
     1
 90
        1
176
     1
 90
        6
176
     1
 90
        2
176
     1
 62
     7
176
     1
 90
        5
176
     1
 90
        0
176
     1
 90
        0
176
     1
290
     0
176
     1
 90
       13
176
     1
 40
0.0
176
     1
 90
        0
176
     1
290
     0
176
     1
290
     1
176
     1
290
     1
176
     1
290
     0
176
     1
290
     0
176
     1
290
     0
176
     1
290
     0
176
     1
290
     0
176
     1
290
     0
176
     1
 90
       50
176
     1
 40
0.0
176
     1
 40
1.0
176
     1
 90
        0
176
     1
 62
    18
420
        0
176
     1
 90
       50
176
     1
 90
        3
176
     1
 62
     5
420
      255
176
     1
290
     0
176
     1
 90
       50
176
     1
 90
       50
176
     1
 90
       50
176
     1
290
     0
176
     1
 90
       50
176
     1
 62
   256
176
     0
 40
1.0
176
     0
 90
        2
176
     1
  1
strokes_ogs.tif
176
     1
290
     0
176
     1
 40
1.0
176
     1
 40
1.0
176
     1
  0
VISUALSTYLE
  5
31
102
{ACAD_REACTORS
330
29
102
}
330
29
100
AcDbVisualStyle
  2
Hidden
 70
     6
177
     3
291
     0
 70
    58
 90
        1
176
     1
 90
        2
176
     1
 90
        2
176
     1
 90
        0
176
     1
 40
0.6
176
     1
 40
30.0
176
     1
 62
     7
420
 16777215
176
     1
 90
        2
176
     1
 90
        2
176
     1
 62
     7
176
     1
 62
   257
176
     1
 90
        2
176
     1
 90
        1
176
     1
 40
40.0
176
     1
 90
        0
176
     1
 62
   257
176
     1
 40
1.0
176
     1
 90
        1
176
     1
 90
        6
176
     1
 90
        2
176
     1
 62
     7
176
     1
 90
        3
176
     1
 90
        0
176
     1
 90
        0
176
     1
290
     0
176
     1
 90
        1
176
     1
 40
0.0
176
     1
 90
        0
176
     1
290
     0
176
     1
290
     1
176
     1
290
     1
176
     1
290
     0
176
     1
290
     0
176
     1
290
     0
176
     1
290
     0
176
     1
290
     0
176
     1
290
     0
176
     1
 90
       50
176
     1
 40
0.0
176
     1
 40
1.0
176
     1
 90
        0
176
     1
 62
    18
420
        0
176
     1
 90
       50
176
     1
 90
        3
176
     1
 62
     5
420
      255
176
     1
290
     0
176
     1
 90
       50
176
     1
 90
       50
176
     1
 90
       50
176
     1
290
     0
176
     1
 90
       50
176
     1
 62
   256
176
     0
 40
1.0
176
     0
 90
        2
176
     1
  1
strokes_ogs.tif
176
     1
290
     0
176
     1
 40
1.0
176
     1
 40
1.0
176
     1
  0
VISUALSTYLE
  5
3F
102
{ACAD_REACTORS
330
29
102
}
330
29
100
AcDbVisualStyle
  2
JitterOff
 70
    20
177
     3
291
     1
 70
    58
 90
        2
176
     0
 90
        2
176
     0
 90
        0
176
     0
 90
        0
176
     0
 40
0.6
176
     0
 40
30.0
176
     0
 62
     7
420
 16777215
176
     0
 90
        1
176
     0
 90
        4
176
     0
 62
     7
176
     0
 62
   257
176
     0
 90
        1
176
     0
 90
        1
176
     0
 40
1.0
176
     0
 90
       10
176
     2
 62
     7
176
     0
 40
1.0
176
     0
 90
        1
176
     0
 90
        6
176
     0
 90
        2
176
     0
 62
     7
176
     0
 90
        5
176
     0
 90
        0
176
     0
 90
        0
176
     0
290
     0
176
     0
 90
        1
176
     0
 40
0.0
176
     0
 90
        0
176
     0
290
     0
176
     1
290
     1
176
     1
290
     1
176
     1
290
     0
176
     1
290
     0
176
     1
290
     0
176
     1
290
     0
176
     1
290
     0
176
     1
290
     0
176
     1
 90
       50
176
     0
 40
0.0
176
     0
 40
1.0
176
     0
 90
        0
176
     0
 62
    18
420
        0
176
     0
 90
       50
176
     0
 90
        3
176
     0
 62
     5
420
      255
176
     0
290
     0
176
     1
 90
       50
176
     0
 90
       50
176
     0
 90
       50
176
     0
290
     0
176
     1
 90
       50
176
     0
 62
   256
176
     0
 40
1.0
176
     0
 90
        2
176
     0
  1
strokes_ogs.tif
176
     0
290
     0
176
     1
 40
1.0
176
     0
 40
1.0
176
     0
  0
VISUALSTYLE
  5
37
102
{ACAD_REACTORS
330
29
102
}
330
29
100
AcDbVisualStyle
  2
Linepattern
 70
    14
177
     3
291
     1
 70
    58
 90
        2
176
     1
 90
        2
176
     1
 90
        0
176
     1
 90
        0
176
     1
 40
0.6
176
     1
 40
30.0
176
     1
 62
     7
420
 16777215
176
     1
 90
        1
176
     1
 90
        4
176
     1
 62
     7
176
     1
 62
   257
176
     1
 90
        7
176
     1
 90
        7
176
     1
 40
1.0
176
     1
 90
        8
176
     1
 62
     7
176
     1
 40
1.0
176
     1
 90
        1
176
     1
 90
        6
176
     1
 90
        2
176
     1
 62
     7
176
     1
 90
        5
176
     1
 90
        0
176
     1
 90
        0
176
     1
290
     0
176
     1
 90
        1
176
     1
 40
0.0
176
     1
 90
        0
176
     1
290
     0
176
     1
290
     1
176
     1
290
     1
176
     1
290
     0
176
     1
290
     0
176
     1
290
     0
176
     1
290
     0
176
     1
290
     0
176
     1
290
     0
176
     1
 90
       50
176
     1
 40
0.0
176
     1
 40
1.0
176
     1
 90
        0
176
     1
 62
    18
420
        0
176
     1
 90
       50
176
     1
 90
        3
176
     1
 62
     5
420
      255
176
     1
290
     0
176
     1
 90
       50
176
     1
 90
       50
176
     1
 90
       50
176
     1
290
     0
176
     1
 90
       50
176
     1
 62
   256
176
     0
 40
1.0
176
     0
 90
        2
176
     1
  1
strokes_ogs.tif
176
     1
290
     0
176
     1
 40
1.0
176
     1
 40
1.0
176
     1
  0
VISUALSTYLE
  5
40
102
{ACAD_REACTORS
330
29
102
}
330
29
100
AcDbVisualStyle
  2
OverhangOff
 70
    21
177
     3
291
     1
 70
    58
 90
        2
176
     0
 90
        2
176
     0
 90
        0
176
     0
 90
        0
176
     0
 40
0.6
176
     0
 40
30.0
176
     0
 62
     7
420
 16777215
176
     0
 90
        1
176
     0
 90
        4
176
     0
 62
     7
176
     0
 62
   257
176
     0
 90
        1
176
     0
 90
        1
176
     0
 40
1.0
176
     0
 90
        9
176
     2
 62
     7
176
     0
 40
1.0
176
     0
 90
        1
176
     0
 90
        6
176
     0
 90
        2
176
     0
 62
     7
176
     0
 90
        5
176
     0
 90
        0
176
     0
 90
        0
176
     0
290
     0
176
     0
 90
        1
176
     0
 40
0.0
176
     0
 90
        0
176
     0
290
     0
176
     1
290
     1
176
     1
290
     1
176
     1
290
     0
176
     1
290
     0
176
     1
290
     0
176
     1
290
     0
176
     1
290
     0
176
     1
290
     0
176
     1
 90
       50
176
     0
 40
0.0
176
     0
 40
1.0
176
     0
 90
        0
176
     0
 62
    18
420
        0
176
     0
 90
       50
176
     0
 90
        3
176
     0
 62
     5
420
      255
176
     0
290
     0
176
     1
 90
       50
176
     0
 90
       50
176
     0
 90
       50
176
     0
290
     0
176
     1
 90
       50
176
     0
 62
   256
176
     0
 40
1.0
176
     0
 90
        2
176
     0
  1
strokes_ogs.tif
176
     0
290
     0
176
     1
 40
1.0
176
     0
 40
1.0
176
     0
  0
VISUALSTYLE
  5
33
102
{ACAD_REACTORS
330
29
102
}
330
29
100
AcDbVisualStyle
  2
Realistic
 70
     8
177
     3
291
     0
 70
    58
 90
        2
176
     1
 90
        3
176
     1
 90
        0
176
     1
 90
        2
176
     1
 40
0.6
176
     1
 40
30.0
176
     1
 62
     7
420
 16777215
176
     1
 90
        0
176
     1
 90
        0
176
     1
 62
     7
176
     1
 62
   257
176
     1
 90
        1
176
     1
 90
        1
176
     1
 40
1.0
176
     1
 90
        8
176
     1
 62
   257
176
     1
 40
1.0
176
     1
 90
        1
176
     1
 90
        6
176
     1
 90
        2
176
     1
 62
     7
176
     1
 90
        3
176
     1
 90
        0
176
     1
 90
        0
176
     1
290
     0
176
     1
 90
       13
176
     1
 40
0.0
176
     1
 90
        0
176
     1
290
     0
176
     1
290
     1
176
     1
290
     1
176
     1
290
     0
176
     1
290
     0
176
     1
290
     0
176
     1
290
     0
176
     1
290
     0
176
     1
290
     0
176
     1
 90
       50
176
     1
 40
0.0
176
     1
 40
1.0
176
     1
 90
        0
176
     1
 62
    18
420
        0
176
     1
 90
       50
176
     1
 90
        3
176
     1
 62
     5
420
      255
176
     1
290
     0
176
     1
 90
       50
176
     1
 90
       50
176
     1
 90
       50
176
     1
290
     0
176
     1
 90
       50
176
     1
 62
   256
176
     0
 40
1.0
176
     0
 90
        2
176
     1
  1
strokes_ogs.tif
176
     1
290
     0
176
     1
 40
1.0
176
     1
 40
1.0
176
     1
  0
VISUALSTYLE
  5
3E
102
{ACAD_REACTORS
330
29
102
}
330
29
100
AcDbVisualStyle
  2
Shaded
 70
    27
177
     3
291
     0
 70
    58
 90
        2
176
     1
 90
        2
176
     1
 90
        1
176
     1
 90
        2
176
     1
 40
0.6
176
     1
 40
30.0
176
     1
 62
     7
420
 16777215
176
     1
 90
        0
176
     1
 90
        4
176
     1
 62
     7
176
     1
 62
   257
176
     1
 90
        1
176
     1
 90
        1
176
     1
 40
1.0
176
     1
 90
        8
176
     1
 62
   257
176
     1
 40
1.0
176
     1
 90
        1
176
     1
 90
        6
176
     1
 90
        2
176
     1
 62
     8
420
  7895160
176
     1
 90
        3
176
     1
 90
        0
176
     1
 90
        0
176
     1
290
     0
176
     1
 90
        5
176
     1
 40
0.0
176
     1
 90
        0
176
     1
290
     0
176
     1
290
     1
176
     1
290
     1
176
     1
290
     0
176
     1
290
     0
176
     1
290
     0
176
     1
290
     0
176
     1
290
     0
176
     1
290
     0
176
     1
 90
       50
176
     1
 40
0.0
176
     1
 40
1.0
176
     1
 90
        0
176
     1
 62
    18
420
        0
176
     1
 90
       50
176
     1
 90
        3
176
     1
 62
     5
420
      255
176
     1
290
     0
176
     1
 90
       50
176
     1
 90
       50
176
     1
 90
       50
176
     1
290
     0
176
     1
 90
       50
176
     1
 62
   256
176
     0
 40
1.0
176
     0
 90
        2
176
     1
  1
strokes_ogs.tif
176
     1
290
     0
176
     1
 40
1.0
176
     1
 40
1.0
176
     1
  0
VISUALSTYLE
  5
3D
102
{ACAD_REACTORS
330
29
102
}
330
29
100
AcDbVisualStyle
  2
Shaded with edges
 70
    26
177
     3
291
     0
 70
    58
 90
        2
176
     1
 90
        2
176
     1
 90
        1
176
     1
 90
        2
176
     1
 40
0.6
176
     1
 40
30.0
176
     1
 62
     7
420
 16777215
176
     1
 90
        1
176
     1
 90
       10
176
     1
 62
     7
176
     1
 62
   257
176
     1
 90
        2
176
     1
 90
        1
176
     1
 40
1.0
176
     1
 90
        8
176
     1
 62
   257
176
     1
 40
1.0
176
     1
 90
        1
176
     1
 90
        6
176
     1
 90
        2
176
     1
 62
     7
176
     1
 90
        3
176
     1
 90
        0
176
     1
 90
        0
176
     1
290
     0
176
     1
 90
        5
176
     1
 40
0.0
176
     1
 90
        0
176
     1
290
     0
176
     1
290
     1
176
     1
290
     1
176
     1
290
     0
176
     1
290
     0
176
     1
290
     0
176
     1
290
     0
176
     1
290
     0
176
     1
290
     0
176
     1
 90
       50
176
     1
 40
0.0
176
     1
 40
1.0
176
     1
 90
        0
176
     1
 62
    18
420
        0
176
     1
 90
       50
176
     1
 90
        3
176
     1
 62
     5
420
      255
176
     1
290
     0
176
     1
 90
       50
176
     1
 90
       50
176
     1
 90
       50
176
     1
290
     0
176
     1
 90
       50
176
     1
 62
   256
176
     0
 40
1.0
176
     0
 90
        2
176
     1
  1
strokes_ogs.tif
176
     1
290
     0
176
     1
 40
1.0
176
     1
 40
1.0
176
     1
  0
VISUALSTYLE
  5
3A
102
{ACAD_REACTORS
330
29
102
}
330
29
100
AcDbVisualStyle
  2
Shades of Gray
 70
    23
177
     3
291
     0
 70
    58
 90
        2
176
     1
 90
        2
176
     1
 90
        3
176
     1
 90
        0
176
     1
 40
0.6
176
     1
 40
30.0
176
     1
 62
     7
420
 16777215
176
     1
 90
        2
176
     1
 90
        2
176
     1
 62
     7
176
     1
 62
     7
176
     1
 90
        1
176
     1
 90
        1
176
     1
 40
40.0
176
     1
 90
        8
176
     1
 62
     7
176
     1
 40
1.0
176
     1
 90
        1
176
     1
 90
        6
176
     1
 90
        2
176
     1
 62
     7
176
     1
 90
        3
176
     1
 90
        0
176
     1
 90
        0
176
     1
290
     0
176
     1
 90
        1
176
     1
 40
0.0
176
     1
 90
        0
176
     1
290
     0
176
     1
290
     1
176
     1
290
     1
176
     1
290
     0
176
     1
290
     0
176
     1
290
     0
176
     1
290
     0
176
     1
290
     0
176
     1
290
     0
176
     1
 90
       50
176
     1
 40
0.0
176
     1
 40
1.0
176
     1
 90
        0
176
     1
 62
    18
420
        0
176
     1
 90
       50
176
     1
 90
        3
176
     1
 62
     5
420
      255
176
     1
290
     0
176
     1
 90
       50
176
     1
 90
       50
176
     1
 90
       50
176
     1
290
     0
176
     1
 90
       50
176
     1
 62
   256
176
     0
 40
1.0
176
     0
 90
        2
176
     1
  1
strokes_ogs.tif
176
     1
290
     0
176
     1
 40
1.0
176
     1
 40
1.0
176
     1
  0
VISUALSTYLE
  5
3B
102
{ACAD_REACTORS
330
29
102
}
330
29
100
AcDbVisualStyle
  2
Sketchy
 70
    24
177
     3
291
     0
 70
    58
 90
        1
176
     1
 90
        2
176
     1
 90
        2
176
     1
 90
        0
176
     1
 40
0.6
176
     1
 40
30.0
176
     1
 62
     7
420
 16777215
176
     1
 90
        2
176
     1
 90
        2
176
     1
 62
     7
176
     1
 62
     7
176
     1
 90
        1
176
     1
 90
        1
176
     1
 40
40.0
176
     1
 90
       11
176
     1
 62
     7
176
     1
 40
1.0
176
     1
 90
        1
176
     1
 90
        6
176
     1
 90
        2
176
     1
 62
     7
176
     1
 90
        6
176
     1
 90
        0
176
     1
 90
        0
176
     1
290
     0
176
     1
 90
        1
176
     1
 40
0.0
176
     1
 90
        0
176
     1
290
     0
176
     1
290
     1
176
     1
290
     1
176
     1
290
     0
176
     1
290
     0
176
     1
290
     0
176
     1
290
     0
176
     1
290
     0
176
     1
290
     0
176
     1
 90
       50
176
     1
 40
0.0
176
     1
 40
1.0
176
     1
 90
        0
176
     1
 62
    18
420
        0
176
     1
 90
       50
176
     1
 90
        3
176
     1
 62
     5
420
      255
176
     1
290
     0
176
     1
 90
       50
176
     1
 90
       50
176
     1
 90
       50
176
     1
290
     0
176
     1
 90
       50
176
     1
 62
   256
176
     0
 40
1.0
176
     0
 90
        2
176
     1
  1
strokes_ogs.tif
176
     1
290
     0
176
     1
 40
1.0
176
     1
 40
1.0
176
     1
  0
VISUALSTYLE
  5
36
102
{ACAD_REACTORS
330
29
102
}
330
29
100
AcDbVisualStyle
  2
Thicken
 70
    13
177
     3
291
     1
 70
    58
 90
        2
176
     1
 90
        2
176
     1
 90
        0
176
     1
 90
        0
176
     1
 40
0.6
176
     1
 40
30.0
176
     1
 62
     7
420
 16777215
176
     1
 90
        1
176
     1
 90
        4
176
     1
 62
     7
176
     1
 62
   257
176
     1
 90
        1
176
     1
 90
        1
176
     1
 40
1.0
176
     1
 90
       12
176
     1
 62
     7
176
     1
 40
1.0
176
     1
 90
        1
176
     1
 90
        6
176
     1
 90
        2
176
     1
 62
     7
176
     1
 90
        5
176
     1
 90
        0
176
     1
 90
        0
176
     1
290
     0
176
     1
 90
        1
176
     1
 40
0.0
176
     1
 90
        0
176
     1
290
     0
176
     1
290
     1
176
     1
290
     1
176
     1
290
     0
176
     1
290
     0
176
     1
290
     0
176
     1
290
     0
176
     1
290
     0
176
     1
290
     0
176
     1
 90
       50
176
     1
 40
0.0
176
     1
 40
1.0
176
     1
 90
        0
176
     1
 62
    18
420
        0
176
     1
 90
       50
176
     1
 90
        3
176
     1
 62
     5
420
      255
176
     1
290
     0
176
     1
 90
       50
176
     1
 90
       50
176
     1
 90
       50
176
     1
290
     0
176
     1
 90
       50
176
     1
 62
   256
176
     0
 40
1.0
176
     0
 90
        2
176
     1
  1
strokes_ogs.tif
176
     1
290
     0
176
     1
 40
1.0
176
     1
 40
1.0
176
     1
  0
VISUALSTYLE
  5
30
102
{ACAD_REACTORS
330
29
102
}
330
29
100
AcDbVisualStyle
  2
Wireframe
 70
     5
177
     3
291
     0
 70
    58
 90
        0
176
     1
 90
        2
176
     1
 90
        0
176
     1
 90
        0
176
     1
 40
0.6
176
     1
 40
30.0
176
     1
 62
     7
420
 16777215
176
     1
 90
        1
176
     1
 90
        4
176
     1
 62
     7
176
     1
 62
   257
176
     1
 90
        1
176
     1
 90
        1
176
     1
 40
1.0
176
     1
 90
        0
176
     1
 62
   257
176
     1
 40
1.0
176
     1
 90
        1
176
     1
 90
        6
176
     1
 90
        2
176
     1
 62
     7
176
     1
 90
        3
176
     1
 90
        0
176
     1
 90
        0
176
     1
290
     0
176
     1
 90
        1
176
     1
 40
0.0
176
     1
 90
        0
176
     1
290
     0
176
     1
290
     1
176
     1
290
     1
176
     1
290
     0
176
     1
290
     0
176
     1
290
     0
176
     1
290
     0
176
     1
290
     0
176
     1
290
     0
176
     1
 90
       50
176
     1
 40
0.0
176
     1
 40
1.0
176
     1
 90
        0
176
     1
 62
    18
420
        0
176
     1
 90
       50
176
     1
 90
        3
176
     1
 62
     5
420
      255
176
     1
290
     0
176
     1
 90
       50
176
     1
 90
       50
176
     1
 90
       50
176
     1
290
     0
176
     1
 90
       50
176
     1
 62
   256
176
     0
 40
1.0
176
     0
 90
        2
176
     1
  1
strokes_ogs.tif
176
     1
290
     0
176
     1
 40
1.0
176
     1
 40
1.0
176
     1
  0
VISUALSTYLE
  5
3C
102
{ACAD_REACTORS
330
29
102
}
330
29
100
AcDbVisualStyle
  2
X-Ray
 70
    25
177
     3
291
     0
 70
    58
 90
        2
176
     1
 90
        2
176
     1
 90
        1
176
     1
 90
        1
176
     1
 40
0.5
176
     1
 40
30.0
176
     1
 62
     7
420
 16777215
176
     1
 90
        1
176
     1
 90
        0
176
     1
 62
     7
176
     1
 62
   257
176
     1
 90
        1
176
     1
 90
        1
176
     1
 40
1.0
176
     1
 90
        8
176
     1
 62
     7
176
     1
 40
1.0
176
     1
 90
        1
176
     1
 90
        6
176
     1
 90
        2
176
     1
 62
     7
176
     1
 90
        3
176
     1
 90
        0
176
     1
 90
        0
176
     1
290
     0
176
     1
 90
       13
176
     1
 40
0.0
176
     1
 90
        0
176
     1
290
     0
176
     1
290
     1
176
     1
290
     1
176
     1
290
     0
176
     1
290
     0
176
     1
290
     0
176
     1
290
     0
176
     1
290
     0
176
     1
290
     0
176
     1
 90
       50
176
     1
 40
0.0
176
     1
 40
1.0
176
     1
 90
        0
176
     1
 62
    18
420
        0
176
     1
 90
       50
176
     1
 90
        3
176
     1
 62
     5
420
      255
176
     1
290
     0
176
     1
 90
       50
176
     1
 90
       50
176
     1
 90
       50
176
     1
290
     0
176
     1
 90
       50
176
     1
 62
   256
176
     0
 40
1.0
176
     0
 90
        2
176
     1
  1
strokes_ogs.tif
176
     1
290
     0
176
     1
 40
1.0
176
     1
 40
1.0
176
     1
  0
DICTIONARYVAR
  5
3D4
102
{ACAD_REACTORS
330
3CE
102
}
330
3CE
100
DictionaryVariables
280
     0
  1
1:1
  0
DICTIONARYVAR
  5
3D0
102
{ACAD_REACTORS
330
3CE
102
}
330
3CE
100
DictionaryVariables
280
     0
  1
STANDARD
  0
DICTIONARYVAR
  5
3CF
102
{ACAD_REACTORS
330
3CE
102
}
330
3CE
100
DictionaryVariables
280
     0
  1
STANDARD
  0
DICTIONARYVAR
  5
3D1
102
{ACAD_REACTORS
330
3CE
102
}
330
3CE
100
DictionaryVariables
280
     0
  1
Imperial24
  0
DICTIONARYVAR
  5
3D2
102
{ACAD_REACTORS
330
3CE
102
}
330
3CE
100
DictionaryVariables
280
     0
  1
Imperial24
  0
DICTIONARYVAR
  5
3D6
102
{ACAD_REACTORS
330
3CE
102
}
330
3CE
100
DictionaryVariables
280
     0
  1
1
  0
DICTIONARYVAR
  5
3D7
102
{ACAD_REACTORS
330
3CE
102
}
330
3CE
100
DictionaryVariables
280
     0
  1
15
  0
DICTIONARYVAR
  5
3D5
102
{ACAD_REACTORS
330
3CE
102
}
330
3CE
100
DictionaryVariables
280
     0
  1
0
  0
DICTIONARYVAR
  5
3D3
102
{ACAD_REACTORS
330
3CE
102
}
330
3CE
100
DictionaryVariables
280
     0
  1
0
  0
DICTIONARY
  5
1A
330
19
100
AcDbDictionary
280
     1
281
     1
  3
BUMPTILE
360
1C
  3
DIFFUSETILE
360
1B
  3
OPACITYTILE
360
1F
  3
REFLECTIONTILE
360
1E
  3
REFRACTIONTILE
360
20
  3
SPECULARTILE
360
1D
  0
DICTIONARY
  5
12
330
11
100
AcDbDictionary
280
     1
281
     1
  3
BUMPTILE
360
14
  3
DIFFUSETILE
360
13
  3
OPACITYTILE
360
17
  3
REFLECTIONTILE
360
16
  3
REFRACTIONTILE
360
18
  3
SPECULARTILE
360
15
  0
DICTIONARY
  5
22
330
21
100
AcDbDictionary
280
     1
281
     1
  3
BUMPTILE
360
24
  3
DIFFUSETILE
360
23
  3
OPACITYTILE
360
27
  3
REFLECTIONTILE
360
26
  3
REFRACTIONTILE
360
28
  3
SPECULARTILE
360
25
  0
DICTIONARY
  5
3D9
330
64
100
AcDbDictionary
280
     1
281
     1
  3
ACAD_ROUNDTRIP_2008_TABLESTYLE_CELLSTYLEMAP
360
3DA
  0
XRECORD
  5
1C
102
{ACAD_REACTORS
330
1A
102
}
330
1A
100
AcDbXrecord
280
     1
270
     1
271
     1
  0
XRECORD
  5
1B
102
{ACAD_REACTORS
330
1A
102
}
330
1A
100
AcDbXrecord
280
     1
270
     1
271
     1
  0
XRECORD
  5
1F
102
{ACAD_REACTORS
330
1A
102
}
330
1A
100
AcDbXrecord
280
     1
270
     1
271
     1
  0
XRECORD
  5
1E
102
{ACAD_REACTORS
330
1A
102
}
330
1A
100
AcDbXrecord
280
     1
270
     1
271
     1
  0
XRECORD
  5
20
102
{ACAD_REACTORS
330
1A
102
}
330
1A
100
AcDbXrecord
280
     1
270
     1
271
     1
  0
XRECORD
  5
1D
102
{ACAD_REACTORS
330
1A
102
}
330
1A
100
AcDbXrecord
280
     1
270
     1
271
     1
  0
XRECORD
  5
14
102
{ACAD_REACTORS
330
12
102
}
330
12
100
AcDbXrecord
280
     1
270
     1
271
     1
  0
XRECORD
  5
13
102
{ACAD_REACTORS
330
12
102
}
330
12
100
AcDbXrecord
280
     1
270
     1
271
     1
  0
XRECORD
  5
17
102
{ACAD_REACTORS
330
12
102
}
330
12
100
AcDbXrecord
280
     1
270
     1
271
     1
  0
XRECORD
  5
16
102
{ACAD_REACTORS
330
12
102
}
330
12
100
AcDbXrecord
280
     1
270
     1
271
     1
  0
XRECORD
  5
18
102
{ACAD_REACTORS
330
12
102
}
330
12
100
AcDbXrecord
280
     1
270
     1
271
     1
  0
XRECORD
  5
15
102
{ACAD_REACTORS
330
12
102
}
330
12
100
AcDbXrecord
280
     1
270
     1
271
     1
  0
XRECORD
  5
24
102
{ACAD_REACTORS
330
22
102
}
330
22
100
AcDbXrecord
280
     1
270
     1
271
     1
  0
XRECORD
  5
23
102
{ACAD_REACTORS
330
22
102
}
330
22
100
AcDbXrecord
280
     1
270
     1
271
     1
  0
XRECORD
  5
27
102
{ACAD_REACTORS
330
22
102
}
330
22
100
AcDbXrecord
280
     1
270
     1
271
     1
  0
XRECORD
  5
26
102
{ACAD_REACTORS
330
22
102
}
330
22
100
AcDbXrecord
280
     1
270
     1
271
     1
  0
XRECORD
  5
28
102
{ACAD_REACTORS
330
22
102
}
330
22
100
AcDbXrecord
280
     1
270
     1
271
     1
  0
XRECORD
  5
25
102
{ACAD_REACTORS
330
22
102
}
330
22
100
AcDbXrecord
280
     1
270
     1
271
     1
  0
CELLSTYLEMAP
  5
3DA
102
{ACAD_REACTORS
330
3D9
102
}
330
3D9
100
AcDbCellStyleMap
 90
        3
300
CELLSTYLE
  1
TABLEFORMAT_BEGIN
 90
        5
170
     1
 91
        0
 92
    32768
 62
   257
 93
        1
300
CONTENTFORMAT
  1
CONTENTFORMAT_BEGIN
 90
        0
 91
        0
 92
      512
 93
        0
300

 40
0.0
140
1.0
 94
        5
 62
     0
340
55
144
0.25
309
CONTENTFORMAT_END
171
     0
 94
        0
309
TABLEFORMAT_END
  1
CELLSTYLE_BEGIN
 90
        1
 91
        1
300
_TITLE
309
CELLSTYLE_END
300
CELLSTYLE
  1
TABLEFORMAT_BEGIN
 90
        5
170
     1
 91
        0
 92
        0
 62
   257
 93
        1
300
CONTENTFORMAT
  1
CONTENTFORMAT_BEGIN
 90
        0
 91
        0
 92
      512
 93
        0
300

 40
0.0
140
1.0
 94
        5
 62
     0
340
55
144
0.18
309
CONTENTFORMAT_END
171
     0
 94
        0
309
TABLEFORMAT_END
  1
CELLSTYLE_BEGIN
 90
        2
 91
        1
300
_HEADER
309
CELLSTYLE_END
300
CELLSTYLE
  1
TABLEFORMAT_BEGIN
 90
        5
170
     1
 91
        0
 92
        0
 62
   257
 93
        1
300
CONTENTFORMAT
  1
CONTENTFORMAT_BEGIN
 90
        0
 91
        0
 92
      512
 93
        0
300

 40
0.0
140
1.0
 94
        2
 62
     0
340
55
144
0.18
309
CONTENTFORMAT_END
171
     0
 94
        0
309
TABLEFORMAT_END
  1
CELLSTYLE_BEGIN
 90
        3
 91
        2
300
_DATA
309
CELLSTYLE_END
  0
ENDSEC
  0
SECTION
  2
ACDSDATA
 70
     2
 71
     3
  0
ACDSSCHEMA
 90
        0
  1
AcDb_Thumbnail_Schema
  2
AcDbDs::ID
280
    10
 91
        8
  2
Thumbnail_Data
280
    15
 91
        0
101
ACDSRECORD
 95
        0
 90
        1
  2
AcDbDs::TreatedAsObjectData
280
     1
291
     1
101
ACDSRECORD
 95
        0
 90
        2
  2
AcDbDs::Legacy
280
     1
291
     1
101
ACDSRECORD
  1
AcDbDs::ID
 90
        3
  2
AcDs:Indexable
280
     1
291
     1
101
ACDSRECORD
  1
AcDbDs::ID
 90
        4
  2
AcDbDs::HandleAttribute
280
     7
282
     1
  0
ACDSSCHEMA
 90
        1
  1
AcDbDs::TreatedAsObjectDataSchema
  2
AcDbDs::TreatedAsObjectData
280
     1
 91
        0
  0
ACDSSCHEMA
 90
        2
  1
AcDbDs::LegacySchema
  2
AcDbDs::Legacy
280
     1
 91
        0
  0
ACDSSCHEMA
 90
        3
  1
AcDbDs::IndexedPropertySchema
  2
AcDs:Indexable
280
     1
 91
        0
  0
ACDSSCHEMA
 90
        4
  1
AcDbDs::HandleAttributeSchema
  2
AcDbDs::HandleAttribute
280
     7
 91
        1
284
     1
  0
ACDSRECORD
 90
        0
  2
AcDbDs::ID
280
    10
320
73
  2
Thumbnail_Data
280
    15
 94
     2119
310
89504E470D0A1A0A0000000D4948445200000100000000C608030000000A6AAE4900000300504C54452128300000000000000000000000000000000000000000000000000000000000000000330000660000990000CC0000FF0033000033330033660033990033CC0033FF0066000066330066660066990066CC0066FF0099
310
000099330099660099990099CC0099FF00CC0000CC3300CC6600CC9900CCCC00CCFF00FF0000FF3300FF6600FF9900FFCC00FFFF3300003300333300663300993300CC3300FF3333003333333333663333993333CC3333FF3366003366333366663366993366CC3366FF3399003399333399663399993399CC3399FF33CC00
310
33CC3333CC6633CC9933CCCC33CCFF33FF0033FF3333FF6633FF9933FFCC33FFFF6600006600336600666600996600CC6600FF6633006633336633666633996633CC6633FF6666006666336666666666996666CC6666FF6699006699336699666699996699CC6699FF66CC0066CC3366CC6666CC9966CCCC66CCFF66FF0066
310
FF3366FF6666FF9966FFCC66FFFF9900009900339900669900999900CC9900FF9933009933339933669933999933CC9933FF9966009966339966669966999966CC9966FF9999009999339999669999999999CC9999FF99CC0099CC3399CC6699CC9999CCCC99CCFF99FF0099FF3399FF6699FF9999FFCC99FFFFCC0000CC00
310
33CC0066CC0099CC00CCCC00FFCC3300CC3333CC3366CC3399CC33CCCC33FFCC6600CC6633CC6666CC6699CC66CCCC66FFCC9900CC9933CC9966CC9999CC99CCCC99FFCCCC00CCCC33CCCC66CCCC99CCCCCCCCCCFFCCFF00CCFF33CCFF66CCFF99CCFFCCCCFFFFFF0000FF0033FF0066FF0099FF00CCFF00FFFF3300FF3333
310
FF3366FF3399FF33CCFF33FFFF6600FF6633FF6666FF6699FF66CCFF66FFFF9900FF9933FF9966FF9999FF99CCFF99FFFFCC00FFCC33FFCC66FFCC99FFCCCCFFCCFFFFFF00FFFF33FFFF66FFFF99FFFFCCFFFFFF0000000D0D0D1A1A1A2828283535354343435050505D5D5D6B6B6B787878868686939393A1A1A1AEAEAEBB
310
BBBBC9C9C9D6D6D6E4E4E4F1F1F1FFFFFF000000000000000000000000000000000000000000000000000000000000544354A80000050249444154789CED9DDBA2A3200C45FBFFFFCBFB3CCC4C118896CB4E7690EC871EED1173312C116DFBF95829DDBDC01AF8561A0D48DE7CDF0C2429A45F1530D8C2B3268EE770CDF8D6
310
4430EF897F2192572461A196DF41C2159ABD81844B47F115245C0AC14FFC735621FEBB48C21C7A2015EC8284E93393F46FAB3586392061BABC4EB55A3A767C12A6EAEF58BB75C7BDC43F6635F71A88D7C424A49BE55FADA0192092303DAC3DB76A33B056011C12D636FA6CE6B88B0C2C2580D3095A0BC31900B9EB25FE1EAB
310
60FE55A62D93301BBF520608249CE90170FE15BB1692609A81BEF8B1FCBBEE5BAC7FC30CF498C2F3AFDAB769FCA3E32035FE554E54F11BD500917F953B4DFCF00C48C79DCABFC28870FCE146DA0C70F9D7F8F6F7A53286B3D1D6C020FFF2BA4E75AA92B0DD65CF612CE35606B42A09A53E3FCE3FD50CA8927084FA65AB3603
310
9A15A045C2B1E35E6E596740EFF4AC47C2F4B0F6BB9DD40B74A445C27A177DBB34E55F69164CC2B679DFD98F920105124A8DFBCF7F46FC2B0C6349381FBF25FFAE96C5FA87666076FC6711FF4DFF87F60167E3BF3B0780E91F3D0B92F87775A035BD38FF2E2FDF6F4DE19FA20B49587ADE96C1BFC2097011A6EAEFEF6D19FC
310
AB9C502061FF1890C63F3537468EA38B0CC09D18E9C744FE954E400FC2C82E88FCBB3A412C4222FF4A27689D90CABF2C1710228A7E1A7251016408914575C241FC4E9C088542A15028140A8542A150E81CB9B814A7CE8738C800755ADE410D906FCCD03370FAACB88BFB2267DE193AFDDEE03BEF0E8F997EDFF3015B9876E1
310
C63B9F111A33DD3A600E2172065AF3E61022BAF0BE2745671CA092D00186782EA43BF3A6E21521FEF302B37E903094C41AA05C0D514890CA17CE4938BB4228443903245993F0123C7D209E4DDB91D00BFFB28C49E8867F59EFF9F4F8AC4C49E88A7F5962FC70BFBCF12FEB267EB06FFEF897D592F04B2BA8116FFCCB7ACFF7
310
08CD4A3D7EB7FCCB12E3077928EED555F4C561B97A0AF192F16D72E3522461126BC059FC8A24940EBF23FE65A99150CE804BE149B851F01F0D12F2BF617D4C70128AFCF31B3F9C84DBF02F0B4C425007B04D198A84B8DE6F5B3437F10FBB80E39FF5B0E96B6F8D5C30FED90F9C7DFDCA4CAAFE5A0852BB70FE199F3C96FC47
310
F24F5E56D7520563F977B7A6AC158681F977BFAE290FBF37D836D984848AE33FFF24D4E1DFD37B8A9AA865E4F52FB707FC3738483318FFBEED1FD6F5C5FEE569E259F06A73A49E711D20EF4E583655774CE0E0F33EAB25637557B5CEF82F09EF19AB976BC0F15F9B0162FCBD47163AFEAB33C08CBFBB6F43C77F6506B8F1FF
310
73A27D99D9A6CFD0A7AD01B2FA6283F2CF41D457B584BBD96A957FF2325F0D09EF36CB2FD3FD5F5E636B6E243861E3619DAE9EC000FC7B7A87AABED820E3BFA7F788EA231B807F4FEF31D509B6C9818BFB1EF0E9F668D271F70C5497E7B3A08DFC8E83ACE476246C2607F31F64F1E73FD8E2CF7FB0E562FE83AAD3E30F8542
310
A15028140A8542A15028140A99EBF429A9D327254F9F963EFDC6C4E9B7A64EBF3979FAEDE9D31F5038FD11951D1E52D2D40E8FA9E92A32707A1F704BC15449D3D4C3DAFACE1FE2A8FF57FEF3C949B03447424F713CD69E650234C7C27B2440BC1AC298DC2401C2F530EC9B35EF573D25A0991141CD906C93808FD24757F749
310
80D8FFD7CD6E9400D1DAB2DD2D13803C17EC9800E8C870C30460AF0DF64B00F8EA70BB04A0E707B64B003A035B5C0DFE32459921309C0F684CFF587FBF546748E6F507CE6B3412562AE7CC0000000049454E44AE426082
  0
ENDSEC
  0
EOF
