G75*
%MOIN*%
%OFA0B0*%
%FSLAX25Y25*%
%IPPOS*%
%LPD*%
%AMOC8*
5,1,8,0,0,1.08239X$1,22.5*
%
%ADD10C,0.00000*%
%ADD11C,0.01600*%
%ADD12C,0.01000*%
%ADD13C,0.00500*%
%ADD14C,0.00600*%
%ADD15C,0.00800*%
%ADD16C,0.00300*%
%ADD17R,0.00591X0.01181*%
%ADD18R,0.01181X0.01181*%
%ADD19C,0.00197*%
%ADD20C,0.00400*%
D10*
X0001800Y0001800D02*
X0001800Y0261643D01*
X0151406Y0261643D01*
X0151426Y0001800D01*
X0001800Y0001800D01*
X0133495Y0041170D02*
X0133497Y0041326D01*
X0133503Y0041481D01*
X0133513Y0041637D01*
X0133527Y0041792D01*
X0133545Y0041947D01*
X0133566Y0042101D01*
X0133592Y0042255D01*
X0133622Y0042408D01*
X0133655Y0042560D01*
X0133693Y0042711D01*
X0133734Y0042861D01*
X0133779Y0043010D01*
X0133828Y0043158D01*
X0133881Y0043305D01*
X0133937Y0043450D01*
X0133997Y0043594D01*
X0134061Y0043736D01*
X0134128Y0043877D01*
X0134199Y0044015D01*
X0134274Y0044152D01*
X0134352Y0044287D01*
X0134433Y0044420D01*
X0134518Y0044551D01*
X0134606Y0044679D01*
X0134697Y0044806D01*
X0134791Y0044930D01*
X0134889Y0045051D01*
X0134990Y0045170D01*
X0135093Y0045286D01*
X0135200Y0045400D01*
X0135309Y0045511D01*
X0135422Y0045619D01*
X0135537Y0045724D01*
X0135654Y0045826D01*
X0135774Y0045925D01*
X0135897Y0046021D01*
X0136022Y0046114D01*
X0136150Y0046204D01*
X0136279Y0046290D01*
X0136411Y0046373D01*
X0136545Y0046453D01*
X0136681Y0046529D01*
X0136819Y0046602D01*
X0136958Y0046671D01*
X0137100Y0046736D01*
X0137243Y0046798D01*
X0137387Y0046856D01*
X0137533Y0046911D01*
X0137680Y0046962D01*
X0137829Y0047009D01*
X0137979Y0047052D01*
X0138129Y0047091D01*
X0138281Y0047127D01*
X0138434Y0047158D01*
X0138587Y0047186D01*
X0138741Y0047210D01*
X0138895Y0047230D01*
X0139050Y0047246D01*
X0139206Y0047258D01*
X0139361Y0047266D01*
X0139517Y0047270D01*
X0139673Y0047270D01*
X0139829Y0047266D01*
X0139984Y0047258D01*
X0140140Y0047246D01*
X0140295Y0047230D01*
X0140449Y0047210D01*
X0140603Y0047186D01*
X0140756Y0047158D01*
X0140909Y0047127D01*
X0141061Y0047091D01*
X0141211Y0047052D01*
X0141361Y0047009D01*
X0141510Y0046962D01*
X0141657Y0046911D01*
X0141803Y0046856D01*
X0141947Y0046798D01*
X0142090Y0046736D01*
X0142232Y0046671D01*
X0142371Y0046602D01*
X0142509Y0046529D01*
X0142645Y0046453D01*
X0142779Y0046373D01*
X0142911Y0046290D01*
X0143040Y0046204D01*
X0143168Y0046114D01*
X0143293Y0046021D01*
X0143416Y0045925D01*
X0143536Y0045826D01*
X0143653Y0045724D01*
X0143768Y0045619D01*
X0143881Y0045511D01*
X0143990Y0045400D01*
X0144097Y0045286D01*
X0144200Y0045170D01*
X0144301Y0045051D01*
X0144399Y0044930D01*
X0144493Y0044806D01*
X0144584Y0044679D01*
X0144672Y0044551D01*
X0144757Y0044420D01*
X0144838Y0044287D01*
X0144916Y0044152D01*
X0144991Y0044015D01*
X0145062Y0043877D01*
X0145129Y0043736D01*
X0145193Y0043594D01*
X0145253Y0043450D01*
X0145309Y0043305D01*
X0145362Y0043158D01*
X0145411Y0043010D01*
X0145456Y0042861D01*
X0145497Y0042711D01*
X0145535Y0042560D01*
X0145568Y0042408D01*
X0145598Y0042255D01*
X0145624Y0042101D01*
X0145645Y0041947D01*
X0145663Y0041792D01*
X0145677Y0041637D01*
X0145687Y0041481D01*
X0145693Y0041326D01*
X0145695Y0041170D01*
X0145693Y0041014D01*
X0145687Y0040859D01*
X0145677Y0040703D01*
X0145663Y0040548D01*
X0145645Y0040393D01*
X0145624Y0040239D01*
X0145598Y0040085D01*
X0145568Y0039932D01*
X0145535Y0039780D01*
X0145497Y0039629D01*
X0145456Y0039479D01*
X0145411Y0039330D01*
X0145362Y0039182D01*
X0145309Y0039035D01*
X0145253Y0038890D01*
X0145193Y0038746D01*
X0145129Y0038604D01*
X0145062Y0038463D01*
X0144991Y0038325D01*
X0144916Y0038188D01*
X0144838Y0038053D01*
X0144757Y0037920D01*
X0144672Y0037789D01*
X0144584Y0037661D01*
X0144493Y0037534D01*
X0144399Y0037410D01*
X0144301Y0037289D01*
X0144200Y0037170D01*
X0144097Y0037054D01*
X0143990Y0036940D01*
X0143881Y0036829D01*
X0143768Y0036721D01*
X0143653Y0036616D01*
X0143536Y0036514D01*
X0143416Y0036415D01*
X0143293Y0036319D01*
X0143168Y0036226D01*
X0143040Y0036136D01*
X0142911Y0036050D01*
X0142779Y0035967D01*
X0142645Y0035887D01*
X0142509Y0035811D01*
X0142371Y0035738D01*
X0142232Y0035669D01*
X0142090Y0035604D01*
X0141947Y0035542D01*
X0141803Y0035484D01*
X0141657Y0035429D01*
X0141510Y0035378D01*
X0141361Y0035331D01*
X0141211Y0035288D01*
X0141061Y0035249D01*
X0140909Y0035213D01*
X0140756Y0035182D01*
X0140603Y0035154D01*
X0140449Y0035130D01*
X0140295Y0035110D01*
X0140140Y0035094D01*
X0139984Y0035082D01*
X0139829Y0035074D01*
X0139673Y0035070D01*
X0139517Y0035070D01*
X0139361Y0035074D01*
X0139206Y0035082D01*
X0139050Y0035094D01*
X0138895Y0035110D01*
X0138741Y0035130D01*
X0138587Y0035154D01*
X0138434Y0035182D01*
X0138281Y0035213D01*
X0138129Y0035249D01*
X0137979Y0035288D01*
X0137829Y0035331D01*
X0137680Y0035378D01*
X0137533Y0035429D01*
X0137387Y0035484D01*
X0137243Y0035542D01*
X0137100Y0035604D01*
X0136958Y0035669D01*
X0136819Y0035738D01*
X0136681Y0035811D01*
X0136545Y0035887D01*
X0136411Y0035967D01*
X0136279Y0036050D01*
X0136150Y0036136D01*
X0136022Y0036226D01*
X0135897Y0036319D01*
X0135774Y0036415D01*
X0135654Y0036514D01*
X0135537Y0036616D01*
X0135422Y0036721D01*
X0135309Y0036829D01*
X0135200Y0036940D01*
X0135093Y0037054D01*
X0134990Y0037170D01*
X0134889Y0037289D01*
X0134791Y0037410D01*
X0134697Y0037534D01*
X0134606Y0037661D01*
X0134518Y0037789D01*
X0134433Y0037920D01*
X0134352Y0038053D01*
X0134274Y0038188D01*
X0134199Y0038325D01*
X0134128Y0038463D01*
X0134061Y0038604D01*
X0133997Y0038746D01*
X0133937Y0038890D01*
X0133881Y0039035D01*
X0133828Y0039182D01*
X0133779Y0039330D01*
X0133734Y0039479D01*
X0133693Y0039629D01*
X0133655Y0039780D01*
X0133622Y0039932D01*
X0133592Y0040085D01*
X0133566Y0040239D01*
X0133545Y0040393D01*
X0133527Y0040548D01*
X0133513Y0040703D01*
X0133503Y0040859D01*
X0133497Y0041014D01*
X0133495Y0041170D01*
X0133495Y0119910D02*
X0133497Y0120066D01*
X0133503Y0120221D01*
X0133513Y0120377D01*
X0133527Y0120532D01*
X0133545Y0120687D01*
X0133566Y0120841D01*
X0133592Y0120995D01*
X0133622Y0121148D01*
X0133655Y0121300D01*
X0133693Y0121451D01*
X0133734Y0121601D01*
X0133779Y0121750D01*
X0133828Y0121898D01*
X0133881Y0122045D01*
X0133937Y0122190D01*
X0133997Y0122334D01*
X0134061Y0122476D01*
X0134128Y0122617D01*
X0134199Y0122755D01*
X0134274Y0122892D01*
X0134352Y0123027D01*
X0134433Y0123160D01*
X0134518Y0123291D01*
X0134606Y0123419D01*
X0134697Y0123546D01*
X0134791Y0123670D01*
X0134889Y0123791D01*
X0134990Y0123910D01*
X0135093Y0124026D01*
X0135200Y0124140D01*
X0135309Y0124251D01*
X0135422Y0124359D01*
X0135537Y0124464D01*
X0135654Y0124566D01*
X0135774Y0124665D01*
X0135897Y0124761D01*
X0136022Y0124854D01*
X0136150Y0124944D01*
X0136279Y0125030D01*
X0136411Y0125113D01*
X0136545Y0125193D01*
X0136681Y0125269D01*
X0136819Y0125342D01*
X0136958Y0125411D01*
X0137100Y0125476D01*
X0137243Y0125538D01*
X0137387Y0125596D01*
X0137533Y0125651D01*
X0137680Y0125702D01*
X0137829Y0125749D01*
X0137979Y0125792D01*
X0138129Y0125831D01*
X0138281Y0125867D01*
X0138434Y0125898D01*
X0138587Y0125926D01*
X0138741Y0125950D01*
X0138895Y0125970D01*
X0139050Y0125986D01*
X0139206Y0125998D01*
X0139361Y0126006D01*
X0139517Y0126010D01*
X0139673Y0126010D01*
X0139829Y0126006D01*
X0139984Y0125998D01*
X0140140Y0125986D01*
X0140295Y0125970D01*
X0140449Y0125950D01*
X0140603Y0125926D01*
X0140756Y0125898D01*
X0140909Y0125867D01*
X0141061Y0125831D01*
X0141211Y0125792D01*
X0141361Y0125749D01*
X0141510Y0125702D01*
X0141657Y0125651D01*
X0141803Y0125596D01*
X0141947Y0125538D01*
X0142090Y0125476D01*
X0142232Y0125411D01*
X0142371Y0125342D01*
X0142509Y0125269D01*
X0142645Y0125193D01*
X0142779Y0125113D01*
X0142911Y0125030D01*
X0143040Y0124944D01*
X0143168Y0124854D01*
X0143293Y0124761D01*
X0143416Y0124665D01*
X0143536Y0124566D01*
X0143653Y0124464D01*
X0143768Y0124359D01*
X0143881Y0124251D01*
X0143990Y0124140D01*
X0144097Y0124026D01*
X0144200Y0123910D01*
X0144301Y0123791D01*
X0144399Y0123670D01*
X0144493Y0123546D01*
X0144584Y0123419D01*
X0144672Y0123291D01*
X0144757Y0123160D01*
X0144838Y0123027D01*
X0144916Y0122892D01*
X0144991Y0122755D01*
X0145062Y0122617D01*
X0145129Y0122476D01*
X0145193Y0122334D01*
X0145253Y0122190D01*
X0145309Y0122045D01*
X0145362Y0121898D01*
X0145411Y0121750D01*
X0145456Y0121601D01*
X0145497Y0121451D01*
X0145535Y0121300D01*
X0145568Y0121148D01*
X0145598Y0120995D01*
X0145624Y0120841D01*
X0145645Y0120687D01*
X0145663Y0120532D01*
X0145677Y0120377D01*
X0145687Y0120221D01*
X0145693Y0120066D01*
X0145695Y0119910D01*
X0145693Y0119754D01*
X0145687Y0119599D01*
X0145677Y0119443D01*
X0145663Y0119288D01*
X0145645Y0119133D01*
X0145624Y0118979D01*
X0145598Y0118825D01*
X0145568Y0118672D01*
X0145535Y0118520D01*
X0145497Y0118369D01*
X0145456Y0118219D01*
X0145411Y0118070D01*
X0145362Y0117922D01*
X0145309Y0117775D01*
X0145253Y0117630D01*
X0145193Y0117486D01*
X0145129Y0117344D01*
X0145062Y0117203D01*
X0144991Y0117065D01*
X0144916Y0116928D01*
X0144838Y0116793D01*
X0144757Y0116660D01*
X0144672Y0116529D01*
X0144584Y0116401D01*
X0144493Y0116274D01*
X0144399Y0116150D01*
X0144301Y0116029D01*
X0144200Y0115910D01*
X0144097Y0115794D01*
X0143990Y0115680D01*
X0143881Y0115569D01*
X0143768Y0115461D01*
X0143653Y0115356D01*
X0143536Y0115254D01*
X0143416Y0115155D01*
X0143293Y0115059D01*
X0143168Y0114966D01*
X0143040Y0114876D01*
X0142911Y0114790D01*
X0142779Y0114707D01*
X0142645Y0114627D01*
X0142509Y0114551D01*
X0142371Y0114478D01*
X0142232Y0114409D01*
X0142090Y0114344D01*
X0141947Y0114282D01*
X0141803Y0114224D01*
X0141657Y0114169D01*
X0141510Y0114118D01*
X0141361Y0114071D01*
X0141211Y0114028D01*
X0141061Y0113989D01*
X0140909Y0113953D01*
X0140756Y0113922D01*
X0140603Y0113894D01*
X0140449Y0113870D01*
X0140295Y0113850D01*
X0140140Y0113834D01*
X0139984Y0113822D01*
X0139829Y0113814D01*
X0139673Y0113810D01*
X0139517Y0113810D01*
X0139361Y0113814D01*
X0139206Y0113822D01*
X0139050Y0113834D01*
X0138895Y0113850D01*
X0138741Y0113870D01*
X0138587Y0113894D01*
X0138434Y0113922D01*
X0138281Y0113953D01*
X0138129Y0113989D01*
X0137979Y0114028D01*
X0137829Y0114071D01*
X0137680Y0114118D01*
X0137533Y0114169D01*
X0137387Y0114224D01*
X0137243Y0114282D01*
X0137100Y0114344D01*
X0136958Y0114409D01*
X0136819Y0114478D01*
X0136681Y0114551D01*
X0136545Y0114627D01*
X0136411Y0114707D01*
X0136279Y0114790D01*
X0136150Y0114876D01*
X0136022Y0114966D01*
X0135897Y0115059D01*
X0135774Y0115155D01*
X0135654Y0115254D01*
X0135537Y0115356D01*
X0135422Y0115461D01*
X0135309Y0115569D01*
X0135200Y0115680D01*
X0135093Y0115794D01*
X0134990Y0115910D01*
X0134889Y0116029D01*
X0134791Y0116150D01*
X0134697Y0116274D01*
X0134606Y0116401D01*
X0134518Y0116529D01*
X0134433Y0116660D01*
X0134352Y0116793D01*
X0134274Y0116928D01*
X0134199Y0117065D01*
X0134128Y0117203D01*
X0134061Y0117344D01*
X0133997Y0117486D01*
X0133937Y0117630D01*
X0133881Y0117775D01*
X0133828Y0117922D01*
X0133779Y0118070D01*
X0133734Y0118219D01*
X0133693Y0118369D01*
X0133655Y0118520D01*
X0133622Y0118672D01*
X0133592Y0118825D01*
X0133566Y0118979D01*
X0133545Y0119133D01*
X0133527Y0119288D01*
X0133513Y0119443D01*
X0133503Y0119599D01*
X0133497Y0119754D01*
X0133495Y0119910D01*
D11*
X0108099Y0080540D02*
X0100225Y0080540D01*
X0104162Y0076603D02*
X0104162Y0084477D01*
X0127784Y0025422D02*
X0151406Y0025422D01*
X0127784Y0025422D02*
X0127784Y0001800D01*
D12*
X0151406Y0001800D01*
X0151406Y0025422D01*
X0151406Y0139595D01*
D13*
X0140428Y0168290D02*
X0137726Y0168290D01*
X0137726Y0169641D01*
X0138176Y0170092D01*
X0139077Y0170092D01*
X0139527Y0169641D01*
X0139527Y0168290D01*
X0139527Y0169191D02*
X0140428Y0170092D01*
X0139077Y0171237D02*
X0139077Y0173038D01*
X0138626Y0174183D02*
X0137726Y0175084D01*
X0140428Y0175084D01*
X0140428Y0174183D02*
X0140428Y0175985D01*
X0142351Y0177391D02*
X0142351Y0188414D01*
X0136839Y0188414D01*
X0136839Y0177391D01*
X0142351Y0177391D01*
X0140428Y0172588D02*
X0137726Y0172588D01*
X0139077Y0171237D01*
X0134477Y0177391D02*
X0134477Y0188414D01*
X0128965Y0188414D01*
X0128965Y0177391D01*
X0134477Y0177391D01*
X0133046Y0175534D02*
X0133046Y0174634D01*
X0132596Y0174183D01*
X0130794Y0175985D01*
X0132596Y0175985D01*
X0133046Y0175534D01*
X0132596Y0174183D02*
X0130794Y0174183D01*
X0130344Y0174634D01*
X0130344Y0175534D01*
X0130794Y0175985D01*
X0131695Y0173038D02*
X0131695Y0171237D01*
X0130344Y0172588D01*
X0133046Y0172588D01*
X0133046Y0170092D02*
X0132145Y0169191D01*
X0132145Y0169641D02*
X0132145Y0168290D01*
X0133046Y0168290D02*
X0130344Y0168290D01*
X0130344Y0169641D01*
X0130794Y0170092D01*
X0131695Y0170092D01*
X0132145Y0169641D01*
X0125664Y0169600D02*
X0124763Y0168699D01*
X0124763Y0169149D02*
X0124763Y0167798D01*
X0125664Y0167798D02*
X0122962Y0167798D01*
X0122962Y0169149D01*
X0123412Y0169600D01*
X0124313Y0169600D01*
X0124763Y0169149D01*
X0125214Y0170745D02*
X0125664Y0171195D01*
X0125664Y0172096D01*
X0125214Y0172546D01*
X0124763Y0172546D01*
X0124313Y0172096D01*
X0124313Y0171645D01*
X0124313Y0172096D02*
X0123863Y0172546D01*
X0123412Y0172546D01*
X0122962Y0172096D01*
X0122962Y0171195D01*
X0123412Y0170745D01*
X0123412Y0173691D02*
X0123863Y0173691D01*
X0124313Y0174141D01*
X0124313Y0175493D01*
X0123412Y0175493D02*
X0122962Y0175042D01*
X0122962Y0174141D01*
X0123412Y0173691D01*
X0123412Y0175493D02*
X0125214Y0175493D01*
X0125664Y0175042D01*
X0125664Y0174141D01*
X0125214Y0173691D01*
X0126603Y0177391D02*
X0126603Y0188414D01*
X0121091Y0188414D01*
X0121091Y0177391D01*
X0126603Y0177391D01*
X0118729Y0177391D02*
X0118729Y0188414D01*
X0113217Y0188414D01*
X0113217Y0177391D01*
X0118729Y0177391D01*
X0117298Y0175534D02*
X0117298Y0174634D01*
X0116848Y0174183D01*
X0115947Y0174183D01*
X0115947Y0175534D01*
X0116397Y0175985D01*
X0116848Y0175985D01*
X0117298Y0175534D01*
X0115947Y0174183D02*
X0115046Y0175084D01*
X0114596Y0175985D01*
X0115046Y0173038D02*
X0115496Y0173038D01*
X0115947Y0172588D01*
X0116397Y0173038D01*
X0116848Y0173038D01*
X0117298Y0172588D01*
X0117298Y0171687D01*
X0116848Y0171237D01*
X0117298Y0170092D02*
X0116397Y0169191D01*
X0116397Y0169641D02*
X0116397Y0168290D01*
X0117298Y0168290D02*
X0114596Y0168290D01*
X0114596Y0169641D01*
X0115046Y0170092D01*
X0115947Y0170092D01*
X0116397Y0169641D01*
X0115046Y0171237D02*
X0114596Y0171687D01*
X0114596Y0172588D01*
X0115046Y0173038D01*
X0115947Y0172588D02*
X0115947Y0172137D01*
X0114339Y0155494D02*
X0114339Y0149983D01*
X0125362Y0149983D01*
X0125362Y0155494D01*
X0114339Y0155494D01*
X0119719Y0148160D02*
X0121070Y0148160D01*
X0121521Y0147710D01*
X0121521Y0146809D01*
X0121070Y0146359D01*
X0119719Y0146359D01*
X0120620Y0146359D02*
X0121521Y0145458D01*
X0122666Y0145458D02*
X0124467Y0145458D01*
X0123567Y0145458D02*
X0123567Y0148160D01*
X0122666Y0147259D01*
X0119719Y0148160D02*
X0119719Y0145458D01*
X0103969Y0167313D02*
X0100368Y0167313D01*
X0100818Y0167763D02*
X0101268Y0168213D01*
X0100818Y0167763D02*
X0100818Y0166863D01*
X0101268Y0166412D01*
X0101718Y0166412D01*
X0102168Y0166863D01*
X0102168Y0167763D01*
X0102618Y0168213D01*
X0103068Y0168213D01*
X0103519Y0167763D01*
X0103519Y0166863D01*
X0103068Y0166412D01*
X0103068Y0165268D02*
X0100818Y0165268D01*
X0100818Y0163467D02*
X0103068Y0163467D01*
X0103519Y0163917D01*
X0103519Y0164818D01*
X0103068Y0165268D01*
X0102168Y0169357D02*
X0102168Y0171158D01*
X0103519Y0170708D02*
X0100818Y0170708D01*
X0102168Y0169357D01*
X0094873Y0155609D02*
X0092963Y0153699D01*
X0092327Y0154336D02*
X0093600Y0153063D01*
X0094727Y0152572D02*
X0094727Y0151935D01*
X0095364Y0151298D01*
X0096000Y0151298D01*
X0096319Y0151617D01*
X0096319Y0152253D01*
X0096000Y0152572D01*
X0096319Y0152253D02*
X0096955Y0152253D01*
X0097274Y0152572D01*
X0097274Y0153208D01*
X0096637Y0153845D01*
X0096000Y0153845D01*
X0094873Y0155609D02*
X0093600Y0155609D01*
X0093109Y0156736D02*
X0093109Y0157373D01*
X0092472Y0158010D01*
X0091836Y0158010D01*
X0090562Y0156736D01*
X0090562Y0156100D01*
X0091199Y0155463D01*
X0091835Y0155463D01*
X0078731Y0142997D02*
X0088892Y0132836D01*
X0068569Y0112514D01*
X0058408Y0122675D01*
X0068569Y0132836D01*
X0088892Y0112514D01*
X0078731Y0102353D01*
X0068569Y0112514D01*
X0076364Y0103605D02*
X0078731Y0101239D01*
X0081097Y0103605D01*
X0077944Y0104858D02*
X0077946Y0104914D01*
X0077952Y0104969D01*
X0077962Y0105023D01*
X0077975Y0105077D01*
X0077993Y0105130D01*
X0078014Y0105181D01*
X0078038Y0105231D01*
X0078066Y0105279D01*
X0078098Y0105325D01*
X0078132Y0105369D01*
X0078170Y0105410D01*
X0078210Y0105448D01*
X0078253Y0105483D01*
X0078298Y0105515D01*
X0078346Y0105544D01*
X0078395Y0105570D01*
X0078446Y0105592D01*
X0078498Y0105610D01*
X0078552Y0105624D01*
X0078607Y0105635D01*
X0078662Y0105642D01*
X0078717Y0105645D01*
X0078773Y0105644D01*
X0078828Y0105639D01*
X0078883Y0105630D01*
X0078937Y0105618D01*
X0078990Y0105601D01*
X0079042Y0105581D01*
X0079092Y0105557D01*
X0079140Y0105530D01*
X0079187Y0105500D01*
X0079231Y0105466D01*
X0079273Y0105429D01*
X0079311Y0105389D01*
X0079348Y0105347D01*
X0079381Y0105302D01*
X0079410Y0105256D01*
X0079437Y0105207D01*
X0079459Y0105156D01*
X0079479Y0105104D01*
X0079494Y0105050D01*
X0079506Y0104996D01*
X0079514Y0104941D01*
X0079518Y0104886D01*
X0079518Y0104830D01*
X0079514Y0104775D01*
X0079506Y0104720D01*
X0079494Y0104666D01*
X0079479Y0104612D01*
X0079459Y0104560D01*
X0079437Y0104509D01*
X0079410Y0104460D01*
X0079381Y0104414D01*
X0079348Y0104369D01*
X0079311Y0104327D01*
X0079273Y0104287D01*
X0079231Y0104250D01*
X0079187Y0104216D01*
X0079140Y0104186D01*
X0079092Y0104159D01*
X0079042Y0104135D01*
X0078990Y0104115D01*
X0078937Y0104098D01*
X0078883Y0104086D01*
X0078828Y0104077D01*
X0078773Y0104072D01*
X0078717Y0104071D01*
X0078662Y0104074D01*
X0078607Y0104081D01*
X0078552Y0104092D01*
X0078498Y0104106D01*
X0078446Y0104124D01*
X0078395Y0104146D01*
X0078346Y0104172D01*
X0078298Y0104201D01*
X0078253Y0104233D01*
X0078210Y0104268D01*
X0078170Y0104306D01*
X0078132Y0104347D01*
X0078098Y0104391D01*
X0078066Y0104437D01*
X0078038Y0104485D01*
X0078014Y0104535D01*
X0077993Y0104586D01*
X0077975Y0104639D01*
X0077962Y0104693D01*
X0077952Y0104747D01*
X0077946Y0104802D01*
X0077944Y0104858D01*
X0088892Y0112514D02*
X0099053Y0122675D01*
X0088892Y0132836D01*
X0078731Y0142997D02*
X0068569Y0132836D01*
X0048449Y0140326D02*
X0048449Y0141226D01*
X0047999Y0141677D01*
X0045748Y0141677D01*
X0046199Y0142821D02*
X0045748Y0143271D01*
X0045748Y0144171D01*
X0046199Y0144622D01*
X0047099Y0144171D02*
X0047099Y0143271D01*
X0046649Y0142821D01*
X0046199Y0142821D01*
X0045298Y0143721D02*
X0048899Y0143721D01*
X0048449Y0143271D02*
X0048449Y0144171D01*
X0047999Y0144622D01*
X0047549Y0144622D01*
X0047099Y0144171D01*
X0047999Y0142821D02*
X0048449Y0143271D01*
X0048449Y0145766D02*
X0048449Y0147567D01*
X0048449Y0146666D02*
X0045748Y0146666D01*
X0046649Y0145766D01*
X0046199Y0148711D02*
X0045748Y0149161D01*
X0045748Y0150062D01*
X0046199Y0150512D01*
X0046649Y0150512D01*
X0048449Y0148711D01*
X0048449Y0150512D01*
X0048449Y0140326D02*
X0047999Y0139876D01*
X0045748Y0139876D01*
X0044955Y0138294D02*
X0046865Y0136384D01*
X0046229Y0135748D02*
X0047502Y0137021D01*
X0044955Y0137021D02*
X0044955Y0138294D01*
X0042873Y0136211D02*
X0044783Y0134302D01*
X0045419Y0134938D02*
X0044146Y0133665D01*
X0043019Y0133174D02*
X0043019Y0132538D01*
X0042382Y0131901D01*
X0041745Y0131901D01*
X0040472Y0133174D01*
X0040472Y0133811D01*
X0041109Y0134447D01*
X0041745Y0134447D01*
X0042873Y0134938D02*
X0042873Y0136211D01*
X0038020Y0134477D02*
X0028572Y0134477D01*
X0029359Y0135265D01*
X0030540Y0138020D02*
X0030540Y0149044D01*
X0036052Y0149044D01*
X0036052Y0138020D01*
X0030540Y0138020D01*
X0028715Y0138270D02*
X0026013Y0138270D01*
X0026013Y0139622D01*
X0026463Y0140072D01*
X0027364Y0140072D01*
X0027815Y0139622D01*
X0027815Y0138270D01*
X0027815Y0139171D02*
X0028715Y0140072D01*
X0027364Y0141217D02*
X0027364Y0143019D01*
X0026013Y0142568D02*
X0027364Y0141217D01*
X0028715Y0142568D02*
X0026013Y0142568D01*
X0021682Y0135343D02*
X0017745Y0131406D01*
X0001387Y0131406D01*
X0001387Y0171406D01*
X0017745Y0171406D01*
X0021682Y0167469D01*
X0021682Y0135343D01*
X0028572Y0128965D02*
X0029753Y0127784D01*
X0030034Y0128324D02*
X0030034Y0126073D01*
X0030484Y0125623D01*
X0031384Y0125623D01*
X0031834Y0126073D01*
X0031834Y0128324D01*
X0032979Y0127874D02*
X0033429Y0128324D01*
X0034329Y0128324D01*
X0034779Y0127874D01*
X0034329Y0126974D02*
X0034779Y0126523D01*
X0034779Y0126073D01*
X0034329Y0125623D01*
X0033429Y0125623D01*
X0032979Y0126073D01*
X0033429Y0126974D02*
X0032979Y0127424D01*
X0032979Y0127874D01*
X0033429Y0126974D02*
X0034329Y0126974D01*
X0035924Y0127424D02*
X0036824Y0128324D01*
X0036824Y0125623D01*
X0035924Y0125623D02*
X0037724Y0125623D01*
X0038869Y0126073D02*
X0039319Y0125623D01*
X0040219Y0125623D01*
X0040669Y0126073D01*
X0040669Y0126523D01*
X0040219Y0126974D01*
X0039769Y0126974D01*
X0040219Y0126974D02*
X0040669Y0127424D01*
X0040669Y0127874D01*
X0040219Y0128324D01*
X0039319Y0128324D01*
X0038869Y0127874D01*
X0038020Y0128965D02*
X0028572Y0128965D01*
X0033879Y0128774D02*
X0033879Y0125173D01*
X0017378Y0100420D02*
X0016478Y0099970D01*
X0015578Y0099070D01*
X0016928Y0099070D01*
X0017378Y0098620D01*
X0017378Y0098169D01*
X0016928Y0097719D01*
X0016028Y0097719D01*
X0015578Y0098169D01*
X0015578Y0099070D01*
X0014433Y0099070D02*
X0014433Y0099970D01*
X0013983Y0100420D01*
X0012633Y0100420D01*
X0012633Y0097719D01*
X0012633Y0098620D02*
X0013983Y0098620D01*
X0014433Y0099070D01*
X0011488Y0100420D02*
X0010588Y0100420D01*
X0011038Y0100420D02*
X0011038Y0098169D01*
X0010588Y0097719D01*
X0010138Y0097719D01*
X0009688Y0098169D01*
X0033887Y0078178D02*
X0033887Y0059280D01*
X0040580Y0059280D01*
X0040580Y0057706D01*
X0033887Y0057706D01*
X0033887Y0059280D01*
X0040580Y0059280D01*
X0040580Y0078178D01*
X0033887Y0078178D01*
X0036052Y0069320D02*
X0038414Y0069320D01*
X0037233Y0067351D01*
X0036052Y0069320D01*
X0036184Y0069099D02*
X0038282Y0069099D01*
X0037983Y0068601D02*
X0036483Y0068601D01*
X0036783Y0068102D02*
X0037684Y0068102D01*
X0037384Y0067603D02*
X0037082Y0067603D01*
X0041800Y0073704D02*
X0041800Y0075055D01*
X0042251Y0075505D01*
X0044052Y0075505D01*
X0044503Y0075055D01*
X0044503Y0073704D01*
X0041800Y0073704D01*
X0042701Y0076650D02*
X0041800Y0077551D01*
X0044503Y0077551D01*
X0044503Y0076650D02*
X0044503Y0078452D01*
X0045634Y0064429D02*
X0045634Y0062629D01*
X0045634Y0063529D02*
X0042934Y0063529D01*
X0043834Y0062629D01*
X0043384Y0061484D02*
X0042934Y0061034D01*
X0042934Y0060134D01*
X0043384Y0059683D01*
X0045184Y0059683D01*
X0045634Y0060134D01*
X0045634Y0061034D01*
X0045184Y0061484D01*
X0045691Y0058466D02*
X0045894Y0058493D01*
X0046098Y0058466D01*
X0046288Y0058387D01*
X0046451Y0058262D01*
X0046576Y0058099D01*
X0046655Y0057909D01*
X0046682Y0057706D01*
X0046655Y0057502D01*
X0046576Y0057312D01*
X0046451Y0057149D01*
X0046288Y0057024D01*
X0046098Y0056945D01*
X0045894Y0056918D01*
X0045691Y0056945D01*
X0045501Y0057024D01*
X0045338Y0057149D01*
X0045213Y0057312D01*
X0045134Y0057502D01*
X0045107Y0057706D01*
X0045134Y0057909D01*
X0045213Y0058099D01*
X0045338Y0058262D01*
X0045501Y0058387D01*
X0045691Y0058466D01*
X0045238Y0058132D02*
X0046551Y0058132D01*
X0046672Y0057633D02*
X0045117Y0057633D01*
X0045356Y0057135D02*
X0046433Y0057135D01*
X0048257Y0059280D02*
X0048257Y0046682D01*
X0054556Y0046682D01*
X0054556Y0059280D01*
X0059280Y0059280D01*
X0059280Y0046682D01*
X0054556Y0046682D01*
X0054242Y0041674D02*
X0054692Y0041224D01*
X0054692Y0040323D01*
X0054242Y0039873D01*
X0053792Y0039873D01*
X0053341Y0040323D01*
X0053341Y0041224D01*
X0053792Y0041674D01*
X0054242Y0041674D01*
X0054692Y0041224D02*
X0055142Y0041674D01*
X0055592Y0041674D01*
X0056042Y0041224D01*
X0056042Y0040323D01*
X0055592Y0039873D01*
X0055142Y0039873D01*
X0054692Y0040323D01*
X0055142Y0038729D02*
X0054692Y0038278D01*
X0054692Y0037378D01*
X0054242Y0036928D01*
X0053792Y0036928D01*
X0053341Y0037378D01*
X0053341Y0038278D01*
X0053792Y0038729D01*
X0052891Y0037828D02*
X0056492Y0037828D01*
X0056042Y0037378D02*
X0056042Y0038278D01*
X0055592Y0038729D01*
X0055142Y0038729D01*
X0056042Y0037378D02*
X0055592Y0036928D01*
X0055592Y0035784D02*
X0053341Y0035784D01*
X0053341Y0033983D02*
X0055592Y0033983D01*
X0056042Y0034433D01*
X0056042Y0035333D01*
X0055592Y0035784D01*
X0048400Y0035819D02*
X0045698Y0035819D01*
X0046599Y0034918D01*
X0047049Y0033773D02*
X0047500Y0033322D01*
X0047500Y0031971D01*
X0048400Y0031971D02*
X0045698Y0031971D01*
X0045698Y0033322D01*
X0046148Y0033773D01*
X0047049Y0033773D01*
X0047500Y0032872D02*
X0048400Y0033773D01*
X0048400Y0034918D02*
X0048400Y0036719D01*
X0047950Y0037864D02*
X0047500Y0037864D01*
X0047049Y0038315D01*
X0047049Y0039215D01*
X0047500Y0039666D01*
X0047950Y0039666D01*
X0048400Y0039215D01*
X0048400Y0038315D01*
X0047950Y0037864D01*
X0047049Y0038315D02*
X0046599Y0037864D01*
X0046148Y0037864D01*
X0045698Y0038315D01*
X0045698Y0039215D01*
X0046148Y0039666D01*
X0046599Y0039666D01*
X0047049Y0039215D01*
X0043926Y0042745D02*
X0038414Y0042745D01*
X0038414Y0031721D01*
X0043926Y0031721D01*
X0043926Y0042745D01*
X0039989Y0047469D02*
X0039989Y0058493D01*
X0034477Y0058493D01*
X0034477Y0047469D01*
X0039989Y0047469D01*
X0036052Y0042745D02*
X0030540Y0042745D01*
X0030540Y0031721D01*
X0036052Y0031721D01*
X0036052Y0042745D01*
X0032652Y0047719D02*
X0029950Y0047719D01*
X0029950Y0049070D01*
X0030400Y0049521D01*
X0031301Y0049521D01*
X0031752Y0049070D01*
X0031752Y0047719D01*
X0031752Y0048620D02*
X0032652Y0049521D01*
X0032202Y0050666D02*
X0032652Y0051116D01*
X0032652Y0052017D01*
X0032202Y0052467D01*
X0031752Y0052467D01*
X0031301Y0052017D01*
X0031301Y0051567D01*
X0031301Y0052017D02*
X0030851Y0052467D01*
X0030400Y0052467D01*
X0029950Y0052017D01*
X0029950Y0051116D01*
X0030400Y0050666D01*
X0029950Y0053612D02*
X0031301Y0053612D01*
X0030851Y0054513D01*
X0030851Y0054963D01*
X0031301Y0055414D01*
X0032202Y0055414D01*
X0032652Y0054963D01*
X0032652Y0054063D01*
X0032202Y0053612D01*
X0029950Y0053612D02*
X0029950Y0055414D01*
X0033887Y0058132D02*
X0040580Y0058132D01*
X0040580Y0058630D02*
X0033887Y0058630D01*
X0033887Y0059129D02*
X0040580Y0059129D01*
X0048257Y0059280D02*
X0054556Y0059280D01*
X0054556Y0056131D01*
X0059280Y0056131D01*
X0059280Y0059280D01*
X0065580Y0059280D01*
X0065580Y0046682D01*
X0059280Y0046682D01*
X0059280Y0056138D02*
X0054556Y0056138D01*
X0054556Y0056636D02*
X0059280Y0056636D01*
X0059280Y0057135D02*
X0054556Y0057135D01*
X0054556Y0057633D02*
X0059280Y0057633D01*
X0059280Y0058132D02*
X0054556Y0058132D01*
X0054556Y0058630D02*
X0059280Y0058630D01*
X0059280Y0059129D02*
X0054556Y0059129D01*
X0054556Y0059280D02*
X0059280Y0059280D01*
X0059160Y0061105D02*
X0057359Y0061105D01*
X0059160Y0062907D01*
X0059160Y0063357D01*
X0058710Y0063807D01*
X0057809Y0063807D01*
X0057359Y0063357D01*
X0056214Y0063807D02*
X0056214Y0061555D01*
X0055763Y0061105D01*
X0054863Y0061105D01*
X0054412Y0061555D01*
X0054412Y0063807D01*
X0064709Y0081776D02*
X0064073Y0082413D01*
X0064073Y0083049D01*
X0066619Y0083049D01*
X0065346Y0081776D01*
X0064709Y0081776D01*
X0064073Y0083049D02*
X0065346Y0084322D01*
X0065982Y0084322D01*
X0066619Y0083686D01*
X0066619Y0083049D01*
X0064218Y0086087D02*
X0062308Y0084177D01*
X0061672Y0084813D02*
X0062945Y0083540D01*
X0062945Y0086087D02*
X0064218Y0086087D01*
X0062454Y0087214D02*
X0062454Y0087851D01*
X0061817Y0088487D01*
X0061181Y0088487D01*
X0059908Y0087214D01*
X0059908Y0086578D01*
X0060544Y0085941D01*
X0061181Y0085941D01*
X0069910Y0070304D02*
X0069910Y0059280D01*
X0075422Y0059280D01*
X0075422Y0070304D01*
X0069910Y0070304D01*
X0070797Y0071341D02*
X0070797Y0072692D01*
X0071247Y0073143D01*
X0072148Y0073143D01*
X0072598Y0072692D01*
X0072598Y0071341D01*
X0073499Y0071341D02*
X0070797Y0071341D01*
X0072598Y0072242D02*
X0073499Y0073143D01*
X0073499Y0074288D02*
X0073048Y0074288D01*
X0071247Y0076089D01*
X0070797Y0076089D01*
X0070797Y0074288D01*
X0078671Y0075189D02*
X0081373Y0075189D01*
X0081373Y0076089D02*
X0081373Y0074288D01*
X0081373Y0073143D02*
X0080472Y0072242D01*
X0080472Y0072692D02*
X0080472Y0071341D01*
X0081373Y0071341D02*
X0078671Y0071341D01*
X0078671Y0072692D01*
X0079121Y0073143D01*
X0080022Y0073143D01*
X0080472Y0072692D01*
X0079571Y0074288D02*
X0078671Y0075189D01*
X0079121Y0077234D02*
X0078671Y0077685D01*
X0078671Y0078586D01*
X0079121Y0079036D01*
X0079571Y0079036D01*
X0080022Y0078586D01*
X0080472Y0079036D01*
X0080922Y0079036D01*
X0081373Y0078586D01*
X0081373Y0077685D01*
X0080922Y0077234D01*
X0080022Y0078135D02*
X0080022Y0078586D01*
X0077784Y0070304D02*
X0077784Y0059280D01*
X0083296Y0059280D01*
X0083296Y0070304D01*
X0077784Y0070304D01*
X0085658Y0070304D02*
X0085658Y0059280D01*
X0091170Y0059280D01*
X0091170Y0070304D01*
X0085658Y0070304D01*
X0086545Y0071833D02*
X0086545Y0073185D01*
X0086995Y0073635D01*
X0087896Y0073635D01*
X0088346Y0073185D01*
X0088346Y0071833D01*
X0089247Y0071833D02*
X0086545Y0071833D01*
X0088346Y0072734D02*
X0089247Y0073635D01*
X0089247Y0074780D02*
X0089247Y0076582D01*
X0089247Y0075681D02*
X0086545Y0075681D01*
X0087445Y0074780D01*
X0087896Y0077727D02*
X0087896Y0079528D01*
X0089247Y0079078D02*
X0086545Y0079078D01*
X0087896Y0077727D01*
X0093532Y0070304D02*
X0093532Y0059280D01*
X0099044Y0059280D01*
X0099044Y0070304D01*
X0093532Y0070304D01*
X0094419Y0071833D02*
X0094419Y0073185D01*
X0094869Y0073635D01*
X0095770Y0073635D01*
X0096220Y0073185D01*
X0096220Y0071833D01*
X0097121Y0071833D02*
X0094419Y0071833D01*
X0096220Y0072734D02*
X0097121Y0073635D01*
X0097121Y0074780D02*
X0097121Y0076582D01*
X0097121Y0075681D02*
X0094419Y0075681D01*
X0095319Y0074780D01*
X0095770Y0077727D02*
X0094419Y0077727D01*
X0094419Y0079528D01*
X0095319Y0079078D02*
X0095770Y0079528D01*
X0096670Y0079528D01*
X0097121Y0079078D01*
X0097121Y0078177D01*
X0096670Y0077727D01*
X0095770Y0077727D02*
X0095319Y0078627D01*
X0095319Y0079078D01*
X0101406Y0070304D02*
X0101406Y0059280D01*
X0106918Y0059280D01*
X0106918Y0070304D01*
X0101406Y0070304D01*
X0105737Y0072284D02*
X0106188Y0071833D01*
X0107989Y0071833D01*
X0108440Y0072284D01*
X0108440Y0073185D01*
X0107989Y0073635D01*
X0107989Y0074780D02*
X0107539Y0074780D01*
X0107089Y0075230D01*
X0107089Y0076131D01*
X0107539Y0076582D01*
X0107989Y0076582D01*
X0108440Y0076131D01*
X0108440Y0075230D01*
X0107989Y0074780D01*
X0107089Y0075230D02*
X0106638Y0074780D01*
X0106188Y0074780D01*
X0105737Y0075230D01*
X0105737Y0076131D01*
X0106188Y0076582D01*
X0106638Y0076582D01*
X0107089Y0076131D01*
X0106188Y0073635D02*
X0105737Y0073185D01*
X0105737Y0072284D01*
X0109280Y0070304D02*
X0109280Y0059280D01*
X0114792Y0059280D01*
X0114792Y0070304D01*
X0109280Y0070304D01*
X0110659Y0071792D02*
X0111109Y0071341D01*
X0112911Y0071341D01*
X0113361Y0071792D01*
X0113361Y0072692D01*
X0112911Y0073143D01*
X0113361Y0074288D02*
X0113361Y0076089D01*
X0113361Y0075189D02*
X0110659Y0075189D01*
X0111559Y0074288D01*
X0111109Y0073143D02*
X0110659Y0072692D01*
X0110659Y0071792D01*
X0112010Y0077234D02*
X0112010Y0079036D01*
X0113361Y0078586D02*
X0110659Y0078586D01*
X0112010Y0077234D01*
X0108603Y0058526D02*
X0106802Y0058526D01*
X0106802Y0057176D01*
X0107703Y0057626D01*
X0108153Y0057626D01*
X0108603Y0057176D01*
X0108603Y0056276D01*
X0108153Y0055826D01*
X0107252Y0055826D01*
X0106802Y0056276D01*
X0105658Y0056276D02*
X0105658Y0056726D01*
X0105208Y0057176D01*
X0104307Y0057176D01*
X0103857Y0057626D01*
X0103857Y0058076D01*
X0104307Y0058526D01*
X0105208Y0058526D01*
X0105658Y0058076D01*
X0104758Y0058976D02*
X0104758Y0055375D01*
X0105208Y0055826D02*
X0105658Y0056276D01*
X0105208Y0055826D02*
X0104307Y0055826D01*
X0103857Y0056276D01*
X0102713Y0056276D02*
X0102713Y0058526D01*
X0100912Y0058526D02*
X0100912Y0056276D01*
X0101362Y0055826D01*
X0102263Y0055826D01*
X0102713Y0056276D01*
X0096530Y0056825D02*
X0096080Y0056374D01*
X0096530Y0056825D02*
X0096530Y0057726D01*
X0096080Y0058176D01*
X0095630Y0058176D01*
X0095179Y0057726D01*
X0095179Y0057275D01*
X0095179Y0057726D02*
X0094729Y0058176D01*
X0094278Y0058176D01*
X0093828Y0057726D01*
X0093828Y0056825D01*
X0094278Y0056374D01*
X0094278Y0055229D02*
X0093828Y0054779D01*
X0093828Y0053878D01*
X0094278Y0053428D01*
X0096080Y0053428D01*
X0096530Y0053878D01*
X0096530Y0054779D01*
X0096080Y0055229D01*
X0093139Y0055200D02*
X0093139Y0053769D01*
X0093139Y0055200D02*
X0090633Y0057706D01*
X0075816Y0057706D01*
X0075816Y0053769D01*
X0074345Y0054134D02*
X0074345Y0055034D01*
X0073895Y0055484D01*
X0074345Y0056629D02*
X0072545Y0058429D01*
X0072095Y0058429D01*
X0071645Y0057979D01*
X0071645Y0057079D01*
X0072095Y0056629D01*
X0072095Y0055484D02*
X0071645Y0055034D01*
X0071645Y0054134D01*
X0072095Y0053684D01*
X0073895Y0053684D01*
X0074345Y0054134D01*
X0074345Y0056629D02*
X0074345Y0058429D01*
X0075816Y0044320D02*
X0075816Y0040383D01*
X0090633Y0040383D01*
X0093139Y0042888D01*
X0093139Y0044713D01*
X0094963Y0042548D02*
X0096315Y0042548D01*
X0096765Y0042097D01*
X0096765Y0041196D01*
X0096315Y0040746D01*
X0094963Y0040746D01*
X0094963Y0039845D02*
X0094963Y0042548D01*
X0095864Y0040746D02*
X0096765Y0039845D01*
X0097910Y0039845D02*
X0099711Y0039845D01*
X0098811Y0039845D02*
X0098811Y0042548D01*
X0097910Y0041647D01*
X0100856Y0041196D02*
X0100856Y0040296D01*
X0101307Y0039845D01*
X0102208Y0039845D01*
X0102658Y0040296D01*
X0102658Y0040746D01*
X0102208Y0041196D01*
X0100856Y0041196D01*
X0101757Y0042097D01*
X0102658Y0042548D01*
X0105737Y0038020D02*
X0094713Y0038020D01*
X0094713Y0032509D01*
X0105737Y0032509D01*
X0105737Y0038020D01*
X0102981Y0033781D02*
X0103144Y0033656D01*
X0103269Y0033493D01*
X0103348Y0033303D01*
X0103375Y0033099D01*
X0103348Y0032895D01*
X0103269Y0032706D01*
X0103144Y0032542D01*
X0102981Y0032417D01*
X0102791Y0032339D01*
X0102587Y0032312D01*
X0102384Y0032339D01*
X0102194Y0032417D01*
X0102031Y0032542D01*
X0101905Y0032706D01*
X0101827Y0032895D01*
X0101800Y0033099D01*
X0101827Y0033303D01*
X0101905Y0033493D01*
X0102031Y0033656D01*
X0102194Y0033781D01*
X0102384Y0033860D01*
X0102587Y0033887D01*
X0102791Y0033860D01*
X0102981Y0033781D01*
X0103081Y0033705D02*
X0102094Y0033705D01*
X0101814Y0033206D02*
X0103361Y0033206D01*
X0103270Y0032708D02*
X0101905Y0032708D01*
X0101013Y0030737D02*
X0115186Y0030737D01*
X0115186Y0018139D01*
X0101013Y0018139D01*
X0101013Y0030737D01*
X0098937Y0029744D02*
X0098937Y0029293D01*
X0098486Y0028843D01*
X0097585Y0028843D01*
X0097135Y0029293D01*
X0097135Y0029744D01*
X0097585Y0030194D01*
X0098486Y0030194D01*
X0098937Y0029744D01*
X0098486Y0028843D02*
X0098937Y0028392D01*
X0098937Y0027942D01*
X0098486Y0027492D01*
X0097585Y0027492D01*
X0097135Y0027942D01*
X0097135Y0028392D01*
X0097585Y0028843D01*
X0095990Y0029293D02*
X0095990Y0029744D01*
X0095540Y0030194D01*
X0094639Y0030194D01*
X0094188Y0029744D01*
X0093043Y0029744D02*
X0093043Y0028843D01*
X0092593Y0028392D01*
X0091242Y0028392D01*
X0091242Y0027492D02*
X0091242Y0030194D01*
X0092593Y0030194D01*
X0093043Y0029744D01*
X0092143Y0028392D02*
X0093043Y0027492D01*
X0093532Y0026997D02*
X0093532Y0015973D01*
X0099044Y0015973D01*
X0099044Y0026997D01*
X0093532Y0026997D01*
X0094188Y0027942D02*
X0094639Y0027492D01*
X0095540Y0027492D01*
X0095990Y0027942D01*
X0095990Y0028392D01*
X0095540Y0028843D01*
X0095089Y0028843D01*
X0095540Y0028843D02*
X0095990Y0029293D01*
X0091170Y0026997D02*
X0091170Y0015973D01*
X0085658Y0015973D01*
X0085658Y0026997D01*
X0091170Y0026997D01*
X0088414Y0029753D02*
X0089202Y0030540D01*
X0079753Y0030540D01*
X0080167Y0026936D02*
X0080167Y0024235D01*
X0079267Y0024235D02*
X0081067Y0024235D01*
X0082212Y0024685D02*
X0082662Y0024235D01*
X0083562Y0024235D01*
X0084012Y0024685D01*
X0084012Y0025585D01*
X0083562Y0026036D01*
X0083112Y0026036D01*
X0082212Y0025585D01*
X0082212Y0026936D01*
X0084012Y0026936D01*
X0080167Y0026936D02*
X0079267Y0026036D01*
X0078122Y0026486D02*
X0077672Y0026936D01*
X0076772Y0026936D01*
X0076322Y0026486D01*
X0076322Y0024685D01*
X0076772Y0024235D01*
X0077672Y0024235D01*
X0078122Y0024685D01*
X0075422Y0023060D02*
X0069910Y0023060D01*
X0069910Y0012036D01*
X0075422Y0012036D01*
X0075422Y0023060D01*
X0068085Y0018179D02*
X0067635Y0018179D01*
X0065834Y0019981D01*
X0065383Y0019981D01*
X0065383Y0018179D01*
X0065383Y0016134D02*
X0068085Y0016134D01*
X0068085Y0017034D02*
X0068085Y0015233D01*
X0068085Y0014088D02*
X0067185Y0013187D01*
X0067185Y0013637D02*
X0067185Y0012286D01*
X0068085Y0012286D02*
X0065383Y0012286D01*
X0065383Y0013637D01*
X0065834Y0014088D01*
X0066734Y0014088D01*
X0067185Y0013637D01*
X0066284Y0015233D02*
X0065383Y0016134D01*
X0061971Y0006966D02*
X0060621Y0005615D01*
X0062421Y0005615D01*
X0061971Y0004265D02*
X0061971Y0006966D01*
X0059476Y0004265D02*
X0057676Y0004265D01*
X0058576Y0004265D02*
X0058576Y0006966D01*
X0057676Y0006065D01*
X0056531Y0006516D02*
X0056081Y0006966D01*
X0055181Y0006966D01*
X0054731Y0006516D01*
X0054731Y0006065D01*
X0055181Y0005615D01*
X0056081Y0005615D01*
X0056531Y0005165D01*
X0056531Y0004715D01*
X0056081Y0004265D01*
X0055181Y0004265D01*
X0054731Y0004715D01*
X0053586Y0004715D02*
X0053586Y0006966D01*
X0051785Y0006966D02*
X0051785Y0004715D01*
X0052236Y0004265D01*
X0053136Y0004265D01*
X0053586Y0004715D01*
X0055631Y0003815D02*
X0055631Y0007416D01*
X0046924Y0009784D02*
X0046924Y0010685D01*
X0046474Y0011135D01*
X0046924Y0012280D02*
X0046924Y0014082D01*
X0046924Y0013181D02*
X0044222Y0013181D01*
X0045122Y0012280D01*
X0044672Y0011135D02*
X0044222Y0010685D01*
X0044222Y0009784D01*
X0044672Y0009333D01*
X0046474Y0009333D01*
X0046924Y0009784D01*
X0043926Y0008099D02*
X0043926Y0019123D01*
X0038414Y0019123D01*
X0038414Y0008099D01*
X0043926Y0008099D01*
X0044672Y0015227D02*
X0044222Y0015677D01*
X0044222Y0016578D01*
X0044672Y0017028D01*
X0045122Y0017028D01*
X0045573Y0016578D01*
X0045573Y0015677D01*
X0045122Y0015227D01*
X0044672Y0015227D01*
X0045573Y0015677D02*
X0046023Y0015227D01*
X0046474Y0015227D01*
X0046924Y0015677D01*
X0046924Y0016578D01*
X0046474Y0017028D01*
X0046023Y0017028D01*
X0045573Y0016578D01*
X0043926Y0019910D02*
X0043926Y0030934D01*
X0038414Y0030934D01*
X0038414Y0019910D01*
X0043926Y0019910D01*
X0044672Y0021144D02*
X0044222Y0021595D01*
X0044222Y0022496D01*
X0044672Y0022946D01*
X0045122Y0024091D02*
X0044222Y0024992D01*
X0046924Y0024992D01*
X0046924Y0024091D02*
X0046924Y0025893D01*
X0046924Y0027038D02*
X0046474Y0027038D01*
X0044672Y0028839D01*
X0044222Y0028839D01*
X0044222Y0027038D01*
X0046474Y0022946D02*
X0046924Y0022496D01*
X0046924Y0021595D01*
X0046474Y0021144D01*
X0044672Y0021144D01*
X0036052Y0019910D02*
X0036052Y0030934D01*
X0030540Y0030934D01*
X0030540Y0019910D01*
X0036052Y0019910D01*
X0034621Y0018060D02*
X0034170Y0018511D01*
X0032369Y0018511D01*
X0031919Y0018060D01*
X0031919Y0017159D01*
X0032369Y0016709D01*
X0032819Y0016709D01*
X0033270Y0017159D01*
X0033270Y0018511D01*
X0034621Y0018060D02*
X0034621Y0017159D01*
X0034170Y0016709D01*
X0034170Y0015564D02*
X0034621Y0015114D01*
X0034621Y0014213D01*
X0034170Y0013763D01*
X0032369Y0013763D01*
X0031919Y0014213D01*
X0031919Y0015114D01*
X0032369Y0015564D01*
X0029703Y0043540D02*
X0029066Y0043540D01*
X0028429Y0044177D01*
X0028429Y0044814D01*
X0029384Y0045132D02*
X0030340Y0044177D01*
X0030977Y0044814D02*
X0030977Y0045451D01*
X0030340Y0046088D01*
X0029703Y0046088D01*
X0029384Y0045769D01*
X0029384Y0045132D01*
X0029703Y0043540D02*
X0030977Y0044814D01*
X0028575Y0047853D02*
X0026664Y0045942D01*
X0026027Y0046579D02*
X0027301Y0045305D01*
X0027301Y0047853D02*
X0028575Y0047853D01*
X0026810Y0048981D02*
X0026173Y0048344D01*
X0025536Y0048344D01*
X0024580Y0049299D01*
X0023943Y0048662D02*
X0025854Y0050573D01*
X0026810Y0049618D01*
X0026810Y0048981D01*
X0025217Y0048662D02*
X0025217Y0047389D01*
X0017378Y0047396D02*
X0017378Y0046496D01*
X0016928Y0046046D01*
X0016028Y0046046D01*
X0015578Y0046496D01*
X0015578Y0047396D02*
X0016478Y0047847D01*
X0016928Y0047847D01*
X0017378Y0047396D01*
X0017378Y0048747D02*
X0015578Y0048747D01*
X0015578Y0047396D01*
X0014433Y0047396D02*
X0013983Y0046946D01*
X0012633Y0046946D01*
X0012633Y0046046D02*
X0012633Y0048747D01*
X0013983Y0048747D01*
X0014433Y0048297D01*
X0014433Y0047396D01*
X0011488Y0048747D02*
X0010588Y0048747D01*
X0011038Y0048747D02*
X0011038Y0046496D01*
X0010588Y0046046D01*
X0010138Y0046046D01*
X0009688Y0046496D01*
X0076459Y0039396D02*
X0076459Y0037146D01*
X0076910Y0036696D01*
X0077810Y0036696D01*
X0078260Y0037146D01*
X0078260Y0039396D01*
X0079405Y0038946D02*
X0079855Y0039396D01*
X0080755Y0039396D01*
X0081205Y0038946D01*
X0080755Y0038046D02*
X0079855Y0038046D01*
X0079405Y0038496D01*
X0079405Y0038946D01*
X0080305Y0039847D02*
X0080305Y0036246D01*
X0079753Y0036052D02*
X0089202Y0036052D01*
X0088020Y0037233D01*
X0084150Y0037146D02*
X0084150Y0038946D01*
X0083700Y0039396D01*
X0082800Y0039396D01*
X0082350Y0038946D01*
X0082350Y0038496D01*
X0082800Y0038046D01*
X0084150Y0038046D01*
X0084150Y0037146D02*
X0083700Y0036696D01*
X0082800Y0036696D01*
X0082350Y0037146D01*
X0081205Y0037146D02*
X0081205Y0037596D01*
X0080755Y0038046D01*
X0081205Y0037146D02*
X0080755Y0036696D01*
X0079855Y0036696D01*
X0079405Y0037146D01*
X0088414Y0052981D02*
X0088414Y0056918D01*
X0086446Y0054950D02*
X0090383Y0054950D01*
X0101013Y0017450D02*
X0101013Y0004851D01*
X0115186Y0004851D01*
X0115186Y0017450D01*
X0101013Y0017450D01*
X0097863Y0012430D02*
X0086839Y0012430D01*
X0086839Y0006918D01*
X0097863Y0006918D01*
X0097863Y0012430D01*
X0097270Y0007163D02*
X0097270Y0004911D01*
X0096819Y0004460D01*
X0095918Y0004460D01*
X0095468Y0004911D01*
X0095468Y0007163D01*
X0098415Y0006712D02*
X0098865Y0007163D01*
X0099766Y0007163D01*
X0100216Y0006712D01*
X0100216Y0006262D01*
X0099766Y0005811D01*
X0100216Y0005361D01*
X0100216Y0004911D01*
X0099766Y0004460D01*
X0098865Y0004460D01*
X0098415Y0004911D01*
X0099315Y0005811D02*
X0099766Y0005811D01*
X0091555Y0005588D02*
X0089753Y0005588D01*
X0089753Y0004237D01*
X0090654Y0004687D01*
X0091104Y0004687D01*
X0091555Y0004237D01*
X0091555Y0003336D01*
X0091104Y0002885D01*
X0090203Y0002885D01*
X0089753Y0003336D01*
X0088608Y0002885D02*
X0086807Y0002885D01*
X0088608Y0004687D01*
X0088608Y0005137D01*
X0088158Y0005588D01*
X0087257Y0005588D01*
X0086807Y0005137D01*
X0085662Y0005137D02*
X0085662Y0004237D01*
X0085211Y0003786D01*
X0083860Y0003786D01*
X0083860Y0002885D02*
X0083860Y0005588D01*
X0085211Y0005588D01*
X0085662Y0005137D01*
X0084761Y0003786D02*
X0085662Y0002885D01*
X0085303Y0007680D02*
X0082642Y0008150D01*
X0082876Y0009480D01*
X0083398Y0009846D01*
X0084285Y0009689D01*
X0084651Y0009167D01*
X0084416Y0007837D01*
X0084572Y0008724D02*
X0085616Y0009454D01*
X0084484Y0010817D02*
X0084797Y0012591D01*
X0086049Y0011913D02*
X0083388Y0012382D01*
X0084484Y0010817D01*
X0084109Y0013875D02*
X0083743Y0014397D01*
X0083900Y0015284D01*
X0084421Y0015649D01*
X0084865Y0015571D01*
X0086326Y0013484D01*
X0086639Y0015258D01*
X0112929Y0002883D02*
X0112850Y0002693D01*
X0112824Y0002489D01*
X0112850Y0002285D01*
X0112929Y0002095D01*
X0113054Y0001932D01*
X0113217Y0001807D01*
X0113407Y0001728D01*
X0113611Y0001702D01*
X0113815Y0001728D01*
X0114005Y0001807D01*
X0114168Y0001932D01*
X0114293Y0002095D01*
X0114372Y0002285D01*
X0114398Y0002489D01*
X0114372Y0002693D01*
X0114293Y0002883D01*
X0114168Y0003046D01*
X0114005Y0003171D01*
X0113815Y0003250D01*
X0113611Y0003276D01*
X0113407Y0003250D01*
X0113217Y0003171D01*
X0113054Y0003046D01*
X0112929Y0002883D01*
X0112894Y0002797D02*
X0114328Y0002797D01*
X0114373Y0002299D02*
X0112849Y0002299D01*
X0113234Y0001800D02*
X0113988Y0001800D01*
X0116367Y0003473D02*
X0127391Y0003473D01*
X0127391Y0008985D01*
X0116367Y0008985D01*
X0116367Y0003473D01*
X0116367Y0009871D02*
X0127391Y0009871D01*
X0127391Y0015383D01*
X0116367Y0015383D01*
X0116367Y0009871D01*
X0117008Y0021157D02*
X0119260Y0021157D01*
X0119711Y0021607D01*
X0119711Y0022508D01*
X0119260Y0022959D01*
X0117008Y0022959D01*
X0117909Y0024103D02*
X0117008Y0025004D01*
X0119711Y0025004D01*
X0119711Y0024103D02*
X0119711Y0025905D01*
X0129863Y0014004D02*
X0129412Y0013554D01*
X0129412Y0011752D01*
X0129863Y0011302D01*
X0130763Y0011302D01*
X0131214Y0011752D01*
X0132359Y0011302D02*
X0134160Y0011302D01*
X0133259Y0011302D02*
X0133259Y0014004D01*
X0132359Y0013104D01*
X0131214Y0013554D02*
X0130763Y0014004D01*
X0129863Y0014004D01*
X0129412Y0008099D02*
X0130763Y0008099D01*
X0131214Y0007648D01*
X0131214Y0006748D01*
X0130763Y0006297D01*
X0129412Y0006297D01*
X0129412Y0005396D02*
X0129412Y0008099D01*
X0130313Y0006297D02*
X0131214Y0005396D01*
X0132359Y0006748D02*
X0134160Y0006748D01*
X0133710Y0008099D02*
X0132359Y0006748D01*
X0133710Y0008099D02*
X0133710Y0005396D01*
X0135305Y0005847D02*
X0135756Y0005396D01*
X0136656Y0005396D01*
X0137107Y0005847D01*
X0137107Y0006297D01*
X0136656Y0006748D01*
X0136206Y0006748D01*
X0136656Y0006748D02*
X0137107Y0007198D01*
X0137107Y0007648D01*
X0136656Y0008099D01*
X0135756Y0008099D01*
X0135305Y0007648D01*
X0135756Y0011302D02*
X0136656Y0011302D01*
X0137107Y0011752D01*
X0137107Y0012203D01*
X0136656Y0012653D01*
X0135305Y0012653D01*
X0135305Y0011752D01*
X0135756Y0011302D01*
X0135305Y0012653D02*
X0136206Y0013554D01*
X0137107Y0014004D01*
X0115845Y0080540D02*
X0115852Y0081123D01*
X0115874Y0081705D01*
X0115909Y0082287D01*
X0115959Y0082868D01*
X0116024Y0083447D01*
X0116102Y0084025D01*
X0116195Y0084600D01*
X0116301Y0085173D01*
X0116422Y0085744D01*
X0116557Y0086311D01*
X0116705Y0086874D01*
X0116868Y0087434D01*
X0117044Y0087990D01*
X0117233Y0088541D01*
X0117436Y0089088D01*
X0117653Y0089629D01*
X0117883Y0090164D01*
X0118125Y0090694D01*
X0118381Y0091218D01*
X0118649Y0091736D01*
X0118930Y0092246D01*
X0119224Y0092750D01*
X0119530Y0093246D01*
X0119848Y0093735D01*
X0120177Y0094215D01*
X0120519Y0094688D01*
X0120872Y0095152D01*
X0121236Y0095607D01*
X0121611Y0096053D01*
X0121997Y0096490D01*
X0122394Y0096917D01*
X0122801Y0097334D01*
X0123218Y0097741D01*
X0123645Y0098138D01*
X0124082Y0098524D01*
X0124528Y0098899D01*
X0124983Y0099263D01*
X0125447Y0099616D01*
X0125920Y0099958D01*
X0126400Y0100287D01*
X0126889Y0100605D01*
X0127385Y0100911D01*
X0127889Y0101205D01*
X0128399Y0101486D01*
X0128917Y0101754D01*
X0129441Y0102010D01*
X0129971Y0102252D01*
X0130506Y0102482D01*
X0131047Y0102699D01*
X0131594Y0102902D01*
X0132145Y0103091D01*
X0132701Y0103267D01*
X0133261Y0103430D01*
X0133824Y0103578D01*
X0134391Y0103713D01*
X0134962Y0103834D01*
X0135535Y0103940D01*
X0136110Y0104033D01*
X0136688Y0104111D01*
X0137267Y0104176D01*
X0137848Y0104226D01*
X0138430Y0104261D01*
X0139012Y0104283D01*
X0139595Y0104290D01*
X0140178Y0104283D01*
X0140760Y0104261D01*
X0141342Y0104226D01*
X0141923Y0104176D01*
X0142502Y0104111D01*
X0143080Y0104033D01*
X0143655Y0103940D01*
X0144228Y0103834D01*
X0144799Y0103713D01*
X0145366Y0103578D01*
X0145929Y0103430D01*
X0146489Y0103267D01*
X0147045Y0103091D01*
X0147596Y0102902D01*
X0148143Y0102699D01*
X0148684Y0102482D01*
X0149219Y0102252D01*
X0149749Y0102010D01*
X0150273Y0101754D01*
X0150791Y0101486D01*
X0151301Y0101205D01*
X0151805Y0100911D01*
X0152301Y0100605D01*
X0152790Y0100287D01*
X0153270Y0099958D01*
X0153743Y0099616D01*
X0154207Y0099263D01*
X0154662Y0098899D01*
X0155108Y0098524D01*
X0155545Y0098138D01*
X0155972Y0097741D01*
X0156389Y0097334D01*
X0156796Y0096917D01*
X0157193Y0096490D01*
X0157579Y0096053D01*
X0157954Y0095607D01*
X0158318Y0095152D01*
X0158671Y0094688D01*
X0159013Y0094215D01*
X0159342Y0093735D01*
X0159660Y0093246D01*
X0159966Y0092750D01*
X0160260Y0092246D01*
X0160541Y0091736D01*
X0160809Y0091218D01*
X0161065Y0090694D01*
X0161307Y0090164D01*
X0161537Y0089629D01*
X0161754Y0089088D01*
X0161957Y0088541D01*
X0162146Y0087990D01*
X0162322Y0087434D01*
X0162485Y0086874D01*
X0162633Y0086311D01*
X0162768Y0085744D01*
X0162889Y0085173D01*
X0162995Y0084600D01*
X0163088Y0084025D01*
X0163166Y0083447D01*
X0163231Y0082868D01*
X0163281Y0082287D01*
X0163316Y0081705D01*
X0163338Y0081123D01*
X0163345Y0080540D01*
X0163338Y0079957D01*
X0163316Y0079375D01*
X0163281Y0078793D01*
X0163231Y0078212D01*
X0163166Y0077633D01*
X0163088Y0077055D01*
X0162995Y0076480D01*
X0162889Y0075907D01*
X0162768Y0075336D01*
X0162633Y0074769D01*
X0162485Y0074206D01*
X0162322Y0073646D01*
X0162146Y0073090D01*
X0161957Y0072539D01*
X0161754Y0071992D01*
X0161537Y0071451D01*
X0161307Y0070916D01*
X0161065Y0070386D01*
X0160809Y0069862D01*
X0160541Y0069344D01*
X0160260Y0068834D01*
X0159966Y0068330D01*
X0159660Y0067834D01*
X0159342Y0067345D01*
X0159013Y0066865D01*
X0158671Y0066392D01*
X0158318Y0065928D01*
X0157954Y0065473D01*
X0157579Y0065027D01*
X0157193Y0064590D01*
X0156796Y0064163D01*
X0156389Y0063746D01*
X0155972Y0063339D01*
X0155545Y0062942D01*
X0155108Y0062556D01*
X0154662Y0062181D01*
X0154207Y0061817D01*
X0153743Y0061464D01*
X0153270Y0061122D01*
X0152790Y0060793D01*
X0152301Y0060475D01*
X0151805Y0060169D01*
X0151301Y0059875D01*
X0150791Y0059594D01*
X0150273Y0059326D01*
X0149749Y0059070D01*
X0149219Y0058828D01*
X0148684Y0058598D01*
X0148143Y0058381D01*
X0147596Y0058178D01*
X0147045Y0057989D01*
X0146489Y0057813D01*
X0145929Y0057650D01*
X0145366Y0057502D01*
X0144799Y0057367D01*
X0144228Y0057246D01*
X0143655Y0057140D01*
X0143080Y0057047D01*
X0142502Y0056969D01*
X0141923Y0056904D01*
X0141342Y0056854D01*
X0140760Y0056819D01*
X0140178Y0056797D01*
X0139595Y0056790D01*
X0139012Y0056797D01*
X0138430Y0056819D01*
X0137848Y0056854D01*
X0137267Y0056904D01*
X0136688Y0056969D01*
X0136110Y0057047D01*
X0135535Y0057140D01*
X0134962Y0057246D01*
X0134391Y0057367D01*
X0133824Y0057502D01*
X0133261Y0057650D01*
X0132701Y0057813D01*
X0132145Y0057989D01*
X0131594Y0058178D01*
X0131047Y0058381D01*
X0130506Y0058598D01*
X0129971Y0058828D01*
X0129441Y0059070D01*
X0128917Y0059326D01*
X0128399Y0059594D01*
X0127889Y0059875D01*
X0127385Y0060169D01*
X0126889Y0060475D01*
X0126400Y0060793D01*
X0125920Y0061122D01*
X0125447Y0061464D01*
X0124983Y0061817D01*
X0124528Y0062181D01*
X0124082Y0062556D01*
X0123645Y0062942D01*
X0123218Y0063339D01*
X0122801Y0063746D01*
X0122394Y0064163D01*
X0121997Y0064590D01*
X0121611Y0065027D01*
X0121236Y0065473D01*
X0120872Y0065928D01*
X0120519Y0066392D01*
X0120177Y0066865D01*
X0119848Y0067345D01*
X0119530Y0067834D01*
X0119224Y0068330D01*
X0118930Y0068834D01*
X0118649Y0069344D01*
X0118381Y0069862D01*
X0118125Y0070386D01*
X0117883Y0070916D01*
X0117653Y0071451D01*
X0117436Y0071992D01*
X0117233Y0072539D01*
X0117044Y0073090D01*
X0116868Y0073646D01*
X0116705Y0074206D01*
X0116557Y0074769D01*
X0116422Y0075336D01*
X0116301Y0075907D01*
X0116195Y0076480D01*
X0116102Y0077055D01*
X0116024Y0077633D01*
X0115959Y0078212D01*
X0115909Y0078793D01*
X0115874Y0079375D01*
X0115852Y0079957D01*
X0115845Y0080540D01*
X0105999Y0095341D02*
X0106635Y0095977D01*
X0106635Y0096614D01*
X0107763Y0097105D02*
X0109036Y0098378D01*
X0108399Y0097741D02*
X0106490Y0099651D01*
X0106490Y0098378D01*
X0105362Y0097887D02*
X0104726Y0097887D01*
X0104089Y0097250D01*
X0104089Y0096614D01*
X0105362Y0095341D01*
X0105999Y0095341D01*
X0109845Y0099187D02*
X0109845Y0101734D01*
X0109527Y0102052D01*
X0108891Y0102052D01*
X0108254Y0101415D01*
X0108254Y0100779D01*
X0109845Y0099187D02*
X0111119Y0100460D01*
X0128571Y0080540D02*
X0128574Y0080811D01*
X0128584Y0081081D01*
X0128601Y0081351D01*
X0128624Y0081621D01*
X0128654Y0081889D01*
X0128690Y0082158D01*
X0128733Y0082425D01*
X0128783Y0082691D01*
X0128839Y0082955D01*
X0128901Y0083219D01*
X0128970Y0083480D01*
X0129046Y0083740D01*
X0129127Y0083998D01*
X0129215Y0084254D01*
X0129310Y0084507D01*
X0129410Y0084759D01*
X0129517Y0085007D01*
X0129629Y0085253D01*
X0129748Y0085497D01*
X0129873Y0085737D01*
X0130003Y0085974D01*
X0130139Y0086207D01*
X0130281Y0086438D01*
X0130429Y0086665D01*
X0130582Y0086888D01*
X0130740Y0087107D01*
X0130904Y0087322D01*
X0131073Y0087534D01*
X0131248Y0087741D01*
X0131427Y0087943D01*
X0131611Y0088141D01*
X0131800Y0088335D01*
X0131994Y0088524D01*
X0132192Y0088708D01*
X0132394Y0088887D01*
X0132601Y0089062D01*
X0132813Y0089231D01*
X0133028Y0089395D01*
X0133247Y0089553D01*
X0133470Y0089706D01*
X0133697Y0089854D01*
X0133928Y0089996D01*
X0134161Y0090132D01*
X0134398Y0090262D01*
X0134638Y0090387D01*
X0134882Y0090506D01*
X0135128Y0090618D01*
X0135376Y0090725D01*
X0135628Y0090825D01*
X0135881Y0090920D01*
X0136137Y0091008D01*
X0136395Y0091089D01*
X0136655Y0091165D01*
X0136916Y0091234D01*
X0137180Y0091296D01*
X0137444Y0091352D01*
X0137710Y0091402D01*
X0137977Y0091445D01*
X0138246Y0091481D01*
X0138514Y0091511D01*
X0138784Y0091534D01*
X0139054Y0091551D01*
X0139324Y0091561D01*
X0139595Y0091564D01*
X0139866Y0091561D01*
X0140136Y0091551D01*
X0140406Y0091534D01*
X0140676Y0091511D01*
X0140944Y0091481D01*
X0141213Y0091445D01*
X0141480Y0091402D01*
X0141746Y0091352D01*
X0142010Y0091296D01*
X0142274Y0091234D01*
X0142535Y0091165D01*
X0142795Y0091089D01*
X0143053Y0091008D01*
X0143309Y0090920D01*
X0143562Y0090825D01*
X0143814Y0090725D01*
X0144062Y0090618D01*
X0144308Y0090506D01*
X0144552Y0090387D01*
X0144792Y0090262D01*
X0145029Y0090132D01*
X0145262Y0089996D01*
X0145493Y0089854D01*
X0145720Y0089706D01*
X0145943Y0089553D01*
X0146162Y0089395D01*
X0146377Y0089231D01*
X0146589Y0089062D01*
X0146796Y0088887D01*
X0146998Y0088708D01*
X0147196Y0088524D01*
X0147390Y0088335D01*
X0147579Y0088141D01*
X0147763Y0087943D01*
X0147942Y0087741D01*
X0148117Y0087534D01*
X0148286Y0087322D01*
X0148450Y0087107D01*
X0148608Y0086888D01*
X0148761Y0086665D01*
X0148909Y0086438D01*
X0149051Y0086207D01*
X0149187Y0085974D01*
X0149317Y0085737D01*
X0149442Y0085497D01*
X0149561Y0085253D01*
X0149673Y0085007D01*
X0149780Y0084759D01*
X0149880Y0084507D01*
X0149975Y0084254D01*
X0150063Y0083998D01*
X0150144Y0083740D01*
X0150220Y0083480D01*
X0150289Y0083219D01*
X0150351Y0082955D01*
X0150407Y0082691D01*
X0150457Y0082425D01*
X0150500Y0082158D01*
X0150536Y0081889D01*
X0150566Y0081621D01*
X0150589Y0081351D01*
X0150606Y0081081D01*
X0150616Y0080811D01*
X0150619Y0080540D01*
X0150616Y0080269D01*
X0150606Y0079999D01*
X0150589Y0079729D01*
X0150566Y0079459D01*
X0150536Y0079191D01*
X0150500Y0078922D01*
X0150457Y0078655D01*
X0150407Y0078389D01*
X0150351Y0078125D01*
X0150289Y0077861D01*
X0150220Y0077600D01*
X0150144Y0077340D01*
X0150063Y0077082D01*
X0149975Y0076826D01*
X0149880Y0076573D01*
X0149780Y0076321D01*
X0149673Y0076073D01*
X0149561Y0075827D01*
X0149442Y0075583D01*
X0149317Y0075343D01*
X0149187Y0075106D01*
X0149051Y0074873D01*
X0148909Y0074642D01*
X0148761Y0074415D01*
X0148608Y0074192D01*
X0148450Y0073973D01*
X0148286Y0073758D01*
X0148117Y0073546D01*
X0147942Y0073339D01*
X0147763Y0073137D01*
X0147579Y0072939D01*
X0147390Y0072745D01*
X0147196Y0072556D01*
X0146998Y0072372D01*
X0146796Y0072193D01*
X0146589Y0072018D01*
X0146377Y0071849D01*
X0146162Y0071685D01*
X0145943Y0071527D01*
X0145720Y0071374D01*
X0145493Y0071226D01*
X0145262Y0071084D01*
X0145029Y0070948D01*
X0144792Y0070818D01*
X0144552Y0070693D01*
X0144308Y0070574D01*
X0144062Y0070462D01*
X0143814Y0070355D01*
X0143562Y0070255D01*
X0143309Y0070160D01*
X0143053Y0070072D01*
X0142795Y0069991D01*
X0142535Y0069915D01*
X0142274Y0069846D01*
X0142010Y0069784D01*
X0141746Y0069728D01*
X0141480Y0069678D01*
X0141213Y0069635D01*
X0140944Y0069599D01*
X0140676Y0069569D01*
X0140406Y0069546D01*
X0140136Y0069529D01*
X0139866Y0069519D01*
X0139595Y0069516D01*
X0139324Y0069519D01*
X0139054Y0069529D01*
X0138784Y0069546D01*
X0138514Y0069569D01*
X0138246Y0069599D01*
X0137977Y0069635D01*
X0137710Y0069678D01*
X0137444Y0069728D01*
X0137180Y0069784D01*
X0136916Y0069846D01*
X0136655Y0069915D01*
X0136395Y0069991D01*
X0136137Y0070072D01*
X0135881Y0070160D01*
X0135628Y0070255D01*
X0135376Y0070355D01*
X0135128Y0070462D01*
X0134882Y0070574D01*
X0134638Y0070693D01*
X0134398Y0070818D01*
X0134161Y0070948D01*
X0133928Y0071084D01*
X0133697Y0071226D01*
X0133470Y0071374D01*
X0133247Y0071527D01*
X0133028Y0071685D01*
X0132813Y0071849D01*
X0132601Y0072018D01*
X0132394Y0072193D01*
X0132192Y0072372D01*
X0131994Y0072556D01*
X0131800Y0072745D01*
X0131611Y0072939D01*
X0131427Y0073137D01*
X0131248Y0073339D01*
X0131073Y0073546D01*
X0130904Y0073758D01*
X0130740Y0073973D01*
X0130582Y0074192D01*
X0130429Y0074415D01*
X0130281Y0074642D01*
X0130139Y0074873D01*
X0130003Y0075106D01*
X0129873Y0075343D01*
X0129748Y0075583D01*
X0129629Y0075827D01*
X0129517Y0076073D01*
X0129410Y0076321D01*
X0129310Y0076573D01*
X0129215Y0076826D01*
X0129127Y0077082D01*
X0129046Y0077340D01*
X0128970Y0077600D01*
X0128901Y0077861D01*
X0128839Y0078125D01*
X0128783Y0078389D01*
X0128733Y0078655D01*
X0128690Y0078922D01*
X0128654Y0079191D01*
X0128624Y0079459D01*
X0128601Y0079729D01*
X0128584Y0079999D01*
X0128574Y0080269D01*
X0128571Y0080540D01*
X0135658Y0080540D02*
X0135660Y0080665D01*
X0135666Y0080790D01*
X0135676Y0080914D01*
X0135690Y0081038D01*
X0135707Y0081162D01*
X0135729Y0081285D01*
X0135755Y0081407D01*
X0135784Y0081529D01*
X0135817Y0081649D01*
X0135855Y0081768D01*
X0135895Y0081887D01*
X0135940Y0082003D01*
X0135988Y0082118D01*
X0136040Y0082232D01*
X0136096Y0082344D01*
X0136155Y0082454D01*
X0136217Y0082562D01*
X0136283Y0082669D01*
X0136352Y0082773D01*
X0136425Y0082874D01*
X0136500Y0082974D01*
X0136579Y0083071D01*
X0136661Y0083165D01*
X0136746Y0083257D01*
X0136833Y0083346D01*
X0136924Y0083432D01*
X0137017Y0083515D01*
X0137113Y0083596D01*
X0137211Y0083673D01*
X0137311Y0083747D01*
X0137414Y0083818D01*
X0137519Y0083885D01*
X0137627Y0083950D01*
X0137736Y0084010D01*
X0137847Y0084068D01*
X0137960Y0084121D01*
X0138074Y0084171D01*
X0138190Y0084218D01*
X0138307Y0084260D01*
X0138426Y0084299D01*
X0138546Y0084335D01*
X0138667Y0084366D01*
X0138789Y0084394D01*
X0138911Y0084417D01*
X0139035Y0084437D01*
X0139159Y0084453D01*
X0139283Y0084465D01*
X0139408Y0084473D01*
X0139533Y0084477D01*
X0139657Y0084477D01*
X0139782Y0084473D01*
X0139907Y0084465D01*
X0140031Y0084453D01*
X0140155Y0084437D01*
X0140279Y0084417D01*
X0140401Y0084394D01*
X0140523Y0084366D01*
X0140644Y0084335D01*
X0140764Y0084299D01*
X0140883Y0084260D01*
X0141000Y0084218D01*
X0141116Y0084171D01*
X0141230Y0084121D01*
X0141343Y0084068D01*
X0141454Y0084010D01*
X0141564Y0083950D01*
X0141671Y0083885D01*
X0141776Y0083818D01*
X0141879Y0083747D01*
X0141979Y0083673D01*
X0142077Y0083596D01*
X0142173Y0083515D01*
X0142266Y0083432D01*
X0142357Y0083346D01*
X0142444Y0083257D01*
X0142529Y0083165D01*
X0142611Y0083071D01*
X0142690Y0082974D01*
X0142765Y0082874D01*
X0142838Y0082773D01*
X0142907Y0082669D01*
X0142973Y0082562D01*
X0143035Y0082454D01*
X0143094Y0082344D01*
X0143150Y0082232D01*
X0143202Y0082118D01*
X0143250Y0082003D01*
X0143295Y0081887D01*
X0143335Y0081768D01*
X0143373Y0081649D01*
X0143406Y0081529D01*
X0143435Y0081407D01*
X0143461Y0081285D01*
X0143483Y0081162D01*
X0143500Y0081038D01*
X0143514Y0080914D01*
X0143524Y0080790D01*
X0143530Y0080665D01*
X0143532Y0080540D01*
X0143530Y0080415D01*
X0143524Y0080290D01*
X0143514Y0080166D01*
X0143500Y0080042D01*
X0143483Y0079918D01*
X0143461Y0079795D01*
X0143435Y0079673D01*
X0143406Y0079551D01*
X0143373Y0079431D01*
X0143335Y0079312D01*
X0143295Y0079193D01*
X0143250Y0079077D01*
X0143202Y0078962D01*
X0143150Y0078848D01*
X0143094Y0078736D01*
X0143035Y0078626D01*
X0142973Y0078518D01*
X0142907Y0078411D01*
X0142838Y0078307D01*
X0142765Y0078206D01*
X0142690Y0078106D01*
X0142611Y0078009D01*
X0142529Y0077915D01*
X0142444Y0077823D01*
X0142357Y0077734D01*
X0142266Y0077648D01*
X0142173Y0077565D01*
X0142077Y0077484D01*
X0141979Y0077407D01*
X0141879Y0077333D01*
X0141776Y0077262D01*
X0141671Y0077195D01*
X0141563Y0077130D01*
X0141454Y0077070D01*
X0141343Y0077012D01*
X0141230Y0076959D01*
X0141116Y0076909D01*
X0141000Y0076862D01*
X0140883Y0076820D01*
X0140764Y0076781D01*
X0140644Y0076745D01*
X0140523Y0076714D01*
X0140401Y0076686D01*
X0140279Y0076663D01*
X0140155Y0076643D01*
X0140031Y0076627D01*
X0139907Y0076615D01*
X0139782Y0076607D01*
X0139657Y0076603D01*
X0139533Y0076603D01*
X0139408Y0076607D01*
X0139283Y0076615D01*
X0139159Y0076627D01*
X0139035Y0076643D01*
X0138911Y0076663D01*
X0138789Y0076686D01*
X0138667Y0076714D01*
X0138546Y0076745D01*
X0138426Y0076781D01*
X0138307Y0076820D01*
X0138190Y0076862D01*
X0138074Y0076909D01*
X0137960Y0076959D01*
X0137847Y0077012D01*
X0137736Y0077070D01*
X0137626Y0077130D01*
X0137519Y0077195D01*
X0137414Y0077262D01*
X0137311Y0077333D01*
X0137211Y0077407D01*
X0137113Y0077484D01*
X0137017Y0077565D01*
X0136924Y0077648D01*
X0136833Y0077734D01*
X0136746Y0077823D01*
X0136661Y0077915D01*
X0136579Y0078009D01*
X0136500Y0078106D01*
X0136425Y0078206D01*
X0136352Y0078307D01*
X0136283Y0078411D01*
X0136217Y0078518D01*
X0136155Y0078626D01*
X0136096Y0078736D01*
X0136040Y0078848D01*
X0135988Y0078962D01*
X0135940Y0079077D01*
X0135895Y0079193D01*
X0135855Y0079312D01*
X0135817Y0079431D01*
X0135784Y0079551D01*
X0135755Y0079673D01*
X0135729Y0079795D01*
X0135707Y0079918D01*
X0135690Y0080042D01*
X0135676Y0080166D01*
X0135666Y0080290D01*
X0135660Y0080415D01*
X0135658Y0080540D01*
X0136302Y0189452D02*
X0136302Y0192154D01*
X0137653Y0192154D01*
X0138104Y0191703D01*
X0138104Y0190803D01*
X0137653Y0190352D01*
X0136302Y0190352D01*
X0137203Y0190352D02*
X0138104Y0189452D01*
X0139248Y0189902D02*
X0139699Y0189452D01*
X0140600Y0189452D01*
X0141050Y0189902D01*
X0141050Y0190352D01*
X0140600Y0190803D01*
X0140149Y0190803D01*
X0140600Y0190803D02*
X0141050Y0191253D01*
X0141050Y0191703D01*
X0140600Y0192154D01*
X0139699Y0192154D01*
X0139248Y0191703D01*
X0136839Y0193139D02*
X0142351Y0193139D01*
X0142351Y0204162D01*
X0136839Y0204162D01*
X0136839Y0193139D01*
X0134477Y0193139D02*
X0134477Y0204162D01*
X0128965Y0204162D01*
X0128965Y0193139D01*
X0134477Y0193139D01*
X0127480Y0191653D02*
X0125678Y0189852D01*
X0126129Y0189401D01*
X0127029Y0189401D01*
X0127480Y0189852D01*
X0127480Y0191653D01*
X0127029Y0192103D01*
X0126129Y0192103D01*
X0125678Y0191653D01*
X0125678Y0189852D01*
X0124533Y0189852D02*
X0124083Y0189401D01*
X0123182Y0189401D01*
X0122732Y0189852D01*
X0121587Y0189401D02*
X0120686Y0190302D01*
X0121136Y0190302D02*
X0119785Y0190302D01*
X0119785Y0189401D02*
X0119785Y0192103D01*
X0121136Y0192103D01*
X0121587Y0191653D01*
X0121587Y0190752D01*
X0121136Y0190302D01*
X0122732Y0191653D02*
X0123182Y0192103D01*
X0124083Y0192103D01*
X0124533Y0191653D01*
X0124533Y0191203D01*
X0124083Y0190752D01*
X0124533Y0190302D01*
X0124533Y0189852D01*
X0124083Y0190752D02*
X0123633Y0190752D01*
X0121091Y0193139D02*
X0126603Y0193139D01*
X0126603Y0204162D01*
X0121091Y0204162D01*
X0121091Y0193139D01*
X0118729Y0193139D02*
X0118729Y0204162D01*
X0113217Y0204162D01*
X0113217Y0193139D01*
X0118729Y0193139D01*
X0111393Y0193389D02*
X0108690Y0193389D01*
X0108690Y0194740D01*
X0109141Y0195190D01*
X0110041Y0195190D01*
X0110492Y0194740D01*
X0110492Y0193389D01*
X0110492Y0194289D02*
X0111393Y0195190D01*
X0111393Y0196335D02*
X0109591Y0198137D01*
X0109141Y0198137D01*
X0108690Y0197686D01*
X0108690Y0196785D01*
X0109141Y0196335D01*
X0111393Y0196335D02*
X0111393Y0198137D01*
X0111393Y0199282D02*
X0110942Y0199282D01*
X0109141Y0201083D01*
X0108690Y0201083D01*
X0108690Y0199282D01*
X0108721Y0204940D02*
X0109621Y0204940D01*
X0110072Y0205390D01*
X0110072Y0205840D01*
X0109621Y0206290D01*
X0108271Y0206290D01*
X0108271Y0205390D01*
X0108721Y0204940D01*
X0108271Y0206290D02*
X0109171Y0207190D01*
X0110072Y0207640D01*
X0107126Y0204940D02*
X0105326Y0204940D01*
X0106226Y0204940D02*
X0106226Y0207640D01*
X0105326Y0206740D01*
X0104181Y0207190D02*
X0103731Y0207640D01*
X0102831Y0207640D01*
X0102381Y0207190D01*
X0102381Y0206740D01*
X0102831Y0206290D01*
X0103731Y0206290D01*
X0104181Y0205840D01*
X0104181Y0205390D01*
X0103731Y0204940D01*
X0102831Y0204940D01*
X0102381Y0205390D01*
X0101236Y0205390D02*
X0100786Y0204940D01*
X0099886Y0204940D01*
X0099436Y0205390D01*
X0099436Y0207640D01*
X0101236Y0207640D02*
X0101236Y0205390D01*
X0103281Y0204490D02*
X0103281Y0208091D01*
X0102981Y0224635D02*
X0097469Y0224635D01*
X0097469Y0235658D01*
X0102981Y0235658D01*
X0102981Y0224635D01*
X0105343Y0224635D02*
X0110855Y0224635D01*
X0110855Y0235658D01*
X0105343Y0235658D01*
X0105343Y0224635D01*
X0106733Y0236696D02*
X0107633Y0236696D01*
X0108084Y0237146D01*
X0109229Y0237146D02*
X0109229Y0238047D01*
X0110580Y0238047D01*
X0111030Y0237596D01*
X0111030Y0237146D01*
X0110580Y0236696D01*
X0109679Y0236696D01*
X0109229Y0237146D01*
X0109229Y0238047D02*
X0110130Y0238948D01*
X0111030Y0239398D01*
X0108084Y0238948D02*
X0107633Y0239398D01*
X0106733Y0239398D01*
X0106282Y0238948D01*
X0106282Y0237146D01*
X0106733Y0236696D01*
X0103858Y0237096D02*
X0103858Y0238897D01*
X0103407Y0239348D01*
X0102507Y0239348D01*
X0102056Y0238897D01*
X0102056Y0238447D01*
X0102507Y0237996D01*
X0103858Y0237996D01*
X0103858Y0237096D02*
X0103407Y0236645D01*
X0102507Y0236645D01*
X0102056Y0237096D01*
X0100911Y0236645D02*
X0099110Y0236645D01*
X0100911Y0238447D01*
X0100911Y0238897D01*
X0100461Y0239348D01*
X0099560Y0239348D01*
X0099110Y0238897D01*
X0097965Y0238897D02*
X0097965Y0237996D01*
X0097514Y0237546D01*
X0096163Y0237546D01*
X0096163Y0236645D02*
X0096163Y0239348D01*
X0097514Y0239348D01*
X0097965Y0238897D01*
X0097064Y0237546D02*
X0097965Y0236645D01*
X0091345Y0237146D02*
X0090895Y0236696D01*
X0089994Y0236696D01*
X0089544Y0237146D01*
X0089544Y0238047D02*
X0090445Y0238497D01*
X0090895Y0238497D01*
X0091345Y0238047D01*
X0091345Y0237146D01*
X0091170Y0235658D02*
X0091170Y0224635D01*
X0085658Y0224635D01*
X0085658Y0235658D01*
X0091170Y0235658D01*
X0089544Y0238047D02*
X0089544Y0239398D01*
X0091345Y0239398D01*
X0088399Y0238948D02*
X0087948Y0239398D01*
X0087048Y0239398D01*
X0086597Y0238948D01*
X0086597Y0237146D01*
X0087048Y0236696D01*
X0087948Y0236696D01*
X0088399Y0237146D01*
X0084449Y0237146D02*
X0083999Y0236696D01*
X0083098Y0236696D01*
X0082648Y0237146D01*
X0082648Y0237596D01*
X0083098Y0238047D01*
X0083999Y0238047D01*
X0084449Y0237596D01*
X0084449Y0237146D01*
X0083999Y0238047D02*
X0084449Y0238497D01*
X0084449Y0238948D01*
X0083999Y0239398D01*
X0083098Y0239398D01*
X0082648Y0238948D01*
X0082648Y0238497D01*
X0083098Y0238047D01*
X0081503Y0238497D02*
X0081503Y0238948D01*
X0081052Y0239398D01*
X0080152Y0239398D01*
X0079701Y0238948D01*
X0078556Y0238948D02*
X0078556Y0238047D01*
X0078106Y0237596D01*
X0076755Y0237596D01*
X0076755Y0236696D02*
X0076755Y0239398D01*
X0078106Y0239398D01*
X0078556Y0238948D01*
X0077655Y0237596D02*
X0078556Y0236696D01*
X0079701Y0236696D02*
X0081503Y0238497D01*
X0081503Y0236696D02*
X0079701Y0236696D01*
X0077784Y0235658D02*
X0077784Y0224635D01*
X0083296Y0224635D01*
X0083296Y0235658D01*
X0077784Y0235658D01*
X0071485Y0235658D02*
X0071485Y0224635D01*
X0065973Y0224635D01*
X0065973Y0235658D01*
X0071485Y0235658D01*
X0070718Y0236696D02*
X0070718Y0239398D01*
X0069367Y0238047D01*
X0071168Y0238047D01*
X0068222Y0238948D02*
X0067771Y0239398D01*
X0066870Y0239398D01*
X0066420Y0238948D01*
X0066420Y0237146D01*
X0066870Y0236696D01*
X0067771Y0236696D01*
X0068222Y0237146D01*
X0063611Y0235658D02*
X0058099Y0235658D01*
X0058099Y0224635D01*
X0063611Y0224635D01*
X0063611Y0235658D01*
X0062036Y0244320D02*
X0062036Y0255343D01*
X0067548Y0255343D01*
X0067548Y0244320D01*
X0062036Y0244320D01*
X0060211Y0245020D02*
X0060211Y0245921D01*
X0059761Y0246371D01*
X0060211Y0247516D02*
X0058410Y0249318D01*
X0057959Y0249318D01*
X0057509Y0248867D01*
X0057509Y0247967D01*
X0057959Y0247516D01*
X0057959Y0246371D02*
X0057509Y0245921D01*
X0057509Y0245020D01*
X0057959Y0244570D01*
X0059761Y0244570D01*
X0060211Y0245020D01*
X0060211Y0247516D02*
X0060211Y0249318D01*
X0059761Y0250463D02*
X0057959Y0252264D01*
X0059761Y0252264D01*
X0060211Y0251814D01*
X0060211Y0250913D01*
X0059761Y0250463D01*
X0057959Y0250463D01*
X0057509Y0250913D01*
X0057509Y0251814D01*
X0057959Y0252264D01*
X0055737Y0255343D02*
X0050225Y0255343D01*
X0050225Y0244320D01*
X0055737Y0244320D01*
X0055737Y0255343D01*
X0048400Y0251814D02*
X0048400Y0250913D01*
X0047950Y0250463D01*
X0047049Y0250913D02*
X0047049Y0252264D01*
X0046148Y0252264D02*
X0045698Y0251814D01*
X0045698Y0250913D01*
X0046148Y0250463D01*
X0046599Y0250463D01*
X0047049Y0250913D01*
X0047950Y0252264D02*
X0046148Y0252264D01*
X0047950Y0252264D02*
X0048400Y0251814D01*
X0048400Y0249318D02*
X0048400Y0247516D01*
X0048400Y0248417D02*
X0045698Y0248417D01*
X0046599Y0247516D01*
X0046148Y0246371D02*
X0045698Y0245921D01*
X0045698Y0245020D01*
X0046148Y0244570D01*
X0047950Y0244570D01*
X0048400Y0245020D01*
X0048400Y0245921D01*
X0047950Y0246371D01*
X0044514Y0246754D02*
X0041811Y0246754D01*
X0041811Y0248105D01*
X0042262Y0248555D01*
X0043163Y0248555D01*
X0043613Y0248105D01*
X0043613Y0246754D01*
X0043613Y0247655D02*
X0044514Y0248555D01*
X0044514Y0249700D02*
X0042712Y0251502D01*
X0042262Y0251502D01*
X0041811Y0251051D01*
X0041811Y0250151D01*
X0042262Y0249700D01*
X0042262Y0252647D02*
X0041811Y0253097D01*
X0041811Y0253998D01*
X0042262Y0254448D01*
X0044063Y0252647D01*
X0044514Y0253097D01*
X0044514Y0253998D01*
X0044063Y0254448D01*
X0042262Y0254448D01*
X0042262Y0252647D02*
X0044063Y0252647D01*
X0044514Y0251502D02*
X0044514Y0249700D01*
X0039989Y0244320D02*
X0039989Y0255343D01*
X0034477Y0255343D01*
X0034477Y0244320D01*
X0039989Y0244320D01*
X0039989Y0239595D02*
X0039989Y0228572D01*
X0034477Y0228572D01*
X0034477Y0239595D01*
X0039989Y0239595D01*
X0041811Y0238250D02*
X0041811Y0237349D01*
X0042262Y0236899D01*
X0042262Y0235754D02*
X0043163Y0235754D01*
X0043613Y0235303D01*
X0043613Y0233952D01*
X0044514Y0233952D02*
X0041811Y0233952D01*
X0041811Y0235303D01*
X0042262Y0235754D01*
X0043613Y0234853D02*
X0044514Y0235754D01*
X0044063Y0236899D02*
X0044514Y0237349D01*
X0044514Y0238250D01*
X0044063Y0238700D01*
X0043613Y0238700D01*
X0043163Y0238250D01*
X0043163Y0237800D01*
X0043163Y0238250D02*
X0042712Y0238700D01*
X0042262Y0238700D01*
X0041811Y0238250D01*
X0036849Y0227725D02*
X0035949Y0226824D01*
X0034804Y0227274D02*
X0034353Y0227725D01*
X0033002Y0227725D01*
X0033002Y0225022D01*
X0034353Y0225022D01*
X0034804Y0225473D01*
X0034804Y0227274D01*
X0036849Y0227725D02*
X0036849Y0225022D01*
X0035949Y0225022D02*
X0037750Y0225022D01*
X0037259Y0223650D02*
X0035908Y0223650D01*
X0035908Y0220948D01*
X0035908Y0221848D02*
X0037259Y0221848D01*
X0037710Y0222299D01*
X0037710Y0223200D01*
X0037259Y0223650D01*
X0038855Y0223200D02*
X0039305Y0223650D01*
X0040206Y0223650D01*
X0040656Y0223200D01*
X0040656Y0222749D01*
X0040206Y0222299D01*
X0040656Y0221848D01*
X0040656Y0221398D01*
X0040206Y0220948D01*
X0039305Y0220948D01*
X0038855Y0221398D01*
X0037710Y0220948D02*
X0036809Y0221848D01*
X0039756Y0222299D02*
X0040206Y0222299D01*
X0041801Y0223200D02*
X0042252Y0223650D01*
X0043152Y0223650D01*
X0043603Y0223200D01*
X0043603Y0222749D01*
X0041801Y0220948D01*
X0043603Y0220948D01*
X0046288Y0219910D02*
X0046288Y0208887D01*
X0051800Y0208887D01*
X0051800Y0219910D01*
X0046288Y0219910D01*
X0039989Y0219910D02*
X0039989Y0208887D01*
X0034477Y0208887D01*
X0034477Y0219910D01*
X0039989Y0219910D01*
X0033976Y0220897D02*
X0032174Y0220897D01*
X0033075Y0220897D02*
X0033075Y0223600D01*
X0032174Y0222699D01*
X0031029Y0222699D02*
X0030579Y0222248D01*
X0031029Y0221798D01*
X0031029Y0221348D01*
X0030579Y0220897D01*
X0029678Y0220897D01*
X0029228Y0221348D01*
X0028083Y0220897D02*
X0027182Y0221798D01*
X0027632Y0221798D02*
X0026281Y0221798D01*
X0026281Y0220897D02*
X0026281Y0223600D01*
X0027632Y0223600D01*
X0028083Y0223149D01*
X0028083Y0222248D01*
X0027632Y0221798D01*
X0029228Y0223149D02*
X0029678Y0223600D01*
X0030579Y0223600D01*
X0031029Y0223149D01*
X0031029Y0222699D01*
X0030579Y0222248D02*
X0030129Y0222248D01*
X0030056Y0225022D02*
X0031857Y0225022D01*
X0030956Y0226374D02*
X0030056Y0226374D01*
X0030056Y0227725D02*
X0030056Y0225022D01*
X0028911Y0225022D02*
X0027109Y0225022D01*
X0027109Y0227725D01*
X0025939Y0227274D02*
X0025489Y0227725D01*
X0024588Y0227725D01*
X0024138Y0227274D01*
X0022993Y0227274D02*
X0022993Y0225473D01*
X0022542Y0225022D01*
X0021191Y0225022D01*
X0021191Y0227725D01*
X0022542Y0227725D01*
X0022993Y0227274D01*
X0024138Y0225022D02*
X0025939Y0226824D01*
X0025939Y0227274D01*
X0025939Y0225022D02*
X0024138Y0225022D01*
X0023641Y0223600D02*
X0022740Y0223149D01*
X0021840Y0222248D01*
X0023191Y0222248D01*
X0023641Y0221798D01*
X0023641Y0221348D01*
X0023191Y0220897D01*
X0022290Y0220897D01*
X0021840Y0221348D01*
X0021840Y0222248D01*
X0020695Y0222248D02*
X0020244Y0221798D01*
X0018893Y0221798D01*
X0018893Y0220897D02*
X0018893Y0223600D01*
X0020244Y0223600D01*
X0020695Y0223149D01*
X0020695Y0222248D01*
X0019794Y0221798D02*
X0020695Y0220897D01*
X0018729Y0219910D02*
X0018729Y0208887D01*
X0024241Y0208887D01*
X0024241Y0219910D01*
X0018729Y0219910D01*
X0016367Y0219910D02*
X0010855Y0219910D01*
X0010855Y0208887D01*
X0016367Y0208887D01*
X0016367Y0219910D01*
X0015317Y0220897D02*
X0014416Y0220897D01*
X0013966Y0221348D01*
X0013966Y0222248D02*
X0014866Y0222699D01*
X0015317Y0222699D01*
X0015767Y0222248D01*
X0015767Y0221348D01*
X0015317Y0220897D01*
X0013966Y0222248D02*
X0013966Y0223600D01*
X0015767Y0223600D01*
X0015298Y0225022D02*
X0017100Y0225022D01*
X0018245Y0225022D02*
X0018245Y0227725D01*
X0020046Y0227725D01*
X0019145Y0226374D02*
X0018245Y0226374D01*
X0018245Y0225022D02*
X0020046Y0225022D01*
X0015298Y0225022D02*
X0015298Y0227725D01*
X0016367Y0228572D02*
X0016367Y0239595D01*
X0010855Y0239595D01*
X0010855Y0228572D01*
X0016367Y0228572D01*
X0012370Y0223600D02*
X0012821Y0223149D01*
X0012821Y0222248D01*
X0012370Y0221798D01*
X0011019Y0221798D01*
X0011019Y0220897D02*
X0011019Y0223600D01*
X0012370Y0223600D01*
X0011920Y0221798D02*
X0012821Y0220897D01*
X0009081Y0230015D02*
X0006378Y0230015D01*
X0006378Y0231366D01*
X0006829Y0231817D01*
X0007730Y0231817D01*
X0008180Y0231366D01*
X0008180Y0230015D01*
X0008180Y0230916D02*
X0009081Y0231817D01*
X0009081Y0232962D02*
X0007279Y0234763D01*
X0006829Y0234763D01*
X0006378Y0234313D01*
X0006378Y0233412D01*
X0006829Y0232962D01*
X0009081Y0232962D02*
X0009081Y0234763D01*
X0010855Y0244320D02*
X0016367Y0244320D01*
X0016367Y0255343D01*
X0010855Y0255343D01*
X0010855Y0244320D01*
X0009081Y0246754D02*
X0006378Y0246754D01*
X0006378Y0248105D01*
X0006829Y0248555D01*
X0007730Y0248555D01*
X0008180Y0248105D01*
X0008180Y0246754D01*
X0008180Y0247655D02*
X0009081Y0248555D01*
X0009081Y0249700D02*
X0007279Y0251502D01*
X0006829Y0251502D01*
X0006378Y0251051D01*
X0006378Y0250151D01*
X0006829Y0249700D01*
X0009081Y0249700D02*
X0009081Y0251502D01*
X0009081Y0252647D02*
X0009081Y0254448D01*
X0009081Y0253548D02*
X0006378Y0253548D01*
X0007279Y0252647D01*
X0015298Y0256519D02*
X0017100Y0256519D01*
X0018245Y0256519D02*
X0018245Y0259221D01*
X0020046Y0259221D01*
X0021191Y0259221D02*
X0022542Y0259221D01*
X0022993Y0258770D01*
X0022993Y0256969D01*
X0022542Y0256519D01*
X0021191Y0256519D01*
X0021191Y0259221D01*
X0019145Y0257870D02*
X0018245Y0257870D01*
X0018245Y0256519D02*
X0020046Y0256519D01*
X0024138Y0257870D02*
X0025939Y0257870D01*
X0025489Y0256519D02*
X0025489Y0259221D01*
X0024138Y0257870D01*
X0027109Y0259221D02*
X0027109Y0256519D01*
X0028911Y0256519D01*
X0030056Y0256519D02*
X0030056Y0259221D01*
X0031857Y0259221D01*
X0033002Y0259221D02*
X0033002Y0256519D01*
X0034353Y0256519D01*
X0034804Y0256969D01*
X0034804Y0258770D01*
X0034353Y0259221D01*
X0033002Y0259221D01*
X0031857Y0256519D02*
X0030056Y0256519D01*
X0030056Y0257870D02*
X0030956Y0257870D01*
X0035949Y0258770D02*
X0036399Y0259221D01*
X0037300Y0259221D01*
X0037750Y0258770D01*
X0037750Y0258320D01*
X0037300Y0257870D01*
X0037750Y0257419D01*
X0037750Y0256969D01*
X0037300Y0256519D01*
X0036399Y0256519D01*
X0035949Y0256969D01*
X0036849Y0257870D02*
X0037300Y0257870D01*
X0054022Y0232579D02*
X0053572Y0232129D01*
X0053572Y0231228D01*
X0054022Y0230778D01*
X0054022Y0229633D02*
X0053572Y0229182D01*
X0053572Y0228282D01*
X0054022Y0227831D01*
X0054022Y0226686D02*
X0054923Y0226686D01*
X0055374Y0226236D01*
X0055374Y0224885D01*
X0055374Y0225785D02*
X0056274Y0226686D01*
X0056274Y0227831D02*
X0054473Y0229633D01*
X0054022Y0229633D01*
X0055824Y0230778D02*
X0056274Y0231228D01*
X0056274Y0232129D01*
X0055824Y0232579D01*
X0055374Y0232579D01*
X0054923Y0232129D01*
X0054923Y0231678D01*
X0054923Y0232129D02*
X0054473Y0232579D01*
X0054022Y0232579D01*
X0056274Y0229633D02*
X0056274Y0227831D01*
X0056274Y0224885D02*
X0053572Y0224885D01*
X0053572Y0226236D01*
X0054022Y0226686D01*
X0054073Y0217047D02*
X0053623Y0216596D01*
X0053623Y0215696D01*
X0054073Y0215245D01*
X0054073Y0214100D02*
X0053623Y0213650D01*
X0053623Y0212749D01*
X0054073Y0212299D01*
X0054073Y0211154D02*
X0054974Y0211154D01*
X0055424Y0210703D01*
X0055424Y0209352D01*
X0056325Y0209352D02*
X0053623Y0209352D01*
X0053623Y0210703D01*
X0054073Y0211154D01*
X0055424Y0210253D02*
X0056325Y0211154D01*
X0056325Y0212299D02*
X0054523Y0214100D01*
X0054073Y0214100D01*
X0056325Y0215245D02*
X0054523Y0217047D01*
X0054073Y0217047D01*
X0056325Y0217047D02*
X0056325Y0215245D01*
X0056325Y0214100D02*
X0056325Y0212299D01*
X0059707Y0207127D02*
X0059707Y0204876D01*
X0060157Y0204426D01*
X0061057Y0204426D01*
X0061507Y0204876D01*
X0061507Y0207127D01*
X0062652Y0206677D02*
X0063102Y0207127D01*
X0064002Y0207127D01*
X0064452Y0206677D01*
X0064002Y0205777D02*
X0064452Y0205327D01*
X0064452Y0204876D01*
X0064002Y0204426D01*
X0063102Y0204426D01*
X0062652Y0204876D01*
X0063102Y0205777D02*
X0062652Y0206227D01*
X0062652Y0206677D01*
X0063102Y0205777D02*
X0064002Y0205777D01*
X0065597Y0204876D02*
X0065597Y0204426D01*
X0065597Y0204876D02*
X0067398Y0206677D01*
X0067398Y0207127D01*
X0065597Y0207127D01*
X0063552Y0207577D02*
X0063552Y0203976D01*
X0056325Y0204377D02*
X0055874Y0203926D01*
X0054073Y0205728D01*
X0055874Y0205728D01*
X0056325Y0205277D01*
X0056325Y0204377D01*
X0055874Y0203926D02*
X0054073Y0203926D01*
X0053623Y0204377D01*
X0053623Y0205277D01*
X0054073Y0205728D01*
X0051800Y0208099D02*
X0051800Y0197076D01*
X0046288Y0197076D01*
X0046288Y0208099D01*
X0051800Y0208099D01*
X0053623Y0201881D02*
X0056325Y0201881D01*
X0056325Y0202781D02*
X0056325Y0200980D01*
X0056325Y0199835D02*
X0055424Y0198934D01*
X0055424Y0199384D02*
X0055424Y0198033D01*
X0056325Y0198033D02*
X0053623Y0198033D01*
X0053623Y0199384D01*
X0054073Y0199835D01*
X0054974Y0199835D01*
X0055424Y0199384D01*
X0054523Y0200980D02*
X0053623Y0201881D01*
X0051800Y0196288D02*
X0051800Y0185265D01*
X0046288Y0185265D01*
X0046288Y0196288D01*
X0051800Y0196288D01*
X0054073Y0191456D02*
X0053623Y0191006D01*
X0053623Y0190105D01*
X0054073Y0189655D01*
X0054523Y0189655D01*
X0054974Y0190105D01*
X0054974Y0191456D01*
X0055874Y0191456D02*
X0054073Y0191456D01*
X0055874Y0191456D02*
X0056325Y0191006D01*
X0056325Y0190105D01*
X0055874Y0189655D01*
X0056325Y0188510D02*
X0055424Y0187609D01*
X0055424Y0188059D02*
X0055424Y0186708D01*
X0056325Y0186708D02*
X0053623Y0186708D01*
X0053623Y0188059D01*
X0054073Y0188510D01*
X0054974Y0188510D01*
X0055424Y0188059D01*
X0043530Y0193604D02*
X0040827Y0193604D01*
X0040827Y0194955D01*
X0041278Y0195406D01*
X0042178Y0195406D01*
X0042629Y0194955D01*
X0042629Y0193604D01*
X0042629Y0194505D02*
X0043530Y0195406D01*
X0043530Y0196551D02*
X0041728Y0198352D01*
X0041278Y0198352D01*
X0040827Y0197902D01*
X0040827Y0197001D01*
X0041278Y0196551D01*
X0043530Y0196551D02*
X0043530Y0198352D01*
X0042178Y0199497D02*
X0042178Y0201299D01*
X0040827Y0200848D02*
X0042178Y0199497D01*
X0040827Y0200848D02*
X0043530Y0200848D01*
X0039989Y0204162D02*
X0039989Y0193139D01*
X0034477Y0193139D01*
X0034477Y0204162D01*
X0039989Y0204162D01*
X0034510Y0192103D02*
X0033609Y0192103D01*
X0033159Y0191653D01*
X0034510Y0192103D02*
X0034960Y0191653D01*
X0034960Y0191203D01*
X0033159Y0189401D01*
X0034960Y0189401D01*
X0032014Y0189401D02*
X0030212Y0189401D01*
X0031113Y0189401D02*
X0031113Y0192103D01*
X0030212Y0191203D01*
X0029067Y0191653D02*
X0028617Y0192103D01*
X0027266Y0192103D01*
X0027266Y0189401D01*
X0027266Y0190302D02*
X0028617Y0190302D01*
X0029067Y0190752D01*
X0029067Y0191653D01*
X0028166Y0190302D02*
X0029067Y0189401D01*
X0026603Y0193139D02*
X0026603Y0204162D01*
X0032115Y0204162D01*
X0032115Y0193139D01*
X0026603Y0193139D01*
X0024986Y0192154D02*
X0024986Y0189452D01*
X0025886Y0189452D02*
X0024085Y0189452D01*
X0022940Y0189452D02*
X0021138Y0189452D01*
X0022039Y0189452D02*
X0022039Y0192154D01*
X0021138Y0191253D01*
X0019993Y0190803D02*
X0019543Y0190352D01*
X0018192Y0190352D01*
X0018192Y0189452D02*
X0018192Y0192154D01*
X0019543Y0192154D01*
X0019993Y0191703D01*
X0019993Y0190803D01*
X0019092Y0190352D02*
X0019993Y0189452D01*
X0018729Y0193139D02*
X0018729Y0204162D01*
X0024241Y0204162D01*
X0024241Y0193139D01*
X0018729Y0193139D01*
X0016542Y0191703D02*
X0016542Y0191253D01*
X0016092Y0190803D01*
X0015191Y0190803D01*
X0014741Y0191253D01*
X0014741Y0191703D01*
X0015191Y0192154D01*
X0016092Y0192154D01*
X0016542Y0191703D01*
X0016092Y0190803D02*
X0016542Y0190352D01*
X0016542Y0189902D01*
X0016092Y0189452D01*
X0015191Y0189452D01*
X0014741Y0189902D01*
X0014741Y0190352D01*
X0015191Y0190803D01*
X0013596Y0190803D02*
X0013596Y0191703D01*
X0013145Y0192154D01*
X0011794Y0192154D01*
X0011794Y0189452D01*
X0011794Y0190352D02*
X0013145Y0190352D01*
X0013596Y0190803D01*
X0012695Y0190352D02*
X0013596Y0189452D01*
X0010855Y0193139D02*
X0016367Y0193139D01*
X0016367Y0204162D01*
X0010855Y0204162D01*
X0010855Y0193139D01*
X0010855Y0184477D02*
X0010855Y0173454D01*
X0016367Y0173454D01*
X0016367Y0184477D01*
X0010855Y0184477D01*
X0008580Y0181398D02*
X0008130Y0181398D01*
X0007679Y0180948D01*
X0007679Y0179597D01*
X0008580Y0179597D01*
X0009030Y0180047D01*
X0009030Y0180948D01*
X0008580Y0181398D01*
X0007679Y0179597D02*
X0006778Y0180497D01*
X0006328Y0181398D01*
X0006778Y0178452D02*
X0006328Y0178001D01*
X0006328Y0177100D01*
X0006778Y0176650D01*
X0006778Y0175505D02*
X0007679Y0175505D01*
X0008130Y0175055D01*
X0008130Y0173704D01*
X0008130Y0174604D02*
X0009030Y0175505D01*
X0009030Y0176650D02*
X0007229Y0178452D01*
X0006778Y0178452D01*
X0009030Y0178452D02*
X0009030Y0176650D01*
X0006778Y0175505D02*
X0006328Y0175055D01*
X0006328Y0173704D01*
X0009030Y0173704D01*
X0023504Y0169611D02*
X0026207Y0169611D01*
X0026207Y0170511D02*
X0026207Y0168710D01*
X0025756Y0167114D02*
X0023504Y0167114D01*
X0023504Y0166664D02*
X0023504Y0167565D01*
X0024405Y0168710D02*
X0023504Y0169611D01*
X0025756Y0167114D02*
X0026207Y0166664D01*
X0026207Y0166214D01*
X0025756Y0165763D01*
X0024085Y0191253D02*
X0024986Y0192154D01*
X0026603Y0208887D02*
X0026603Y0219910D01*
X0032115Y0219910D01*
X0032115Y0208887D01*
X0026603Y0208887D01*
X0030056Y0227725D02*
X0031857Y0227725D01*
X0015298Y0256519D02*
X0015298Y0259221D01*
X0070490Y0195040D02*
X0071241Y0194289D01*
X0071991Y0194289D01*
X0072742Y0195040D01*
X0072742Y0198793D01*
X0071991Y0198793D02*
X0073493Y0198793D01*
X0075094Y0198793D02*
X0077346Y0198793D01*
X0078097Y0198043D01*
X0078097Y0196541D01*
X0077346Y0195791D01*
X0075094Y0195791D01*
X0075094Y0194289D02*
X0075094Y0198793D01*
X0078725Y0204940D02*
X0079625Y0204940D01*
X0080075Y0205390D01*
X0080075Y0207640D01*
X0081219Y0207190D02*
X0081670Y0207640D01*
X0082570Y0207640D01*
X0083020Y0207190D01*
X0082570Y0206290D02*
X0081670Y0206290D01*
X0081219Y0206740D01*
X0081219Y0207190D01*
X0082120Y0208091D02*
X0082120Y0204490D01*
X0081670Y0204940D02*
X0082570Y0204940D01*
X0083020Y0205390D01*
X0083020Y0205840D01*
X0082570Y0206290D01*
X0081670Y0204940D02*
X0081219Y0205390D01*
X0078725Y0204940D02*
X0078274Y0205390D01*
X0078274Y0207640D01*
X0081950Y0198793D02*
X0079698Y0196541D01*
X0082701Y0196541D01*
X0081950Y0194289D02*
X0081950Y0198793D01*
X0084165Y0204940D02*
X0085965Y0204940D01*
X0085065Y0204940D02*
X0085065Y0207640D01*
X0084165Y0206740D01*
X0087110Y0206290D02*
X0088010Y0206740D01*
X0088460Y0206740D01*
X0088910Y0206290D01*
X0088910Y0205390D01*
X0088460Y0204940D01*
X0087560Y0204940D01*
X0087110Y0205390D01*
X0087110Y0206290D02*
X0087110Y0207640D01*
X0088910Y0207640D01*
X0116340Y0236645D02*
X0116340Y0239348D01*
X0117692Y0239348D01*
X0118142Y0238897D01*
X0118142Y0237996D01*
X0117692Y0237546D01*
X0116340Y0237546D01*
X0117241Y0237546D02*
X0118142Y0236645D01*
X0119287Y0237096D02*
X0119737Y0236645D01*
X0120638Y0236645D01*
X0121088Y0237096D01*
X0121088Y0237546D01*
X0120638Y0237996D01*
X0120188Y0237996D01*
X0120638Y0237996D02*
X0121088Y0238447D01*
X0121088Y0238897D01*
X0120638Y0239348D01*
X0119737Y0239348D01*
X0119287Y0238897D01*
X0117154Y0235658D02*
X0117154Y0224635D01*
X0122666Y0224635D01*
X0122666Y0235658D01*
X0117154Y0235658D01*
X0122233Y0236645D02*
X0122233Y0237096D01*
X0124035Y0238897D01*
X0124035Y0239348D01*
X0122233Y0239348D01*
X0125028Y0235658D02*
X0125028Y0224635D01*
X0130540Y0224635D01*
X0130540Y0235658D01*
X0125028Y0235658D01*
X0126459Y0237146D02*
X0126459Y0238948D01*
X0126910Y0239398D01*
X0127811Y0239398D01*
X0128261Y0238948D01*
X0129406Y0239398D02*
X0131208Y0239398D01*
X0131208Y0238948D01*
X0129406Y0237146D01*
X0129406Y0236696D01*
X0128261Y0237146D02*
X0127811Y0236696D01*
X0126910Y0236696D01*
X0126459Y0237146D01*
X0124241Y0245894D02*
X0123060Y0247076D01*
X0132509Y0247076D01*
X0132509Y0252587D02*
X0123060Y0252587D01*
X0123847Y0253375D01*
X0126995Y0222896D02*
X0126995Y0220646D01*
X0127445Y0220196D01*
X0128345Y0220196D01*
X0128795Y0220646D01*
X0128795Y0222896D01*
X0129940Y0222446D02*
X0130390Y0222896D01*
X0131290Y0222896D01*
X0131740Y0222446D01*
X0131290Y0221546D02*
X0131740Y0221096D01*
X0131740Y0220646D01*
X0131290Y0220196D01*
X0130390Y0220196D01*
X0129940Y0220646D01*
X0130390Y0221546D02*
X0129940Y0221996D01*
X0129940Y0222446D01*
X0130390Y0221546D02*
X0131290Y0221546D01*
X0132885Y0221996D02*
X0133785Y0222896D01*
X0133785Y0220196D01*
X0132885Y0220196D02*
X0134685Y0220196D01*
X0135830Y0220196D02*
X0135830Y0220646D01*
X0137631Y0222446D01*
X0137631Y0222896D01*
X0135830Y0222896D01*
X0130840Y0223347D02*
X0130840Y0219746D01*
X0130564Y0207852D02*
X0131465Y0207852D01*
X0131915Y0207401D01*
X0131915Y0206951D01*
X0131465Y0206500D01*
X0131915Y0206050D01*
X0131915Y0205600D01*
X0131465Y0205149D01*
X0130564Y0205149D01*
X0130114Y0205600D01*
X0128969Y0205149D02*
X0128068Y0206050D01*
X0128518Y0206050D02*
X0127167Y0206050D01*
X0127167Y0205149D02*
X0127167Y0207852D01*
X0128518Y0207852D01*
X0128969Y0207401D01*
X0128969Y0206500D01*
X0128518Y0206050D01*
X0130114Y0207401D02*
X0130564Y0207852D01*
X0131014Y0206500D02*
X0131465Y0206500D01*
X0133060Y0205600D02*
X0133511Y0205149D01*
X0134411Y0205149D01*
X0134862Y0205600D01*
X0134862Y0206050D01*
X0134411Y0206500D01*
X0133961Y0206500D01*
X0134411Y0206500D02*
X0134862Y0206951D01*
X0134862Y0207401D01*
X0134411Y0207852D01*
X0133511Y0207852D01*
X0133060Y0207401D01*
X0143546Y0192154D02*
X0142195Y0190803D01*
X0143997Y0190803D01*
X0143546Y0189452D02*
X0143546Y0192154D01*
X0085124Y0262581D02*
X0085875Y0263332D01*
X0085875Y0264083D01*
X0085124Y0264833D01*
X0084373Y0264833D01*
X0085124Y0264833D02*
X0085875Y0265584D01*
X0085875Y0266335D01*
X0085124Y0267085D01*
X0083623Y0267085D01*
X0082872Y0266335D01*
X0081271Y0266335D02*
X0081271Y0264833D01*
X0080520Y0264083D01*
X0078268Y0264083D01*
X0078268Y0262581D02*
X0078268Y0267085D01*
X0080520Y0267085D01*
X0081271Y0266335D01*
X0082872Y0263332D02*
X0083623Y0262581D01*
X0085124Y0262581D01*
X0075916Y0263332D02*
X0075916Y0267085D01*
X0075165Y0267085D02*
X0076667Y0267085D01*
X0075916Y0263332D02*
X0075165Y0262581D01*
X0074415Y0262581D01*
X0073664Y0263332D01*
D14*
X0075914Y0259831D02*
X0073414Y0257331D01*
X0073414Y0242331D01*
X0075914Y0239831D01*
X0080914Y0239831D01*
X0083414Y0242331D01*
X0083414Y0257331D01*
X0085914Y0259831D01*
X0090914Y0259831D01*
X0093414Y0257331D01*
X0095914Y0259831D01*
X0100914Y0259831D01*
X0103414Y0257331D01*
X0103414Y0242331D01*
X0100914Y0239831D01*
X0095914Y0239831D01*
X0093414Y0242331D01*
X0093414Y0257331D01*
X0083414Y0257331D02*
X0080914Y0259831D01*
X0075914Y0259831D01*
X0083414Y0242331D02*
X0085914Y0239831D01*
X0090914Y0239831D01*
X0093414Y0242331D01*
X0088040Y0191839D02*
X0083040Y0191839D01*
X0080540Y0189339D01*
X0080540Y0184339D01*
X0083040Y0181839D01*
X0088040Y0181839D01*
X0090540Y0184339D01*
X0090540Y0189339D01*
X0088040Y0191839D01*
X0080540Y0189339D02*
X0078040Y0191839D01*
X0073040Y0191839D01*
X0070540Y0189339D01*
X0070540Y0184339D01*
X0073040Y0181839D01*
X0078040Y0181839D01*
X0080540Y0184339D01*
X0025540Y0096524D02*
X0028040Y0094024D01*
X0028040Y0089024D01*
X0025540Y0086524D01*
X0010540Y0086524D01*
X0008040Y0084024D01*
X0008040Y0079024D01*
X0010540Y0076524D01*
X0008040Y0074024D01*
X0008040Y0069024D01*
X0010540Y0066524D01*
X0025540Y0066524D01*
X0028040Y0069024D01*
X0028040Y0074024D01*
X0025540Y0076524D01*
X0010540Y0076524D01*
X0010540Y0086524D02*
X0008040Y0089024D01*
X0008040Y0094024D01*
X0010540Y0096524D01*
X0025540Y0096524D01*
X0025540Y0086524D02*
X0028040Y0084024D01*
X0028040Y0079024D01*
X0025540Y0076524D01*
X0025048Y0045343D02*
X0010048Y0045343D01*
X0007548Y0042843D01*
X0007548Y0037843D01*
X0010048Y0035343D01*
X0025048Y0035343D01*
X0027548Y0032843D01*
X0027548Y0027843D01*
X0025048Y0025343D01*
X0027548Y0022843D01*
X0027548Y0017843D01*
X0025048Y0015343D01*
X0010048Y0015343D01*
X0007548Y0017843D01*
X0007548Y0022843D01*
X0010048Y0025343D01*
X0025048Y0025343D01*
X0025048Y0035343D02*
X0027548Y0037843D01*
X0027548Y0042843D01*
X0025048Y0045343D01*
X0010048Y0035343D02*
X0007548Y0032843D01*
X0007548Y0027843D01*
X0010048Y0025343D01*
D15*
X0061602Y0036176D02*
X0061602Y0038290D01*
X0063102Y0042833D02*
X0066483Y0042833D01*
X0066483Y0031633D02*
X0063102Y0031633D01*
X0098562Y0045385D02*
X0098562Y0048766D01*
X0103106Y0050266D02*
X0105219Y0050266D01*
X0109762Y0048766D02*
X0109762Y0045385D01*
X0105853Y0208798D02*
X0102472Y0208798D01*
X0107353Y0213342D02*
X0107353Y0215455D01*
X0105853Y0219998D02*
X0102472Y0219998D01*
X0087668Y0215455D02*
X0087668Y0213342D01*
X0086168Y0208798D02*
X0082787Y0208798D01*
X0082787Y0219998D02*
X0086168Y0219998D01*
X0067983Y0215455D02*
X0067983Y0213342D01*
X0066483Y0208798D02*
X0063102Y0208798D01*
X0063102Y0219998D02*
X0066483Y0219998D01*
X0122157Y0219998D02*
X0125538Y0219998D01*
X0127038Y0215455D02*
X0127038Y0213342D01*
X0125538Y0208798D02*
X0122157Y0208798D01*
D16*
X0128330Y0243148D02*
X0128330Y0247018D01*
X0127846Y0246534D02*
X0128814Y0246534D01*
X0129297Y0246051D01*
X0128814Y0245083D02*
X0127846Y0245083D01*
X0127362Y0245567D01*
X0127362Y0246051D01*
X0127846Y0246534D01*
X0126351Y0246534D02*
X0126351Y0244116D01*
X0125867Y0243632D01*
X0124900Y0243632D01*
X0124416Y0244116D01*
X0124416Y0246534D01*
X0127362Y0244116D02*
X0127846Y0243632D01*
X0128814Y0243632D01*
X0129297Y0244116D01*
X0129297Y0244599D01*
X0128814Y0245083D01*
X0130309Y0245567D02*
X0131276Y0246534D01*
X0131276Y0243632D01*
X0130309Y0243632D02*
X0132244Y0243632D01*
X0133255Y0244116D02*
X0135190Y0246051D01*
X0135190Y0244116D01*
X0134707Y0243632D01*
X0133739Y0243632D01*
X0133255Y0244116D01*
X0133255Y0246051D01*
X0133739Y0246534D01*
X0134707Y0246534D01*
X0135190Y0246051D01*
X0033359Y0180017D02*
X0028506Y0180017D01*
X0029112Y0180624D02*
X0029719Y0181230D01*
X0029112Y0180624D02*
X0029112Y0179410D01*
X0029719Y0178803D01*
X0030326Y0178803D01*
X0030932Y0179410D01*
X0030932Y0180624D01*
X0031539Y0181230D01*
X0032146Y0181230D01*
X0032752Y0180624D01*
X0032752Y0179410D01*
X0032146Y0178803D01*
X0032146Y0177605D02*
X0029112Y0177605D01*
X0029112Y0175178D02*
X0032146Y0175178D01*
X0032752Y0175785D01*
X0032752Y0176998D01*
X0032146Y0177605D01*
X0032752Y0182429D02*
X0030326Y0184855D01*
X0029719Y0184855D01*
X0029112Y0184249D01*
X0029112Y0183035D01*
X0029719Y0182429D01*
X0032752Y0182429D02*
X0032752Y0184855D01*
D17*
X0030835Y0233493D03*
X0027883Y0233493D03*
X0022961Y0233493D03*
X0020009Y0233493D03*
X0020009Y0249241D03*
X0022961Y0249241D03*
X0027883Y0249241D03*
X0030835Y0249241D03*
D18*
X0029359Y0249241D03*
X0021485Y0249241D03*
X0021485Y0233493D03*
X0029359Y0233493D03*
D19*
X0033296Y0185658D02*
X0033296Y0180146D01*
X0041170Y0180146D01*
X0041170Y0185658D01*
X0033296Y0185658D01*
X0032706Y0181131D02*
X0032706Y0179556D01*
X0033296Y0179556D01*
X0034002Y0181131D02*
X0034004Y0181164D01*
X0034010Y0181196D01*
X0034019Y0181228D01*
X0034033Y0181258D01*
X0034049Y0181286D01*
X0034069Y0181312D01*
X0034092Y0181336D01*
X0034118Y0181357D01*
X0034146Y0181374D01*
X0034176Y0181389D01*
X0034207Y0181399D01*
X0034239Y0181406D01*
X0034272Y0181409D01*
X0034305Y0181408D01*
X0034337Y0181403D01*
X0034369Y0181394D01*
X0034400Y0181382D01*
X0034428Y0181366D01*
X0034455Y0181347D01*
X0034479Y0181325D01*
X0034501Y0181300D01*
X0034519Y0181272D01*
X0034534Y0181243D01*
X0034546Y0181212D01*
X0034554Y0181180D01*
X0034558Y0181147D01*
X0034558Y0181115D01*
X0034554Y0181082D01*
X0034546Y0181050D01*
X0034534Y0181019D01*
X0034519Y0180990D01*
X0034501Y0180962D01*
X0034479Y0180937D01*
X0034455Y0180915D01*
X0034428Y0180896D01*
X0034400Y0180880D01*
X0034369Y0180868D01*
X0034337Y0180859D01*
X0034305Y0180854D01*
X0034272Y0180853D01*
X0034239Y0180856D01*
X0034207Y0180863D01*
X0034176Y0180873D01*
X0034146Y0180888D01*
X0034118Y0180905D01*
X0034092Y0180926D01*
X0034069Y0180950D01*
X0034049Y0180976D01*
X0034033Y0181004D01*
X0034019Y0181034D01*
X0034010Y0181066D01*
X0034004Y0181098D01*
X0034002Y0181131D01*
X0037233Y0146288D02*
X0045107Y0146288D01*
X0045107Y0140776D01*
X0037233Y0140776D01*
X0037233Y0146288D01*
X0043845Y0145304D02*
X0043847Y0145337D01*
X0043853Y0145369D01*
X0043862Y0145401D01*
X0043876Y0145431D01*
X0043892Y0145459D01*
X0043912Y0145485D01*
X0043935Y0145509D01*
X0043961Y0145530D01*
X0043989Y0145547D01*
X0044019Y0145562D01*
X0044050Y0145572D01*
X0044082Y0145579D01*
X0044115Y0145582D01*
X0044148Y0145581D01*
X0044180Y0145576D01*
X0044212Y0145567D01*
X0044243Y0145555D01*
X0044271Y0145539D01*
X0044298Y0145520D01*
X0044322Y0145498D01*
X0044344Y0145473D01*
X0044362Y0145445D01*
X0044377Y0145416D01*
X0044389Y0145385D01*
X0044397Y0145353D01*
X0044401Y0145320D01*
X0044401Y0145288D01*
X0044397Y0145255D01*
X0044389Y0145223D01*
X0044377Y0145192D01*
X0044362Y0145163D01*
X0044344Y0145135D01*
X0044322Y0145110D01*
X0044298Y0145088D01*
X0044271Y0145069D01*
X0044243Y0145053D01*
X0044212Y0145041D01*
X0044180Y0145032D01*
X0044148Y0145027D01*
X0044115Y0145026D01*
X0044082Y0145029D01*
X0044050Y0145036D01*
X0044019Y0145046D01*
X0043989Y0145061D01*
X0043961Y0145078D01*
X0043935Y0145099D01*
X0043912Y0145123D01*
X0043892Y0145149D01*
X0043876Y0145177D01*
X0043862Y0145207D01*
X0043853Y0145239D01*
X0043847Y0145271D01*
X0043845Y0145304D01*
X0045698Y0145304D02*
X0045698Y0146879D01*
X0045107Y0146879D01*
X0103572Y0163808D02*
X0104162Y0163808D01*
X0103572Y0163808D02*
X0103572Y0165383D01*
X0104162Y0164398D02*
X0104162Y0169910D01*
X0112036Y0169910D01*
X0112036Y0164398D01*
X0104162Y0164398D01*
X0104868Y0165383D02*
X0104870Y0165416D01*
X0104876Y0165448D01*
X0104885Y0165480D01*
X0104899Y0165510D01*
X0104915Y0165538D01*
X0104935Y0165564D01*
X0104958Y0165588D01*
X0104984Y0165609D01*
X0105012Y0165626D01*
X0105042Y0165641D01*
X0105073Y0165651D01*
X0105105Y0165658D01*
X0105138Y0165661D01*
X0105171Y0165660D01*
X0105203Y0165655D01*
X0105235Y0165646D01*
X0105266Y0165634D01*
X0105294Y0165618D01*
X0105321Y0165599D01*
X0105345Y0165577D01*
X0105367Y0165552D01*
X0105385Y0165524D01*
X0105400Y0165495D01*
X0105412Y0165464D01*
X0105420Y0165432D01*
X0105424Y0165399D01*
X0105424Y0165367D01*
X0105420Y0165334D01*
X0105412Y0165302D01*
X0105400Y0165271D01*
X0105385Y0165242D01*
X0105367Y0165214D01*
X0105345Y0165189D01*
X0105321Y0165167D01*
X0105294Y0165148D01*
X0105266Y0165132D01*
X0105235Y0165120D01*
X0105203Y0165111D01*
X0105171Y0165106D01*
X0105138Y0165105D01*
X0105105Y0165108D01*
X0105073Y0165115D01*
X0105042Y0165125D01*
X0105012Y0165140D01*
X0104984Y0165157D01*
X0104958Y0165178D01*
X0104935Y0165202D01*
X0104915Y0165228D01*
X0104899Y0165256D01*
X0104885Y0165286D01*
X0104876Y0165318D01*
X0104870Y0165350D01*
X0104868Y0165383D01*
D20*
X0022722Y0176665D02*
X0022722Y0179735D01*
X0022722Y0181269D02*
X0022722Y0184339D01*
X0022722Y0182804D02*
X0018118Y0182804D01*
X0019653Y0181269D01*
X0018118Y0176665D02*
X0022722Y0176665D01*
M02*
