  0
SECTION
  2
HEADER
  9
$ACADVER
  1
AC1009
  9
$FILLMODE
 70
0
  9
$EXTMIN
 10
-0.8683
 20
-0.2032
 30
0.0000
  9
$EXTMAX
 10
41.0960
 20
66.2032
 30
0.0000
  0
ENDSEC
  0
SECTION
  2
TABLES
  0
TABLE
  2
LTYPE
 70
1
  0
LTYPE
  2
CONTINUOUS
 70
64
  3
Solid line
 72
65
 73
0
 40
0
  0
ENDTAB
  0
TABLE
  2
LAYER
 70
255
  0
LAYER
  2
31
 70
64
 62
253
  6
CONTINUOUS
  0
ENDTAB
  0
ENDSEC
  0
SECTION
  2
BLOCKS
  0
BLOCK
  8
0
  2
RECT
 70
64
 10
0.0000
 20
0.0000
 30
0.0000
  3
RECT
  0
SOLID
  8
0
 10
-0.5000
 20
-0.5000
 30
0.0000
 11
0.5000
 21
-0.5000
 31
0.0000
 12
-0.5000
 22
0.5000
 32
0.0000
 13
0.5000
 23
0.5000
 33
0.0000
  0
ENDBLK
  8
0
  0
BLOCK
  8
0
  2
PIE
 70
64
 10
0.0000
 20
0.0000
 30
0.0000
  3
PIE
  0
CIRCLE
  8
0
 10
0.0000
 20
0.0000
 30
0.0000
 40
0.5000
  0
ENDBLK
  8
0
  0
BLOCK
  8
0
  2
OCTAGONP
 70
64
 10
0.0000
 20
0.0000
 30
0.0000
  3
OCTAGONP
  0
POLYLINE
  8
0
 66
1
 10
0.0000
 20
0.0000
 30
0.0000
 40
0.0000
 41
0.0000
 70
1
  0
VERTEX
  8
0
 10
-0.5000
 20
-0.2071
 30
0.0000
  0
VERTEX
  8
0
 10
-0.5000
 20
0.2071
 30
0.0000
  0
VERTEX
  8
0
 10
-0.2071
 20
0.5000
 30
0.0000
  0
VERTEX
  8
0
 10
0.2071
 20
0.5000
 30
0.0000
  0
VERTEX
  8
0
 10
0.5000
 20
0.2071
 30
0.0000
  0
VERTEX
  8
0
 10
0.5000
 20
-0.2071
 30
0.0000
  0
VERTEX
  8
0
 10
0.2071
 20
-0.5000
 30
0.0000
  0
VERTEX
  8
0
 10
-0.2071
 20
-0.5000
 30
0.0000
  0
SEQEND
  8
0
  0
ENDBLK
  8
0
  0
BLOCK
  8
0
  2
SQUAREP
 70
64
 10
0.0000
 20
0.0000
 30
0.0000
  3
SQUAREP
  0
SOLID
  8
0
 10
-0.5000
 20
-0.5000
 30
0.0000
 11
0.5000
 21
-0.5000
 31
0.0000
 12
-0.5000
 22
0.5000
 32
0.0000
 13
0.5000
 23
0.5000
 33
0.0000
  0
ENDBLK
  8
0
  0
BLOCK
  8
0
  2
ROUNDP
 70
64
 10
0.0000
 20
0.0000
 30
0.0000
  3
ROUNDP
  0
CIRCLE
  8
0
 10
0.0000
 20
0.0000
 30
0.0000
 40
0.5000
  0
ENDBLK
  8
0
  0
BLOCK
  8
0
  2
ANNULUSP
 70
64
 10
0.0000
 20
0.0000
 30
0.0000
  3
ANNULUSP
  0
CIRCLE
  8
0
 10
0.0000
 20
0.0000
 30
0.0000
 40
0.5000
  0
ENDBLK
  8
0
  0
BLOCK
  8
0
  2
THERMALP
 70
64
 10
0.0000
 20
0.0000
 30
0.0000
  3
THERMALP
  0
LINE
  8
0
 10
-0.2379
 20
0.4500
 30
0.0000
 11
0.2379
 21
0.4500
 31
0.0000
  0
LINE
  8
0
 10
0.4500
 20
0.2379
 30
0.0000
 11
0.4500
 21
-0.2379
 31
0.0000
  0
LINE
  8
0
 10
0.2379
 20
-0.4500
 30
0.0000
 11
-0.2379
 21
-0.4500
 31
0.0000
  0
LINE
  8
0
 10
-0.4500
 20
-0.2379
 30
0.0000
 11
-0.4500
 21
0.2379
 31
0.0000
  0
ENDBLK
  8
0
  0
BLOCK
  8
0
  2
OCTAGONV
 70
64
 10
0.0000
 20
0.0000
 30
0.0000
  3
OCTAGONV
  0
POLYLINE
  8
0
 66
1
 10
0.0000
 20
0.0000
 30
0.0000
 40
0.0000
 41
0.0000
 70
1
  0
VERTEX
  8
0
 10
-0.5000
 20
-0.2071
 30
0.0000
  0
VERTEX
  8
0
 10
-0.5000
 20
0.2071
 30
0.0000
  0
VERTEX
  8
0
 10
-0.2071
 20
0.5000
 30
0.0000
  0
VERTEX
  8
0
 10
0.2071
 20
0.5000
 30
0.0000
  0
VERTEX
  8
0
 10
0.5000
 20
0.2071
 30
0.0000
  0
VERTEX
  8
0
 10
0.5000
 20
-0.2071
 30
0.0000
  0
VERTEX
  8
0
 10
0.2071
 20
-0.5000
 30
0.0000
  0
VERTEX
  8
0
 10
-0.2071
 20
-0.5000
 30
0.0000
  0
SEQEND
  8
0
  0
ENDBLK
  8
0
  0
BLOCK
  8
0
  2
SQUAREV
 70
64
 10
0.0000
 20
0.0000
 30
0.0000
  3
SQUAREV
  0
SOLID
  8
0
 10
-0.5000
 20
-0.5000
 30
0.0000
 11
0.5000
 21
-0.5000
 31
0.0000
 12
-0.5000
 22
0.5000
 32
0.0000
 13
0.5000
 23
0.5000
 33
0.0000
  0
ENDBLK
  8
0
  0
BLOCK
  8
0
  2
ROUNDV
 70
64
 10
0.0000
 20
0.0000
 30
0.0000
  3
ROUNDV
  0
CIRCLE
  8
0
 10
0.0000
 20
0.0000
 30
0.0000
 40
0.5000
  0
ENDBLK
  8
0
  0
BLOCK
  8
0
  2
ANNULUSV
 70
64
 10
0.0000
 20
0.0000
 30
0.0000
  3
ANNULUSV
  0
CIRCLE
  8
0
 10
0.0000
 20
0.0000
 30
0.0000
 40
0.5000
  0
ENDBLK
  8
0
  0
BLOCK
  8
0
  2
THERMALV
 70
64
 10
0.0000
 20
0.0000
 30
0.0000
  3
THERMALV
  0
LINE
  8
0
 10
-0.2379
 20
0.4500
 30
0.0000
 11
0.2379
 21
0.4500
 31
0.0000
  0
LINE
  8
0
 10
0.4500
 20
0.2379
 30
0.0000
 11
0.4500
 21
-0.2379
 31
0.0000
  0
LINE
  8
0
 10
0.2379
 20
-0.4500
 30
0.0000
 11
-0.2379
 21
-0.4500
 31
0.0000
  0
LINE
  8
0
 10
-0.4500
 20
-0.2379
 30
0.0000
 11
-0.4500
 21
0.2379
 31
0.0000
  0
ENDBLK
  8
0
  0
BLOCK
  8
0
  2
RECT158400X144000R10
 70
64
 10
0.0000
 20
0.0000
 30
0.0000
  3
RECT158400X144000R10
  0
POLYLINE
  8
0
 66
1
 10
0.0000
 20
0.0000
 30
0.0000
 40
0.0000
 41
0.0000
 70
1
  0
VERTEX
  8
0
 10
0.4950
 20
-0.4050
 30
0.0000
  0
VERTEX
  8
0
 10
0.4950
 20
0.4050
 30
0.0000
 42
0.4142
  0
VERTEX
  8
0
 10
0.4500
 20
0.4500
 30
0.0000
  0
VERTEX
  8
0
 10
-0.4500
 20
0.4500
 30
0.0000
 42
0.4142
  0
VERTEX
  8
0
 10
-0.4950
 20
0.4050
 30
0.0000
  0
VERTEX
  8
0
 10
-0.4950
 20
-0.4050
 30
0.0000
 42
0.4142
  0
VERTEX
  8
0
 10
-0.4500
 20
-0.4500
 30
0.0000
  0
VERTEX
  8
0
 10
0.4500
 20
-0.4500
 30
0.0000
 42
0.4142
  0
SEQEND
  8
0
  0
ENDBLK
  8
0
  0
BLOCK
  8
0
  2
RECT86400X115200R17
 70
64
 10
0.0000
 20
0.0000
 30
0.0000
  3
RECT86400X115200R17
  0
POLYLINE
  8
0
 66
1
 10
0.0000
 20
0.0000
 30
0.0000
 40
0.0000
 41
0.0000
 70
1
  0
VERTEX
  8
0
 10
0.2700
 20
-0.3141
 30
0.0000
  0
VERTEX
  8
0
 10
0.2700
 20
0.3141
 30
0.0000
 42
0.4142
  0
VERTEX
  8
0
 10
0.2241
 20
0.3600
 30
0.0000
  0
VERTEX
  8
0
 10
-0.2241
 20
0.3600
 30
0.0000
 42
0.4142
  0
VERTEX
  8
0
 10
-0.2700
 20
0.3141
 30
0.0000
  0
VERTEX
  8
0
 10
-0.2700
 20
-0.3141
 30
0.0000
 42
0.4142
  0
VERTEX
  8
0
 10
-0.2241
 20
-0.3600
 30
0.0000
  0
VERTEX
  8
0
 10
0.2241
 20
-0.3600
 30
0.0000
 42
0.4142
  0
SEQEND
  8
0
  0
ENDBLK
  8
0
  0
BLOCK
  8
0
  2
RECT95098X292608R15
 70
64
 10
0.0000
 20
0.0000
 30
0.0000
  3
RECT95098X292608R15
  0
POLYLINE
  8
0
 66
1
 10
0.0000
 20
0.0000
 30
0.0000
 40
0.0000
 41
0.0000
 70
1
  0
VERTEX
  8
0
 10
0.2972
 20
-0.8698
 30
0.0000
  0
VERTEX
  8
0
 10
0.2972
 20
0.8698
 30
0.0000
 42
0.4142
  0
VERTEX
  8
0
 10
0.2526
 20
0.9144
 30
0.0000
  0
VERTEX
  8
0
 10
-0.2526
 20
0.9144
 30
0.0000
 42
0.4142
  0
VERTEX
  8
0
 10
-0.2972
 20
0.8698
 30
0.0000
  0
VERTEX
  8
0
 10
-0.2972
 20
-0.8698
 30
0.0000
 42
0.4142
  0
VERTEX
  8
0
 10
-0.2526
 20
-0.9144
 30
0.0000
  0
VERTEX
  8
0
 10
0.2526
 20
-0.9144
 30
0.0000
 42
0.4142
  0
SEQEND
  8
0
  0
ENDBLK
  8
0
  0
BLOCK
  8
0
  2
LONGP100
 70
64
 10
0.0000
 20
0.0000
 30
0.0000
  3
LONGP100
  0
POLYLINE
  8
0
 66
1
 10
0.0000
 20
0.0000
 30
0.0000
 40
0.0000
 41
0.0000
 70
1
  0
VERTEX
  8
0
 10
-0.5000
 20
-0.5000
 30
0.0000
  0
VERTEX
  8
0
 10
0.5000
 20
-0.5000
 30
0.0000
 42
1.0000
  0
VERTEX
  8
0
 10
0.5000
 20
0.5000
 30
0.0000
  0
VERTEX
  8
0
 10
-0.5000
 20
0.5000
 30
0.0000
 42
1.0000
  0
SEQEND
  8
0
  0
ENDBLK
  8
0
  0
BLOCK
  8
0
  2
RECT115200X115200R13
 70
64
 10
0.0000
 20
0.0000
 30
0.0000
  3
RECT115200X115200R13
  0
POLYLINE
  8
0
 66
1
 10
0.0000
 20
0.0000
 30
0.0000
 40
0.0000
 41
0.0000
 70
1
  0
VERTEX
  8
0
 10
0.3600
 20
-0.3132
 30
0.0000
  0
VERTEX
  8
0
 10
0.3600
 20
0.3132
 30
0.0000
 42
0.4142
  0
VERTEX
  8
0
 10
0.3132
 20
0.3600
 30
0.0000
  0
VERTEX
  8
0
 10
-0.3132
 20
0.3600
 30
0.0000
 42
0.4142
  0
VERTEX
  8
0
 10
-0.3600
 20
0.3132
 30
0.0000
  0
VERTEX
  8
0
 10
-0.3600
 20
-0.3132
 30
0.0000
 42
0.4142
  0
VERTEX
  8
0
 10
-0.3132
 20
-0.3600
 30
0.0000
  0
VERTEX
  8
0
 10
0.3132
 20
-0.3600
 30
0.0000
 42
0.4142
  0
SEQEND
  8
0
  0
ENDBLK
  8
0
  0
BLOCK
  8
0
  2
RECT230400X432000R10
 70
64
 10
0.0000
 20
0.0000
 30
0.0000
  3
RECT230400X432000R10
  0
POLYLINE
  8
0
 66
1
 10
0.0000
 20
0.0000
 30
0.0000
 40
0.0000
 41
0.0000
 70
1
  0
VERTEX
  8
0
 10
0.7200
 20
-1.2780
 30
0.0000
  0
VERTEX
  8
0
 10
0.7200
 20
1.2780
 30
0.0000
 42
0.4142
  0
VERTEX
  8
0
 10
0.6480
 20
1.3500
 30
0.0000
  0
VERTEX
  8
0
 10
-0.6480
 20
1.3500
 30
0.0000
 42
0.4142
  0
VERTEX
  8
0
 10
-0.7200
 20
1.2780
 30
0.0000
  0
VERTEX
  8
0
 10
-0.7200
 20
-1.2780
 30
0.0000
 42
0.4142
  0
VERTEX
  8
0
 10
-0.6480
 20
-1.3500
 30
0.0000
  0
VERTEX
  8
0
 10
0.6480
 20
-1.3500
 30
0.0000
 42
0.4142
  0
SEQEND
  8
0
  0
ENDBLK
  8
0
  0
BLOCK
  8
0
  2
RECT694944X822960R10
 70
64
 10
0.0000
 20
0.0000
 30
0.0000
  3
RECT694944X822960R10
  0
POLYLINE
  8
0
 66
1
 10
0.0000
 20
0.0000
 30
0.0000
 40
0.0000
 41
0.0000
 70
1
  0
VERTEX
  8
0
 10
2.1717
 20
-2.3546
 30
0.0000
  0
VERTEX
  8
0
 10
2.1717
 20
2.3546
 30
0.0000
 42
0.4142
  0
VERTEX
  8
0
 10
1.9545
 20
2.5718
 30
0.0000
  0
VERTEX
  8
0
 10
-1.9545
 20
2.5718
 30
0.0000
 42
0.4142
  0
VERTEX
  8
0
 10
-2.1717
 20
2.3546
 30
0.0000
  0
VERTEX
  8
0
 10
-2.1717
 20
-2.3546
 30
0.0000
 42
0.4142
  0
VERTEX
  8
0
 10
-1.9545
 20
-2.5718
 30
0.0000
  0
VERTEX
  8
0
 10
1.9545
 20
-2.5718
 30
0.0000
 42
0.4142
  0
SEQEND
  8
0
  0
ENDBLK
  8
0
  0
BLOCK
  8
0
  2
RECT144000X158400R10
 70
64
 10
0.0000
 20
0.0000
 30
0.0000
  3
RECT144000X158400R10
  0
POLYLINE
  8
0
 66
1
 10
0.0000
 20
0.0000
 30
0.0000
 40
0.0000
 41
0.0000
 70
1
  0
VERTEX
  8
0
 10
0.4500
 20
-0.4500
 30
0.0000
  0
VERTEX
  8
0
 10
0.4500
 20
0.4500
 30
0.0000
 42
0.4142
  0
VERTEX
  8
0
 10
0.4050
 20
0.4950
 30
0.0000
  0
VERTEX
  8
0
 10
-0.4050
 20
0.4950
 30
0.0000
 42
0.4142
  0
VERTEX
  8
0
 10
-0.4500
 20
0.4500
 30
0.0000
  0
VERTEX
  8
0
 10
-0.4500
 20
-0.4500
 30
0.0000
 42
0.4142
  0
VERTEX
  8
0
 10
-0.4050
 20
-0.4950
 30
0.0000
  0
VERTEX
  8
0
 10
0.4050
 20
-0.4950
 30
0.0000
 42
0.4142
  0
SEQEND
  8
0
  0
ENDBLK
  8
0
  0
BLOCK
  8
0
  2
RECT86400X172800R17
 70
64
 10
0.0000
 20
0.0000
 30
0.0000
  3
RECT86400X172800R17
  0
POLYLINE
  8
0
 66
1
 10
0.0000
 20
0.0000
 30
0.0000
 40
0.0000
 41
0.0000
 70
1
  0
VERTEX
  8
0
 10
0.2700
 20
-0.4941
 30
0.0000
  0
VERTEX
  8
0
 10
0.2700
 20
0.4941
 30
0.0000
 42
0.4142
  0
VERTEX
  8
0
 10
0.2241
 20
0.5400
 30
0.0000
  0
VERTEX
  8
0
 10
-0.2241
 20
0.5400
 30
0.0000
 42
0.4142
  0
VERTEX
  8
0
 10
-0.2700
 20
0.4941
 30
0.0000
  0
VERTEX
  8
0
 10
-0.2700
 20
-0.4941
 30
0.0000
 42
0.4142
  0
VERTEX
  8
0
 10
-0.2241
 20
-0.5400
 30
0.0000
  0
VERTEX
  8
0
 10
0.2241
 20
-0.5400
 30
0.0000
 42
0.4142
  0
SEQEND
  8
0
  0
ENDBLK
  8
0
  0
BLOCK
  8
0
  2
RECT39872X172800R34
 70
64
 10
0.0000
 20
0.0000
 30
0.0000
  3
RECT39872X172800R34
  0
POLYLINE
  8
0
 66
1
 10
0.0000
 20
0.0000
 30
0.0000
 40
0.0000
 41
0.0000
 70
1
  0
VERTEX
  8
0
 10
0.1246
 20
-0.4976
 30
0.0000
  0
VERTEX
  8
0
 10
0.1246
 20
0.4976
 30
0.0000
 42
0.4142
  0
VERTEX
  8
0
 10
0.0822
 20
0.5400
 30
0.0000
  0
VERTEX
  8
0
 10
-0.0822
 20
0.5400
 30
0.0000
 42
0.4142
  0
VERTEX
  8
0
 10
-0.1246
 20
0.4976
 30
0.0000
  0
VERTEX
  8
0
 10
-0.1246
 20
-0.4976
 30
0.0000
 42
0.4142
  0
VERTEX
  8
0
 10
-0.0822
 20
-0.5400
 30
0.0000
  0
VERTEX
  8
0
 10
0.0822
 20
-0.5400
 30
0.0000
 42
0.4142
  0
SEQEND
  8
0
  0
ENDBLK
  8
0
  0
BLOCK
  8
0
  2
RECT79200X172800R18
 70
64
 10
0.0000
 20
0.0000
 30
0.0000
  3
RECT79200X172800R18
  0
POLYLINE
  8
0
 66
1
 10
0.0000
 20
0.0000
 30
0.0000
 40
0.0000
 41
0.0000
 70
1
  0
VERTEX
  8
0
 10
0.2475
 20
-0.4955
 30
0.0000
  0
VERTEX
  8
0
 10
0.2475
 20
0.4955
 30
0.0000
 42
0.4142
  0
VERTEX
  8
0
 10
0.2030
 20
0.5400
 30
0.0000
  0
VERTEX
  8
0
 10
-0.2030
 20
0.5400
 30
0.0000
 42
0.4142
  0
VERTEX
  8
0
 10
-0.2475
 20
0.4955
 30
0.0000
  0
VERTEX
  8
0
 10
-0.2475
 20
-0.4955
 30
0.0000
 42
0.4142
  0
VERTEX
  8
0
 10
-0.2030
 20
-0.5400
 30
0.0000
  0
VERTEX
  8
0
 10
0.2030
 20
-0.5400
 30
0.0000
 42
0.4142
  0
SEQEND
  8
0
  0
ENDBLK
  8
0
  0
BLOCK
  8
0
  2
RECT259200X273600R10
 70
64
 10
0.0000
 20
0.0000
 30
0.0000
  3
RECT259200X273600R10
  0
POLYLINE
  8
0
 66
1
 10
0.0000
 20
0.0000
 30
0.0000
 40
0.0000
 41
0.0000
 70
1
  0
VERTEX
  8
0
 10
0.8100
 20
-0.7740
 30
0.0000
  0
VERTEX
  8
0
 10
0.8100
 20
0.7740
 30
0.0000
 42
0.4142
  0
VERTEX
  8
0
 10
0.7290
 20
0.8550
 30
0.0000
  0
VERTEX
  8
0
 10
-0.7290
 20
0.8550
 30
0.0000
 42
0.4142
  0
VERTEX
  8
0
 10
-0.8100
 20
0.7740
 30
0.0000
  0
VERTEX
  8
0
 10
-0.8100
 20
-0.7740
 30
0.0000
 42
0.4142
  0
VERTEX
  8
0
 10
-0.7290
 20
-0.8550
 30
0.0000
  0
VERTEX
  8
0
 10
0.7290
 20
-0.8550
 30
0.0000
 42
0.4142
  0
SEQEND
  8
0
  0
ENDBLK
  8
0
  0
BLOCK
  8
0
  2
RECT273600X273600R10
 70
64
 10
0.0000
 20
0.0000
 30
0.0000
  3
RECT273600X273600R10
  0
POLYLINE
  8
0
 66
1
 10
0.0000
 20
0.0000
 30
0.0000
 40
0.0000
 41
0.0000
 70
1
  0
VERTEX
  8
0
 10
0.8550
 20
-0.7695
 30
0.0000
  0
VERTEX
  8
0
 10
0.8550
 20
0.7695
 30
0.0000
 42
0.4142
  0
VERTEX
  8
0
 10
0.7695
 20
0.8550
 30
0.0000
  0
VERTEX
  8
0
 10
-0.7695
 20
0.8550
 30
0.0000
 42
0.4142
  0
VERTEX
  8
0
 10
-0.8550
 20
0.7695
 30
0.0000
  0
VERTEX
  8
0
 10
-0.8550
 20
-0.7695
 30
0.0000
 42
0.4142
  0
VERTEX
  8
0
 10
-0.7695
 20
-0.8550
 30
0.0000
  0
VERTEX
  8
0
 10
0.7695
 20
-0.8550
 30
0.0000
 42
0.4142
  0
SEQEND
  8
0
  0
ENDBLK
  8
0
  0
BLOCK
  8
0
  2
RECT302400X230400R10
 70
64
 10
0.0000
 20
0.0000
 30
0.0000
  3
RECT302400X230400R10
  0
POLYLINE
  8
0
 66
1
 10
0.0000
 20
0.0000
 30
0.0000
 40
0.0000
 41
0.0000
 70
1
  0
VERTEX
  8
0
 10
0.9450
 20
-0.6480
 30
0.0000
  0
VERTEX
  8
0
 10
0.9450
 20
0.6480
 30
0.0000
 42
0.4142
  0
VERTEX
  8
0
 10
0.8730
 20
0.7200
 30
0.0000
  0
VERTEX
  8
0
 10
-0.8730
 20
0.7200
 30
0.0000
 42
0.4142
  0
VERTEX
  8
0
 10
-0.9450
 20
0.6480
 30
0.0000
  0
VERTEX
  8
0
 10
-0.9450
 20
-0.6480
 30
0.0000
 42
0.4142
  0
VERTEX
  8
0
 10
-0.8730
 20
-0.7200
 30
0.0000
  0
VERTEX
  8
0
 10
0.8730
 20
-0.7200
 30
0.0000
 42
0.4142
  0
SEQEND
  8
0
  0
ENDBLK
  8
0
  0
BLOCK
  8
0
  2
RECT55872X194400R25
 70
64
 10
0.0000
 20
0.0000
 30
0.0000
  3
RECT55872X194400R25
  0
POLYLINE
  8
0
 66
1
 10
0.0000
 20
0.0000
 30
0.0000
 40
0.0000
 41
0.0000
 70
1
  0
VERTEX
  8
0
 10
0.1746
 20
-0.5639
 30
0.0000
  0
VERTEX
  8
0
 10
0.1746
 20
0.5639
 30
0.0000
 42
0.4142
  0
VERTEX
  8
0
 10
0.1310
 20
0.6075
 30
0.0000
  0
VERTEX
  8
0
 10
-0.1310
 20
0.6075
 30
0.0000
 42
0.4142
  0
VERTEX
  8
0
 10
-0.1746
 20
0.5639
 30
0.0000
  0
VERTEX
  8
0
 10
-0.1746
 20
-0.5639
 30
0.0000
 42
0.4142
  0
VERTEX
  8
0
 10
-0.1310
 20
-0.6075
 30
0.0000
  0
VERTEX
  8
0
 10
0.1310
 20
-0.6075
 30
0.0000
 42
0.4142
  0
SEQEND
  8
0
  0
ENDBLK
  8
0
  0
BLOCK
  8
0
  2
RECT131040X175680R11
 70
64
 10
0.0000
 20
0.0000
 30
0.0000
  3
RECT131040X175680R11
  0
POLYLINE
  8
0
 66
1
 10
0.0000
 20
0.0000
 30
0.0000
 40
0.0000
 41
0.0000
 70
1
  0
VERTEX
  8
0
 10
0.4095
 20
-0.5040
 30
0.0000
  0
VERTEX
  8
0
 10
0.4095
 20
0.5040
 30
0.0000
 42
0.4142
  0
VERTEX
  8
0
 10
0.3645
 20
0.5490
 30
0.0000
  0
VERTEX
  8
0
 10
-0.3645
 20
0.5490
 30
0.0000
 42
0.4142
  0
VERTEX
  8
0
 10
-0.4095
 20
0.5040
 30
0.0000
  0
VERTEX
  8
0
 10
-0.4095
 20
-0.5040
 30
0.0000
 42
0.4142
  0
VERTEX
  8
0
 10
-0.3645
 20
-0.5490
 30
0.0000
  0
VERTEX
  8
0
 10
0.3645
 20
-0.5490
 30
0.0000
 42
0.4142
  0
SEQEND
  8
0
  0
ENDBLK
  8
0
  0
BLOCK
  8
0
  2
RECT55872X86400R25
 70
64
 10
0.0000
 20
0.0000
 30
0.0000
  3
RECT55872X86400R25
  0
POLYLINE
  8
0
 66
1
 10
0.0000
 20
0.0000
 30
0.0000
 40
0.0000
 41
0.0000
 70
1
  0
VERTEX
  8
0
 10
0.1746
 20
-0.2264
 30
0.0000
  0
VERTEX
  8
0
 10
0.1746
 20
0.2264
 30
0.0000
 42
0.4142
  0
VERTEX
  8
0
 10
0.1310
 20
0.2700
 30
0.0000
  0
VERTEX
  8
0
 10
-0.1310
 20
0.2700
 30
0.0000
 42
0.4142
  0
VERTEX
  8
0
 10
-0.1746
 20
0.2264
 30
0.0000
  0
VERTEX
  8
0
 10
-0.1746
 20
-0.2264
 30
0.0000
 42
0.4142
  0
VERTEX
  8
0
 10
-0.1310
 20
-0.2700
 30
0.0000
  0
VERTEX
  8
0
 10
0.1310
 20
-0.2700
 30
0.0000
 42
0.4142
  0
SEQEND
  8
0
  0
ENDBLK
  8
0
  0
BLOCK
  8
0
  2
RECT648000X259200R10
 70
64
 10
0.0000
 20
0.0000
 30
0.0000
  3
RECT648000X259200R10
  0
POLYLINE
  8
0
 66
1
 10
0.0000
 20
0.0000
 30
0.0000
 40
0.0000
 41
0.0000
 70
1
  0
VERTEX
  8
0
 10
2.0250
 20
-0.7290
 30
0.0000
  0
VERTEX
  8
0
 10
2.0250
 20
0.7290
 30
0.0000
 42
0.4142
  0
VERTEX
  8
0
 10
1.9440
 20
0.8100
 30
0.0000
  0
VERTEX
  8
0
 10
-1.9440
 20
0.8100
 30
0.0000
 42
0.4142
  0
VERTEX
  8
0
 10
-2.0250
 20
0.7290
 30
0.0000
  0
VERTEX
  8
0
 10
-2.0250
 20
-0.7290
 30
0.0000
 42
0.4142
  0
VERTEX
  8
0
 10
-1.9440
 20
-0.8100
 30
0.0000
  0
VERTEX
  8
0
 10
1.9440
 20
-0.8100
 30
0.0000
 42
0.4142
  0
SEQEND
  8
0
  0
ENDBLK
  8
0
  0
ENDSEC
  0
SECTION
  2
ENTITIES
  0
INSERT
  8
31
  2
RECT158400X144000R10
 10
8.0000
 20
45.1500
 30
0.0000
 41
1.0000
 42
1.0000
 43
1.0000
 50
90.0000
  0
INSERT
  8
31
  2
RECT158400X144000R10
 10
8.0000
 20
46.8500
 30
0.0000
 41
1.0000
 42
1.0000
 43
1.0000
 50
90.0000
  0
INSERT
  8
31
  2
RECT158400X144000R10
 10
12.0000
 20
13.8500
 30
0.0000
 41
1.0000
 42
1.0000
 43
1.0000
 50
270.0000
  0
INSERT
  8
31
  2
RECT158400X144000R10
 10
12.0000
 20
12.1500
 30
0.0000
 41
1.0000
 42
1.0000
 43
1.0000
 50
270.0000
  0
INSERT
  8
31
  2
RECT158400X144000R10
 10
14.0000
 20
13.8500
 30
0.0000
 41
1.0000
 42
1.0000
 43
1.0000
 50
270.0000
  0
INSERT
  8
31
  2
RECT158400X144000R10
 10
14.0000
 20
12.1500
 30
0.0000
 41
1.0000
 42
1.0000
 43
1.0000
 50
270.0000
  0
INSERT
  8
31
  2
RECT158400X144000R10
 10
26.0000
 20
55.8500
 30
0.0000
 41
1.0000
 42
1.0000
 43
1.0000
 50
270.0000
  0
INSERT
  8
31
  2
RECT158400X144000R10
 10
26.0000
 20
54.1500
 30
0.0000
 41
1.0000
 42
1.0000
 43
1.0000
 50
270.0000
  0
INSERT
  8
31
  2
RECT158400X144000R10
 10
17.0000
 20
55.8500
 30
0.0000
 41
1.0000
 42
1.0000
 43
1.0000
 50
270.0000
  0
INSERT
  8
31
  2
RECT158400X144000R10
 10
17.0000
 20
54.1500
 30
0.0000
 41
1.0000
 42
1.0000
 43
1.0000
 50
270.0000
  0
INSERT
  8
31
  2
RECT158400X144000R10
 10
35.0000
 20
55.8500
 30
0.0000
 41
1.0000
 42
1.0000
 43
1.0000
 50
270.0000
  0
INSERT
  8
31
  2
RECT158400X144000R10
 10
35.0000
 20
54.1500
 30
0.0000
 41
1.0000
 42
1.0000
 43
1.0000
 50
270.0000
  0
INSERT
  8
31
  2
RECT158400X144000R10
 10
8.0000
 20
55.8500
 30
0.0000
 41
1.0000
 42
1.0000
 43
1.0000
 50
270.0000
  0
INSERT
  8
31
  2
RECT158400X144000R10
 10
8.0000
 20
54.1500
 30
0.0000
 41
1.0000
 42
1.0000
 43
1.0000
 50
270.0000
  0
INSERT
  8
31
  2
RECT158400X144000R10
 10
20.0000
 20
12.1500
 30
0.0000
 41
1.0000
 42
1.0000
 43
1.0000
 50
90.0000
  0
INSERT
  8
31
  2
RECT158400X144000R10
 10
20.0000
 20
13.8500
 30
0.0000
 41
1.0000
 42
1.0000
 43
1.0000
 50
90.0000
  0
INSERT
  8
31
  2
RECT158400X144000R10
 10
27.0000
 20
20.1500
 30
0.0000
 41
1.0000
 42
1.0000
 43
1.0000
 50
90.0000
  0
INSERT
  8
31
  2
RECT158400X144000R10
 10
27.0000
 20
21.8500
 30
0.0000
 41
1.0000
 42
1.0000
 43
1.0000
 50
90.0000
  0
INSERT
  8
31
  2
RECT158400X144000R10
 10
13.0000
 20
21.1500
 30
0.0000
 41
1.0000
 42
1.0000
 43
1.0000
 50
90.0000
  0
INSERT
  8
31
  2
RECT158400X144000R10
 10
13.0000
 20
22.8500
 30
0.0000
 41
1.0000
 42
1.0000
 43
1.0000
 50
90.0000
  0
INSERT
  8
31
  2
RECT158400X144000R10
 10
10.0000
 20
30.1500
 30
0.0000
 41
1.0000
 42
1.0000
 43
1.0000
 50
90.0000
  0
INSERT
  8
31
  2
RECT158400X144000R10
 10
10.0000
 20
31.8500
 30
0.0000
 41
1.0000
 42
1.0000
 43
1.0000
 50
90.0000
  0
INSERT
  8
31
  2
RECT158400X144000R10
 10
26.0000
 20
25.8500
 30
0.0000
 41
1.0000
 42
1.0000
 43
1.0000
 50
270.0000
  0
INSERT
  8
31
  2
RECT158400X144000R10
 10
26.0000
 20
24.1500
 30
0.0000
 41
1.0000
 42
1.0000
 43
1.0000
 50
270.0000
  0
INSERT
  8
31
  2
RECT158400X144000R10
 10
25.0000
 20
36.8500
 30
0.0000
 41
1.0000
 42
1.0000
 43
1.0000
 50
270.0000
  0
INSERT
  8
31
  2
RECT158400X144000R10
 10
25.0000
 20
35.1500
 30
0.0000
 41
1.0000
 42
1.0000
 43
1.0000
 50
270.0000
  0
INSERT
  8
31
  2
RECT158400X144000R10
 10
12.0000
 20
9.8500
 30
0.0000
 41
1.0000
 42
1.0000
 43
1.0000
 50
270.0000
  0
INSERT
  8
31
  2
RECT158400X144000R10
 10
12.0000
 20
8.1500
 30
0.0000
 41
1.0000
 42
1.0000
 43
1.0000
 50
270.0000
  0
INSERT
  8
31
  2
RECT158400X144000R10
 10
18.1500
 20
3.0000
 30
0.0000
 41
1.0000
 42
1.0000
 43
1.0000
 50
0.0000
  0
INSERT
  8
31
  2
RECT158400X144000R10
 10
19.8500
 20
3.0000
 30
0.0000
 41
1.0000
 42
1.0000
 43
1.0000
 50
0.0000
  0
INSERT
  8
31
  2
RECT158400X144000R10
 10
10.0000
 20
4.1500
 30
0.0000
 41
1.0000
 42
1.0000
 43
1.0000
 50
90.0000
  0
INSERT
  8
31
  2
RECT158400X144000R10
 10
10.0000
 20
5.8500
 30
0.0000
 41
1.0000
 42
1.0000
 43
1.0000
 50
90.0000
  0
INSERT
  8
31
  2
RECT158400X144000R10
 10
28.0000
 20
59.8500
 30
0.0000
 41
1.0000
 42
1.0000
 43
1.0000
 50
270.0000
  0
INSERT
  8
31
  2
RECT158400X144000R10
 10
28.0000
 20
58.1500
 30
0.0000
 41
1.0000
 42
1.0000
 43
1.0000
 50
270.0000
  0
INSERT
  8
31
  2
RECT158400X144000R10
 10
12.0000
 20
59.8500
 30
0.0000
 41
1.0000
 42
1.0000
 43
1.0000
 50
270.0000
  0
INSERT
  8
31
  2
RECT158400X144000R10
 10
12.0000
 20
58.1500
 30
0.0000
 41
1.0000
 42
1.0000
 43
1.0000
 50
270.0000
  0
INSERT
  8
31
  2
RECT158400X144000R10
 10
20.0000
 20
59.8500
 30
0.0000
 41
1.0000
 42
1.0000
 43
1.0000
 50
270.0000
  0
INSERT
  8
31
  2
RECT158400X144000R10
 10
20.0000
 20
58.1500
 30
0.0000
 41
1.0000
 42
1.0000
 43
1.0000
 50
270.0000
  0
INSERT
  8
31
  2
RECT158400X144000R10
 10
4.0000
 20
59.8500
 30
0.0000
 41
1.0000
 42
1.0000
 43
1.0000
 50
270.0000
  0
INSERT
  8
31
  2
RECT158400X144000R10
 10
4.0000
 20
58.1500
 30
0.0000
 41
1.0000
 42
1.0000
 43
1.0000
 50
270.0000
  0
INSERT
  8
31
  2
RECT158400X144000R10
 10
28.2500
 20
14.8500
 30
0.0000
 41
1.0000
 42
1.0000
 43
1.0000
 50
270.0000
  0
INSERT
  8
31
  2
RECT158400X144000R10
 10
28.2500
 20
13.1500
 30
0.0000
 41
1.0000
 42
1.0000
 43
1.0000
 50
270.0000
  0
INSERT
  8
31
  2
RECT158400X144000R10
 10
17.1500
 20
40.5000
 30
0.0000
 41
1.0000
 42
1.0000
 43
1.0000
 50
0.0000
  0
INSERT
  8
31
  2
RECT158400X144000R10
 10
18.8500
 20
40.5000
 30
0.0000
 41
1.0000
 42
1.0000
 43
1.0000
 50
0.0000
  0
INSERT
  8
31
  2
RECT86400X115200R17
 10
10.0000
 20
14.2500
 30
0.0000
 41
1.0000
 42
1.0000
 43
1.0000
 50
0.0000
  0
INSERT
  8
31
  2
RECT86400X115200R17
 10
10.0000
 20
11.7500
 30
0.0000
 41
1.0000
 42
1.0000
 43
1.0000
 50
0.0000
  0
INSERT
  8
31
  2
RECT86400X115200R17
 10
5.0000
 20
47.2500
 30
0.0000
 41
1.0000
 42
1.0000
 43
1.0000
 50
0.0000
  0
INSERT
  8
31
  2
RECT86400X115200R17
 10
5.0000
 20
44.7500
 30
0.0000
 41
1.0000
 42
1.0000
 43
1.0000
 50
0.0000
  0
INSERT
  8
31
  2
RECT95098X292608R15
 10
20.5734
 20
42.1900
 30
0.0000
 41
1.0000
 42
1.0000
 43
1.0000
 50
90.0000
  0
INSERT
  8
31
  2
RECT95098X292608R15
 10
20.5734
 20
43.4600
 30
0.0000
 41
1.0000
 42
1.0000
 43
1.0000
 50
90.0000
  0
INSERT
  8
31
  2
RECT95098X292608R15
 10
20.5734
 20
44.7300
 30
0.0000
 41
1.0000
 42
1.0000
 43
1.0000
 50
90.0000
  0
INSERT
  8
31
  2
RECT95098X292608R15
 10
20.5734
 20
46.0000
 30
0.0000
 41
1.0000
 42
1.0000
 43
1.0000
 50
90.0000
  0
INSERT
  8
31
  2
RECT95098X292608R15
 10
20.5734
 20
47.2700
 30
0.0000
 41
1.0000
 42
1.0000
 43
1.0000
 50
90.0000
  0
INSERT
  8
31
  2
RECT95098X292608R15
 10
20.5734
 20
48.5400
 30
0.0000
 41
1.0000
 42
1.0000
 43
1.0000
 50
90.0000
  0
INSERT
  8
31
  2
RECT95098X292608R15
 10
20.5734
 20
49.8100
 30
0.0000
 41
1.0000
 42
1.0000
 43
1.0000
 50
90.0000
  0
INSERT
  8
31
  2
RECT95098X292608R15
 10
14.4266
 20
49.8100
 30
0.0000
 41
1.0000
 42
1.0000
 43
1.0000
 50
90.0000
  0
INSERT
  8
31
  2
RECT95098X292608R15
 10
14.4266
 20
48.5400
 30
0.0000
 41
1.0000
 42
1.0000
 43
1.0000
 50
90.0000
  0
INSERT
  8
31
  2
RECT95098X292608R15
 10
14.4266
 20
47.2700
 30
0.0000
 41
1.0000
 42
1.0000
 43
1.0000
 50
90.0000
  0
INSERT
  8
31
  2
RECT95098X292608R15
 10
14.4266
 20
46.0000
 30
0.0000
 41
1.0000
 42
1.0000
 43
1.0000
 50
90.0000
  0
INSERT
  8
31
  2
RECT95098X292608R15
 10
14.4266
 20
44.7300
 30
0.0000
 41
1.0000
 42
1.0000
 43
1.0000
 50
90.0000
  0
INSERT
  8
31
  2
RECT95098X292608R15
 10
14.4266
 20
43.4600
 30
0.0000
 41
1.0000
 42
1.0000
 43
1.0000
 50
90.0000
  0
INSERT
  8
31
  2
RECT95098X292608R15
 10
14.4266
 20
42.1900
 30
0.0000
 41
1.0000
 42
1.0000
 43
1.0000
 50
90.0000
  0
INSERT
  8
31
  2
RECT158400X144000R10
 10
7.8500
 20
43.0000
 30
0.0000
 41
1.0000
 42
1.0000
 43
1.0000
 50
180.0000
  0
INSERT
  8
31
  2
RECT158400X144000R10
 10
6.1500
 20
43.0000
 30
0.0000
 41
1.0000
 42
1.0000
 43
1.0000
 50
180.0000
  0
INSERT
  8
31
  2
RECT115200X115200R13
 10
35.0000
 20
36.2500
 30
0.0000
 41
1.0000
 42
1.0000
 43
1.0000
 50
0.0000
  0
INSERT
  8
31
  2
RECT115200X115200R13
 10
35.0000
 20
37.7500
 30
0.0000
 41
1.0000
 42
1.0000
 43
1.0000
 50
0.0000
  0
INSERT
  8
31
  2
RECT115200X115200R13
 10
35.0000
 20
33.2500
 30
0.0000
 41
1.0000
 42
1.0000
 43
1.0000
 50
0.0000
  0
INSERT
  8
31
  2
RECT115200X115200R13
 10
35.0000
 20
34.7500
 30
0.0000
 41
1.0000
 42
1.0000
 43
1.0000
 50
0.0000
  0
INSERT
  8
31
  2
RECT115200X115200R13
 10
35.0000
 20
39.2500
 30
0.0000
 41
1.0000
 42
1.0000
 43
1.0000
 50
0.0000
  0
INSERT
  8
31
  2
RECT115200X115200R13
 10
35.0000
 20
40.7500
 30
0.0000
 41
1.0000
 42
1.0000
 43
1.0000
 50
0.0000
  0
INSERT
  8
31
  2
RECT115200X115200R13
 10
35.0000
 20
42.2500
 30
0.0000
 41
1.0000
 42
1.0000
 43
1.0000
 50
0.0000
  0
INSERT
  8
31
  2
RECT115200X115200R13
 10
35.0000
 20
43.7500
 30
0.0000
 41
1.0000
 42
1.0000
 43
1.0000
 50
0.0000
  0
INSERT
  8
31
  2
RECT230400X432000R10
 10
29.2800
 20
10.3100
 30
0.0000
 41
1.0000
 42
1.0000
 43
1.0000
 50
180.0000
  0
INSERT
  8
31
  2
RECT230400X432000R10
 10
24.7200
 20
10.3100
 30
0.0000
 41
1.0000
 42
1.0000
 43
1.0000
 50
180.0000
  0
INSERT
  8
31
  2
RECT694944X822960R10
 10
27.0000
 20
3.4120
 30
0.0000
 41
1.0000
 42
1.0000
 43
1.0000
 50
180.0000
  0
INSERT
  8
31
  2
RECT144000X158400R10
 10
17.1652
 20
18.5366
 30
0.0000
 41
1.0000
 42
1.0000
 43
1.0000
 50
0.0000
  0
INSERT
  8
31
  2
RECT144000X158400R10
 10
18.8652
 20
18.5366
 30
0.0000
 41
1.0000
 42
1.0000
 43
1.0000
 50
0.0000
  0
INSERT
  8
31
  2
RECT144000X158400R10
 10
30.0000
 20
31.8500
 30
0.0000
 41
1.0000
 42
1.0000
 43
1.0000
 50
270.0000
  0
INSERT
  8
31
  2
RECT144000X158400R10
 10
30.0000
 20
30.1500
 30
0.0000
 41
1.0000
 42
1.0000
 43
1.0000
 50
270.0000
  0
INSERT
  8
31
  2
RECT144000X158400R10
 10
30.0000
 20
35.8500
 30
0.0000
 41
1.0000
 42
1.0000
 43
1.0000
 50
270.0000
  0
INSERT
  8
31
  2
RECT144000X158400R10
 10
30.0000
 20
34.1500
 30
0.0000
 41
1.0000
 42
1.0000
 43
1.0000
 50
270.0000
  0
INSERT
  8
31
  2
RECT144000X158400R10
 10
2.0000
 20
46.8500
 30
0.0000
 41
1.0000
 42
1.0000
 43
1.0000
 50
270.0000
  0
INSERT
  8
31
  2
RECT144000X158400R10
 10
2.0000
 20
45.1500
 30
0.0000
 41
1.0000
 42
1.0000
 43
1.0000
 50
270.0000
  0
INSERT
  8
31
  2
RECT144000X158400R10
 10
23.0000
 20
54.1500
 30
0.0000
 41
1.0000
 42
1.0000
 43
1.0000
 50
90.0000
  0
INSERT
  8
31
  2
RECT144000X158400R10
 10
23.0000
 20
55.8500
 30
0.0000
 41
1.0000
 42
1.0000
 43
1.0000
 50
90.0000
  0
INSERT
  8
31
  2
RECT144000X158400R10
 10
20.0000
 20
54.1500
 30
0.0000
 41
1.0000
 42
1.0000
 43
1.0000
 50
90.0000
  0
INSERT
  8
31
  2
RECT144000X158400R10
 10
20.0000
 20
55.8500
 30
0.0000
 41
1.0000
 42
1.0000
 43
1.0000
 50
90.0000
  0
INSERT
  8
31
  2
RECT144000X158400R10
 10
14.0000
 20
54.1500
 30
0.0000
 41
1.0000
 42
1.0000
 43
1.0000
 50
90.0000
  0
INSERT
  8
31
  2
RECT144000X158400R10
 10
14.0000
 20
55.8500
 30
0.0000
 41
1.0000
 42
1.0000
 43
1.0000
 50
90.0000
  0
INSERT
  8
31
  2
RECT144000X158400R10
 10
11.0000
 20
54.1500
 30
0.0000
 41
1.0000
 42
1.0000
 43
1.0000
 50
90.0000
  0
INSERT
  8
31
  2
RECT144000X158400R10
 10
11.0000
 20
55.8500
 30
0.0000
 41
1.0000
 42
1.0000
 43
1.0000
 50
90.0000
  0
INSERT
  8
31
  2
RECT144000X158400R10
 10
29.0000
 20
54.1500
 30
0.0000
 41
1.0000
 42
1.0000
 43
1.0000
 50
90.0000
  0
INSERT
  8
31
  2
RECT144000X158400R10
 10
29.0000
 20
55.8500
 30
0.0000
 41
1.0000
 42
1.0000
 43
1.0000
 50
90.0000
  0
INSERT
  8
31
  2
RECT144000X158400R10
 10
32.0000
 20
54.1500
 30
0.0000
 41
1.0000
 42
1.0000
 43
1.0000
 50
90.0000
  0
INSERT
  8
31
  2
RECT144000X158400R10
 10
32.0000
 20
55.8500
 30
0.0000
 41
1.0000
 42
1.0000
 43
1.0000
 50
90.0000
  0
INSERT
  8
31
  2
RECT144000X158400R10
 10
5.0000
 20
54.1500
 30
0.0000
 41
1.0000
 42
1.0000
 43
1.0000
 50
90.0000
  0
INSERT
  8
31
  2
RECT144000X158400R10
 10
5.0000
 20
55.8500
 30
0.0000
 41
1.0000
 42
1.0000
 43
1.0000
 50
90.0000
  0
INSERT
  8
31
  2
RECT144000X158400R10
 10
2.0000
 20
54.1500
 30
0.0000
 41
1.0000
 42
1.0000
 43
1.0000
 50
90.0000
  0
INSERT
  8
31
  2
RECT144000X158400R10
 10
2.0000
 20
55.8500
 30
0.0000
 41
1.0000
 42
1.0000
 43
1.0000
 50
90.0000
  0
INSERT
  8
31
  2
RECT144000X158400R10
 10
28.0000
 20
18.8500
 30
0.0000
 41
1.0000
 42
1.0000
 43
1.0000
 50
270.0000
  0
INSERT
  8
31
  2
RECT144000X158400R10
 10
28.0000
 20
17.1500
 30
0.0000
 41
1.0000
 42
1.0000
 43
1.0000
 50
270.0000
  0
INSERT
  8
31
  2
RECT144000X158400R10
 10
22.0000
 20
13.8500
 30
0.0000
 41
1.0000
 42
1.0000
 43
1.0000
 50
270.0000
  0
INSERT
  8
31
  2
RECT144000X158400R10
 10
22.0000
 20
12.1500
 30
0.0000
 41
1.0000
 42
1.0000
 43
1.0000
 50
270.0000
  0
INSERT
  8
31
  2
RECT144000X158400R10
 10
30.2500
 20
14.8500
 30
0.0000
 41
1.0000
 42
1.0000
 43
1.0000
 50
270.0000
  0
INSERT
  8
31
  2
RECT144000X158400R10
 10
30.2500
 20
13.1500
 30
0.0000
 41
1.0000
 42
1.0000
 43
1.0000
 50
270.0000
  0
INSERT
  8
31
  2
RECT144000X158400R10
 10
22.0000
 20
19.8500
 30
0.0000
 41
1.0000
 42
1.0000
 43
1.0000
 50
270.0000
  0
INSERT
  8
31
  2
RECT144000X158400R10
 10
22.0000
 20
18.1500
 30
0.0000
 41
1.0000
 42
1.0000
 43
1.0000
 50
270.0000
  0
INSERT
  8
31
  2
RECT144000X158400R10
 10
18.1500
 20
5.0000
 30
0.0000
 41
1.0000
 42
1.0000
 43
1.0000
 50
0.0000
  0
INSERT
  8
31
  2
RECT144000X158400R10
 10
19.8500
 20
5.0000
 30
0.0000
 41
1.0000
 42
1.0000
 43
1.0000
 50
0.0000
  0
INSERT
  8
31
  2
RECT144000X158400R10
 10
10.0000
 20
8.1500
 30
0.0000
 41
1.0000
 42
1.0000
 43
1.0000
 50
90.0000
  0
INSERT
  8
31
  2
RECT144000X158400R10
 10
10.0000
 20
9.8500
 30
0.0000
 41
1.0000
 42
1.0000
 43
1.0000
 50
90.0000
  0
INSERT
  8
31
  2
RECT144000X158400R10
 10
8.0000
 20
8.1500
 30
0.0000
 41
1.0000
 42
1.0000
 43
1.0000
 50
90.0000
  0
INSERT
  8
31
  2
RECT144000X158400R10
 10
8.0000
 20
9.8500
 30
0.0000
 41
1.0000
 42
1.0000
 43
1.0000
 50
90.0000
  0
INSERT
  8
31
  2
RECT144000X158400R10
 10
30.0000
 20
38.1500
 30
0.0000
 41
1.0000
 42
1.0000
 43
1.0000
 50
90.0000
  0
INSERT
  8
31
  2
RECT144000X158400R10
 10
30.0000
 20
39.8500
 30
0.0000
 41
1.0000
 42
1.0000
 43
1.0000
 50
90.0000
  0
INSERT
  8
31
  2
RECT144000X158400R10
 10
30.0000
 20
43.8500
 30
0.0000
 41
1.0000
 42
1.0000
 43
1.0000
 50
270.0000
  0
INSERT
  8
31
  2
RECT144000X158400R10
 10
30.0000
 20
42.1500
 30
0.0000
 41
1.0000
 42
1.0000
 43
1.0000
 50
270.0000
  0
INSERT
  8
31
  2
RECT144000X158400R10
 10
25.0000
 20
21.8500
 30
0.0000
 41
1.0000
 42
1.0000
 43
1.0000
 50
270.0000
  0
INSERT
  8
31
  2
RECT144000X158400R10
 10
25.0000
 20
20.1500
 30
0.0000
 41
1.0000
 42
1.0000
 43
1.0000
 50
270.0000
  0
INSERT
  8
31
  2
RECT86400X172800R17
 10
15.8500
 20
13.9500
 30
0.0000
 41
1.0000
 42
1.0000
 43
1.0000
 50
270.0000
  0
INSERT
  8
31
  2
RECT86400X172800R17
 10
18.1500
 20
13.0000
 30
0.0000
 41
1.0000
 42
1.0000
 43
1.0000
 50
270.0000
  0
INSERT
  8
31
  2
RECT86400X172800R17
 10
18.1500
 20
12.0500
 30
0.0000
 41
1.0000
 42
1.0000
 43
1.0000
 50
270.0000
  0
INSERT
  8
31
  2
RECT86400X172800R17
 10
18.1500
 20
13.9500
 30
0.0000
 41
1.0000
 42
1.0000
 43
1.0000
 50
270.0000
  0
INSERT
  8
31
  2
RECT86400X172800R17
 10
15.8500
 20
12.0500
 30
0.0000
 41
1.0000
 42
1.0000
 43
1.0000
 50
270.0000
  0
INSERT
  8
31
  2
RECT39872X172800R34
 10
20.6010
 20
25.7525
 30
0.0000
 41
1.0000
 42
1.0000
 43
1.0000
 50
45.0000
  0
INSERT
  8
31
  2
RECT39872X172800R34
 10
20.9546
 20
26.1061
 30
0.0000
 41
1.0000
 42
1.0000
 43
1.0000
 50
45.0000
  0
INSERT
  8
31
  2
RECT39872X172800R34
 10
21.3081
 20
26.4596
 30
0.0000
 41
1.0000
 42
1.0000
 43
1.0000
 50
45.0000
  0
INSERT
  8
31
  2
RECT39872X172800R34
 10
21.6617
 20
26.8132
 30
0.0000
 41
1.0000
 42
1.0000
 43
1.0000
 50
45.0000
  0
INSERT
  8
31
  2
RECT39872X172800R34
 10
22.0153
 20
27.1667
 30
0.0000
 41
1.0000
 42
1.0000
 43
1.0000
 50
45.0000
  0
INSERT
  8
31
  2
RECT39872X172800R34
 10
22.3688
 20
27.5203
 30
0.0000
 41
1.0000
 42
1.0000
 43
1.0000
 50
45.0000
  0
INSERT
  8
31
  2
RECT39872X172800R34
 10
22.7224
 20
27.8738
 30
0.0000
 41
1.0000
 42
1.0000
 43
1.0000
 50
45.0000
  0
INSERT
  8
31
  2
RECT39872X172800R34
 10
23.0759
 20
28.2274
 30
0.0000
 41
1.0000
 42
1.0000
 43
1.0000
 50
45.0000
  0
INSERT
  8
31
  2
RECT39872X172800R34
 10
23.4295
 20
28.5809
 30
0.0000
 41
1.0000
 42
1.0000
 43
1.0000
 50
45.0000
  0
INSERT
  8
31
  2
RECT39872X172800R34
 10
23.7830
 20
28.9345
 30
0.0000
 41
1.0000
 42
1.0000
 43
1.0000
 50
45.0000
  0
INSERT
  8
31
  2
RECT39872X172800R34
 10
24.1366
 20
29.2880
 30
0.0000
 41
1.0000
 42
1.0000
 43
1.0000
 50
45.0000
  0
INSERT
  8
31
  2
RECT39872X172800R34
 10
24.4901
 20
29.6416
 30
0.0000
 41
1.0000
 42
1.0000
 43
1.0000
 50
45.0000
  0
INSERT
  8
31
  2
RECT39872X172800R34
 10
24.4901
 20
31.7629
 30
0.0000
 41
1.0000
 42
1.0000
 43
1.0000
 50
135.0000
  0
INSERT
  8
31
  2
RECT39872X172800R34
 10
24.1366
 20
32.1165
 30
0.0000
 41
1.0000
 42
1.0000
 43
1.0000
 50
135.0000
  0
INSERT
  8
31
  2
RECT39872X172800R34
 10
23.7830
 20
32.4700
 30
0.0000
 41
1.0000
 42
1.0000
 43
1.0000
 50
135.0000
  0
INSERT
  8
31
  2
RECT39872X172800R34
 10
23.4295
 20
32.8236
 30
0.0000
 41
1.0000
 42
1.0000
 43
1.0000
 50
135.0000
  0
INSERT
  8
31
  2
RECT39872X172800R34
 10
23.0759
 20
33.1771
 30
0.0000
 41
1.0000
 42
1.0000
 43
1.0000
 50
135.0000
  0
INSERT
  8
31
  2
RECT39872X172800R34
 10
22.7224
 20
33.5307
 30
0.0000
 41
1.0000
 42
1.0000
 43
1.0000
 50
135.0000
  0
INSERT
  8
31
  2
RECT39872X172800R34
 10
22.3688
 20
33.8842
 30
0.0000
 41
1.0000
 42
1.0000
 43
1.0000
 50
135.0000
  0
INSERT
  8
31
  2
RECT39872X172800R34
 10
22.0153
 20
34.2378
 30
0.0000
 41
1.0000
 42
1.0000
 43
1.0000
 50
135.0000
  0
INSERT
  8
31
  2
RECT39872X172800R34
 10
21.6617
 20
34.5913
 30
0.0000
 41
1.0000
 42
1.0000
 43
1.0000
 50
135.0000
  0
INSERT
  8
31
  2
RECT39872X172800R34
 10
21.3081
 20
34.9449
 30
0.0000
 41
1.0000
 42
1.0000
 43
1.0000
 50
135.0000
  0
INSERT
  8
31
  2
RECT39872X172800R34
 10
20.9546
 20
35.2985
 30
0.0000
 41
1.0000
 42
1.0000
 43
1.0000
 50
135.0000
  0
INSERT
  8
31
  2
RECT39872X172800R34
 10
20.6010
 20
35.6520
 30
0.0000
 41
1.0000
 42
1.0000
 43
1.0000
 50
135.0000
  0
INSERT
  8
31
  2
RECT39872X172800R34
 10
18.4797
 20
35.6520
 30
0.0000
 41
1.0000
 42
1.0000
 43
1.0000
 50
45.0000
  0
INSERT
  8
31
  2
RECT39872X172800R34
 10
18.1262
 20
35.2985
 30
0.0000
 41
1.0000
 42
1.0000
 43
1.0000
 50
45.0000
  0
INSERT
  8
31
  2
RECT39872X172800R34
 10
17.7726
 20
34.9449
 30
0.0000
 41
1.0000
 42
1.0000
 43
1.0000
 50
45.0000
  0
INSERT
  8
31
  2
RECT39872X172800R34
 10
17.4191
 20
34.5913
 30
0.0000
 41
1.0000
 42
1.0000
 43
1.0000
 50
45.0000
  0
INSERT
  8
31
  2
RECT39872X172800R34
 10
17.0655
 20
34.2378
 30
0.0000
 41
1.0000
 42
1.0000
 43
1.0000
 50
45.0000
  0
INSERT
  8
31
  2
RECT39872X172800R34
 10
16.7120
 20
33.8842
 30
0.0000
 41
1.0000
 42
1.0000
 43
1.0000
 50
45.0000
  0
INSERT
  8
31
  2
RECT39872X172800R34
 10
16.3584
 20
33.5307
 30
0.0000
 41
1.0000
 42
1.0000
 43
1.0000
 50
45.0000
  0
INSERT
  8
31
  2
RECT39872X172800R34
 10
16.0048
 20
33.1771
 30
0.0000
 41
1.0000
 42
1.0000
 43
1.0000
 50
45.0000
  0
INSERT
  8
31
  2
RECT39872X172800R34
 10
15.6513
 20
32.8236
 30
0.0000
 41
1.0000
 42
1.0000
 43
1.0000
 50
45.0000
  0
INSERT
  8
31
  2
RECT39872X172800R34
 10
15.2977
 20
32.4700
 30
0.0000
 41
1.0000
 42
1.0000
 43
1.0000
 50
45.0000
  0
INSERT
  8
31
  2
RECT39872X172800R34
 10
14.9442
 20
32.1165
 30
0.0000
 41
1.0000
 42
1.0000
 43
1.0000
 50
45.0000
  0
INSERT
  8
31
  2
RECT39872X172800R34
 10
14.5906
 20
31.7629
 30
0.0000
 41
1.0000
 42
1.0000
 43
1.0000
 50
45.0000
  0
INSERT
  8
31
  2
RECT39872X172800R34
 10
14.5906
 20
29.6416
 30
0.0000
 41
1.0000
 42
1.0000
 43
1.0000
 50
135.0000
  0
INSERT
  8
31
  2
RECT39872X172800R34
 10
14.9442
 20
29.2880
 30
0.0000
 41
1.0000
 42
1.0000
 43
1.0000
 50
135.0000
  0
INSERT
  8
31
  2
RECT39872X172800R34
 10
15.2977
 20
28.9345
 30
0.0000
 41
1.0000
 42
1.0000
 43
1.0000
 50
135.0000
  0
INSERT
  8
31
  2
RECT39872X172800R34
 10
15.6513
 20
28.5809
 30
0.0000
 41
1.0000
 42
1.0000
 43
1.0000
 50
135.0000
  0
INSERT
  8
31
  2
RECT39872X172800R34
 10
16.0048
 20
28.2274
 30
0.0000
 41
1.0000
 42
1.0000
 43
1.0000
 50
135.0000
  0
INSERT
  8
31
  2
RECT39872X172800R34
 10
16.3584
 20
27.8738
 30
0.0000
 41
1.0000
 42
1.0000
 43
1.0000
 50
135.0000
  0
INSERT
  8
31
  2
RECT39872X172800R34
 10
16.7120
 20
27.5203
 30
0.0000
 41
1.0000
 42
1.0000
 43
1.0000
 50
135.0000
  0
INSERT
  8
31
  2
RECT39872X172800R34
 10
17.0655
 20
27.1667
 30
0.0000
 41
1.0000
 42
1.0000
 43
1.0000
 50
135.0000
  0
INSERT
  8
31
  2
RECT39872X172800R34
 10
17.4191
 20
26.8132
 30
0.0000
 41
1.0000
 42
1.0000
 43
1.0000
 50
135.0000
  0
INSERT
  8
31
  2
RECT39872X172800R34
 10
17.7726
 20
26.4596
 30
0.0000
 41
1.0000
 42
1.0000
 43
1.0000
 50
135.0000
  0
INSERT
  8
31
  2
RECT39872X172800R34
 10
18.1262
 20
26.1061
 30
0.0000
 41
1.0000
 42
1.0000
 43
1.0000
 50
135.0000
  0
INSERT
  8
31
  2
RECT39872X172800R34
 10
18.4797
 20
25.7525
 30
0.0000
 41
1.0000
 42
1.0000
 43
1.0000
 50
135.0000
  0
INSERT
  8
31
  2
RECT79200X172800R18
 10
33.3001
 20
58.0500
 30
0.0000
 41
1.0000
 42
1.0000
 43
1.0000
 50
90.0000
  0
INSERT
  8
31
  2
RECT79200X172800R18
 10
33.3001
 20
59.0000
 30
0.0000
 41
1.0000
 42
1.0000
 43
1.0000
 50
90.0000
  0
INSERT
  8
31
  2
RECT79200X172800R18
 10
33.3001
 20
59.9500
 30
0.0000
 41
1.0000
 42
1.0000
 43
1.0000
 50
90.0000
  0
INSERT
  8
31
  2
RECT79200X172800R18
 10
30.6999
 20
59.9500
 30
0.0000
 41
1.0000
 42
1.0000
 43
1.0000
 50
90.0000
  0
INSERT
  8
31
  2
RECT79200X172800R18
 10
30.6999
 20
58.0500
 30
0.0000
 41
1.0000
 42
1.0000
 43
1.0000
 50
90.0000
  0
INSERT
  8
31
  2
RECT259200X273600R10
 10
2.0700
 20
33.9250
 30
0.0000
 41
1.0000
 42
1.0000
 43
1.0000
 50
270.0000
  0
INSERT
  8
31
  2
RECT259200X273600R10
 10
2.0700
 20
41.5250
 30
0.0000
 41
1.0000
 42
1.0000
 43
1.0000
 50
270.0000
  0
INSERT
  8
31
  2
RECT273600X273600R10
 10
2.0700
 20
38.9250
 30
0.0000
 41
1.0000
 42
1.0000
 43
1.0000
 50
270.0000
  0
INSERT
  8
31
  2
RECT273600X273600R10
 10
2.0700
 20
36.5250
 30
0.0000
 41
1.0000
 42
1.0000
 43
1.0000
 50
270.0000
  0
INSERT
  8
31
  2
RECT302400X230400R10
 10
4.6200
 20
40.8250
 30
0.0000
 41
1.0000
 42
1.0000
 43
1.0000
 50
270.0000
  0
INSERT
  8
31
  2
RECT302400X230400R10
 10
4.6200
 20
34.6250
 30
0.0000
 41
1.0000
 42
1.0000
 43
1.0000
 50
270.0000
  0
INSERT
  8
31
  2
RECT55872X194400R25
 10
4.7700
 20
39.0250
 30
0.0000
 41
1.0000
 42
1.0000
 43
1.0000
 50
270.0000
  0
INSERT
  8
31
  2
RECT55872X194400R25
 10
4.7700
 20
38.3750
 30
0.0000
 41
1.0000
 42
1.0000
 43
1.0000
 50
270.0000
  0
INSERT
  8
31
  2
RECT55872X194400R25
 10
4.7700
 20
37.7250
 30
0.0000
 41
1.0000
 42
1.0000
 43
1.0000
 50
270.0000
  0
INSERT
  8
31
  2
RECT55872X194400R25
 10
4.7700
 20
37.0750
 30
0.0000
 41
1.0000
 42
1.0000
 43
1.0000
 50
270.0000
  0
INSERT
  8
31
  2
RECT55872X194400R25
 10
4.7700
 20
36.4250
 30
0.0000
 41
1.0000
 42
1.0000
 43
1.0000
 50
270.0000
  0
INSERT
  8
31
  2
RECT79200X172800R18
 10
17.3001
 20
58.0500
 30
0.0000
 41
1.0000
 42
1.0000
 43
1.0000
 50
90.0000
  0
INSERT
  8
31
  2
RECT79200X172800R18
 10
17.3001
 20
59.0000
 30
0.0000
 41
1.0000
 42
1.0000
 43
1.0000
 50
90.0000
  0
INSERT
  8
31
  2
RECT79200X172800R18
 10
17.3001
 20
59.9500
 30
0.0000
 41
1.0000
 42
1.0000
 43
1.0000
 50
90.0000
  0
INSERT
  8
31
  2
RECT79200X172800R18
 10
14.6999
 20
59.9500
 30
0.0000
 41
1.0000
 42
1.0000
 43
1.0000
 50
90.0000
  0
INSERT
  8
31
  2
RECT79200X172800R18
 10
14.6999
 20
58.0500
 30
0.0000
 41
1.0000
 42
1.0000
 43
1.0000
 50
90.0000
  0
INSERT
  8
31
  2
RECT79200X172800R18
 10
25.3001
 20
58.0500
 30
0.0000
 41
1.0000
 42
1.0000
 43
1.0000
 50
90.0000
  0
INSERT
  8
31
  2
RECT79200X172800R18
 10
25.3001
 20
59.0000
 30
0.0000
 41
1.0000
 42
1.0000
 43
1.0000
 50
90.0000
  0
INSERT
  8
31
  2
RECT79200X172800R18
 10
25.3001
 20
59.9500
 30
0.0000
 41
1.0000
 42
1.0000
 43
1.0000
 50
90.0000
  0
INSERT
  8
31
  2
RECT79200X172800R18
 10
22.6999
 20
59.9500
 30
0.0000
 41
1.0000
 42
1.0000
 43
1.0000
 50
90.0000
  0
INSERT
  8
31
  2
RECT79200X172800R18
 10
22.6999
 20
58.0500
 30
0.0000
 41
1.0000
 42
1.0000
 43
1.0000
 50
90.0000
  0
INSERT
  8
31
  2
RECT79200X172800R18
 10
9.3001
 20
58.0500
 30
0.0000
 41
1.0000
 42
1.0000
 43
1.0000
 50
90.0000
  0
INSERT
  8
31
  2
RECT79200X172800R18
 10
9.3001
 20
59.0000
 30
0.0000
 41
1.0000
 42
1.0000
 43
1.0000
 50
90.0000
  0
INSERT
  8
31
  2
RECT79200X172800R18
 10
9.3001
 20
59.9500
 30
0.0000
 41
1.0000
 42
1.0000
 43
1.0000
 50
90.0000
  0
INSERT
  8
31
  2
RECT79200X172800R18
 10
6.6999
 20
59.9500
 30
0.0000
 41
1.0000
 42
1.0000
 43
1.0000
 50
90.0000
  0
INSERT
  8
31
  2
RECT79200X172800R18
 10
6.6999
 20
58.0500
 30
0.0000
 41
1.0000
 42
1.0000
 43
1.0000
 50
90.0000
  0
INSERT
  8
31
  2
RECT79200X172800R18
 10
17.3001
 20
8.0500
 30
0.0000
 41
1.0000
 42
1.0000
 43
1.0000
 50
90.0000
  0
INSERT
  8
31
  2
RECT79200X172800R18
 10
17.3001
 20
9.0000
 30
0.0000
 41
1.0000
 42
1.0000
 43
1.0000
 50
90.0000
  0
INSERT
  8
31
  2
RECT79200X172800R18
 10
17.3001
 20
9.9500
 30
0.0000
 41
1.0000
 42
1.0000
 43
1.0000
 50
90.0000
  0
INSERT
  8
31
  2
RECT79200X172800R18
 10
14.6999
 20
9.9500
 30
0.0000
 41
1.0000
 42
1.0000
 43
1.0000
 50
90.0000
  0
INSERT
  8
31
  2
RECT79200X172800R18
 10
14.6999
 20
8.0500
 30
0.0000
 41
1.0000
 42
1.0000
 43
1.0000
 50
90.0000
  0
INSERT
  8
31
  2
RECT131040X175680R11
 10
20.0000
 20
7.3500
 30
0.0000
 41
1.0000
 42
1.0000
 43
1.0000
 50
90.0000
  0
INSERT
  8
31
  2
RECT131040X175680R11
 10
20.0000
 20
10.6500
 30
0.0000
 41
1.0000
 42
1.0000
 43
1.0000
 50
90.0000
  0
INSERT
  8
31
  2
RECT131040X175680R11
 10
27.3500
 20
63.0000
 30
0.0000
 41
1.0000
 42
1.0000
 43
1.0000
 50
0.0000
  0
INSERT
  8
31
  2
RECT131040X175680R11
 10
30.6500
 20
63.0000
 30
0.0000
 41
1.0000
 42
1.0000
 43
1.0000
 50
0.0000
  0
INSERT
  8
31
  2
RECT55872X86400R25
 10
14.8500
 20
62.0000
 30
0.0000
 41
1.0000
 42
1.0000
 43
1.0000
 50
0.0000
  0
INSERT
  8
31
  2
RECT55872X86400R25
 10
15.5000
 20
62.0000
 30
0.0000
 41
1.0000
 42
1.0000
 43
1.0000
 50
0.0000
  0
INSERT
  8
31
  2
RECT55872X86400R25
 10
16.1500
 20
62.0000
 30
0.0000
 41
1.0000
 42
1.0000
 43
1.0000
 50
0.0000
  0
INSERT
  8
31
  2
RECT55872X86400R25
 10
16.1500
 20
64.0000
 30
0.0000
 41
1.0000
 42
1.0000
 43
1.0000
 50
0.0000
  0
INSERT
  8
31
  2
RECT55872X86400R25
 10
15.5000
 20
64.0000
 30
0.0000
 41
1.0000
 42
1.0000
 43
1.0000
 50
0.0000
  0
INSERT
  8
31
  2
RECT55872X86400R25
 10
14.8500
 20
64.0000
 30
0.0000
 41
1.0000
 42
1.0000
 43
1.0000
 50
0.0000
  0
INSERT
  8
31
  2
RECT55872X86400R25
 10
9.0000
 20
39.6500
 30
0.0000
 41
1.0000
 42
1.0000
 43
1.0000
 50
270.0000
  0
INSERT
  8
31
  2
RECT55872X86400R25
 10
9.0000
 20
39.0000
 30
0.0000
 41
1.0000
 42
1.0000
 43
1.0000
 50
270.0000
  0
INSERT
  8
31
  2
RECT55872X86400R25
 10
9.0000
 20
38.3500
 30
0.0000
 41
1.0000
 42
1.0000
 43
1.0000
 50
270.0000
  0
INSERT
  8
31
  2
RECT55872X86400R25
 10
11.0000
 20
38.3500
 30
0.0000
 41
1.0000
 42
1.0000
 43
1.0000
 50
270.0000
  0
INSERT
  8
31
  2
RECT55872X86400R25
 10
11.0000
 20
39.0000
 30
0.0000
 41
1.0000
 42
1.0000
 43
1.0000
 50
270.0000
  0
INSERT
  8
31
  2
RECT55872X86400R25
 10
11.0000
 20
39.6500
 30
0.0000
 41
1.0000
 42
1.0000
 43
1.0000
 50
270.0000
  0
INSERT
  8
31
  2
RECT131040X175680R11
 10
7.0000
 20
31.3500
 30
0.0000
 41
1.0000
 42
1.0000
 43
1.0000
 50
90.0000
  0
INSERT
  8
31
  2
RECT131040X175680R11
 10
7.0000
 20
34.6500
 30
0.0000
 41
1.0000
 42
1.0000
 43
1.0000
 50
90.0000
  0
INSERT
  8
31
  2
RECT648000X259200R10
 10
12.3750
 20
4.0000
 30
0.0000
 41
1.0000
 42
1.0000
 43
1.0000
 50
90.0000
  0
INSERT
  8
31
  2
RECT648000X259200R10
 10
15.6250
 20
4.0000
 30
0.0000
 41
1.0000
 42
1.0000
 43
1.0000
 50
90.0000
  0
INSERT
  8
31
  2
RECT79200X172800R18
 10
25.9500
 20
17.3001
 30
0.0000
 41
1.0000
 42
1.0000
 43
1.0000
 50
180.0000
  0
INSERT
  8
31
  2
RECT79200X172800R18
 10
25.0000
 20
17.3001
 30
0.0000
 41
1.0000
 42
1.0000
 43
1.0000
 50
180.0000
  0
INSERT
  8
31
  2
RECT79200X172800R18
 10
24.0500
 20
17.3001
 30
0.0000
 41
1.0000
 42
1.0000
 43
1.0000
 50
180.0000
  0
INSERT
  8
31
  2
RECT79200X172800R18
 10
24.0500
 20
14.6999
 30
0.0000
 41
1.0000
 42
1.0000
 43
1.0000
 50
180.0000
  0
INSERT
  8
31
  2
RECT79200X172800R18
 10
25.9500
 20
14.6999
 30
0.0000
 41
1.0000
 42
1.0000
 43
1.0000
 50
180.0000
  0
ENDSEC
  0
EOF
