G75*
%MOIN*%
%OFA0B0*%
%FSLAX25Y25*%
%IPPOS*%
%LPD*%
%AMOC8*
5,1,8,0,0,1.08239X$1,22.5*
%
%ADD10C,0.12600*%
%ADD11C,0.06400*%
%ADD12OC8,0.06850*%
%ADD13OC8,0.06400*%
%ADD14C,0.06896*%
%ADD15C,0.10400*%
%ADD16C,0.05400*%
D10*
X0139595Y0041170D03*
X0139595Y0119910D03*
D11*
X0085540Y0183839D02*
X0085540Y0189839D01*
X0075540Y0189839D02*
X0075540Y0183839D01*
D12*
X0139595Y0086277D03*
X0133858Y0080540D03*
X0139595Y0074803D03*
D13*
X0012548Y0020343D03*
X0012548Y0030343D03*
X0012548Y0040343D03*
X0022548Y0040343D03*
X0022548Y0030343D03*
X0022548Y0020343D03*
X0023040Y0071524D03*
X0023040Y0081524D03*
X0023040Y0091524D03*
X0013040Y0091524D03*
X0013040Y0081524D03*
X0013040Y0071524D03*
X0078414Y0244831D03*
X0078414Y0254831D03*
X0088414Y0254831D03*
X0088414Y0244831D03*
X0098414Y0244831D03*
X0098414Y0254831D03*
D14*
X0007095Y0164398D03*
X0007095Y0138414D03*
D15*
X0096288Y0037233D03*
X0108099Y0037233D03*
D16*
X0025422Y0104162D03*
X0025422Y0112036D03*
X0025422Y0119910D03*
X0017548Y0112036D03*
X0013611Y0104162D03*
X0013611Y0119910D03*
X0064792Y0218335D03*
X0084477Y0218335D03*
X0104162Y0218335D03*
X0123847Y0218335D03*
M02*
