G75*
%MOIN*%
%OFA0B0*%
%FSLAX25Y25*%
%IPPOS*%
%LPD*%
%AMOC8*
5,1,8,0,0,1.08239X$1,22.5*
%
%ADD10C,0.00000*%
%ADD11C,0.12600*%
%ADD12C,0.06400*%
%ADD13OC8,0.06850*%
%ADD14OC8,0.06400*%
D10*
X0004419Y0001800D02*
X0004419Y0261643D01*
X0154025Y0261643D01*
X0154045Y0001800D01*
X0004419Y0001800D01*
X0136114Y0041170D02*
X0136116Y0041326D01*
X0136122Y0041481D01*
X0136132Y0041637D01*
X0136146Y0041792D01*
X0136164Y0041947D01*
X0136185Y0042101D01*
X0136211Y0042255D01*
X0136241Y0042408D01*
X0136274Y0042560D01*
X0136312Y0042711D01*
X0136353Y0042861D01*
X0136398Y0043010D01*
X0136447Y0043158D01*
X0136500Y0043305D01*
X0136556Y0043450D01*
X0136616Y0043594D01*
X0136680Y0043736D01*
X0136747Y0043877D01*
X0136818Y0044015D01*
X0136893Y0044152D01*
X0136971Y0044287D01*
X0137052Y0044420D01*
X0137137Y0044551D01*
X0137225Y0044679D01*
X0137316Y0044806D01*
X0137410Y0044930D01*
X0137508Y0045051D01*
X0137609Y0045170D01*
X0137712Y0045286D01*
X0137819Y0045400D01*
X0137928Y0045511D01*
X0138041Y0045619D01*
X0138156Y0045724D01*
X0138273Y0045826D01*
X0138393Y0045925D01*
X0138516Y0046021D01*
X0138641Y0046114D01*
X0138769Y0046204D01*
X0138898Y0046290D01*
X0139030Y0046373D01*
X0139164Y0046453D01*
X0139300Y0046529D01*
X0139438Y0046602D01*
X0139577Y0046671D01*
X0139719Y0046736D01*
X0139862Y0046798D01*
X0140006Y0046856D01*
X0140152Y0046911D01*
X0140299Y0046962D01*
X0140448Y0047009D01*
X0140598Y0047052D01*
X0140748Y0047091D01*
X0140900Y0047127D01*
X0141053Y0047158D01*
X0141206Y0047186D01*
X0141360Y0047210D01*
X0141514Y0047230D01*
X0141669Y0047246D01*
X0141825Y0047258D01*
X0141980Y0047266D01*
X0142136Y0047270D01*
X0142292Y0047270D01*
X0142448Y0047266D01*
X0142603Y0047258D01*
X0142759Y0047246D01*
X0142914Y0047230D01*
X0143068Y0047210D01*
X0143222Y0047186D01*
X0143375Y0047158D01*
X0143528Y0047127D01*
X0143680Y0047091D01*
X0143830Y0047052D01*
X0143980Y0047009D01*
X0144129Y0046962D01*
X0144276Y0046911D01*
X0144422Y0046856D01*
X0144566Y0046798D01*
X0144709Y0046736D01*
X0144851Y0046671D01*
X0144990Y0046602D01*
X0145128Y0046529D01*
X0145264Y0046453D01*
X0145398Y0046373D01*
X0145530Y0046290D01*
X0145659Y0046204D01*
X0145787Y0046114D01*
X0145912Y0046021D01*
X0146035Y0045925D01*
X0146155Y0045826D01*
X0146272Y0045724D01*
X0146387Y0045619D01*
X0146500Y0045511D01*
X0146609Y0045400D01*
X0146716Y0045286D01*
X0146819Y0045170D01*
X0146920Y0045051D01*
X0147018Y0044930D01*
X0147112Y0044806D01*
X0147203Y0044679D01*
X0147291Y0044551D01*
X0147376Y0044420D01*
X0147457Y0044287D01*
X0147535Y0044152D01*
X0147610Y0044015D01*
X0147681Y0043877D01*
X0147748Y0043736D01*
X0147812Y0043594D01*
X0147872Y0043450D01*
X0147928Y0043305D01*
X0147981Y0043158D01*
X0148030Y0043010D01*
X0148075Y0042861D01*
X0148116Y0042711D01*
X0148154Y0042560D01*
X0148187Y0042408D01*
X0148217Y0042255D01*
X0148243Y0042101D01*
X0148264Y0041947D01*
X0148282Y0041792D01*
X0148296Y0041637D01*
X0148306Y0041481D01*
X0148312Y0041326D01*
X0148314Y0041170D01*
X0148312Y0041014D01*
X0148306Y0040859D01*
X0148296Y0040703D01*
X0148282Y0040548D01*
X0148264Y0040393D01*
X0148243Y0040239D01*
X0148217Y0040085D01*
X0148187Y0039932D01*
X0148154Y0039780D01*
X0148116Y0039629D01*
X0148075Y0039479D01*
X0148030Y0039330D01*
X0147981Y0039182D01*
X0147928Y0039035D01*
X0147872Y0038890D01*
X0147812Y0038746D01*
X0147748Y0038604D01*
X0147681Y0038463D01*
X0147610Y0038325D01*
X0147535Y0038188D01*
X0147457Y0038053D01*
X0147376Y0037920D01*
X0147291Y0037789D01*
X0147203Y0037661D01*
X0147112Y0037534D01*
X0147018Y0037410D01*
X0146920Y0037289D01*
X0146819Y0037170D01*
X0146716Y0037054D01*
X0146609Y0036940D01*
X0146500Y0036829D01*
X0146387Y0036721D01*
X0146272Y0036616D01*
X0146155Y0036514D01*
X0146035Y0036415D01*
X0145912Y0036319D01*
X0145787Y0036226D01*
X0145659Y0036136D01*
X0145530Y0036050D01*
X0145398Y0035967D01*
X0145264Y0035887D01*
X0145128Y0035811D01*
X0144990Y0035738D01*
X0144851Y0035669D01*
X0144709Y0035604D01*
X0144566Y0035542D01*
X0144422Y0035484D01*
X0144276Y0035429D01*
X0144129Y0035378D01*
X0143980Y0035331D01*
X0143830Y0035288D01*
X0143680Y0035249D01*
X0143528Y0035213D01*
X0143375Y0035182D01*
X0143222Y0035154D01*
X0143068Y0035130D01*
X0142914Y0035110D01*
X0142759Y0035094D01*
X0142603Y0035082D01*
X0142448Y0035074D01*
X0142292Y0035070D01*
X0142136Y0035070D01*
X0141980Y0035074D01*
X0141825Y0035082D01*
X0141669Y0035094D01*
X0141514Y0035110D01*
X0141360Y0035130D01*
X0141206Y0035154D01*
X0141053Y0035182D01*
X0140900Y0035213D01*
X0140748Y0035249D01*
X0140598Y0035288D01*
X0140448Y0035331D01*
X0140299Y0035378D01*
X0140152Y0035429D01*
X0140006Y0035484D01*
X0139862Y0035542D01*
X0139719Y0035604D01*
X0139577Y0035669D01*
X0139438Y0035738D01*
X0139300Y0035811D01*
X0139164Y0035887D01*
X0139030Y0035967D01*
X0138898Y0036050D01*
X0138769Y0036136D01*
X0138641Y0036226D01*
X0138516Y0036319D01*
X0138393Y0036415D01*
X0138273Y0036514D01*
X0138156Y0036616D01*
X0138041Y0036721D01*
X0137928Y0036829D01*
X0137819Y0036940D01*
X0137712Y0037054D01*
X0137609Y0037170D01*
X0137508Y0037289D01*
X0137410Y0037410D01*
X0137316Y0037534D01*
X0137225Y0037661D01*
X0137137Y0037789D01*
X0137052Y0037920D01*
X0136971Y0038053D01*
X0136893Y0038188D01*
X0136818Y0038325D01*
X0136747Y0038463D01*
X0136680Y0038604D01*
X0136616Y0038746D01*
X0136556Y0038890D01*
X0136500Y0039035D01*
X0136447Y0039182D01*
X0136398Y0039330D01*
X0136353Y0039479D01*
X0136312Y0039629D01*
X0136274Y0039780D01*
X0136241Y0039932D01*
X0136211Y0040085D01*
X0136185Y0040239D01*
X0136164Y0040393D01*
X0136146Y0040548D01*
X0136132Y0040703D01*
X0136122Y0040859D01*
X0136116Y0041014D01*
X0136114Y0041170D01*
X0136114Y0119910D02*
X0136116Y0120066D01*
X0136122Y0120221D01*
X0136132Y0120377D01*
X0136146Y0120532D01*
X0136164Y0120687D01*
X0136185Y0120841D01*
X0136211Y0120995D01*
X0136241Y0121148D01*
X0136274Y0121300D01*
X0136312Y0121451D01*
X0136353Y0121601D01*
X0136398Y0121750D01*
X0136447Y0121898D01*
X0136500Y0122045D01*
X0136556Y0122190D01*
X0136616Y0122334D01*
X0136680Y0122476D01*
X0136747Y0122617D01*
X0136818Y0122755D01*
X0136893Y0122892D01*
X0136971Y0123027D01*
X0137052Y0123160D01*
X0137137Y0123291D01*
X0137225Y0123419D01*
X0137316Y0123546D01*
X0137410Y0123670D01*
X0137508Y0123791D01*
X0137609Y0123910D01*
X0137712Y0124026D01*
X0137819Y0124140D01*
X0137928Y0124251D01*
X0138041Y0124359D01*
X0138156Y0124464D01*
X0138273Y0124566D01*
X0138393Y0124665D01*
X0138516Y0124761D01*
X0138641Y0124854D01*
X0138769Y0124944D01*
X0138898Y0125030D01*
X0139030Y0125113D01*
X0139164Y0125193D01*
X0139300Y0125269D01*
X0139438Y0125342D01*
X0139577Y0125411D01*
X0139719Y0125476D01*
X0139862Y0125538D01*
X0140006Y0125596D01*
X0140152Y0125651D01*
X0140299Y0125702D01*
X0140448Y0125749D01*
X0140598Y0125792D01*
X0140748Y0125831D01*
X0140900Y0125867D01*
X0141053Y0125898D01*
X0141206Y0125926D01*
X0141360Y0125950D01*
X0141514Y0125970D01*
X0141669Y0125986D01*
X0141825Y0125998D01*
X0141980Y0126006D01*
X0142136Y0126010D01*
X0142292Y0126010D01*
X0142448Y0126006D01*
X0142603Y0125998D01*
X0142759Y0125986D01*
X0142914Y0125970D01*
X0143068Y0125950D01*
X0143222Y0125926D01*
X0143375Y0125898D01*
X0143528Y0125867D01*
X0143680Y0125831D01*
X0143830Y0125792D01*
X0143980Y0125749D01*
X0144129Y0125702D01*
X0144276Y0125651D01*
X0144422Y0125596D01*
X0144566Y0125538D01*
X0144709Y0125476D01*
X0144851Y0125411D01*
X0144990Y0125342D01*
X0145128Y0125269D01*
X0145264Y0125193D01*
X0145398Y0125113D01*
X0145530Y0125030D01*
X0145659Y0124944D01*
X0145787Y0124854D01*
X0145912Y0124761D01*
X0146035Y0124665D01*
X0146155Y0124566D01*
X0146272Y0124464D01*
X0146387Y0124359D01*
X0146500Y0124251D01*
X0146609Y0124140D01*
X0146716Y0124026D01*
X0146819Y0123910D01*
X0146920Y0123791D01*
X0147018Y0123670D01*
X0147112Y0123546D01*
X0147203Y0123419D01*
X0147291Y0123291D01*
X0147376Y0123160D01*
X0147457Y0123027D01*
X0147535Y0122892D01*
X0147610Y0122755D01*
X0147681Y0122617D01*
X0147748Y0122476D01*
X0147812Y0122334D01*
X0147872Y0122190D01*
X0147928Y0122045D01*
X0147981Y0121898D01*
X0148030Y0121750D01*
X0148075Y0121601D01*
X0148116Y0121451D01*
X0148154Y0121300D01*
X0148187Y0121148D01*
X0148217Y0120995D01*
X0148243Y0120841D01*
X0148264Y0120687D01*
X0148282Y0120532D01*
X0148296Y0120377D01*
X0148306Y0120221D01*
X0148312Y0120066D01*
X0148314Y0119910D01*
X0148312Y0119754D01*
X0148306Y0119599D01*
X0148296Y0119443D01*
X0148282Y0119288D01*
X0148264Y0119133D01*
X0148243Y0118979D01*
X0148217Y0118825D01*
X0148187Y0118672D01*
X0148154Y0118520D01*
X0148116Y0118369D01*
X0148075Y0118219D01*
X0148030Y0118070D01*
X0147981Y0117922D01*
X0147928Y0117775D01*
X0147872Y0117630D01*
X0147812Y0117486D01*
X0147748Y0117344D01*
X0147681Y0117203D01*
X0147610Y0117065D01*
X0147535Y0116928D01*
X0147457Y0116793D01*
X0147376Y0116660D01*
X0147291Y0116529D01*
X0147203Y0116401D01*
X0147112Y0116274D01*
X0147018Y0116150D01*
X0146920Y0116029D01*
X0146819Y0115910D01*
X0146716Y0115794D01*
X0146609Y0115680D01*
X0146500Y0115569D01*
X0146387Y0115461D01*
X0146272Y0115356D01*
X0146155Y0115254D01*
X0146035Y0115155D01*
X0145912Y0115059D01*
X0145787Y0114966D01*
X0145659Y0114876D01*
X0145530Y0114790D01*
X0145398Y0114707D01*
X0145264Y0114627D01*
X0145128Y0114551D01*
X0144990Y0114478D01*
X0144851Y0114409D01*
X0144709Y0114344D01*
X0144566Y0114282D01*
X0144422Y0114224D01*
X0144276Y0114169D01*
X0144129Y0114118D01*
X0143980Y0114071D01*
X0143830Y0114028D01*
X0143680Y0113989D01*
X0143528Y0113953D01*
X0143375Y0113922D01*
X0143222Y0113894D01*
X0143068Y0113870D01*
X0142914Y0113850D01*
X0142759Y0113834D01*
X0142603Y0113822D01*
X0142448Y0113814D01*
X0142292Y0113810D01*
X0142136Y0113810D01*
X0141980Y0113814D01*
X0141825Y0113822D01*
X0141669Y0113834D01*
X0141514Y0113850D01*
X0141360Y0113870D01*
X0141206Y0113894D01*
X0141053Y0113922D01*
X0140900Y0113953D01*
X0140748Y0113989D01*
X0140598Y0114028D01*
X0140448Y0114071D01*
X0140299Y0114118D01*
X0140152Y0114169D01*
X0140006Y0114224D01*
X0139862Y0114282D01*
X0139719Y0114344D01*
X0139577Y0114409D01*
X0139438Y0114478D01*
X0139300Y0114551D01*
X0139164Y0114627D01*
X0139030Y0114707D01*
X0138898Y0114790D01*
X0138769Y0114876D01*
X0138641Y0114966D01*
X0138516Y0115059D01*
X0138393Y0115155D01*
X0138273Y0115254D01*
X0138156Y0115356D01*
X0138041Y0115461D01*
X0137928Y0115569D01*
X0137819Y0115680D01*
X0137712Y0115794D01*
X0137609Y0115910D01*
X0137508Y0116029D01*
X0137410Y0116150D01*
X0137316Y0116274D01*
X0137225Y0116401D01*
X0137137Y0116529D01*
X0137052Y0116660D01*
X0136971Y0116793D01*
X0136893Y0116928D01*
X0136818Y0117065D01*
X0136747Y0117203D01*
X0136680Y0117344D01*
X0136616Y0117486D01*
X0136556Y0117630D01*
X0136500Y0117775D01*
X0136447Y0117922D01*
X0136398Y0118070D01*
X0136353Y0118219D01*
X0136312Y0118369D01*
X0136274Y0118520D01*
X0136241Y0118672D01*
X0136211Y0118825D01*
X0136185Y0118979D01*
X0136164Y0119133D01*
X0136146Y0119288D01*
X0136132Y0119443D01*
X0136122Y0119599D01*
X0136116Y0119754D01*
X0136114Y0119910D01*
D11*
X0142214Y0119910D03*
X0142214Y0041170D03*
D12*
X0080777Y0062284D02*
X0080777Y0068284D01*
X0070777Y0068284D02*
X0070777Y0062284D01*
X0086033Y0246831D02*
X0086033Y0252831D01*
X0096033Y0252831D02*
X0096033Y0246831D01*
X0040915Y0246831D02*
X0040915Y0252831D01*
X0030915Y0252831D02*
X0030915Y0246831D01*
D13*
X0137477Y0080540D03*
X0142214Y0075803D03*
X0142214Y0085277D03*
D14*
X0139340Y0197587D03*
X0139340Y0207587D03*
X0129340Y0207587D03*
X0129340Y0197587D03*
X0025167Y0111603D03*
X0025167Y0101603D03*
X0025167Y0091603D03*
X0025167Y0081603D03*
X0025167Y0071603D03*
X0025167Y0061603D03*
X0025167Y0051603D03*
X0025167Y0041603D03*
X0015167Y0041603D03*
X0015167Y0051603D03*
X0015167Y0061603D03*
X0015167Y0071603D03*
X0015167Y0081603D03*
X0015167Y0091603D03*
X0015167Y0101603D03*
X0015167Y0111603D03*
M02*
