G75*
%MOIN*%
%OFA0B0*%
%FSLAX25Y25*%
%IPPOS*%
%LPD*%
%AMOC8*
5,1,8,0,0,1.08239X$1,22.5*
%
%ADD10C,0.00000*%
%ADD11C,0.00500*%
D10*
X0001800Y0001800D02*
X0001800Y0261643D01*
X0151406Y0261643D01*
X0151426Y0001800D01*
X0001800Y0001800D01*
X0133495Y0041170D02*
X0133497Y0041326D01*
X0133503Y0041481D01*
X0133513Y0041637D01*
X0133527Y0041792D01*
X0133545Y0041947D01*
X0133566Y0042101D01*
X0133592Y0042255D01*
X0133622Y0042408D01*
X0133655Y0042560D01*
X0133693Y0042711D01*
X0133734Y0042861D01*
X0133779Y0043010D01*
X0133828Y0043158D01*
X0133881Y0043305D01*
X0133937Y0043450D01*
X0133997Y0043594D01*
X0134061Y0043736D01*
X0134128Y0043877D01*
X0134199Y0044015D01*
X0134274Y0044152D01*
X0134352Y0044287D01*
X0134433Y0044420D01*
X0134518Y0044551D01*
X0134606Y0044679D01*
X0134697Y0044806D01*
X0134791Y0044930D01*
X0134889Y0045051D01*
X0134990Y0045170D01*
X0135093Y0045286D01*
X0135200Y0045400D01*
X0135309Y0045511D01*
X0135422Y0045619D01*
X0135537Y0045724D01*
X0135654Y0045826D01*
X0135774Y0045925D01*
X0135897Y0046021D01*
X0136022Y0046114D01*
X0136150Y0046204D01*
X0136279Y0046290D01*
X0136411Y0046373D01*
X0136545Y0046453D01*
X0136681Y0046529D01*
X0136819Y0046602D01*
X0136958Y0046671D01*
X0137100Y0046736D01*
X0137243Y0046798D01*
X0137387Y0046856D01*
X0137533Y0046911D01*
X0137680Y0046962D01*
X0137829Y0047009D01*
X0137979Y0047052D01*
X0138129Y0047091D01*
X0138281Y0047127D01*
X0138434Y0047158D01*
X0138587Y0047186D01*
X0138741Y0047210D01*
X0138895Y0047230D01*
X0139050Y0047246D01*
X0139206Y0047258D01*
X0139361Y0047266D01*
X0139517Y0047270D01*
X0139673Y0047270D01*
X0139829Y0047266D01*
X0139984Y0047258D01*
X0140140Y0047246D01*
X0140295Y0047230D01*
X0140449Y0047210D01*
X0140603Y0047186D01*
X0140756Y0047158D01*
X0140909Y0047127D01*
X0141061Y0047091D01*
X0141211Y0047052D01*
X0141361Y0047009D01*
X0141510Y0046962D01*
X0141657Y0046911D01*
X0141803Y0046856D01*
X0141947Y0046798D01*
X0142090Y0046736D01*
X0142232Y0046671D01*
X0142371Y0046602D01*
X0142509Y0046529D01*
X0142645Y0046453D01*
X0142779Y0046373D01*
X0142911Y0046290D01*
X0143040Y0046204D01*
X0143168Y0046114D01*
X0143293Y0046021D01*
X0143416Y0045925D01*
X0143536Y0045826D01*
X0143653Y0045724D01*
X0143768Y0045619D01*
X0143881Y0045511D01*
X0143990Y0045400D01*
X0144097Y0045286D01*
X0144200Y0045170D01*
X0144301Y0045051D01*
X0144399Y0044930D01*
X0144493Y0044806D01*
X0144584Y0044679D01*
X0144672Y0044551D01*
X0144757Y0044420D01*
X0144838Y0044287D01*
X0144916Y0044152D01*
X0144991Y0044015D01*
X0145062Y0043877D01*
X0145129Y0043736D01*
X0145193Y0043594D01*
X0145253Y0043450D01*
X0145309Y0043305D01*
X0145362Y0043158D01*
X0145411Y0043010D01*
X0145456Y0042861D01*
X0145497Y0042711D01*
X0145535Y0042560D01*
X0145568Y0042408D01*
X0145598Y0042255D01*
X0145624Y0042101D01*
X0145645Y0041947D01*
X0145663Y0041792D01*
X0145677Y0041637D01*
X0145687Y0041481D01*
X0145693Y0041326D01*
X0145695Y0041170D01*
X0145693Y0041014D01*
X0145687Y0040859D01*
X0145677Y0040703D01*
X0145663Y0040548D01*
X0145645Y0040393D01*
X0145624Y0040239D01*
X0145598Y0040085D01*
X0145568Y0039932D01*
X0145535Y0039780D01*
X0145497Y0039629D01*
X0145456Y0039479D01*
X0145411Y0039330D01*
X0145362Y0039182D01*
X0145309Y0039035D01*
X0145253Y0038890D01*
X0145193Y0038746D01*
X0145129Y0038604D01*
X0145062Y0038463D01*
X0144991Y0038325D01*
X0144916Y0038188D01*
X0144838Y0038053D01*
X0144757Y0037920D01*
X0144672Y0037789D01*
X0144584Y0037661D01*
X0144493Y0037534D01*
X0144399Y0037410D01*
X0144301Y0037289D01*
X0144200Y0037170D01*
X0144097Y0037054D01*
X0143990Y0036940D01*
X0143881Y0036829D01*
X0143768Y0036721D01*
X0143653Y0036616D01*
X0143536Y0036514D01*
X0143416Y0036415D01*
X0143293Y0036319D01*
X0143168Y0036226D01*
X0143040Y0036136D01*
X0142911Y0036050D01*
X0142779Y0035967D01*
X0142645Y0035887D01*
X0142509Y0035811D01*
X0142371Y0035738D01*
X0142232Y0035669D01*
X0142090Y0035604D01*
X0141947Y0035542D01*
X0141803Y0035484D01*
X0141657Y0035429D01*
X0141510Y0035378D01*
X0141361Y0035331D01*
X0141211Y0035288D01*
X0141061Y0035249D01*
X0140909Y0035213D01*
X0140756Y0035182D01*
X0140603Y0035154D01*
X0140449Y0035130D01*
X0140295Y0035110D01*
X0140140Y0035094D01*
X0139984Y0035082D01*
X0139829Y0035074D01*
X0139673Y0035070D01*
X0139517Y0035070D01*
X0139361Y0035074D01*
X0139206Y0035082D01*
X0139050Y0035094D01*
X0138895Y0035110D01*
X0138741Y0035130D01*
X0138587Y0035154D01*
X0138434Y0035182D01*
X0138281Y0035213D01*
X0138129Y0035249D01*
X0137979Y0035288D01*
X0137829Y0035331D01*
X0137680Y0035378D01*
X0137533Y0035429D01*
X0137387Y0035484D01*
X0137243Y0035542D01*
X0137100Y0035604D01*
X0136958Y0035669D01*
X0136819Y0035738D01*
X0136681Y0035811D01*
X0136545Y0035887D01*
X0136411Y0035967D01*
X0136279Y0036050D01*
X0136150Y0036136D01*
X0136022Y0036226D01*
X0135897Y0036319D01*
X0135774Y0036415D01*
X0135654Y0036514D01*
X0135537Y0036616D01*
X0135422Y0036721D01*
X0135309Y0036829D01*
X0135200Y0036940D01*
X0135093Y0037054D01*
X0134990Y0037170D01*
X0134889Y0037289D01*
X0134791Y0037410D01*
X0134697Y0037534D01*
X0134606Y0037661D01*
X0134518Y0037789D01*
X0134433Y0037920D01*
X0134352Y0038053D01*
X0134274Y0038188D01*
X0134199Y0038325D01*
X0134128Y0038463D01*
X0134061Y0038604D01*
X0133997Y0038746D01*
X0133937Y0038890D01*
X0133881Y0039035D01*
X0133828Y0039182D01*
X0133779Y0039330D01*
X0133734Y0039479D01*
X0133693Y0039629D01*
X0133655Y0039780D01*
X0133622Y0039932D01*
X0133592Y0040085D01*
X0133566Y0040239D01*
X0133545Y0040393D01*
X0133527Y0040548D01*
X0133513Y0040703D01*
X0133503Y0040859D01*
X0133497Y0041014D01*
X0133495Y0041170D01*
X0133495Y0119910D02*
X0133497Y0120066D01*
X0133503Y0120221D01*
X0133513Y0120377D01*
X0133527Y0120532D01*
X0133545Y0120687D01*
X0133566Y0120841D01*
X0133592Y0120995D01*
X0133622Y0121148D01*
X0133655Y0121300D01*
X0133693Y0121451D01*
X0133734Y0121601D01*
X0133779Y0121750D01*
X0133828Y0121898D01*
X0133881Y0122045D01*
X0133937Y0122190D01*
X0133997Y0122334D01*
X0134061Y0122476D01*
X0134128Y0122617D01*
X0134199Y0122755D01*
X0134274Y0122892D01*
X0134352Y0123027D01*
X0134433Y0123160D01*
X0134518Y0123291D01*
X0134606Y0123419D01*
X0134697Y0123546D01*
X0134791Y0123670D01*
X0134889Y0123791D01*
X0134990Y0123910D01*
X0135093Y0124026D01*
X0135200Y0124140D01*
X0135309Y0124251D01*
X0135422Y0124359D01*
X0135537Y0124464D01*
X0135654Y0124566D01*
X0135774Y0124665D01*
X0135897Y0124761D01*
X0136022Y0124854D01*
X0136150Y0124944D01*
X0136279Y0125030D01*
X0136411Y0125113D01*
X0136545Y0125193D01*
X0136681Y0125269D01*
X0136819Y0125342D01*
X0136958Y0125411D01*
X0137100Y0125476D01*
X0137243Y0125538D01*
X0137387Y0125596D01*
X0137533Y0125651D01*
X0137680Y0125702D01*
X0137829Y0125749D01*
X0137979Y0125792D01*
X0138129Y0125831D01*
X0138281Y0125867D01*
X0138434Y0125898D01*
X0138587Y0125926D01*
X0138741Y0125950D01*
X0138895Y0125970D01*
X0139050Y0125986D01*
X0139206Y0125998D01*
X0139361Y0126006D01*
X0139517Y0126010D01*
X0139673Y0126010D01*
X0139829Y0126006D01*
X0139984Y0125998D01*
X0140140Y0125986D01*
X0140295Y0125970D01*
X0140449Y0125950D01*
X0140603Y0125926D01*
X0140756Y0125898D01*
X0140909Y0125867D01*
X0141061Y0125831D01*
X0141211Y0125792D01*
X0141361Y0125749D01*
X0141510Y0125702D01*
X0141657Y0125651D01*
X0141803Y0125596D01*
X0141947Y0125538D01*
X0142090Y0125476D01*
X0142232Y0125411D01*
X0142371Y0125342D01*
X0142509Y0125269D01*
X0142645Y0125193D01*
X0142779Y0125113D01*
X0142911Y0125030D01*
X0143040Y0124944D01*
X0143168Y0124854D01*
X0143293Y0124761D01*
X0143416Y0124665D01*
X0143536Y0124566D01*
X0143653Y0124464D01*
X0143768Y0124359D01*
X0143881Y0124251D01*
X0143990Y0124140D01*
X0144097Y0124026D01*
X0144200Y0123910D01*
X0144301Y0123791D01*
X0144399Y0123670D01*
X0144493Y0123546D01*
X0144584Y0123419D01*
X0144672Y0123291D01*
X0144757Y0123160D01*
X0144838Y0123027D01*
X0144916Y0122892D01*
X0144991Y0122755D01*
X0145062Y0122617D01*
X0145129Y0122476D01*
X0145193Y0122334D01*
X0145253Y0122190D01*
X0145309Y0122045D01*
X0145362Y0121898D01*
X0145411Y0121750D01*
X0145456Y0121601D01*
X0145497Y0121451D01*
X0145535Y0121300D01*
X0145568Y0121148D01*
X0145598Y0120995D01*
X0145624Y0120841D01*
X0145645Y0120687D01*
X0145663Y0120532D01*
X0145677Y0120377D01*
X0145687Y0120221D01*
X0145693Y0120066D01*
X0145695Y0119910D01*
X0145693Y0119754D01*
X0145687Y0119599D01*
X0145677Y0119443D01*
X0145663Y0119288D01*
X0145645Y0119133D01*
X0145624Y0118979D01*
X0145598Y0118825D01*
X0145568Y0118672D01*
X0145535Y0118520D01*
X0145497Y0118369D01*
X0145456Y0118219D01*
X0145411Y0118070D01*
X0145362Y0117922D01*
X0145309Y0117775D01*
X0145253Y0117630D01*
X0145193Y0117486D01*
X0145129Y0117344D01*
X0145062Y0117203D01*
X0144991Y0117065D01*
X0144916Y0116928D01*
X0144838Y0116793D01*
X0144757Y0116660D01*
X0144672Y0116529D01*
X0144584Y0116401D01*
X0144493Y0116274D01*
X0144399Y0116150D01*
X0144301Y0116029D01*
X0144200Y0115910D01*
X0144097Y0115794D01*
X0143990Y0115680D01*
X0143881Y0115569D01*
X0143768Y0115461D01*
X0143653Y0115356D01*
X0143536Y0115254D01*
X0143416Y0115155D01*
X0143293Y0115059D01*
X0143168Y0114966D01*
X0143040Y0114876D01*
X0142911Y0114790D01*
X0142779Y0114707D01*
X0142645Y0114627D01*
X0142509Y0114551D01*
X0142371Y0114478D01*
X0142232Y0114409D01*
X0142090Y0114344D01*
X0141947Y0114282D01*
X0141803Y0114224D01*
X0141657Y0114169D01*
X0141510Y0114118D01*
X0141361Y0114071D01*
X0141211Y0114028D01*
X0141061Y0113989D01*
X0140909Y0113953D01*
X0140756Y0113922D01*
X0140603Y0113894D01*
X0140449Y0113870D01*
X0140295Y0113850D01*
X0140140Y0113834D01*
X0139984Y0113822D01*
X0139829Y0113814D01*
X0139673Y0113810D01*
X0139517Y0113810D01*
X0139361Y0113814D01*
X0139206Y0113822D01*
X0139050Y0113834D01*
X0138895Y0113850D01*
X0138741Y0113870D01*
X0138587Y0113894D01*
X0138434Y0113922D01*
X0138281Y0113953D01*
X0138129Y0113989D01*
X0137979Y0114028D01*
X0137829Y0114071D01*
X0137680Y0114118D01*
X0137533Y0114169D01*
X0137387Y0114224D01*
X0137243Y0114282D01*
X0137100Y0114344D01*
X0136958Y0114409D01*
X0136819Y0114478D01*
X0136681Y0114551D01*
X0136545Y0114627D01*
X0136411Y0114707D01*
X0136279Y0114790D01*
X0136150Y0114876D01*
X0136022Y0114966D01*
X0135897Y0115059D01*
X0135774Y0115155D01*
X0135654Y0115254D01*
X0135537Y0115356D01*
X0135422Y0115461D01*
X0135309Y0115569D01*
X0135200Y0115680D01*
X0135093Y0115794D01*
X0134990Y0115910D01*
X0134889Y0116029D01*
X0134791Y0116150D01*
X0134697Y0116274D01*
X0134606Y0116401D01*
X0134518Y0116529D01*
X0134433Y0116660D01*
X0134352Y0116793D01*
X0134274Y0116928D01*
X0134199Y0117065D01*
X0134128Y0117203D01*
X0134061Y0117344D01*
X0133997Y0117486D01*
X0133937Y0117630D01*
X0133881Y0117775D01*
X0133828Y0117922D01*
X0133779Y0118070D01*
X0133734Y0118219D01*
X0133693Y0118369D01*
X0133655Y0118520D01*
X0133622Y0118672D01*
X0133592Y0118825D01*
X0133566Y0118979D01*
X0133545Y0119133D01*
X0133527Y0119288D01*
X0133513Y0119443D01*
X0133503Y0119599D01*
X0133497Y0119754D01*
X0133495Y0119910D01*
D11*
X0116786Y0048487D02*
X0113784Y0048487D01*
X0115285Y0048487D02*
X0115285Y0043983D01*
X0112182Y0043983D02*
X0112182Y0048487D01*
X0109930Y0048487D01*
X0109180Y0047736D01*
X0109180Y0046235D01*
X0109930Y0045484D01*
X0112182Y0045484D01*
X0107578Y0043983D02*
X0104576Y0046986D01*
X0104576Y0047736D01*
X0105326Y0048487D01*
X0106828Y0048487D01*
X0107578Y0047736D01*
X0107578Y0043983D02*
X0104576Y0043983D01*
X0097101Y0043983D02*
X0094099Y0043983D01*
X0092497Y0043983D02*
X0092497Y0046986D01*
X0090996Y0048487D01*
X0089495Y0046986D01*
X0089495Y0043983D01*
X0087893Y0044734D02*
X0087143Y0043983D01*
X0085641Y0043983D01*
X0084891Y0044734D01*
X0084891Y0045484D01*
X0085641Y0046235D01*
X0087143Y0046235D01*
X0087893Y0046986D01*
X0087893Y0047736D01*
X0087143Y0048487D01*
X0085641Y0048487D01*
X0084891Y0047736D01*
X0083289Y0048487D02*
X0083289Y0043983D01*
X0080287Y0043983D01*
X0078685Y0043983D02*
X0078685Y0048487D01*
X0076434Y0048487D01*
X0075683Y0047736D01*
X0075683Y0046235D01*
X0076434Y0045484D01*
X0078685Y0045484D01*
X0077184Y0045484D02*
X0075683Y0043983D01*
X0080287Y0048487D02*
X0083289Y0048487D01*
X0083289Y0046235D02*
X0081788Y0046235D01*
X0089495Y0046235D02*
X0092497Y0046235D01*
X0097101Y0048487D02*
X0097101Y0043983D01*
X0041342Y0110501D02*
X0041342Y0113202D01*
X0039542Y0110501D01*
X0039542Y0113202D01*
X0038397Y0113202D02*
X0038397Y0110501D01*
X0038397Y0111401D02*
X0037047Y0111401D01*
X0036597Y0111852D01*
X0036597Y0112752D01*
X0037047Y0113202D01*
X0038397Y0113202D01*
X0037497Y0111401D02*
X0036597Y0110501D01*
X0035452Y0110951D02*
X0035002Y0110501D01*
X0034102Y0110501D01*
X0033651Y0110951D01*
X0033651Y0111401D01*
X0034102Y0111852D01*
X0035002Y0111852D01*
X0035452Y0112302D01*
X0035452Y0112752D01*
X0035002Y0113202D01*
X0034102Y0113202D01*
X0033651Y0112752D01*
X0032507Y0113202D02*
X0030706Y0113202D01*
X0031607Y0113202D02*
X0031607Y0110501D01*
X0032015Y0103852D02*
X0030664Y0103852D01*
X0030214Y0103401D01*
X0030214Y0101601D01*
X0030664Y0101151D01*
X0032015Y0101151D01*
X0032015Y0103852D01*
X0033159Y0103852D02*
X0033159Y0101151D01*
X0034960Y0103852D01*
X0034960Y0101151D01*
X0036104Y0101601D02*
X0036104Y0102501D01*
X0037005Y0102501D01*
X0037905Y0101601D02*
X0037455Y0101151D01*
X0036555Y0101151D01*
X0036104Y0101601D01*
X0036104Y0103401D02*
X0036555Y0103852D01*
X0037455Y0103852D01*
X0037905Y0103401D01*
X0037905Y0101601D01*
X0036963Y0118375D02*
X0036062Y0118375D01*
X0035612Y0118825D01*
X0035612Y0121076D01*
X0034468Y0120626D02*
X0034468Y0120176D01*
X0034018Y0119726D01*
X0033117Y0119726D01*
X0032667Y0119275D01*
X0032667Y0118825D01*
X0033117Y0118375D01*
X0034018Y0118375D01*
X0034468Y0118825D01*
X0034468Y0120626D02*
X0034018Y0121076D01*
X0033117Y0121076D01*
X0032667Y0120626D01*
X0031523Y0121076D02*
X0030172Y0121076D01*
X0029722Y0120626D01*
X0029722Y0120176D01*
X0030172Y0119726D01*
X0031523Y0119726D01*
X0031523Y0121076D02*
X0031523Y0118375D01*
X0030172Y0118375D01*
X0029722Y0118825D01*
X0029722Y0119275D01*
X0030172Y0119726D01*
X0036963Y0118375D02*
X0037413Y0118825D01*
X0037413Y0121076D01*
X0038557Y0121076D02*
X0038557Y0119275D01*
X0039458Y0118375D01*
X0040358Y0119275D01*
X0040358Y0121076D01*
X0020218Y0099915D02*
X0020668Y0099464D01*
X0020668Y0099014D01*
X0020218Y0098564D01*
X0019317Y0098564D01*
X0018867Y0098114D01*
X0018867Y0097664D01*
X0019317Y0097214D01*
X0020218Y0097214D01*
X0020668Y0097664D01*
X0020218Y0099915D02*
X0019317Y0099915D01*
X0018867Y0099464D01*
X0017723Y0099915D02*
X0017723Y0097214D01*
X0016822Y0098114D01*
X0015922Y0097214D01*
X0015922Y0099915D01*
X0014778Y0099915D02*
X0014778Y0097214D01*
X0013427Y0097214D01*
X0012977Y0097664D01*
X0012977Y0099464D01*
X0013427Y0099915D01*
X0014778Y0099915D01*
X0011832Y0099915D02*
X0010932Y0099915D01*
X0011382Y0099915D02*
X0011382Y0097214D01*
X0011832Y0097214D02*
X0010932Y0097214D01*
X0009869Y0097664D02*
X0009419Y0097214D01*
X0008519Y0097214D01*
X0008069Y0097664D01*
X0008069Y0099464D01*
X0008519Y0099915D01*
X0009419Y0099915D01*
X0009869Y0099464D01*
X0009869Y0097664D01*
X0012669Y0112029D02*
X0013306Y0112029D01*
X0012669Y0112029D02*
X0012033Y0112665D01*
X0012033Y0113302D01*
X0012351Y0113620D01*
X0012987Y0113620D01*
X0013624Y0112984D01*
X0014261Y0112984D01*
X0014579Y0113302D01*
X0014579Y0113938D01*
X0013942Y0114575D01*
X0013306Y0114575D01*
X0012815Y0115703D02*
X0010905Y0113793D01*
X0010905Y0115066D01*
X0009632Y0115066D01*
X0011542Y0116976D01*
X0010414Y0117467D02*
X0009141Y0116194D01*
X0008504Y0116194D01*
X0007868Y0116830D01*
X0007868Y0117467D01*
X0006740Y0117958D02*
X0005467Y0119231D01*
X0004658Y0120040D02*
X0006567Y0121950D01*
X0005294Y0121313D02*
X0003384Y0121313D01*
X0005294Y0120677D02*
X0005294Y0123223D01*
X0008650Y0119868D02*
X0006740Y0117958D01*
X0009141Y0118740D02*
X0009777Y0118740D01*
X0010414Y0118103D01*
X0010414Y0117467D01*
X0012906Y0125265D02*
X0012006Y0126165D01*
X0012006Y0127966D01*
X0013806Y0127966D02*
X0013806Y0126165D01*
X0012906Y0125265D01*
X0014951Y0125715D02*
X0015401Y0125265D01*
X0016301Y0125265D01*
X0016751Y0125715D01*
X0015851Y0126615D02*
X0015401Y0126615D01*
X0014951Y0126165D01*
X0014951Y0125715D01*
X0015401Y0126615D02*
X0014951Y0127065D01*
X0014951Y0127516D01*
X0015401Y0127966D01*
X0016301Y0127966D01*
X0016751Y0127516D01*
X0069042Y0217587D02*
X0073546Y0217587D01*
X0073546Y0219088D02*
X0073546Y0216085D01*
X0073546Y0220689D02*
X0073546Y0222941D01*
X0072795Y0223692D01*
X0071294Y0223692D01*
X0070543Y0222941D01*
X0070543Y0220689D01*
X0069042Y0220689D02*
X0073546Y0220689D01*
X0072795Y0225293D02*
X0073546Y0226044D01*
X0073546Y0227545D01*
X0072795Y0228296D01*
X0072045Y0228296D01*
X0071294Y0227545D01*
X0070543Y0228296D01*
X0069793Y0228296D01*
X0069042Y0227545D01*
X0069042Y0226044D01*
X0069793Y0225293D01*
X0071294Y0226795D02*
X0071294Y0227545D01*
X0088727Y0227545D02*
X0093231Y0227545D01*
X0090979Y0225293D01*
X0090979Y0228296D01*
X0090979Y0223692D02*
X0090228Y0222941D01*
X0090228Y0220689D01*
X0088727Y0220689D02*
X0093231Y0220689D01*
X0093231Y0222941D01*
X0092480Y0223692D01*
X0090979Y0223692D01*
X0093231Y0219088D02*
X0093231Y0216085D01*
X0093231Y0217587D02*
X0088727Y0217587D01*
X0108412Y0217587D02*
X0112916Y0217587D01*
X0112916Y0219088D02*
X0112916Y0216085D01*
X0112916Y0220689D02*
X0112916Y0222941D01*
X0112165Y0223692D01*
X0110664Y0223692D01*
X0109913Y0222941D01*
X0109913Y0220689D01*
X0108412Y0220689D02*
X0112916Y0220689D01*
X0112916Y0225293D02*
X0110664Y0225293D01*
X0111415Y0226795D01*
X0111415Y0227545D01*
X0110664Y0228296D01*
X0109163Y0228296D01*
X0108412Y0227545D01*
X0108412Y0226044D01*
X0109163Y0225293D01*
X0112916Y0225293D02*
X0112916Y0228296D01*
X0128097Y0227545D02*
X0128097Y0226044D01*
X0128848Y0225293D01*
X0130349Y0225293D01*
X0130349Y0227545D01*
X0129599Y0228296D01*
X0128848Y0228296D01*
X0128097Y0227545D01*
X0130349Y0225293D02*
X0131850Y0226795D01*
X0132601Y0228296D01*
X0131850Y0223692D02*
X0130349Y0223692D01*
X0129599Y0222941D01*
X0129599Y0220689D01*
X0128097Y0220689D02*
X0132601Y0220689D01*
X0132601Y0222941D01*
X0131850Y0223692D01*
X0132601Y0219088D02*
X0132601Y0216085D01*
X0132601Y0217587D02*
X0128097Y0217587D01*
M02*
