%
M48
M72
T01C0.01200
T02C0.04000
T03C0.04300
T04C0.12200
%
T01
X22419Y19200
X34719Y47100
X39360Y68729
X53619Y76200
X67119Y95700
X69219Y84300
X79719Y82800
X82719Y82800
X85119Y94200
X88119Y97200
X83619Y101700
X79419Y101700
X82119Y116700
X79719Y118800
X79719Y121800
X75219Y123300
X76719Y135600
X79719Y138600
X80319Y135000
X82719Y137100
X83319Y143400
X72519Y143400
X70119Y148800
X67119Y148800
X66819Y170400
X49119Y169800
X43719Y164400
X35619Y164700
X54819Y126900
X57819Y125700
X65019Y121800
X90519Y114900
X102819Y114300
X105219Y116400
X107319Y113100
X106419Y109200
X94119Y144300
X126519Y182400
X132219Y167700
X139119Y195600
X140319Y210000
X136119Y210000
X138219Y225600
X131319Y236700
X129519Y230400
X141819Y241800
X144819Y244800
X135519Y249900
X107619Y236700
X97419Y230400
X98319Y227400
X95019Y232500
X85119Y240900
X80019Y236700
X78519Y230400
X74619Y225300
X74919Y204900
X79419Y200400
X75819Y196800
X69819Y199800
X59319Y224700
X28119Y231300
X97119Y249000
X110619Y204300
X114219Y197100
X105819Y197100
X106719Y55200
X109719Y52200
X64419Y45300
X58119Y41400
T02
X15659Y25914
X25659Y25914
X25167Y49477
X25167Y59477
X25167Y69477
X25167Y79477
X25167Y89477
X25167Y99477
X25167Y109477
X25167Y119477
X15167Y119477
X15167Y109477
X15167Y99477
X15167Y89477
X15167Y79477
X15167Y69477
X15167Y59477
X15167Y49477
X16230Y179713
X16230Y189713
X16230Y199713
X16230Y209713
X70285Y249831
X80285Y249831
X109655Y249831
X119655Y249831
T03
X142214Y85277
X137477Y80540
X142214Y75803
T04
X142214Y41170
X142214Y119910
M30
