  0
SECTION
  2
HEADER
  9
$ACADVER
  1
AC1027
  9
$ACADMAINTVER
 70
    10
  9
$DWGCODEPAGE
  3
ANSI_1252
  9
$LASTSAVEDBY
  1
aja042
  9
$REQUIREDVERSIONS
160
                 0
  9
$INSBASE
 10
0.0
 20
0.0
 30
0.0
  9
$EXTMIN
 10
0.1199999999999999
 20
0.5544999999999996
 30
0.0
  9
$EXTMAX
 10
36.105
 20
64.35000000000001
 30
0.0
  9
$LIMMIN
 10
0.0
 20
0.0
  9
$LIMMAX
 10
12.0
 20
9.0
  9
$ORTHOMODE
 70
     0
  9
$REGENMODE
 70
     1
  9
$FILLMODE
 70
     0
  9
$QTEXTMODE
 70
     0
  9
$MIRRTEXT
 70
     0
  9
$LTSCALE
 40
1.0
  9
$ATTMODE
 70
     1
  9
$TEXTSIZE
 40
0.2
  9
$TRACEWID
 40
0.05
  9
$TEXTSTYLE
  7
Standard
  9
$CLAYER
  8
0
  9
$CELTYPE
  6
CONTINUOUS
  9
$CECOLOR
 62
   256
  9
$CELTSCALE
 40
1.0
  9
$DISPSILH
 70
     0
  9
$DIMSCALE
 40
1.0
  9
$DIMASZ
 40
0.18
  9
$DIMEXO
 40
0.0625
  9
$DIMDLI
 40
0.38
  9
$DIMRND
 40
0.0
  9
$DIMDLE
 40
0.0
  9
$DIMEXE
 40
0.18
  9
$DIMTP
 40
0.0
  9
$DIMTM
 40
0.0
  9
$DIMTXT
 40
0.18
  9
$DIMCEN
 40
0.09
  9
$DIMTSZ
 40
0.0
  9
$DIMTOL
 70
     0
  9
$DIMLIM
 70
     0
  9
$DIMTIH
 70
     1
  9
$DIMTOH
 70
     1
  9
$DIMSE1
 70
     0
  9
$DIMSE2
 70
     0
  9
$DIMTAD
 70
     0
  9
$DIMZIN
 70
     0
  9
$DIMBLK
  1

  9
$DIMASO
 70
     1
  9
$DIMSHO
 70
     1
  9
$DIMPOST
  1

  9
$DIMAPOST
  1

  9
$DIMALT
 70
     0
  9
$DIMALTD
 70
     2
  9
$DIMALTF
 40
25.4
  9
$DIMLFAC
 40
1.0
  9
$DIMTOFL
 70
     0
  9
$DIMTVP
 40
0.0
  9
$DIMTIX
 70
     0
  9
$DIMSOXD
 70
     0
  9
$DIMSAH
 70
     0
  9
$DIMBLK1
  1

  9
$DIMBLK2
  1

  9
$DIMSTYLE
  2
Standard
  9
$DIMCLRD
 70
     0
  9
$DIMCLRE
 70
     0
  9
$DIMCLRT
 70
     0
  9
$DIMTFAC
 40
1.0
  9
$DIMGAP
 40
0.09
  9
$DIMJUST
 70
     0
  9
$DIMSD1
 70
     0
  9
$DIMSD2
 70
     0
  9
$DIMTOLJ
 70
     1
  9
$DIMTZIN
 70
     0
  9
$DIMALTZ
 70
     0
  9
$DIMALTTZ
 70
     0
  9
$DIMUPT
 70
     0
  9
$DIMDEC
 70
     4
  9
$DIMTDEC
 70
     4
  9
$DIMALTU
 70
     2
  9
$DIMALTTD
 70
     2
  9
$DIMTXSTY
  7
Standard
  9
$DIMAUNIT
 70
     0
  9
$DIMADEC
 70
     0
  9
$DIMALTRND
 40
0.0
  9
$DIMAZIN
 70
     0
  9
$DIMDSEP
 70
    46
  9
$DIMATFIT
 70
     3
  9
$DIMFRAC
 70
     0
  9
$DIMLDRBLK
  1

  9
$DIMLUNIT
 70
     2
  9
$DIMLWD
 70
    -2
  9
$DIMLWE
 70
    -2
  9
$DIMTMOVE
 70
     0
  9
$DIMFXL
 40
1.0
  9
$DIMFXLON
 70
     0
  9
$DIMJOGANG
 40
0.7853981633974483
  9
$DIMTFILL
 70
     0
  9
$DIMTFILLCLR
 70
     0
  9
$DIMARCSYM
 70
     0
  9
$DIMLTYPE
  6

  9
$DIMLTEX1
  6

  9
$DIMLTEX2
  6

  9
$DIMTXTDIRECTION
 70
     0
  9
$LUNITS
 70
     2
  9
$LUPREC
 70
     4
  9
$SKETCHINC
 40
0.1
  9
$FILLETRAD
 40
0.0
  9
$AUNITS
 70
     0
  9
$AUPREC
 70
     0
  9
$MENU
  1
.
  9
$ELEVATION
 40
0.0
  9
$PELEVATION
 40
0.0
  9
$THICKNESS
 40
0.0
  9
$LIMCHECK
 70
     0
  9
$CHAMFERA
 40
0.0
  9
$CHAMFERB
 40
0.0
  9
$CHAMFERC
 40
0.0
  9
$CHAMFERD
 40
0.0
  9
$SKPOLY
 70
     0
  9
$TDCREATE
 40
2457130.513109930
  9
$TDUCREATE
 40
2457130.763109931
  9
$TDUPDATE
 40
2457130.518715579
  9
$TDUUPDATE
 40
2457130.768715579
  9
$TDINDWG
 40
0.0056057407
  9
$TDUSRTIMER
 40
0.0056057407
  9
$USRTIMER
 70
     1
  9
$ANGBASE
 50
0.0
  9
$ANGDIR
 70
     0
  9
$PDMODE
 70
     0
  9
$PDSIZE
 40
0.0
  9
$PLINEWID
 40
0.0
  9
$SPLFRAME
 70
     0
  9
$SPLINETYPE
 70
     6
  9
$SPLINESEGS
 70
     8
  9
$HANDSEED
  5
2F3
  9
$SURFTAB1
 70
     6
  9
$SURFTAB2
 70
     6
  9
$SURFTYPE
 70
     6
  9
$SURFU
 70
     6
  9
$SURFV
 70
     6
  9
$UCSBASE
  2

  9
$UCSNAME
  2

  9
$UCSORG
 10
0.0
 20
0.0
 30
0.0
  9
$UCSXDIR
 10
1.0
 20
0.0
 30
0.0
  9
$UCSYDIR
 10
0.0
 20
1.0
 30
0.0
  9
$UCSORTHOREF
  2

  9
$UCSORTHOVIEW
 70
     0
  9
$UCSORGTOP
 10
0.0
 20
0.0
 30
0.0
  9
$UCSORGBOTTOM
 10
0.0
 20
0.0
 30
0.0
  9
$UCSORGLEFT
 10
0.0
 20
0.0
 30
0.0
  9
$UCSORGRIGHT
 10
0.0
 20
0.0
 30
0.0
  9
$UCSORGFRONT
 10
0.0
 20
0.0
 30
0.0
  9
$UCSORGBACK
 10
0.0
 20
0.0
 30
0.0
  9
$PUCSBASE
  2

  9
$PUCSNAME
  2

  9
$PUCSORG
 10
0.0
 20
0.0
 30
0.0
  9
$PUCSXDIR
 10
1.0
 20
0.0
 30
0.0
  9
$PUCSYDIR
 10
0.0
 20
1.0
 30
0.0
  9
$PUCSORTHOREF
  2

  9
$PUCSORTHOVIEW
 70
     0
  9
$PUCSORGTOP
 10
0.0
 20
0.0
 30
0.0
  9
$PUCSORGBOTTOM
 10
0.0
 20
0.0
 30
0.0
  9
$PUCSORGLEFT
 10
0.0
 20
0.0
 30
0.0
  9
$PUCSORGRIGHT
 10
0.0
 20
0.0
 30
0.0
  9
$PUCSORGFRONT
 10
0.0
 20
0.0
 30
0.0
  9
$PUCSORGBACK
 10
0.0
 20
0.0
 30
0.0
  9
$USERI1
 70
     0
  9
$USERI2
 70
     0
  9
$USERI3
 70
     0
  9
$USERI4
 70
     0
  9
$USERI5
 70
     0
  9
$USERR1
 40
0.0
  9
$USERR2
 40
0.0
  9
$USERR3
 40
0.0
  9
$USERR4
 40
0.0
  9
$USERR5
 40
0.0
  9
$WORLDVIEW
 70
     1
  9
$SHADEDGE
 70
     3
  9
$SHADEDIF
 70
    70
  9
$TILEMODE
 70
     1
  9
$MAXACTVP
 70
    64
  9
$PINSBASE
 10
0.0
 20
0.0
 30
0.0
  9
$PLIMCHECK
 70
     0
  9
$PEXTMIN
 10
1.000000000000000E+20
 20
1.000000000000000E+20
 30
1.000000000000000E+20
  9
$PEXTMAX
 10
-1.000000000000000E+20
 20
-1.000000000000000E+20
 30
-1.000000000000000E+20
  9
$PLIMMIN
 10
0.0
 20
0.0
  9
$PLIMMAX
 10
12.0
 20
9.0
  9
$UNITMODE
 70
     0
  9
$VISRETAIN
 70
     1
  9
$PLINEGEN
 70
     0
  9
$PSLTSCALE
 70
     1
  9
$TREEDEPTH
 70
  3020
  9
$CMLSTYLE
  2
Standard
  9
$CMLJUST
 70
     0
  9
$CMLSCALE
 40
1.0
  9
$PROXYGRAPHICS
 70
     1
  9
$MEASUREMENT
 70
     0
  9
$CELWEIGHT
370
    -1
  9
$ENDCAPS
280
     0
  9
$JOINSTYLE
280
     0
  9
$LWDISPLAY
290
     0
  9
$INSUNITS
 70
     0
  9
$HYPERLINKBASE
  1

  9
$STYLESHEET
  1

  9
$XEDIT
290
     1
  9
$CEPSNTYPE
380
     0
  9
$PSTYLEMODE
290
     1
  9
$FINGERPRINTGUID
  2
{A379009A-5794-9345-93B1-2353060625A5}
  9
$VERSIONGUID
  2
{3AE3880E-65CE-0F4E-A69F-E30639EA02FC}
  9
$EXTNAMES
290
     1
  9
$PSVPSCALE
 40
0.0
  9
$OLESTARTUP
290
     0
  9
$SORTENTS
280
   127
  9
$INDEXCTL
280
     0
  9
$HIDETEXT
280
     0
  9
$XCLIPFRAME
280
     2
  9
$HALOGAP
280
     0
  9
$OBSCOLOR
 70
   257
  9
$OBSLTYPE
280
     0
  9
$INTERSECTIONDISPLAY
280
     0
  9
$INTERSECTIONCOLOR
 70
   257
  9
$DIMASSOC
280
     1
  9
$PROJECTNAME
  1

  9
$CAMERADISPLAY
290
     0
  9
$LENSLENGTH
 40
50.0
  9
$CAMERAHEIGHT
 40
0.0
  9
$STEPSPERSEC
 40
2.0
  9
$STEPSIZE
 40
6.0
  9
$3DDWFPREC
 40
2.0
  9
$PSOLWIDTH
 40
0.25
  9
$PSOLHEIGHT
 40
4.0
  9
$LOFTANG1
 40
1.570796326794896
  9
$LOFTANG2
 40
1.570796326794896
  9
$LOFTMAG1
 40
0.0
  9
$LOFTMAG2
 40
0.0
  9
$LOFTPARAM
 70
     7
  9
$LOFTNORMALS
280
     1
  9
$LATITUDE
 40
37.795
  9
$LONGITUDE
 40
-122.394
  9
$NORTHDIRECTION
 40
0.0
  9
$TIMEZONE
 70
 -8000
  9
$LIGHTGLYPHDISPLAY
280
     1
  9
$TILEMODELIGHTSYNCH
280
     1
  9
$CMATERIAL
347
11
  9
$SOLIDHIST
280
     0
  9
$SHOWHIST
280
     1
  9
$DWFFRAME
280
     2
  9
$DGNFRAME
280
     0
  9
$REALWORLDSCALE
290
     1
  9
$INTERFERECOLOR
 62
     1
  9
$INTERFEREOBJVS
345
33
  9
$INTERFEREVPVS
346
30
  9
$CSHADOW
280
     0
  9
$SHADOWPLANELOCATION
 40
0.0
  0
ENDSEC
  0
SECTION
  2
CLASSES
  0
CLASS
  1
ACDBDICTIONARYWDFLT
  2
AcDbDictionaryWithDefault
  3
ObjectDBX Classes
 90
        0
 91
        1
280
     0
281
     0
  0
CLASS
  1
MATERIAL
  2
AcDbMaterial
  3
ObjectDBX Classes
 90
     1153
 91
        3
280
     0
281
     0
  0
CLASS
  1
VISUALSTYLE
  2
AcDbVisualStyle
  3
ObjectDBX Classes
 90
     4095
 91
       24
280
     0
281
     0
  0
CLASS
  1
SCALE
  2
AcDbScale
  3
ObjectDBX Classes
 90
     1153
 91
       17
280
     0
281
     0
  0
CLASS
  1
TABLESTYLE
  2
AcDbTableStyle
  3
ObjectDBX Classes
 90
     4095
 91
        1
280
     0
281
     0
  0
CLASS
  1
MLEADERSTYLE
  2
AcDbMLeaderStyle
  3
ACDB_MLEADERSTYLE_CLASS
 90
     4095
 91
        1
280
     0
281
     0
  0
CLASS
  1
ACDBSECTIONVIEWSTYLE
  2
AcDbSectionViewStyle
  3
ObjectDBX Classes
 90
     1025
 91
        1
280
     0
281
     0
  0
CLASS
  1
ACDBDETAILVIEWSTYLE
  2
AcDbDetailViewStyle
  3
ObjectDBX Classes
 90
     1025
 91
        1
280
     0
281
     0
  0
CLASS
  1
ACAD_EVALUATION_GRAPH
  2
AcDbEvalGraph
  3
ObjectDBX Classes
 90
     1153
 91
        1
280
     0
281
     0
  0
CLASS
  1
ACAECUSTOBJ
  2
AcAeEditorObj
  3
AcAeEditorObj
 90
     1024
 91
        1
280
     0
281
     0
  0
CLASS
  1
SOLID_BACKGROUND
  2
AcDbSolidBackground
  3
SCENEOE
 90
     4095
 91
        1
280
     0
281
     0
  0
CLASS
  1
NPOCOLLECTION
  2
AcDbImpNonPersistentObjectsCollection
  3
ObjectDBX Classes
 90
     1153
 91
        1
280
     0
281
     0
  0
CLASS
  1
DICTIONARYVAR
  2
AcDbDictionaryVar
  3
ObjectDBX Classes
 90
        0
 91
       18
280
     0
281
     0
  0
CLASS
  1
CELLSTYLEMAP
  2
AcDbCellStyleMap
  3
ObjectDBX Classes
 90
     1152
 91
        1
280
     0
281
     0
  0
ENDSEC
  0
SECTION
  2
TABLES
  0
TABLE
  2
VPORT
  5
8
330
0
100
AcDbSymbolTable
 70
     1
  0
VPORT
  5
76
330
8
100
AcDbSymbolTableRecord
100
AcDbViewportTableRecord
  2
*Active
 70
     0
 10
0.0
 20
0.0
 11
1.0
 21
1.0
 12
0.2330728052213065
 22
5.541781689396415
 13
0.0
 23
0.0
 14
1.0
 24
1.0
 15
0.0
 25
0.0
 16
-0.000000000000032
 26
0.0
 36
146.857489720402
 17
18.11249976977706
 27
32.45224922895431
 37
0.0
 40
23.02242568143922
 41
1.288488210818307
 42
50.0
 43
0.0
 44
0.0
 50
0.0
 51
0.0
 71
     0
 72
   100
 73
     1
 74
     1
 75
     0
 76
     0
 77
     0
 78
     0
281
     0
 65
     1
110
0.0
120
0.0
130
0.0
111
1.0
121
0.0
131
0.0
112
0.0
122
1.0
132
0.0
 79
     0
146
0.0
348
2F
 60
     3
 61
     5
292
     1
282
     1
141
0.0
142
0.0
 63
   250
421
  3355443
1001
ACAD_NAV_VCDISPLAY
1070
     3
  0
ENDTAB
  0
TABLE
  2
LTYPE
  5
5
330
0
100
AcDbSymbolTable
 70
     2
  0
LTYPE
  5
5A
330
5
100
AcDbSymbolTableRecord
100
AcDbLinetypeTableRecord
  2
ByBlock
 70
     0
  3

 72
    65
 73
     0
 40
0.0
  0
LTYPE
  5
5B
330
5
100
AcDbSymbolTableRecord
100
AcDbLinetypeTableRecord
  2
ByLayer
 70
     0
  3

 72
    65
 73
     0
 40
0.0
  0
LTYPE
  5
5C
330
5
100
AcDbSymbolTableRecord
100
AcDbLinetypeTableRecord
  2
CONTINUOUS
 70
     0
  3
Solid line
 72
    65
 73
     0
 40
0.0
  0
LTYPE
  5
68
330
5
100
AcDbSymbolTableRecord
100
AcDbLinetypeTableRecord
  2
PHANTOM2
 70
     0
  3
Phantom (.5x) ___ _ _ ___ _ _ ___ _ _ ___ _ _
 72
    65
 73
     6
 40
1.25
 49
0.625
 74
     0
 49
-0.125
 74
     0
 49
0.125
 74
     0
 49
-0.125
 74
     0
 49
0.125
 74
     0
 49
-0.125
 74
     0
  0
ENDTAB
  0
TABLE
  2
LAYER
  5
2
102
{ACAD_XDICTIONARY
360
2CE
102
}
330
0
100
AcDbSymbolTable
 70
     2
  0
LAYER
  5
54
102
{ACAD_XDICTIONARY
360
2C7
102
}
330
2
100
AcDbSymbolTableRecord
100
AcDbLayerTableRecord
  2
0
 70
     0
 62
     7
  6
CONTINUOUS
370
    -3
390
F
347
21
348
0
  0
LAYER
  5
74
102
{ACAD_XDICTIONARY
360
2C9
102
}
330
2
100
AcDbSymbolTableRecord
100
AcDbLayerTableRecord
  2
31
 70
     0
 62
   253
  6
CONTINUOUS
370
    -3
390
F
347
21
348
0
  0
ENDTAB
  0
TABLE
  2
STYLE
  5
3
330
0
100
AcDbSymbolTable
 70
     2
  0
STYLE
  5
55
330
3
100
AcDbSymbolTableRecord
100
AcDbTextStyleTableRecord
  2
Standard
 70
     0
 40
0.0
 41
1.0
 50
0.0
 71
     0
 42
0.2
  3
txt
  4

  0
STYLE
  5
59
330
3
100
AcDbSymbolTableRecord
100
AcDbTextStyleTableRecord
  2
Annotative
 70
     0
 40
0.0
 41
1.0
 50
0.0
 71
     0
 42
0.2
  3
txt
  4

1001
AcadAnnotative
1000
AnnotativeData
1002
{
1070
     1
1070
     1
1002
}
  0
ENDTAB
  0
TABLE
  2
VIEW
  5
6
330
0
100
AcDbSymbolTable
 70
     2
  0
ENDTAB
  0
TABLE
  2
UCS
  5
7
330
0
100
AcDbSymbolTable
 70
     0
  0
ENDTAB
  0
TABLE
  2
APPID
  5
9
330
0
100
AcDbSymbolTable
 70
     4
  0
APPID
  5
56
330
9
100
AcDbSymbolTableRecord
100
AcDbRegAppTableRecord
  2
ACAD
 70
     0
  0
APPID
  5
5D
330
9
100
AcDbSymbolTableRecord
100
AcDbRegAppTableRecord
  2
AcadAnnotative
 70
     0
  0
APPID
  5
1C7
330
9
100
AcDbSymbolTableRecord
100
AcDbRegAppTableRecord
  2
ACAUTHENVIRON
 70
     0
  0
APPID
  5
2D4
330
9
100
AcDbSymbolTableRecord
100
AcDbRegAppTableRecord
  2
ACAD_NAV_VCDISPLAY
 70
     0
  0
ENDTAB
  0
TABLE
  2
DIMSTYLE
  5
A
330
0
100
AcDbSymbolTable
 70
     2
100
AcDbDimStyleTable
 71
     0
  0
DIMSTYLE
105
57
330
A
100
AcDbSymbolTableRecord
100
AcDbDimStyleTableRecord
  2
Standard
 70
     0
340
55
  0
DIMSTYLE
105
58
330
A
100
AcDbSymbolTableRecord
100
AcDbDimStyleTableRecord
  2
Annotative
 70
     0
340
55
1001
AcadAnnotative
1000
AnnotativeData
1002
{
1070
     1
1070
     1
1002
}
  0
ENDTAB
  0
TABLE
  2
BLOCK_RECORD
  5
1
330
0
100
AcDbSymbolTable
 70
    14
  0
BLOCK_RECORD
  5
70
330
1
100
AcDbSymbolTableRecord
100
AcDbBlockTableRecord
  2
*Model_Space
340
73
 70
     0
280
     1
281
     0
  0
BLOCK_RECORD
  5
6C
330
1
100
AcDbSymbolTableRecord
100
AcDbBlockTableRecord
  2
*Paper_Space
340
6F
 70
     0
280
     1
281
     0
  0
BLOCK_RECORD
  5
77
330
1
100
AcDbSymbolTableRecord
100
AcDbBlockTableRecord
  2
RECT
340
0
 70
     0
280
     1
281
     0
  0
BLOCK_RECORD
  5
7B
330
1
100
AcDbSymbolTableRecord
100
AcDbBlockTableRecord
  2
PIE
340
0
 70
     0
280
     1
281
     0
  0
BLOCK_RECORD
  5
7F
330
1
100
AcDbSymbolTableRecord
100
AcDbBlockTableRecord
  2
OCTAGONP
340
0
 70
     0
280
     1
281
     0
  0
BLOCK_RECORD
  5
8C
330
1
100
AcDbSymbolTableRecord
100
AcDbBlockTableRecord
  2
SQUAREP
340
0
 70
     0
280
     1
281
     0
  0
BLOCK_RECORD
  5
90
330
1
100
AcDbSymbolTableRecord
100
AcDbBlockTableRecord
  2
ROUNDP
340
0
 70
     0
280
     1
281
     0
  0
BLOCK_RECORD
  5
94
330
1
100
AcDbSymbolTableRecord
100
AcDbBlockTableRecord
  2
ANNULUSP
340
0
 70
     0
280
     1
281
     0
  0
BLOCK_RECORD
  5
98
330
1
100
AcDbSymbolTableRecord
100
AcDbBlockTableRecord
  2
THERMALP
340
0
 70
     0
280
     1
281
     0
  0
BLOCK_RECORD
  5
9F
330
1
100
AcDbSymbolTableRecord
100
AcDbBlockTableRecord
  2
OCTAGONV
340
0
 70
     0
280
     1
281
     0
  0
BLOCK_RECORD
  5
AC
330
1
100
AcDbSymbolTableRecord
100
AcDbBlockTableRecord
  2
SQUAREV
340
0
 70
     0
280
     1
281
     0
  0
BLOCK_RECORD
  5
B0
330
1
100
AcDbSymbolTableRecord
100
AcDbBlockTableRecord
  2
ROUNDV
340
0
 70
     0
280
     1
281
     0
  0
BLOCK_RECORD
  5
B4
330
1
100
AcDbSymbolTableRecord
100
AcDbBlockTableRecord
  2
ANNULUSV
340
0
 70
     0
280
     1
281
     0
  0
BLOCK_RECORD
  5
B8
330
1
100
AcDbSymbolTableRecord
100
AcDbBlockTableRecord
  2
THERMALV
340
0
 70
     0
280
     1
281
     0
  0
BLOCK_RECORD
  5
BF
330
1
100
AcDbSymbolTableRecord
100
AcDbBlockTableRecord
  2
LONGP100
340
0
 70
     0
280
     1
281
     0
  0
ENDTAB
  0
ENDSEC
  0
SECTION
  2
BLOCKS
  0
BLOCK
  5
71
330
70
100
AcDbEntity
  8
0
100
AcDbBlockBegin
  2
*Model_Space
 70
     0
 10
0.0
 20
0.0
 30
0.0
  3
*Model_Space
  1

  0
ENDBLK
  5
72
330
70
100
AcDbEntity
  8
0
100
AcDbBlockEnd
  0
BLOCK
  5
6D
330
6C
100
AcDbEntity
 67
     1
  8
0
100
AcDbBlockBegin
  2
*Paper_Space
 70
     0
 10
0.0
 20
0.0
 30
0.0
  3
*Paper_Space
  1

  0
ENDBLK
  5
6E
330
6C
100
AcDbEntity
 67
     1
  8
0
100
AcDbBlockEnd
  0
BLOCK
  5
78
330
77
100
AcDbEntity
  8
0
100
AcDbBlockBegin
  2
RECT
 70
     0
 10
0.0
 20
0.0
 30
0.0
  3
RECT
  1

  0
SOLID
  5
79
330
77
100
AcDbEntity
  8
0
100
AcDbTrace
 10
-0.5
 20
-0.5
 30
0.0
 11
0.5
 21
-0.5
 31
0.0
 12
-0.5
 22
0.5
 32
0.0
 13
0.5
 23
0.5
 33
0.0
  0
ENDBLK
  5
7A
330
77
100
AcDbEntity
  8
0
100
AcDbBlockEnd
  0
BLOCK
  5
7C
330
7B
100
AcDbEntity
  8
0
100
AcDbBlockBegin
  2
PIE
 70
     0
 10
0.0
 20
0.0
 30
0.0
  3
PIE
  1

  0
CIRCLE
  5
7D
330
7B
100
AcDbEntity
  8
0
100
AcDbCircle
 10
0.0
 20
0.0
 30
0.0
 40
0.5
  0
ENDBLK
  5
7E
330
7B
100
AcDbEntity
  8
0
100
AcDbBlockEnd
  0
BLOCK
  5
80
330
7F
100
AcDbEntity
  8
0
100
AcDbBlockBegin
  2
OCTAGONP
 70
     0
 10
0.0
 20
0.0
 30
0.0
  3
OCTAGONP
  1

  0
LWPOLYLINE
  5
81
330
7F
100
AcDbEntity
  8
0
100
AcDbPolyline
 90
        8
 70
     1
 43
0.0
 10
-0.5
 20
-0.2071
 10
-0.5
 20
0.2071
 10
-0.2071
 20
0.5
 10
0.2071
 20
0.5
 10
0.5
 20
0.2071
 10
0.5
 20
-0.2071
 10
0.2071
 20
-0.5
 10
-0.2071
 20
-0.5
  0
ENDBLK
  5
8B
330
7F
100
AcDbEntity
  8
0
100
AcDbBlockEnd
  0
BLOCK
  5
8D
330
8C
100
AcDbEntity
  8
0
100
AcDbBlockBegin
  2
SQUAREP
 70
     0
 10
0.0
 20
0.0
 30
0.0
  3
SQUAREP
  1

  0
SOLID
  5
8E
330
8C
100
AcDbEntity
  8
0
100
AcDbTrace
 10
-0.5
 20
-0.5
 30
0.0
 11
0.5
 21
-0.5
 31
0.0
 12
-0.5
 22
0.5
 32
0.0
 13
0.5
 23
0.5
 33
0.0
  0
ENDBLK
  5
8F
330
8C
100
AcDbEntity
  8
0
100
AcDbBlockEnd
  0
BLOCK
  5
91
330
90
100
AcDbEntity
  8
0
100
AcDbBlockBegin
  2
ROUNDP
 70
     0
 10
0.0
 20
0.0
 30
0.0
  3
ROUNDP
  1

  0
CIRCLE
  5
92
330
90
100
AcDbEntity
  8
0
100
AcDbCircle
 10
0.0
 20
0.0
 30
0.0
 40
0.5
  0
ENDBLK
  5
93
330
90
100
AcDbEntity
  8
0
100
AcDbBlockEnd
  0
BLOCK
  5
95
330
94
100
AcDbEntity
  8
0
100
AcDbBlockBegin
  2
ANNULUSP
 70
     0
 10
0.0
 20
0.0
 30
0.0
  3
ANNULUSP
  1

  0
CIRCLE
  5
96
330
94
100
AcDbEntity
  8
0
100
AcDbCircle
 10
0.0
 20
0.0
 30
0.0
 40
0.5
  0
ENDBLK
  5
97
330
94
100
AcDbEntity
  8
0
100
AcDbBlockEnd
  0
BLOCK
  5
99
330
98
100
AcDbEntity
  8
0
100
AcDbBlockBegin
  2
THERMALP
 70
     0
 10
0.0
 20
0.0
 30
0.0
  3
THERMALP
  1

  0
LINE
  5
9A
330
98
100
AcDbEntity
  8
0
100
AcDbLine
 10
-0.2379
 20
0.45
 30
0.0
 11
0.2379
 21
0.45
 31
0.0
  0
LINE
  5
9B
330
98
100
AcDbEntity
  8
0
100
AcDbLine
 10
0.45
 20
0.2379
 30
0.0
 11
0.45
 21
-0.2379
 31
0.0
  0
LINE
  5
9C
330
98
100
AcDbEntity
  8
0
100
AcDbLine
 10
0.2379
 20
-0.45
 30
0.0
 11
-0.2379
 21
-0.45
 31
0.0
  0
LINE
  5
9D
330
98
100
AcDbEntity
  8
0
100
AcDbLine
 10
-0.45
 20
-0.2379
 30
0.0
 11
-0.45
 21
0.2379
 31
0.0
  0
ENDBLK
  5
9E
330
98
100
AcDbEntity
  8
0
100
AcDbBlockEnd
  0
BLOCK
  5
A0
330
9F
100
AcDbEntity
  8
0
100
AcDbBlockBegin
  2
OCTAGONV
 70
     0
 10
0.0
 20
0.0
 30
0.0
  3
OCTAGONV
  1

  0
LWPOLYLINE
  5
A1
330
9F
100
AcDbEntity
  8
0
100
AcDbPolyline
 90
        8
 70
     1
 43
0.0
 10
-0.5
 20
-0.2071
 10
-0.5
 20
0.2071
 10
-0.2071
 20
0.5
 10
0.2071
 20
0.5
 10
0.5
 20
0.2071
 10
0.5
 20
-0.2071
 10
0.2071
 20
-0.5
 10
-0.2071
 20
-0.5
  0
ENDBLK
  5
AB
330
9F
100
AcDbEntity
  8
0
100
AcDbBlockEnd
  0
BLOCK
  5
AD
330
AC
100
AcDbEntity
  8
0
100
AcDbBlockBegin
  2
SQUAREV
 70
     0
 10
0.0
 20
0.0
 30
0.0
  3
SQUAREV
  1

  0
SOLID
  5
AE
330
AC
100
AcDbEntity
  8
0
100
AcDbTrace
 10
-0.5
 20
-0.5
 30
0.0
 11
0.5
 21
-0.5
 31
0.0
 12
-0.5
 22
0.5
 32
0.0
 13
0.5
 23
0.5
 33
0.0
  0
ENDBLK
  5
AF
330
AC
100
AcDbEntity
  8
0
100
AcDbBlockEnd
  0
BLOCK
  5
B1
330
B0
100
AcDbEntity
  8
0
100
AcDbBlockBegin
  2
ROUNDV
 70
     0
 10
0.0
 20
0.0
 30
0.0
  3
ROUNDV
  1

  0
CIRCLE
  5
B2
330
B0
100
AcDbEntity
  8
0
100
AcDbCircle
 10
0.0
 20
0.0
 30
0.0
 40
0.5
  0
ENDBLK
  5
B3
330
B0
100
AcDbEntity
  8
0
100
AcDbBlockEnd
  0
BLOCK
  5
B5
330
B4
100
AcDbEntity
  8
0
100
AcDbBlockBegin
  2
ANNULUSV
 70
     0
 10
0.0
 20
0.0
 30
0.0
  3
ANNULUSV
  1

  0
CIRCLE
  5
B6
330
B4
100
AcDbEntity
  8
0
100
AcDbCircle
 10
0.0
 20
0.0
 30
0.0
 40
0.5
  0
ENDBLK
  5
B7
330
B4
100
AcDbEntity
  8
0
100
AcDbBlockEnd
  0
BLOCK
  5
B9
330
B8
100
AcDbEntity
  8
0
100
AcDbBlockBegin
  2
THERMALV
 70
     0
 10
0.0
 20
0.0
 30
0.0
  3
THERMALV
  1

  0
LINE
  5
BA
330
B8
100
AcDbEntity
  8
0
100
AcDbLine
 10
-0.2379
 20
0.45
 30
0.0
 11
0.2379
 21
0.45
 31
0.0
  0
LINE
  5
BB
330
B8
100
AcDbEntity
  8
0
100
AcDbLine
 10
0.45
 20
0.2379
 30
0.0
 11
0.45
 21
-0.2379
 31
0.0
  0
LINE
  5
BC
330
B8
100
AcDbEntity
  8
0
100
AcDbLine
 10
0.2379
 20
-0.45
 30
0.0
 11
-0.2379
 21
-0.45
 31
0.0
  0
LINE
  5
BD
330
B8
100
AcDbEntity
  8
0
100
AcDbLine
 10
-0.45
 20
-0.2379
 30
0.0
 11
-0.45
 21
0.2379
 31
0.0
  0
ENDBLK
  5
BE
330
B8
100
AcDbEntity
  8
0
100
AcDbBlockEnd
  0
BLOCK
  5
C0
330
BF
100
AcDbEntity
  8
0
100
AcDbBlockBegin
  2
LONGP100
 70
     0
 10
0.0
 20
0.0
 30
0.0
  3
LONGP100
  1

  0
LWPOLYLINE
  5
C1
330
BF
100
AcDbEntity
  8
0
100
AcDbPolyline
 90
        4
 70
     1
 43
0.0
 10
-0.5
 20
-0.5
 10
0.5
 20
-0.5
 42
1.0
 10
0.5
 20
0.5
 10
-0.5
 20
0.5
 42
1.0
  0
ENDBLK
  5
C7
330
BF
100
AcDbEntity
  8
0
100
AcDbBlockEnd
  0
ENDSEC
  0
SECTION
  2
ENTITIES
  0
SOLID
  5
1CB
330
70
100
AcDbEntity
  8
0
100
AcDbTrace
 10
26.225
 20
15.2999
 30
0.0
 11
25.675
 21
15.2999
 31
0.0
 12
26.225
 22
14.0999
 32
0.0
 13
25.675
 23
14.0999
 33
0.0
  0
SOLID
  5
1CC
330
70
100
AcDbEntity
  8
0
100
AcDbTrace
 10
24.325
 20
15.2999
 30
0.0
 11
23.775
 21
15.2999
 31
0.0
 12
24.325
 22
14.0999
 32
0.0
 13
23.775
 23
14.0999
 33
0.0
  0
SOLID
  5
1CD
330
70
100
AcDbEntity
  8
0
100
AcDbTrace
 10
24.325
 20
17.9001
 30
0.0
 11
23.775
 21
17.9001
 31
0.0
 12
24.325
 22
16.7001
 32
0.0
 13
23.775
 23
16.7001
 33
0.0
  0
SOLID
  5
1CE
330
70
100
AcDbEntity
  8
0
100
AcDbTrace
 10
25.275
 20
17.9001
 30
0.0
 11
24.725
 21
17.9001
 31
0.0
 12
25.275
 22
16.7001
 32
0.0
 13
24.725
 23
16.7001
 33
0.0
  0
SOLID
  5
1CF
330
70
100
AcDbEntity
  8
0
100
AcDbTrace
 10
26.225
 20
17.9001
 30
0.0
 11
25.675
 21
17.9001
 31
0.0
 12
26.225
 22
16.7001
 32
0.0
 13
25.675
 23
16.7001
 33
0.0
  0
SOLID
  5
1D0
330
70
100
AcDbEntity
  8
0
100
AcDbTrace
 10
16.525
 20
1.75
 30
0.0
 11
16.525
 21
6.25
 31
0.0
 12
14.725
 22
1.75
 32
0.0
 13
14.725
 23
6.25
 33
0.0
  0
SOLID
  5
1D1
330
70
100
AcDbEntity
  8
0
100
AcDbTrace
 10
13.275
 20
1.75
 30
0.0
 11
13.275
 21
6.25
 31
0.0
 12
11.475
 22
1.75
 32
0.0
 13
11.475
 23
6.25
 33
0.0
  0
SOLID
  5
1D2
330
70
100
AcDbEntity
  8
0
100
AcDbTrace
 10
7.609999999999999
 20
35.195
 30
0.0
 11
7.61
 21
36.105
 31
0.0
 12
6.389999999999999
 22
35.195
 32
0.0
 13
6.39
 23
36.105
 33
0.0
  0
SOLID
  5
1D3
330
70
100
AcDbEntity
  8
0
100
AcDbTrace
 10
7.609999999999999
 20
31.895
 30
0.0
 11
7.61
 21
32.805
 31
0.0
 12
6.389999999999999
 22
31.89500000000001
 32
0.0
 13
6.39
 23
32.805
 33
0.0
  0
SOLID
  5
1D4
330
70
100
AcDbEntity
  8
0
100
AcDbTrace
 10
10.7
 20
39.85
 30
0.0
 11
10.7
 21
39.45
 31
0.0
 12
11.3
 22
39.85
 32
0.0
 13
11.3
 23
39.45
 33
0.0
  0
SOLID
  5
1D5
330
70
100
AcDbEntity
  8
0
100
AcDbTrace
 10
10.7
 20
39.2
 30
0.0
 11
10.7
 21
38.8
 31
0.0
 12
11.3
 22
39.2
 32
0.0
 13
11.3
 23
38.8
 33
0.0
  0
SOLID
  5
1D6
330
70
100
AcDbEntity
  8
0
100
AcDbTrace
 10
10.7
 20
38.55
 30
0.0
 11
10.7
 21
38.15
 31
0.0
 12
11.3
 22
38.55
 32
0.0
 13
11.3
 23
38.15
 33
0.0
  0
SOLID
  5
1D7
330
70
100
AcDbEntity
  8
0
100
AcDbTrace
 10
8.699999999999999
 20
38.55
 30
0.0
 11
8.699999999999999
 21
38.15
 31
0.0
 12
9.3
 22
38.55
 32
0.0
 13
9.3
 23
38.15
 33
0.0
  0
SOLID
  5
1D8
330
70
100
AcDbEntity
  8
0
100
AcDbTrace
 10
8.699999999999999
 20
39.2
 30
0.0
 11
8.699999999999999
 21
38.8
 31
0.0
 12
9.3
 22
39.2
 32
0.0
 13
9.3
 23
38.8
 33
0.0
  0
SOLID
  5
1D9
330
70
100
AcDbEntity
  8
0
100
AcDbTrace
 10
8.699999999999999
 20
39.85
 30
0.0
 11
8.699999999999999
 21
39.45
 31
0.0
 12
9.3
 22
39.85
 32
0.0
 13
9.3
 23
39.45
 33
0.0
  0
SOLID
  5
1DA
330
70
100
AcDbEntity
  8
0
100
AcDbTrace
 10
22.65
 20
63.7
 30
0.0
 11
23.05
 21
63.7
 31
0.0
 12
22.65
 22
64.29999999999999
 32
0.0
 13
23.05
 23
64.29999999999999
 33
0.0
  0
SOLID
  5
1DB
330
70
100
AcDbEntity
  8
0
100
AcDbTrace
 10
23.3
 20
63.7
 30
0.0
 11
23.7
 21
63.7
 31
0.0
 12
23.3
 22
64.29999999999999
 32
0.0
 13
23.7
 23
64.29999999999999
 33
0.0
  0
SOLID
  5
1DC
330
70
100
AcDbEntity
  8
0
100
AcDbTrace
 10
23.95
 20
63.7
 30
0.0
 11
24.35
 21
63.7
 31
0.0
 12
23.95
 22
64.29999999999999
 32
0.0
 13
24.35
 23
64.29999999999999
 33
0.0
  0
SOLID
  5
1DD
330
70
100
AcDbEntity
  8
0
100
AcDbTrace
 10
23.95
 20
61.7
 30
0.0
 11
24.35
 21
61.7
 31
0.0
 12
23.95
 22
62.3
 32
0.0
 13
24.35
 23
62.3
 33
0.0
  0
SOLID
  5
1DE
330
70
100
AcDbEntity
  8
0
100
AcDbTrace
 10
23.3
 20
61.7
 30
0.0
 11
23.7
 21
61.7
 31
0.0
 12
23.3
 22
62.3
 32
0.0
 13
23.7
 23
62.3
 33
0.0
  0
SOLID
  5
1DF
330
70
100
AcDbEntity
  8
0
100
AcDbTrace
 10
22.65
 20
61.7
 30
0.0
 11
23.05
 21
61.7
 31
0.0
 12
22.65
 22
62.3
 32
0.0
 13
23.05
 23
62.3
 33
0.0
  0
SOLID
  5
1E0
330
70
100
AcDbEntity
  8
0
100
AcDbTrace
 10
35.195
 20
62.39
 30
0.0
 11
36.105
 21
62.39
 31
0.0
 12
35.195
 22
63.61
 32
0.0
 13
36.105
 23
63.61
 33
0.0
  0
SOLID
  5
1E1
330
70
100
AcDbEntity
  8
0
100
AcDbTrace
 10
31.89500000000001
 20
62.39
 30
0.0
 11
32.805
 21
62.39
 31
0.0
 12
31.89500000000001
 22
63.61
 32
0.0
 13
32.805
 23
63.61
 33
0.0
  0
SOLID
  5
1E2
330
70
100
AcDbEntity
  8
0
100
AcDbTrace
 10
20.61
 20
10.195
 30
0.0
 11
20.61
 21
11.105
 31
0.0
 12
19.39
 22
10.195
 32
0.0
 13
19.39
 23
11.105
 33
0.0
  0
SOLID
  5
1E3
330
70
100
AcDbEntity
  8
0
100
AcDbTrace
 10
20.61
 20
6.894999999999999
 30
0.0
 11
20.61
 21
7.804999999999999
 31
0.0
 12
19.39
 22
6.894999999999999
 32
0.0
 13
19.39
 23
7.804999999999999
 33
0.0
  0
SOLID
  5
1E4
330
70
100
AcDbEntity
  8
0
100
AcDbTrace
 10
15.2999
 20
7.775
 30
0.0
 11
15.2999
 21
8.325000000000001
 31
0.0
 12
14.0999
 22
7.775
 32
0.0
 13
14.0999
 23
8.325000000000001
 33
0.0
  0
SOLID
  5
1E5
330
70
100
AcDbEntity
  8
0
100
AcDbTrace
 10
15.2999
 20
9.674999999999998
 30
0.0
 11
15.2999
 21
10.225
 31
0.0
 12
14.0999
 22
9.674999999999998
 32
0.0
 13
14.0999
 23
10.225
 33
0.0
  0
SOLID
  5
1E6
330
70
100
AcDbEntity
  8
0
100
AcDbTrace
 10
17.9001
 20
9.674999999999998
 30
0.0
 11
17.9001
 21
10.225
 31
0.0
 12
16.7001
 22
9.674999999999998
 32
0.0
 13
16.7001
 23
10.225
 33
0.0
  0
SOLID
  5
1E7
330
70
100
AcDbEntity
  8
0
100
AcDbTrace
 10
17.9001
 20
8.724999999999999
 30
0.0
 11
17.9001
 21
9.275
 31
0.0
 12
16.7001
 22
8.724999999999999
 32
0.0
 13
16.7001
 23
9.275
 33
0.0
  0
SOLID
  5
1E8
330
70
100
AcDbEntity
  8
0
100
AcDbTrace
 10
17.9001
 20
7.775
 30
0.0
 11
17.9001
 21
8.325000000000001
 31
0.0
 12
16.7001
 22
7.775
 32
0.0
 13
16.7001
 23
8.325000000000001
 33
0.0
  0
SOLID
  5
1E9
330
70
100
AcDbEntity
  8
0
100
AcDbTrace
 10
18.2999
 20
57.77499999999999
 30
0.0
 11
18.2999
 21
58.32499999999999
 31
0.0
 12
17.0999
 22
57.77499999999999
 32
0.0
 13
17.0999
 23
58.32499999999999
 33
0.0
  0
SOLID
  5
1EA
330
70
100
AcDbEntity
  8
0
100
AcDbTrace
 10
18.2999
 20
59.67500000000001
 30
0.0
 11
18.2999
 21
60.225
 31
0.0
 12
17.0999
 22
59.67500000000001
 32
0.0
 13
17.0999
 23
60.225
 33
0.0
  0
SOLID
  5
1EB
330
70
100
AcDbEntity
  8
0
100
AcDbTrace
 10
20.9001
 20
59.67500000000001
 30
0.0
 11
20.9001
 21
60.225
 31
0.0
 12
19.7001
 22
59.67500000000001
 32
0.0
 13
19.7001
 23
60.225
 33
0.0
  0
SOLID
  5
1EC
330
70
100
AcDbEntity
  8
0
100
AcDbTrace
 10
20.9001
 20
58.725
 30
0.0
 11
20.9001
 21
59.275
 31
0.0
 12
19.7001
 22
58.725
 32
0.0
 13
19.7001
 23
59.275
 33
0.0
  0
SOLID
  5
1ED
330
70
100
AcDbEntity
  8
0
100
AcDbTrace
 10
20.9001
 20
57.77499999999999
 30
0.0
 11
20.9001
 21
58.32499999999999
 31
0.0
 12
19.7001
 22
57.77499999999999
 32
0.0
 13
19.7001
 23
58.32499999999999
 33
0.0
  0
SOLID
  5
1EE
330
70
100
AcDbEntity
  8
0
100
AcDbTrace
 10
31.2999
 20
57.77499999999999
 30
0.0
 11
31.2999
 21
58.32499999999999
 31
0.0
 12
30.0999
 22
57.77499999999999
 32
0.0
 13
30.0999
 23
58.32499999999999
 33
0.0
  0
SOLID
  5
1EF
330
70
100
AcDbEntity
  8
0
100
AcDbTrace
 10
31.2999
 20
59.67500000000001
 30
0.0
 11
31.2999
 21
60.225
 31
0.0
 12
30.0999
 22
59.67500000000001
 32
0.0
 13
30.0999
 23
60.225
 33
0.0
  0
SOLID
  5
1F0
330
70
100
AcDbEntity
  8
0
100
AcDbTrace
 10
33.9001
 20
59.67500000000001
 30
0.0
 11
33.9001
 21
60.225
 31
0.0
 12
32.7001
 22
59.67500000000001
 32
0.0
 13
32.7001
 23
60.225
 33
0.0
  0
SOLID
  5
1F1
330
70
100
AcDbEntity
  8
0
100
AcDbTrace
 10
33.9001
 20
58.725
 30
0.0
 11
33.9001
 21
59.275
 31
0.0
 12
32.7001
 22
58.725
 32
0.0
 13
32.7001
 23
59.275
 33
0.0
  0
SOLID
  5
1F2
330
70
100
AcDbEntity
  8
0
100
AcDbTrace
 10
33.9001
 20
57.77499999999999
 30
0.0
 11
33.9001
 21
58.32499999999999
 31
0.0
 12
32.7001
 22
57.77499999999999
 32
0.0
 13
32.7001
 23
58.32499999999999
 33
0.0
  0
SOLID
  5
1F3
330
70
100
AcDbEntity
  8
0
100
AcDbTrace
 10
25.2999
 20
57.77499999999999
 30
0.0
 11
25.2999
 21
58.32499999999999
 31
0.0
 12
24.0999
 22
57.77499999999999
 32
0.0
 13
24.0999
 23
58.32499999999999
 33
0.0
  0
SOLID
  5
1F4
330
70
100
AcDbEntity
  8
0
100
AcDbTrace
 10
25.2999
 20
59.67500000000001
 30
0.0
 11
25.2999
 21
60.225
 31
0.0
 12
24.0999
 22
59.67500000000001
 32
0.0
 13
24.0999
 23
60.225
 33
0.0
  0
SOLID
  5
1F5
330
70
100
AcDbEntity
  8
0
100
AcDbTrace
 10
27.9001
 20
59.67500000000001
 30
0.0
 11
27.9001
 21
60.225
 31
0.0
 12
26.7001
 22
59.67500000000001
 32
0.0
 13
26.7001
 23
60.225
 33
0.0
  0
SOLID
  5
1F6
330
70
100
AcDbEntity
  8
0
100
AcDbTrace
 10
27.9001
 20
58.725
 30
0.0
 11
27.9001
 21
59.275
 31
0.0
 12
26.7001
 22
58.725
 32
0.0
 13
26.7001
 23
59.275
 33
0.0
  0
SOLID
  5
1F7
330
70
100
AcDbEntity
  8
0
100
AcDbTrace
 10
27.9001
 20
57.77499999999999
 30
0.0
 11
27.9001
 21
58.32499999999999
 31
0.0
 12
26.7001
 22
57.77499999999999
 32
0.0
 13
26.7001
 23
58.32499999999999
 33
0.0
  0
SOLID
  5
1F8
330
70
100
AcDbEntity
  8
0
100
AcDbTrace
 10
3.094999999999999
 20
36.625
 30
0.0
 11
3.094999999999999
 21
36.225
 31
0.0
 12
4.445
 22
36.625
 32
0.0
 13
4.445
 23
36.225
 33
0.0
  0
SOLID
  5
1F9
330
70
100
AcDbEntity
  8
0
100
AcDbTrace
 10
3.094999999999999
 20
37.27500000000001
 30
0.0
 11
3.094999999999999
 21
36.875
 31
0.0
 12
4.445
 22
37.27500000000001
 32
0.0
 13
4.445
 23
36.875
 33
0.0
  0
SOLID
  5
1FA
330
70
100
AcDbEntity
  8
0
100
AcDbTrace
 10
3.094999999999999
 20
37.925
 30
0.0
 11
3.094999999999999
 21
37.525
 31
0.0
 12
4.445
 22
37.925
 32
0.0
 13
4.445
 23
37.525
 33
0.0
  0
SOLID
  5
1FB
330
70
100
AcDbEntity
  8
0
100
AcDbTrace
 10
3.094999999999999
 20
38.575
 30
0.0
 11
3.094999999999999
 21
38.175
 31
0.0
 12
4.445
 22
38.575
 32
0.0
 13
4.445
 23
38.175
 33
0.0
  0
SOLID
  5
1FC
330
70
100
AcDbEntity
  8
0
100
AcDbTrace
 10
3.094999999999999
 20
39.225
 30
0.0
 11
3.094999999999999
 21
38.825
 31
0.0
 12
4.445
 22
39.225
 32
0.0
 13
4.445
 23
38.825
 33
0.0
  0
SOLID
  5
1FD
330
70
100
AcDbEntity
  8
0
100
AcDbTrace
 10
2.82
 20
35.675
 30
0.0
 11
2.819999999999999
 21
33.575
 31
0.0
 12
4.419999999999999
 22
35.675
 32
0.0
 13
4.419999999999999
 23
33.575
 33
0.0
  0
SOLID
  5
1FE
330
70
100
AcDbEntity
  8
0
100
AcDbTrace
 10
2.82
 20
41.875
 30
0.0
 11
2.819999999999999
 21
39.77500000000001
 31
0.0
 12
4.419999999999999
 22
41.875
 32
0.0
 13
4.419999999999999
 23
39.77500000000001
 33
0.0
  0
SOLID
  5
1FF
330
70
100
AcDbEntity
  8
0
100
AcDbTrace
 10
0.1200000000000003
 20
37.475
 30
0.0
 11
0.1199999999999999
 21
35.575
 31
0.0
 12
2.02
 22
37.475
 32
0.0
 13
2.019999999999999
 23
35.575
 33
0.0
  0
SOLID
  5
200
330
70
100
AcDbEntity
  8
0
100
AcDbTrace
 10
0.1200000000000003
 20
39.875
 30
0.0
 11
0.1199999999999999
 21
37.97499999999999
 31
0.0
 12
2.02
 22
39.875
 32
0.0
 13
2.019999999999999
 23
37.97499999999999
 33
0.0
  0
SOLID
  5
201
330
70
100
AcDbEntity
  8
0
100
AcDbTrace
 10
0.1200000000000003
 20
42.42499999999999
 30
0.0
 11
0.1199999999999999
 21
40.625
 31
0.0
 12
2.02
 22
42.42499999999999
 32
0.0
 13
2.019999999999999
 23
40.625
 33
0.0
  0
SOLID
  5
202
330
70
100
AcDbEntity
  8
0
100
AcDbTrace
 10
0.1200000000000003
 20
34.825
 30
0.0
 11
0.1199999999999999
 21
33.025
 31
0.0
 12
2.02
 22
34.825
 32
0.0
 13
2.019999999999999
 23
33.025
 33
0.0
  0
SOLID
  5
203
330
70
100
AcDbEntity
  8
0
100
AcDbTrace
 10
33.2999
 20
53.775
 30
0.0
 11
33.2999
 21
54.325
 31
0.0
 12
32.0999
 22
53.775
 32
0.0
 13
32.0999
 23
54.325
 33
0.0
  0
SOLID
  5
204
330
70
100
AcDbEntity
  8
0
100
AcDbTrace
 10
33.2999
 20
55.675
 30
0.0
 11
33.2999
 21
56.225
 31
0.0
 12
32.0999
 22
55.675
 32
0.0
 13
32.0999
 23
56.225
 33
0.0
  0
SOLID
  5
205
330
70
100
AcDbEntity
  8
0
100
AcDbTrace
 10
35.9001
 20
55.675
 30
0.0
 11
35.9001
 21
56.225
 31
0.0
 12
34.7001
 22
55.675
 32
0.0
 13
34.7001
 23
56.225
 33
0.0
  0
SOLID
  5
206
330
70
100
AcDbEntity
  8
0
100
AcDbTrace
 10
35.9001
 20
54.725
 30
0.0
 11
35.9001
 21
55.27499999999999
 31
0.0
 12
34.7001
 22
54.725
 32
0.0
 13
34.7001
 23
55.27499999999999
 33
0.0
  0
SOLID
  5
207
330
70
100
AcDbEntity
  8
0
100
AcDbTrace
 10
35.9001
 20
53.775
 30
0.0
 11
35.9001
 21
54.325
 31
0.0
 12
34.7001
 22
53.775
 32
0.0
 13
34.7001
 23
54.325
 33
0.0
  0
SOLID
  5
208
330
70
100
AcDbEntity
  8
0
100
AcDbTrace
 10
19.01003008588991
 20
26.07069805153395
 30
0.0
 11
18.79789805153395
 21
26.28283008588991
 31
0.0
 12
18.16150194846605
 22
25.22216991411009
 32
0.0
 13
17.94936991411009
 23
25.43430194846605
 33
0.0
  0
SOLID
  5
209
330
70
100
AcDbEntity
  8
0
100
AcDbTrace
 10
18.65653008588991
 20
26.42429805153395
 30
0.0
 11
18.44439805153395
 21
26.63643008588991
 31
0.0
 12
17.80800194846605
 22
25.57576991411009
 32
0.0
 13
17.59586991411009
 23
25.78790194846606
 33
0.0
  0
SOLID
  5
20A
330
70
100
AcDbEntity
  8
0
100
AcDbTrace
 10
18.30293008588991
 20
26.77779805153395
 30
0.0
 11
18.09079805153395
 21
26.98993008588991
 31
0.0
 12
17.45440194846605
 22
25.92926991411009
 32
0.0
 13
17.24226991411009
 23
26.14140194846605
 33
0.0
  0
SOLID
  5
20B
330
70
100
AcDbEntity
  8
0
100
AcDbTrace
 10
17.94943008588991
 20
27.13139805153395
 30
0.0
 11
17.73729805153395
 21
27.34353008588991
 31
0.0
 12
17.10090194846605
 22
26.28286991411009
 32
0.0
 13
16.88876991411009
 23
26.49500194846605
 33
0.0
  0
SOLID
  5
20C
330
70
100
AcDbEntity
  8
0
100
AcDbTrace
 10
17.59583008588991
 20
27.48489805153395
 30
0.0
 11
17.38369805153395
 21
27.69703008588991
 31
0.0
 12
16.74730194846605
 22
26.63636991411009
 32
0.0
 13
16.53516991411009
 23
26.84850194846605
 33
0.0
  0
SOLID
  5
20D
330
70
100
AcDbEntity
  8
0
100
AcDbTrace
 10
17.24233008588991
 20
27.83849805153395
 30
0.0
 11
17.03019805153395
 21
28.05063008588991
 31
0.0
 12
16.39380194846605
 22
26.98996991411009
 32
0.0
 13
16.18166991411009
 23
27.20210194846605
 33
0.0
  0
SOLID
  5
20E
330
70
100
AcDbEntity
  8
0
100
AcDbTrace
 10
16.88873008588991
 20
28.19199805153395
 30
0.0
 11
16.67659805153395
 21
28.40413008588991
 31
0.0
 12
16.04020194846605
 22
27.34346991411009
 32
0.0
 13
15.82806991411009
 23
27.55560194846605
 33
0.0
  0
SOLID
  5
20F
330
70
100
AcDbEntity
  8
0
100
AcDbTrace
 10
16.53513008588991
 20
28.54559805153395
 30
0.0
 11
16.32299805153395
 21
28.75773008588991
 31
0.0
 12
15.68660194846605
 22
27.69706991411009
 32
0.0
 13
15.47446991411009
 23
27.90920194846605
 33
0.0
  0
SOLID
  5
210
330
70
100
AcDbEntity
  8
0
100
AcDbTrace
 10
16.18163008588991
 20
28.89909805153395
 30
0.0
 11
15.96949805153395
 21
29.11123008588991
 31
0.0
 12
15.33310194846605
 22
28.05056991411009
 32
0.0
 13
15.12096991411009
 23
28.26270194846605
 33
0.0
  0
SOLID
  5
211
330
70
100
AcDbEntity
  8
0
100
AcDbTrace
 10
15.82803008588991
 20
29.25269805153395
 30
0.0
 11
15.61589805153395
 21
29.46483008588991
 31
0.0
 12
14.97950194846605
 22
28.40416991411009
 32
0.0
 13
14.76736991411009
 23
28.61630194846605
 33
0.0
  0
SOLID
  5
212
330
70
100
AcDbEntity
  8
0
100
AcDbTrace
 10
15.47453008588991
 20
29.60619805153395
 30
0.0
 11
15.26239805153394
 21
29.81833008588991
 31
0.0
 12
14.62600194846605
 22
28.75766991411009
 32
0.0
 13
14.41386991411009
 23
28.96980194846605
 33
0.0
  0
SOLID
  5
213
330
70
100
AcDbEntity
  8
0
100
AcDbTrace
 10
15.12093008588991
 20
29.95979805153395
 30
0.0
 11
14.90879805153394
 21
30.17193008588991
 31
0.0
 12
14.27240194846605
 22
29.11126991411009
 32
0.0
 13
14.06026991411009
 23
29.32340194846605
 33
0.0
  0
SOLID
  5
214
330
70
100
AcDbEntity
  8
0
100
AcDbTrace
 10
14.90879805153394
 20
31.23256991411009
 30
0.0
 11
15.12093008588991
 21
31.44470194846605
 31
0.0
 12
14.06026991411009
 22
32.08109805153394
 32
0.0
 13
14.27240194846605
 23
32.29323008588991
 33
0.0
  0
SOLID
  5
215
330
70
100
AcDbEntity
  8
0
100
AcDbTrace
 10
15.26239805153394
 20
31.58616991411009
 30
0.0
 11
15.47453008588991
 21
31.79830194846605
 31
0.0
 12
14.41386991411009
 22
32.43469805153395
 32
0.0
 13
14.62600194846605
 23
32.64683008588991
 33
0.0
  0
SOLID
  5
216
330
70
100
AcDbEntity
  8
0
100
AcDbTrace
 10
15.61589805153395
 20
31.93966991411009
 30
0.0
 11
15.82803008588991
 21
32.15180194846605
 31
0.0
 12
14.76736991411009
 22
32.78819805153395
 32
0.0
 13
14.97950194846605
 23
33.00033008588991
 33
0.0
  0
SOLID
  5
217
330
70
100
AcDbEntity
  8
0
100
AcDbTrace
 10
15.96949805153395
 20
32.29326991411009
 30
0.0
 11
16.18163008588991
 21
32.50540194846605
 31
0.0
 12
15.12096991411009
 22
33.14179805153395
 32
0.0
 13
15.33310194846605
 23
33.35393008588991
 33
0.0
  0
SOLID
  5
218
330
70
100
AcDbEntity
  8
0
100
AcDbTrace
 10
16.32299805153395
 20
32.6467699141101
 30
0.0
 11
16.53513008588991
 21
32.85890194846606
 31
0.0
 12
15.47446991411009
 22
33.49529805153395
 32
0.0
 13
15.68660194846605
 23
33.70743008588991
 33
0.0
  0
SOLID
  5
219
330
70
100
AcDbEntity
  8
0
100
AcDbTrace
 10
16.67659805153395
 20
33.0003699141101
 30
0.0
 11
16.88873008588991
 21
33.21250194846605
 31
0.0
 12
15.82806991411009
 22
33.84889805153395
 32
0.0
 13
16.04020194846605
 23
34.06103008588991
 33
0.0
  0
SOLID
  5
21A
330
70
100
AcDbEntity
  8
0
100
AcDbTrace
 10
17.03019805153395
 20
33.35386991411009
 30
0.0
 11
17.24233008588991
 21
33.56600194846605
 31
0.0
 12
16.18166991411009
 22
34.20239805153395
 32
0.0
 13
16.39380194846605
 23
34.41453008588991
 33
0.0
  0
SOLID
  5
21B
330
70
100
AcDbEntity
  8
0
100
AcDbTrace
 10
17.38369805153395
 20
33.70746991411009
 30
0.0
 11
17.59583008588991
 21
33.91960194846606
 31
0.0
 12
16.53516991411009
 22
34.55599805153395
 32
0.0
 13
16.74730194846605
 23
34.76813008588991
 33
0.0
  0
SOLID
  5
21C
330
70
100
AcDbEntity
  8
0
100
AcDbTrace
 10
17.73729805153395
 20
34.06096991411009
 30
0.0
 11
17.94943008588991
 21
34.27310194846605
 31
0.0
 12
16.88876991411009
 22
34.90949805153395
 32
0.0
 13
17.10090194846605
 23
35.1216300858899
 33
0.0
  0
SOLID
  5
21D
330
70
100
AcDbEntity
  8
0
100
AcDbTrace
 10
18.09079805153395
 20
34.41456991411009
 30
0.0
 11
18.30293008588991
 21
34.62670194846605
 31
0.0
 12
17.24226991411009
 22
35.26309805153394
 32
0.0
 13
17.45440194846605
 23
35.47523008588991
 33
0.0
  0
SOLID
  5
21E
330
70
100
AcDbEntity
  8
0
100
AcDbTrace
 10
18.44439805153395
 20
34.76816991411009
 30
0.0
 11
18.65653008588991
 21
34.98030194846605
 31
0.0
 12
17.59586991411009
 22
35.61669805153395
 32
0.0
 13
17.80800194846605
 23
35.82883008588991
 33
0.0
  0
SOLID
  5
21F
330
70
100
AcDbEntity
  8
0
100
AcDbTrace
 10
18.79789805153395
 20
35.12166991411009
 30
0.0
 11
19.01003008588991
 21
35.33380194846606
 31
0.0
 12
17.94936991411009
 22
35.97019805153395
 32
0.0
 13
18.16150194846605
 23
36.18233008588991
 33
0.0
  0
SOLID
  5
220
330
70
100
AcDbEntity
  8
0
100
AcDbTrace
 10
21.13133008588991
 20
35.97019805153395
 30
0.0
 11
20.91919805153395
 21
36.18233008588991
 31
0.0
 12
20.28280194846605
 22
35.12166991411009
 32
0.0
 13
20.07066991411009
 23
35.33380194846606
 33
0.0
  0
SOLID
  5
221
330
70
100
AcDbEntity
  8
0
100
AcDbTrace
 10
21.48493008588991
 20
35.61669805153395
 30
0.0
 11
21.27279805153395
 21
35.82883008588991
 31
0.0
 12
20.63640194846605
 22
34.76816991411009
 32
0.0
 13
20.42426991411009
 23
34.98030194846605
 33
0.0
  0
SOLID
  5
222
330
70
100
AcDbEntity
  8
0
100
AcDbTrace
 10
21.83843008588991
 20
35.26309805153394
 30
0.0
 11
21.62629805153395
 21
35.47523008588991
 31
0.0
 12
20.98990194846605
 22
34.41456991411009
 32
0.0
 13
20.77776991411009
 23
34.62670194846605
 33
0.0
  0
SOLID
  5
223
330
70
100
AcDbEntity
  8
0
100
AcDbTrace
 10
22.19203008588991
 20
34.90949805153395
 30
0.0
 11
21.97989805153395
 21
35.1216300858899
 31
0.0
 12
21.34350194846605
 22
34.06096991411009
 32
0.0
 13
21.13136991411009
 23
34.27310194846605
 33
0.0
  0
SOLID
  5
224
330
70
100
AcDbEntity
  8
0
100
AcDbTrace
 10
22.54563008588991
 20
34.55599805153395
 30
0.0
 11
22.33349805153395
 21
34.76813008588991
 31
0.0
 12
21.69710194846605
 22
33.70746991411009
 32
0.0
 13
21.48496991411009
 23
33.91960194846606
 33
0.0
  0
SOLID
  5
225
330
70
100
AcDbEntity
  8
0
100
AcDbTrace
 10
22.89913008588991
 20
34.20239805153395
 30
0.0
 11
22.68699805153395
 21
34.41453008588991
 31
0.0
 12
22.05060194846605
 22
33.35386991411009
 32
0.0
 13
21.83846991411009
 23
33.56600194846605
 33
0.0
  0
SOLID
  5
226
330
70
100
AcDbEntity
  8
0
100
AcDbTrace
 10
23.25273008588991
 20
33.84889805153395
 30
0.0
 11
23.04059805153395
 21
34.06103008588991
 31
0.0
 12
22.40420194846605
 22
33.0003699141101
 32
0.0
 13
22.19206991411009
 23
33.21250194846605
 33
0.0
  0
SOLID
  5
227
330
70
100
AcDbEntity
  8
0
100
AcDbTrace
 10
23.60623008588991
 20
33.49529805153395
 30
0.0
 11
23.39409805153395
 21
33.70743008588991
 31
0.0
 12
22.75770194846606
 22
32.6467699141101
 32
0.0
 13
22.54556991411009
 23
32.85890194846606
 33
0.0
  0
SOLID
  5
228
330
70
100
AcDbEntity
  8
0
100
AcDbTrace
 10
23.95983008588991
 20
33.14179805153395
 30
0.0
 11
23.74769805153395
 21
33.35393008588991
 31
0.0
 12
23.11130194846605
 22
32.29326991411009
 32
0.0
 13
22.89916991411009
 23
32.50540194846605
 33
0.0
  0
SOLID
  5
229
330
70
100
AcDbEntity
  8
0
100
AcDbTrace
 10
24.31333008588991
 20
32.78819805153395
 30
0.0
 11
24.10119805153395
 21
33.00033008588991
 31
0.0
 12
23.46480194846606
 22
31.93966991411009
 32
0.0
 13
23.25266991411009
 23
32.15180194846605
 33
0.0
  0
SOLID
  5
22A
330
70
100
AcDbEntity
  8
0
100
AcDbTrace
 10
24.66693008588991
 20
32.43469805153395
 30
0.0
 11
24.45479805153395
 21
32.64683008588991
 31
0.0
 12
23.81840194846605
 22
31.58616991411009
 32
0.0
 13
23.60626991411009
 23
31.79830194846605
 33
0.0
  0
SOLID
  5
22B
330
70
100
AcDbEntity
  8
0
100
AcDbTrace
 10
25.02043008588991
 20
32.08109805153394
 30
0.0
 11
24.80829805153395
 21
32.29323008588991
 31
0.0
 12
24.17190194846606
 22
31.23256991411009
 32
0.0
 13
23.95976991411009
 23
31.44470194846605
 33
0.0
  0
SOLID
  5
22C
330
70
100
AcDbEntity
  8
0
100
AcDbTrace
 10
24.80829805153395
 20
29.11126991411009
 30
0.0
 11
25.02043008588991
 21
29.32340194846605
 31
0.0
 12
23.95976991411009
 22
29.95979805153395
 32
0.0
 13
24.17190194846606
 23
30.17193008588991
 33
0.0
  0
SOLID
  5
22D
330
70
100
AcDbEntity
  8
0
100
AcDbTrace
 10
24.45479805153395
 20
28.75766991411009
 30
0.0
 11
24.66693008588991
 21
28.96980194846605
 31
0.0
 12
23.60626991411009
 22
29.60619805153395
 32
0.0
 13
23.81840194846605
 23
29.81833008588991
 33
0.0
  0
SOLID
  5
22E
330
70
100
AcDbEntity
  8
0
100
AcDbTrace
 10
24.10119805153395
 20
28.40416991411009
 30
0.0
 11
24.31333008588991
 21
28.61630194846605
 31
0.0
 12
23.25266991411009
 22
29.25269805153395
 32
0.0
 13
23.46480194846606
 23
29.46483008588991
 33
0.0
  0
SOLID
  5
22F
330
70
100
AcDbEntity
  8
0
100
AcDbTrace
 10
23.74769805153395
 20
28.05056991411009
 30
0.0
 11
23.95983008588991
 21
28.26270194846605
 31
0.0
 12
22.89916991411009
 22
28.89909805153395
 32
0.0
 13
23.11130194846605
 23
29.11123008588991
 33
0.0
  0
SOLID
  5
230
330
70
100
AcDbEntity
  8
0
100
AcDbTrace
 10
23.39409805153395
 20
27.69706991411009
 30
0.0
 11
23.60623008588991
 21
27.90920194846605
 31
0.0
 12
22.54556991411009
 22
28.54559805153395
 32
0.0
 13
22.75770194846606
 23
28.75773008588991
 33
0.0
  0
SOLID
  5
231
330
70
100
AcDbEntity
  8
0
100
AcDbTrace
 10
23.04059805153395
 20
27.34346991411009
 30
0.0
 11
23.25273008588991
 21
27.55560194846605
 31
0.0
 12
22.19206991411009
 22
28.19199805153395
 32
0.0
 13
22.40420194846605
 23
28.40413008588991
 33
0.0
  0
SOLID
  5
232
330
70
100
AcDbEntity
  8
0
100
AcDbTrace
 10
22.68699805153395
 20
26.98996991411009
 30
0.0
 11
22.89913008588991
 21
27.20210194846605
 31
0.0
 12
21.83846991411009
 22
27.83849805153395
 32
0.0
 13
22.05060194846605
 23
28.05063008588991
 33
0.0
  0
SOLID
  5
233
330
70
100
AcDbEntity
  8
0
100
AcDbTrace
 10
22.33349805153395
 20
26.63636991411009
 30
0.0
 11
22.54563008588991
 21
26.84850194846605
 31
0.0
 12
21.48496991411009
 22
27.48489805153395
 32
0.0
 13
21.69710194846605
 23
27.69703008588991
 33
0.0
  0
SOLID
  5
234
330
70
100
AcDbEntity
  8
0
100
AcDbTrace
 10
21.97989805153395
 20
26.28286991411009
 30
0.0
 11
22.19203008588991
 21
26.49500194846605
 31
0.0
 12
21.13136991411009
 22
27.13139805153395
 32
0.0
 13
21.34350194846605
 23
27.34353008588991
 33
0.0
  0
SOLID
  5
235
330
70
100
AcDbEntity
  8
0
100
AcDbTrace
 10
21.62629805153395
 20
25.92926991411009
 30
0.0
 11
21.83843008588991
 21
26.14140194846605
 31
0.0
 12
20.77776991411009
 22
26.77779805153395
 32
0.0
 13
20.98990194846605
 23
26.98993008588991
 33
0.0
  0
SOLID
  5
236
330
70
100
AcDbEntity
  8
0
100
AcDbTrace
 10
21.27279805153395
 20
25.57576991411009
 30
0.0
 11
21.48493008588991
 21
25.78790194846606
 31
0.0
 12
20.42426991411009
 22
26.42429805153395
 32
0.0
 13
20.63640194846605
 23
26.63643008588991
 33
0.0
  0
SOLID
  5
237
330
70
100
AcDbEntity
  8
0
100
AcDbTrace
 10
20.91919805153395
 20
25.22216991411009
 30
0.0
 11
21.13133008588991
 21
25.43430194846605
 31
0.0
 12
20.07066991411009
 22
26.07069805153395
 32
0.0
 13
20.28280194846605
 23
26.28283008588991
 33
0.0
  0
SOLID
  5
238
330
70
100
AcDbEntity
  8
0
100
AcDbTrace
 10
15.25
 20
12.35
 30
0.0
 11
15.25
 21
11.75
 31
0.0
 12
16.45
 22
12.35
 32
0.0
 13
16.45
 23
11.75
 33
0.0
  0
SOLID
  5
239
330
70
100
AcDbEntity
  8
0
100
AcDbTrace
 10
17.55
 20
14.25
 30
0.0
 11
17.55
 21
13.65
 31
0.0
 12
18.75
 22
14.25
 32
0.0
 13
18.75
 23
13.65
 33
0.0
  0
SOLID
  5
23A
330
70
100
AcDbEntity
  8
0
100
AcDbTrace
 10
17.55
 20
12.35
 30
0.0
 11
17.55
 21
11.75
 31
0.0
 12
18.75
 22
12.35
 32
0.0
 13
18.75
 23
11.75
 33
0.0
  0
SOLID
  5
23B
330
70
100
AcDbEntity
  8
0
100
AcDbTrace
 10
17.55
 20
13.3
 30
0.0
 11
17.55
 21
12.7
 31
0.0
 12
18.75
 22
13.3
 32
0.0
 13
18.75
 23
12.7
 33
0.0
  0
SOLID
  5
23C
330
70
100
AcDbEntity
  8
0
100
AcDbTrace
 10
15.25
 20
14.25
 30
0.0
 11
15.25
 21
13.65
 31
0.0
 12
16.45
 22
14.25
 32
0.0
 13
16.45
 23
13.65
 33
0.0
  0
SOLID
  5
23D
330
70
100
AcDbEntity
  8
0
100
AcDbTrace
 10
35.55
 20
39.35
 30
0.0
 11
35.55
 21
40.35
 31
0.0
 12
34.45
 22
39.35
 32
0.0
 13
34.45
 23
40.35
 33
0.0
  0
SOLID
  5
23E
330
70
100
AcDbEntity
  8
0
100
AcDbTrace
 10
35.55
 20
37.65
 30
0.0
 11
35.55
 21
38.65
 31
0.0
 12
34.45
 22
37.65
 32
0.0
 13
34.45
 23
38.65
 33
0.0
  0
SOLID
  5
23F
330
70
100
AcDbEntity
  8
0
100
AcDbTrace
 10
32.45
 20
38.65
 30
0.0
 11
32.45
 21
37.65
 31
0.0
 12
33.55
 22
38.65
 32
0.0
 13
33.55
 23
37.65
 33
0.0
  0
SOLID
  5
240
330
70
100
AcDbEntity
  8
0
100
AcDbTrace
 10
32.45
 20
40.35
 30
0.0
 11
32.45
 21
39.35
 31
0.0
 12
33.55
 22
40.35
 32
0.0
 13
33.55
 23
39.35
 33
0.0
  0
SOLID
  5
241
330
70
100
AcDbEntity
  8
0
100
AcDbTrace
 10
34.45
 20
43.65
 30
0.0
 11
34.45
 21
42.64999999999999
 31
0.0
 12
35.55
 22
43.65
 32
0.0
 13
35.55
 23
42.64999999999999
 33
0.0
  0
SOLID
  5
242
330
70
100
AcDbEntity
  8
0
100
AcDbTrace
 10
34.45
 20
45.35
 30
0.0
 11
34.45
 21
44.35
 31
0.0
 12
35.55
 22
45.35
 32
0.0
 13
35.55
 23
44.35
 33
0.0
  0
SOLID
  5
243
330
70
100
AcDbEntity
  8
0
100
AcDbTrace
 10
33.55
 20
44.35
 30
0.0
 11
33.55
 21
45.35
 31
0.0
 12
32.45
 22
44.35
 32
0.0
 13
32.45
 23
45.35
 33
0.0
  0
SOLID
  5
244
330
70
100
AcDbEntity
  8
0
100
AcDbTrace
 10
33.55
 20
42.64999999999999
 30
0.0
 11
33.55
 21
43.65
 31
0.0
 12
32.45
 22
42.64999999999999
 32
0.0
 13
32.45
 23
43.65
 33
0.0
  0
SOLID
  5
245
330
70
100
AcDbEntity
  8
0
100
AcDbTrace
 10
31.55
 20
39.35
 30
0.0
 11
31.55
 21
40.35
 31
0.0
 12
30.45
 22
39.35
 32
0.0
 13
30.45
 23
40.35
 33
0.0
  0
SOLID
  5
246
330
70
100
AcDbEntity
  8
0
100
AcDbTrace
 10
31.55
 20
37.65
 30
0.0
 11
31.55
 21
38.65
 31
0.0
 12
30.45
 22
37.65
 32
0.0
 13
30.45
 23
38.65
 33
0.0
  0
SOLID
  5
247
330
70
100
AcDbEntity
  8
0
100
AcDbTrace
 10
24.45
 20
20.65
 30
0.0
 11
24.45
 21
19.65
 31
0.0
 12
25.55
 22
20.65
 32
0.0
 13
25.55
 23
19.65
 33
0.0
  0
SOLID
  5
248
330
70
100
AcDbEntity
  8
0
100
AcDbTrace
 10
24.45
 20
22.35
 30
0.0
 11
24.45
 21
21.35
 31
0.0
 12
25.55
 22
22.35
 32
0.0
 13
25.55
 23
21.35
 33
0.0
  0
SOLID
  5
249
330
70
100
AcDbEntity
  8
0
100
AcDbTrace
 10
28.45
 20
38.65
 30
0.0
 11
28.45
 21
37.65
 31
0.0
 12
29.55
 22
38.65
 32
0.0
 13
29.55
 23
37.65
 33
0.0
  0
SOLID
  5
24A
330
70
100
AcDbEntity
  8
0
100
AcDbTrace
 10
28.45
 20
40.35
 30
0.0
 11
28.45
 21
39.35
 31
0.0
 12
29.55
 22
40.35
 32
0.0
 13
29.55
 23
39.35
 33
0.0
  0
SOLID
  5
24B
330
70
100
AcDbEntity
  8
0
100
AcDbTrace
 10
30.45
 20
43.65
 30
0.0
 11
30.45
 21
42.64999999999999
 31
0.0
 12
31.55
 22
43.65
 32
0.0
 13
31.55
 23
42.64999999999999
 33
0.0
  0
SOLID
  5
24C
330
70
100
AcDbEntity
  8
0
100
AcDbTrace
 10
30.45
 20
45.35
 30
0.0
 11
30.45
 21
44.35
 31
0.0
 12
31.55
 22
45.35
 32
0.0
 13
31.55
 23
44.35
 33
0.0
  0
SOLID
  5
24D
330
70
100
AcDbEntity
  8
0
100
AcDbTrace
 10
29.55
 20
44.35
 30
0.0
 11
29.55
 21
45.35
 31
0.0
 12
28.45
 22
44.35
 32
0.0
 13
28.45
 23
45.35
 33
0.0
  0
SOLID
  5
24E
330
70
100
AcDbEntity
  8
0
100
AcDbTrace
 10
29.55
 20
42.64999999999999
 30
0.0
 11
29.55
 21
43.65
 31
0.0
 12
28.45
 22
42.64999999999999
 32
0.0
 13
28.45
 23
43.65
 33
0.0
  0
SOLID
  5
24F
330
70
100
AcDbEntity
  8
0
100
AcDbTrace
 10
2.45
 20
62.65
 30
0.0
 11
2.449999999999999
 21
61.65
 31
0.0
 12
3.55
 22
62.65
 32
0.0
 13
3.549999999999999
 23
61.65
 33
0.0
  0
SOLID
  5
250
330
70
100
AcDbEntity
  8
0
100
AcDbTrace
 10
2.45
 20
64.35000000000001
 30
0.0
 11
2.449999999999999
 21
63.35
 31
0.0
 12
3.55
 22
64.34999999999999
 32
0.0
 13
3.549999999999999
 23
63.35
 33
0.0
  0
SOLID
  5
251
330
70
100
AcDbEntity
  8
0
100
AcDbTrace
 10
8.449999999999999
 20
62.65
 30
0.0
 11
8.449999999999999
 21
61.65
 31
0.0
 12
9.55
 22
62.65
 32
0.0
 13
9.55
 23
61.65
 33
0.0
  0
SOLID
  5
252
330
70
100
AcDbEntity
  8
0
100
AcDbTrace
 10
8.449999999999999
 20
64.35000000000001
 30
0.0
 11
8.449999999999999
 21
63.35
 31
0.0
 12
9.55
 22
64.34999999999999
 32
0.0
 13
9.55
 23
63.35
 33
0.0
  0
SOLID
  5
253
330
70
100
AcDbEntity
  8
0
100
AcDbTrace
 10
8.55
 20
9.349999999999999
 30
0.0
 11
8.55
 21
10.35
 31
0.0
 12
7.45
 22
9.349999999999999
 32
0.0
 13
7.45
 23
10.35
 33
0.0
  0
SOLID
  5
254
330
70
100
AcDbEntity
  8
0
100
AcDbTrace
 10
8.55
 20
7.65
 30
0.0
 11
8.55
 21
8.65
 31
0.0
 12
7.45
 22
7.65
 32
0.0
 13
7.45
 23
8.65
 33
0.0
  0
SOLID
  5
255
330
70
100
AcDbEntity
  8
0
100
AcDbTrace
 10
10.55
 20
9.349999999999999
 30
0.0
 11
10.55
 21
10.35
 31
0.0
 12
9.449999999999999
 22
9.349999999999999
 32
0.0
 13
9.449999999999999
 23
10.35
 33
0.0
  0
SOLID
  5
256
330
70
100
AcDbEntity
  8
0
100
AcDbTrace
 10
10.55
 20
7.65
 30
0.0
 11
10.55
 21
8.65
 31
0.0
 12
9.449999999999999
 22
7.65
 32
0.0
 13
9.449999999999999
 23
8.65
 33
0.0
  0
SOLID
  5
257
330
70
100
AcDbEntity
  8
0
100
AcDbTrace
 10
19.35
 20
4.45
 30
0.0
 11
20.35
 21
4.45
 31
0.0
 12
19.35
 22
5.549999999999999
 32
0.0
 13
20.35
 23
5.549999999999999
 33
0.0
  0
SOLID
  5
258
330
70
100
AcDbEntity
  8
0
100
AcDbTrace
 10
17.65
 20
4.45
 30
0.0
 11
18.65
 21
4.45
 31
0.0
 12
17.65
 22
5.549999999999999
 32
0.0
 13
18.65
 23
5.549999999999999
 33
0.0
  0
SOLID
  5
259
330
70
100
AcDbEntity
  8
0
100
AcDbTrace
 10
23.55
 20
21.35
 30
0.0
 11
23.55
 21
22.35
 31
0.0
 12
22.45
 22
21.35
 32
0.0
 13
22.45
 23
22.35
 33
0.0
  0
SOLID
  5
25A
330
70
100
AcDbEntity
  8
0
100
AcDbTrace
 10
23.55
 20
19.65
 30
0.0
 11
23.55
 21
20.65
 31
0.0
 12
22.45
 22
19.65
 32
0.0
 13
22.45
 23
20.65
 33
0.0
  0
SOLID
  5
25B
330
70
100
AcDbEntity
  8
0
100
AcDbTrace
 10
29.7
 20
13.65
 30
0.0
 11
29.7
 21
12.65
 31
0.0
 12
30.8
 22
13.65
 32
0.0
 13
30.8
 23
12.65
 33
0.0
  0
SOLID
  5
25C
330
70
100
AcDbEntity
  8
0
100
AcDbTrace
 10
29.7
 20
15.35
 30
0.0
 11
29.7
 21
14.35
 31
0.0
 12
30.8
 22
15.35
 32
0.0
 13
30.8
 23
14.35
 33
0.0
  0
SOLID
  5
25D
330
70
100
AcDbEntity
  8
0
100
AcDbTrace
 10
21.45
 20
12.65
 30
0.0
 11
21.45
 21
11.65
 31
0.0
 12
22.55
 22
12.65
 32
0.0
 13
22.55
 23
11.65
 33
0.0
  0
SOLID
  5
25E
330
70
100
AcDbEntity
  8
0
100
AcDbTrace
 10
21.45
 20
14.35
 30
0.0
 11
21.45
 21
13.35
 31
0.0
 12
22.55
 22
14.35
 32
0.0
 13
22.55
 23
13.35
 33
0.0
  0
SOLID
  5
25F
330
70
100
AcDbEntity
  8
0
100
AcDbTrace
 10
27.45
 20
17.65
 30
0.0
 11
27.45
 21
16.65
 31
0.0
 12
28.55
 22
17.65
 32
0.0
 13
28.55
 23
16.65
 33
0.0
  0
SOLID
  5
260
330
70
100
AcDbEntity
  8
0
100
AcDbTrace
 10
27.45
 20
19.35
 30
0.0
 11
27.45
 21
18.35
 31
0.0
 12
28.55
 22
19.35
 32
0.0
 13
28.55
 23
18.35
 33
0.0
  0
SOLID
  5
261
330
70
100
AcDbEntity
  8
0
100
AcDbTrace
 10
13.55
 20
55.35
 30
0.0
 11
13.55
 21
56.35
 31
0.0
 12
12.45
 22
55.35
 32
0.0
 13
12.45
 23
56.35
 33
0.0
  0
SOLID
  5
262
330
70
100
AcDbEntity
  8
0
100
AcDbTrace
 10
13.55
 20
53.65
 30
0.0
 11
13.55
 21
54.64999999999999
 31
0.0
 12
12.45
 22
53.65
 32
0.0
 13
12.45
 23
54.64999999999999
 33
0.0
  0
SOLID
  5
263
330
70
100
AcDbEntity
  8
0
100
AcDbTrace
 10
15.55
 20
55.35
 30
0.0
 11
15.55
 21
56.35
 31
0.0
 12
14.45
 22
55.35
 32
0.0
 13
14.45
 23
56.35
 33
0.0
  0
SOLID
  5
264
330
70
100
AcDbEntity
  8
0
100
AcDbTrace
 10
15.55
 20
53.65
 30
0.0
 11
15.55
 21
54.64999999999999
 31
0.0
 12
14.45
 22
53.65
 32
0.0
 13
14.45
 23
54.64999999999999
 33
0.0
  0
SOLID
  5
265
330
70
100
AcDbEntity
  8
0
100
AcDbTrace
 10
31.55
 20
51.35
 30
0.0
 11
31.55
 21
52.35
 31
0.0
 12
30.45
 22
51.35
 32
0.0
 13
30.45
 23
52.35
 33
0.0
  0
SOLID
  5
266
330
70
100
AcDbEntity
  8
0
100
AcDbTrace
 10
31.55
 20
49.64999999999999
 30
0.0
 11
31.55
 21
50.65
 31
0.0
 12
30.45
 22
49.64999999999999
 32
0.0
 13
30.45
 23
50.65
 33
0.0
  0
SOLID
  5
267
330
70
100
AcDbEntity
  8
0
100
AcDbTrace
 10
33.55
 20
51.35
 30
0.0
 11
33.55
 21
52.35
 31
0.0
 12
32.45
 22
51.35
 32
0.0
 13
32.45
 23
52.35
 33
0.0
  0
SOLID
  5
268
330
70
100
AcDbEntity
  8
0
100
AcDbTrace
 10
33.55
 20
49.64999999999999
 30
0.0
 11
33.55
 21
50.65
 31
0.0
 12
32.45
 22
49.64999999999999
 32
0.0
 13
32.45
 23
50.65
 33
0.0
  0
SOLID
  5
269
330
70
100
AcDbEntity
  8
0
100
AcDbTrace
 10
19.55
 20
55.35
 30
0.0
 11
19.55
 21
56.35
 31
0.0
 12
18.45
 22
55.35
 32
0.0
 13
18.45
 23
56.35
 33
0.0
  0
SOLID
  5
26A
330
70
100
AcDbEntity
  8
0
100
AcDbTrace
 10
19.55
 20
53.65
 30
0.0
 11
19.55
 21
54.64999999999999
 31
0.0
 12
18.45
 22
53.65
 32
0.0
 13
18.45
 23
54.64999999999999
 33
0.0
  0
SOLID
  5
26B
330
70
100
AcDbEntity
  8
0
100
AcDbTrace
 10
21.55
 20
55.35
 30
0.0
 11
21.55
 21
56.35
 31
0.0
 12
20.45
 22
55.35
 32
0.0
 13
20.45
 23
56.35
 33
0.0
  0
SOLID
  5
26C
330
70
100
AcDbEntity
  8
0
100
AcDbTrace
 10
21.55
 20
53.65
 30
0.0
 11
21.55
 21
54.64999999999999
 31
0.0
 12
20.45
 22
53.65
 32
0.0
 13
20.45
 23
54.64999999999999
 33
0.0
  0
SOLID
  5
26D
330
70
100
AcDbEntity
  8
0
100
AcDbTrace
 10
25.55
 20
55.35
 30
0.0
 11
25.55
 21
56.35
 31
0.0
 12
24.45
 22
55.35
 32
0.0
 13
24.45
 23
56.35
 33
0.0
  0
SOLID
  5
26E
330
70
100
AcDbEntity
  8
0
100
AcDbTrace
 10
25.55
 20
53.65
 30
0.0
 11
25.55
 21
54.64999999999999
 31
0.0
 12
24.45
 22
53.65
 32
0.0
 13
24.45
 23
54.64999999999999
 33
0.0
  0
SOLID
  5
26F
330
70
100
AcDbEntity
  8
0
100
AcDbTrace
 10
27.55
 20
55.35
 30
0.0
 11
27.55
 21
56.35
 31
0.0
 12
26.45
 22
55.35
 32
0.0
 13
26.45
 23
56.35
 33
0.0
  0
SOLID
  5
270
330
70
100
AcDbEntity
  8
0
100
AcDbTrace
 10
27.55
 20
53.65
 30
0.0
 11
27.55
 21
54.64999999999999
 31
0.0
 12
26.45
 22
53.65
 32
0.0
 13
26.45
 23
54.64999999999999
 33
0.0
  0
SOLID
  5
271
330
70
100
AcDbEntity
  8
0
100
AcDbTrace
 10
6.65
 20
43.54999999999999
 30
0.0
 11
5.65
 21
43.54999999999999
 31
0.0
 12
6.65
 22
42.45
 32
0.0
 13
5.65
 23
42.45
 33
0.0
  0
SOLID
  5
272
330
70
100
AcDbEntity
  8
0
100
AcDbTrace
 10
8.349999999999999
 20
43.54999999999999
 30
0.0
 11
7.349999999999999
 21
43.54999999999999
 31
0.0
 12
8.349999999999999
 22
42.45
 32
0.0
 13
7.349999999999999
 23
42.45
 33
0.0
  0
SOLID
  5
273
330
70
100
AcDbEntity
  8
0
100
AcDbTrace
 10
8.449999999999999
 20
58.65
 30
0.0
 11
8.449999999999999
 21
57.65
 31
0.0
 12
9.55
 22
58.65
 32
0.0
 13
9.55
 23
57.65
 33
0.0
  0
SOLID
  5
274
330
70
100
AcDbEntity
  8
0
100
AcDbTrace
 10
8.449999999999999
 20
60.35
 30
0.0
 11
8.449999999999999
 21
59.35
 31
0.0
 12
9.55
 22
60.35
 32
0.0
 13
9.55
 23
59.35
 33
0.0
  0
SOLID
  5
275
330
70
100
AcDbEntity
  8
0
100
AcDbTrace
 10
2.45
 20
58.65
 30
0.0
 11
2.449999999999999
 21
57.65
 31
0.0
 12
3.55
 22
58.65
 32
0.0
 13
3.549999999999999
 23
57.65
 33
0.0
  0
SOLID
  5
276
330
70
100
AcDbEntity
  8
0
100
AcDbTrace
 10
2.45
 20
60.35
 30
0.0
 11
2.449999999999999
 21
59.35
 31
0.0
 12
3.55
 22
60.35
 32
0.0
 13
3.549999999999999
 23
59.35
 33
0.0
  0
SOLID
  5
277
330
70
100
AcDbEntity
  8
0
100
AcDbTrace
 10
3.634799999999999
 20
3.888399999999999
 30
0.0
 11
2.634799999999999
 21
3.8884
 31
0.0
 12
3.634799999999999
 22
2.788399999999999
 32
0.0
 13
2.634799999999999
 23
2.7884
 33
0.0
  0
SOLID
  5
278
330
70
100
AcDbEntity
  8
0
100
AcDbTrace
 10
5.3348
 20
3.888399999999999
 30
0.0
 11
4.3348
 21
3.8884
 31
0.0
 12
5.3348
 22
2.788399999999999
 32
0.0
 13
4.3348
 23
2.7884
 33
0.0
  0
SOLID
  5
279
330
70
100
AcDbEntity
  8
0
100
AcDbTrace
 10
29.413
 20
6.269499999999998
 30
0.0
 11
24.587
 21
6.2695
 31
0.0
 12
29.413
 22
0.5544999999999996
 32
0.0
 13
24.587
 23
0.5545000000000005
 33
0.0
  0
SOLID
  5
27A
330
70
100
AcDbEntity
  8
0
100
AcDbTrace
 10
25.52
 20
11.81
 30
0.0
 11
23.92
 21
11.81
 31
0.0
 12
25.52
 22
8.81
 32
0.0
 13
23.92
 23
8.81
 33
0.0
  0
SOLID
  5
27B
330
70
100
AcDbEntity
  8
0
100
AcDbTrace
 10
30.08
 20
11.81
 30
0.0
 11
28.48
 21
11.81
 31
0.0
 12
30.08
 22
8.81
 32
0.0
 13
28.48
 23
8.81
 33
0.0
  0
SOLID
  5
27C
330
70
100
AcDbEntity
  8
0
100
AcDbTrace
 10
5.4
 20
62.65
 30
0.0
 11
4.599999999999999
 21
62.65
 31
0.0
 12
5.4
 22
61.85
 32
0.0
 13
4.599999999999999
 23
61.85
 33
0.0
  0
SOLID
  5
27D
330
70
100
AcDbEntity
  8
0
100
AcDbTrace
 10
5.4
 20
64.15
 30
0.0
 11
4.599999999999999
 21
64.15
 31
0.0
 12
5.4
 22
63.35
 32
0.0
 13
4.599999999999999
 23
63.35
 33
0.0
  0
SOLID
  5
27E
330
70
100
AcDbEntity
  8
0
100
AcDbTrace
 10
7.4
 20
62.65
 30
0.0
 11
6.599999999999999
 21
62.65
 31
0.0
 12
7.4
 22
61.85
 32
0.0
 13
6.599999999999999
 23
61.85
 33
0.0
  0
SOLID
  5
27F
330
70
100
AcDbEntity
  8
0
100
AcDbTrace
 10
7.4
 20
64.15
 30
0.0
 11
6.599999999999999
 21
64.15
 31
0.0
 12
7.4
 22
63.35
 32
0.0
 13
6.599999999999999
 23
63.35
 33
0.0
  0
SOLID
  5
280
330
70
100
AcDbEntity
  8
0
100
AcDbTrace
 10
5.4
 20
58.65
 30
0.0
 11
4.599999999999999
 21
58.65
 31
0.0
 12
5.4
 22
57.85
 32
0.0
 13
4.599999999999999
 23
57.85
 33
0.0
  0
SOLID
  5
281
330
70
100
AcDbEntity
  8
0
100
AcDbTrace
 10
5.4
 20
60.15
 30
0.0
 11
4.599999999999999
 21
60.15
 31
0.0
 12
5.4
 22
59.35
 32
0.0
 13
4.599999999999999
 23
59.35
 33
0.0
  0
SOLID
  5
282
330
70
100
AcDbEntity
  8
0
100
AcDbTrace
 10
7.4
 20
58.65
 30
0.0
 11
6.599999999999999
 21
58.65
 31
0.0
 12
7.4
 22
57.85
 32
0.0
 13
6.599999999999999
 23
57.85
 33
0.0
  0
SOLID
  5
283
330
70
100
AcDbEntity
  8
0
100
AcDbTrace
 10
7.4
 20
60.15
 30
0.0
 11
6.599999999999999
 21
60.15
 31
0.0
 12
7.4
 22
59.35
 32
0.0
 13
6.599999999999999
 23
59.35
 33
0.0
  0
SOLID
  5
284
330
70
100
AcDbEntity
  8
0
100
AcDbTrace
 10
6.7
 20
45.49999999999999
 30
0.0
 11
5.6
 21
45.49999999999999
 31
0.0
 12
6.7
 22
44.5
 32
0.0
 13
5.6
 23
44.5
 33
0.0
  0
SOLID
  5
285
330
70
100
AcDbEntity
  8
0
100
AcDbTrace
 10
8.4
 20
45.49999999999999
 30
0.0
 11
7.299999999999999
 21
45.49999999999999
 31
0.0
 12
8.4
 22
44.5
 32
0.0
 13
7.299999999999999
 23
44.5
 33
0.0
  0
SOLID
  5
286
330
70
100
AcDbEntity
  8
0
100
AcDbTrace
 10
15.4426
 20
41.85979999999999
 30
0.0
 11
15.4426
 21
42.52019999999999
 31
0.0
 12
13.4106
 22
41.85979999999999
 32
0.0
 13
13.4106
 23
42.52019999999999
 33
0.0
  0
SOLID
  5
287
330
70
100
AcDbEntity
  8
0
100
AcDbTrace
 10
15.4426
 20
43.1298
 30
0.0
 11
15.4426
 21
43.79019999999999
 31
0.0
 12
13.4106
 22
43.1298
 32
0.0
 13
13.4106
 23
43.79019999999999
 33
0.0
  0
SOLID
  5
288
330
70
100
AcDbEntity
  8
0
100
AcDbTrace
 10
15.4426
 20
44.3998
 30
0.0
 11
15.4426
 21
45.06019999999999
 31
0.0
 12
13.4106
 22
44.3998
 32
0.0
 13
13.4106
 23
45.06019999999999
 33
0.0
  0
SOLID
  5
289
330
70
100
AcDbEntity
  8
0
100
AcDbTrace
 10
15.4426
 20
45.6698
 30
0.0
 11
15.4426
 21
46.3302
 31
0.0
 12
13.4106
 22
45.6698
 32
0.0
 13
13.4106
 23
46.3302
 33
0.0
  0
SOLID
  5
28A
330
70
100
AcDbEntity
  8
0
100
AcDbTrace
 10
15.4426
 20
46.9398
 30
0.0
 11
15.4426
 21
47.60019999999999
 31
0.0
 12
13.4106
 22
46.9398
 32
0.0
 13
13.4106
 23
47.60019999999999
 33
0.0
  0
SOLID
  5
28B
330
70
100
AcDbEntity
  8
0
100
AcDbTrace
 10
15.4426
 20
48.2098
 30
0.0
 11
15.4426
 21
48.87019999999999
 31
0.0
 12
13.4106
 22
48.2098
 32
0.0
 13
13.4106
 23
48.87019999999999
 33
0.0
  0
SOLID
  5
28C
330
70
100
AcDbEntity
  8
0
100
AcDbTrace
 10
15.4426
 20
49.47980000000001
 30
0.0
 11
15.4426
 21
50.1402
 31
0.0
 12
13.4106
 22
49.47980000000001
 32
0.0
 13
13.4106
 23
50.1402
 33
0.0
  0
SOLID
  5
28D
330
70
100
AcDbEntity
  8
0
100
AcDbTrace
 10
21.5894
 20
49.47980000000001
 30
0.0
 11
21.5894
 21
50.1402
 31
0.0
 12
19.5574
 22
49.47980000000001
 32
0.0
 13
19.5574
 23
50.1402
 33
0.0
  0
SOLID
  5
28E
330
70
100
AcDbEntity
  8
0
100
AcDbTrace
 10
21.5894
 20
48.2098
 30
0.0
 11
21.5894
 21
48.87019999999999
 31
0.0
 12
19.5574
 22
48.2098
 32
0.0
 13
19.5574
 23
48.87019999999999
 33
0.0
  0
SOLID
  5
28F
330
70
100
AcDbEntity
  8
0
100
AcDbTrace
 10
21.5894
 20
46.9398
 30
0.0
 11
21.5894
 21
47.60019999999999
 31
0.0
 12
19.5574
 22
46.9398
 32
0.0
 13
19.5574
 23
47.60019999999999
 33
0.0
  0
SOLID
  5
290
330
70
100
AcDbEntity
  8
0
100
AcDbTrace
 10
21.5894
 20
45.6698
 30
0.0
 11
21.5894
 21
46.3302
 31
0.0
 12
19.5574
 22
45.6698
 32
0.0
 13
19.5574
 23
46.3302
 33
0.0
  0
SOLID
  5
291
330
70
100
AcDbEntity
  8
0
100
AcDbTrace
 10
21.5894
 20
44.3998
 30
0.0
 11
21.5894
 21
45.06019999999999
 31
0.0
 12
19.5574
 22
44.3998
 32
0.0
 13
19.5574
 23
45.06019999999999
 33
0.0
  0
SOLID
  5
292
330
70
100
AcDbEntity
  8
0
100
AcDbTrace
 10
21.5894
 20
43.1298
 30
0.0
 11
21.5894
 21
43.79019999999999
 31
0.0
 12
19.5574
 22
43.1298
 32
0.0
 13
19.5574
 23
43.79019999999999
 33
0.0
  0
SOLID
  5
293
330
70
100
AcDbEntity
  8
0
100
AcDbTrace
 10
21.5894
 20
41.85979999999999
 30
0.0
 11
21.5894
 21
42.52019999999999
 31
0.0
 12
19.5574
 22
41.85979999999999
 32
0.0
 13
19.5574
 23
42.52019999999999
 33
0.0
  0
SOLID
  5
294
330
70
100
AcDbEntity
  8
0
100
AcDbTrace
 10
9.3
 20
18.65
 30
0.0
 11
8.699999999999999
 21
18.65
 31
0.0
 12
9.3
 22
17.85
 32
0.0
 13
8.699999999999999
 23
17.85
 33
0.0
  0
SOLID
  5
295
330
70
100
AcDbEntity
  8
0
100
AcDbTrace
 10
9.3
 20
16.15
 30
0.0
 11
8.699999999999999
 21
16.15
 31
0.0
 12
9.3
 22
15.35
 32
0.0
 13
8.699999999999999
 23
15.35
 33
0.0
  0
SOLID
  5
296
330
70
100
AcDbEntity
  8
0
100
AcDbTrace
 10
9.699999999999999
 20
11.35
 30
0.0
 11
10.3
 21
11.35
 31
0.0
 12
9.699999999999999
 22
12.15
 32
0.0
 13
10.3
 23
12.15
 33
0.0
  0
SOLID
  5
297
330
70
100
AcDbEntity
  8
0
100
AcDbTrace
 10
9.699999999999999
 20
13.85
 30
0.0
 11
10.3
 21
13.85
 31
0.0
 12
9.699999999999999
 22
14.65
 32
0.0
 13
10.3
 23
14.65
 33
0.0
  0
SOLID
  5
298
330
70
100
AcDbEntity
  8
0
100
AcDbTrace
 10
18.3
 20
40.0
 30
0.0
 11
19.4
 21
40.0
 31
0.0
 12
18.3
 22
41.0
 32
0.0
 13
19.4
 23
41.0
 33
0.0
  0
SOLID
  5
299
330
70
100
AcDbEntity
  8
0
100
AcDbTrace
 10
16.6
 20
40.0
 30
0.0
 11
17.7
 21
40.0
 31
0.0
 12
16.6
 22
41.0
 32
0.0
 13
17.7
 23
41.0
 33
0.0
  0
SOLID
  5
29A
330
70
100
AcDbEntity
  8
0
100
AcDbTrace
 10
27.75
 20
13.7
 30
0.0
 11
27.75
 21
12.6
 31
0.0
 12
28.75
 22
13.7
 32
0.0
 13
28.75
 23
12.6
 33
0.0
  0
SOLID
  5
29B
330
70
100
AcDbEntity
  8
0
100
AcDbTrace
 10
27.75
 20
15.4
 30
0.0
 11
27.75
 21
14.3
 31
0.0
 12
28.75
 22
15.4
 32
0.0
 13
28.75
 23
14.3
 33
0.0
  0
SOLID
  5
29C
330
70
100
AcDbEntity
  8
0
100
AcDbTrace
 10
15.5
 20
58.7
 30
0.0
 11
15.5
 21
57.6
 31
0.0
 12
16.5
 22
58.7
 32
0.0
 13
16.5
 23
57.6
 33
0.0
  0
SOLID
  5
29D
330
70
100
AcDbEntity
  8
0
100
AcDbTrace
 10
15.5
 20
60.4
 30
0.0
 11
15.5
 21
59.3
 31
0.0
 12
16.5
 22
60.4
 32
0.0
 13
16.5
 23
59.3
 33
0.0
  0
SOLID
  5
29E
330
70
100
AcDbEntity
  8
0
100
AcDbTrace
 10
28.5
 20
58.7
 30
0.0
 11
28.5
 21
57.6
 31
0.0
 12
29.5
 22
58.7
 32
0.0
 13
29.5
 23
57.6
 33
0.0
  0
SOLID
  5
29F
330
70
100
AcDbEntity
  8
0
100
AcDbTrace
 10
28.5
 20
60.4
 30
0.0
 11
28.5
 21
59.3
 31
0.0
 12
29.5
 22
60.4
 32
0.0
 13
29.5
 23
59.3
 33
0.0
  0
SOLID
  5
2A0
330
70
100
AcDbEntity
  8
0
100
AcDbTrace
 10
21.5
 20
58.7
 30
0.0
 11
21.5
 21
57.6
 31
0.0
 12
22.5
 22
58.7
 32
0.0
 13
22.5
 23
57.6
 33
0.0
  0
SOLID
  5
2A1
330
70
100
AcDbEntity
  8
0
100
AcDbTrace
 10
21.5
 20
60.4
 30
0.0
 11
21.5
 21
59.3
 31
0.0
 12
22.5
 22
60.4
 32
0.0
 13
22.5
 23
59.3
 33
0.0
  0
SOLID
  5
2A2
330
70
100
AcDbEntity
  8
0
100
AcDbTrace
 10
34.5
 20
58.7
 30
0.0
 11
34.5
 21
57.6
 31
0.0
 12
35.5
 22
58.7
 32
0.0
 13
35.5
 23
57.6
 33
0.0
  0
SOLID
  5
2A3
330
70
100
AcDbEntity
  8
0
100
AcDbTrace
 10
34.5
 20
60.4
 30
0.0
 11
34.5
 21
59.3
 31
0.0
 12
35.5
 22
60.4
 32
0.0
 13
35.5
 23
59.3
 33
0.0
  0
SOLID
  5
2A4
330
70
100
AcDbEntity
  8
0
100
AcDbTrace
 10
10.5
 20
5.299999999999999
 30
0.0
 11
10.5
 21
6.399999999999999
 31
0.0
 12
9.5
 22
5.299999999999999
 32
0.0
 13
9.5
 23
6.399999999999999
 33
0.0
  0
SOLID
  5
2A5
330
70
100
AcDbEntity
  8
0
100
AcDbTrace
 10
10.5
 20
3.6
 30
0.0
 11
10.5
 21
4.7
 31
0.0
 12
9.5
 22
3.6
 32
0.0
 13
9.5
 23
4.7
 33
0.0
  0
SOLID
  5
2A6
330
70
100
AcDbEntity
  8
0
100
AcDbTrace
 10
19.3
 20
2.5
 30
0.0
 11
20.4
 21
2.5
 31
0.0
 12
19.3
 22
3.5
 32
0.0
 13
20.4
 23
3.5
 33
0.0
  0
SOLID
  5
2A7
330
70
100
AcDbEntity
  8
0
100
AcDbTrace
 10
17.59999999999999
 20
2.5
 30
0.0
 11
18.7
 21
2.5
 31
0.0
 12
17.59999999999999
 22
3.5
 32
0.0
 13
18.7
 23
3.5
 33
0.0
  0
SOLID
  5
2A8
330
70
100
AcDbEntity
  8
0
100
AcDbTrace
 10
11.5
 20
8.700000000000001
 30
0.0
 11
11.5
 21
7.6
 31
0.0
 12
12.5
 22
8.700000000000001
 32
0.0
 13
12.5
 23
7.6
 33
0.0
  0
SOLID
  5
2A9
330
70
100
AcDbEntity
  8
0
100
AcDbTrace
 10
11.5
 20
10.4
 30
0.0
 11
11.5
 21
9.299999999999998
 31
0.0
 12
12.5
 22
10.4
 32
0.0
 13
12.5
 23
9.299999999999998
 33
0.0
  0
SOLID
  5
2AA
330
70
100
AcDbEntity
  8
0
100
AcDbTrace
 10
21.85853787975412
 20
37.43435533905933
 30
0.0
 11
22.63635533905933
 21
36.65653787975413
 31
0.0
 12
22.56564466094067
 22
38.14146212024588
 32
0.0
 13
23.34346212024588
 23
37.36364466094067
 33
0.0
  0
SOLID
  5
2AB
330
70
100
AcDbEntity
  8
0
100
AcDbTrace
 10
20.65653787975413
 20
38.63635533905933
 30
0.0
 11
21.43435533905933
 21
37.85853787975412
 31
0.0
 12
21.36364466094067
 22
39.34346212024588
 32
0.0
 13
22.14146212024588
 23
38.56564466094067
 33
0.0
  0
SOLID
  5
2AC
330
70
100
AcDbEntity
  8
0
100
AcDbTrace
 10
25.43435533905933
 20
26.14146212024588
 30
0.0
 11
24.65653787975413
 21
25.36364466094067
 31
0.0
 12
26.14146212024588
 22
25.43435533905933
 32
0.0
 13
25.36364466094067
 23
24.65653787975413
 33
0.0
  0
SOLID
  5
2AD
330
70
100
AcDbEntity
  8
0
100
AcDbTrace
 10
26.63635533905933
 20
27.34346212024588
 30
0.0
 11
25.85853787975413
 21
26.56564466094067
 31
0.0
 12
27.34346212024588
 22
26.63635533905933
 32
0.0
 13
26.56564466094067
 23
25.85853787975413
 33
0.0
  0
SOLID
  5
2AE
330
70
100
AcDbEntity
  8
0
100
AcDbTrace
 10
12.56564466094067
 20
32.85853787975412
 30
0.0
 11
13.34346212024587
 21
33.63635533905933
 31
0.0
 12
11.85853787975412
 22
33.56564466094067
 32
0.0
 13
12.63635533905933
 23
34.34346212024588
 33
0.0
  0
SOLID
  5
2AF
330
70
100
AcDbEntity
  8
0
100
AcDbTrace
 10
11.36364466094067
 20
31.65653787975413
 30
0.0
 11
12.14146212024587
 21
32.43435533905933
 31
0.0
 12
10.65653787975412
 22
32.36364466094067
 32
0.0
 13
11.43435533905932
 23
33.14146212024588
 33
0.0
  0
SOLID
  5
2B0
330
70
100
AcDbEntity
  8
0
100
AcDbTrace
 10
17.14146212024587
 20
22.56564466094067
 30
0.0
 11
16.36364466094067
 21
23.34346212024588
 31
0.0
 12
16.43435533905933
 22
21.85853787975412
 32
0.0
 13
15.65653787975412
 23
22.63635533905933
 33
0.0
  0
SOLID
  5
2B1
330
70
100
AcDbEntity
  8
0
100
AcDbTrace
 10
18.34346212024587
 20
21.36364466094067
 30
0.0
 11
17.56564466094067
 21
22.14146212024588
 31
0.0
 12
17.63635533905933
 22
20.65653787975413
 32
0.0
 13
16.85853787975412
 23
21.43435533905933
 33
0.0
  0
SOLID
  5
2B2
330
70
100
AcDbEntity
  8
0
100
AcDbTrace
 10
27.5
 20
21.3
 30
0.0
 11
27.5
 21
22.4
 31
0.0
 12
26.5
 22
21.3
 32
0.0
 13
26.5
 23
22.4
 33
0.0
  0
SOLID
  5
2B3
330
70
100
AcDbEntity
  8
0
100
AcDbTrace
 10
27.5
 20
19.6
 30
0.0
 11
27.5
 21
20.7
 31
0.0
 12
26.5
 22
19.6
 32
0.0
 13
26.5
 23
20.7
 33
0.0
  0
SOLID
  5
2B4
330
70
100
AcDbEntity
  8
0
100
AcDbTrace
 10
20.5
 20
13.3
 30
0.0
 11
20.5
 21
14.4
 31
0.0
 12
19.5
 22
13.3
 32
0.0
 13
19.5
 23
14.4
 33
0.0
  0
SOLID
  5
2B5
330
70
100
AcDbEntity
  8
0
100
AcDbTrace
 10
20.5
 20
11.6
 30
0.0
 11
20.5
 21
12.7
 31
0.0
 12
19.5
 22
11.6
 32
0.0
 13
19.5
 23
12.7
 33
0.0
  0
SOLID
  5
2B6
330
70
100
AcDbEntity
  8
0
100
AcDbTrace
 10
16.5
 20
54.69999999999999
 30
0.0
 11
16.5
 21
53.6
 31
0.0
 12
17.5
 22
54.69999999999999
 32
0.0
 13
17.5
 23
53.6
 33
0.0
  0
SOLID
  5
2B7
330
70
100
AcDbEntity
  8
0
100
AcDbTrace
 10
16.5
 20
56.4
 30
0.0
 11
16.5
 21
55.30000000000001
 31
0.0
 12
17.5
 22
56.4
 32
0.0
 13
17.5
 23
55.30000000000001
 33
0.0
  0
SOLID
  5
2B8
330
70
100
AcDbEntity
  8
0
100
AcDbTrace
 10
34.5
 20
50.7
 30
0.0
 11
34.5
 21
49.6
 31
0.0
 12
35.5
 22
50.7
 32
0.0
 13
35.5
 23
49.6
 33
0.0
  0
SOLID
  5
2B9
330
70
100
AcDbEntity
  8
0
100
AcDbTrace
 10
34.5
 20
52.4
 30
0.0
 11
34.5
 21
51.3
 31
0.0
 12
35.5
 22
52.4
 32
0.0
 13
35.5
 23
51.3
 33
0.0
  0
SOLID
  5
2BA
330
70
100
AcDbEntity
  8
0
100
AcDbTrace
 10
22.5
 20
54.69999999999999
 30
0.0
 11
22.5
 21
53.6
 31
0.0
 12
23.5
 22
54.69999999999999
 32
0.0
 13
23.5
 23
53.6
 33
0.0
  0
SOLID
  5
2BB
330
70
100
AcDbEntity
  8
0
100
AcDbTrace
 10
22.5
 20
56.4
 30
0.0
 11
22.5
 21
55.30000000000001
 31
0.0
 12
23.5
 22
56.4
 32
0.0
 13
23.5
 23
55.30000000000001
 33
0.0
  0
SOLID
  5
2BC
330
70
100
AcDbEntity
  8
0
100
AcDbTrace
 10
28.5
 20
54.69999999999999
 30
0.0
 11
28.5
 21
53.6
 31
0.0
 12
29.5
 22
54.69999999999999
 32
0.0
 13
29.5
 23
53.6
 33
0.0
  0
SOLID
  5
2BD
330
70
100
AcDbEntity
  8
0
100
AcDbTrace
 10
28.5
 20
56.4
 30
0.0
 11
28.5
 21
55.30000000000001
 31
0.0
 12
29.5
 22
56.4
 32
0.0
 13
29.5
 23
55.30000000000001
 33
0.0
  0
SOLID
  5
2BE
330
70
100
AcDbEntity
  8
0
100
AcDbTrace
 10
13.5
 20
12.7
 30
0.0
 11
13.5
 21
11.6
 31
0.0
 12
14.5
 22
12.7
 32
0.0
 13
14.5
 23
11.6
 33
0.0
  0
SOLID
  5
2BF
330
70
100
AcDbEntity
  8
0
100
AcDbTrace
 10
13.5
 20
14.4
 30
0.0
 11
13.5
 21
13.3
 31
0.0
 12
14.5
 22
14.4
 32
0.0
 13
14.5
 23
13.3
 33
0.0
  0
SOLID
  5
2C0
330
70
100
AcDbEntity
  8
0
100
AcDbTrace
 10
11.5
 20
12.7
 30
0.0
 11
11.5
 21
11.6
 31
0.0
 12
12.5
 22
12.7
 32
0.0
 13
12.5
 23
11.6
 33
0.0
  0
SOLID
  5
2C1
330
70
100
AcDbEntity
  8
0
100
AcDbTrace
 10
11.5
 20
14.4
 30
0.0
 11
11.5
 21
13.3
 31
0.0
 12
12.5
 22
14.4
 32
0.0
 13
12.5
 23
13.3
 33
0.0
  0
SOLID
  5
2C2
330
70
100
AcDbEntity
  8
0
100
AcDbTrace
 10
12.5
 20
17.3
 30
0.0
 11
12.5
 21
18.4
 31
0.0
 12
11.5
 22
17.3
 32
0.0
 13
11.5
 23
18.4
 33
0.0
  0
SOLID
  5
2C3
330
70
100
AcDbEntity
  8
0
100
AcDbTrace
 10
12.5
 20
15.6
 30
0.0
 11
12.5
 21
16.7
 31
0.0
 12
11.5
 22
15.6
 32
0.0
 13
11.5
 23
16.7
 33
0.0
  0
ENDSEC
  0
SECTION
  2
OBJECTS
  0
DICTIONARY
  5
C
330
0
100
AcDbDictionary
281
     1
  3
ACAD_BACKGROUND
350
2C4
  3
ACAD_CIP_PREVIOUS_PRODUCT_INFO
350
1C2
  3
ACAD_COLOR
350
62
  3
ACAD_DETAILVIEWSTYLE
350
6A
  3
ACAD_GROUP
350
D
  3
ACAD_LAYOUT
350
61
  3
ACAD_MATERIAL
350
10
  3
ACAD_MLEADERSTYLE
350
65
  3
ACAD_MLINESTYLE
350
5E
  3
ACAD_PLOTSETTINGS
350
60
  3
ACAD_PLOTSTYLENAME
350
E
  3
ACAD_SCALELIST
350
42
  3
ACAD_SECTIONVIEWSTYLE
350
67
  3
ACAD_TABLESTYLE
350
63
  3
ACAD_VISUALSTYLE
350
29
  3
ACDB_RECOMPOSE_DATA
350
2F2
  3
AcDbVariableDictionary
350
2E6
  0
DICTIONARY
  5
2CE
330
2
100
AcDbDictionary
280
     1
281
     1
  3
ACAD_LAYERSTATES
360
2CF
  0
DICTIONARY
  5
2C7
330
54
100
AcDbDictionary
280
     1
281
     1
  3
ADSK_XREC_LAYER_RECONCILED
360
2C8
  0
DICTIONARY
  5
2C9
330
74
100
AcDbDictionary
280
     1
281
     1
  3
ADSK_XREC_LAYER_RECONCILED
360
2CA
  0
DICTIONARY
  5
2C4
102
{ACAD_REACTORS
330
C
102
}
330
C
100
AcDbDictionary
281
     1
  0
XRECORD
  5
1C2
102
{ACAD_REACTORS
330
C
102
}
330
C
100
AcDbXrecord
280
     1
300
ACDMAC
300
2013
300
ACDMAC_F_S
  0
DICTIONARY
  5
62
102
{ACAD_REACTORS
330
C
102
}
330
C
100
AcDbDictionary
281
     1
  0
DICTIONARY
  5
6A
102
{ACAD_REACTORS
330
C
102
}
330
C
100
AcDbDictionary
281
     1
  3
Imperial24
350
6B
  0
DICTIONARY
  5
D
102
{ACAD_REACTORS
330
C
102
}
330
C
100
AcDbDictionary
281
     1
  0
DICTIONARY
  5
61
102
{ACAD_REACTORS
330
C
102
}
330
C
100
AcDbDictionary
281
     1
  3
Layout1
350
6F
  3
Model
350
73
  0
DICTIONARY
  5
10
102
{ACAD_REACTORS
330
C
102
}
330
C
100
AcDbDictionary
281
     1
  3
ByBlock
350
19
  3
ByLayer
350
11
  3
Global
350
21
  0
DICTIONARY
  5
65
102
{ACAD_REACTORS
330
C
102
}
330
C
100
AcDbDictionary
281
     1
  3
Standard
350
66
  0
DICTIONARY
  5
5E
102
{ACAD_REACTORS
330
C
102
}
330
C
100
AcDbDictionary
281
     1
  3
Standard
350
5F
  0
DICTIONARY
  5
60
102
{ACAD_REACTORS
330
C
102
}
330
C
100
AcDbDictionary
281
     1
  0
ACDBDICTIONARYWDFLT
  5
E
102
{ACAD_REACTORS
330
C
102
}
330
C
100
AcDbDictionary
281
     1
  3
Normal
350
F
100
AcDbDictionaryWithDefault
340
F
  0
DICTIONARY
  5
42
102
{ACAD_REACTORS
330
C
102
}
330
C
100
AcDbDictionary
281
     1
  3
A0
350
43
  3
A1
350
44
  3
A2
350
45
  3
A3
350
46
  3
A4
350
47
  3
A5
350
48
  3
A6
350
49
  3
A7
350
4A
  3
A8
350
4B
  3
A9
350
4C
  3
B0
350
4D
  3
B1
350
4E
  3
B2
350
4F
  3
B3
350
50
  3
B4
350
51
  3
B5
350
52
  3
B6
350
53
  0
DICTIONARY
  5
67
102
{ACAD_REACTORS
330
C
102
}
330
C
100
AcDbDictionary
281
     1
  3
Imperial24
350
69
  0
DICTIONARY
  5
63
102
{ACAD_REACTORS
330
C
102
}
330
C
100
AcDbDictionary
281
     1
  3
Standard
350
64
  0
DICTIONARY
  5
29
102
{ACAD_REACTORS
330
C
102
}
330
C
100
AcDbDictionary
281
     1
  3
2dWireframe
350
2F
  3
Basic
350
2E
  3
Brighten
350
35
  3
ColorChange
350
39
  3
Conceptual
350
32
  3
Dim
350
34
  3
EdgeColorOff
350
41
  3
Facepattern
350
38
  3
Flat
350
2A
  3
FlatWithEdges
350
2B
  3
Gouraud
350
2C
  3
GouraudWithEdges
350
2D
  3
Hidden
350
31
  3
JitterOff
350
3F
  3
Linepattern
350
37
  3
OverhangOff
350
40
  3
Realistic
350
33
  3
Shaded
350
3E
  3
Shaded with edges
350
3D
  3
Shades of Gray
350
3A
  3
Sketchy
350
3B
  3
Thicken
350
36
  3
Wireframe
350
30
  3
X-Ray
350
3C
  0
XRECORD
  5
2F2
102
{ACAD_REACTORS
330
C
102
}
330
C
100
AcDbXrecord
280
     1
 90
        1
330
64
  0
DICTIONARY
  5
2E6
102
{ACAD_REACTORS
330
C
102
}
330
C
100
AcDbDictionary
281
     1
  3
CANNOSCALE
350
2EC
  3
CMLEADERSTYLE
350
2E8
  3
CTABLESTYLE
350
2E7
  3
CVIEWDETAILSTYLE
350
2E9
  3
CVIEWSECTIONSTYLE
350
2EA
  3
LAYEREVAL
350
2EE
  3
LAYERNOTIFY
350
2EF
  3
LIGHTINGUNITS
350
2ED
  3
MSLTSCALE
350
2EB
  0
DICTIONARY
  5
2CF
102
{ACAD_REACTORS
330
2CE
102
}
330
2CE
100
AcDbDictionary
281
     1
  0
XRECORD
  5
2C8
102
{ACAD_REACTORS
330
2C7
102
}
330
2C7
100
AcDbXrecord
280
     1
290
     1
  0
XRECORD
  5
2CA
102
{ACAD_REACTORS
330
2C9
102
}
330
2C9
100
AcDbXrecord
280
     1
290
     1
  0
ACDBDETAILVIEWSTYLE
  5
6B
102
{ACAD_REACTORS
330
6A
102
}
330
6A
100
AcDbModelDocViewStyle
 70
     0
  3
Imperial24
290
     0
100
AcDbDetailViewStyle
 70
     0
 71
     0
 90
        3
 71
     1
340
55
 62
   256
 40
0.24
340
0
 62
   256
 40
0.24
300

 40
0.36
280
     3
 71
     2
340
5C
 90
       25
 62
   256
 71
     3
340
55
 62
   256
 40
0.24
 90
        1
 40
0.75
 90
        1
300
%<\AcVar ViewType \f "%tc1">% %<\AcVar ViewDetailId>%\PSCALE %<\AcVar ViewScale \f "%sn">%
 71
     4
340
5C
 90
       25
 62
   256
340
5C
 90
       25
 62
   256
280
     0
  0
LAYOUT
  5
6F
102
{ACAD_REACTORS
330
61
102
}
330
61
100
AcDbPlotSettings
  1

  2
Samsung_SCX_3400_Series__SEC001599E13E53_
  4

  6

 40
0.0
 41
0.0
 42
0.0
 43
0.0
 44
0.0
 45
0.0
 46
0.0
 47
0.0
 48
0.0
 49
0.0
140
0.0
141
0.0
142
1.0
143
1.0
 70
   688
 72
     0
 73
     0
 74
     5
  7

 75
    16
147
1.0
 76
     0
 77
     2
 78
   300
148
0.0
149
0.0
100
AcDbLayout
  1
Layout1
 70
     1
 71
     1
 10
0.0
 20
0.0
 11
12.0
 21
9.0
 12
0.0
 22
0.0
 32
0.0
 14
1.000000000000000E+20
 24
1.000000000000000E+20
 34
1.000000000000000E+20
 15
-1.000000000000000E+20
 25
-1.000000000000000E+20
 35
-1.000000000000000E+20
146
0.0
 13
0.0
 23
0.0
 33
0.0
 16
1.0
 26
0.0
 36
0.0
 17
0.0
 27
1.0
 37
0.0
 76
     0
330
6C
  0
LAYOUT
  5
73
102
{ACAD_REACTORS
330
61
102
}
330
61
100
AcDbPlotSettings
  1

  2
Samsung_SCX_3400_Series__SEC001599E13E53_
  4

  6

 40
0.0
 41
0.0
 42
0.0
 43
0.0
 44
0.0
 45
0.0
 46
0.0
 47
0.0
 48
0.0
 49
0.0
140
0.0
141
0.0
142
1.0
143
1.0
 70
  1712
 72
     0
 73
     0
 74
     0
  7

 75
     0
147
1.0
 76
     0
 77
     2
 78
   300
148
0.0
149
0.0
100
AcDbLayout
  1
Model
 70
     1
 71
     0
 10
0.0
 20
0.0
 11
12.0
 21
9.0
 12
0.0
 22
0.0
 32
0.0
 14
0.0
 24
0.0
 34
0.0
 15
0.0
 25
0.0
 35
0.0
146
0.0
 13
0.0
 23
0.0
 33
0.0
 16
1.0
 26
0.0
 36
0.0
 17
0.0
 27
1.0
 37
0.0
 76
     0
330
70
331
76
  0
MATERIAL
  5
19
102
{ACAD_XDICTIONARY
360
1A
102
}
102
{ACAD_REACTORS
330
10
102
}
330
10
100
AcDbMaterial
  1
ByBlock
 72
     0
 43
0.0208333333333333
 43
0.0
 43
0.0
 43
0.0
 43
0.0
 43
0.0208333333333333
 43
0.0
 43
0.0
 43
0.0
 43
0.0
 43
1.0
 43
0.0
 43
0.0
 43
0.0
 43
0.0
 43
1.0
 77
     0
 47
0.0208333333333333
 47
0.0
 47
0.0
 47
0.0
 47
0.0
 47
0.0208333333333333
 47
0.0
 47
0.0
 47
0.0
 47
0.0
 47
1.0
 47
0.0
 47
0.0
 47
0.0
 47
0.0
 47
1.0
171
     0
 49
0.0208333333333333
 49
0.0
 49
0.0
 49
0.0
 49
0.0
 49
0.0208333333333333
 49
0.0
 49
0.0
 49
0.0
 49
0.0
 49
1.0
 49
0.0
 49
0.0
 49
0.0
 49
0.0
 49
1.0
175
     0
142
0.0208333333333333
142
0.0
142
0.0
142
0.0
142
0.0
142
0.0208333333333333
142
0.0
142
0.0
142
0.0
142
0.0
142
1.0
142
0.0
142
0.0
142
0.0
142
0.0
142
1.0
179
     0
144
0.0208333333333333
144
0.0
144
0.0
144
0.0
144
0.0
144
0.0208333333333333
144
0.0
144
0.0
144
0.0
144
0.0
144
1.0
144
0.0
144
0.0
144
0.0
144
0.0
144
1.0
147
0.0208333333333333
147
0.0
147
0.0
147
0.0
147
0.0
147
0.0208333333333333
147
0.0
147
0.0
147
0.0
147
0.0
147
1.0
147
0.0
147
0.0
147
0.0
147
0.0
147
1.0
  0
MATERIAL
  5
11
102
{ACAD_XDICTIONARY
360
12
102
}
102
{ACAD_REACTORS
330
10
102
}
330
10
100
AcDbMaterial
  1
ByLayer
 72
     0
 43
0.0208333333333333
 43
0.0
 43
0.0
 43
0.0
 43
0.0
 43
0.0208333333333333
 43
0.0
 43
0.0
 43
0.0
 43
0.0
 43
1.0
 43
0.0
 43
0.0
 43
0.0
 43
0.0
 43
1.0
 77
     0
 47
0.0208333333333333
 47
0.0
 47
0.0
 47
0.0
 47
0.0
 47
0.0208333333333333
 47
0.0
 47
0.0
 47
0.0
 47
0.0
 47
1.0
 47
0.0
 47
0.0
 47
0.0
 47
0.0
 47
1.0
171
     0
 49
0.0208333333333333
 49
0.0
 49
0.0
 49
0.0
 49
0.0
 49
0.0208333333333333
 49
0.0
 49
0.0
 49
0.0
 49
0.0
 49
1.0
 49
0.0
 49
0.0
 49
0.0
 49
0.0
 49
1.0
175
     0
142
0.0208333333333333
142
0.0
142
0.0
142
0.0
142
0.0
142
0.0208333333333333
142
0.0
142
0.0
142
0.0
142
0.0
142
1.0
142
0.0
142
0.0
142
0.0
142
0.0
142
1.0
179
     0
144
0.0208333333333333
144
0.0
144
0.0
144
0.0
144
0.0
144
0.0208333333333333
144
0.0
144
0.0
144
0.0
144
0.0
144
1.0
144
0.0
144
0.0
144
0.0
144
0.0
144
1.0
147
0.0208333333333333
147
0.0
147
0.0
147
0.0
147
0.0
147
0.0208333333333333
147
0.0
147
0.0
147
0.0
147
0.0
147
1.0
147
0.0
147
0.0
147
0.0
147
0.0
147
1.0
  0
MATERIAL
  5
21
102
{ACAD_XDICTIONARY
360
22
102
}
102
{ACAD_REACTORS
330
10
102
}
330
10
100
AcDbMaterial
  1
Global
 72
     0
 43
0.0208333333333333
 43
0.0
 43
0.0
 43
0.0
 43
0.0
 43
0.0208333333333333
 43
0.0
 43
0.0
 43
0.0
 43
0.0
 43
1.0
 43
0.0
 43
0.0
 43
0.0
 43
0.0
 43
1.0
 77
     0
 47
0.0208333333333333
 47
0.0
 47
0.0
 47
0.0
 47
0.0
 47
0.0208333333333333
 47
0.0
 47
0.0
 47
0.0
 47
0.0
 47
1.0
 47
0.0
 47
0.0
 47
0.0
 47
0.0
 47
1.0
171
     0
 49
0.0208333333333333
 49
0.0
 49
0.0
 49
0.0
 49
0.0
 49
0.0208333333333333
 49
0.0
 49
0.0
 49
0.0
 49
0.0
 49
1.0
 49
0.0
 49
0.0
 49
0.0
 49
0.0
 49
1.0
175
     0
142
0.0208333333333333
142
0.0
142
0.0
142
0.0
142
0.0
142
0.0208333333333333
142
0.0
142
0.0
142
0.0
142
0.0
142
1.0
142
0.0
142
0.0
142
0.0
142
0.0
142
1.0
179
     0
144
0.0208333333333333
144
0.0
144
0.0
144
0.0
144
0.0
144
0.0208333333333333
144
0.0
144
0.0
144
0.0
144
0.0
144
1.0
144
0.0
144
0.0
144
0.0
144
0.0
144
1.0
147
0.0208333333333333
147
0.0
147
0.0
147
0.0
147
0.0
147
0.0208333333333333
147
0.0
147
0.0
147
0.0
147
0.0
147
1.0
147
0.0
147
0.0
147
0.0
147
0.0
147
1.0
  0
MLEADERSTYLE
  5
66
102
{ACAD_REACTORS
330
65
102
}
330
65
100
AcDbMLeaderStyle
179
     2
170
     2
171
     1
172
     0
 90
        2
 40
0.0
 41
0.0
173
     1
 91
-1056964608
340
5A
 92
       -2
290
     1
 42
0.09
291
     1
 43
0.36
  3
Standard
 44
0.18
300

342
55
174
     1
178
     6
175
     1
176
     0
 93
-1056964608
 45
0.18
292
     0
297
     0
 46
0.18
 94
-1056964608
 47
1.0
 49
1.0
140
1.0
293
     1
141
0.0
294
     1
177
     0
142
1.0
295
     0
296
     0
143
0.125
271
     0
272
     9
273
     9
298
     0
  0
MLINESTYLE
  5
5F
102
{ACAD_REACTORS
330
5E
102
}
330
5E
100
AcDbMlineStyle
  2
STANDARD
 70
     0
  3

 62
   256
 51
90.0
 52
90.0
 71
     2
 49
0.5
 62
   256
  6
BYLAYER
 49
-0.5
 62
   256
  6
BYLAYER
  0
ACDBPLACEHOLDER
  5
F
102
{ACAD_REACTORS
330
E
102
}
330
E
  0
SCALE
  5
43
102
{ACAD_REACTORS
330
42
102
}
330
42
100
AcDbScale
 70
     0
300
1:1
140
1.0
141
1.0
290
     1
  0
SCALE
  5
44
102
{ACAD_REACTORS
330
42
102
}
330
42
100
AcDbScale
 70
     0
300
1/128" = 1'-0"
140
0.0078125
141
12.0
290
     0
  0
SCALE
  5
45
102
{ACAD_REACTORS
330
42
102
}
330
42
100
AcDbScale
 70
     0
300
1/64" = 1'-0"
140
0.015625
141
12.0
290
     0
  0
SCALE
  5
46
102
{ACAD_REACTORS
330
42
102
}
330
42
100
AcDbScale
 70
     0
300
1/32" = 1'-0"
140
0.03125
141
12.0
290
     0
  0
SCALE
  5
47
102
{ACAD_REACTORS
330
42
102
}
330
42
100
AcDbScale
 70
     0
300
1/16" = 1'-0"
140
0.0625
141
12.0
290
     0
  0
SCALE
  5
48
102
{ACAD_REACTORS
330
42
102
}
330
42
100
AcDbScale
 70
     0
300
3/32" = 1'-0"
140
0.09375
141
12.0
290
     0
  0
SCALE
  5
49
102
{ACAD_REACTORS
330
42
102
}
330
42
100
AcDbScale
 70
     0
300
1/8" = 1'-0"
140
0.125
141
12.0
290
     0
  0
SCALE
  5
4A
102
{ACAD_REACTORS
330
42
102
}
330
42
100
AcDbScale
 70
     0
300
3/16" = 1'-0"
140
0.1875
141
12.0
290
     0
  0
SCALE
  5
4B
102
{ACAD_REACTORS
330
42
102
}
330
42
100
AcDbScale
 70
     0
300
1/4" = 1'-0"
140
0.25
141
12.0
290
     0
  0
SCALE
  5
4C
102
{ACAD_REACTORS
330
42
102
}
330
42
100
AcDbScale
 70
     0
300
3/8" = 1'-0"
140
0.375
141
12.0
290
     0
  0
SCALE
  5
4D
102
{ACAD_REACTORS
330
42
102
}
330
42
100
AcDbScale
 70
     0
300
1/2" = 1'-0"
140
0.5
141
12.0
290
     0
  0
SCALE
  5
4E
102
{ACAD_REACTORS
330
42
102
}
330
42
100
AcDbScale
 70
     0
300
3/4" = 1'-0"
140
0.75
141
12.0
290
     0
  0
SCALE
  5
4F
102
{ACAD_REACTORS
330
42
102
}
330
42
100
AcDbScale
 70
     0
300
1" = 1'-0"
140
1.0
141
12.0
290
     0
  0
SCALE
  5
50
102
{ACAD_REACTORS
330
42
102
}
330
42
100
AcDbScale
 70
     0
300
1-1/2" = 1'-0"
140
1.5
141
12.0
290
     0
  0
SCALE
  5
51
102
{ACAD_REACTORS
330
42
102
}
330
42
100
AcDbScale
 70
     0
300
3" = 1'-0"
140
3.0
141
12.0
290
     0
  0
SCALE
  5
52
102
{ACAD_REACTORS
330
42
102
}
330
42
100
AcDbScale
 70
     0
300
6" = 1'-0"
140
6.0
141
12.0
290
     0
  0
SCALE
  5
53
102
{ACAD_REACTORS
330
42
102
}
330
42
100
AcDbScale
 70
     0
300
1'-0" = 1'-0"
140
12.0
141
12.0
290
     0
  0
ACDBSECTIONVIEWSTYLE
  5
69
102
{ACAD_REACTORS
330
67
102
}
330
67
100
AcDbModelDocViewStyle
 70
     0
  3
Imperial24
290
     0
100
AcDbSectionViewStyle
 70
     0
 71
     0
 90
       78
 71
     1
340
55
 62
   256
 40
0.24
340
0
340
0
 62
   256
 40
0.24
300
I, O, Q, S, X, Z
 40
0.48
 90
        3
 40
0.18
 90
        1
 71
     2
340
68
 90
       25
 62
   256
340
5C
 90
       50
 62
   256
 40
0.24
 40
0.0
 40
0.24
 71
     3
340
55
 62
   256
 40
0.24
 90
        1
 40
0.75
 90
        1
300
%<\AcVar ViewType \f "%tc1">% %<\AcVar ViewSectionStartId>%-%<\AcVar ViewSectionEndId>%\PSCALE %<\AcVar ViewScale \f "%sn">%
 71
     4
 62
   256
 62
   257
300
ANSI31
 40
1.0
 90
        0
290
     0
290
     0
 90
        6
 40
0.0
 40
1.570796326794896
 40
0.2617993877991494
 40
1.308996938995747
 40
-0.2617993877991494
 40
1.832595714594046
  0
TABLESTYLE
  5
64
102
{ACAD_XDICTIONARY
360
2F0
102
}
102
{ACAD_REACTORS
330
63
102
}
330
63
100
AcDbTableStyle
280
     0
  3
Standard
 70
     0
 71
     0
 40
0.06
 41
0.06
280
     0
281
     0
  7
Standard
140
0.18
170
     2
 62
     0
 63
     7
283
     0
 90
      512
 91
        0
  1

274
    -2
284
     1
 64
     0
275
    -2
285
     1
 65
     0
276
    -2
286
     1
 66
     0
277
    -2
287
     1
 67
     0
278
    -2
288
     1
 68
     0
279
    -2
289
     1
 69
     0
  7
Standard
140
0.25
170
     5
 62
     0
 63
     7
283
     0
 90
      512
 91
        0
  1

274
    -2
284
     1
 64
     0
275
    -2
285
     1
 65
     0
276
    -2
286
     1
 66
     0
277
    -2
287
     1
 67
     0
278
    -2
288
     1
 68
     0
279
    -2
289
     1
 69
     0
  7
Standard
140
0.18
170
     5
 62
     0
 63
     7
283
     0
 90
      512
 91
        0
  1

274
    -2
284
     1
 64
     0
275
    -2
285
     1
 65
     0
276
    -2
286
     1
 66
     0
277
    -2
287
     1
 67
     0
278
    -2
288
     1
 68
     0
279
    -2
289
     1
 69
     0
  0
VISUALSTYLE
  5
2F
102
{ACAD_REACTORS
330
29
102
}
330
29
100
AcDbVisualStyle
  2
2dWireframe
 70
     4
177
     3
291
     0
 70
    58
 90
        0
176
     1
 90
        2
176
     1
 90
        0
176
     1
 90
        0
176
     1
 40
0.6
176
     1
 40
30.0
176
     1
 62
     7
420
 16777215
176
     1
 90
        1
176
     1
 90
        4
176
     1
 62
     7
176
     1
 62
   257
176
     1
 90
        1
176
     1
 90
        1
176
     1
 40
1.0
176
     1
 90
        0
176
     1
 62
   257
176
     1
 40
1.0
176
     1
 90
        1
176
     1
 90
        6
176
     1
 90
        2
176
     1
 62
     7
176
     1
 90
        5
176
     1
 90
        0
176
     1
 90
        0
176
     1
290
     0
176
     1
 90
        1
176
     1
 40
0.0
176
     1
 90
        0
176
     1
290
     1
176
     1
290
     1
176
     1
290
     0
176
     1
290
     0
176
     1
290
     0
176
     1
290
     0
176
     1
290
     0
176
     1
290
     0
176
     1
290
     0
176
     1
 90
       50
176
     1
 40
0.0
176
     1
 40
1.0
176
     1
 90
        0
176
     1
 62
    18
420
        0
176
     1
 90
       50
176
     1
 90
        3
176
     1
 62
     5
420
      255
176
     1
290
     0
176
     1
 90
       50
176
     1
 90
       50
176
     1
 90
       50
176
     1
290
     0
176
     1
 90
       50
176
     1
 62
   256
176
     0
 40
1.0
176
     0
 90
        2
176
     1
  1
strokes_ogs.tif
176
     1
290
     0
176
     1
 40
1.0
176
     1
 40
1.0
176
     1
  0
VISUALSTYLE
  5
2E
102
{ACAD_REACTORS
330
29
102
}
330
29
100
AcDbVisualStyle
  2
Basic
 70
     7
177
     3
291
     1
 70
    58
 90
        1
176
     1
 90
        0
176
     1
 90
        1
176
     1
 90
        0
176
     1
 40
0.6
176
     1
 40
30.0
176
     1
 62
     7
420
 16777215
176
     1
 90
        0
176
     1
 90
        4
176
     1
 62
     7
176
     1
 62
   257
176
     1
 90
        1
176
     1
 90
        1
176
     1
 40
1.0
176
     1
 90
        8
176
     1
 62
     7
176
     1
 40
1.0
176
     1
 90
        1
176
     1
 90
        6
176
     1
 90
        2
176
     1
 62
     7
176
     1
 90
        5
176
     1
 90
        0
176
     1
 90
        0
176
     1
290
     0
176
     1
 90
        1
176
     1
 40
0.0
176
     1
 90
        0
176
     1
290
     0
176
     1
290
     1
176
     1
290
     1
176
     1
290
     0
176
     1
290
     0
176
     1
290
     0
176
     1
290
     0
176
     1
290
     0
176
     1
290
     0
176
     1
 90
       50
176
     1
 40
0.0
176
     1
 40
1.0
176
     1
 90
        0
176
     1
 62
    18
420
        0
176
     1
 90
       50
176
     1
 90
        3
176
     1
 62
     5
420
      255
176
     1
290
     0
176
     1
 90
       50
176
     1
 90
       50
176
     1
 90
       50
176
     1
290
     0
176
     1
 90
       50
176
     1
 62
   256
176
     0
 40
1.0
176
     0
 90
        2
176
     1
  1
strokes_ogs.tif
176
     1
290
     0
176
     1
 40
1.0
176
     1
 40
1.0
176
     1
  0
VISUALSTYLE
  5
35
102
{ACAD_REACTORS
330
29
102
}
330
29
100
AcDbVisualStyle
  2
Brighten
 70
    12
177
     3
291
     1
 70
    58
 90
        2
176
     1
 90
        2
176
     1
 90
        0
176
     1
 90
        0
176
     1
 40
0.6
176
     1
 40
30.0
176
     1
 62
     7
420
 16777215
176
     1
 90
        1
176
     1
 90
        4
176
     1
 62
     7
176
     1
 62
   257
176
     1
 90
        1
176
     1
 90
        1
176
     1
 40
1.0
176
     1
 90
        8
176
     1
 62
     7
176
     1
 40
1.0
176
     1
 90
        1
176
     1
 90
        6
176
     1
 90
        2
176
     1
 62
     7
176
     1
 90
        5
176
     1
 90
        0
176
     1
 90
        0
176
     1
290
     0
176
     1
 90
        1
176
     1
 40
50.0
176
     1
 90
        0
176
     1
290
     0
176
     1
290
     1
176
     1
290
     1
176
     1
290
     0
176
     1
290
     0
176
     1
290
     0
176
     1
290
     0
176
     1
290
     0
176
     1
290
     0
176
     1
 90
       50
176
     1
 40
0.0
176
     1
 40
1.0
176
     1
 90
        0
176
     1
 62
    18
420
        0
176
     1
 90
       50
176
     1
 90
        3
176
     1
 62
     5
420
      255
176
     1
290
     0
176
     1
 90
       50
176
     1
 90
       50
176
     1
 90
       50
176
     1
290
     0
176
     1
 90
       50
176
     1
 62
   256
176
     0
 40
1.0
176
     0
 90
        2
176
     1
  1
strokes_ogs.tif
176
     1
290
     0
176
     1
 40
1.0
176
     1
 40
1.0
176
     1
  0
VISUALSTYLE
  5
39
102
{ACAD_REACTORS
330
29
102
}
330
29
100
AcDbVisualStyle
  2
ColorChange
 70
    16
177
     3
291
     1
 70
    58
 90
        2
176
     1
 90
        2
176
     1
 90
        3
176
     1
 90
        0
176
     1
 40
0.6
176
     1
 40
30.0
176
     1
 62
     8
420
  8421504
176
     1
 90
        1
176
     1
 90
        4
176
     1
 62
     7
176
     1
 62
   257
176
     1
 90
        1
176
     1
 90
        1
176
     1
 40
1.0
176
     1
 90
        8
176
     1
 62
     8
420
  8421504
176
     1
 40
1.0
176
     1
 90
        1
176
     1
 90
        6
176
     1
 90
        2
176
     1
 62
     7
176
     1
 90
        5
176
     1
 90
        0
176
     1
 90
        0
176
     1
290
     0
176
     1
 90
        1
176
     1
 40
0.0
176
     1
 90
        0
176
     1
290
     0
176
     1
290
     1
176
     1
290
     1
176
     1
290
     0
176
     1
290
     0
176
     1
290
     0
176
     1
290
     0
176
     1
290
     0
176
     1
290
     0
176
     1
 90
       50
176
     1
 40
0.0
176
     1
 40
1.0
176
     1
 90
        0
176
     1
 62
    18
420
        0
176
     1
 90
       50
176
     1
 90
        3
176
     1
 62
     5
420
      255
176
     1
290
     0
176
     1
 90
       50
176
     1
 90
       50
176
     1
 90
       50
176
     1
290
     0
176
     1
 90
       50
176
     1
 62
   256
176
     0
 40
1.0
176
     0
 90
        2
176
     1
  1
strokes_ogs.tif
176
     1
290
     0
176
     1
 40
1.0
176
     1
 40
1.0
176
     1
  0
VISUALSTYLE
  5
32
102
{ACAD_REACTORS
330
29
102
}
330
29
100
AcDbVisualStyle
  2
Conceptual
 70
     9
177
     3
291
     0
 70
    58
 90
        3
176
     1
 90
        2
176
     1
 90
        0
176
     1
 90
        0
176
     1
 40
0.6
176
     1
 40
30.0
176
     1
 62
     7
420
 16777215
176
     1
 90
        2
176
     1
 90
        2
176
     1
 62
     7
176
     1
 62
   257
176
     1
 90
        1
176
     1
 90
        1
176
     1
 40
179.0
176
     1
 90
        8
176
     1
 62
     7
176
     1
 40
1.0
176
     1
 90
        1
176
     1
 90
        6
176
     1
 90
        2
176
     1
 62
     7
176
     1
 90
        3
176
     1
 90
        0
176
     1
 90
        0
176
     1
290
     0
176
     1
 90
        1
176
     1
 40
0.0
176
     1
 90
        0
176
     1
290
     0
176
     1
290
     1
176
     1
290
     1
176
     1
290
     0
176
     1
290
     0
176
     1
290
     0
176
     1
290
     0
176
     1
290
     0
176
     1
290
     0
176
     1
 90
       50
176
     1
 40
0.0
176
     1
 40
1.0
176
     1
 90
        0
176
     1
 62
    18
420
        0
176
     1
 90
       50
176
     1
 90
        3
176
     1
 62
     5
420
      255
176
     1
290
     0
176
     1
 90
       50
176
     1
 90
       50
176
     1
 90
       50
176
     1
290
     0
176
     1
 90
       50
176
     1
 62
   256
176
     0
 40
1.0
176
     0
 90
        2
176
     1
  1
strokes_ogs.tif
176
     1
290
     0
176
     1
 40
1.0
176
     1
 40
1.0
176
     1
  0
VISUALSTYLE
  5
34
102
{ACAD_REACTORS
330
29
102
}
330
29
100
AcDbVisualStyle
  2
Dim
 70
    11
177
     3
291
     1
 70
    58
 90
        2
176
     1
 90
        2
176
     1
 90
        0
176
     1
 90
        0
176
     1
 40
0.6
176
     1
 40
30.0
176
     1
 62
     7
420
 16777215
176
     1
 90
        1
176
     1
 90
        4
176
     1
 62
     7
176
     1
 62
   257
176
     1
 90
        1
176
     1
 90
        1
176
     1
 40
1.0
176
     1
 90
        8
176
     1
 62
     7
176
     1
 40
1.0
176
     1
 90
        1
176
     1
 90
        6
176
     1
 90
        2
176
     1
 62
     7
176
     1
 90
        5
176
     1
 90
        0
176
     1
 90
        0
176
     1
290
     0
176
     1
 90
        1
176
     1
 40
-50.0
176
     1
 90
        0
176
     1
290
     0
176
     1
290
     1
176
     1
290
     1
176
     1
290
     0
176
     1
290
     0
176
     1
290
     0
176
     1
290
     0
176
     1
290
     0
176
     1
290
     0
176
     1
 90
       50
176
     1
 40
0.0
176
     1
 40
1.0
176
     1
 90
        0
176
     1
 62
    18
420
        0
176
     1
 90
       50
176
     1
 90
        3
176
     1
 62
     5
420
      255
176
     1
290
     0
176
     1
 90
       50
176
     1
 90
       50
176
     1
 90
       50
176
     1
290
     0
176
     1
 90
       50
176
     1
 62
   256
176
     0
 40
1.0
176
     0
 90
        2
176
     1
  1
strokes_ogs.tif
176
     1
290
     0
176
     1
 40
1.0
176
     1
 40
1.0
176
     1
  0
VISUALSTYLE
  5
41
102
{ACAD_REACTORS
330
29
102
}
330
29
100
AcDbVisualStyle
  2
EdgeColorOff
 70
    22
177
     3
291
     1
 70
    58
 90
        2
176
     0
 90
        2
176
     0
 90
        0
176
     0
 90
        0
176
     0
 40
0.6
176
     0
 40
30.0
176
     0
 62
     7
420
 16777215
176
     0
 90
        1
176
     0
 90
        4
176
     0
 62
     7
176
     0
 62
   257
176
     0
 90
        1
176
     0
 90
        1
176
     0
 40
1.0
176
     0
 90
        8
176
     2
 62
     7
176
     0
 40
1.0
176
     0
 90
        1
176
     0
 90
        6
176
     0
 90
        2
176
     0
 62
     7
176
     0
 90
        5
176
     0
 90
        0
176
     0
 90
        0
176
     0
290
     0
176
     0
 90
        1
176
     0
 40
0.0
176
     0
 90
        0
176
     0
290
     0
176
     1
290
     1
176
     1
290
     1
176
     1
290
     0
176
     1
290
     0
176
     1
290
     0
176
     1
290
     0
176
     1
290
     0
176
     1
290
     0
176
     1
 90
       50
176
     0
 40
0.0
176
     0
 40
1.0
176
     0
 90
        0
176
     0
 62
    18
420
        0
176
     0
 90
       50
176
     0
 90
        3
176
     0
 62
     5
420
      255
176
     0
290
     0
176
     1
 90
       50
176
     0
 90
       50
176
     0
 90
       50
176
     0
290
     0
176
     1
 90
       50
176
     0
 62
   256
176
     0
 40
1.0
176
     0
 90
        2
176
     0
  1
strokes_ogs.tif
176
     0
290
     0
176
     1
 40
1.0
176
     0
 40
1.0
176
     0
  0
VISUALSTYLE
  5
38
102
{ACAD_REACTORS
330
29
102
}
330
29
100
AcDbVisualStyle
  2
Facepattern
 70
    15
177
     3
291
     1
 70
    58
 90
        2
176
     1
 90
        2
176
     1
 90
        0
176
     1
 90
        0
176
     1
 40
0.6
176
     1
 40
30.0
176
     1
 62
     7
420
 16777215
176
     1
 90
        1
176
     1
 90
        4
176
     1
 62
     7
176
     1
 62
   257
176
     1
 90
        1
176
     1
 90
        1
176
     1
 40
1.0
176
     1
 90
        8
176
     1
 62
     7
176
     1
 40
1.0
176
     1
 90
        1
176
     1
 90
        6
176
     1
 90
        2
176
     1
 62
     7
176
     1
 90
        5
176
     1
 90
        0
176
     1
 90
        0
176
     1
290
     0
176
     1
 90
        1
176
     1
 40
0.0
176
     1
 90
        0
176
     1
290
     0
176
     1
290
     1
176
     1
290
     1
176
     1
290
     0
176
     1
290
     0
176
     1
290
     0
176
     1
290
     0
176
     1
290
     0
176
     1
290
     0
176
     1
 90
       50
176
     1
 40
0.0
176
     1
 40
1.0
176
     1
 90
        0
176
     1
 62
    18
420
        0
176
     1
 90
       50
176
     1
 90
        3
176
     1
 62
     5
420
      255
176
     1
290
     0
176
     1
 90
       50
176
     1
 90
       50
176
     1
 90
       50
176
     1
290
     0
176
     1
 90
       50
176
     1
 62
   256
176
     0
 40
1.0
176
     0
 90
        2
176
     1
  1
strokes_ogs.tif
176
     1
290
     0
176
     1
 40
1.0
176
     1
 40
1.0
176
     1
  0
VISUALSTYLE
  5
2A
102
{ACAD_REACTORS
330
29
102
}
330
29
100
AcDbVisualStyle
  2
Flat
 70
     0
177
     3
291
     1
 70
    58
 90
        2
176
     1
 90
        1
176
     1
 90
        1
176
     1
 90
        2
176
     1
 40
0.6
176
     1
 40
30.0
176
     1
 62
     7
420
 16777215
176
     1
 90
        0
176
     1
 90
        0
176
     1
 62
     7
176
     1
 62
   257
176
     1
 90
        1
176
     1
 90
        1
176
     1
 40
1.0
176
     1
 90
        8
176
     1
 62
     7
176
     1
 40
1.0
176
     1
 90
        1
176
     1
 90
        6
176
     1
 90
        2
176
     1
 62
     7
176
     1
 90
        5
176
     1
 90
        0
176
     1
 90
        0
176
     1
290
     0
176
     1
 90
       13
176
     1
 40
0.0
176
     1
 90
        0
176
     1
290
     0
176
     1
290
     1
176
     1
290
     1
176
     1
290
     0
176
     1
290
     0
176
     1
290
     0
176
     1
290
     0
176
     1
290
     0
176
     1
290
     0
176
     1
 90
       50
176
     1
 40
0.0
176
     1
 40
1.0
176
     1
 90
        0
176
     1
 62
    18
420
        0
176
     1
 90
       50
176
     1
 90
        3
176
     1
 62
     5
420
      255
176
     1
290
     0
176
     1
 90
       50
176
     1
 90
       50
176
     1
 90
       50
176
     1
290
     0
176
     1
 90
       50
176
     1
 62
   256
176
     0
 40
1.0
176
     0
 90
        2
176
     1
  1
strokes_ogs.tif
176
     1
290
     0
176
     1
 40
1.0
176
     1
 40
1.0
176
     1
  0
VISUALSTYLE
  5
2B
102
{ACAD_REACTORS
330
29
102
}
330
29
100
AcDbVisualStyle
  2
FlatWithEdges
 70
     1
177
     3
291
     1
 70
    58
 90
        2
176
     1
 90
        1
176
     1
 90
        1
176
     1
 90
        2
176
     1
 40
0.6
176
     1
 40
30.0
176
     1
 62
     7
420
 16777215
176
     1
 90
        1
176
     1
 90
        0
176
     1
 62
     7
176
     1
 62
   257
176
     1
 90
        1
176
     1
 90
        1
176
     1
 40
1.0
176
     1
 90
        0
176
     1
 62
   257
176
     1
 40
1.0
176
     1
 90
        1
176
     1
 90
        6
176
     1
 90
        2
176
     1
 62
     7
176
     1
 90
        5
176
     1
 90
        0
176
     1
 90
        0
176
     1
290
     0
176
     1
 90
       13
176
     1
 40
0.0
176
     1
 90
        0
176
     1
290
     0
176
     1
290
     1
176
     1
290
     1
176
     1
290
     0
176
     1
290
     0
176
     1
290
     0
176
     1
290
     0
176
     1
290
     0
176
     1
290
     0
176
     1
 90
       50
176
     1
 40
0.0
176
     1
 40
1.0
176
     1
 90
        0
176
     1
 62
    18
420
        0
176
     1
 90
       50
176
     1
 90
        3
176
     1
 62
     5
420
      255
176
     1
290
     0
176
     1
 90
       50
176
     1
 90
       50
176
     1
 90
       50
176
     1
290
     0
176
     1
 90
       50
176
     1
 62
   256
176
     0
 40
1.0
176
     0
 90
        2
176
     1
  1
strokes_ogs.tif
176
     1
290
     0
176
     1
 40
1.0
176
     1
 40
1.0
176
     1
  0
VISUALSTYLE
  5
2C
102
{ACAD_REACTORS
330
29
102
}
330
29
100
AcDbVisualStyle
  2
Gouraud
 70
     2
177
     3
291
     1
 70
    58
 90
        2
176
     1
 90
        2
176
     1
 90
        1
176
     1
 90
        2
176
     1
 40
0.6
176
     1
 40
30.0
176
     1
 62
     7
420
 16777215
176
     1
 90
        0
176
     1
 90
        0
176
     1
 62
     7
176
     1
 62
   257
176
     1
 90
        1
176
     1
 90
        1
176
     1
 40
1.0
176
     1
 90
        0
176
     1
 62
     7
176
     1
 40
1.0
176
     1
 90
        1
176
     1
 90
        6
176
     1
 90
        2
176
     1
 62
     7
176
     1
 90
        5
176
     1
 90
        0
176
     1
 90
        0
176
     1
290
     0
176
     1
 90
       13
176
     1
 40
0.0
176
     1
 90
        0
176
     1
290
     0
176
     1
290
     1
176
     1
290
     1
176
     1
290
     0
176
     1
290
     0
176
     1
290
     0
176
     1
290
     0
176
     1
290
     0
176
     1
290
     0
176
     1
 90
       50
176
     1
 40
0.0
176
     1
 40
1.0
176
     1
 90
        0
176
     1
 62
    18
420
        0
176
     1
 90
       50
176
     1
 90
        3
176
     1
 62
     5
420
      255
176
     1
290
     0
176
     1
 90
       50
176
     1
 90
       50
176
     1
 90
       50
176
     1
290
     0
176
     1
 90
       50
176
     1
 62
   256
176
     0
 40
1.0
176
     0
 90
        2
176
     1
  1
strokes_ogs.tif
176
     1
290
     0
176
     1
 40
1.0
176
     1
 40
1.0
176
     1
  0
VISUALSTYLE
  5
2D
102
{ACAD_REACTORS
330
29
102
}
330
29
100
AcDbVisualStyle
  2
GouraudWithEdges
 70
     3
177
     3
291
     1
 70
    58
 90
        2
176
     1
 90
        2
176
     1
 90
        1
176
     1
 90
        2
176
     1
 40
0.6
176
     1
 40
30.0
176
     1
 62
     7
420
 16777215
176
     1
 90
        1
176
     1
 90
        0
176
     1
 62
     7
176
     1
 62
   257
176
     1
 90
        1
176
     1
 90
        1
176
     1
 40
1.0
176
     1
 90
        0
176
     1
 62
   257
176
     1
 40
1.0
176
     1
 90
        1
176
     1
 90
        6
176
     1
 90
        2
176
     1
 62
     7
176
     1
 90
        5
176
     1
 90
        0
176
     1
 90
        0
176
     1
290
     0
176
     1
 90
       13
176
     1
 40
0.0
176
     1
 90
        0
176
     1
290
     0
176
     1
290
     1
176
     1
290
     1
176
     1
290
     0
176
     1
290
     0
176
     1
290
     0
176
     1
290
     0
176
     1
290
     0
176
     1
290
     0
176
     1
 90
       50
176
     1
 40
0.0
176
     1
 40
1.0
176
     1
 90
        0
176
     1
 62
    18
420
        0
176
     1
 90
       50
176
     1
 90
        3
176
     1
 62
     5
420
      255
176
     1
290
     0
176
     1
 90
       50
176
     1
 90
       50
176
     1
 90
       50
176
     1
290
     0
176
     1
 90
       50
176
     1
 62
   256
176
     0
 40
1.0
176
     0
 90
        2
176
     1
  1
strokes_ogs.tif
176
     1
290
     0
176
     1
 40
1.0
176
     1
 40
1.0
176
     1
  0
VISUALSTYLE
  5
31
102
{ACAD_REACTORS
330
29
102
}
330
29
100
AcDbVisualStyle
  2
Hidden
 70
     6
177
     3
291
     0
 70
    58
 90
        1
176
     1
 90
        2
176
     1
 90
        2
176
     1
 90
        0
176
     1
 40
0.6
176
     1
 40
30.0
176
     1
 62
     7
420
 16777215
176
     1
 90
        2
176
     1
 90
        2
176
     1
 62
     7
176
     1
 62
   257
176
     1
 90
        2
176
     1
 90
        1
176
     1
 40
40.0
176
     1
 90
        0
176
     1
 62
   257
176
     1
 40
1.0
176
     1
 90
        1
176
     1
 90
        6
176
     1
 90
        2
176
     1
 62
     7
176
     1
 90
        3
176
     1
 90
        0
176
     1
 90
        0
176
     1
290
     0
176
     1
 90
        1
176
     1
 40
0.0
176
     1
 90
        0
176
     1
290
     0
176
     1
290
     1
176
     1
290
     1
176
     1
290
     0
176
     1
290
     0
176
     1
290
     0
176
     1
290
     0
176
     1
290
     0
176
     1
290
     0
176
     1
 90
       50
176
     1
 40
0.0
176
     1
 40
1.0
176
     1
 90
        0
176
     1
 62
    18
420
        0
176
     1
 90
       50
176
     1
 90
        3
176
     1
 62
     5
420
      255
176
     1
290
     0
176
     1
 90
       50
176
     1
 90
       50
176
     1
 90
       50
176
     1
290
     0
176
     1
 90
       50
176
     1
 62
   256
176
     0
 40
1.0
176
     0
 90
        2
176
     1
  1
strokes_ogs.tif
176
     1
290
     0
176
     1
 40
1.0
176
     1
 40
1.0
176
     1
  0
VISUALSTYLE
  5
3F
102
{ACAD_REACTORS
330
29
102
}
330
29
100
AcDbVisualStyle
  2
JitterOff
 70
    20
177
     3
291
     1
 70
    58
 90
        2
176
     0
 90
        2
176
     0
 90
        0
176
     0
 90
        0
176
     0
 40
0.6
176
     0
 40
30.0
176
     0
 62
     7
420
 16777215
176
     0
 90
        1
176
     0
 90
        4
176
     0
 62
     7
176
     0
 62
   257
176
     0
 90
        1
176
     0
 90
        1
176
     0
 40
1.0
176
     0
 90
       10
176
     2
 62
     7
176
     0
 40
1.0
176
     0
 90
        1
176
     0
 90
        6
176
     0
 90
        2
176
     0
 62
     7
176
     0
 90
        5
176
     0
 90
        0
176
     0
 90
        0
176
     0
290
     0
176
     0
 90
        1
176
     0
 40
0.0
176
     0
 90
        0
176
     0
290
     0
176
     1
290
     1
176
     1
290
     1
176
     1
290
     0
176
     1
290
     0
176
     1
290
     0
176
     1
290
     0
176
     1
290
     0
176
     1
290
     0
176
     1
 90
       50
176
     0
 40
0.0
176
     0
 40
1.0
176
     0
 90
        0
176
     0
 62
    18
420
        0
176
     0
 90
       50
176
     0
 90
        3
176
     0
 62
     5
420
      255
176
     0
290
     0
176
     1
 90
       50
176
     0
 90
       50
176
     0
 90
       50
176
     0
290
     0
176
     1
 90
       50
176
     0
 62
   256
176
     0
 40
1.0
176
     0
 90
        2
176
     0
  1
strokes_ogs.tif
176
     0
290
     0
176
     1
 40
1.0
176
     0
 40
1.0
176
     0
  0
VISUALSTYLE
  5
37
102
{ACAD_REACTORS
330
29
102
}
330
29
100
AcDbVisualStyle
  2
Linepattern
 70
    14
177
     3
291
     1
 70
    58
 90
        2
176
     1
 90
        2
176
     1
 90
        0
176
     1
 90
        0
176
     1
 40
0.6
176
     1
 40
30.0
176
     1
 62
     7
420
 16777215
176
     1
 90
        1
176
     1
 90
        4
176
     1
 62
     7
176
     1
 62
   257
176
     1
 90
        7
176
     1
 90
        7
176
     1
 40
1.0
176
     1
 90
        8
176
     1
 62
     7
176
     1
 40
1.0
176
     1
 90
        1
176
     1
 90
        6
176
     1
 90
        2
176
     1
 62
     7
176
     1
 90
        5
176
     1
 90
        0
176
     1
 90
        0
176
     1
290
     0
176
     1
 90
        1
176
     1
 40
0.0
176
     1
 90
        0
176
     1
290
     0
176
     1
290
     1
176
     1
290
     1
176
     1
290
     0
176
     1
290
     0
176
     1
290
     0
176
     1
290
     0
176
     1
290
     0
176
     1
290
     0
176
     1
 90
       50
176
     1
 40
0.0
176
     1
 40
1.0
176
     1
 90
        0
176
     1
 62
    18
420
        0
176
     1
 90
       50
176
     1
 90
        3
176
     1
 62
     5
420
      255
176
     1
290
     0
176
     1
 90
       50
176
     1
 90
       50
176
     1
 90
       50
176
     1
290
     0
176
     1
 90
       50
176
     1
 62
   256
176
     0
 40
1.0
176
     0
 90
        2
176
     1
  1
strokes_ogs.tif
176
     1
290
     0
176
     1
 40
1.0
176
     1
 40
1.0
176
     1
  0
VISUALSTYLE
  5
40
102
{ACAD_REACTORS
330
29
102
}
330
29
100
AcDbVisualStyle
  2
OverhangOff
 70
    21
177
     3
291
     1
 70
    58
 90
        2
176
     0
 90
        2
176
     0
 90
        0
176
     0
 90
        0
176
     0
 40
0.6
176
     0
 40
30.0
176
     0
 62
     7
420
 16777215
176
     0
 90
        1
176
     0
 90
        4
176
     0
 62
     7
176
     0
 62
   257
176
     0
 90
        1
176
     0
 90
        1
176
     0
 40
1.0
176
     0
 90
        9
176
     2
 62
     7
176
     0
 40
1.0
176
     0
 90
        1
176
     0
 90
        6
176
     0
 90
        2
176
     0
 62
     7
176
     0
 90
        5
176
     0
 90
        0
176
     0
 90
        0
176
     0
290
     0
176
     0
 90
        1
176
     0
 40
0.0
176
     0
 90
        0
176
     0
290
     0
176
     1
290
     1
176
     1
290
     1
176
     1
290
     0
176
     1
290
     0
176
     1
290
     0
176
     1
290
     0
176
     1
290
     0
176
     1
290
     0
176
     1
 90
       50
176
     0
 40
0.0
176
     0
 40
1.0
176
     0
 90
        0
176
     0
 62
    18
420
        0
176
     0
 90
       50
176
     0
 90
        3
176
     0
 62
     5
420
      255
176
     0
290
     0
176
     1
 90
       50
176
     0
 90
       50
176
     0
 90
       50
176
     0
290
     0
176
     1
 90
       50
176
     0
 62
   256
176
     0
 40
1.0
176
     0
 90
        2
176
     0
  1
strokes_ogs.tif
176
     0
290
     0
176
     1
 40
1.0
176
     0
 40
1.0
176
     0
  0
VISUALSTYLE
  5
33
102
{ACAD_REACTORS
330
29
102
}
330
29
100
AcDbVisualStyle
  2
Realistic
 70
     8
177
     3
291
     0
 70
    58
 90
        2
176
     1
 90
        3
176
     1
 90
        0
176
     1
 90
        2
176
     1
 40
0.6
176
     1
 40
30.0
176
     1
 62
     7
420
 16777215
176
     1
 90
        0
176
     1
 90
        0
176
     1
 62
     7
176
     1
 62
   257
176
     1
 90
        1
176
     1
 90
        1
176
     1
 40
1.0
176
     1
 90
        8
176
     1
 62
   257
176
     1
 40
1.0
176
     1
 90
        1
176
     1
 90
        6
176
     1
 90
        2
176
     1
 62
     7
176
     1
 90
        3
176
     1
 90
        0
176
     1
 90
        0
176
     1
290
     0
176
     1
 90
       13
176
     1
 40
0.0
176
     1
 90
        0
176
     1
290
     0
176
     1
290
     1
176
     1
290
     1
176
     1
290
     0
176
     1
290
     0
176
     1
290
     0
176
     1
290
     0
176
     1
290
     0
176
     1
290
     0
176
     1
 90
       50
176
     1
 40
0.0
176
     1
 40
1.0
176
     1
 90
        0
176
     1
 62
    18
420
        0
176
     1
 90
       50
176
     1
 90
        3
176
     1
 62
     5
420
      255
176
     1
290
     0
176
     1
 90
       50
176
     1
 90
       50
176
     1
 90
       50
176
     1
290
     0
176
     1
 90
       50
176
     1
 62
   256
176
     0
 40
1.0
176
     0
 90
        2
176
     1
  1
strokes_ogs.tif
176
     1
290
     0
176
     1
 40
1.0
176
     1
 40
1.0
176
     1
  0
VISUALSTYLE
  5
3E
102
{ACAD_REACTORS
330
29
102
}
330
29
100
AcDbVisualStyle
  2
Shaded
 70
    27
177
     3
291
     0
 70
    58
 90
        2
176
     1
 90
        2
176
     1
 90
        1
176
     1
 90
        2
176
     1
 40
0.6
176
     1
 40
30.0
176
     1
 62
     7
420
 16777215
176
     1
 90
        0
176
     1
 90
        4
176
     1
 62
     7
176
     1
 62
   257
176
     1
 90
        1
176
     1
 90
        1
176
     1
 40
1.0
176
     1
 90
        8
176
     1
 62
   257
176
     1
 40
1.0
176
     1
 90
        1
176
     1
 90
        6
176
     1
 90
        2
176
     1
 62
     8
420
  7895160
176
     1
 90
        3
176
     1
 90
        0
176
     1
 90
        0
176
     1
290
     0
176
     1
 90
        5
176
     1
 40
0.0
176
     1
 90
        0
176
     1
290
     0
176
     1
290
     1
176
     1
290
     1
176
     1
290
     0
176
     1
290
     0
176
     1
290
     0
176
     1
290
     0
176
     1
290
     0
176
     1
290
     0
176
     1
 90
       50
176
     1
 40
0.0
176
     1
 40
1.0
176
     1
 90
        0
176
     1
 62
    18
420
        0
176
     1
 90
       50
176
     1
 90
        3
176
     1
 62
     5
420
      255
176
     1
290
     0
176
     1
 90
       50
176
     1
 90
       50
176
     1
 90
       50
176
     1
290
     0
176
     1
 90
       50
176
     1
 62
   256
176
     0
 40
1.0
176
     0
 90
        2
176
     1
  1
strokes_ogs.tif
176
     1
290
     0
176
     1
 40
1.0
176
     1
 40
1.0
176
     1
  0
VISUALSTYLE
  5
3D
102
{ACAD_REACTORS
330
29
102
}
330
29
100
AcDbVisualStyle
  2
Shaded with edges
 70
    26
177
     3
291
     0
 70
    58
 90
        2
176
     1
 90
        2
176
     1
 90
        1
176
     1
 90
        2
176
     1
 40
0.6
176
     1
 40
30.0
176
     1
 62
     7
420
 16777215
176
     1
 90
        1
176
     1
 90
       10
176
     1
 62
     7
176
     1
 62
   257
176
     1
 90
        2
176
     1
 90
        1
176
     1
 40
1.0
176
     1
 90
        8
176
     1
 62
   257
176
     1
 40
1.0
176
     1
 90
        1
176
     1
 90
        6
176
     1
 90
        2
176
     1
 62
     7
176
     1
 90
        3
176
     1
 90
        0
176
     1
 90
        0
176
     1
290
     0
176
     1
 90
        5
176
     1
 40
0.0
176
     1
 90
        0
176
     1
290
     0
176
     1
290
     1
176
     1
290
     1
176
     1
290
     0
176
     1
290
     0
176
     1
290
     0
176
     1
290
     0
176
     1
290
     0
176
     1
290
     0
176
     1
 90
       50
176
     1
 40
0.0
176
     1
 40
1.0
176
     1
 90
        0
176
     1
 62
    18
420
        0
176
     1
 90
       50
176
     1
 90
        3
176
     1
 62
     5
420
      255
176
     1
290
     0
176
     1
 90
       50
176
     1
 90
       50
176
     1
 90
       50
176
     1
290
     0
176
     1
 90
       50
176
     1
 62
   256
176
     0
 40
1.0
176
     0
 90
        2
176
     1
  1
strokes_ogs.tif
176
     1
290
     0
176
     1
 40
1.0
176
     1
 40
1.0
176
     1
  0
VISUALSTYLE
  5
3A
102
{ACAD_REACTORS
330
29
102
}
330
29
100
AcDbVisualStyle
  2
Shades of Gray
 70
    23
177
     3
291
     0
 70
    58
 90
        2
176
     1
 90
        2
176
     1
 90
        3
176
     1
 90
        0
176
     1
 40
0.6
176
     1
 40
30.0
176
     1
 62
     7
420
 16777215
176
     1
 90
        2
176
     1
 90
        2
176
     1
 62
     7
176
     1
 62
     7
176
     1
 90
        1
176
     1
 90
        1
176
     1
 40
40.0
176
     1
 90
        8
176
     1
 62
     7
176
     1
 40
1.0
176
     1
 90
        1
176
     1
 90
        6
176
     1
 90
        2
176
     1
 62
     7
176
     1
 90
        3
176
     1
 90
        0
176
     1
 90
        0
176
     1
290
     0
176
     1
 90
        1
176
     1
 40
0.0
176
     1
 90
        0
176
     1
290
     0
176
     1
290
     1
176
     1
290
     1
176
     1
290
     0
176
     1
290
     0
176
     1
290
     0
176
     1
290
     0
176
     1
290
     0
176
     1
290
     0
176
     1
 90
       50
176
     1
 40
0.0
176
     1
 40
1.0
176
     1
 90
        0
176
     1
 62
    18
420
        0
176
     1
 90
       50
176
     1
 90
        3
176
     1
 62
     5
420
      255
176
     1
290
     0
176
     1
 90
       50
176
     1
 90
       50
176
     1
 90
       50
176
     1
290
     0
176
     1
 90
       50
176
     1
 62
   256
176
     0
 40
1.0
176
     0
 90
        2
176
     1
  1
strokes_ogs.tif
176
     1
290
     0
176
     1
 40
1.0
176
     1
 40
1.0
176
     1
  0
VISUALSTYLE
  5
3B
102
{ACAD_REACTORS
330
29
102
}
330
29
100
AcDbVisualStyle
  2
Sketchy
 70
    24
177
     3
291
     0
 70
    58
 90
        1
176
     1
 90
        2
176
     1
 90
        2
176
     1
 90
        0
176
     1
 40
0.6
176
     1
 40
30.0
176
     1
 62
     7
420
 16777215
176
     1
 90
        2
176
     1
 90
        2
176
     1
 62
     7
176
     1
 62
     7
176
     1
 90
        1
176
     1
 90
        1
176
     1
 40
40.0
176
     1
 90
       11
176
     1
 62
     7
176
     1
 40
1.0
176
     1
 90
        1
176
     1
 90
        6
176
     1
 90
        2
176
     1
 62
     7
176
     1
 90
        6
176
     1
 90
        0
176
     1
 90
        0
176
     1
290
     0
176
     1
 90
        1
176
     1
 40
0.0
176
     1
 90
        0
176
     1
290
     0
176
     1
290
     1
176
     1
290
     1
176
     1
290
     0
176
     1
290
     0
176
     1
290
     0
176
     1
290
     0
176
     1
290
     0
176
     1
290
     0
176
     1
 90
       50
176
     1
 40
0.0
176
     1
 40
1.0
176
     1
 90
        0
176
     1
 62
    18
420
        0
176
     1
 90
       50
176
     1
 90
        3
176
     1
 62
     5
420
      255
176
     1
290
     0
176
     1
 90
       50
176
     1
 90
       50
176
     1
 90
       50
176
     1
290
     0
176
     1
 90
       50
176
     1
 62
   256
176
     0
 40
1.0
176
     0
 90
        2
176
     1
  1
strokes_ogs.tif
176
     1
290
     0
176
     1
 40
1.0
176
     1
 40
1.0
176
     1
  0
VISUALSTYLE
  5
36
102
{ACAD_REACTORS
330
29
102
}
330
29
100
AcDbVisualStyle
  2
Thicken
 70
    13
177
     3
291
     1
 70
    58
 90
        2
176
     1
 90
        2
176
     1
 90
        0
176
     1
 90
        0
176
     1
 40
0.6
176
     1
 40
30.0
176
     1
 62
     7
420
 16777215
176
     1
 90
        1
176
     1
 90
        4
176
     1
 62
     7
176
     1
 62
   257
176
     1
 90
        1
176
     1
 90
        1
176
     1
 40
1.0
176
     1
 90
       12
176
     1
 62
     7
176
     1
 40
1.0
176
     1
 90
        1
176
     1
 90
        6
176
     1
 90
        2
176
     1
 62
     7
176
     1
 90
        5
176
     1
 90
        0
176
     1
 90
        0
176
     1
290
     0
176
     1
 90
        1
176
     1
 40
0.0
176
     1
 90
        0
176
     1
290
     0
176
     1
290
     1
176
     1
290
     1
176
     1
290
     0
176
     1
290
     0
176
     1
290
     0
176
     1
290
     0
176
     1
290
     0
176
     1
290
     0
176
     1
 90
       50
176
     1
 40
0.0
176
     1
 40
1.0
176
     1
 90
        0
176
     1
 62
    18
420
        0
176
     1
 90
       50
176
     1
 90
        3
176
     1
 62
     5
420
      255
176
     1
290
     0
176
     1
 90
       50
176
     1
 90
       50
176
     1
 90
       50
176
     1
290
     0
176
     1
 90
       50
176
     1
 62
   256
176
     0
 40
1.0
176
     0
 90
        2
176
     1
  1
strokes_ogs.tif
176
     1
290
     0
176
     1
 40
1.0
176
     1
 40
1.0
176
     1
  0
VISUALSTYLE
  5
30
102
{ACAD_REACTORS
330
29
102
}
330
29
100
AcDbVisualStyle
  2
Wireframe
 70
     5
177
     3
291
     0
 70
    58
 90
        0
176
     1
 90
        2
176
     1
 90
        0
176
     1
 90
        0
176
     1
 40
0.6
176
     1
 40
30.0
176
     1
 62
     7
420
 16777215
176
     1
 90
        1
176
     1
 90
        4
176
     1
 62
     7
176
     1
 62
   257
176
     1
 90
        1
176
     1
 90
        1
176
     1
 40
1.0
176
     1
 90
        0
176
     1
 62
   257
176
     1
 40
1.0
176
     1
 90
        1
176
     1
 90
        6
176
     1
 90
        2
176
     1
 62
     7
176
     1
 90
        3
176
     1
 90
        0
176
     1
 90
        0
176
     1
290
     0
176
     1
 90
        1
176
     1
 40
0.0
176
     1
 90
        0
176
     1
290
     0
176
     1
290
     1
176
     1
290
     1
176
     1
290
     0
176
     1
290
     0
176
     1
290
     0
176
     1
290
     0
176
     1
290
     0
176
     1
290
     0
176
     1
 90
       50
176
     1
 40
0.0
176
     1
 40
1.0
176
     1
 90
        0
176
     1
 62
    18
420
        0
176
     1
 90
       50
176
     1
 90
        3
176
     1
 62
     5
420
      255
176
     1
290
     0
176
     1
 90
       50
176
     1
 90
       50
176
     1
 90
       50
176
     1
290
     0
176
     1
 90
       50
176
     1
 62
   256
176
     0
 40
1.0
176
     0
 90
        2
176
     1
  1
strokes_ogs.tif
176
     1
290
     0
176
     1
 40
1.0
176
     1
 40
1.0
176
     1
  0
VISUALSTYLE
  5
3C
102
{ACAD_REACTORS
330
29
102
}
330
29
100
AcDbVisualStyle
  2
X-Ray
 70
    25
177
     3
291
     0
 70
    58
 90
        2
176
     1
 90
        2
176
     1
 90
        1
176
     1
 90
        1
176
     1
 40
0.5
176
     1
 40
30.0
176
     1
 62
     7
420
 16777215
176
     1
 90
        1
176
     1
 90
        0
176
     1
 62
     7
176
     1
 62
   257
176
     1
 90
        1
176
     1
 90
        1
176
     1
 40
1.0
176
     1
 90
        8
176
     1
 62
     7
176
     1
 40
1.0
176
     1
 90
        1
176
     1
 90
        6
176
     1
 90
        2
176
     1
 62
     7
176
     1
 90
        3
176
     1
 90
        0
176
     1
 90
        0
176
     1
290
     0
176
     1
 90
       13
176
     1
 40
0.0
176
     1
 90
        0
176
     1
290
     0
176
     1
290
     1
176
     1
290
     1
176
     1
290
     0
176
     1
290
     0
176
     1
290
     0
176
     1
290
     0
176
     1
290
     0
176
     1
290
     0
176
     1
 90
       50
176
     1
 40
0.0
176
     1
 40
1.0
176
     1
 90
        0
176
     1
 62
    18
420
        0
176
     1
 90
       50
176
     1
 90
        3
176
     1
 62
     5
420
      255
176
     1
290
     0
176
     1
 90
       50
176
     1
 90
       50
176
     1
 90
       50
176
     1
290
     0
176
     1
 90
       50
176
     1
 62
   256
176
     0
 40
1.0
176
     0
 90
        2
176
     1
  1
strokes_ogs.tif
176
     1
290
     0
176
     1
 40
1.0
176
     1
 40
1.0
176
     1
  0
DICTIONARYVAR
  5
2EC
102
{ACAD_REACTORS
330
2E6
102
}
330
2E6
100
DictionaryVariables
280
     0
  1
1:1
  0
DICTIONARYVAR
  5
2E8
102
{ACAD_REACTORS
330
2E6
102
}
330
2E6
100
DictionaryVariables
280
     0
  1
STANDARD
  0
DICTIONARYVAR
  5
2E7
102
{ACAD_REACTORS
330
2E6
102
}
330
2E6
100
DictionaryVariables
280
     0
  1
STANDARD
  0
DICTIONARYVAR
  5
2E9
102
{ACAD_REACTORS
330
2E6
102
}
330
2E6
100
DictionaryVariables
280
     0
  1
Imperial24
  0
DICTIONARYVAR
  5
2EA
102
{ACAD_REACTORS
330
2E6
102
}
330
2E6
100
DictionaryVariables
280
     0
  1
Imperial24
  0
DICTIONARYVAR
  5
2EE
102
{ACAD_REACTORS
330
2E6
102
}
330
2E6
100
DictionaryVariables
280
     0
  1
1
  0
DICTIONARYVAR
  5
2EF
102
{ACAD_REACTORS
330
2E6
102
}
330
2E6
100
DictionaryVariables
280
     0
  1
15
  0
DICTIONARYVAR
  5
2ED
102
{ACAD_REACTORS
330
2E6
102
}
330
2E6
100
DictionaryVariables
280
     0
  1
0
  0
DICTIONARYVAR
  5
2EB
102
{ACAD_REACTORS
330
2E6
102
}
330
2E6
100
DictionaryVariables
280
     0
  1
0
  0
DICTIONARY
  5
1A
330
19
100
AcDbDictionary
280
     1
281
     1
  3
BUMPTILE
360
1C
  3
DIFFUSETILE
360
1B
  3
OPACITYTILE
360
1F
  3
REFLECTIONTILE
360
1E
  3
REFRACTIONTILE
360
20
  3
SPECULARTILE
360
1D
  0
DICTIONARY
  5
12
330
11
100
AcDbDictionary
280
     1
281
     1
  3
BUMPTILE
360
14
  3
DIFFUSETILE
360
13
  3
OPACITYTILE
360
17
  3
REFLECTIONTILE
360
16
  3
REFRACTIONTILE
360
18
  3
SPECULARTILE
360
15
  0
DICTIONARY
  5
22
330
21
100
AcDbDictionary
280
     1
281
     1
  3
BUMPTILE
360
24
  3
DIFFUSETILE
360
23
  3
OPACITYTILE
360
27
  3
REFLECTIONTILE
360
26
  3
REFRACTIONTILE
360
28
  3
SPECULARTILE
360
25
  0
DICTIONARY
  5
2F0
330
64
100
AcDbDictionary
280
     1
281
     1
  3
ACAD_ROUNDTRIP_2008_TABLESTYLE_CELLSTYLEMAP
360
2F1
  0
XRECORD
  5
1C
102
{ACAD_REACTORS
330
1A
102
}
330
1A
100
AcDbXrecord
280
     1
270
     1
271
     1
  0
XRECORD
  5
1B
102
{ACAD_REACTORS
330
1A
102
}
330
1A
100
AcDbXrecord
280
     1
270
     1
271
     1
  0
XRECORD
  5
1F
102
{ACAD_REACTORS
330
1A
102
}
330
1A
100
AcDbXrecord
280
     1
270
     1
271
     1
  0
XRECORD
  5
1E
102
{ACAD_REACTORS
330
1A
102
}
330
1A
100
AcDbXrecord
280
     1
270
     1
271
     1
  0
XRECORD
  5
20
102
{ACAD_REACTORS
330
1A
102
}
330
1A
100
AcDbXrecord
280
     1
270
     1
271
     1
  0
XRECORD
  5
1D
102
{ACAD_REACTORS
330
1A
102
}
330
1A
100
AcDbXrecord
280
     1
270
     1
271
     1
  0
XRECORD
  5
14
102
{ACAD_REACTORS
330
12
102
}
330
12
100
AcDbXrecord
280
     1
270
     1
271
     1
  0
XRECORD
  5
13
102
{ACAD_REACTORS
330
12
102
}
330
12
100
AcDbXrecord
280
     1
270
     1
271
     1
  0
XRECORD
  5
17
102
{ACAD_REACTORS
330
12
102
}
330
12
100
AcDbXrecord
280
     1
270
     1
271
     1
  0
XRECORD
  5
16
102
{ACAD_REACTORS
330
12
102
}
330
12
100
AcDbXrecord
280
     1
270
     1
271
     1
  0
XRECORD
  5
18
102
{ACAD_REACTORS
330
12
102
}
330
12
100
AcDbXrecord
280
     1
270
     1
271
     1
  0
XRECORD
  5
15
102
{ACAD_REACTORS
330
12
102
}
330
12
100
AcDbXrecord
280
     1
270
     1
271
     1
  0
XRECORD
  5
24
102
{ACAD_REACTORS
330
22
102
}
330
22
100
AcDbXrecord
280
     1
270
     1
271
     1
  0
XRECORD
  5
23
102
{ACAD_REACTORS
330
22
102
}
330
22
100
AcDbXrecord
280
     1
270
     1
271
     1
  0
XRECORD
  5
27
102
{ACAD_REACTORS
330
22
102
}
330
22
100
AcDbXrecord
280
     1
270
     1
271
     1
  0
XRECORD
  5
26
102
{ACAD_REACTORS
330
22
102
}
330
22
100
AcDbXrecord
280
     1
270
     1
271
     1
  0
XRECORD
  5
28
102
{ACAD_REACTORS
330
22
102
}
330
22
100
AcDbXrecord
280
     1
270
     1
271
     1
  0
XRECORD
  5
25
102
{ACAD_REACTORS
330
22
102
}
330
22
100
AcDbXrecord
280
     1
270
     1
271
     1
  0
CELLSTYLEMAP
  5
2F1
102
{ACAD_REACTORS
330
2F0
102
}
330
2F0
100
AcDbCellStyleMap
 90
        3
300
CELLSTYLE
  1
TABLEFORMAT_BEGIN
 90
        5
170
     1
 91
        0
 92
    32768
 62
   257
 93
        1
300
CONTENTFORMAT
  1
CONTENTFORMAT_BEGIN
 90
        0
 91
        0
 92
      512
 93
        0
300

 40
0.0
140
1.0
 94
        5
 62
     0
340
55
144
0.25
309
CONTENTFORMAT_END
171
     0
 94
        0
309
TABLEFORMAT_END
  1
CELLSTYLE_BEGIN
 90
        1
 91
        1
300
_TITLE
309
CELLSTYLE_END
300
CELLSTYLE
  1
TABLEFORMAT_BEGIN
 90
        5
170
     1
 91
        0
 92
        0
 62
   257
 93
        1
300
CONTENTFORMAT
  1
CONTENTFORMAT_BEGIN
 90
        0
 91
        0
 92
      512
 93
        0
300

 40
0.0
140
1.0
 94
        5
 62
     0
340
55
144
0.18
309
CONTENTFORMAT_END
171
     0
 94
        0
309
TABLEFORMAT_END
  1
CELLSTYLE_BEGIN
 90
        2
 91
        1
300
_HEADER
309
CELLSTYLE_END
300
CELLSTYLE
  1
TABLEFORMAT_BEGIN
 90
        5
170
     1
 91
        0
 92
        0
 62
   257
 93
        1
300
CONTENTFORMAT
  1
CONTENTFORMAT_BEGIN
 90
        0
 91
        0
 92
      512
 93
        0
300

 40
0.0
140
1.0
 94
        2
 62
     0
340
55
144
0.18
309
CONTENTFORMAT_END
171
     0
 94
        0
309
TABLEFORMAT_END
  1
CELLSTYLE_BEGIN
 90
        3
 91
        2
300
_DATA
309
CELLSTYLE_END
  0
ENDSEC
  0
SECTION
  2
ACDSDATA
 70
     2
 71
     3
  0
ACDSSCHEMA
 90
        0
  1
AcDb_Thumbnail_Schema
  2
AcDbDs::ID
280
    10
 91
        8
  2
Thumbnail_Data
280
    15
 91
        0
101
ACDSRECORD
 95
        0
 90
        1
  2
AcDbDs::TreatedAsObjectData
280
     1
291
     1
101
ACDSRECORD
 95
        0
 90
        2
  2
AcDbDs::Legacy
280
     1
291
     1
101
ACDSRECORD
  1
AcDbDs::ID
 90
        3
  2
AcDs:Indexable
280
     1
291
     1
101
ACDSRECORD
  1
AcDbDs::ID
 90
        4
  2
AcDbDs::HandleAttribute
280
     7
282
     1
  0
ACDSSCHEMA
 90
        1
  1
AcDbDs::TreatedAsObjectDataSchema
  2
AcDbDs::TreatedAsObjectData
280
     1
 91
        0
  0
ACDSSCHEMA
 90
        2
  1
AcDbDs::LegacySchema
  2
AcDbDs::Legacy
280
     1
 91
        0
  0
ACDSSCHEMA
 90
        3
  1
AcDbDs::IndexedPropertySchema
  2
AcDs:Indexable
280
     1
 91
        0
  0
ACDSSCHEMA
 90
        4
  1
AcDbDs::HandleAttributeSchema
  2
AcDbDs::HandleAttribute
280
     7
 91
        1
284
     1
  0
ACDSRECORD
 90
        0
  2
AcDbDs::ID
280
    10
320
73
  2
Thumbnail_Data
280
    15
 94
     2102
310
89504E470D0A1A0A0000000D4948445200000100000000C608030000000A6AAE4900000300504C54452128300000000000000000000000000000000000000000000000000000000000000000330000660000990000CC0000FF0033000033330033660033990033CC0033FF0066000066330066660066990066CC0066FF0099
310
000099330099660099990099CC0099FF00CC0000CC3300CC6600CC9900CCCC00CCFF00FF0000FF3300FF6600FF9900FFCC00FFFF3300003300333300663300993300CC3300FF3333003333333333663333993333CC3333FF3366003366333366663366993366CC3366FF3399003399333399663399993399CC3399FF33CC00
310
33CC3333CC6633CC9933CCCC33CCFF33FF0033FF3333FF6633FF9933FFCC33FFFF6600006600336600666600996600CC6600FF6633006633336633666633996633CC6633FF6666006666336666666666996666CC6666FF6699006699336699666699996699CC6699FF66CC0066CC3366CC6666CC9966CCCC66CCFF66FF0066
310
FF3366FF6666FF9966FFCC66FFFF9900009900339900669900999900CC9900FF9933009933339933669933999933CC9933FF9966009966339966669966999966CC9966FF9999009999339999669999999999CC9999FF99CC0099CC3399CC6699CC9999CCCC99CCFF99FF0099FF3399FF6699FF9999FFCC99FFFFCC0000CC00
310
33CC0066CC0099CC00CCCC00FFCC3300CC3333CC3366CC3399CC33CCCC33FFCC6600CC6633CC6666CC6699CC66CCCC66FFCC9900CC9933CC9966CC9999CC99CCCC99FFCCCC00CCCC33CCCC66CCCC99CCCCCCCCCCFFCCFF00CCFF33CCFF66CCFF99CCFFCCCCFFFFFF0000FF0033FF0066FF0099FF00CCFF00FFFF3300FF3333
310
FF3366FF3399FF33CCFF33FFFF6600FF6633FF6666FF6699FF66CCFF66FFFF9900FF9933FF9966FF9999FF99CCFF99FFFFCC00FFCC33FFCC66FFCC99FFCCCCFFCCFFFFFF00FFFF33FFFF66FFFF99FFFFCCFFFFFF0000000D0D0D1A1A1A2828283535354343435050505D5D5D6B6B6B787878868686939393A1A1A1AEAEAEBB
310
BBBBC9C9C9D6D6D6E4E4E4F1F1F1FFFFFF000000000000000000000000000000000000000000000000000000000000544354A8000004F149444154789CED5ADBB2E42008CCFFFF2FEF5B75DC4CBC4654E412E93AB5E39A88DA3688CE5CD70E40B702D106D3482BA0C04C1BC304381C8EB3717C10F46DB05B8168E304380124
310
6311811370FA2EE07038CEC6F141D0B7C16E05A28D13E004908C4504C7074187C3E1381AC7EF029E07742B106D9C002780642C22383E089A46B602E72D08A425A83CD08F62D58A756CAFEA3708C80BC534DAB37102D2D21401E2BB803801DD0A449B15C9390179C109C81FBD1040900798268002A683E027B09208391C8E65
310
88074169886F834B4817606A3DC40958DA05D2ADB3D85151FD772B106DC412212720F97402668623BE0B4813200E27202F3801F9A3AF13209D074807C1257C2113948613D0AD40B471029C0092B174FBDD11710DEE0286E5460327407A00D27002A407200D2780AD2382A3C69671B177A4ECB4ED04B077E404D4FE2B072780
310
BDA3AD048CDF097E8D80BCD0BD15760248FB7F014F22B4898062A42A72B81A0608185900484D552AB460E99BA18E5927E0AD420B7611C0190396CC0EE4015A8EA339805B5998EE181500C821D1F6887A872506645912073412C0C2C0480C6073013567442140B5386461CF2EC0A40068FE67DC043E0FD01403081490176C11
310
B01E03260E43AA08B8EEC3F274FBBC602F158E32A1890E3611C00A78863A3ED84D2EC08B68A4C383DB140425F03F180C0EEF3B044CEE071F380E07AC6704B6419013F6FB7005F0D89F04DFB9502901CB3921BEA3ED3DCC62F3ED98EE18F007F6FB5175D83A7F030AE08113203D0029B80B34109D1EF671D3B2AC61393892D0
310
D6FE061A3C92250BAF33A062FE0C04840CAF547B983F9B17B4FC7C3B0170E7B890D73F7F8CE027A0C100DC4F98BD809B809FFEB3A34E3C7FD6BD80998068F5130692F9B3AAA024606F1E90300069BD8817B0F695E93F8B01325EC02BB6BAFE9F91087801B3DAEAFABF1F4B78015F473F6D57F47F8F45C00B18950691CCEBFD
310
4A7801A7D422061ADD0A7801512F1D3308FDDF76B8BD80A68BCEFD2D4AFFCF7858BD80A487CEA490FABF5FE5F5028A2EE0DD125AFFB735562F20B00FD967F918ABFFC70E9F17AC9B874A297F01ABFFBB01A3172CDB8746F9AE825203089B0C5E4074E2EBCD3FFDC3F22D742E9842C7035206D033113B1D4FE02D0642A901B4
310
D54C058AD1DE056176FA57EE054A1980E7A3B1FE53FABF5BC789834A063A3F6A859C8129F3C8F4890EF83BC168615AF34F18181FCA15CF9F8B01A8162BEFF512E02BD1C0D4F045BC004900745EFA8D7C298C43CE23037004F4DE5AD7FF637C5547135D96C5F64BAD049068DC544C8EF4582B8EBD45A3FFD4161B0504318076
310
D5322EB73380DE05C2BF5BF57FDB63F502741ED0DE99A823377714C0A2BDB8D47B77E2058AF0BE4B50666F40CA2707A8F3776BF37F8B103AECED07F586A5F64EA009EAF15A9BBFC3E170381C8E83717A22747A2A7CFA61E8F4E3F0E917229BAEC4C8ECEDC6AE4B517D97827518BF1627C0962F462E2A3E3940F97516E5D76C
310
7CA0FB3ACB9EFE030C7F3D4E041A2F90F881041528BCC0C00FC55E60F547527430FA333942AC79816DFD07AC788175FD07CC7B817DFD07CC7AC117F41F907A01762ADFD07F40367FD464BEA2FF80C70BB0CBF91DFD07FCE6839CD097F41F30E60543FA3742CF88170CE9DF8C40F05E30A47F432122C9885E2636A17F330C60
310
32A2B1F80FC987766032A298A5BE7B4351D00DB8E5FF7C642FC4716260FE76188068F9CBA3D1336BB86AFCE4D6AA453CFE01EC88450326ACE8860000000049454E44AE426082
  0
ENDSEC
  0
EOF
