  0
SECTION
  2
HEADER
  9
$ACADVER
  1
AC1009
  9
$FILLMODE
 70
0
  9
$EXTMIN
 10
-0.8683
 20
-0.2032
 30
0.0000
  9
$EXTMAX
 10
41.0960
 20
66.2032
 30
0.0000
  0
ENDSEC
  0
SECTION
  2
TABLES
  0
TABLE
  2
LTYPE
 70
1
  0
LTYPE
  2
CONTINUOUS
 70
64
  3
Solid line
 72
65
 73
0
 40
0
  0
ENDTAB
  0
TABLE
  2
LAYER
 70
255
  0
LAYER
  2
20
 70
64
 62
7
  6
CONTINUOUS
  0
LAYER
  2
31
 70
64
 62
253
  6
CONTINUOUS
  0
ENDTAB
  0
ENDSEC
  0
SECTION
  2
BLOCKS
  0
BLOCK
  8
0
  2
RECT
 70
64
 10
0.0000
 20
0.0000
 30
0.0000
  3
RECT
  0
SOLID
  8
0
 10
-0.5000
 20
-0.5000
 30
0.0000
 11
0.5000
 21
-0.5000
 31
0.0000
 12
-0.5000
 22
0.5000
 32
0.0000
 13
0.5000
 23
0.5000
 33
0.0000
  0
ENDBLK
  8
0
  0
BLOCK
  8
0
  2
PIE
 70
64
 10
0.0000
 20
0.0000
 30
0.0000
  3
PIE
  0
CIRCLE
  8
0
 10
0.0000
 20
0.0000
 30
0.0000
 40
0.5000
  0
ENDBLK
  8
0
  0
BLOCK
  8
0
  2
OCTAGONP
 70
64
 10
0.0000
 20
0.0000
 30
0.0000
  3
OCTAGONP
  0
POLYLINE
  8
0
 66
1
 10
0.0000
 20
0.0000
 30
0.0000
 40
0.0000
 41
0.0000
 70
1
  0
VERTEX
  8
0
 10
-0.5000
 20
-0.2071
 30
0.0000
  0
VERTEX
  8
0
 10
-0.5000
 20
0.2071
 30
0.0000
  0
VERTEX
  8
0
 10
-0.2071
 20
0.5000
 30
0.0000
  0
VERTEX
  8
0
 10
0.2071
 20
0.5000
 30
0.0000
  0
VERTEX
  8
0
 10
0.5000
 20
0.2071
 30
0.0000
  0
VERTEX
  8
0
 10
0.5000
 20
-0.2071
 30
0.0000
  0
VERTEX
  8
0
 10
0.2071
 20
-0.5000
 30
0.0000
  0
VERTEX
  8
0
 10
-0.2071
 20
-0.5000
 30
0.0000
  0
SEQEND
  8
0
  0
ENDBLK
  8
0
  0
BLOCK
  8
0
  2
SQUAREP
 70
64
 10
0.0000
 20
0.0000
 30
0.0000
  3
SQUAREP
  0
SOLID
  8
0
 10
-0.5000
 20
-0.5000
 30
0.0000
 11
0.5000
 21
-0.5000
 31
0.0000
 12
-0.5000
 22
0.5000
 32
0.0000
 13
0.5000
 23
0.5000
 33
0.0000
  0
ENDBLK
  8
0
  0
BLOCK
  8
0
  2
ROUNDP
 70
64
 10
0.0000
 20
0.0000
 30
0.0000
  3
ROUNDP
  0
CIRCLE
  8
0
 10
0.0000
 20
0.0000
 30
0.0000
 40
0.5000
  0
ENDBLK
  8
0
  0
BLOCK
  8
0
  2
ANNULUSP
 70
64
 10
0.0000
 20
0.0000
 30
0.0000
  3
ANNULUSP
  0
CIRCLE
  8
0
 10
0.0000
 20
0.0000
 30
0.0000
 40
0.5000
  0
ENDBLK
  8
0
  0
BLOCK
  8
0
  2
THERMALP
 70
64
 10
0.0000
 20
0.0000
 30
0.0000
  3
THERMALP
  0
POLYLINE
  8
0
 66
1
 10
0.0000
 20
0.0000
 30
0.0000
 40
0.0000
 41
0.0000
 70
1
  0
VERTEX
  8
0
 10
-0.2379
 20
0.4000
 30
0.0000
  0
VERTEX
  8
0
 10
0.2379
 20
0.4000
 30
0.0000
 42
1.0000
  0
VERTEX
  8
0
 10
0.2379
 20
0.5000
 30
0.0000
  0
VERTEX
  8
0
 10
-0.2379
 20
0.5000
 30
0.0000
 42
1.0000
  0
SEQEND
  8
0
  0
POLYLINE
  8
0
 66
1
 10
0.0000
 20
0.0000
 30
0.0000
 40
0.0000
 41
0.0000
 70
1
  0
VERTEX
  8
0
 10
0.4000
 20
0.2379
 30
0.0000
  0
VERTEX
  8
0
 10
0.4000
 20
-0.2379
 30
0.0000
 42
1.0000
  0
VERTEX
  8
0
 10
0.5000
 20
-0.2379
 30
0.0000
  0
VERTEX
  8
0
 10
0.5000
 20
0.2379
 30
0.0000
 42
1.0000
  0
SEQEND
  8
0
  0
POLYLINE
  8
0
 66
1
 10
0.0000
 20
0.0000
 30
0.0000
 40
0.0000
 41
0.0000
 70
1
  0
VERTEX
  8
0
 10
0.2379
 20
-0.4000
 30
0.0000
  0
VERTEX
  8
0
 10
-0.2379
 20
-0.4000
 30
0.0000
 42
1.0000
  0
VERTEX
  8
0
 10
-0.2379
 20
-0.5000
 30
0.0000
  0
VERTEX
  8
0
 10
0.2379
 20
-0.5000
 30
0.0000
 42
1.0000
  0
SEQEND
  8
0
  0
POLYLINE
  8
0
 66
1
 10
0.0000
 20
0.0000
 30
0.0000
 40
0.0000
 41
0.0000
 70
1
  0
VERTEX
  8
0
 10
-0.4000
 20
-0.2379
 30
0.0000
  0
VERTEX
  8
0
 10
-0.4000
 20
0.2379
 30
0.0000
 42
1.0000
  0
VERTEX
  8
0
 10
-0.5000
 20
0.2379
 30
0.0000
  0
VERTEX
  8
0
 10
-0.5000
 20
-0.2379
 30
0.0000
 42
1.0000
  0
SEQEND
  8
0
  0
ENDBLK
  8
0
  0
BLOCK
  8
0
  2
OCTAGONV
 70
64
 10
0.0000
 20
0.0000
 30
0.0000
  3
OCTAGONV
  0
POLYLINE
  8
0
 66
1
 10
0.0000
 20
0.0000
 30
0.0000
 40
0.0000
 41
0.0000
 70
1
  0
VERTEX
  8
0
 10
-0.5000
 20
-0.2071
 30
0.0000
  0
VERTEX
  8
0
 10
-0.5000
 20
0.2071
 30
0.0000
  0
VERTEX
  8
0
 10
-0.2071
 20
0.5000
 30
0.0000
  0
VERTEX
  8
0
 10
0.2071
 20
0.5000
 30
0.0000
  0
VERTEX
  8
0
 10
0.5000
 20
0.2071
 30
0.0000
  0
VERTEX
  8
0
 10
0.5000
 20
-0.2071
 30
0.0000
  0
VERTEX
  8
0
 10
0.2071
 20
-0.5000
 30
0.0000
  0
VERTEX
  8
0
 10
-0.2071
 20
-0.5000
 30
0.0000
  0
SEQEND
  8
0
  0
ENDBLK
  8
0
  0
BLOCK
  8
0
  2
SQUAREV
 70
64
 10
0.0000
 20
0.0000
 30
0.0000
  3
SQUAREV
  0
SOLID
  8
0
 10
-0.5000
 20
-0.5000
 30
0.0000
 11
0.5000
 21
-0.5000
 31
0.0000
 12
-0.5000
 22
0.5000
 32
0.0000
 13
0.5000
 23
0.5000
 33
0.0000
  0
ENDBLK
  8
0
  0
BLOCK
  8
0
  2
ROUNDV
 70
64
 10
0.0000
 20
0.0000
 30
0.0000
  3
ROUNDV
  0
CIRCLE
  8
0
 10
0.0000
 20
0.0000
 30
0.0000
 40
0.5000
  0
ENDBLK
  8
0
  0
BLOCK
  8
0
  2
ANNULUSV
 70
64
 10
0.0000
 20
0.0000
 30
0.0000
  3
ANNULUSV
  0
CIRCLE
  8
0
 10
0.0000
 20
0.0000
 30
0.0000
 40
0.5000
  0
ENDBLK
  8
0
  0
BLOCK
  8
0
  2
THERMALV
 70
64
 10
0.0000
 20
0.0000
 30
0.0000
  3
THERMALV
  0
POLYLINE
  8
0
 66
1
 10
0.0000
 20
0.0000
 30
0.0000
 40
0.0000
 41
0.0000
 70
1
  0
VERTEX
  8
0
 10
-0.2379
 20
0.4000
 30
0.0000
  0
VERTEX
  8
0
 10
0.2379
 20
0.4000
 30
0.0000
 42
1.0000
  0
VERTEX
  8
0
 10
0.2379
 20
0.5000
 30
0.0000
  0
VERTEX
  8
0
 10
-0.2379
 20
0.5000
 30
0.0000
 42
1.0000
  0
SEQEND
  8
0
  0
POLYLINE
  8
0
 66
1
 10
0.0000
 20
0.0000
 30
0.0000
 40
0.0000
 41
0.0000
 70
1
  0
VERTEX
  8
0
 10
0.4000
 20
0.2379
 30
0.0000
  0
VERTEX
  8
0
 10
0.4000
 20
-0.2379
 30
0.0000
 42
1.0000
  0
VERTEX
  8
0
 10
0.5000
 20
-0.2379
 30
0.0000
  0
VERTEX
  8
0
 10
0.5000
 20
0.2379
 30
0.0000
 42
1.0000
  0
SEQEND
  8
0
  0
POLYLINE
  8
0
 66
1
 10
0.0000
 20
0.0000
 30
0.0000
 40
0.0000
 41
0.0000
 70
1
  0
VERTEX
  8
0
 10
0.2379
 20
-0.4000
 30
0.0000
  0
VERTEX
  8
0
 10
-0.2379
 20
-0.4000
 30
0.0000
 42
1.0000
  0
VERTEX
  8
0
 10
-0.2379
 20
-0.5000
 30
0.0000
  0
VERTEX
  8
0
 10
0.2379
 20
-0.5000
 30
0.0000
 42
1.0000
  0
SEQEND
  8
0
  0
POLYLINE
  8
0
 66
1
 10
0.0000
 20
0.0000
 30
0.0000
 40
0.0000
 41
0.0000
 70
1
  0
VERTEX
  8
0
 10
-0.4000
 20
-0.2379
 30
0.0000
  0
VERTEX
  8
0
 10
-0.4000
 20
0.2379
 30
0.0000
 42
1.0000
  0
VERTEX
  8
0
 10
-0.5000
 20
0.2379
 30
0.0000
  0
VERTEX
  8
0
 10
-0.5000
 20
-0.2379
 30
0.0000
 42
1.0000
  0
SEQEND
  8
0
  0
ENDBLK
  8
0
  0
BLOCK
  8
0
  2
LONGP100
 70
64
 10
0.0000
 20
0.0000
 30
0.0000
  3
LONGP100
  0
POLYLINE
  8
0
 66
1
 10
0.0000
 20
0.0000
 30
0.0000
 40
0.0000
 41
0.0000
 70
1
  0
VERTEX
  8
0
 10
-0.5000
 20
-0.5000
 30
0.0000
  0
VERTEX
  8
0
 10
0.5000
 20
-0.5000
 30
0.0000
 42
1.0000
  0
VERTEX
  8
0
 10
0.5000
 20
0.5000
 30
0.0000
  0
VERTEX
  8
0
 10
-0.5000
 20
0.5000
 30
0.0000
 42
1.0000
  0
SEQEND
  8
0
  0
ENDBLK
  8
0
  0
ENDSEC
  0
SECTION
  2
ENTITIES
  0
LINE
  8
20
 10
0.0000
 20
0.0000
 30
0.0000
 11
38.0050
 21
0.0000
 31
0.0000
  0
LINE
  8
20
 10
38.0050
 20
0.0000
 30
0.0000
 11
38.0000
 21
66.0000
 31
0.0000
  0
LINE
  8
20
 10
38.0000
 20
66.0000
 30
0.0000
 11
0.0000
 21
66.0000
 31
0.0000
  0
LINE
  8
20
 10
0.0000
 20
66.0000
 30
0.0000
 11
0.0000
 21
0.0000
 31
0.0000
  0
CIRCLE
  8
20
 10
35.0000
 20
10.0000
 30
0.0000
 40
1.5494
  0
CIRCLE
  8
20
 10
35.0000
 20
30.0000
 30
0.0000
 40
1.5494
  0
INSERT
  8
31
  2
RECT
 10
12.0000
 20
16.1500
 30
0.0000
 41
1.1000
 42
1.0000
 43
1.0000
 50
90.0000
  0
INSERT
  8
31
  2
RECT
 10
12.0000
 20
17.8500
 30
0.0000
 41
1.1000
 42
1.0000
 43
1.0000
 50
90.0000
  0
INSERT
  8
31
  2
RECT
 10
12.0000
 20
13.8500
 30
0.0000
 41
1.1000
 42
1.0000
 43
1.0000
 50
270.0000
  0
INSERT
  8
31
  2
RECT
 10
12.0000
 20
12.1500
 30
0.0000
 41
1.1000
 42
1.0000
 43
1.0000
 50
270.0000
  0
INSERT
  8
31
  2
RECT
 10
14.0000
 20
13.8500
 30
0.0000
 41
1.1000
 42
1.0000
 43
1.0000
 50
270.0000
  0
INSERT
  8
31
  2
RECT
 10
14.0000
 20
12.1500
 30
0.0000
 41
1.1000
 42
1.0000
 43
1.0000
 50
270.0000
  0
INSERT
  8
31
  2
RECT
 10
29.0000
 20
55.8500
 30
0.0000
 41
1.1000
 42
1.0000
 43
1.0000
 50
270.0000
  0
INSERT
  8
31
  2
RECT
 10
29.0000
 20
54.1500
 30
0.0000
 41
1.1000
 42
1.0000
 43
1.0000
 50
270.0000
  0
INSERT
  8
31
  2
RECT
 10
23.0000
 20
55.8500
 30
0.0000
 41
1.1000
 42
1.0000
 43
1.0000
 50
270.0000
  0
INSERT
  8
31
  2
RECT
 10
23.0000
 20
54.1500
 30
0.0000
 41
1.1000
 42
1.0000
 43
1.0000
 50
270.0000
  0
INSERT
  8
31
  2
RECT
 10
35.0000
 20
51.8500
 30
0.0000
 41
1.1000
 42
1.0000
 43
1.0000
 50
270.0000
  0
INSERT
  8
31
  2
RECT
 10
35.0000
 20
50.1500
 30
0.0000
 41
1.1000
 42
1.0000
 43
1.0000
 50
270.0000
  0
INSERT
  8
31
  2
RECT
 10
17.0000
 20
55.8500
 30
0.0000
 41
1.1000
 42
1.0000
 43
1.0000
 50
270.0000
  0
INSERT
  8
31
  2
RECT
 10
17.0000
 20
54.1500
 30
0.0000
 41
1.1000
 42
1.0000
 43
1.0000
 50
270.0000
  0
INSERT
  8
31
  2
RECT
 10
20.0000
 20
12.1500
 30
0.0000
 41
1.1000
 42
1.0000
 43
1.0000
 50
90.0000
  0
INSERT
  8
31
  2
RECT
 10
20.0000
 20
13.8500
 30
0.0000
 41
1.1000
 42
1.0000
 43
1.0000
 50
90.0000
  0
INSERT
  8
31
  2
RECT
 10
27.0000
 20
20.1500
 30
0.0000
 41
1.1000
 42
1.0000
 43
1.0000
 50
90.0000
  0
INSERT
  8
31
  2
RECT
 10
27.0000
 20
21.8500
 30
0.0000
 41
1.1000
 42
1.0000
 43
1.0000
 50
90.0000
  0
INSERT
  8
31
  2
RECT
 10
17.6010
 20
21.3990
 30
0.0000
 41
1.1000
 42
1.0000
 43
1.0000
 50
135.0000
  0
INSERT
  8
31
  2
RECT
 10
16.3990
 20
22.6010
 30
0.0000
 41
1.1000
 42
1.0000
 43
1.0000
 50
135.0000
  0
INSERT
  8
31
  2
RECT
 10
11.3990
 20
32.3990
 30
0.0000
 41
1.1000
 42
1.0000
 43
1.0000
 50
45.0000
  0
INSERT
  8
31
  2
RECT
 10
12.6010
 20
33.6010
 30
0.0000
 41
1.1000
 42
1.0000
 43
1.0000
 50
45.0000
  0
INSERT
  8
31
  2
RECT
 10
26.6010
 20
26.6010
 30
0.0000
 41
1.1000
 42
1.0000
 43
1.0000
 50
225.0000
  0
INSERT
  8
31
  2
RECT
 10
25.3990
 20
25.3990
 30
0.0000
 41
1.1000
 42
1.0000
 43
1.0000
 50
225.0000
  0
INSERT
  8
31
  2
RECT
 10
21.3990
 20
38.6010
 30
0.0000
 41
1.1000
 42
1.0000
 43
1.0000
 50
315.0000
  0
INSERT
  8
31
  2
RECT
 10
22.6010
 20
37.3990
 30
0.0000
 41
1.1000
 42
1.0000
 43
1.0000
 50
315.0000
  0
INSERT
  8
31
  2
RECT
 10
12.0000
 20
9.8500
 30
0.0000
 41
1.1000
 42
1.0000
 43
1.0000
 50
270.0000
  0
INSERT
  8
31
  2
RECT
 10
12.0000
 20
8.1500
 30
0.0000
 41
1.1000
 42
1.0000
 43
1.0000
 50
270.0000
  0
INSERT
  8
31
  2
RECT
 10
18.1500
 20
3.0000
 30
0.0000
 41
1.1000
 42
1.0000
 43
1.0000
 50
0.0000
  0
INSERT
  8
31
  2
RECT
 10
19.8500
 20
3.0000
 30
0.0000
 41
1.1000
 42
1.0000
 43
1.0000
 50
0.0000
  0
INSERT
  8
31
  2
RECT
 10
10.0000
 20
4.1500
 30
0.0000
 41
1.1000
 42
1.0000
 43
1.0000
 50
90.0000
  0
INSERT
  8
31
  2
RECT
 10
10.0000
 20
5.8500
 30
0.0000
 41
1.1000
 42
1.0000
 43
1.0000
 50
90.0000
  0
INSERT
  8
31
  2
RECT
 10
35.0000
 20
59.8500
 30
0.0000
 41
1.1000
 42
1.0000
 43
1.0000
 50
270.0000
  0
INSERT
  8
31
  2
RECT
 10
35.0000
 20
58.1500
 30
0.0000
 41
1.1000
 42
1.0000
 43
1.0000
 50
270.0000
  0
INSERT
  8
31
  2
RECT
 10
22.0000
 20
59.8500
 30
0.0000
 41
1.1000
 42
1.0000
 43
1.0000
 50
270.0000
  0
INSERT
  8
31
  2
RECT
 10
22.0000
 20
58.1500
 30
0.0000
 41
1.1000
 42
1.0000
 43
1.0000
 50
270.0000
  0
INSERT
  8
31
  2
RECT
 10
29.0000
 20
59.8500
 30
0.0000
 41
1.1000
 42
1.0000
 43
1.0000
 50
270.0000
  0
INSERT
  8
31
  2
RECT
 10
29.0000
 20
58.1500
 30
0.0000
 41
1.1000
 42
1.0000
 43
1.0000
 50
270.0000
  0
INSERT
  8
31
  2
RECT
 10
16.0000
 20
59.8500
 30
0.0000
 41
1.1000
 42
1.0000
 43
1.0000
 50
270.0000
  0
INSERT
  8
31
  2
RECT
 10
16.0000
 20
58.1500
 30
0.0000
 41
1.1000
 42
1.0000
 43
1.0000
 50
270.0000
  0
INSERT
  8
31
  2
RECT
 10
28.2500
 20
14.8500
 30
0.0000
 41
1.1000
 42
1.0000
 43
1.0000
 50
270.0000
  0
INSERT
  8
31
  2
RECT
 10
28.2500
 20
13.1500
 30
0.0000
 41
1.1000
 42
1.0000
 43
1.0000
 50
270.0000
  0
INSERT
  8
31
  2
RECT
 10
17.1500
 20
40.5000
 30
0.0000
 41
1.1000
 42
1.0000
 43
1.0000
 50
0.0000
  0
INSERT
  8
31
  2
RECT
 10
18.8500
 20
40.5000
 30
0.0000
 41
1.1000
 42
1.0000
 43
1.0000
 50
0.0000
  0
INSERT
  8
31
  2
RECT
 10
10.0000
 20
14.2500
 30
0.0000
 41
0.6000
 42
0.8000
 43
1.0000
 50
0.0000
  0
INSERT
  8
31
  2
RECT
 10
10.0000
 20
11.7500
 30
0.0000
 41
0.6000
 42
0.8000
 43
1.0000
 50
0.0000
  0
INSERT
  8
31
  2
RECT
 10
9.0000
 20
15.7500
 30
0.0000
 41
0.6000
 42
0.8000
 43
1.0000
 50
180.0000
  0
INSERT
  8
31
  2
RECT
 10
9.0000
 20
18.2500
 30
0.0000
 41
0.6000
 42
0.8000
 43
1.0000
 50
180.0000
  0
INSERT
  8
31
  2
RECT
 10
20.5734
 20
42.1900
 30
0.0000
 41
0.6604
 42
2.0320
 43
1.0000
 50
90.0000
  0
INSERT
  8
31
  2
RECT
 10
20.5734
 20
43.4600
 30
0.0000
 41
0.6604
 42
2.0320
 43
1.0000
 50
90.0000
  0
INSERT
  8
31
  2
RECT
 10
20.5734
 20
44.7300
 30
0.0000
 41
0.6604
 42
2.0320
 43
1.0000
 50
90.0000
  0
INSERT
  8
31
  2
RECT
 10
20.5734
 20
46.0000
 30
0.0000
 41
0.6604
 42
2.0320
 43
1.0000
 50
90.0000
  0
INSERT
  8
31
  2
RECT
 10
20.5734
 20
47.2700
 30
0.0000
 41
0.6604
 42
2.0320
 43
1.0000
 50
90.0000
  0
INSERT
  8
31
  2
RECT
 10
20.5734
 20
48.5400
 30
0.0000
 41
0.6604
 42
2.0320
 43
1.0000
 50
90.0000
  0
INSERT
  8
31
  2
RECT
 10
20.5734
 20
49.8100
 30
0.0000
 41
0.6604
 42
2.0320
 43
1.0000
 50
90.0000
  0
INSERT
  8
31
  2
RECT
 10
14.4266
 20
49.8100
 30
0.0000
 41
0.6604
 42
2.0320
 43
1.0000
 50
90.0000
  0
INSERT
  8
31
  2
RECT
 10
14.4266
 20
48.5400
 30
0.0000
 41
0.6604
 42
2.0320
 43
1.0000
 50
90.0000
  0
INSERT
  8
31
  2
RECT
 10
14.4266
 20
47.2700
 30
0.0000
 41
0.6604
 42
2.0320
 43
1.0000
 50
90.0000
  0
INSERT
  8
31
  2
RECT
 10
14.4266
 20
46.0000
 30
0.0000
 41
0.6604
 42
2.0320
 43
1.0000
 50
90.0000
  0
INSERT
  8
31
  2
RECT
 10
14.4266
 20
44.7300
 30
0.0000
 41
0.6604
 42
2.0320
 43
1.0000
 50
90.0000
  0
INSERT
  8
31
  2
RECT
 10
14.4266
 20
43.4600
 30
0.0000
 41
0.6604
 42
2.0320
 43
1.0000
 50
90.0000
  0
INSERT
  8
31
  2
RECT
 10
14.4266
 20
42.1900
 30
0.0000
 41
0.6604
 42
2.0320
 43
1.0000
 50
90.0000
  0
INSERT
  8
31
  2
RECT
 10
7.8500
 20
45.0000
 30
0.0000
 41
1.1000
 42
1.0000
 43
1.0000
 50
180.0000
  0
INSERT
  8
31
  2
RECT
 10
6.1500
 20
45.0000
 30
0.0000
 41
1.1000
 42
1.0000
 43
1.0000
 50
180.0000
  0
INSERT
  8
31
  2
RECT
 10
7.0000
 20
59.7500
 30
0.0000
 41
0.8000
 42
0.8000
 43
1.0000
 50
180.0000
  0
INSERT
  8
31
  2
RECT
 10
7.0000
 20
58.2500
 30
0.0000
 41
0.8000
 42
0.8000
 43
1.0000
 50
180.0000
  0
INSERT
  8
31
  2
RECT
 10
5.0000
 20
59.7500
 30
0.0000
 41
0.8000
 42
0.8000
 43
1.0000
 50
180.0000
  0
INSERT
  8
31
  2
RECT
 10
5.0000
 20
58.2500
 30
0.0000
 41
0.8000
 42
0.8000
 43
1.0000
 50
180.0000
  0
INSERT
  8
31
  2
RECT
 10
7.0000
 20
63.7500
 30
0.0000
 41
0.8000
 42
0.8000
 43
1.0000
 50
180.0000
  0
INSERT
  8
31
  2
RECT
 10
7.0000
 20
62.2500
 30
0.0000
 41
0.8000
 42
0.8000
 43
1.0000
 50
180.0000
  0
INSERT
  8
31
  2
RECT
 10
5.0000
 20
63.7500
 30
0.0000
 41
0.8000
 42
0.8000
 43
1.0000
 50
180.0000
  0
INSERT
  8
31
  2
RECT
 10
5.0000
 20
62.2500
 30
0.0000
 41
0.8000
 42
0.8000
 43
1.0000
 50
180.0000
  0
INSERT
  8
31
  2
RECT
 10
29.2800
 20
10.3100
 30
0.0000
 41
1.6000
 42
3.0000
 43
1.0000
 50
180.0000
  0
INSERT
  8
31
  2
RECT
 10
24.7200
 20
10.3100
 30
0.0000
 41
1.6000
 42
3.0000
 43
1.0000
 50
180.0000
  0
INSERT
  8
31
  2
RECT
 10
27.0000
 20
3.4120
 30
0.0000
 41
4.8260
 42
5.7150
 43
1.0000
 50
180.0000
  0
INSERT
  8
31
  2
RECT
 10
4.8348
 20
3.3384
 30
0.0000
 41
1.0000
 42
1.1000
 43
1.0000
 50
180.0000
  0
INSERT
  8
31
  2
RECT
 10
3.1348
 20
3.3384
 30
0.0000
 41
1.0000
 42
1.1000
 43
1.0000
 50
180.0000
  0
INSERT
  8
31
  2
RECT
 10
3.0000
 20
59.8500
 30
0.0000
 41
1.0000
 42
1.1000
 43
1.0000
 50
270.0000
  0
INSERT
  8
31
  2
RECT
 10
3.0000
 20
58.1500
 30
0.0000
 41
1.0000
 42
1.1000
 43
1.0000
 50
270.0000
  0
INSERT
  8
31
  2
RECT
 10
9.0000
 20
59.8500
 30
0.0000
 41
1.0000
 42
1.1000
 43
1.0000
 50
270.0000
  0
INSERT
  8
31
  2
RECT
 10
9.0000
 20
58.1500
 30
0.0000
 41
1.0000
 42
1.1000
 43
1.0000
 50
270.0000
  0
INSERT
  8
31
  2
RECT
 10
7.8500
 20
43.0000
 30
0.0000
 41
1.0000
 42
1.1000
 43
1.0000
 50
180.0000
  0
INSERT
  8
31
  2
RECT
 10
6.1500
 20
43.0000
 30
0.0000
 41
1.0000
 42
1.1000
 43
1.0000
 50
180.0000
  0
INSERT
  8
31
  2
RECT
 10
27.0000
 20
54.1500
 30
0.0000
 41
1.0000
 42
1.1000
 43
1.0000
 50
90.0000
  0
INSERT
  8
31
  2
RECT
 10
27.0000
 20
55.8500
 30
0.0000
 41
1.0000
 42
1.1000
 43
1.0000
 50
90.0000
  0
INSERT
  8
31
  2
RECT
 10
25.0000
 20
54.1500
 30
0.0000
 41
1.0000
 42
1.1000
 43
1.0000
 50
90.0000
  0
INSERT
  8
31
  2
RECT
 10
25.0000
 20
55.8500
 30
0.0000
 41
1.0000
 42
1.1000
 43
1.0000
 50
90.0000
  0
INSERT
  8
31
  2
RECT
 10
21.0000
 20
54.1500
 30
0.0000
 41
1.0000
 42
1.1000
 43
1.0000
 50
90.0000
  0
INSERT
  8
31
  2
RECT
 10
21.0000
 20
55.8500
 30
0.0000
 41
1.0000
 42
1.1000
 43
1.0000
 50
90.0000
  0
INSERT
  8
31
  2
RECT
 10
19.0000
 20
54.1500
 30
0.0000
 41
1.0000
 42
1.1000
 43
1.0000
 50
90.0000
  0
INSERT
  8
31
  2
RECT
 10
19.0000
 20
55.8500
 30
0.0000
 41
1.0000
 42
1.1000
 43
1.0000
 50
90.0000
  0
INSERT
  8
31
  2
RECT
 10
33.0000
 20
50.1500
 30
0.0000
 41
1.0000
 42
1.1000
 43
1.0000
 50
90.0000
  0
INSERT
  8
31
  2
RECT
 10
33.0000
 20
51.8500
 30
0.0000
 41
1.0000
 42
1.1000
 43
1.0000
 50
90.0000
  0
INSERT
  8
31
  2
RECT
 10
31.0000
 20
50.1500
 30
0.0000
 41
1.0000
 42
1.1000
 43
1.0000
 50
90.0000
  0
INSERT
  8
31
  2
RECT
 10
31.0000
 20
51.8500
 30
0.0000
 41
1.0000
 42
1.1000
 43
1.0000
 50
90.0000
  0
INSERT
  8
31
  2
RECT
 10
15.0000
 20
54.1500
 30
0.0000
 41
1.0000
 42
1.1000
 43
1.0000
 50
90.0000
  0
INSERT
  8
31
  2
RECT
 10
15.0000
 20
55.8500
 30
0.0000
 41
1.0000
 42
1.1000
 43
1.0000
 50
90.0000
  0
INSERT
  8
31
  2
RECT
 10
13.0000
 20
54.1500
 30
0.0000
 41
1.0000
 42
1.1000
 43
1.0000
 50
90.0000
  0
INSERT
  8
31
  2
RECT
 10
13.0000
 20
55.8500
 30
0.0000
 41
1.0000
 42
1.1000
 43
1.0000
 50
90.0000
  0
INSERT
  8
31
  2
RECT
 10
28.0000
 20
18.8500
 30
0.0000
 41
1.0000
 42
1.1000
 43
1.0000
 50
270.0000
  0
INSERT
  8
31
  2
RECT
 10
28.0000
 20
17.1500
 30
0.0000
 41
1.0000
 42
1.1000
 43
1.0000
 50
270.0000
  0
INSERT
  8
31
  2
RECT
 10
22.0000
 20
13.8500
 30
0.0000
 41
1.0000
 42
1.1000
 43
1.0000
 50
270.0000
  0
INSERT
  8
31
  2
RECT
 10
22.0000
 20
12.1500
 30
0.0000
 41
1.0000
 42
1.1000
 43
1.0000
 50
270.0000
  0
INSERT
  8
31
  2
RECT
 10
30.2500
 20
14.8500
 30
0.0000
 41
1.0000
 42
1.1000
 43
1.0000
 50
270.0000
  0
INSERT
  8
31
  2
RECT
 10
30.2500
 20
13.1500
 30
0.0000
 41
1.0000
 42
1.1000
 43
1.0000
 50
270.0000
  0
INSERT
  8
31
  2
RECT
 10
23.0000
 20
20.1500
 30
0.0000
 41
1.0000
 42
1.1000
 43
1.0000
 50
90.0000
  0
INSERT
  8
31
  2
RECT
 10
23.0000
 20
21.8500
 30
0.0000
 41
1.0000
 42
1.1000
 43
1.0000
 50
90.0000
  0
INSERT
  8
31
  2
RECT
 10
18.1500
 20
5.0000
 30
0.0000
 41
1.0000
 42
1.1000
 43
1.0000
 50
0.0000
  0
INSERT
  8
31
  2
RECT
 10
19.8500
 20
5.0000
 30
0.0000
 41
1.0000
 42
1.1000
 43
1.0000
 50
0.0000
  0
INSERT
  8
31
  2
RECT
 10
10.0000
 20
8.1500
 30
0.0000
 41
1.0000
 42
1.1000
 43
1.0000
 50
90.0000
  0
INSERT
  8
31
  2
RECT
 10
10.0000
 20
9.8500
 30
0.0000
 41
1.0000
 42
1.1000
 43
1.0000
 50
90.0000
  0
INSERT
  8
31
  2
RECT
 10
8.0000
 20
8.1500
 30
0.0000
 41
1.0000
 42
1.1000
 43
1.0000
 50
90.0000
  0
INSERT
  8
31
  2
RECT
 10
8.0000
 20
9.8500
 30
0.0000
 41
1.0000
 42
1.1000
 43
1.0000
 50
90.0000
  0
INSERT
  8
31
  2
RECT
 10
9.0000
 20
63.8500
 30
0.0000
 41
1.0000
 42
1.1000
 43
1.0000
 50
270.0000
  0
INSERT
  8
31
  2
RECT
 10
9.0000
 20
62.1500
 30
0.0000
 41
1.0000
 42
1.1000
 43
1.0000
 50
270.0000
  0
INSERT
  8
31
  2
RECT
 10
3.0000
 20
63.8500
 30
0.0000
 41
1.0000
 42
1.1000
 43
1.0000
 50
270.0000
  0
INSERT
  8
31
  2
RECT
 10
3.0000
 20
62.1500
 30
0.0000
 41
1.0000
 42
1.1000
 43
1.0000
 50
270.0000
  0
INSERT
  8
31
  2
RECT
 10
29.0000
 20
43.1500
 30
0.0000
 41
1.0000
 42
1.1000
 43
1.0000
 50
90.0000
  0
INSERT
  8
31
  2
RECT
 10
29.0000
 20
44.8500
 30
0.0000
 41
1.0000
 42
1.1000
 43
1.0000
 50
90.0000
  0
INSERT
  8
31
  2
RECT
 10
31.0000
 20
44.8500
 30
0.0000
 41
1.0000
 42
1.1000
 43
1.0000
 50
270.0000
  0
INSERT
  8
31
  2
RECT
 10
31.0000
 20
43.1500
 30
0.0000
 41
1.0000
 42
1.1000
 43
1.0000
 50
270.0000
  0
INSERT
  8
31
  2
RECT
 10
29.0000
 20
39.8500
 30
0.0000
 41
1.0000
 42
1.1000
 43
1.0000
 50
270.0000
  0
INSERT
  8
31
  2
RECT
 10
29.0000
 20
38.1500
 30
0.0000
 41
1.0000
 42
1.1000
 43
1.0000
 50
270.0000
  0
INSERT
  8
31
  2
RECT
 10
25.0000
 20
21.8500
 30
0.0000
 41
1.0000
 42
1.1000
 43
1.0000
 50
270.0000
  0
INSERT
  8
31
  2
RECT
 10
25.0000
 20
20.1500
 30
0.0000
 41
1.0000
 42
1.1000
 43
1.0000
 50
270.0000
  0
INSERT
  8
31
  2
RECT
 10
31.0000
 20
38.1500
 30
0.0000
 41
1.0000
 42
1.1000
 43
1.0000
 50
90.0000
  0
INSERT
  8
31
  2
RECT
 10
31.0000
 20
39.8500
 30
0.0000
 41
1.0000
 42
1.1000
 43
1.0000
 50
90.0000
  0
INSERT
  8
31
  2
RECT
 10
33.0000
 20
43.1500
 30
0.0000
 41
1.0000
 42
1.1000
 43
1.0000
 50
90.0000
  0
INSERT
  8
31
  2
RECT
 10
33.0000
 20
44.8500
 30
0.0000
 41
1.0000
 42
1.1000
 43
1.0000
 50
90.0000
  0
INSERT
  8
31
  2
RECT
 10
35.0000
 20
44.8500
 30
0.0000
 41
1.0000
 42
1.1000
 43
1.0000
 50
270.0000
  0
INSERT
  8
31
  2
RECT
 10
35.0000
 20
43.1500
 30
0.0000
 41
1.0000
 42
1.1000
 43
1.0000
 50
270.0000
  0
INSERT
  8
31
  2
RECT
 10
33.0000
 20
39.8500
 30
0.0000
 41
1.0000
 42
1.1000
 43
1.0000
 50
270.0000
  0
INSERT
  8
31
  2
RECT
 10
33.0000
 20
38.1500
 30
0.0000
 41
1.0000
 42
1.1000
 43
1.0000
 50
270.0000
  0
INSERT
  8
31
  2
RECT
 10
35.0000
 20
38.1500
 30
0.0000
 41
1.0000
 42
1.1000
 43
1.0000
 50
90.0000
  0
INSERT
  8
31
  2
RECT
 10
35.0000
 20
39.8500
 30
0.0000
 41
1.0000
 42
1.1000
 43
1.0000
 50
90.0000
  0
INSERT
  8
31
  2
RECT
 10
15.8500
 20
13.9500
 30
0.0000
 41
0.6000
 42
1.2000
 43
1.0000
 50
270.0000
  0
INSERT
  8
31
  2
RECT
 10
18.1500
 20
13.0000
 30
0.0000
 41
0.6000
 42
1.2000
 43
1.0000
 50
270.0000
  0
INSERT
  8
31
  2
RECT
 10
18.1500
 20
12.0500
 30
0.0000
 41
0.6000
 42
1.2000
 43
1.0000
 50
270.0000
  0
INSERT
  8
31
  2
RECT
 10
18.1500
 20
13.9500
 30
0.0000
 41
0.6000
 42
1.2000
 43
1.0000
 50
270.0000
  0
INSERT
  8
31
  2
RECT
 10
15.8500
 20
12.0500
 30
0.0000
 41
0.6000
 42
1.2000
 43
1.0000
 50
270.0000
  0
INSERT
  8
31
  2
RECT
 10
20.6010
 20
25.7525
 30
0.0000
 41
0.3000
 42
1.2000
 43
1.0000
 50
45.0000
  0
INSERT
  8
31
  2
RECT
 10
20.9546
 20
26.1061
 30
0.0000
 41
0.3000
 42
1.2000
 43
1.0000
 50
45.0000
  0
INSERT
  8
31
  2
RECT
 10
21.3081
 20
26.4596
 30
0.0000
 41
0.3000
 42
1.2000
 43
1.0000
 50
45.0000
  0
INSERT
  8
31
  2
RECT
 10
21.6617
 20
26.8132
 30
0.0000
 41
0.3000
 42
1.2000
 43
1.0000
 50
45.0000
  0
INSERT
  8
31
  2
RECT
 10
22.0153
 20
27.1667
 30
0.0000
 41
0.3000
 42
1.2000
 43
1.0000
 50
45.0000
  0
INSERT
  8
31
  2
RECT
 10
22.3688
 20
27.5203
 30
0.0000
 41
0.3000
 42
1.2000
 43
1.0000
 50
45.0000
  0
INSERT
  8
31
  2
RECT
 10
22.7224
 20
27.8738
 30
0.0000
 41
0.3000
 42
1.2000
 43
1.0000
 50
45.0000
  0
INSERT
  8
31
  2
RECT
 10
23.0759
 20
28.2274
 30
0.0000
 41
0.3000
 42
1.2000
 43
1.0000
 50
45.0000
  0
INSERT
  8
31
  2
RECT
 10
23.4295
 20
28.5809
 30
0.0000
 41
0.3000
 42
1.2000
 43
1.0000
 50
45.0000
  0
INSERT
  8
31
  2
RECT
 10
23.7830
 20
28.9345
 30
0.0000
 41
0.3000
 42
1.2000
 43
1.0000
 50
45.0000
  0
INSERT
  8
31
  2
RECT
 10
24.1366
 20
29.2880
 30
0.0000
 41
0.3000
 42
1.2000
 43
1.0000
 50
45.0000
  0
INSERT
  8
31
  2
RECT
 10
24.4901
 20
29.6416
 30
0.0000
 41
0.3000
 42
1.2000
 43
1.0000
 50
45.0000
  0
INSERT
  8
31
  2
RECT
 10
24.4901
 20
31.7629
 30
0.0000
 41
0.3000
 42
1.2000
 43
1.0000
 50
135.0000
  0
INSERT
  8
31
  2
RECT
 10
24.1366
 20
32.1165
 30
0.0000
 41
0.3000
 42
1.2000
 43
1.0000
 50
135.0000
  0
INSERT
  8
31
  2
RECT
 10
23.7830
 20
32.4700
 30
0.0000
 41
0.3000
 42
1.2000
 43
1.0000
 50
135.0000
  0
INSERT
  8
31
  2
RECT
 10
23.4295
 20
32.8236
 30
0.0000
 41
0.3000
 42
1.2000
 43
1.0000
 50
135.0000
  0
INSERT
  8
31
  2
RECT
 10
23.0759
 20
33.1771
 30
0.0000
 41
0.3000
 42
1.2000
 43
1.0000
 50
135.0000
  0
INSERT
  8
31
  2
RECT
 10
22.7224
 20
33.5307
 30
0.0000
 41
0.3000
 42
1.2000
 43
1.0000
 50
135.0000
  0
INSERT
  8
31
  2
RECT
 10
22.3688
 20
33.8842
 30
0.0000
 41
0.3000
 42
1.2000
 43
1.0000
 50
135.0000
  0
INSERT
  8
31
  2
RECT
 10
22.0153
 20
34.2378
 30
0.0000
 41
0.3000
 42
1.2000
 43
1.0000
 50
135.0000
  0
INSERT
  8
31
  2
RECT
 10
21.6617
 20
34.5913
 30
0.0000
 41
0.3000
 42
1.2000
 43
1.0000
 50
135.0000
  0
INSERT
  8
31
  2
RECT
 10
21.3081
 20
34.9449
 30
0.0000
 41
0.3000
 42
1.2000
 43
1.0000
 50
135.0000
  0
INSERT
  8
31
  2
RECT
 10
20.9546
 20
35.2985
 30
0.0000
 41
0.3000
 42
1.2000
 43
1.0000
 50
135.0000
  0
INSERT
  8
31
  2
RECT
 10
20.6010
 20
35.6520
 30
0.0000
 41
0.3000
 42
1.2000
 43
1.0000
 50
135.0000
  0
INSERT
  8
31
  2
RECT
 10
18.4797
 20
35.6520
 30
0.0000
 41
0.3000
 42
1.2000
 43
1.0000
 50
45.0000
  0
INSERT
  8
31
  2
RECT
 10
18.1262
 20
35.2985
 30
0.0000
 41
0.3000
 42
1.2000
 43
1.0000
 50
45.0000
  0
INSERT
  8
31
  2
RECT
 10
17.7726
 20
34.9449
 30
0.0000
 41
0.3000
 42
1.2000
 43
1.0000
 50
45.0000
  0
INSERT
  8
31
  2
RECT
 10
17.4191
 20
34.5913
 30
0.0000
 41
0.3000
 42
1.2000
 43
1.0000
 50
45.0000
  0
INSERT
  8
31
  2
RECT
 10
17.0655
 20
34.2378
 30
0.0000
 41
0.3000
 42
1.2000
 43
1.0000
 50
45.0000
  0
INSERT
  8
31
  2
RECT
 10
16.7120
 20
33.8842
 30
0.0000
 41
0.3000
 42
1.2000
 43
1.0000
 50
45.0000
  0
INSERT
  8
31
  2
RECT
 10
16.3584
 20
33.5307
 30
0.0000
 41
0.3000
 42
1.2000
 43
1.0000
 50
45.0000
  0
INSERT
  8
31
  2
RECT
 10
16.0048
 20
33.1771
 30
0.0000
 41
0.3000
 42
1.2000
 43
1.0000
 50
45.0000
  0
INSERT
  8
31
  2
RECT
 10
15.6513
 20
32.8236
 30
0.0000
 41
0.3000
 42
1.2000
 43
1.0000
 50
45.0000
  0
INSERT
  8
31
  2
RECT
 10
15.2977
 20
32.4700
 30
0.0000
 41
0.3000
 42
1.2000
 43
1.0000
 50
45.0000
  0
INSERT
  8
31
  2
RECT
 10
14.9442
 20
32.1165
 30
0.0000
 41
0.3000
 42
1.2000
 43
1.0000
 50
45.0000
  0
INSERT
  8
31
  2
RECT
 10
14.5906
 20
31.7629
 30
0.0000
 41
0.3000
 42
1.2000
 43
1.0000
 50
45.0000
  0
INSERT
  8
31
  2
RECT
 10
14.5906
 20
29.6416
 30
0.0000
 41
0.3000
 42
1.2000
 43
1.0000
 50
135.0000
  0
INSERT
  8
31
  2
RECT
 10
14.9442
 20
29.2880
 30
0.0000
 41
0.3000
 42
1.2000
 43
1.0000
 50
135.0000
  0
INSERT
  8
31
  2
RECT
 10
15.2977
 20
28.9345
 30
0.0000
 41
0.3000
 42
1.2000
 43
1.0000
 50
135.0000
  0
INSERT
  8
31
  2
RECT
 10
15.6513
 20
28.5809
 30
0.0000
 41
0.3000
 42
1.2000
 43
1.0000
 50
135.0000
  0
INSERT
  8
31
  2
RECT
 10
16.0048
 20
28.2274
 30
0.0000
 41
0.3000
 42
1.2000
 43
1.0000
 50
135.0000
  0
INSERT
  8
31
  2
RECT
 10
16.3584
 20
27.8738
 30
0.0000
 41
0.3000
 42
1.2000
 43
1.0000
 50
135.0000
  0
INSERT
  8
31
  2
RECT
 10
16.7120
 20
27.5203
 30
0.0000
 41
0.3000
 42
1.2000
 43
1.0000
 50
135.0000
  0
INSERT
  8
31
  2
RECT
 10
17.0655
 20
27.1667
 30
0.0000
 41
0.3000
 42
1.2000
 43
1.0000
 50
135.0000
  0
INSERT
  8
31
  2
RECT
 10
17.4191
 20
26.8132
 30
0.0000
 41
0.3000
 42
1.2000
 43
1.0000
 50
135.0000
  0
INSERT
  8
31
  2
RECT
 10
17.7726
 20
26.4596
 30
0.0000
 41
0.3000
 42
1.2000
 43
1.0000
 50
135.0000
  0
INSERT
  8
31
  2
RECT
 10
18.1262
 20
26.1061
 30
0.0000
 41
0.3000
 42
1.2000
 43
1.0000
 50
135.0000
  0
INSERT
  8
31
  2
RECT
 10
18.4797
 20
25.7525
 30
0.0000
 41
0.3000
 42
1.2000
 43
1.0000
 50
135.0000
  0
INSERT
  8
31
  2
RECT
 10
35.3001
 20
54.0500
 30
0.0000
 41
0.5500
 42
1.2000
 43
1.0000
 50
90.0000
  0
INSERT
  8
31
  2
RECT
 10
35.3001
 20
55.0000
 30
0.0000
 41
0.5500
 42
1.2000
 43
1.0000
 50
90.0000
  0
INSERT
  8
31
  2
RECT
 10
35.3001
 20
55.9500
 30
0.0000
 41
0.5500
 42
1.2000
 43
1.0000
 50
90.0000
  0
INSERT
  8
31
  2
RECT
 10
32.6999
 20
55.9500
 30
0.0000
 41
0.5500
 42
1.2000
 43
1.0000
 50
90.0000
  0
INSERT
  8
31
  2
RECT
 10
32.6999
 20
54.0500
 30
0.0000
 41
0.5500
 42
1.2000
 43
1.0000
 50
90.0000
  0
INSERT
  8
31
  2
RECT
 10
1.0700
 20
33.9250
 30
0.0000
 41
1.8000
 42
1.9000
 43
1.0000
 50
270.0000
  0
INSERT
  8
31
  2
RECT
 10
1.0700
 20
41.5250
 30
0.0000
 41
1.8000
 42
1.9000
 43
1.0000
 50
270.0000
  0
INSERT
  8
31
  2
RECT
 10
1.0700
 20
38.9250
 30
0.0000
 41
1.9000
 42
1.9000
 43
1.0000
 50
270.0000
  0
INSERT
  8
31
  2
RECT
 10
1.0700
 20
36.5250
 30
0.0000
 41
1.9000
 42
1.9000
 43
1.0000
 50
270.0000
  0
INSERT
  8
31
  2
RECT
 10
3.6200
 20
40.8250
 30
0.0000
 41
2.1000
 42
1.6000
 43
1.0000
 50
270.0000
  0
INSERT
  8
31
  2
RECT
 10
3.6200
 20
34.6250
 30
0.0000
 41
2.1000
 42
1.6000
 43
1.0000
 50
270.0000
  0
INSERT
  8
31
  2
RECT
 10
3.7700
 20
39.0250
 30
0.0000
 41
0.4000
 42
1.3500
 43
1.0000
 50
270.0000
  0
INSERT
  8
31
  2
RECT
 10
3.7700
 20
38.3750
 30
0.0000
 41
0.4000
 42
1.3500
 43
1.0000
 50
270.0000
  0
INSERT
  8
31
  2
RECT
 10
3.7700
 20
37.7250
 30
0.0000
 41
0.4000
 42
1.3500
 43
1.0000
 50
270.0000
  0
INSERT
  8
31
  2
RECT
 10
3.7700
 20
37.0750
 30
0.0000
 41
0.4000
 42
1.3500
 43
1.0000
 50
270.0000
  0
INSERT
  8
31
  2
RECT
 10
3.7700
 20
36.4250
 30
0.0000
 41
0.4000
 42
1.3500
 43
1.0000
 50
270.0000
  0
INSERT
  8
31
  2
RECT
 10
27.3001
 20
58.0500
 30
0.0000
 41
0.5500
 42
1.2000
 43
1.0000
 50
90.0000
  0
INSERT
  8
31
  2
RECT
 10
27.3001
 20
59.0000
 30
0.0000
 41
0.5500
 42
1.2000
 43
1.0000
 50
90.0000
  0
INSERT
  8
31
  2
RECT
 10
27.3001
 20
59.9500
 30
0.0000
 41
0.5500
 42
1.2000
 43
1.0000
 50
90.0000
  0
INSERT
  8
31
  2
RECT
 10
24.6999
 20
59.9500
 30
0.0000
 41
0.5500
 42
1.2000
 43
1.0000
 50
90.0000
  0
INSERT
  8
31
  2
RECT
 10
24.6999
 20
58.0500
 30
0.0000
 41
0.5500
 42
1.2000
 43
1.0000
 50
90.0000
  0
INSERT
  8
31
  2
RECT
 10
33.3001
 20
58.0500
 30
0.0000
 41
0.5500
 42
1.2000
 43
1.0000
 50
90.0000
  0
INSERT
  8
31
  2
RECT
 10
33.3001
 20
59.0000
 30
0.0000
 41
0.5500
 42
1.2000
 43
1.0000
 50
90.0000
  0
INSERT
  8
31
  2
RECT
 10
33.3001
 20
59.9500
 30
0.0000
 41
0.5500
 42
1.2000
 43
1.0000
 50
90.0000
  0
INSERT
  8
31
  2
RECT
 10
30.6999
 20
59.9500
 30
0.0000
 41
0.5500
 42
1.2000
 43
1.0000
 50
90.0000
  0
INSERT
  8
31
  2
RECT
 10
30.6999
 20
58.0500
 30
0.0000
 41
0.5500
 42
1.2000
 43
1.0000
 50
90.0000
  0
INSERT
  8
31
  2
RECT
 10
20.3001
 20
58.0500
 30
0.0000
 41
0.5500
 42
1.2000
 43
1.0000
 50
90.0000
  0
INSERT
  8
31
  2
RECT
 10
20.3001
 20
59.0000
 30
0.0000
 41
0.5500
 42
1.2000
 43
1.0000
 50
90.0000
  0
INSERT
  8
31
  2
RECT
 10
20.3001
 20
59.9500
 30
0.0000
 41
0.5500
 42
1.2000
 43
1.0000
 50
90.0000
  0
INSERT
  8
31
  2
RECT
 10
17.6999
 20
59.9500
 30
0.0000
 41
0.5500
 42
1.2000
 43
1.0000
 50
90.0000
  0
INSERT
  8
31
  2
RECT
 10
17.6999
 20
58.0500
 30
0.0000
 41
0.5500
 42
1.2000
 43
1.0000
 50
90.0000
  0
INSERT
  8
31
  2
RECT
 10
17.3001
 20
8.0500
 30
0.0000
 41
0.5500
 42
1.2000
 43
1.0000
 50
90.0000
  0
INSERT
  8
31
  2
RECT
 10
17.3001
 20
9.0000
 30
0.0000
 41
0.5500
 42
1.2000
 43
1.0000
 50
90.0000
  0
INSERT
  8
31
  2
RECT
 10
17.3001
 20
9.9500
 30
0.0000
 41
0.5500
 42
1.2000
 43
1.0000
 50
90.0000
  0
INSERT
  8
31
  2
RECT
 10
14.6999
 20
9.9500
 30
0.0000
 41
0.5500
 42
1.2000
 43
1.0000
 50
90.0000
  0
INSERT
  8
31
  2
RECT
 10
14.6999
 20
8.0500
 30
0.0000
 41
0.5500
 42
1.2000
 43
1.0000
 50
90.0000
  0
INSERT
  8
31
  2
RECT
 10
20.0000
 20
7.3500
 30
0.0000
 41
0.9100
 42
1.2200
 43
1.0000
 50
90.0000
  0
INSERT
  8
31
  2
RECT
 10
20.0000
 20
10.6500
 30
0.0000
 41
0.9100
 42
1.2200
 43
1.0000
 50
90.0000
  0
INSERT
  8
31
  2
RECT
 10
32.3500
 20
63.0000
 30
0.0000
 41
0.9100
 42
1.2200
 43
1.0000
 50
0.0000
  0
INSERT
  8
31
  2
RECT
 10
35.6500
 20
63.0000
 30
0.0000
 41
0.9100
 42
1.2200
 43
1.0000
 50
0.0000
  0
INSERT
  8
31
  2
RECT
 10
22.8500
 20
62.0000
 30
0.0000
 41
0.4000
 42
0.6000
 43
1.0000
 50
0.0000
  0
INSERT
  8
31
  2
RECT
 10
23.5000
 20
62.0000
 30
0.0000
 41
0.4000
 42
0.6000
 43
1.0000
 50
0.0000
  0
INSERT
  8
31
  2
RECT
 10
24.1500
 20
62.0000
 30
0.0000
 41
0.4000
 42
0.6000
 43
1.0000
 50
0.0000
  0
INSERT
  8
31
  2
RECT
 10
24.1500
 20
64.0000
 30
0.0000
 41
0.4000
 42
0.6000
 43
1.0000
 50
0.0000
  0
INSERT
  8
31
  2
RECT
 10
23.5000
 20
64.0000
 30
0.0000
 41
0.4000
 42
0.6000
 43
1.0000
 50
0.0000
  0
INSERT
  8
31
  2
RECT
 10
22.8500
 20
64.0000
 30
0.0000
 41
0.4000
 42
0.6000
 43
1.0000
 50
0.0000
  0
INSERT
  8
31
  2
RECT
 10
9.0000
 20
39.6500
 30
0.0000
 41
0.4000
 42
0.6000
 43
1.0000
 50
270.0000
  0
INSERT
  8
31
  2
RECT
 10
9.0000
 20
39.0000
 30
0.0000
 41
0.4000
 42
0.6000
 43
1.0000
 50
270.0000
  0
INSERT
  8
31
  2
RECT
 10
9.0000
 20
38.3500
 30
0.0000
 41
0.4000
 42
0.6000
 43
1.0000
 50
270.0000
  0
INSERT
  8
31
  2
RECT
 10
11.0000
 20
38.3500
 30
0.0000
 41
0.4000
 42
0.6000
 43
1.0000
 50
270.0000
  0
INSERT
  8
31
  2
RECT
 10
11.0000
 20
39.0000
 30
0.0000
 41
0.4000
 42
0.6000
 43
1.0000
 50
270.0000
  0
INSERT
  8
31
  2
RECT
 10
11.0000
 20
39.6500
 30
0.0000
 41
0.4000
 42
0.6000
 43
1.0000
 50
270.0000
  0
INSERT
  8
31
  2
RECT
 10
7.0000
 20
32.3500
 30
0.0000
 41
0.9100
 42
1.2200
 43
1.0000
 50
90.0000
  0
INSERT
  8
31
  2
RECT
 10
7.0000
 20
35.6500
 30
0.0000
 41
0.9100
 42
1.2200
 43
1.0000
 50
90.0000
  0
INSERT
  8
31
  2
RECT
 10
12.3750
 20
4.0000
 30
0.0000
 41
4.5000
 42
1.8000
 43
1.0000
 50
90.0000
  0
INSERT
  8
31
  2
RECT
 10
15.6250
 20
4.0000
 30
0.0000
 41
4.5000
 42
1.8000
 43
1.0000
 50
90.0000
  0
INSERT
  8
31
  2
RECT
 10
25.9500
 20
17.3001
 30
0.0000
 41
0.5500
 42
1.2000
 43
1.0000
 50
180.0000
  0
INSERT
  8
31
  2
RECT
 10
25.0000
 20
17.3001
 30
0.0000
 41
0.5500
 42
1.2000
 43
1.0000
 50
180.0000
  0
INSERT
  8
31
  2
RECT
 10
24.0500
 20
17.3001
 30
0.0000
 41
0.5500
 42
1.2000
 43
1.0000
 50
180.0000
  0
INSERT
  8
31
  2
RECT
 10
24.0500
 20
14.6999
 30
0.0000
 41
0.5500
 42
1.2000
 43
1.0000
 50
180.0000
  0
INSERT
  8
31
  2
RECT
 10
25.9500
 20
14.6999
 30
0.0000
 41
0.5500
 42
1.2000
 43
1.0000
 50
180.0000
  0
ENDSEC
  0
EOF
