  0
SECTION
  2
HEADER
  9
$ACADVER
  1
AC1009
  9
$INSBASE
 10
0.0
 20
0.0
 30
0.0
  9
$EXTMIN
 10
0.0
 20
0.0
 30
0.0
  9
$EXTMAX
 10
38.0050000000000026
 20
66.0
 30
0.0
  9
$LIMMIN
 10
0.0
 20
0.0
  9
$LIMMAX
 10
12.0
 20
9.0
  9
$ORTHOMODE
 70
     0
  9
$REGENMODE
 70
     1
  9
$FILLMODE
 70
     0
  9
$QTEXTMODE
 70
     0
  9
$MIRRTEXT
 70
     0
  9
$DRAGMODE
 70
     2
  9
$LTSCALE
 40
1.0
  9
$OSMODE
 70
  2053
  9
$ATTMODE
 70
     1
  9
$TEXTSIZE
 40
0.2
  9
$TRACEWID
 40
0.05
  9
$TEXTSTYLE
  7
STANDARD
  9
$CLAYER
  8
0
  9
$CELTYPE
  6
CONTINUOUS
  9
$CECOLOR
 62
   256
  9
$DIMSCALE
 40
1.0
  9
$DIMASZ
 40
0.18
  9
$DIMEXO
 40
0.0625
  9
$DIMDLI
 40
0.38
  9
$DIMRND
 40
0.0
  9
$DIMDLE
 40
0.0
  9
$DIMEXE
 40
0.18
  9
$DIMTP
 40
0.0
  9
$DIMTM
 40
0.0
  9
$DIMTXT
 40
0.18
  9
$DIMCEN
 40
0.09
  9
$DIMTSZ
 40
0.0
  9
$DIMTOL
 70
     0
  9
$DIMLIM
 70
     0
  9
$DIMTIH
 70
     1
  9
$DIMTOH
 70
     1
  9
$DIMSE1
 70
     0
  9
$DIMSE2
 70
     0
  9
$DIMTAD
 70
     0
  9
$DIMZIN
 70
     0
  9
$DIMBLK
  1

  9
$DIMASO
 70
     1
  9
$DIMSHO
 70
     1
  9
$DIMPOST
  1

  9
$DIMAPOST
  1

  9
$DIMALT
 70
     0
  9
$DIMALTD
 70
     2
  9
$DIMALTF
 40
25.3999999999999986
  9
$DIMLFAC
 40
1.0
  9
$DIMTOFL
 70
     0
  9
$DIMTVP
 40
0.0
  9
$DIMTIX
 70
     0
  9
$DIMSOXD
 70
     0
  9
$DIMSAH
 70
     0
  9
$DIMBLK1
  1

  9
$DIMBLK2
  1

  9
$DIMSTYLE
  2
STANDARD
  9
$DIMCLRD
 70
     0
  9
$DIMCLRE
 70
     0
  9
$DIMCLRT
 70
     0
  9
$DIMTFAC
 40
1.0
  9
$DIMGAP
 40
0.09
  9
$LUNITS
 70
     2
  9
$LUPREC
 70
     4
  9
$SKETCHINC
 40
0.1
  9
$FILLETRAD
 40
0.0
  9
$AUNITS
 70
     0
  9
$AUPREC
 70
     0
  9
$MENU
  1
.
  9
$ELEVATION
 40
0.0
  9
$PELEVATION
 40
0.0
  9
$THICKNESS
 40
0.0
  9
$LIMCHECK
 70
     0
  9
$BLIPMODE
 70
     0
  9
$CHAMFERA
 40
0.0
  9
$CHAMFERB
 40
0.0
  9
$SKPOLY
 70
     0
  9
$TDCREATE
 40
2457130.4040943398140371
  9
$TDUPDATE
 40
2457130.442300358787179
  9
$TDINDWG
 40
0.0365844444
  9
$TDUSRTIMER
 40
0.0365844329
  9
$USRTIMER
 70
     1
  9
$ANGBASE
 50
0.0
  9
$ANGDIR
 70
     0
  9
$PDMODE
 70
     0
  9
$PDSIZE
 40
0.0
  9
$PLINEWID
 40
0.0
  9
$COORDS
 70
     1
  9
$SPLFRAME
 70
     0
  9
$SPLINETYPE
 70
     6
  9
$SPLINESEGS
 70
     8
  9
$ATTDIA
 70
     1
  9
$ATTREQ
 70
     1
  9
$HANDLING
 70
     1
  9
$HANDSEED
  5
444
  9
$SURFTAB1
 70
     6
  9
$SURFTAB2
 70
     6
  9
$SURFTYPE
 70
     6
  9
$SURFU
 70
     6
  9
$SURFV
 70
     6
  9
$UCSNAME
  2

  9
$UCSORG
 10
0.0
 20
0.0
 30
0.0
  9
$UCSXDIR
 10
1.0
 20
0.0
 30
0.0
  9
$UCSYDIR
 10
0.0
 20
1.0
 30
0.0
  9
$PUCSNAME
  2

  9
$PUCSORG
 10
0.0
 20
0.0
 30
0.0
  9
$PUCSXDIR
 10
1.0
 20
0.0
 30
0.0
  9
$PUCSYDIR
 10
0.0
 20
1.0
 30
0.0
  9
$USERI1
 70
     0
  9
$USERI2
 70
     0
  9
$USERI3
 70
     0
  9
$USERI4
 70
     0
  9
$USERI5
 70
     0
  9
$USERR1
 40
0.0
  9
$USERR2
 40
0.0
  9
$USERR3
 40
0.0
  9
$USERR4
 40
0.0
  9
$USERR5
 40
0.0
  9
$WORLDVIEW
 70
     1
  9
$SHADEDGE
 70
     3
  9
$SHADEDIF
 70
    70
  9
$TILEMODE
 70
     1
  9
$MAXACTVP
 70
    64
  9
$PLIMCHECK
 70
     0
  9
$PEXTMIN
 10
1.0000000000000000E+20
 20
1.0000000000000000E+20
 30
1.0000000000000000E+20
  9
$PEXTMAX
 10
-1.0000000000000000E+20
 20
-1.0000000000000000E+20
 30
-1.0000000000000000E+20
  9
$PLIMMIN
 10
0.0
 20
0.0
  9
$PLIMMAX
 10
12.0
 20
9.0
  9
$UNITMODE
 70
     0
  9
$VISRETAIN
 70
     1
  9
$PLINEGEN
 70
     0
  9
$PSLTSCALE
 70
     1
  0
ENDSEC
  0
SECTION
  2
TABLES
  0
TABLE
  2
VPORT
 70
     1
  0
VPORT
  2
*ACTIVE
 70
     0
 10
0.0
 20
0.0
 11
1.0
 21
1.0
 12
14.3373429817427898
 22
29.7355918597761288
 13
0.0
 23
0.0
 14
1.0
 24
1.0
 15
0.0
 25
0.0
 16
0.0
 26
0.0
 36
1.0
 17
0.0
 27
0.0
 37
0.0
 40
14.9408790701450194
 41
1.2884882108183069
 42
50.0
 43
0.0
 44
0.0
 50
0.0
 51
0.0
 71
     0
 72
   100
 73
     1
 74
     1
 75
     0
 76
     0
 77
     0
 78
     0
  0
ENDTAB
  0
TABLE
  2
LTYPE
 70
     2
  0
LTYPE
  2
CONTINUOUS
 70
     0
  3
Solid line
 72
    65
 73
     0
 40
0.0
  0
LTYPE
  2
PHANTOM2
 70
     0
  3
Phantom (.5x) ___ _ _ ___ _ _ ___ _ _ ___ _ _
 72
    65
 73
     6
 40
1.25
 49
0.625
 49
-0.125
 49
0.125
 49
-0.125
 49
0.125
 49
-0.125
  0
ENDTAB
  0
TABLE
  2
LAYER
 70
     3
  0
LAYER
  2
0
 70
     0
 62
     7
  6
CONTINUOUS
  0
ENDTAB
  0
TABLE
  2
STYLE
 70
     2
  0
STYLE
  2
STANDARD
 70
     0
 40
0.0
 41
1.0
 50
0.0
 71
     0
 42
0.2
  3
txt
  4

  0
STYLE
  2
ANNOTATIVE
 70
     0
 40
0.0
 41
1.0
 50
0.0
 71
     0
 42
0.2
  3
txt
  4

  0
ENDTAB
  0
TABLE
  2
VIEW
 70
     0
  0
ENDTAB
  0
TABLE
  2
UCS
 70
     0
  0
ENDTAB
  0
TABLE
  2
APPID
 70
     4
  0
APPID
  2
ACAD
 70
     0
  0
APPID
  2
ACADANNOTATIVE
 70
     0
  0
APPID
  2
ACAD_NAV_VCDISPLAY
 70
     0
  0
APPID
  2
ACAD_MLEADERVER
 70
     0
  0
ENDTAB
  0
TABLE
  2
DIMSTYLE
 70
     2
  0
DIMSTYLE
  2
STANDARD
 70
     0
  3

  4

  5

  6

  7

 40
1.0
 41
0.18
 42
0.0625
 43
0.38
 44
0.18
 45
0.0
 46
0.0
 47
0.0
 48
0.0
140
0.18
141
0.09
142
0.0
143
25.3999999999999986
144
1.0
145
0.0
146
1.0
147
0.09
 71
     0
 72
     0
 73
     1
 74
     1
 75
     0
 76
     0
 77
     0
 78
     0
170
     0
171
     2
172
     0
173
     0
174
     0
175
     0
176
     0
177
     0
178
     0
  0
DIMSTYLE
  2
ANNOTATIVE
 70
     0
  3

  4

  5

  6

  7

 40
1.0
 41
0.18
 42
0.0625
 43
0.38
 44
0.18
 45
0.0
 46
0.0
 47
0.0
 48
0.0
140
0.18
141
0.09
142
0.0
143
25.3999999999999986
144
1.0
145
0.0
146
1.0
147
0.09
 71
     0
 72
     0
 73
     1
 74
     1
 75
     0
 76
     0
 77
     0
 78
     0
170
     0
171
     2
172
     0
173
     0
174
     0
175
     0
176
     0
177
     0
178
     0
  0
ENDTAB
  0
ENDSEC
  0
SECTION
  2
BLOCKS
  0
BLOCK
  8
0
  2
$MODEL_SPACE
 70
     0
 10
0.0
 20
0.0
 30
0.0
  3
$MODEL_SPACE
  1

  0
ENDBLK
  5
72
  8
0
  0
BLOCK
 67
     1
  8
0
  2
$PAPER_SPACE
 70
     0
 10
0.0
 20
0.0
 30
0.0
  3
$PAPER_SPACE
  1

  0
ENDBLK
  5
6E
 67
     1
  8
0
  0
BLOCK
  8
0
  2
RECT
 70
     0
 10
0.0
 20
0.0
 30
0.0
  3
RECT
  1

  0
SOLID
  5
7A
  8
0
 10
-0.5
 20
-0.5
 30
0.0
 11
0.5
 21
-0.5
 31
0.0
 12
-0.5
 22
0.5
 32
0.0
 13
0.5
 23
0.5
 33
0.0
  0
ENDBLK
  5
7B
  8
0
  0
BLOCK
  8
0
  2
PIE
 70
     0
 10
0.0
 20
0.0
 30
0.0
  3
PIE
  1

  0
CIRCLE
  5
7E
  8
0
 10
0.0
 20
0.0
 30
0.0
 40
0.5
  0
ENDBLK
  5
7F
  8
0
  0
BLOCK
  8
0
  2
OCTAGONP
 70
     0
 10
0.0
 20
0.0
 30
0.0
  3
OCTAGONP
  1

  0
POLYLINE
  5
82
  8
0
 66
     1
 10
0.0
 20
0.0
 30
0.0
 70
     1
  0
VERTEX
  5
405
  8
0
 10
-0.5
 20
-0.2071
 30
0.0
  0
VERTEX
  5
406
  8
0
 10
-0.5
 20
0.2071
 30
0.0
  0
VERTEX
  5
407
  8
0
 10
-0.2071
 20
0.5
 30
0.0
  0
VERTEX
  5
408
  8
0
 10
0.2071
 20
0.5
 30
0.0
  0
VERTEX
  5
409
  8
0
 10
0.5
 20
0.2071
 30
0.0
  0
VERTEX
  5
40A
  8
0
 10
0.5
 20
-0.2071
 30
0.0
  0
VERTEX
  5
40B
  8
0
 10
0.2071
 20
-0.5
 30
0.0
  0
VERTEX
  5
40C
  8
0
 10
-0.2071
 20
-0.5
 30
0.0
  0
SEQEND
  5
40D
  8
0
  0
ENDBLK
  5
8C
  8
0
  0
BLOCK
  8
0
  2
SQUAREP
 70
     0
 10
0.0
 20
0.0
 30
0.0
  3
SQUAREP
  1

  0
SOLID
  5
8F
  8
0
 10
-0.5
 20
-0.5
 30
0.0
 11
0.5
 21
-0.5
 31
0.0
 12
-0.5
 22
0.5
 32
0.0
 13
0.5
 23
0.5
 33
0.0
  0
ENDBLK
  5
90
  8
0
  0
BLOCK
  8
0
  2
ROUNDP
 70
     0
 10
0.0
 20
0.0
 30
0.0
  3
ROUNDP
  1

  0
CIRCLE
  5
93
  8
0
 10
0.0
 20
0.0
 30
0.0
 40
0.5
  0
ENDBLK
  5
94
  8
0
  0
BLOCK
  8
0
  2
ANNULUSP
 70
     0
 10
0.0
 20
0.0
 30
0.0
  3
ANNULUSP
  1

  0
CIRCLE
  5
97
  8
0
 10
0.0
 20
0.0
 30
0.0
 40
0.5
  0
ENDBLK
  5
98
  8
0
  0
BLOCK
  8
0
  2
THERMALP
 70
     0
 10
0.0
 20
0.0
 30
0.0
  3
THERMALP
  1

  0
POLYLINE
  5
9B
  8
0
 66
     1
 10
0.0
 20
0.0
 30
0.0
 70
     1
  0
VERTEX
  5
40E
  8
0
 10
-0.2379
 20
0.4
 30
0.0
  0
VERTEX
  5
40F
  8
0
 10
0.2379
 20
0.4
 30
0.0
 42
1.0
  0
VERTEX
  5
410
  8
0
 10
0.2379
 20
0.5
 30
0.0
  0
VERTEX
  5
411
  8
0
 10
-0.2379
 20
0.5
 30
0.0
 42
1.0
  0
SEQEND
  5
412
  8
0
  0
POLYLINE
  5
A1
  8
0
 66
     1
 10
0.0
 20
0.0
 30
0.0
 70
     1
  0
VERTEX
  5
413
  8
0
 10
0.4
 20
0.2379
 30
0.0
  0
VERTEX
  5
414
  8
0
 10
0.4
 20
-0.2379
 30
0.0
 42
1.0
  0
VERTEX
  5
415
  8
0
 10
0.5
 20
-0.2379
 30
0.0
  0
VERTEX
  5
416
  8
0
 10
0.5
 20
0.2379
 30
0.0
 42
1.0
  0
SEQEND
  5
417
  8
0
  0
POLYLINE
  5
A7
  8
0
 66
     1
 10
0.0
 20
0.0
 30
0.0
 70
     1
  0
VERTEX
  5
418
  8
0
 10
0.2379
 20
-0.4
 30
0.0
  0
VERTEX
  5
419
  8
0
 10
-0.2379
 20
-0.4
 30
0.0
 42
1.0
  0
VERTEX
  5
41A
  8
0
 10
-0.2379
 20
-0.5
 30
0.0
  0
VERTEX
  5
41B
  8
0
 10
0.2379
 20
-0.5
 30
0.0
 42
1.0
  0
SEQEND
  5
41C
  8
0
  0
POLYLINE
  5
AD
  8
0
 66
     1
 10
0.0
 20
0.0
 30
0.0
 70
     1
  0
VERTEX
  5
41D
  8
0
 10
-0.4
 20
-0.2379
 30
0.0
  0
VERTEX
  5
41E
  8
0
 10
-0.4
 20
0.2379
 30
0.0
 42
1.0
  0
VERTEX
  5
41F
  8
0
 10
-0.5
 20
0.2379
 30
0.0
  0
VERTEX
  5
420
  8
0
 10
-0.5
 20
-0.2379
 30
0.0
 42
1.0
  0
SEQEND
  5
421
  8
0
  0
ENDBLK
  5
B3
  8
0
  0
BLOCK
  8
0
  2
OCTAGONV
 70
     0
 10
0.0
 20
0.0
 30
0.0
  3
OCTAGONV
  1

  0
POLYLINE
  5
B6
  8
0
 66
     1
 10
0.0
 20
0.0
 30
0.0
 70
     1
  0
VERTEX
  5
422
  8
0
 10
-0.5
 20
-0.2071
 30
0.0
  0
VERTEX
  5
423
  8
0
 10
-0.5
 20
0.2071
 30
0.0
  0
VERTEX
  5
424
  8
0
 10
-0.2071
 20
0.5
 30
0.0
  0
VERTEX
  5
425
  8
0
 10
0.2071
 20
0.5
 30
0.0
  0
VERTEX
  5
426
  8
0
 10
0.5
 20
0.2071
 30
0.0
  0
VERTEX
  5
427
  8
0
 10
0.5
 20
-0.2071
 30
0.0
  0
VERTEX
  5
428
  8
0
 10
0.2071
 20
-0.5
 30
0.0
  0
VERTEX
  5
429
  8
0
 10
-0.2071
 20
-0.5
 30
0.0
  0
SEQEND
  5
42A
  8
0
  0
ENDBLK
  5
C0
  8
0
  0
BLOCK
  8
0
  2
SQUAREV
 70
     0
 10
0.0
 20
0.0
 30
0.0
  3
SQUAREV
  1

  0
SOLID
  5
C3
  8
0
 10
-0.5
 20
-0.5
 30
0.0
 11
0.5
 21
-0.5
 31
0.0
 12
-0.5
 22
0.5
 32
0.0
 13
0.5
 23
0.5
 33
0.0
  0
ENDBLK
  5
C4
  8
0
  0
BLOCK
  8
0
  2
ROUNDV
 70
     0
 10
0.0
 20
0.0
 30
0.0
  3
ROUNDV
  1

  0
CIRCLE
  5
C7
  8
0
 10
0.0
 20
0.0
 30
0.0
 40
0.5
  0
ENDBLK
  5
C8
  8
0
  0
BLOCK
  8
0
  2
ANNULUSV
 70
     0
 10
0.0
 20
0.0
 30
0.0
  3
ANNULUSV
  1

  0
CIRCLE
  5
CB
  8
0
 10
0.0
 20
0.0
 30
0.0
 40
0.5
  0
ENDBLK
  5
CC
  8
0
  0
BLOCK
  8
0
  2
THERMALV
 70
     0
 10
0.0
 20
0.0
 30
0.0
  3
THERMALV
  1

  0
POLYLINE
  5
CF
  8
0
 66
     1
 10
0.0
 20
0.0
 30
0.0
 70
     1
  0
VERTEX
  5
42B
  8
0
 10
-0.2379
 20
0.4
 30
0.0
  0
VERTEX
  5
42C
  8
0
 10
0.2379
 20
0.4
 30
0.0
 42
1.0
  0
VERTEX
  5
42D
  8
0
 10
0.2379
 20
0.5
 30
0.0
  0
VERTEX
  5
42E
  8
0
 10
-0.2379
 20
0.5
 30
0.0
 42
1.0
  0
SEQEND
  5
42F
  8
0
  0
POLYLINE
  5
D5
  8
0
 66
     1
 10
0.0
 20
0.0
 30
0.0
 70
     1
  0
VERTEX
  5
430
  8
0
 10
0.4
 20
0.2379
 30
0.0
  0
VERTEX
  5
431
  8
0
 10
0.4
 20
-0.2379
 30
0.0
 42
1.0
  0
VERTEX
  5
432
  8
0
 10
0.5
 20
-0.2379
 30
0.0
  0
VERTEX
  5
433
  8
0
 10
0.5
 20
0.2379
 30
0.0
 42
1.0
  0
SEQEND
  5
434
  8
0
  0
POLYLINE
  5
DB
  8
0
 66
     1
 10
0.0
 20
0.0
 30
0.0
 70
     1
  0
VERTEX
  5
435
  8
0
 10
0.2379
 20
-0.4
 30
0.0
  0
VERTEX
  5
436
  8
0
 10
-0.2379
 20
-0.4
 30
0.0
 42
1.0
  0
VERTEX
  5
437
  8
0
 10
-0.2379
 20
-0.5
 30
0.0
  0
VERTEX
  5
438
  8
0
 10
0.2379
 20
-0.5
 30
0.0
 42
1.0
  0
SEQEND
  5
439
  8
0
  0
POLYLINE
  5
E1
  8
0
 66
     1
 10
0.0
 20
0.0
 30
0.0
 70
     1
  0
VERTEX
  5
43A
  8
0
 10
-0.4
 20
-0.2379
 30
0.0
  0
VERTEX
  5
43B
  8
0
 10
-0.4
 20
0.2379
 30
0.0
 42
1.0
  0
VERTEX
  5
43C
  8
0
 10
-0.5
 20
0.2379
 30
0.0
  0
VERTEX
  5
43D
  8
0
 10
-0.5
 20
-0.2379
 30
0.0
 42
1.0
  0
SEQEND
  5
43E
  8
0
  0
ENDBLK
  5
E7
  8
0
  0
BLOCK
  8
0
  2
LONGP100
 70
     0
 10
0.0
 20
0.0
 30
0.0
  3
LONGP100
  1

  0
POLYLINE
  5
EA
  8
0
 66
     1
 10
0.0
 20
0.0
 30
0.0
 70
     1
  0
VERTEX
  5
43F
  8
0
 10
-0.5
 20
-0.5
 30
0.0
  0
VERTEX
  5
440
  8
0
 10
0.5
 20
-0.5
 30
0.0
 42
1.0
  0
VERTEX
  5
441
  8
0
 10
0.5
 20
0.5
 30
0.0
  0
VERTEX
  5
442
  8
0
 10
-0.5
 20
0.5
 30
0.0
 42
1.0
  0
SEQEND
  5
443
  8
0
  0
ENDBLK
  5
F0
  8
0
  0
ENDSEC
  0
SECTION
  2
ENTITIES
  0
LINE
  5
F1
  8
0
 10
0.0
 20
0.0
 30
0.0
 11
38.0050000000000026
 21
0.0
 31
0.0
  0
LINE
  5
F2
  8
0
 10
38.0050000000000026
 20
0.0
 30
0.0
 11
38.0
 21
66.0
 31
0.0
  0
LINE
  5
F3
  8
0
 10
38.0
 20
66.0
 30
0.0
 11
0.0
 21
66.0
 31
0.0
  0
LINE
  5
F4
  8
0
 10
0.0
 20
66.0
 30
0.0
 11
0.0
 21
0.0
 31
0.0
  0
CIRCLE
  5
F5
  8
0
 10
35.0
 20
10.0
 30
0.0
 40
1.5494000000000001
  0
CIRCLE
  5
F6
  8
0
 10
35.0
 20
30.0
 30
0.0
 40
1.5494000000000001
  0
SOLID
  5
298
  8
0
 10
26.2250000000000014
 20
15.2998999999999992
 30
0.0
 11
25.6750000000000007
 21
15.2998999999999992
 31
0.0
 12
26.2250000000000014
 22
14.0998999999999999
 32
0.0
 13
25.6750000000000007
 23
14.0998999999999999
 33
0.0
  0
SOLID
  5
299
  8
0
 10
24.3249999999999993
 20
15.2998999999999992
 30
0.0
 11
23.7749999999999986
 21
15.2998999999999992
 31
0.0
 12
24.3249999999999993
 22
14.0998999999999999
 32
0.0
 13
23.7749999999999986
 23
14.0998999999999999
 33
0.0
  0
SOLID
  5
29A
  8
0
 10
24.3249999999999993
 20
17.9000999999999983
 30
0.0
 11
23.7749999999999986
 21
17.9000999999999983
 31
0.0
 12
24.3249999999999993
 22
16.7000999999999991
 32
0.0
 13
23.7749999999999986
 23
16.7000999999999991
 33
0.0
  0
SOLID
  5
29B
  8
0
 10
25.2749999999999986
 20
17.9000999999999983
 30
0.0
 11
24.7250000000000014
 21
17.9000999999999983
 31
0.0
 12
25.2749999999999986
 22
16.7000999999999991
 32
0.0
 13
24.7250000000000014
 23
16.7000999999999991
 33
0.0
  0
SOLID
  5
29C
  8
0
 10
26.2250000000000014
 20
17.9000999999999983
 30
0.0
 11
25.6750000000000007
 21
17.9000999999999983
 31
0.0
 12
26.2250000000000014
 22
16.7000999999999991
 32
0.0
 13
25.6750000000000007
 23
16.7000999999999991
 33
0.0
  0
SOLID
  5
29D
  8
0
 10
16.5249999999999986
 20
1.75
 30
0.0
 11
16.5249999999999986
 21
6.25
 31
0.0
 12
14.7249999999999996
 22
1.75
 32
0.0
 13
14.7249999999999996
 23
6.25
 33
0.0
  0
SOLID
  5
29E
  8
0
 10
13.2750000000000004
 20
1.75
 30
0.0
 11
13.2750000000000004
 21
6.25
 31
0.0
 12
11.4749999999999996
 22
1.75
 32
0.0
 13
11.4749999999999996
 23
6.25
 33
0.0
  0
SOLID
  5
29F
  8
0
 10
7.6099999999999994
 20
35.1950000000000003
 30
0.0
 11
7.6099999999999994
 21
36.1049999999999969
 31
0.0
 12
6.3899999999999997
 22
35.1950000000000003
 32
0.0
 13
6.3899999999999997
 23
36.1049999999999969
 33
0.0
  0
SOLID
  5
2A0
  8
0
 10
7.6099999999999994
 20
31.8949999999999996
 30
0.0
 11
7.6099999999999994
 21
32.8049999999999997
 31
0.0
 12
6.3899999999999997
 22
31.8950000000000102
 32
0.0
 13
6.3899999999999997
 23
32.8049999999999997
 33
0.0
  0
SOLID
  5
2A1
  8
0
 10
10.6999999999999993
 20
39.8500000000000014
 30
0.0
 11
10.6999999999999993
 21
39.4500000000000028
 31
0.0
 12
11.3000000000000007
 22
39.8500000000000014
 32
0.0
 13
11.3000000000000007
 23
39.4500000000000028
 33
0.0
  0
SOLID
  5
2A2
  8
0
 10
10.6999999999999993
 20
39.2000000000000028
 30
0.0
 11
10.6999999999999993
 21
38.7999999999999972
 31
0.0
 12
11.3000000000000007
 22
39.2000000000000028
 32
0.0
 13
11.3000000000000007
 23
38.7999999999999972
 33
0.0
  0
SOLID
  5
2A3
  8
0
 10
10.6999999999999993
 20
38.5499999999999972
 30
0.0
 11
10.6999999999999993
 21
38.1499999999999986
 31
0.0
 12
11.3000000000000007
 22
38.5499999999999972
 32
0.0
 13
11.3000000000000007
 23
38.1499999999999986
 33
0.0
  0
SOLID
  5
2A4
  8
0
 10
8.6999999999999993
 20
38.5499999999999972
 30
0.0
 11
8.6999999999999993
 21
38.1499999999999986
 31
0.0
 12
9.3000000000000007
 22
38.5499999999999972
 32
0.0
 13
9.3000000000000007
 23
38.1499999999999986
 33
0.0
  0
SOLID
  5
2A5
  8
0
 10
8.6999999999999993
 20
39.2000000000000028
 30
0.0
 11
8.6999999999999993
 21
38.7999999999999972
 31
0.0
 12
9.3000000000000007
 22
39.2000000000000028
 32
0.0
 13
9.3000000000000007
 23
38.7999999999999972
 33
0.0
  0
SOLID
  5
2A6
  8
0
 10
8.6999999999999993
 20
39.8500000000000014
 30
0.0
 11
8.6999999999999993
 21
39.4500000000000028
 31
0.0
 12
9.3000000000000007
 22
39.8500000000000014
 32
0.0
 13
9.3000000000000007
 23
39.4500000000000028
 33
0.0
  0
SOLID
  5
2A7
  8
0
 10
22.6499999999999986
 20
63.7000000000000028
 30
0.0
 11
23.0500000000000007
 21
63.7000000000000028
 31
0.0
 12
22.6499999999999986
 22
64.2999999999999829
 32
0.0
 13
23.0500000000000007
 23
64.2999999999999829
 33
0.0
  0
SOLID
  5
2A8
  8
0
 10
23.3000000000000007
 20
63.7000000000000028
 30
0.0
 11
23.6999999999999993
 21
63.7000000000000028
 31
0.0
 12
23.3000000000000007
 22
64.2999999999999829
 32
0.0
 13
23.6999999999999993
 23
64.2999999999999829
 33
0.0
  0
SOLID
  5
2A9
  8
0
 10
23.9499999999999993
 20
63.7000000000000028
 30
0.0
 11
24.3500000000000014
 21
63.7000000000000028
 31
0.0
 12
23.9499999999999993
 22
64.2999999999999829
 32
0.0
 13
24.3500000000000014
 23
64.2999999999999829
 33
0.0
  0
SOLID
  5
2AA
  8
0
 10
23.9499999999999993
 20
61.7000000000000028
 30
0.0
 11
24.3500000000000014
 21
61.7000000000000028
 31
0.0
 12
23.9499999999999993
 22
62.2999999999999972
 32
0.0
 13
24.3500000000000014
 23
62.2999999999999972
 33
0.0
  0
SOLID
  5
2AB
  8
0
 10
23.3000000000000007
 20
61.7000000000000028
 30
0.0
 11
23.6999999999999993
 21
61.7000000000000028
 31
0.0
 12
23.3000000000000007
 22
62.2999999999999972
 32
0.0
 13
23.6999999999999993
 23
62.2999999999999972
 33
0.0
  0
SOLID
  5
2AC
  8
0
 10
22.6499999999999986
 20
61.7000000000000028
 30
0.0
 11
23.0500000000000007
 21
61.7000000000000028
 31
0.0
 12
22.6499999999999986
 22
62.2999999999999972
 32
0.0
 13
23.0500000000000007
 23
62.2999999999999972
 33
0.0
  0
SOLID
  5
2AD
  8
0
 10
35.1950000000000003
 20
62.3900000000000006
 30
0.0
 11
36.1049999999999969
 21
62.3900000000000006
 31
0.0
 12
35.1950000000000003
 22
63.6099999999999994
 32
0.0
 13
36.1049999999999969
 23
63.6099999999999994
 33
0.0
  0
SOLID
  5
2AE
  8
0
 10
31.8950000000000102
 20
62.3900000000000006
 30
0.0
 11
32.8049999999999997
 21
62.3900000000000006
 31
0.0
 12
31.8950000000000102
 22
63.6099999999999994
 32
0.0
 13
32.8049999999999997
 23
63.6099999999999994
 33
0.0
  0
SOLID
  5
2AF
  8
0
 10
20.6099999999999994
 20
10.1950000000000003
 30
0.0
 11
20.6099999999999994
 21
11.1050000000000004
 31
0.0
 12
19.3900000000000006
 22
10.1950000000000003
 32
0.0
 13
19.3900000000000006
 23
11.1050000000000004
 33
0.0
  0
SOLID
  5
2B0
  8
0
 10
20.6099999999999994
 20
6.8949999999999978
 30
0.0
 11
20.6099999999999994
 21
7.8049999999999979
 31
0.0
 12
19.3900000000000006
 22
6.8949999999999978
 32
0.0
 13
19.3900000000000006
 23
7.8049999999999979
 33
0.0
  0
SOLID
  5
2B1
  8
0
 10
15.2998999999999992
 20
7.7750000000000004
 30
0.0
 11
15.2998999999999992
 21
8.3250000000000011
 31
0.0
 12
14.0998999999999999
 22
7.7750000000000004
 32
0.0
 13
14.0998999999999999
 23
8.3250000000000011
 33
0.0
  0
SOLID
  5
2B2
  8
0
 10
15.2998999999999992
 20
9.6749999999999972
 30
0.0
 11
15.2998999999999992
 21
10.2249999999999996
 31
0.0
 12
14.0998999999999999
 22
9.6749999999999972
 32
0.0
 13
14.0998999999999999
 23
10.2249999999999996
 33
0.0
  0
SOLID
  5
2B3
  8
0
 10
17.9000999999999983
 20
9.6749999999999972
 30
0.0
 11
17.9000999999999983
 21
10.2249999999999996
 31
0.0
 12
16.7000999999999991
 22
9.6749999999999972
 32
0.0
 13
16.7000999999999991
 23
10.2249999999999996
 33
0.0
  0
SOLID
  5
2B4
  8
0
 10
17.9000999999999983
 20
8.7249999999999996
 30
0.0
 11
17.9000999999999983
 21
9.2750000000000004
 31
0.0
 12
16.7000999999999991
 22
8.7249999999999996
 32
0.0
 13
16.7000999999999991
 23
9.2750000000000004
 33
0.0
  0
SOLID
  5
2B5
  8
0
 10
17.9000999999999983
 20
7.7750000000000004
 30
0.0
 11
17.9000999999999983
 21
8.3250000000000011
 31
0.0
 12
16.7000999999999991
 22
7.7750000000000004
 32
0.0
 13
16.7000999999999991
 23
8.3250000000000011
 33
0.0
  0
SOLID
  5
2B6
  8
0
 10
18.2999000000000009
 20
57.7749999999999915
 30
0.0
 11
18.2999000000000009
 21
58.3249999999999886
 31
0.0
 12
17.0999000000000017
 22
57.7749999999999915
 32
0.0
 13
17.0999000000000017
 23
58.3249999999999886
 33
0.0
  0
SOLID
  5
2B7
  8
0
 10
18.2999000000000009
 20
59.6750000000000114
 30
0.0
 11
18.2999000000000009
 21
60.2250000000000014
 31
0.0
 12
17.0999000000000017
 22
59.6750000000000114
 32
0.0
 13
17.0999000000000017
 23
60.2250000000000014
 33
0.0
  0
SOLID
  5
2B8
  8
0
 10
20.9000999999999983
 20
59.6750000000000114
 30
0.0
 11
20.9000999999999983
 21
60.2250000000000014
 31
0.0
 12
19.7000999999999991
 22
59.6750000000000114
 32
0.0
 13
19.7000999999999991
 23
60.2250000000000014
 33
0.0
  0
SOLID
  5
2B9
  8
0
 10
20.9000999999999983
 20
58.7250000000000014
 30
0.0
 11
20.9000999999999983
 21
59.2749999999999986
 31
0.0
 12
19.7000999999999991
 22
58.7250000000000014
 32
0.0
 13
19.7000999999999991
 23
59.2749999999999986
 33
0.0
  0
SOLID
  5
2BA
  8
0
 10
20.9000999999999983
 20
57.7749999999999915
 30
0.0
 11
20.9000999999999983
 21
58.3249999999999886
 31
0.0
 12
19.7000999999999991
 22
57.7749999999999915
 32
0.0
 13
19.7000999999999991
 23
58.3249999999999886
 33
0.0
  0
SOLID
  5
2BB
  8
0
 10
31.2999000000000009
 20
57.7749999999999915
 30
0.0
 11
31.2999000000000009
 21
58.3249999999999886
 31
0.0
 12
30.0999000000000017
 22
57.7749999999999915
 32
0.0
 13
30.0999000000000017
 23
58.3249999999999886
 33
0.0
  0
SOLID
  5
2BC
  8
0
 10
31.2999000000000009
 20
59.6750000000000114
 30
0.0
 11
31.2999000000000009
 21
60.2250000000000014
 31
0.0
 12
30.0999000000000017
 22
59.6750000000000114
 32
0.0
 13
30.0999000000000017
 23
60.2250000000000014
 33
0.0
  0
SOLID
  5
2BD
  8
0
 10
33.9001000000000019
 20
59.6750000000000114
 30
0.0
 11
33.9001000000000019
 21
60.2250000000000014
 31
0.0
 12
32.7000999999999991
 22
59.6750000000000114
 32
0.0
 13
32.7000999999999991
 23
60.2250000000000014
 33
0.0
  0
SOLID
  5
2BE
  8
0
 10
33.9001000000000019
 20
58.7250000000000014
 30
0.0
 11
33.9001000000000019
 21
59.2749999999999986
 31
0.0
 12
32.7000999999999991
 22
58.7250000000000014
 32
0.0
 13
32.7000999999999991
 23
59.2749999999999986
 33
0.0
  0
SOLID
  5
2BF
  8
0
 10
33.9001000000000019
 20
57.7749999999999915
 30
0.0
 11
33.9001000000000019
 21
58.3249999999999886
 31
0.0
 12
32.7000999999999991
 22
57.7749999999999915
 32
0.0
 13
32.7000999999999991
 23
58.3249999999999886
 33
0.0
  0
SOLID
  5
2C0
  8
0
 10
25.2999000000000009
 20
57.7749999999999915
 30
0.0
 11
25.2999000000000009
 21
58.3249999999999886
 31
0.0
 12
24.0999000000000017
 22
57.7749999999999915
 32
0.0
 13
24.0999000000000017
 23
58.3249999999999886
 33
0.0
  0
SOLID
  5
2C1
  8
0
 10
25.2999000000000009
 20
59.6750000000000114
 30
0.0
 11
25.2999000000000009
 21
60.2250000000000014
 31
0.0
 12
24.0999000000000017
 22
59.6750000000000114
 32
0.0
 13
24.0999000000000017
 23
60.2250000000000014
 33
0.0
  0
SOLID
  5
2C2
  8
0
 10
27.9000999999999983
 20
59.6750000000000114
 30
0.0
 11
27.9000999999999983
 21
60.2250000000000014
 31
0.0
 12
26.7000999999999991
 22
59.6750000000000114
 32
0.0
 13
26.7000999999999991
 23
60.2250000000000014
 33
0.0
  0
SOLID
  5
2C3
  8
0
 10
27.9000999999999983
 20
58.7250000000000014
 30
0.0
 11
27.9000999999999983
 21
59.2749999999999986
 31
0.0
 12
26.7000999999999991
 22
58.7250000000000014
 32
0.0
 13
26.7000999999999991
 23
59.2749999999999986
 33
0.0
  0
SOLID
  5
2C4
  8
0
 10
27.9000999999999983
 20
57.7749999999999915
 30
0.0
 11
27.9000999999999983
 21
58.3249999999999886
 31
0.0
 12
26.7000999999999991
 22
57.7749999999999915
 32
0.0
 13
26.7000999999999991
 23
58.3249999999999886
 33
0.0
  0
SOLID
  5
2C5
  8
0
 10
3.0949999999999989
 20
36.625
 30
0.0
 11
3.0949999999999989
 21
36.2250000000000014
 31
0.0
 12
4.4450000000000003
 22
36.625
 32
0.0
 13
4.4450000000000003
 23
36.2250000000000014
 33
0.0
  0
SOLID
  5
2C6
  8
0
 10
3.0949999999999989
 20
37.2750000000000128
 30
0.0
 11
3.0949999999999989
 21
36.875
 31
0.0
 12
4.4450000000000003
 22
37.2750000000000128
 32
0.0
 13
4.4450000000000003
 23
36.875
 33
0.0
  0
SOLID
  5
2C7
  8
0
 10
3.0949999999999989
 20
37.9249999999999972
 30
0.0
 11
3.0949999999999989
 21
37.5249999999999986
 31
0.0
 12
4.4450000000000003
 22
37.9249999999999972
 32
0.0
 13
4.4450000000000003
 23
37.5249999999999986
 33
0.0
  0
SOLID
  5
2C8
  8
0
 10
3.0949999999999989
 20
38.5750000000000028
 30
0.0
 11
3.0949999999999989
 21
38.1749999999999972
 31
0.0
 12
4.4450000000000003
 22
38.5750000000000028
 32
0.0
 13
4.4450000000000003
 23
38.1749999999999972
 33
0.0
  0
SOLID
  5
2C9
  8
0
 10
3.0949999999999989
 20
39.2250000000000014
 30
0.0
 11
3.0949999999999989
 21
38.8250000000000028
 31
0.0
 12
4.4450000000000003
 22
39.2250000000000014
 32
0.0
 13
4.4450000000000003
 23
38.8250000000000028
 33
0.0
  0
SOLID
  5
2CA
  8
0
 10
2.8199999999999998
 20
35.6749999999999972
 30
0.0
 11
2.819999999999999
 21
33.5750000000000028
 31
0.0
 12
4.419999999999999
 22
35.6749999999999972
 32
0.0
 13
4.419999999999999
 23
33.5750000000000028
 33
0.0
  0
SOLID
  5
2CB
  8
0
 10
2.8199999999999998
 20
41.875
 30
0.0
 11
2.819999999999999
 21
39.7750000000000128
 31
0.0
 12
4.419999999999999
 22
41.875
 32
0.0
 13
4.419999999999999
 23
39.7750000000000128
 33
0.0
  0
SOLID
  5
2CC
  8
0
 10
0.1200000000000003
 20
37.4750000000000014
 30
0.0
 11
0.1199999999999999
 21
35.5750000000000028
 31
0.0
 12
2.02
 22
37.4750000000000014
 32
0.0
 13
2.0199999999999991
 23
35.5750000000000028
 33
0.0
  0
SOLID
  5
2CD
  8
0
 10
0.1200000000000003
 20
39.875
 30
0.0
 11
0.1199999999999999
 21
37.9749999999999872
 31
0.0
 12
2.02
 22
39.875
 32
0.0
 13
2.0199999999999991
 23
37.9749999999999872
 33
0.0
  0
SOLID
  5
2CE
  8
0
 10
0.1200000000000003
 20
42.4249999999999829
 30
0.0
 11
0.1199999999999999
 21
40.6249999999999929
 31
0.0
 12
2.02
 22
42.4249999999999829
 32
0.0
 13
2.0199999999999991
 23
40.6249999999999929
 33
0.0
  0
SOLID
  5
2CF
  8
0
 10
0.1200000000000003
 20
34.8250000000000028
 30
0.0
 11
0.1199999999999999
 21
33.0249999999999986
 31
0.0
 12
2.02
 22
34.8250000000000028
 32
0.0
 13
2.0199999999999991
 23
33.0249999999999986
 33
0.0
  0
SOLID
  5
2D0
  8
0
 10
33.2999000000000009
 20
53.7749999999999986
 30
0.0
 11
33.2999000000000009
 21
54.3250000000000028
 31
0.0
 12
32.0998999999999981
 22
53.7749999999999986
 32
0.0
 13
32.0998999999999981
 23
54.3250000000000028
 33
0.0
  0
SOLID
  5
2D1
  8
0
 10
33.2999000000000009
 20
55.6749999999999972
 30
0.0
 11
33.2999000000000009
 21
56.2250000000000014
 31
0.0
 12
32.0998999999999981
 22
55.6749999999999972
 32
0.0
 13
32.0998999999999981
 23
56.2250000000000014
 33
0.0
  0
SOLID
  5
2D2
  8
0
 10
35.9001000000000019
 20
55.6749999999999972
 30
0.0
 11
35.9001000000000019
 21
56.2250000000000014
 31
0.0
 12
34.7000999999999991
 22
55.6749999999999972
 32
0.0
 13
34.7000999999999991
 23
56.2250000000000014
 33
0.0
  0
SOLID
  5
2D3
  8
0
 10
35.9001000000000019
 20
54.7250000000000014
 30
0.0
 11
35.9001000000000019
 21
55.2749999999999915
 31
0.0
 12
34.7000999999999991
 22
54.7250000000000014
 32
0.0
 13
34.7000999999999991
 23
55.2749999999999915
 33
0.0
  0
SOLID
  5
2D4
  8
0
 10
35.9001000000000019
 20
53.7749999999999986
 30
0.0
 11
35.9001000000000019
 21
54.3250000000000028
 31
0.0
 12
34.7000999999999991
 22
53.7749999999999986
 32
0.0
 13
34.7000999999999991
 23
54.3250000000000028
 33
0.0
  0
SOLID
  5
2D5
  8
0
 10
18.9569970773009189
 20
26.0530203820042914
 30
0.0
 11
18.7802203820042806
 21
26.229797077300919
 31
0.0
 12
18.1791796179957217
 22
25.27520292269908
 32
0.0
 13
18.0024029226990798
 23
25.4519796179957183
 33
0.0
  0
SOLID
  5
2D6
  8
0
 10
18.6034970773009185
 20
26.4066203820042809
 30
0.0
 11
18.4267203820042802
 21
26.5833970773009192
 31
0.0
 12
17.8256796179957107
 22
25.6288029226990801
 32
0.0
 13
17.6489029226990795
 23
25.8055796179957184
 33
0.0
  0
SOLID
  5
2D7
  8
0
 10
18.2498970773009184
 20
26.7601203820042812
 30
0.0
 11
18.0731203820042801
 21
26.9368970773009195
 31
0.0
 12
17.4720796179957212
 22
25.9823029226990805
 32
0.0
 13
17.2953029226990793
 23
26.1590796179957117
 33
0.0
  0
SOLID
  5
2D8
  8
0
 10
17.8963970773009216
 20
27.1137203820042814
 30
0.0
 11
17.7196203820042797
 21
27.2904970773009197
 31
0.0
 12
17.1185796179957102
 22
26.3359029226990806
 32
0.0
 13
16.9418029226990789
 23
26.5126796179957189
 33
0.0
  0
SOLID
  5
2D9
  8
0
 10
17.5427970773009214
 20
27.4672203820042817
 30
0.0
 11
17.3660203820042796
 21
27.64399707730092
 31
0.0
 12
16.7649796179957207
 22
26.689402922699081
 32
0.0
 13
16.5882029226990788
 23
26.8661796179957193
 33
0.0
  0
SOLID
  5
2DA
  8
0
 10
17.189297077300921
 20
27.8208203820042783
 30
0.0
 11
17.0125203820042792
 21
27.9975970773009202
 31
0.0
 12
16.4114796179957096
 22
27.0430029226990811
 32
0.0
 13
16.2347029226990784
 23
27.2197796179957194
 33
0.0
  0
SOLID
  5
2DB
  8
0
 10
16.8356970773009209
 20
28.1743203820042787
 30
0.0
 11
16.658920382004279
 21
28.3510970773009205
 31
0.0
 12
16.0578796179957202
 22
27.3965029226990815
 32
0.0
 13
15.8811029226990801
 23
27.5732796179957198
 33
0.0
  0
SOLID
  5
2DC
  8
0
 10
16.4820970773009208
 20
28.5279203820042788
 30
0.0
 11
16.3053203820042789
 21
28.7046970773009207
 31
0.0
 12
15.70427961799572
 22
27.7501029226990816
 32
0.0
 13
15.5275029226990799
 23
27.9268796179957199
 33
0.0
  0
SOLID
  5
2DD
  8
0
 10
16.1285970773009204
 20
28.8814203820042792
 30
0.0
 11
15.9518203820042803
 21
29.0581970773009211
 31
0.0
 12
15.3507796179957108
 22
28.1036029226990784
 32
0.0
 13
15.1740029226990796
 23
28.2803796179957203
 33
0.0
  0
SOLID
  5
2DE
  8
0
 10
15.7749970773009203
 20
29.2350203820042793
 30
0.0
 11
15.5982203820042802
 21
29.4117970773009212
 31
0.0
 12
14.9971796179957195
 22
28.4572029226990786
 32
0.0
 13
14.8204029226990794
 23
28.6339796179957204
 33
0.0
  0
SOLID
  5
2DF
  8
0
 10
15.4214970773009199
 20
29.5885203820042797
 30
0.0
 11
15.2447203820042798
 21
29.7652970773009216
 31
0.0
 12
14.6436796179957103
 22
28.810702922699079
 32
0.0
 13
14.4669029226990808
 23
28.9874796179957208
 33
0.0
  0
SOLID
  5
2E0
  8
0
 10
15.0678970773009198
 20
29.9421203820042905
 30
0.0
 11
14.8911203820042797
 21
30.1188970773009217
 31
0.0
 12
14.2900796179957208
 22
29.1643029226990791
 32
0.0
 13
14.1133029226990807
 23
29.341079617995721
 33
0.0
  0
SOLID
  5
2E1
  8
0
 10
14.8911203820042797
 20
31.2856029226990806
 30
0.0
 11
15.0678970773009198
 21
31.4623796179957189
 31
0.0
 12
14.1133029226990807
 22
32.0634203820042814
 32
0.0
 13
14.2900796179957208
 23
32.2401970773009197
 33
0.0
  0
SOLID
  5
2E2
  8
0
 10
15.2447203820042798
 20
31.6392029226990914
 30
0.0
 11
15.4214970773009199
 21
31.8159796179957297
 31
0.0
 12
14.4669029226990808
 22
32.4170203820042886
 32
0.0
 13
14.6436796179957103
 23
32.5937970773009269
 33
0.0
  0
SOLID
  5
2E3
  8
0
 10
15.5982203820042802
 20
31.9927029226990811
 30
0.0
 11
15.7749970773009203
 21
32.1694796179957194
 31
0.0
 12
14.8204029226990794
 22
32.7705203820042783
 32
0.0
 13
14.9971796179957195
 23
32.9472970773009166
 33
0.0
  0
SOLID
  5
2E4
  8
0
 10
15.9518203820042803
 20
32.3463029226990813
 30
0.0
 11
16.1285970773009204
 21
32.5230796179957196
 31
0.0
 12
15.1740029226990796
 22
33.1241203820042784
 32
0.0
 13
15.3507796179957108
 23
33.3008970773009167
 33
0.0
  0
SOLID
  5
2E5
  8
0
 10
16.3053203820042789
 20
32.6998029226990923
 30
0.0
 11
16.4820970773009208
 21
32.8765796179957306
 31
0.0
 12
15.5275029226990799
 22
33.4776203820042824
 32
0.0
 13
15.70427961799572
 23
33.6543970773009207
 33
0.0
  0
SOLID
  5
2E6
  8
0
 10
16.658920382004279
 20
33.0534029226990924
 30
0.0
 11
16.8356970773009209
 21
33.2301796179957307
 31
0.0
 12
15.8811029226990801
 22
33.8312203820042896
 32
0.0
 13
16.0578796179957202
 23
34.0079970773009279
 33
0.0
  0
SOLID
  5
2E7
  8
0
 10
17.0125203820042792
 20
33.4069029226990821
 30
0.0
 11
17.189297077300921
 21
33.5836796179957204
 31
0.0
 12
16.2347029226990784
 22
34.1847203820042793
 32
0.0
 13
16.4114796179957096
 23
34.3614970773009176
 33
0.0
  0
SOLID
  5
2E8
  8
0
 10
17.3660203820042796
 20
33.7605029226990823
 30
0.0
 11
17.5427970773009214
 21
33.9372796179957206
 31
0.0
 12
16.5882029226990788
 22
34.5383203820042795
 32
0.0
 13
16.7649796179957207
 23
34.7150970773009178
 33
0.0
  0
SOLID
  5
2E9
  8
0
 10
17.7196203820042797
 20
34.1140029226990791
 30
0.0
 11
17.8963970773009216
 21
34.2907796179957174
 31
0.0
 12
16.9418029226990789
 22
34.8918203820042834
 32
0.0
 13
17.1185796179957102
 23
35.0685970773009217
 33
0.0
  0
SOLID
  5
2EA
  8
0
 10
18.0731203820042801
 20
34.4676029226990792
 30
0.0
 11
18.2498970773009184
 21
34.6443796179957175
 31
0.0
 12
17.2953029226990793
 22
35.2454203820042835
 32
0.0
 13
17.4720796179957212
 23
35.4221970773009218
 33
0.0
  0
SOLID
  5
2EB
  8
0
 10
18.4267203820042802
 20
34.8212029226990794
 30
0.0
 11
18.6034970773009185
 21
34.9979796179957177
 31
0.0
 12
17.6489029226990795
 22
35.5990203820042765
 32
0.0
 13
17.8256796179957107
 23
35.7757970773009077
 33
0.0
  0
SOLID
  5
2EC
  8
0
 10
18.7802203820042806
 20
35.1747029226990904
 30
0.0
 11
18.9569970773009189
 21
35.3514796179957216
 31
0.0
 12
18.0024029226990798
 22
35.9525203820042805
 32
0.0
 13
18.1791796179957217
 23
36.1292970773009188
 33
0.0
  0
SOLID
  5
2ED
  8
0
 10
21.0782970773009204
 20
35.9525203820042805
 30
0.0
 11
20.9015203820042785
 21
36.1292970773009188
 31
0.0
 12
20.3004796179957197
 22
35.1747029226990904
 32
0.0
 13
20.1237029226990813
 23
35.3514796179957216
 33
0.0
  0
SOLID
  5
2EE
  8
0
 10
21.4318970773009205
 20
35.5990203820042765
 30
0.0
 11
21.2551203820042787
 21
35.7757970773009077
 31
0.0
 12
20.6540796179957091
 22
34.8212029226990794
 32
0.0
 13
20.4773029226990815
 23
34.9979796179957177
 33
0.0
  0
SOLID
  5
2EF
  8
0
 10
21.7853970773009209
 20
35.2454203820042835
 30
0.0
 11
21.608620382004279
 21
35.4221970773009218
 31
0.0
 12
21.0075796179957202
 22
34.4676029226990792
 32
0.0
 13
20.8308029226990783
 23
34.6443796179957175
 33
0.0
  0
SOLID
  5
2F0
  8
0
 10
22.138997077300921
 20
34.8918203820042834
 30
0.0
 11
21.9622203820042792
 21
35.0685970773009217
 31
0.0
 12
21.3611796179957203
 22
34.1140029226990791
 32
0.0
 13
21.1844029226990784
 23
34.2907796179957174
 33
0.0
  0
SOLID
  5
2F1
  8
0
 10
22.4925970773009212
 20
34.5383203820042795
 30
0.0
 11
22.3158203820042793
 21
34.7150970773009178
 31
0.0
 12
21.7147796179957204
 22
33.7605029226990823
 32
0.0
 13
21.5380029226990786
 23
33.9372796179957206
 33
0.0
  0
SOLID
  5
2F2
  8
0
 10
22.8460970773009215
 20
34.1847203820042793
 30
0.0
 11
22.6693203820042797
 21
34.3614970773009176
 31
0.0
 12
22.0682796179957208
 22
33.4069029226990821
 32
0.0
 13
21.8915029226990789
 23
33.5836796179957204
 33
0.0
  0
SOLID
  5
2F3
  8
0
 10
23.1996970773009217
 20
33.8312203820042896
 30
0.0
 11
23.0229203820042905
 21
34.0079970773009279
 31
0.0
 12
22.4218796179957209
 22
33.0534029226990924
 32
0.0
 13
22.2451029226990791
 23
33.2301796179957307
 33
0.0
  0
SOLID
  5
2F4
  8
0
 10
23.5531970773009185
 20
33.4776203820042824
 30
0.0
 11
23.3764203820042802
 21
33.6543970773009207
 31
0.0
 12
22.7753796179957213
 22
32.6998029226990923
 32
0.0
 13
22.5986029226990794
 23
32.8765796179957306
 33
0.0
  0
SOLID
  5
2F5
  8
0
 10
23.9067970773009186
 20
33.1241203820042784
 30
0.0
 11
23.730020382004291
 21
33.3008970773009167
 31
0.0
 12
23.1289796179957214
 22
32.3463029226990813
 32
0.0
 13
22.9522029226990796
 23
32.5230796179957196
 33
0.0
  0
SOLID
  5
2F6
  8
0
 10
24.260297077300919
 20
32.7705203820042783
 30
0.0
 11
24.0835203820042807
 21
32.9472970773009166
 31
0.0
 12
23.4824796179957183
 22
31.9927029226990811
 32
0.0
 13
23.3057029226990799
 23
32.1694796179957194
 33
0.0
  0
SOLID
  5
2F7
  8
0
 10
24.6138970773009191
 20
32.4170203820042886
 30
0.0
 11
24.4371203820042915
 21
32.5937970773009269
 31
0.0
 12
23.8360796179957184
 22
31.6392029226990914
 32
0.0
 13
23.6593029226990801
 23
31.8159796179957297
 33
0.0
  0
SOLID
  5
2F8
  8
0
 10
24.9673970773009302
 20
32.0634203820042814
 30
0.0
 11
24.7906203820042812
 21
32.2401970773009197
 31
0.0
 12
24.1895796179957188
 22
31.2856029226990806
 32
0.0
 13
24.0128029226990805
 23
31.4623796179957189
 33
0.0
  0
SOLID
  5
2F9
  8
0
 10
24.7906203820042812
 20
29.1643029226990791
 30
0.0
 11
24.9673970773009302
 21
29.341079617995721
 31
0.0
 12
24.0128029226990805
 22
29.9421203820042905
 32
0.0
 13
24.1895796179957188
 23
30.1188970773009217
 33
0.0
  0
SOLID
  5
2FA
  8
0
 10
24.4371203820042915
 20
28.810702922699079
 30
0.0
 11
24.6138970773009191
 21
28.9874796179957208
 31
0.0
 12
23.6593029226990801
 22
29.5885203820042797
 32
0.0
 13
23.8360796179957184
 23
29.7652970773009216
 33
0.0
  0
SOLID
  5
2FB
  8
0
 10
24.0835203820042807
 20
28.4572029226990786
 30
0.0
 11
24.260297077300919
 21
28.6339796179957204
 31
0.0
 12
23.3057029226990799
 22
29.2350203820042793
 32
0.0
 13
23.4824796179957183
 23
29.4117970773009212
 33
0.0
  0
SOLID
  5
2FC
  8
0
 10
23.730020382004291
 20
28.1036029226990784
 30
0.0
 11
23.9067970773009186
 21
28.2803796179957203
 31
0.0
 12
22.9522029226990796
 22
28.8814203820042792
 32
0.0
 13
23.1289796179957214
 23
29.0581970773009211
 33
0.0
  0
SOLID
  5
2FD
  8
0
 10
23.3764203820042802
 20
27.7501029226990816
 30
0.0
 11
23.5531970773009185
 21
27.9268796179957199
 31
0.0
 12
22.5986029226990794
 22
28.5279203820042788
 32
0.0
 13
22.7753796179957213
 23
28.7046970773009207
 33
0.0
  0
SOLID
  5
2FE
  8
0
 10
23.0229203820042905
 20
27.3965029226990815
 30
0.0
 11
23.1996970773009217
 21
27.5732796179957198
 31
0.0
 12
22.2451029226990791
 22
28.1743203820042787
 32
0.0
 13
22.4218796179957209
 23
28.3510970773009205
 33
0.0
  0
SOLID
  5
2FF
  8
0
 10
22.6693203820042797
 20
27.0430029226990811
 30
0.0
 11
22.8460970773009215
 21
27.2197796179957194
 31
0.0
 12
21.8915029226990789
 22
27.8208203820042783
 32
0.0
 13
22.0682796179957208
 23
27.9975970773009202
 33
0.0
  0
SOLID
  5
300
  8
0
 10
22.3158203820042793
 20
26.689402922699081
 30
0.0
 11
22.4925970773009212
 21
26.8661796179957193
 31
0.0
 12
21.5380029226990786
 22
27.4672203820042817
 32
0.0
 13
21.7147796179957204
 23
27.64399707730092
 33
0.0
  0
SOLID
  5
301
  8
0
 10
21.9622203820042792
 20
26.3359029226990806
 30
0.0
 11
22.138997077300921
 21
26.5126796179957189
 31
0.0
 12
21.1844029226990784
 22
27.1137203820042814
 32
0.0
 13
21.3611796179957203
 23
27.2904970773009197
 33
0.0
  0
SOLID
  5
302
  8
0
 10
21.608620382004279
 20
25.9823029226990805
 30
0.0
 11
21.7853970773009209
 21
26.1590796179957117
 31
0.0
 12
20.8308029226990783
 22
26.7601203820042812
 32
0.0
 13
21.0075796179957202
 23
26.9368970773009195
 33
0.0
  0
SOLID
  5
303
  8
0
 10
21.2551203820042787
 20
25.6288029226990801
 30
0.0
 11
21.4318970773009205
 21
25.8055796179957184
 31
0.0
 12
20.4773029226990815
 22
26.4066203820042809
 32
0.0
 13
20.6540796179957091
 23
26.5833970773009192
 33
0.0
  0
SOLID
  5
304
  8
0
 10
20.9015203820042785
 20
25.27520292269908
 30
0.0
 11
21.0782970773009204
 21
25.4519796179957183
 31
0.0
 12
20.1237029226990813
 22
26.0530203820042914
 32
0.0
 13
20.3004796179957197
 23
26.229797077300919
 33
0.0
  0
SOLID
  5
305
  8
0
 10
15.25
 20
12.3499999999999996
 30
0.0
 11
15.25
 21
11.75
 31
0.0
 12
16.4499999999999993
 22
12.3499999999999996
 32
0.0
 13
16.4499999999999993
 23
11.75
 33
0.0
  0
SOLID
  5
306
  8
0
 10
17.5500000000000007
 20
14.25
 30
0.0
 11
17.5500000000000007
 21
13.6500000000000004
 31
0.0
 12
18.75
 22
14.25
 32
0.0
 13
18.75
 23
13.6500000000000004
 33
0.0
  0
SOLID
  5
307
  8
0
 10
17.5500000000000007
 20
12.3499999999999996
 30
0.0
 11
17.5500000000000007
 21
11.75
 31
0.0
 12
18.75
 22
12.3499999999999996
 32
0.0
 13
18.75
 23
11.75
 33
0.0
  0
SOLID
  5
308
  8
0
 10
17.5500000000000007
 20
13.3000000000000007
 30
0.0
 11
17.5500000000000007
 21
12.6999999999999993
 31
0.0
 12
18.75
 22
13.3000000000000007
 32
0.0
 13
18.75
 23
12.6999999999999993
 33
0.0
  0
SOLID
  5
309
  8
0
 10
15.25
 20
14.25
 30
0.0
 11
15.25
 21
13.6500000000000004
 31
0.0
 12
16.4499999999999993
 22
14.25
 32
0.0
 13
16.4499999999999993
 23
13.6500000000000004
 33
0.0
  0
SOLID
  5
30A
  8
0
 10
35.5499999999999972
 20
39.3500000000000014
 30
0.0
 11
35.5499999999999972
 21
40.3500000000000014
 31
0.0
 12
34.4500000000000028
 22
39.3500000000000014
 32
0.0
 13
34.4500000000000028
 23
40.3500000000000014
 33
0.0
  0
SOLID
  5
30B
  8
0
 10
35.5499999999999972
 20
37.6499999999999986
 30
0.0
 11
35.5499999999999972
 21
38.6499999999999986
 31
0.0
 12
34.4500000000000028
 22
37.6499999999999986
 32
0.0
 13
34.4500000000000028
 23
38.6499999999999986
 33
0.0
  0
SOLID
  5
30C
  8
0
 10
32.4500000000000028
 20
38.6499999999999986
 30
0.0
 11
32.4500000000000028
 21
37.6499999999999986
 31
0.0
 12
33.5499999999999972
 22
38.6499999999999986
 32
0.0
 13
33.5499999999999972
 23
37.6499999999999986
 33
0.0
  0
SOLID
  5
30D
  8
0
 10
32.4500000000000028
 20
40.3500000000000014
 30
0.0
 11
32.4500000000000028
 21
39.3500000000000014
 31
0.0
 12
33.5499999999999972
 22
40.3500000000000014
 32
0.0
 13
33.5499999999999972
 23
39.3500000000000014
 33
0.0
  0
SOLID
  5
30E
  8
0
 10
34.4500000000000028
 20
43.6499999999999986
 30
0.0
 11
34.4500000000000028
 21
42.6499999999999915
 31
0.0
 12
35.5499999999999972
 22
43.6499999999999986
 32
0.0
 13
35.5499999999999972
 23
42.6499999999999915
 33
0.0
  0
SOLID
  5
30F
  8
0
 10
34.4500000000000028
 20
45.3500000000000014
 30
0.0
 11
34.4500000000000028
 21
44.3500000000000014
 31
0.0
 12
35.5499999999999972
 22
45.3500000000000014
 32
0.0
 13
35.5499999999999972
 23
44.3500000000000014
 33
0.0
  0
SOLID
  5
310
  8
0
 10
33.5499999999999972
 20
44.3500000000000014
 30
0.0
 11
33.5499999999999972
 21
45.3500000000000014
 31
0.0
 12
32.4500000000000028
 22
44.3500000000000014
 32
0.0
 13
32.4500000000000028
 23
45.3500000000000014
 33
0.0
  0
SOLID
  5
311
  8
0
 10
33.5499999999999972
 20
42.6499999999999915
 30
0.0
 11
33.5499999999999972
 21
43.6499999999999986
 31
0.0
 12
32.4500000000000028
 22
42.6499999999999915
 32
0.0
 13
32.4500000000000028
 23
43.6499999999999986
 33
0.0
  0
SOLID
  5
312
  8
0
 10
31.5500000000000007
 20
39.3500000000000014
 30
0.0
 11
31.5500000000000007
 21
40.3500000000000014
 31
0.0
 12
30.4499999999999993
 22
39.3500000000000014
 32
0.0
 13
30.4499999999999993
 23
40.3500000000000014
 33
0.0
  0
SOLID
  5
313
  8
0
 10
31.5500000000000007
 20
37.6499999999999986
 30
0.0
 11
31.5500000000000007
 21
38.6499999999999986
 31
0.0
 12
30.4499999999999993
 22
37.6499999999999986
 32
0.0
 13
30.4499999999999993
 23
38.6499999999999986
 33
0.0
  0
SOLID
  5
314
  8
0
 10
24.4499999999999993
 20
20.6499999999999986
 30
0.0
 11
24.4499999999999993
 21
19.6499999999999986
 31
0.0
 12
25.5500000000000007
 22
20.6499999999999986
 32
0.0
 13
25.5500000000000007
 23
19.6499999999999986
 33
0.0
  0
SOLID
  5
315
  8
0
 10
24.4499999999999993
 20
22.3500000000000014
 30
0.0
 11
24.4499999999999993
 21
21.3500000000000014
 31
0.0
 12
25.5500000000000007
 22
22.3500000000000014
 32
0.0
 13
25.5500000000000007
 23
21.3500000000000014
 33
0.0
  0
SOLID
  5
316
  8
0
 10
28.4499999999999993
 20
38.6499999999999986
 30
0.0
 11
28.4499999999999993
 21
37.6499999999999986
 31
0.0
 12
29.5500000000000007
 22
38.6499999999999986
 32
0.0
 13
29.5500000000000007
 23
37.6499999999999986
 33
0.0
  0
SOLID
  5
317
  8
0
 10
28.4499999999999993
 20
40.3500000000000014
 30
0.0
 11
28.4499999999999993
 21
39.3500000000000014
 31
0.0
 12
29.5500000000000007
 22
40.3500000000000014
 32
0.0
 13
29.5500000000000007
 23
39.3500000000000014
 33
0.0
  0
SOLID
  5
318
  8
0
 10
30.4499999999999993
 20
43.6499999999999986
 30
0.0
 11
30.4499999999999993
 21
42.6499999999999915
 31
0.0
 12
31.5500000000000007
 22
43.6499999999999986
 32
0.0
 13
31.5500000000000007
 23
42.6499999999999915
 33
0.0
  0
SOLID
  5
319
  8
0
 10
30.4499999999999993
 20
45.3500000000000014
 30
0.0
 11
30.4499999999999993
 21
44.3500000000000014
 31
0.0
 12
31.5500000000000007
 22
45.3500000000000014
 32
0.0
 13
31.5500000000000007
 23
44.3500000000000014
 33
0.0
  0
SOLID
  5
31A
  8
0
 10
29.5500000000000007
 20
44.3500000000000014
 30
0.0
 11
29.5500000000000007
 21
45.3500000000000014
 31
0.0
 12
28.4499999999999993
 22
44.3500000000000014
 32
0.0
 13
28.4499999999999993
 23
45.3500000000000014
 33
0.0
  0
SOLID
  5
31B
  8
0
 10
29.5500000000000007
 20
42.6499999999999915
 30
0.0
 11
29.5500000000000007
 21
43.6499999999999986
 31
0.0
 12
28.4499999999999993
 22
42.6499999999999915
 32
0.0
 13
28.4499999999999993
 23
43.6499999999999986
 33
0.0
  0
SOLID
  5
31C
  8
0
 10
2.4500000000000002
 20
62.6499999999999915
 30
0.0
 11
2.4499999999999988
 21
61.6499999999999915
 31
0.0
 12
3.5499999999999998
 22
62.6499999999999915
 32
0.0
 13
3.5499999999999989
 23
61.6499999999999915
 33
0.0
  0
SOLID
  5
31D
  8
0
 10
2.4500000000000002
 20
64.3500000000000085
 30
0.0
 11
2.4499999999999988
 21
63.3500000000000014
 31
0.0
 12
3.5499999999999998
 22
64.3499999999999943
 32
0.0
 13
3.5499999999999989
 23
63.3500000000000014
 33
0.0
  0
SOLID
  5
31E
  8
0
 10
8.4499999999999993
 20
62.6499999999999915
 30
0.0
 11
8.4499999999999993
 21
61.6499999999999915
 31
0.0
 12
9.5500000000000007
 22
62.6499999999999915
 32
0.0
 13
9.5500000000000007
 23
61.6499999999999915
 33
0.0
  0
SOLID
  5
31F
  8
0
 10
8.4499999999999993
 20
64.3500000000000085
 30
0.0
 11
8.4499999999999993
 21
63.3500000000000014
 31
0.0
 12
9.5500000000000007
 22
64.3499999999999943
 32
0.0
 13
9.5500000000000007
 23
63.3500000000000014
 33
0.0
  0
SOLID
  5
320
  8
0
 10
8.5500000000000007
 20
9.3499999999999996
 30
0.0
 11
8.5500000000000007
 21
10.3499999999999996
 31
0.0
 12
7.4500000000000002
 22
9.3499999999999996
 32
0.0
 13
7.4500000000000002
 23
10.3499999999999996
 33
0.0
  0
SOLID
  5
321
  8
0
 10
8.5500000000000007
 20
7.6500000000000004
 30
0.0
 11
8.5500000000000007
 21
8.6500000000000004
 31
0.0
 12
7.4500000000000002
 22
7.6500000000000004
 32
0.0
 13
7.4500000000000002
 23
8.6500000000000004
 33
0.0
  0
SOLID
  5
322
  8
0
 10
10.5500000000000007
 20
9.3499999999999996
 30
0.0
 11
10.5500000000000007
 21
10.3499999999999996
 31
0.0
 12
9.4499999999999993
 22
9.3499999999999996
 32
0.0
 13
9.4499999999999993
 23
10.3499999999999996
 33
0.0
  0
SOLID
  5
323
  8
0
 10
10.5500000000000007
 20
7.6500000000000004
 30
0.0
 11
10.5500000000000007
 21
8.6500000000000004
 31
0.0
 12
9.4499999999999993
 22
7.6500000000000004
 32
0.0
 13
9.4499999999999993
 23
8.6500000000000004
 33
0.0
  0
SOLID
  5
324
  8
0
 10
19.3500000000000014
 20
4.4500000000000002
 30
0.0
 11
20.3500000000000014
 21
4.4500000000000002
 31
0.0
 12
19.3500000000000014
 22
5.5499999999999989
 32
0.0
 13
20.3500000000000014
 23
5.5499999999999989
 33
0.0
  0
SOLID
  5
325
  8
0
 10
17.6499999999999986
 20
4.4500000000000002
 30
0.0
 11
18.6499999999999986
 21
4.4500000000000002
 31
0.0
 12
17.6499999999999986
 22
5.5499999999999989
 32
0.0
 13
18.6499999999999986
 23
5.5499999999999989
 33
0.0
  0
SOLID
  5
326
  8
0
 10
23.5500000000000007
 20
21.3500000000000014
 30
0.0
 11
23.5500000000000007
 21
22.3500000000000014
 31
0.0
 12
22.4499999999999993
 22
21.3500000000000014
 32
0.0
 13
22.4499999999999993
 23
22.3500000000000014
 33
0.0
  0
SOLID
  5
327
  8
0
 10
23.5500000000000007
 20
19.6499999999999986
 30
0.0
 11
23.5500000000000007
 21
20.6499999999999986
 31
0.0
 12
22.4499999999999993
 22
19.6499999999999986
 32
0.0
 13
22.4499999999999993
 23
20.6499999999999986
 33
0.0
  0
SOLID
  5
328
  8
0
 10
29.6999999999999993
 20
13.6500000000000004
 30
0.0
 11
29.6999999999999993
 21
12.6500000000000004
 31
0.0
 12
30.8000000000000007
 22
13.6500000000000004
 32
0.0
 13
30.8000000000000007
 23
12.6500000000000004
 33
0.0
  0
SOLID
  5
329
  8
0
 10
29.6999999999999993
 20
15.3499999999999996
 30
0.0
 11
29.6999999999999993
 21
14.3499999999999996
 31
0.0
 12
30.8000000000000007
 22
15.3499999999999996
 32
0.0
 13
30.8000000000000007
 23
14.3499999999999996
 33
0.0
  0
SOLID
  5
32A
  8
0
 10
21.4499999999999993
 20
12.6500000000000004
 30
0.0
 11
21.4499999999999993
 21
11.6500000000000004
 31
0.0
 12
22.5500000000000007
 22
12.6500000000000004
 32
0.0
 13
22.5500000000000007
 23
11.6500000000000004
 33
0.0
  0
SOLID
  5
32B
  8
0
 10
21.4499999999999993
 20
14.3499999999999996
 30
0.0
 11
21.4499999999999993
 21
13.3499999999999996
 31
0.0
 12
22.5500000000000007
 22
14.3499999999999996
 32
0.0
 13
22.5500000000000007
 23
13.3499999999999996
 33
0.0
  0
SOLID
  5
32C
  8
0
 10
27.4499999999999993
 20
17.6499999999999986
 30
0.0
 11
27.4499999999999993
 21
16.6499999999999986
 31
0.0
 12
28.5500000000000007
 22
17.6499999999999986
 32
0.0
 13
28.5500000000000007
 23
16.6499999999999986
 33
0.0
  0
SOLID
  5
32D
  8
0
 10
27.4499999999999993
 20
19.3500000000000014
 30
0.0
 11
27.4499999999999993
 21
18.3500000000000014
 31
0.0
 12
28.5500000000000007
 22
19.3500000000000014
 32
0.0
 13
28.5500000000000007
 23
18.3500000000000014
 33
0.0
  0
SOLID
  5
32E
  8
0
 10
13.5500000000000007
 20
55.3500000000000014
 30
0.0
 11
13.5500000000000007
 21
56.3500000000000014
 31
0.0
 12
12.4499999999999993
 22
55.3500000000000014
 32
0.0
 13
12.4499999999999993
 23
56.3500000000000014
 33
0.0
  0
SOLID
  5
32F
  8
0
 10
13.5500000000000007
 20
53.6499999999999986
 30
0.0
 11
13.5500000000000007
 21
54.6499999999999915
 31
0.0
 12
12.4499999999999993
 22
53.6499999999999986
 32
0.0
 13
12.4499999999999993
 23
54.6499999999999915
 33
0.0
  0
SOLID
  5
330
  8
0
 10
15.5500000000000007
 20
55.3500000000000014
 30
0.0
 11
15.5500000000000007
 21
56.3500000000000014
 31
0.0
 12
14.4499999999999993
 22
55.3500000000000014
 32
0.0
 13
14.4499999999999993
 23
56.3500000000000014
 33
0.0
  0
SOLID
  5
331
  8
0
 10
15.5500000000000007
 20
53.6499999999999986
 30
0.0
 11
15.5500000000000007
 21
54.6499999999999915
 31
0.0
 12
14.4499999999999993
 22
53.6499999999999986
 32
0.0
 13
14.4499999999999993
 23
54.6499999999999915
 33
0.0
  0
SOLID
  5
332
  8
0
 10
31.5500000000000007
 20
51.3500000000000014
 30
0.0
 11
31.5500000000000007
 21
52.3500000000000014
 31
0.0
 12
30.4499999999999993
 22
51.3500000000000014
 32
0.0
 13
30.4499999999999993
 23
52.3500000000000014
 33
0.0
  0
SOLID
  5
333
  8
0
 10
31.5500000000000007
 20
49.6499999999999915
 30
0.0
 11
31.5500000000000007
 21
50.6499999999999986
 31
0.0
 12
30.4499999999999993
 22
49.6499999999999915
 32
0.0
 13
30.4499999999999993
 23
50.6499999999999986
 33
0.0
  0
SOLID
  5
334
  8
0
 10
33.5499999999999972
 20
51.3500000000000014
 30
0.0
 11
33.5499999999999972
 21
52.3500000000000014
 31
0.0
 12
32.4500000000000028
 22
51.3500000000000014
 32
0.0
 13
32.4500000000000028
 23
52.3500000000000014
 33
0.0
  0
SOLID
  5
335
  8
0
 10
33.5499999999999972
 20
49.6499999999999915
 30
0.0
 11
33.5499999999999972
 21
50.6499999999999986
 31
0.0
 12
32.4500000000000028
 22
49.6499999999999915
 32
0.0
 13
32.4500000000000028
 23
50.6499999999999986
 33
0.0
  0
SOLID
  5
336
  8
0
 10
19.5500000000000007
 20
55.3500000000000014
 30
0.0
 11
19.5500000000000007
 21
56.3500000000000014
 31
0.0
 12
18.4499999999999993
 22
55.3500000000000014
 32
0.0
 13
18.4499999999999993
 23
56.3500000000000014
 33
0.0
  0
SOLID
  5
337
  8
0
 10
19.5500000000000007
 20
53.6499999999999986
 30
0.0
 11
19.5500000000000007
 21
54.6499999999999915
 31
0.0
 12
18.4499999999999993
 22
53.6499999999999986
 32
0.0
 13
18.4499999999999993
 23
54.6499999999999915
 33
0.0
  0
SOLID
  5
338
  8
0
 10
21.5500000000000007
 20
55.3500000000000014
 30
0.0
 11
21.5500000000000007
 21
56.3500000000000014
 31
0.0
 12
20.4499999999999993
 22
55.3500000000000014
 32
0.0
 13
20.4499999999999993
 23
56.3500000000000014
 33
0.0
  0
SOLID
  5
339
  8
0
 10
21.5500000000000007
 20
53.6499999999999986
 30
0.0
 11
21.5500000000000007
 21
54.6499999999999915
 31
0.0
 12
20.4499999999999993
 22
53.6499999999999986
 32
0.0
 13
20.4499999999999993
 23
54.6499999999999915
 33
0.0
  0
SOLID
  5
33A
  8
0
 10
25.5500000000000007
 20
55.3500000000000014
 30
0.0
 11
25.5500000000000007
 21
56.3500000000000014
 31
0.0
 12
24.4499999999999993
 22
55.3500000000000014
 32
0.0
 13
24.4499999999999993
 23
56.3500000000000014
 33
0.0
  0
SOLID
  5
33B
  8
0
 10
25.5500000000000007
 20
53.6499999999999986
 30
0.0
 11
25.5500000000000007
 21
54.6499999999999915
 31
0.0
 12
24.4499999999999993
 22
53.6499999999999986
 32
0.0
 13
24.4499999999999993
 23
54.6499999999999915
 33
0.0
  0
SOLID
  5
33C
  8
0
 10
27.5500000000000007
 20
55.3500000000000014
 30
0.0
 11
27.5500000000000007
 21
56.3500000000000014
 31
0.0
 12
26.4499999999999993
 22
55.3500000000000014
 32
0.0
 13
26.4499999999999993
 23
56.3500000000000014
 33
0.0
  0
SOLID
  5
33D
  8
0
 10
27.5500000000000007
 20
53.6499999999999986
 30
0.0
 11
27.5500000000000007
 21
54.6499999999999915
 31
0.0
 12
26.4499999999999993
 22
53.6499999999999986
 32
0.0
 13
26.4499999999999993
 23
54.6499999999999915
 33
0.0
  0
SOLID
  5
33E
  8
0
 10
6.6500000000000004
 20
43.5499999999999901
 30
0.0
 11
5.6500000000000004
 21
43.5499999999999901
 31
0.0
 12
6.6500000000000004
 22
42.4500000000000028
 32
0.0
 13
5.6500000000000004
 23
42.4500000000000028
 33
0.0
  0
SOLID
  5
33F
  8
0
 10
8.3499999999999996
 20
43.5499999999999901
 30
0.0
 11
7.3499999999999979
 21
43.5499999999999901
 31
0.0
 12
8.3499999999999979
 22
42.4500000000000028
 32
0.0
 13
7.3499999999999979
 23
42.4500000000000028
 33
0.0
  0
SOLID
  5
340
  8
0
 10
8.4499999999999993
 20
58.6499999999999986
 30
0.0
 11
8.4499999999999993
 21
57.6499999999999986
 31
0.0
 12
9.5500000000000007
 22
58.6499999999999986
 32
0.0
 13
9.5500000000000007
 23
57.6499999999999986
 33
0.0
  0
SOLID
  5
341
  8
0
 10
8.4499999999999993
 20
60.3500000000000014
 30
0.0
 11
8.4499999999999993
 21
59.3500000000000014
 31
0.0
 12
9.5500000000000007
 22
60.3500000000000014
 32
0.0
 13
9.5500000000000007
 23
59.3500000000000014
 33
0.0
  0
SOLID
  5
342
  8
0
 10
2.4500000000000002
 20
58.6499999999999986
 30
0.0
 11
2.4499999999999988
 21
57.6499999999999986
 31
0.0
 12
3.5499999999999998
 22
58.6499999999999986
 32
0.0
 13
3.5499999999999989
 23
57.6499999999999986
 33
0.0
  0
SOLID
  5
343
  8
0
 10
2.4500000000000002
 20
60.3500000000000014
 30
0.0
 11
2.4499999999999988
 21
59.3500000000000014
 31
0.0
 12
3.5499999999999998
 22
60.3500000000000014
 32
0.0
 13
3.5499999999999989
 23
59.3500000000000014
 33
0.0
  0
SOLID
  5
344
  8
0
 10
3.634799999999998
 20
3.888399999999999
 30
0.0
 11
2.634799999999998
 21
3.8883999999999999
 31
0.0
 12
3.634799999999998
 22
2.7883999999999989
 32
0.0
 13
2.634799999999998
 23
2.7884000000000002
 33
0.0
  0
SOLID
  5
345
  8
0
 10
5.3348000000000004
 20
3.888399999999999
 30
0.0
 11
4.3348000000000004
 21
3.8883999999999999
 31
0.0
 12
5.3348000000000004
 22
2.7883999999999989
 32
0.0
 13
4.3348000000000004
 23
2.7884000000000002
 33
0.0
  0
SOLID
  5
346
  8
0
 10
29.4130000000000003
 20
6.2694999999999972
 30
0.0
 11
24.5869999999999997
 21
6.2694999999999981
 31
0.0
 12
29.4130000000000003
 22
0.5544999999999987
 32
0.0
 13
24.5869999999999997
 23
0.5544999999999995
 33
0.0
  0
SOLID
  5
347
  8
0
 10
25.5199999999999996
 20
11.8100000000000005
 30
0.0
 11
23.9200000000000017
 21
11.8100000000000005
 31
0.0
 12
25.5199999999999996
 22
8.8100000000000005
 32
0.0
 13
23.9200000000000017
 23
8.8100000000000005
 33
0.0
  0
SOLID
  5
348
  8
0
 10
30.0799999999999983
 20
11.8100000000000005
 30
0.0
 11
28.4800000000000004
 21
11.8100000000000005
 31
0.0
 12
30.0799999999999983
 22
8.8100000000000005
 32
0.0
 13
28.4800000000000004
 23
8.8100000000000005
 33
0.0
  0
SOLID
  5
349
  8
0
 10
5.4000000000000004
 20
62.6499999999999986
 30
0.0
 11
4.5999999999999988
 21
62.6499999999999986
 31
0.0
 12
5.4000000000000004
 22
61.8500000000000014
 32
0.0
 13
4.5999999999999988
 23
61.8500000000000014
 33
0.0
  0
SOLID
  5
34A
  8
0
 10
5.4000000000000004
 20
64.1500000000000057
 30
0.0
 11
4.5999999999999988
 21
64.1500000000000057
 31
0.0
 12
5.4000000000000004
 22
63.3500000000000014
 32
0.0
 13
4.5999999999999988
 23
63.3500000000000014
 33
0.0
  0
SOLID
  5
34B
  8
0
 10
7.4000000000000004
 20
62.6499999999999986
 30
0.0
 11
6.5999999999999988
 21
62.6499999999999986
 31
0.0
 12
7.4000000000000004
 22
61.8500000000000014
 32
0.0
 13
6.5999999999999988
 23
61.8500000000000014
 33
0.0
  0
SOLID
  5
34C
  8
0
 10
7.4000000000000004
 20
64.1500000000000057
 30
0.0
 11
6.5999999999999988
 21
64.1500000000000057
 31
0.0
 12
7.4000000000000004
 22
63.3500000000000014
 32
0.0
 13
6.5999999999999988
 23
63.3500000000000014
 33
0.0
  0
SOLID
  5
34D
  8
0
 10
5.4000000000000004
 20
58.6499999999999986
 30
0.0
 11
4.5999999999999988
 21
58.6499999999999986
 31
0.0
 12
5.4000000000000004
 22
57.8500000000000014
 32
0.0
 13
4.5999999999999988
 23
57.8500000000000014
 33
0.0
  0
SOLID
  5
34E
  8
0
 10
5.4000000000000004
 20
60.1499999999999986
 30
0.0
 11
4.5999999999999988
 21
60.1499999999999986
 31
0.0
 12
5.4000000000000004
 22
59.3500000000000014
 32
0.0
 13
4.5999999999999988
 23
59.3500000000000014
 33
0.0
  0
SOLID
  5
34F
  8
0
 10
7.4000000000000004
 20
58.6499999999999986
 30
0.0
 11
6.5999999999999988
 21
58.6499999999999986
 31
0.0
 12
7.4000000000000004
 22
57.8500000000000014
 32
0.0
 13
6.5999999999999988
 23
57.8500000000000014
 33
0.0
  0
SOLID
  5
350
  8
0
 10
7.4000000000000004
 20
60.1499999999999986
 30
0.0
 11
6.5999999999999988
 21
60.1499999999999986
 31
0.0
 12
7.4000000000000004
 22
59.3500000000000014
 32
0.0
 13
6.5999999999999988
 23
59.3500000000000014
 33
0.0
  0
SOLID
  5
351
  8
0
 10
6.7000000000000002
 20
45.4999999999999929
 30
0.0
 11
5.5999999999999996
 21
45.4999999999999929
 31
0.0
 12
6.7000000000000002
 22
44.5
 32
0.0
 13
5.5999999999999996
 23
44.5
 33
0.0
  0
SOLID
  5
352
  8
0
 10
8.3999999999999986
 20
45.4999999999999929
 30
0.0
 11
7.299999999999998
 21
45.4999999999999929
 31
0.0
 12
8.3999999999999986
 22
44.5
 32
0.0
 13
7.299999999999998
 23
44.5
 33
0.0
  0
SOLID
  5
353
  8
0
 10
15.4426000000000005
 20
41.8597999999999928
 30
0.0
 11
15.4426000000000005
 21
42.5201999999999884
 31
0.0
 12
13.4106000000000005
 22
41.8597999999999928
 32
0.0
 13
13.4106000000000005
 23
42.5201999999999884
 33
0.0
  0
SOLID
  5
354
  8
0
 10
15.4426000000000005
 20
43.129800000000003
 30
0.0
 11
15.4426000000000005
 21
43.7901999999999916
 31
0.0
 12
13.4106000000000005
 22
43.129800000000003
 32
0.0
 13
13.4106000000000005
 23
43.7901999999999916
 33
0.0
  0
SOLID
  5
355
  8
0
 10
15.4426000000000005
 20
44.3997999999999919
 30
0.0
 11
15.4426000000000005
 21
45.0601999999999805
 31
0.0
 12
13.4106000000000005
 22
44.3997999999999919
 32
0.0
 13
13.4106000000000005
 23
45.0601999999999805
 33
0.0
  0
SOLID
  5
356
  8
0
 10
15.4426000000000005
 20
45.6698000000000022
 30
0.0
 11
15.4426000000000005
 21
46.3301999999999978
 31
0.0
 12
13.4106000000000005
 22
45.6698000000000022
 32
0.0
 13
13.4106000000000005
 23
46.3301999999999978
 33
0.0
  0
SOLID
  5
357
  8
0
 10
15.4426000000000005
 20
46.9397999999999982
 30
0.0
 11
15.4426000000000005
 21
47.6001999999999867
 31
0.0
 12
13.4106000000000005
 22
46.9397999999999982
 32
0.0
 13
13.4106000000000005
 23
47.6001999999999867
 33
0.0
  0
SOLID
  5
358
  8
0
 10
15.4426000000000005
 20
48.2098000000000013
 30
0.0
 11
15.4426000000000005
 21
48.8701999999999899
 31
0.0
 12
13.4106000000000005
 22
48.2098000000000013
 32
0.0
 13
13.4106000000000005
 23
48.8701999999999899
 33
0.0
  0
SOLID
  5
359
  8
0
 10
15.4426000000000005
 20
49.4798000000000116
 30
0.0
 11
15.4426000000000005
 21
50.1402000000000001
 31
0.0
 12
13.4106000000000005
 22
49.4798000000000116
 32
0.0
 13
13.4106000000000005
 23
50.1402000000000001
 33
0.0
  0
SOLID
  5
35A
  8
0
 10
21.5894000000000013
 20
49.4798000000000116
 30
0.0
 11
21.5894000000000013
 21
50.1402000000000001
 31
0.0
 12
19.5574000000000012
 22
49.4798000000000116
 32
0.0
 13
19.5574000000000012
 23
50.1402000000000001
 33
0.0
  0
SOLID
  5
35B
  8
0
 10
21.5894000000000013
 20
48.2098000000000013
 30
0.0
 11
21.5894000000000013
 21
48.8701999999999899
 31
0.0
 12
19.5574000000000012
 22
48.2098000000000013
 32
0.0
 13
19.5574000000000012
 23
48.8701999999999899
 33
0.0
  0
SOLID
  5
35C
  8
0
 10
21.5894000000000013
 20
46.9397999999999982
 30
0.0
 11
21.5894000000000013
 21
47.6001999999999867
 31
0.0
 12
19.5574000000000012
 22
46.9397999999999982
 32
0.0
 13
19.5574000000000012
 23
47.6001999999999867
 33
0.0
  0
SOLID
  5
35D
  8
0
 10
21.5894000000000013
 20
45.6698000000000022
 30
0.0
 11
21.5894000000000013
 21
46.3301999999999978
 31
0.0
 12
19.5574000000000012
 22
45.6698000000000022
 32
0.0
 13
19.5574000000000012
 23
46.3301999999999978
 33
0.0
  0
SOLID
  5
35E
  8
0
 10
21.5894000000000013
 20
44.3997999999999919
 30
0.0
 11
21.5894000000000013
 21
45.0601999999999805
 31
0.0
 12
19.5574000000000012
 22
44.3997999999999919
 32
0.0
 13
19.5574000000000012
 23
45.0601999999999805
 33
0.0
  0
SOLID
  5
35F
  8
0
 10
21.5894000000000013
 20
43.129800000000003
 30
0.0
 11
21.5894000000000013
 21
43.7901999999999916
 31
0.0
 12
19.5574000000000012
 22
43.129800000000003
 32
0.0
 13
19.5574000000000012
 23
43.7901999999999916
 33
0.0
  0
SOLID
  5
360
  8
0
 10
21.5894000000000013
 20
41.8597999999999928
 30
0.0
 11
21.5894000000000013
 21
42.5201999999999884
 31
0.0
 12
19.5574000000000012
 22
41.8597999999999928
 32
0.0
 13
19.5574000000000012
 23
42.5201999999999884
 33
0.0
  0
SOLID
  5
361
  8
0
 10
9.3000000000000007
 20
18.6499999999999986
 30
0.0
 11
8.6999999999999993
 21
18.6499999999999986
 31
0.0
 12
9.3000000000000007
 22
17.8500000000000014
 32
0.0
 13
8.6999999999999993
 23
17.8500000000000014
 33
0.0
  0
SOLID
  5
362
  8
0
 10
9.3000000000000007
 20
16.1499999999999986
 30
0.0
 11
8.6999999999999993
 21
16.1499999999999986
 31
0.0
 12
9.3000000000000007
 22
15.3499999999999996
 32
0.0
 13
8.6999999999999993
 23
15.3499999999999996
 33
0.0
  0
SOLID
  5
363
  8
0
 10
9.6999999999999993
 20
11.3499999999999996
 30
0.0
 11
10.3000000000000007
 21
11.3499999999999996
 31
0.0
 12
9.6999999999999993
 22
12.1500000000000004
 32
0.0
 13
10.3000000000000007
 23
12.1500000000000004
 33
0.0
  0
SOLID
  5
364
  8
0
 10
9.6999999999999993
 20
13.8499999999999996
 30
0.0
 11
10.3000000000000007
 21
13.8499999999999996
 31
0.0
 12
9.6999999999999993
 22
14.6500000000000004
 32
0.0
 13
10.3000000000000007
 23
14.6500000000000004
 33
0.0
  0
SOLID
  5
365
  8
0
 10
18.3000000000000007
 20
40.0
 30
0.0
 11
19.3999999999999986
 21
40.0
 31
0.0
 12
18.3000000000000007
 22
40.9999999999999929
 32
0.0
 13
19.3999999999999986
 23
40.9999999999999929
 33
0.0
  0
SOLID
  5
366
  8
0
 10
16.6000000000000014
 20
40.0
 30
0.0
 11
17.6999999999999993
 21
40.0
 31
0.0
 12
16.6000000000000014
 22
40.9999999999999929
 32
0.0
 13
17.6999999999999993
 23
40.9999999999999929
 33
0.0
  0
SOLID
  5
367
  8
0
 10
27.75
 20
13.6999999999999993
 30
0.0
 11
27.75
 21
12.5999999999999996
 31
0.0
 12
28.75
 22
13.6999999999999993
 32
0.0
 13
28.75
 23
12.5999999999999996
 33
0.0
  0
SOLID
  5
368
  8
0
 10
27.75
 20
15.4000000000000004
 30
0.0
 11
27.75
 21
14.3000000000000007
 31
0.0
 12
28.75
 22
15.4000000000000004
 32
0.0
 13
28.75
 23
14.3000000000000007
 33
0.0
  0
SOLID
  5
369
  8
0
 10
15.5
 20
58.7000000000000028
 30
0.0
 11
15.5
 21
57.6000000000000014
 31
0.0
 12
16.5
 22
58.7000000000000028
 32
0.0
 13
16.5
 23
57.6000000000000014
 33
0.0
  0
SOLID
  5
36A
  8
0
 10
15.5
 20
60.3999999999999986
 30
0.0
 11
15.5
 21
59.2999999999999972
 31
0.0
 12
16.5
 22
60.3999999999999986
 32
0.0
 13
16.5
 23
59.2999999999999972
 33
0.0
  0
SOLID
  5
36B
  8
0
 10
28.5
 20
58.7000000000000028
 30
0.0
 11
28.5
 21
57.6000000000000014
 31
0.0
 12
29.5
 22
58.7000000000000028
 32
0.0
 13
29.5
 23
57.6000000000000014
 33
0.0
  0
SOLID
  5
36C
  8
0
 10
28.5
 20
60.3999999999999986
 30
0.0
 11
28.5
 21
59.2999999999999972
 31
0.0
 12
29.5
 22
60.3999999999999986
 32
0.0
 13
29.5
 23
59.2999999999999972
 33
0.0
  0
SOLID
  5
36D
  8
0
 10
21.5
 20
58.7000000000000028
 30
0.0
 11
21.5
 21
57.6000000000000014
 31
0.0
 12
22.5
 22
58.7000000000000028
 32
0.0
 13
22.5
 23
57.6000000000000014
 33
0.0
  0
SOLID
  5
36E
  8
0
 10
21.5
 20
60.3999999999999986
 30
0.0
 11
21.5
 21
59.2999999999999972
 31
0.0
 12
22.5
 22
60.3999999999999986
 32
0.0
 13
22.5
 23
59.2999999999999972
 33
0.0
  0
SOLID
  5
36F
  8
0
 10
34.5
 20
58.7000000000000028
 30
0.0
 11
34.5
 21
57.6000000000000014
 31
0.0
 12
35.5
 22
58.7000000000000028
 32
0.0
 13
35.5
 23
57.6000000000000014
 33
0.0
  0
SOLID
  5
370
  8
0
 10
34.5
 20
60.3999999999999986
 30
0.0
 11
34.5
 21
59.2999999999999972
 31
0.0
 12
35.5
 22
60.3999999999999986
 32
0.0
 13
35.5
 23
59.2999999999999972
 33
0.0
  0
SOLID
  5
371
  8
0
 10
10.5
 20
5.299999999999998
 30
0.0
 11
10.5
 21
6.3999999999999977
 31
0.0
 12
9.5
 22
5.299999999999998
 32
0.0
 13
9.5
 23
6.3999999999999977
 33
0.0
  0
SOLID
  5
372
  8
0
 10
10.5
 20
3.6000000000000001
 30
0.0
 11
10.5
 21
4.7000000000000002
 31
0.0
 12
9.5
 22
3.6000000000000001
 32
0.0
 13
9.5
 23
4.7000000000000002
 33
0.0
  0
SOLID
  5
373
  8
0
 10
19.3000000000000007
 20
2.5
 30
0.0
 11
20.3999999999999986
 21
2.5
 31
0.0
 12
19.3000000000000007
 22
3.5
 32
0.0
 13
20.3999999999999986
 23
3.5
 33
0.0
  0
SOLID
  5
374
  8
0
 10
17.5999999999999908
 20
2.5
 30
0.0
 11
18.6999999999999993
 21
2.5
 31
0.0
 12
17.5999999999999908
 22
3.5
 32
0.0
 13
18.6999999999999993
 23
3.5
 33
0.0
  0
SOLID
  5
375
  8
0
 10
11.5
 20
8.7000000000000011
 30
0.0
 11
11.5
 21
7.5999999999999996
 31
0.0
 12
12.5
 22
8.7000000000000011
 32
0.0
 13
12.5
 23
7.5999999999999996
 33
0.0
  0
SOLID
  5
376
  8
0
 10
11.5
 20
10.4000000000000004
 30
0.0
 11
11.5
 21
9.2999999999999972
 31
0.0
 12
12.5
 22
10.4000000000000004
 32
0.0
 13
12.5
 23
9.2999999999999972
 33
0.0
  0
SOLID
  5
377
  8
0
 10
21.8585378797541203
 20
37.43435533905933
 30
0.0
 11
22.6363553390593317
 21
36.6565378797541328
 31
0.0
 12
22.56564466094067
 22
38.1414621202458832
 32
0.0
 13
23.3434621202458814
 23
37.3636446609406718
 33
0.0
  0
SOLID
  5
378
  8
0
 10
20.6565378797541292
 20
38.6363553390593282
 30
0.0
 11
21.43435533905933
 21
37.8585378797541168
 31
0.0
 12
21.3636446609406683
 22
39.3434621202458814
 32
0.0
 13
22.1414621202458797
 23
38.56564466094067
 33
0.0
  0
SOLID
  5
379
  8
0
 10
25.43435533905933
 20
26.1414621202458797
 30
0.0
 11
24.6565378797541292
 21
25.3636446609406683
 31
0.0
 12
26.1414621202458797
 22
25.43435533905933
 32
0.0
 13
25.3636446609406683
 23
24.6565378797541292
 33
0.0
  0
SOLID
  5
37A
  8
0
 10
26.6363553390593317
 20
27.3434621202458814
 30
0.0
 11
25.858537879754131
 21
26.56564466094067
 31
0.0
 12
27.3434621202458814
 22
26.6363553390593317
 32
0.0
 13
26.56564466094067
 23
25.858537879754131
 33
0.0
  0
SOLID
  5
37B
  8
0
 10
12.56564466094067
 20
32.8585378797541168
 30
0.0
 11
13.3434621202458708
 21
33.6363553390593282
 31
0.0
 12
11.8585378797541203
 22
33.56564466094067
 32
0.0
 13
12.6363553390593193
 23
34.3434621202458814
 33
0.0
  0
SOLID
  5
37C
  8
0
 10
11.3636446609406701
 20
31.6565378797541292
 30
0.0
 11
12.1414621202458708
 21
32.43435533905933
 31
0.0
 12
10.6565378797541204
 22
32.3636446609406718
 32
0.0
 13
11.4343553390593193
 23
33.1414621202458832
 33
0.0
  0
SOLID
  5
37D
  8
0
 10
17.141462120245869
 20
22.56564466094067
 30
0.0
 11
16.3636446609406683
 21
23.3434621202458814
 31
0.0
 12
16.43435533905933
 22
21.8585378797541203
 32
0.0
 13
15.6565378797541204
 23
22.6363553390593317
 33
0.0
  0
SOLID
  5
37E
  8
0
 10
18.3434621202458708
 20
21.3636446609406683
 30
0.0
 11
17.56564466094067
 21
22.1414621202458797
 31
0.0
 12
17.6363553390593317
 22
20.6565378797541292
 32
0.0
 13
16.8585378797541203
 23
21.43435533905933
 33
0.0
  0
SOLID
  5
37F
  8
0
 10
27.5
 20
21.3000000000000007
 30
0.0
 11
27.5
 21
22.3999999999999986
 31
0.0
 12
26.5
 22
21.3000000000000007
 32
0.0
 13
26.5
 23
22.3999999999999986
 33
0.0
  0
SOLID
  5
380
  8
0
 10
27.5
 20
19.6000000000000014
 30
0.0
 11
27.5
 21
20.6999999999999993
 31
0.0
 12
26.5
 22
19.6000000000000014
 32
0.0
 13
26.5
 23
20.6999999999999993
 33
0.0
  0
SOLID
  5
381
  8
0
 10
20.5
 20
13.3000000000000007
 30
0.0
 11
20.5
 21
14.4000000000000004
 31
0.0
 12
19.5
 22
13.3000000000000007
 32
0.0
 13
19.5
 23
14.4000000000000004
 33
0.0
  0
SOLID
  5
382
  8
0
 10
20.5
 20
11.5999999999999996
 30
0.0
 11
20.5
 21
12.6999999999999993
 31
0.0
 12
19.5
 22
11.5999999999999996
 32
0.0
 13
19.5
 23
12.6999999999999993
 33
0.0
  0
SOLID
  5
383
  8
0
 10
16.5
 20
54.6999999999999886
 30
0.0
 11
16.5
 21
53.6000000000000014
 31
0.0
 12
17.5
 22
54.6999999999999886
 32
0.0
 13
17.5
 23
53.6000000000000014
 33
0.0
  0
SOLID
  5
384
  8
0
 10
16.5
 20
56.3999999999999986
 30
0.0
 11
16.5
 21
55.3000000000000114
 31
0.0
 12
17.5
 22
56.3999999999999986
 32
0.0
 13
17.5
 23
55.3000000000000114
 33
0.0
  0
SOLID
  5
385
  8
0
 10
34.5
 20
50.7000000000000028
 30
0.0
 11
34.5
 21
49.6000000000000014
 31
0.0
 12
35.5
 22
50.7000000000000028
 32
0.0
 13
35.5
 23
49.6000000000000014
 33
0.0
  0
SOLID
  5
386
  8
0
 10
34.5
 20
52.3999999999999986
 30
0.0
 11
34.5
 21
51.2999999999999972
 31
0.0
 12
35.5
 22
52.3999999999999986
 32
0.0
 13
35.5
 23
51.2999999999999972
 33
0.0
  0
SOLID
  5
387
  8
0
 10
22.5
 20
54.6999999999999886
 30
0.0
 11
22.5
 21
53.6000000000000014
 31
0.0
 12
23.5
 22
54.6999999999999886
 32
0.0
 13
23.5
 23
53.6000000000000014
 33
0.0
  0
SOLID
  5
388
  8
0
 10
22.5
 20
56.3999999999999986
 30
0.0
 11
22.5
 21
55.3000000000000114
 31
0.0
 12
23.5
 22
56.3999999999999986
 32
0.0
 13
23.5
 23
55.3000000000000114
 33
0.0
  0
SOLID
  5
389
  8
0
 10
28.5
 20
54.6999999999999886
 30
0.0
 11
28.5
 21
53.6000000000000014
 31
0.0
 12
29.5
 22
54.6999999999999886
 32
0.0
 13
29.5
 23
53.6000000000000014
 33
0.0
  0
SOLID
  5
38A
  8
0
 10
28.5
 20
56.3999999999999986
 30
0.0
 11
28.5
 21
55.3000000000000114
 31
0.0
 12
29.5
 22
56.3999999999999986
 32
0.0
 13
29.5
 23
55.3000000000000114
 33
0.0
  0
SOLID
  5
38B
  8
0
 10
13.5
 20
12.6999999999999993
 30
0.0
 11
13.5
 21
11.5999999999999996
 31
0.0
 12
14.5
 22
12.6999999999999993
 32
0.0
 13
14.5
 23
11.5999999999999996
 33
0.0
  0
SOLID
  5
38C
  8
0
 10
13.5
 20
14.4000000000000004
 30
0.0
 11
13.5
 21
13.3000000000000007
 31
0.0
 12
14.5
 22
14.4000000000000004
 32
0.0
 13
14.5
 23
13.3000000000000007
 33
0.0
  0
SOLID
  5
38D
  8
0
 10
11.5
 20
12.6999999999999993
 30
0.0
 11
11.5
 21
11.5999999999999996
 31
0.0
 12
12.5
 22
12.6999999999999993
 32
0.0
 13
12.5
 23
11.5999999999999996
 33
0.0
  0
SOLID
  5
38E
  8
0
 10
11.5
 20
14.4000000000000004
 30
0.0
 11
11.5
 21
13.3000000000000007
 31
0.0
 12
12.5
 22
14.4000000000000004
 32
0.0
 13
12.5
 23
13.3000000000000007
 33
0.0
  0
SOLID
  5
38F
  8
0
 10
12.5
 20
17.3000000000000007
 30
0.0
 11
12.5
 21
18.3999999999999986
 31
0.0
 12
11.5
 22
17.3000000000000007
 32
0.0
 13
11.5
 23
18.3999999999999986
 33
0.0
  0
SOLID
  5
390
  8
0
 10
12.5
 20
15.5999999999999996
 30
0.0
 11
12.5
 21
16.6999999999999993
 31
0.0
 12
11.5
 22
15.5999999999999996
 32
0.0
 13
11.5
 23
16.6999999999999993
 33
0.0
  0
ENDSEC
  0
EOF
