G75*
%MOIN*%
%OFA0B0*%
%FSLAX25Y25*%
%IPPOS*%
%LPD*%
%AMOC8*
5,1,8,0,0,1.08239X$1,22.5*
%
%ADD10C,0.00000*%
%ADD11C,0.12600*%
%ADD12R,0.01581X0.05124*%
%ADD13R,0.05124X0.02762*%
%ADD14R,0.04337X0.04731*%
%ADD15R,0.07880X0.07487*%
%ADD16R,0.07880X0.07880*%
%ADD17R,0.06699X0.08668*%
%ADD18R,0.05715X0.01975*%
%ADD19R,0.02762X0.03550*%
%ADD20R,0.05124X0.02565*%
%ADD21R,0.04731X0.04337*%
%ADD22R,0.08400X0.03000*%
%ADD23C,0.06400*%
%ADD24R,0.06699X0.12211*%
%ADD25R,0.19400X0.22900*%
%ADD26R,0.02565X0.05124*%
%ADD27R,0.05203X0.03983*%
%ADD28R,0.03983X0.05203*%
%ADD29R,0.01975X0.02762*%
%ADD30OC8,0.06850*%
%ADD31R,0.03550X0.03550*%
%ADD32R,0.02762X0.01975*%
%ADD33R,0.07487X0.18117*%
%ADD34OC8,0.06400*%
D10*
X0004419Y0001800D02*
X0004419Y0261643D01*
X0154025Y0261643D01*
X0154045Y0001800D01*
X0004419Y0001800D01*
X0136114Y0041170D02*
X0136116Y0041326D01*
X0136122Y0041481D01*
X0136132Y0041637D01*
X0136146Y0041792D01*
X0136164Y0041947D01*
X0136185Y0042101D01*
X0136211Y0042255D01*
X0136241Y0042408D01*
X0136274Y0042560D01*
X0136312Y0042711D01*
X0136353Y0042861D01*
X0136398Y0043010D01*
X0136447Y0043158D01*
X0136500Y0043305D01*
X0136556Y0043450D01*
X0136616Y0043594D01*
X0136680Y0043736D01*
X0136747Y0043877D01*
X0136818Y0044015D01*
X0136893Y0044152D01*
X0136971Y0044287D01*
X0137052Y0044420D01*
X0137137Y0044551D01*
X0137225Y0044679D01*
X0137316Y0044806D01*
X0137410Y0044930D01*
X0137508Y0045051D01*
X0137609Y0045170D01*
X0137712Y0045286D01*
X0137819Y0045400D01*
X0137928Y0045511D01*
X0138041Y0045619D01*
X0138156Y0045724D01*
X0138273Y0045826D01*
X0138393Y0045925D01*
X0138516Y0046021D01*
X0138641Y0046114D01*
X0138769Y0046204D01*
X0138898Y0046290D01*
X0139030Y0046373D01*
X0139164Y0046453D01*
X0139300Y0046529D01*
X0139438Y0046602D01*
X0139577Y0046671D01*
X0139719Y0046736D01*
X0139862Y0046798D01*
X0140006Y0046856D01*
X0140152Y0046911D01*
X0140299Y0046962D01*
X0140448Y0047009D01*
X0140598Y0047052D01*
X0140748Y0047091D01*
X0140900Y0047127D01*
X0141053Y0047158D01*
X0141206Y0047186D01*
X0141360Y0047210D01*
X0141514Y0047230D01*
X0141669Y0047246D01*
X0141825Y0047258D01*
X0141980Y0047266D01*
X0142136Y0047270D01*
X0142292Y0047270D01*
X0142448Y0047266D01*
X0142603Y0047258D01*
X0142759Y0047246D01*
X0142914Y0047230D01*
X0143068Y0047210D01*
X0143222Y0047186D01*
X0143375Y0047158D01*
X0143528Y0047127D01*
X0143680Y0047091D01*
X0143830Y0047052D01*
X0143980Y0047009D01*
X0144129Y0046962D01*
X0144276Y0046911D01*
X0144422Y0046856D01*
X0144566Y0046798D01*
X0144709Y0046736D01*
X0144851Y0046671D01*
X0144990Y0046602D01*
X0145128Y0046529D01*
X0145264Y0046453D01*
X0145398Y0046373D01*
X0145530Y0046290D01*
X0145659Y0046204D01*
X0145787Y0046114D01*
X0145912Y0046021D01*
X0146035Y0045925D01*
X0146155Y0045826D01*
X0146272Y0045724D01*
X0146387Y0045619D01*
X0146500Y0045511D01*
X0146609Y0045400D01*
X0146716Y0045286D01*
X0146819Y0045170D01*
X0146920Y0045051D01*
X0147018Y0044930D01*
X0147112Y0044806D01*
X0147203Y0044679D01*
X0147291Y0044551D01*
X0147376Y0044420D01*
X0147457Y0044287D01*
X0147535Y0044152D01*
X0147610Y0044015D01*
X0147681Y0043877D01*
X0147748Y0043736D01*
X0147812Y0043594D01*
X0147872Y0043450D01*
X0147928Y0043305D01*
X0147981Y0043158D01*
X0148030Y0043010D01*
X0148075Y0042861D01*
X0148116Y0042711D01*
X0148154Y0042560D01*
X0148187Y0042408D01*
X0148217Y0042255D01*
X0148243Y0042101D01*
X0148264Y0041947D01*
X0148282Y0041792D01*
X0148296Y0041637D01*
X0148306Y0041481D01*
X0148312Y0041326D01*
X0148314Y0041170D01*
X0148312Y0041014D01*
X0148306Y0040859D01*
X0148296Y0040703D01*
X0148282Y0040548D01*
X0148264Y0040393D01*
X0148243Y0040239D01*
X0148217Y0040085D01*
X0148187Y0039932D01*
X0148154Y0039780D01*
X0148116Y0039629D01*
X0148075Y0039479D01*
X0148030Y0039330D01*
X0147981Y0039182D01*
X0147928Y0039035D01*
X0147872Y0038890D01*
X0147812Y0038746D01*
X0147748Y0038604D01*
X0147681Y0038463D01*
X0147610Y0038325D01*
X0147535Y0038188D01*
X0147457Y0038053D01*
X0147376Y0037920D01*
X0147291Y0037789D01*
X0147203Y0037661D01*
X0147112Y0037534D01*
X0147018Y0037410D01*
X0146920Y0037289D01*
X0146819Y0037170D01*
X0146716Y0037054D01*
X0146609Y0036940D01*
X0146500Y0036829D01*
X0146387Y0036721D01*
X0146272Y0036616D01*
X0146155Y0036514D01*
X0146035Y0036415D01*
X0145912Y0036319D01*
X0145787Y0036226D01*
X0145659Y0036136D01*
X0145530Y0036050D01*
X0145398Y0035967D01*
X0145264Y0035887D01*
X0145128Y0035811D01*
X0144990Y0035738D01*
X0144851Y0035669D01*
X0144709Y0035604D01*
X0144566Y0035542D01*
X0144422Y0035484D01*
X0144276Y0035429D01*
X0144129Y0035378D01*
X0143980Y0035331D01*
X0143830Y0035288D01*
X0143680Y0035249D01*
X0143528Y0035213D01*
X0143375Y0035182D01*
X0143222Y0035154D01*
X0143068Y0035130D01*
X0142914Y0035110D01*
X0142759Y0035094D01*
X0142603Y0035082D01*
X0142448Y0035074D01*
X0142292Y0035070D01*
X0142136Y0035070D01*
X0141980Y0035074D01*
X0141825Y0035082D01*
X0141669Y0035094D01*
X0141514Y0035110D01*
X0141360Y0035130D01*
X0141206Y0035154D01*
X0141053Y0035182D01*
X0140900Y0035213D01*
X0140748Y0035249D01*
X0140598Y0035288D01*
X0140448Y0035331D01*
X0140299Y0035378D01*
X0140152Y0035429D01*
X0140006Y0035484D01*
X0139862Y0035542D01*
X0139719Y0035604D01*
X0139577Y0035669D01*
X0139438Y0035738D01*
X0139300Y0035811D01*
X0139164Y0035887D01*
X0139030Y0035967D01*
X0138898Y0036050D01*
X0138769Y0036136D01*
X0138641Y0036226D01*
X0138516Y0036319D01*
X0138393Y0036415D01*
X0138273Y0036514D01*
X0138156Y0036616D01*
X0138041Y0036721D01*
X0137928Y0036829D01*
X0137819Y0036940D01*
X0137712Y0037054D01*
X0137609Y0037170D01*
X0137508Y0037289D01*
X0137410Y0037410D01*
X0137316Y0037534D01*
X0137225Y0037661D01*
X0137137Y0037789D01*
X0137052Y0037920D01*
X0136971Y0038053D01*
X0136893Y0038188D01*
X0136818Y0038325D01*
X0136747Y0038463D01*
X0136680Y0038604D01*
X0136616Y0038746D01*
X0136556Y0038890D01*
X0136500Y0039035D01*
X0136447Y0039182D01*
X0136398Y0039330D01*
X0136353Y0039479D01*
X0136312Y0039629D01*
X0136274Y0039780D01*
X0136241Y0039932D01*
X0136211Y0040085D01*
X0136185Y0040239D01*
X0136164Y0040393D01*
X0136146Y0040548D01*
X0136132Y0040703D01*
X0136122Y0040859D01*
X0136116Y0041014D01*
X0136114Y0041170D01*
X0136114Y0119910D02*
X0136116Y0120066D01*
X0136122Y0120221D01*
X0136132Y0120377D01*
X0136146Y0120532D01*
X0136164Y0120687D01*
X0136185Y0120841D01*
X0136211Y0120995D01*
X0136241Y0121148D01*
X0136274Y0121300D01*
X0136312Y0121451D01*
X0136353Y0121601D01*
X0136398Y0121750D01*
X0136447Y0121898D01*
X0136500Y0122045D01*
X0136556Y0122190D01*
X0136616Y0122334D01*
X0136680Y0122476D01*
X0136747Y0122617D01*
X0136818Y0122755D01*
X0136893Y0122892D01*
X0136971Y0123027D01*
X0137052Y0123160D01*
X0137137Y0123291D01*
X0137225Y0123419D01*
X0137316Y0123546D01*
X0137410Y0123670D01*
X0137508Y0123791D01*
X0137609Y0123910D01*
X0137712Y0124026D01*
X0137819Y0124140D01*
X0137928Y0124251D01*
X0138041Y0124359D01*
X0138156Y0124464D01*
X0138273Y0124566D01*
X0138393Y0124665D01*
X0138516Y0124761D01*
X0138641Y0124854D01*
X0138769Y0124944D01*
X0138898Y0125030D01*
X0139030Y0125113D01*
X0139164Y0125193D01*
X0139300Y0125269D01*
X0139438Y0125342D01*
X0139577Y0125411D01*
X0139719Y0125476D01*
X0139862Y0125538D01*
X0140006Y0125596D01*
X0140152Y0125651D01*
X0140299Y0125702D01*
X0140448Y0125749D01*
X0140598Y0125792D01*
X0140748Y0125831D01*
X0140900Y0125867D01*
X0141053Y0125898D01*
X0141206Y0125926D01*
X0141360Y0125950D01*
X0141514Y0125970D01*
X0141669Y0125986D01*
X0141825Y0125998D01*
X0141980Y0126006D01*
X0142136Y0126010D01*
X0142292Y0126010D01*
X0142448Y0126006D01*
X0142603Y0125998D01*
X0142759Y0125986D01*
X0142914Y0125970D01*
X0143068Y0125950D01*
X0143222Y0125926D01*
X0143375Y0125898D01*
X0143528Y0125867D01*
X0143680Y0125831D01*
X0143830Y0125792D01*
X0143980Y0125749D01*
X0144129Y0125702D01*
X0144276Y0125651D01*
X0144422Y0125596D01*
X0144566Y0125538D01*
X0144709Y0125476D01*
X0144851Y0125411D01*
X0144990Y0125342D01*
X0145128Y0125269D01*
X0145264Y0125193D01*
X0145398Y0125113D01*
X0145530Y0125030D01*
X0145659Y0124944D01*
X0145787Y0124854D01*
X0145912Y0124761D01*
X0146035Y0124665D01*
X0146155Y0124566D01*
X0146272Y0124464D01*
X0146387Y0124359D01*
X0146500Y0124251D01*
X0146609Y0124140D01*
X0146716Y0124026D01*
X0146819Y0123910D01*
X0146920Y0123791D01*
X0147018Y0123670D01*
X0147112Y0123546D01*
X0147203Y0123419D01*
X0147291Y0123291D01*
X0147376Y0123160D01*
X0147457Y0123027D01*
X0147535Y0122892D01*
X0147610Y0122755D01*
X0147681Y0122617D01*
X0147748Y0122476D01*
X0147812Y0122334D01*
X0147872Y0122190D01*
X0147928Y0122045D01*
X0147981Y0121898D01*
X0148030Y0121750D01*
X0148075Y0121601D01*
X0148116Y0121451D01*
X0148154Y0121300D01*
X0148187Y0121148D01*
X0148217Y0120995D01*
X0148243Y0120841D01*
X0148264Y0120687D01*
X0148282Y0120532D01*
X0148296Y0120377D01*
X0148306Y0120221D01*
X0148312Y0120066D01*
X0148314Y0119910D01*
X0148312Y0119754D01*
X0148306Y0119599D01*
X0148296Y0119443D01*
X0148282Y0119288D01*
X0148264Y0119133D01*
X0148243Y0118979D01*
X0148217Y0118825D01*
X0148187Y0118672D01*
X0148154Y0118520D01*
X0148116Y0118369D01*
X0148075Y0118219D01*
X0148030Y0118070D01*
X0147981Y0117922D01*
X0147928Y0117775D01*
X0147872Y0117630D01*
X0147812Y0117486D01*
X0147748Y0117344D01*
X0147681Y0117203D01*
X0147610Y0117065D01*
X0147535Y0116928D01*
X0147457Y0116793D01*
X0147376Y0116660D01*
X0147291Y0116529D01*
X0147203Y0116401D01*
X0147112Y0116274D01*
X0147018Y0116150D01*
X0146920Y0116029D01*
X0146819Y0115910D01*
X0146716Y0115794D01*
X0146609Y0115680D01*
X0146500Y0115569D01*
X0146387Y0115461D01*
X0146272Y0115356D01*
X0146155Y0115254D01*
X0146035Y0115155D01*
X0145912Y0115059D01*
X0145787Y0114966D01*
X0145659Y0114876D01*
X0145530Y0114790D01*
X0145398Y0114707D01*
X0145264Y0114627D01*
X0145128Y0114551D01*
X0144990Y0114478D01*
X0144851Y0114409D01*
X0144709Y0114344D01*
X0144566Y0114282D01*
X0144422Y0114224D01*
X0144276Y0114169D01*
X0144129Y0114118D01*
X0143980Y0114071D01*
X0143830Y0114028D01*
X0143680Y0113989D01*
X0143528Y0113953D01*
X0143375Y0113922D01*
X0143222Y0113894D01*
X0143068Y0113870D01*
X0142914Y0113850D01*
X0142759Y0113834D01*
X0142603Y0113822D01*
X0142448Y0113814D01*
X0142292Y0113810D01*
X0142136Y0113810D01*
X0141980Y0113814D01*
X0141825Y0113822D01*
X0141669Y0113834D01*
X0141514Y0113850D01*
X0141360Y0113870D01*
X0141206Y0113894D01*
X0141053Y0113922D01*
X0140900Y0113953D01*
X0140748Y0113989D01*
X0140598Y0114028D01*
X0140448Y0114071D01*
X0140299Y0114118D01*
X0140152Y0114169D01*
X0140006Y0114224D01*
X0139862Y0114282D01*
X0139719Y0114344D01*
X0139577Y0114409D01*
X0139438Y0114478D01*
X0139300Y0114551D01*
X0139164Y0114627D01*
X0139030Y0114707D01*
X0138898Y0114790D01*
X0138769Y0114876D01*
X0138641Y0114966D01*
X0138516Y0115059D01*
X0138393Y0115155D01*
X0138273Y0115254D01*
X0138156Y0115356D01*
X0138041Y0115461D01*
X0137928Y0115569D01*
X0137819Y0115680D01*
X0137712Y0115794D01*
X0137609Y0115910D01*
X0137508Y0116029D01*
X0137410Y0116150D01*
X0137316Y0116274D01*
X0137225Y0116401D01*
X0137137Y0116529D01*
X0137052Y0116660D01*
X0136971Y0116793D01*
X0136893Y0116928D01*
X0136818Y0117065D01*
X0136747Y0117203D01*
X0136680Y0117344D01*
X0136616Y0117486D01*
X0136556Y0117630D01*
X0136500Y0117775D01*
X0136447Y0117922D01*
X0136398Y0118070D01*
X0136353Y0118219D01*
X0136312Y0118369D01*
X0136274Y0118520D01*
X0136241Y0118672D01*
X0136211Y0118825D01*
X0136185Y0118979D01*
X0136164Y0119133D01*
X0136146Y0119288D01*
X0136132Y0119443D01*
X0136122Y0119599D01*
X0136116Y0119754D01*
X0136114Y0119910D01*
D11*
X0142214Y0119910D03*
X0142214Y0041170D03*
D12*
G36*
X0099031Y0113071D02*
X0097913Y0111953D01*
X0094291Y0115575D01*
X0095409Y0116693D01*
X0099031Y0113071D01*
G37*
G36*
X0100423Y0114463D02*
X0099305Y0113345D01*
X0095683Y0116967D01*
X0096801Y0118085D01*
X0100423Y0114463D01*
G37*
G36*
X0101815Y0115855D02*
X0100697Y0114737D01*
X0097075Y0118359D01*
X0098193Y0119477D01*
X0101815Y0115855D01*
G37*
G36*
X0103206Y0117247D02*
X0102088Y0116129D01*
X0098466Y0119751D01*
X0099584Y0120869D01*
X0103206Y0117247D01*
G37*
G36*
X0102088Y0129221D02*
X0103206Y0128103D01*
X0099584Y0124481D01*
X0098466Y0125599D01*
X0102088Y0129221D01*
G37*
G36*
X0100697Y0130613D02*
X0101815Y0129495D01*
X0098193Y0125873D01*
X0097075Y0126991D01*
X0100697Y0130613D01*
G37*
G36*
X0099305Y0132005D02*
X0100423Y0130887D01*
X0096801Y0127265D01*
X0095683Y0128383D01*
X0099305Y0132005D01*
G37*
G36*
X0097913Y0133397D02*
X0099031Y0132279D01*
X0095409Y0128657D01*
X0094291Y0129775D01*
X0097913Y0133397D01*
G37*
G36*
X0096521Y0134789D02*
X0097639Y0133671D01*
X0094017Y0130049D01*
X0092899Y0131167D01*
X0096521Y0134789D01*
G37*
G36*
X0095129Y0136181D02*
X0096247Y0135063D01*
X0092625Y0131441D01*
X0091507Y0132559D01*
X0095129Y0136181D01*
G37*
G36*
X0093737Y0137573D02*
X0094855Y0136455D01*
X0091233Y0132833D01*
X0090115Y0133951D01*
X0093737Y0137573D01*
G37*
G36*
X0092345Y0138964D02*
X0093463Y0137846D01*
X0089841Y0134224D01*
X0088723Y0135342D01*
X0092345Y0138964D01*
G37*
G36*
X0090953Y0140356D02*
X0092071Y0139238D01*
X0088449Y0135616D01*
X0087331Y0136734D01*
X0090953Y0140356D01*
G37*
G36*
X0089561Y0141748D02*
X0090679Y0140630D01*
X0087057Y0137008D01*
X0085939Y0138126D01*
X0089561Y0141748D01*
G37*
G36*
X0088169Y0143140D02*
X0089287Y0142022D01*
X0085665Y0138400D01*
X0084547Y0139518D01*
X0088169Y0143140D01*
G37*
G36*
X0086777Y0144532D02*
X0087895Y0143414D01*
X0084273Y0139792D01*
X0083155Y0140910D01*
X0086777Y0144532D01*
G37*
G36*
X0079543Y0140910D02*
X0078425Y0139792D01*
X0074803Y0143414D01*
X0075921Y0144532D01*
X0079543Y0140910D01*
G37*
G36*
X0078151Y0139518D02*
X0077033Y0138400D01*
X0073411Y0142022D01*
X0074529Y0143140D01*
X0078151Y0139518D01*
G37*
G36*
X0076760Y0138126D02*
X0075642Y0137008D01*
X0072020Y0140630D01*
X0073138Y0141748D01*
X0076760Y0138126D01*
G37*
G36*
X0075368Y0136734D02*
X0074250Y0135616D01*
X0070628Y0139238D01*
X0071746Y0140356D01*
X0075368Y0136734D01*
G37*
G36*
X0073976Y0135342D02*
X0072858Y0134224D01*
X0069236Y0137846D01*
X0070354Y0138964D01*
X0073976Y0135342D01*
G37*
G36*
X0072584Y0133951D02*
X0071466Y0132833D01*
X0067844Y0136455D01*
X0068962Y0137573D01*
X0072584Y0133951D01*
G37*
G36*
X0071192Y0132559D02*
X0070074Y0131441D01*
X0066452Y0135063D01*
X0067570Y0136181D01*
X0071192Y0132559D01*
G37*
G36*
X0069800Y0131167D02*
X0068682Y0130049D01*
X0065060Y0133671D01*
X0066178Y0134789D01*
X0069800Y0131167D01*
G37*
G36*
X0068408Y0129775D02*
X0067290Y0128657D01*
X0063668Y0132279D01*
X0064786Y0133397D01*
X0068408Y0129775D01*
G37*
G36*
X0067016Y0128383D02*
X0065898Y0127265D01*
X0062276Y0130887D01*
X0063394Y0132005D01*
X0067016Y0128383D01*
G37*
G36*
X0065624Y0126991D02*
X0064506Y0125873D01*
X0060884Y0129495D01*
X0062002Y0130613D01*
X0065624Y0126991D01*
G37*
G36*
X0064232Y0125599D02*
X0063114Y0124481D01*
X0059492Y0128103D01*
X0060610Y0129221D01*
X0064232Y0125599D01*
G37*
G36*
X0063114Y0120869D02*
X0064232Y0119751D01*
X0060610Y0116129D01*
X0059492Y0117247D01*
X0063114Y0120869D01*
G37*
G36*
X0064506Y0119477D02*
X0065624Y0118359D01*
X0062002Y0114737D01*
X0060884Y0115855D01*
X0064506Y0119477D01*
G37*
G36*
X0065898Y0118085D02*
X0067016Y0116967D01*
X0063394Y0113345D01*
X0062276Y0114463D01*
X0065898Y0118085D01*
G37*
G36*
X0067290Y0116693D02*
X0068408Y0115575D01*
X0064786Y0111953D01*
X0063668Y0113071D01*
X0067290Y0116693D01*
G37*
G36*
X0068682Y0115301D02*
X0069800Y0114183D01*
X0066178Y0110561D01*
X0065060Y0111679D01*
X0068682Y0115301D01*
G37*
G36*
X0070074Y0113909D02*
X0071192Y0112791D01*
X0067570Y0109169D01*
X0066452Y0110287D01*
X0070074Y0113909D01*
G37*
G36*
X0071466Y0112518D02*
X0072584Y0111400D01*
X0068962Y0107778D01*
X0067844Y0108896D01*
X0071466Y0112518D01*
G37*
G36*
X0072858Y0111126D02*
X0073976Y0110008D01*
X0070354Y0106386D01*
X0069236Y0107504D01*
X0072858Y0111126D01*
G37*
G36*
X0074250Y0109734D02*
X0075368Y0108616D01*
X0071746Y0104994D01*
X0070628Y0106112D01*
X0074250Y0109734D01*
G37*
G36*
X0075642Y0108342D02*
X0076760Y0107224D01*
X0073138Y0103602D01*
X0072020Y0104720D01*
X0075642Y0108342D01*
G37*
G36*
X0077033Y0106950D02*
X0078151Y0105832D01*
X0074529Y0102210D01*
X0073411Y0103328D01*
X0077033Y0106950D01*
G37*
G36*
X0078425Y0105558D02*
X0079543Y0104440D01*
X0075921Y0100818D01*
X0074803Y0101936D01*
X0078425Y0105558D01*
G37*
G36*
X0087895Y0101936D02*
X0086777Y0100818D01*
X0083155Y0104440D01*
X0084273Y0105558D01*
X0087895Y0101936D01*
G37*
G36*
X0089287Y0103328D02*
X0088169Y0102210D01*
X0084547Y0105832D01*
X0085665Y0106950D01*
X0089287Y0103328D01*
G37*
G36*
X0090679Y0104720D02*
X0089561Y0103602D01*
X0085939Y0107224D01*
X0087057Y0108342D01*
X0090679Y0104720D01*
G37*
G36*
X0092071Y0106112D02*
X0090953Y0104994D01*
X0087331Y0108616D01*
X0088449Y0109734D01*
X0092071Y0106112D01*
G37*
G36*
X0093463Y0107504D02*
X0092345Y0106386D01*
X0088723Y0110008D01*
X0089841Y0111126D01*
X0093463Y0107504D01*
G37*
G36*
X0094855Y0108896D02*
X0093737Y0107778D01*
X0090115Y0111400D01*
X0091233Y0112518D01*
X0094855Y0108896D01*
G37*
G36*
X0096247Y0110287D02*
X0095129Y0109169D01*
X0091507Y0112791D01*
X0092625Y0113909D01*
X0096247Y0110287D01*
G37*
G36*
X0097639Y0111679D02*
X0096521Y0110561D01*
X0092899Y0114183D01*
X0094017Y0115301D01*
X0097639Y0111679D01*
G37*
D13*
X0075875Y0056721D03*
X0075875Y0052981D03*
X0075875Y0049241D03*
X0066820Y0049241D03*
X0066820Y0056721D03*
D14*
X0059537Y0056328D03*
X0059537Y0049635D03*
X0051663Y0049635D03*
X0051663Y0056328D03*
X0051663Y0065383D03*
X0051663Y0072076D03*
X0051663Y0040580D03*
X0051663Y0033887D03*
X0043789Y0024831D03*
X0043789Y0018139D03*
X0023453Y0014943D03*
X0016760Y0014943D03*
X0075875Y0021485D03*
X0082568Y0021485D03*
X0083159Y0049635D03*
X0083159Y0056328D03*
X0110718Y0081131D03*
X0110718Y0087824D03*
X0115639Y0060265D03*
X0115639Y0053572D03*
X0035324Y0171091D03*
X0028631Y0171091D03*
X0067411Y0230737D03*
X0067411Y0237430D03*
X0071348Y0221682D03*
X0071348Y0214989D03*
X0091033Y0230737D03*
X0091033Y0237430D03*
X0094970Y0221682D03*
X0094970Y0214989D03*
X0118592Y0214989D03*
X0118592Y0221682D03*
X0118592Y0230737D03*
X0118592Y0237430D03*
X0142214Y0237430D03*
X0142214Y0230737D03*
X0142214Y0205934D03*
X0142214Y0199241D03*
D15*
X0008631Y0165284D03*
X0008631Y0135363D03*
D16*
X0008631Y0145599D03*
X0008631Y0155048D03*
D17*
X0018671Y0162528D03*
X0018671Y0138119D03*
D18*
X0019261Y0145206D03*
X0019261Y0147765D03*
X0019261Y0150324D03*
X0019261Y0152883D03*
X0019261Y0155442D03*
D19*
X0039852Y0073650D03*
X0039852Y0063808D03*
X0043789Y0057902D03*
X0043789Y0048060D03*
D20*
X0062292Y0040973D03*
X0062292Y0033493D03*
X0072529Y0033493D03*
X0072529Y0037233D03*
X0072529Y0040973D03*
X0133158Y0214595D03*
X0133158Y0222076D03*
X0135521Y0230343D03*
X0135521Y0234083D03*
X0135521Y0237824D03*
X0143395Y0222076D03*
X0143395Y0218335D03*
X0143395Y0214595D03*
X0125284Y0230343D03*
X0125284Y0237824D03*
X0111899Y0237824D03*
X0111899Y0234083D03*
X0111899Y0230343D03*
X0101662Y0230343D03*
X0101662Y0237824D03*
X0084340Y0237824D03*
X0084340Y0234083D03*
X0084340Y0230343D03*
X0074103Y0230343D03*
X0074103Y0237824D03*
D21*
X0079222Y0221682D03*
X0079222Y0214989D03*
X0087096Y0214989D03*
X0087096Y0221682D03*
X0102844Y0221682D03*
X0102844Y0214989D03*
X0110718Y0214989D03*
X0110718Y0221682D03*
X0126466Y0205934D03*
X0126466Y0199241D03*
X0134340Y0199241D03*
X0134340Y0205934D03*
X0134340Y0178375D03*
X0134340Y0171682D03*
X0142214Y0171682D03*
X0142214Y0178375D03*
X0142214Y0158690D03*
X0142214Y0151997D03*
X0134340Y0151997D03*
X0134340Y0158690D03*
X0126466Y0158690D03*
X0126466Y0151997D03*
X0118592Y0151997D03*
X0118592Y0158690D03*
X0118592Y0171682D03*
X0118592Y0178375D03*
X0126466Y0178375D03*
X0126466Y0171682D03*
G36*
X0093538Y0145835D02*
X0090194Y0149179D01*
X0093260Y0152245D01*
X0096604Y0148901D01*
X0093538Y0145835D01*
G37*
G36*
X0088805Y0150568D02*
X0085461Y0153912D01*
X0088527Y0156978D01*
X0091871Y0153634D01*
X0088805Y0150568D01*
G37*
X0078631Y0161249D03*
X0071938Y0161249D03*
G36*
X0057234Y0134227D02*
X0053890Y0130883D01*
X0050824Y0133949D01*
X0054168Y0137293D01*
X0057234Y0134227D01*
G37*
G36*
X0052501Y0129494D02*
X0049157Y0126150D01*
X0046091Y0129216D01*
X0049435Y0132560D01*
X0052501Y0129494D01*
G37*
G36*
X0068842Y0093985D02*
X0072186Y0090641D01*
X0069120Y0087575D01*
X0065776Y0090919D01*
X0068842Y0093985D01*
G37*
G36*
X0073575Y0089253D02*
X0076919Y0085909D01*
X0073853Y0082843D01*
X0070509Y0086187D01*
X0073575Y0089253D01*
G37*
X0094970Y0087824D03*
X0094970Y0081131D03*
X0102844Y0081131D03*
X0102844Y0087824D03*
G36*
X0101210Y0101657D02*
X0104554Y0105001D01*
X0107620Y0101935D01*
X0104276Y0098591D01*
X0101210Y0101657D01*
G37*
G36*
X0105942Y0106390D02*
X0109286Y0109734D01*
X0112352Y0106668D01*
X0109008Y0103324D01*
X0105942Y0106390D01*
G37*
X0114655Y0076013D03*
X0114655Y0069320D03*
X0123513Y0060265D03*
X0123513Y0053572D03*
X0091033Y0056328D03*
X0091033Y0049635D03*
X0082568Y0013611D03*
X0075875Y0013611D03*
X0043789Y0033887D03*
X0043789Y0040580D03*
X0035915Y0040580D03*
X0035915Y0033887D03*
X0035324Y0178965D03*
X0028631Y0178965D03*
X0055600Y0214989D03*
X0055600Y0221682D03*
X0063474Y0221682D03*
X0063474Y0214989D03*
X0039852Y0230737D03*
X0039852Y0237430D03*
X0039852Y0246485D03*
X0039852Y0253178D03*
X0016230Y0253178D03*
X0016230Y0246485D03*
X0016230Y0237430D03*
X0016230Y0230737D03*
D22*
X0061216Y0197902D03*
X0061216Y0192902D03*
X0061216Y0187902D03*
X0061216Y0182902D03*
X0061216Y0177902D03*
X0061216Y0172902D03*
X0061216Y0167902D03*
X0085416Y0167902D03*
X0085416Y0172902D03*
X0085416Y0177902D03*
X0085416Y0182902D03*
X0085416Y0187902D03*
X0085416Y0192902D03*
X0085416Y0197902D03*
D23*
X0080285Y0246831D02*
X0080285Y0252831D01*
X0070285Y0252831D02*
X0070285Y0246831D01*
X0109655Y0246831D02*
X0109655Y0252831D01*
X0119655Y0252831D02*
X0119655Y0246831D01*
X0019230Y0209713D02*
X0013230Y0209713D01*
X0013230Y0199713D02*
X0019230Y0199713D01*
X0019230Y0189713D02*
X0013230Y0189713D01*
X0013230Y0179713D02*
X0019230Y0179713D01*
X0015659Y0028914D02*
X0015659Y0022914D01*
X0025659Y0022914D02*
X0025659Y0028914D01*
D24*
X0101741Y0042391D03*
X0119694Y0042391D03*
D25*
X0110718Y0015233D03*
D26*
X0106584Y0059674D03*
X0099104Y0059674D03*
X0099104Y0069911D03*
X0102844Y0069911D03*
X0106584Y0069911D03*
D27*
X0083159Y0043729D03*
X0083159Y0030737D03*
X0031978Y0129162D03*
X0031978Y0142154D03*
D28*
X0131781Y0249831D03*
X0144773Y0249831D03*
D29*
X0099497Y0245894D03*
X0096938Y0245894D03*
X0094379Y0245894D03*
X0094379Y0253769D03*
X0096938Y0253769D03*
X0099497Y0253769D03*
D30*
X0142214Y0085277D03*
X0137477Y0080540D03*
X0142214Y0075803D03*
D31*
X0031978Y0231131D03*
X0031978Y0237036D03*
X0031978Y0246879D03*
X0031978Y0252784D03*
X0024104Y0252784D03*
X0024104Y0246879D03*
X0024104Y0237036D03*
X0024104Y0231131D03*
D32*
X0039852Y0157902D03*
X0039852Y0155343D03*
X0039852Y0152784D03*
X0047726Y0152784D03*
X0047726Y0155343D03*
X0047726Y0157902D03*
D33*
X0053139Y0017548D03*
X0065934Y0017548D03*
D34*
X0025167Y0049477D03*
X0025167Y0059477D03*
X0025167Y0069477D03*
X0025167Y0079477D03*
X0025167Y0089477D03*
X0025167Y0099477D03*
X0025167Y0109477D03*
X0025167Y0119477D03*
X0015167Y0119477D03*
X0015167Y0109477D03*
X0015167Y0099477D03*
X0015167Y0089477D03*
X0015167Y0079477D03*
X0015167Y0069477D03*
X0015167Y0059477D03*
X0015167Y0049477D03*
M02*
