%
M48
M72
T01C0.01200
T02C0.04000
T03C0.04300
T04C0.04331
T05C0.12200
%
T01
X27900Y18000
X27300Y43800
X41100Y49800
X46500Y60300
X33300Y64800
X35700Y83700
X35700Y92100
X31200Y107700
X36300Y109800
X27900Y123600
X30900Y128400
X29700Y140700
X41100Y150600
X30600Y164100
X23100Y171600
X17548Y180442
X21600Y183900
X33600Y198600
X38400Y191100
X42000Y191100
X42600Y186900
X42600Y178800
X37200Y175800
X43800Y202500
X49200Y220500
X32700Y226200
X29400Y227700
X29400Y243300
X15600Y226800
X63900Y148800
X63000Y141900
X57300Y131700
X63900Y120000
X66900Y120000
X70500Y113400
X75600Y114000
X80100Y116100
X72000Y122100
X76800Y138300
X88200Y144000
X99000Y132000
X98400Y121800
X92700Y119100
X89100Y123300
X89100Y126300
X96300Y108600
X107100Y129000
X111600Y129600
X115973Y127784
X114900Y121200
X123300Y148500
X113400Y162300
X108000Y160200
X107400Y156600
X102900Y156600
X102900Y170700
X84000Y176400
X93900Y212100
X89700Y221100
X81426Y221387
X82200Y236100
X86400Y236100
X101111Y221387
X103800Y210600
X106800Y207600
X109800Y214500
X109500Y221100
X113700Y212400
X120796Y221387
X129000Y221100
X138000Y249900
X69900Y221100
X66662Y222272
X56400Y114900
X66300Y95700
X77700Y102900
X93000Y87900
X87922Y70796
X79800Y72900
X76500Y69000
X71700Y78000
X74100Y37200
X97200Y44100
X103500Y50400
X104700Y46800
X100426Y67837
X119910Y60855
T02
X12548Y20343
X12548Y30343
X12548Y40343
X22548Y40343
X22548Y30343
X22548Y20343
X23040Y71524
X23040Y81524
X23040Y91524
X13040Y91524
X13040Y81524
X13040Y71524
X75540Y186839
X85540Y186839
X88414Y244831
X88414Y254831
X78414Y254831
X78414Y244831
X98414Y244831
X98414Y254831
T03
X139595Y86277
X133858Y80540
X139595Y74803
T04
X7095Y138414
X7095Y164398
T05
X139595Y119910
X139595Y41170
M30
