G75*
%MOIN*%
%OFA0B0*%
%FSLAX25Y25*%
%IPPOS*%
%LPD*%
%AMOC8*
5,1,8,0,0,1.08239X$1,22.5*
%
%ADD10C,0.12600*%
%ADD11C,0.06400*%
%ADD12OC8,0.06850*%
%ADD13OC8,0.06400*%
%ADD14C,0.04000*%
D10*
X0025000Y0041170D03*
X0025000Y0119910D03*
D11*
X0086929Y0067792D02*
X0086929Y0061792D01*
X0096929Y0061792D02*
X0096929Y0067792D01*
X0081181Y0246831D02*
X0081181Y0252831D01*
X0071181Y0252831D02*
X0071181Y0246831D01*
X0126299Y0246831D02*
X0126299Y0252831D01*
X0136299Y0252831D02*
X0136299Y0246831D01*
D12*
X0029737Y0080540D03*
X0025000Y0075803D03*
X0025000Y0085277D03*
D13*
X0027874Y0197587D03*
X0027874Y0207587D03*
X0037874Y0207587D03*
X0037874Y0197587D03*
X0142047Y0111603D03*
X0142047Y0101603D03*
X0142047Y0091603D03*
X0142047Y0081603D03*
X0142047Y0071603D03*
X0142047Y0061603D03*
X0142047Y0051603D03*
X0142047Y0041603D03*
X0152047Y0041603D03*
X0152047Y0051603D03*
X0152047Y0061603D03*
X0152047Y0071603D03*
X0152047Y0081603D03*
X0152047Y0091603D03*
X0152047Y0101603D03*
X0152047Y0111603D03*
D14*
X0134350Y0146583D03*
X0138780Y0151013D03*
X0135630Y0154162D03*
X0131201Y0153769D03*
X0124311Y0163020D03*
X0121457Y0149635D03*
X0118012Y0143631D03*
X0113287Y0136446D03*
X0110236Y0143631D03*
X0118012Y0127095D03*
X0118898Y0118729D03*
X0115551Y0110068D03*
X0108661Y0112922D03*
X0110433Y0121387D03*
X0107382Y0124438D03*
X0097343Y0124143D03*
X0093307Y0122076D03*
X0089173Y0120402D03*
X0084941Y0106820D03*
X0073130Y0098847D03*
X0074213Y0089398D03*
X0064764Y0106524D03*
X0060335Y0112233D03*
X0061024Y0119615D03*
X0064173Y0122666D03*
X0056988Y0123650D03*
X0062205Y0133690D03*
X0059646Y0137233D03*
X0057677Y0146091D03*
X0069094Y0153473D03*
X0075197Y0143040D03*
X0071949Y0140186D03*
X0069094Y0136446D03*
X0073031Y0126603D03*
X0085827Y0142351D03*
X0087205Y0149930D03*
X0089567Y0153670D03*
X0082874Y0150225D03*
X0079429Y0157706D03*
X0082480Y0160757D03*
X0088386Y0166662D03*
X0090256Y0173847D03*
X0093307Y0176898D03*
X0089764Y0183001D03*
X0087992Y0195501D03*
X0090354Y0199339D03*
X0085925Y0203769D03*
X0092028Y0209871D03*
X0096457Y0205442D03*
X0099311Y0202194D03*
X0099803Y0190481D03*
X0099803Y0175324D03*
X0092717Y0166367D03*
X0073327Y0183001D03*
X0058268Y0210265D03*
X0053937Y0210560D03*
X0046358Y0198946D03*
X0048524Y0227194D03*
X0048031Y0237824D03*
X0062795Y0241465D03*
X0068110Y0230934D03*
X0089764Y0230934D03*
X0089764Y0237627D03*
X0098622Y0242154D03*
X0100591Y0235265D03*
X0111024Y0238020D03*
X0120079Y0231131D03*
X0126969Y0224536D03*
X0131102Y0237824D03*
X0147441Y0224831D03*
X0153740Y0226209D03*
X0153740Y0210461D03*
X0154823Y0190776D03*
X0134449Y0206328D03*
X0131299Y0200619D03*
X0123917Y0142450D03*
X0126969Y0139300D03*
X0101673Y0104261D03*
X0101673Y0099930D03*
X0100197Y0095698D03*
X0100197Y0089792D03*
X0097343Y0082902D03*
X0090256Y0085757D03*
X0080512Y0060954D03*
X0095866Y0046879D03*
X0100000Y0040580D03*
X0110925Y0040580D03*
X0120079Y0050816D03*
X0120079Y0055146D03*
X0126476Y0044910D03*
X0105512Y0069812D03*
X0116732Y0085166D03*
X0117618Y0092351D03*
X0116929Y0097076D03*
X0064862Y0064398D03*
X0056988Y0072272D03*
X0054232Y0064792D03*
X0045965Y0064792D03*
X0060433Y0092154D03*
X0049803Y0117646D03*
X0037992Y0129851D03*
X0035433Y0138611D03*
X0028642Y0147469D03*
X0028642Y0171091D03*
M02*
