G75*
%MOIN*%
%OFA0B0*%
%FSLAX25Y25*%
%IPPOS*%
%LPD*%
%AMOC8*
5,1,8,0,0,1.08239X$1,22.5*
%
%ADD10C,0.00000*%
D10*
X0013169Y0001800D02*
X0013189Y0261643D01*
X0162795Y0261643D01*
X0162795Y0001800D01*
X0013169Y0001800D01*
X0018900Y0041170D02*
X0018902Y0041326D01*
X0018908Y0041481D01*
X0018918Y0041637D01*
X0018932Y0041792D01*
X0018950Y0041947D01*
X0018971Y0042101D01*
X0018997Y0042255D01*
X0019027Y0042408D01*
X0019060Y0042560D01*
X0019098Y0042711D01*
X0019139Y0042861D01*
X0019184Y0043010D01*
X0019233Y0043158D01*
X0019286Y0043305D01*
X0019342Y0043450D01*
X0019402Y0043594D01*
X0019466Y0043736D01*
X0019533Y0043877D01*
X0019604Y0044015D01*
X0019679Y0044152D01*
X0019757Y0044287D01*
X0019838Y0044420D01*
X0019923Y0044551D01*
X0020011Y0044679D01*
X0020102Y0044806D01*
X0020196Y0044930D01*
X0020294Y0045051D01*
X0020395Y0045170D01*
X0020498Y0045286D01*
X0020605Y0045400D01*
X0020714Y0045511D01*
X0020827Y0045619D01*
X0020942Y0045724D01*
X0021059Y0045826D01*
X0021179Y0045925D01*
X0021302Y0046021D01*
X0021427Y0046114D01*
X0021555Y0046204D01*
X0021684Y0046290D01*
X0021816Y0046373D01*
X0021950Y0046453D01*
X0022086Y0046529D01*
X0022224Y0046602D01*
X0022363Y0046671D01*
X0022505Y0046736D01*
X0022648Y0046798D01*
X0022792Y0046856D01*
X0022938Y0046911D01*
X0023085Y0046962D01*
X0023234Y0047009D01*
X0023384Y0047052D01*
X0023534Y0047091D01*
X0023686Y0047127D01*
X0023839Y0047158D01*
X0023992Y0047186D01*
X0024146Y0047210D01*
X0024300Y0047230D01*
X0024455Y0047246D01*
X0024611Y0047258D01*
X0024766Y0047266D01*
X0024922Y0047270D01*
X0025078Y0047270D01*
X0025234Y0047266D01*
X0025389Y0047258D01*
X0025545Y0047246D01*
X0025700Y0047230D01*
X0025854Y0047210D01*
X0026008Y0047186D01*
X0026161Y0047158D01*
X0026314Y0047127D01*
X0026466Y0047091D01*
X0026616Y0047052D01*
X0026766Y0047009D01*
X0026915Y0046962D01*
X0027062Y0046911D01*
X0027208Y0046856D01*
X0027352Y0046798D01*
X0027495Y0046736D01*
X0027637Y0046671D01*
X0027776Y0046602D01*
X0027914Y0046529D01*
X0028050Y0046453D01*
X0028184Y0046373D01*
X0028316Y0046290D01*
X0028445Y0046204D01*
X0028573Y0046114D01*
X0028698Y0046021D01*
X0028821Y0045925D01*
X0028941Y0045826D01*
X0029058Y0045724D01*
X0029173Y0045619D01*
X0029286Y0045511D01*
X0029395Y0045400D01*
X0029502Y0045286D01*
X0029605Y0045170D01*
X0029706Y0045051D01*
X0029804Y0044930D01*
X0029898Y0044806D01*
X0029989Y0044679D01*
X0030077Y0044551D01*
X0030162Y0044420D01*
X0030243Y0044287D01*
X0030321Y0044152D01*
X0030396Y0044015D01*
X0030467Y0043877D01*
X0030534Y0043736D01*
X0030598Y0043594D01*
X0030658Y0043450D01*
X0030714Y0043305D01*
X0030767Y0043158D01*
X0030816Y0043010D01*
X0030861Y0042861D01*
X0030902Y0042711D01*
X0030940Y0042560D01*
X0030973Y0042408D01*
X0031003Y0042255D01*
X0031029Y0042101D01*
X0031050Y0041947D01*
X0031068Y0041792D01*
X0031082Y0041637D01*
X0031092Y0041481D01*
X0031098Y0041326D01*
X0031100Y0041170D01*
X0031098Y0041014D01*
X0031092Y0040859D01*
X0031082Y0040703D01*
X0031068Y0040548D01*
X0031050Y0040393D01*
X0031029Y0040239D01*
X0031003Y0040085D01*
X0030973Y0039932D01*
X0030940Y0039780D01*
X0030902Y0039629D01*
X0030861Y0039479D01*
X0030816Y0039330D01*
X0030767Y0039182D01*
X0030714Y0039035D01*
X0030658Y0038890D01*
X0030598Y0038746D01*
X0030534Y0038604D01*
X0030467Y0038463D01*
X0030396Y0038325D01*
X0030321Y0038188D01*
X0030243Y0038053D01*
X0030162Y0037920D01*
X0030077Y0037789D01*
X0029989Y0037661D01*
X0029898Y0037534D01*
X0029804Y0037410D01*
X0029706Y0037289D01*
X0029605Y0037170D01*
X0029502Y0037054D01*
X0029395Y0036940D01*
X0029286Y0036829D01*
X0029173Y0036721D01*
X0029058Y0036616D01*
X0028941Y0036514D01*
X0028821Y0036415D01*
X0028698Y0036319D01*
X0028573Y0036226D01*
X0028445Y0036136D01*
X0028316Y0036050D01*
X0028184Y0035967D01*
X0028050Y0035887D01*
X0027914Y0035811D01*
X0027776Y0035738D01*
X0027637Y0035669D01*
X0027495Y0035604D01*
X0027352Y0035542D01*
X0027208Y0035484D01*
X0027062Y0035429D01*
X0026915Y0035378D01*
X0026766Y0035331D01*
X0026616Y0035288D01*
X0026466Y0035249D01*
X0026314Y0035213D01*
X0026161Y0035182D01*
X0026008Y0035154D01*
X0025854Y0035130D01*
X0025700Y0035110D01*
X0025545Y0035094D01*
X0025389Y0035082D01*
X0025234Y0035074D01*
X0025078Y0035070D01*
X0024922Y0035070D01*
X0024766Y0035074D01*
X0024611Y0035082D01*
X0024455Y0035094D01*
X0024300Y0035110D01*
X0024146Y0035130D01*
X0023992Y0035154D01*
X0023839Y0035182D01*
X0023686Y0035213D01*
X0023534Y0035249D01*
X0023384Y0035288D01*
X0023234Y0035331D01*
X0023085Y0035378D01*
X0022938Y0035429D01*
X0022792Y0035484D01*
X0022648Y0035542D01*
X0022505Y0035604D01*
X0022363Y0035669D01*
X0022224Y0035738D01*
X0022086Y0035811D01*
X0021950Y0035887D01*
X0021816Y0035967D01*
X0021684Y0036050D01*
X0021555Y0036136D01*
X0021427Y0036226D01*
X0021302Y0036319D01*
X0021179Y0036415D01*
X0021059Y0036514D01*
X0020942Y0036616D01*
X0020827Y0036721D01*
X0020714Y0036829D01*
X0020605Y0036940D01*
X0020498Y0037054D01*
X0020395Y0037170D01*
X0020294Y0037289D01*
X0020196Y0037410D01*
X0020102Y0037534D01*
X0020011Y0037661D01*
X0019923Y0037789D01*
X0019838Y0037920D01*
X0019757Y0038053D01*
X0019679Y0038188D01*
X0019604Y0038325D01*
X0019533Y0038463D01*
X0019466Y0038604D01*
X0019402Y0038746D01*
X0019342Y0038890D01*
X0019286Y0039035D01*
X0019233Y0039182D01*
X0019184Y0039330D01*
X0019139Y0039479D01*
X0019098Y0039629D01*
X0019060Y0039780D01*
X0019027Y0039932D01*
X0018997Y0040085D01*
X0018971Y0040239D01*
X0018950Y0040393D01*
X0018932Y0040548D01*
X0018918Y0040703D01*
X0018908Y0040859D01*
X0018902Y0041014D01*
X0018900Y0041170D01*
X0018900Y0119910D02*
X0018902Y0120066D01*
X0018908Y0120221D01*
X0018918Y0120377D01*
X0018932Y0120532D01*
X0018950Y0120687D01*
X0018971Y0120841D01*
X0018997Y0120995D01*
X0019027Y0121148D01*
X0019060Y0121300D01*
X0019098Y0121451D01*
X0019139Y0121601D01*
X0019184Y0121750D01*
X0019233Y0121898D01*
X0019286Y0122045D01*
X0019342Y0122190D01*
X0019402Y0122334D01*
X0019466Y0122476D01*
X0019533Y0122617D01*
X0019604Y0122755D01*
X0019679Y0122892D01*
X0019757Y0123027D01*
X0019838Y0123160D01*
X0019923Y0123291D01*
X0020011Y0123419D01*
X0020102Y0123546D01*
X0020196Y0123670D01*
X0020294Y0123791D01*
X0020395Y0123910D01*
X0020498Y0124026D01*
X0020605Y0124140D01*
X0020714Y0124251D01*
X0020827Y0124359D01*
X0020942Y0124464D01*
X0021059Y0124566D01*
X0021179Y0124665D01*
X0021302Y0124761D01*
X0021427Y0124854D01*
X0021555Y0124944D01*
X0021684Y0125030D01*
X0021816Y0125113D01*
X0021950Y0125193D01*
X0022086Y0125269D01*
X0022224Y0125342D01*
X0022363Y0125411D01*
X0022505Y0125476D01*
X0022648Y0125538D01*
X0022792Y0125596D01*
X0022938Y0125651D01*
X0023085Y0125702D01*
X0023234Y0125749D01*
X0023384Y0125792D01*
X0023534Y0125831D01*
X0023686Y0125867D01*
X0023839Y0125898D01*
X0023992Y0125926D01*
X0024146Y0125950D01*
X0024300Y0125970D01*
X0024455Y0125986D01*
X0024611Y0125998D01*
X0024766Y0126006D01*
X0024922Y0126010D01*
X0025078Y0126010D01*
X0025234Y0126006D01*
X0025389Y0125998D01*
X0025545Y0125986D01*
X0025700Y0125970D01*
X0025854Y0125950D01*
X0026008Y0125926D01*
X0026161Y0125898D01*
X0026314Y0125867D01*
X0026466Y0125831D01*
X0026616Y0125792D01*
X0026766Y0125749D01*
X0026915Y0125702D01*
X0027062Y0125651D01*
X0027208Y0125596D01*
X0027352Y0125538D01*
X0027495Y0125476D01*
X0027637Y0125411D01*
X0027776Y0125342D01*
X0027914Y0125269D01*
X0028050Y0125193D01*
X0028184Y0125113D01*
X0028316Y0125030D01*
X0028445Y0124944D01*
X0028573Y0124854D01*
X0028698Y0124761D01*
X0028821Y0124665D01*
X0028941Y0124566D01*
X0029058Y0124464D01*
X0029173Y0124359D01*
X0029286Y0124251D01*
X0029395Y0124140D01*
X0029502Y0124026D01*
X0029605Y0123910D01*
X0029706Y0123791D01*
X0029804Y0123670D01*
X0029898Y0123546D01*
X0029989Y0123419D01*
X0030077Y0123291D01*
X0030162Y0123160D01*
X0030243Y0123027D01*
X0030321Y0122892D01*
X0030396Y0122755D01*
X0030467Y0122617D01*
X0030534Y0122476D01*
X0030598Y0122334D01*
X0030658Y0122190D01*
X0030714Y0122045D01*
X0030767Y0121898D01*
X0030816Y0121750D01*
X0030861Y0121601D01*
X0030902Y0121451D01*
X0030940Y0121300D01*
X0030973Y0121148D01*
X0031003Y0120995D01*
X0031029Y0120841D01*
X0031050Y0120687D01*
X0031068Y0120532D01*
X0031082Y0120377D01*
X0031092Y0120221D01*
X0031098Y0120066D01*
X0031100Y0119910D01*
X0031098Y0119754D01*
X0031092Y0119599D01*
X0031082Y0119443D01*
X0031068Y0119288D01*
X0031050Y0119133D01*
X0031029Y0118979D01*
X0031003Y0118825D01*
X0030973Y0118672D01*
X0030940Y0118520D01*
X0030902Y0118369D01*
X0030861Y0118219D01*
X0030816Y0118070D01*
X0030767Y0117922D01*
X0030714Y0117775D01*
X0030658Y0117630D01*
X0030598Y0117486D01*
X0030534Y0117344D01*
X0030467Y0117203D01*
X0030396Y0117065D01*
X0030321Y0116928D01*
X0030243Y0116793D01*
X0030162Y0116660D01*
X0030077Y0116529D01*
X0029989Y0116401D01*
X0029898Y0116274D01*
X0029804Y0116150D01*
X0029706Y0116029D01*
X0029605Y0115910D01*
X0029502Y0115794D01*
X0029395Y0115680D01*
X0029286Y0115569D01*
X0029173Y0115461D01*
X0029058Y0115356D01*
X0028941Y0115254D01*
X0028821Y0115155D01*
X0028698Y0115059D01*
X0028573Y0114966D01*
X0028445Y0114876D01*
X0028316Y0114790D01*
X0028184Y0114707D01*
X0028050Y0114627D01*
X0027914Y0114551D01*
X0027776Y0114478D01*
X0027637Y0114409D01*
X0027495Y0114344D01*
X0027352Y0114282D01*
X0027208Y0114224D01*
X0027062Y0114169D01*
X0026915Y0114118D01*
X0026766Y0114071D01*
X0026616Y0114028D01*
X0026466Y0113989D01*
X0026314Y0113953D01*
X0026161Y0113922D01*
X0026008Y0113894D01*
X0025854Y0113870D01*
X0025700Y0113850D01*
X0025545Y0113834D01*
X0025389Y0113822D01*
X0025234Y0113814D01*
X0025078Y0113810D01*
X0024922Y0113810D01*
X0024766Y0113814D01*
X0024611Y0113822D01*
X0024455Y0113834D01*
X0024300Y0113850D01*
X0024146Y0113870D01*
X0023992Y0113894D01*
X0023839Y0113922D01*
X0023686Y0113953D01*
X0023534Y0113989D01*
X0023384Y0114028D01*
X0023234Y0114071D01*
X0023085Y0114118D01*
X0022938Y0114169D01*
X0022792Y0114224D01*
X0022648Y0114282D01*
X0022505Y0114344D01*
X0022363Y0114409D01*
X0022224Y0114478D01*
X0022086Y0114551D01*
X0021950Y0114627D01*
X0021816Y0114707D01*
X0021684Y0114790D01*
X0021555Y0114876D01*
X0021427Y0114966D01*
X0021302Y0115059D01*
X0021179Y0115155D01*
X0021059Y0115254D01*
X0020942Y0115356D01*
X0020827Y0115461D01*
X0020714Y0115569D01*
X0020605Y0115680D01*
X0020498Y0115794D01*
X0020395Y0115910D01*
X0020294Y0116029D01*
X0020196Y0116150D01*
X0020102Y0116274D01*
X0020011Y0116401D01*
X0019923Y0116529D01*
X0019838Y0116660D01*
X0019757Y0116793D01*
X0019679Y0116928D01*
X0019604Y0117065D01*
X0019533Y0117203D01*
X0019466Y0117344D01*
X0019402Y0117486D01*
X0019342Y0117630D01*
X0019286Y0117775D01*
X0019233Y0117922D01*
X0019184Y0118070D01*
X0019139Y0118219D01*
X0019098Y0118369D01*
X0019060Y0118520D01*
X0019027Y0118672D01*
X0018997Y0118825D01*
X0018971Y0118979D01*
X0018950Y0119133D01*
X0018932Y0119288D01*
X0018918Y0119443D01*
X0018908Y0119599D01*
X0018902Y0119754D01*
X0018900Y0119910D01*
M02*
