G75*
%MOIN*%
%OFA0B0*%
%FSLAX25Y25*%
%IPPOS*%
%LPD*%
%AMOC8*
5,1,8,0,0,1.08239X$1,22.5*
%
%ADD10C,0.12600*%
%ADD11C,0.00538*%
%ADD12C,0.00470*%
%ADD13C,0.00434*%
%ADD14C,0.00749*%
%ADD15C,0.00788*%
%ADD16C,0.00670*%
%ADD17C,0.00494*%
%ADD18C,0.00462*%
%ADD19C,0.00450*%
%ADD20C,0.06400*%
%ADD21C,0.01940*%
%ADD22C,0.00438*%
%ADD23OC8,0.06850*%
%ADD24C,0.00461*%
%ADD25OC8,0.06400*%
%ADD26C,0.04000*%
D10*
X0142214Y0041170D03*
X0142214Y0119910D03*
D11*
X0102825Y0117247D02*
X0102088Y0116510D01*
X0098847Y0119751D01*
X0099584Y0120488D01*
X0102825Y0117247D01*
X0102625Y0117047D02*
X0101551Y0117047D01*
X0101014Y0117584D02*
X0102488Y0117584D01*
X0101951Y0118121D02*
X0100477Y0118121D01*
X0099940Y0118658D02*
X0101414Y0118658D01*
X0100877Y0119195D02*
X0099403Y0119195D01*
X0098866Y0119732D02*
X0100340Y0119732D01*
X0099803Y0120269D02*
X0099365Y0120269D01*
X0101434Y0115855D02*
X0100697Y0115118D01*
X0097456Y0118359D01*
X0098193Y0119096D01*
X0101434Y0115855D01*
X0101234Y0115655D02*
X0100160Y0115655D01*
X0099623Y0116192D02*
X0101097Y0116192D01*
X0100560Y0116729D02*
X0099086Y0116729D01*
X0098549Y0117266D02*
X0100023Y0117266D01*
X0099486Y0117803D02*
X0098012Y0117803D01*
X0097475Y0118340D02*
X0098949Y0118340D01*
X0098412Y0118877D02*
X0097974Y0118877D01*
X0100042Y0114463D02*
X0099305Y0113726D01*
X0096064Y0116967D01*
X0096801Y0117704D01*
X0100042Y0114463D01*
X0099842Y0114263D02*
X0098768Y0114263D01*
X0098231Y0114800D02*
X0099705Y0114800D01*
X0099168Y0115337D02*
X0097694Y0115337D01*
X0097157Y0115874D02*
X0098631Y0115874D01*
X0098094Y0116411D02*
X0096620Y0116411D01*
X0096083Y0116948D02*
X0097557Y0116948D01*
X0097020Y0117485D02*
X0096582Y0117485D01*
X0098650Y0113071D02*
X0097913Y0112334D01*
X0094672Y0115575D01*
X0095409Y0116312D01*
X0098650Y0113071D01*
X0098450Y0112871D02*
X0097376Y0112871D01*
X0096839Y0113408D02*
X0098313Y0113408D01*
X0097776Y0113945D02*
X0096302Y0113945D01*
X0095765Y0114482D02*
X0097239Y0114482D01*
X0096702Y0115019D02*
X0095228Y0115019D01*
X0094691Y0115556D02*
X0096165Y0115556D01*
X0095628Y0116093D02*
X0095190Y0116093D01*
X0097258Y0111679D02*
X0096521Y0110942D01*
X0093280Y0114183D01*
X0094017Y0114920D01*
X0097258Y0111679D01*
X0097058Y0111479D02*
X0095984Y0111479D01*
X0095447Y0112016D02*
X0096921Y0112016D01*
X0096384Y0112553D02*
X0094910Y0112553D01*
X0094373Y0113090D02*
X0095847Y0113090D01*
X0095310Y0113627D02*
X0093836Y0113627D01*
X0093299Y0114164D02*
X0094773Y0114164D01*
X0094236Y0114701D02*
X0093798Y0114701D01*
X0095866Y0110287D02*
X0095129Y0109550D01*
X0091888Y0112791D01*
X0092625Y0113528D01*
X0095866Y0110287D01*
X0095666Y0110087D02*
X0094592Y0110087D01*
X0094055Y0110624D02*
X0095529Y0110624D01*
X0094992Y0111161D02*
X0093518Y0111161D01*
X0092981Y0111698D02*
X0094455Y0111698D01*
X0093918Y0112235D02*
X0092444Y0112235D01*
X0091907Y0112772D02*
X0093381Y0112772D01*
X0092844Y0113309D02*
X0092406Y0113309D01*
X0094474Y0108896D02*
X0093737Y0108159D01*
X0090496Y0111400D01*
X0091233Y0112137D01*
X0094474Y0108896D01*
X0094274Y0108696D02*
X0093200Y0108696D01*
X0092663Y0109233D02*
X0094137Y0109233D01*
X0093600Y0109770D02*
X0092126Y0109770D01*
X0091589Y0110307D02*
X0093063Y0110307D01*
X0092526Y0110844D02*
X0091052Y0110844D01*
X0090515Y0111381D02*
X0091989Y0111381D01*
X0091452Y0111918D02*
X0091014Y0111918D01*
X0093082Y0107504D02*
X0092345Y0106767D01*
X0089104Y0110008D01*
X0089841Y0110745D01*
X0093082Y0107504D01*
X0092882Y0107304D02*
X0091808Y0107304D01*
X0091271Y0107841D02*
X0092745Y0107841D01*
X0092208Y0108378D02*
X0090734Y0108378D01*
X0090197Y0108915D02*
X0091671Y0108915D01*
X0091134Y0109452D02*
X0089660Y0109452D01*
X0089123Y0109989D02*
X0090597Y0109989D01*
X0090060Y0110526D02*
X0089622Y0110526D01*
X0091690Y0106112D02*
X0090953Y0105375D01*
X0087712Y0108616D01*
X0088449Y0109353D01*
X0091690Y0106112D01*
X0091490Y0105912D02*
X0090416Y0105912D01*
X0089879Y0106449D02*
X0091353Y0106449D01*
X0090816Y0106986D02*
X0089342Y0106986D01*
X0088805Y0107523D02*
X0090279Y0107523D01*
X0089742Y0108060D02*
X0088268Y0108060D01*
X0087731Y0108597D02*
X0089205Y0108597D01*
X0088668Y0109134D02*
X0088230Y0109134D01*
X0090298Y0104720D02*
X0089561Y0103983D01*
X0086320Y0107224D01*
X0087057Y0107961D01*
X0090298Y0104720D01*
X0090098Y0104520D02*
X0089024Y0104520D01*
X0088487Y0105057D02*
X0089961Y0105057D01*
X0089424Y0105594D02*
X0087950Y0105594D01*
X0087413Y0106131D02*
X0088887Y0106131D01*
X0088350Y0106668D02*
X0086876Y0106668D01*
X0086339Y0107205D02*
X0087813Y0107205D01*
X0087276Y0107742D02*
X0086838Y0107742D01*
X0088906Y0103328D02*
X0088169Y0102591D01*
X0084928Y0105832D01*
X0085665Y0106569D01*
X0088906Y0103328D01*
X0088706Y0103128D02*
X0087632Y0103128D01*
X0087095Y0103665D02*
X0088569Y0103665D01*
X0088032Y0104202D02*
X0086558Y0104202D01*
X0086021Y0104739D02*
X0087495Y0104739D01*
X0086958Y0105276D02*
X0085484Y0105276D01*
X0084947Y0105813D02*
X0086421Y0105813D01*
X0085884Y0106350D02*
X0085446Y0106350D01*
X0087514Y0101936D02*
X0086777Y0101199D01*
X0083536Y0104440D01*
X0084273Y0105177D01*
X0087514Y0101936D01*
X0087314Y0101736D02*
X0086240Y0101736D01*
X0085703Y0102273D02*
X0087177Y0102273D01*
X0086640Y0102810D02*
X0085166Y0102810D01*
X0084629Y0103347D02*
X0086103Y0103347D01*
X0085566Y0103884D02*
X0084092Y0103884D01*
X0083555Y0104421D02*
X0085029Y0104421D01*
X0084492Y0104958D02*
X0084054Y0104958D01*
X0079162Y0104440D02*
X0078425Y0105177D01*
X0079162Y0104440D02*
X0075921Y0101199D01*
X0075184Y0101936D01*
X0078425Y0105177D01*
X0076458Y0101736D02*
X0075384Y0101736D01*
X0075521Y0102273D02*
X0076995Y0102273D01*
X0077532Y0102810D02*
X0076058Y0102810D01*
X0076595Y0103347D02*
X0078069Y0103347D01*
X0078606Y0103884D02*
X0077132Y0103884D01*
X0077669Y0104421D02*
X0079143Y0104421D01*
X0078644Y0104958D02*
X0078206Y0104958D01*
X0077770Y0105832D02*
X0077033Y0106569D01*
X0077770Y0105832D02*
X0074529Y0102591D01*
X0073792Y0103328D01*
X0077033Y0106569D01*
X0075066Y0103128D02*
X0073992Y0103128D01*
X0074129Y0103665D02*
X0075603Y0103665D01*
X0076140Y0104202D02*
X0074666Y0104202D01*
X0075203Y0104739D02*
X0076677Y0104739D01*
X0077214Y0105276D02*
X0075740Y0105276D01*
X0076277Y0105813D02*
X0077751Y0105813D01*
X0077252Y0106350D02*
X0076814Y0106350D01*
X0076379Y0107224D02*
X0075642Y0107961D01*
X0076379Y0107224D02*
X0073138Y0103983D01*
X0072401Y0104720D01*
X0075642Y0107961D01*
X0073675Y0104520D02*
X0072601Y0104520D01*
X0072738Y0105057D02*
X0074212Y0105057D01*
X0074749Y0105594D02*
X0073275Y0105594D01*
X0073812Y0106131D02*
X0075286Y0106131D01*
X0075823Y0106668D02*
X0074349Y0106668D01*
X0074886Y0107205D02*
X0076360Y0107205D01*
X0075861Y0107742D02*
X0075423Y0107742D01*
X0074987Y0108616D02*
X0074250Y0109353D01*
X0074987Y0108616D02*
X0071746Y0105375D01*
X0071009Y0106112D01*
X0074250Y0109353D01*
X0072283Y0105912D02*
X0071209Y0105912D01*
X0071346Y0106449D02*
X0072820Y0106449D01*
X0073357Y0106986D02*
X0071883Y0106986D01*
X0072420Y0107523D02*
X0073894Y0107523D01*
X0074431Y0108060D02*
X0072957Y0108060D01*
X0073494Y0108597D02*
X0074968Y0108597D01*
X0074469Y0109134D02*
X0074031Y0109134D01*
X0073595Y0110008D02*
X0072858Y0110745D01*
X0073595Y0110008D02*
X0070354Y0106767D01*
X0069617Y0107504D01*
X0072858Y0110745D01*
X0070891Y0107304D02*
X0069817Y0107304D01*
X0069954Y0107841D02*
X0071428Y0107841D01*
X0071965Y0108378D02*
X0070491Y0108378D01*
X0071028Y0108915D02*
X0072502Y0108915D01*
X0073039Y0109452D02*
X0071565Y0109452D01*
X0072102Y0109989D02*
X0073576Y0109989D01*
X0073077Y0110526D02*
X0072639Y0110526D01*
X0072203Y0111400D02*
X0071466Y0112137D01*
X0072203Y0111400D02*
X0068962Y0108159D01*
X0068225Y0108896D01*
X0071466Y0112137D01*
X0069499Y0108696D02*
X0068425Y0108696D01*
X0068562Y0109233D02*
X0070036Y0109233D01*
X0070573Y0109770D02*
X0069099Y0109770D01*
X0069636Y0110307D02*
X0071110Y0110307D01*
X0071647Y0110844D02*
X0070173Y0110844D01*
X0070710Y0111381D02*
X0072184Y0111381D01*
X0071685Y0111918D02*
X0071247Y0111918D01*
X0070811Y0112791D02*
X0070074Y0113528D01*
X0070811Y0112791D02*
X0067570Y0109550D01*
X0066833Y0110287D01*
X0070074Y0113528D01*
X0068107Y0110087D02*
X0067033Y0110087D01*
X0067170Y0110624D02*
X0068644Y0110624D01*
X0069181Y0111161D02*
X0067707Y0111161D01*
X0068244Y0111698D02*
X0069718Y0111698D01*
X0070255Y0112235D02*
X0068781Y0112235D01*
X0069318Y0112772D02*
X0070792Y0112772D01*
X0070293Y0113309D02*
X0069855Y0113309D01*
X0069419Y0114183D02*
X0068682Y0114920D01*
X0069419Y0114183D02*
X0066178Y0110942D01*
X0065441Y0111679D01*
X0068682Y0114920D01*
X0066715Y0111479D02*
X0065641Y0111479D01*
X0065778Y0112016D02*
X0067252Y0112016D01*
X0067789Y0112553D02*
X0066315Y0112553D01*
X0066852Y0113090D02*
X0068326Y0113090D01*
X0068863Y0113627D02*
X0067389Y0113627D01*
X0067926Y0114164D02*
X0069400Y0114164D01*
X0068901Y0114701D02*
X0068463Y0114701D01*
X0068027Y0115575D02*
X0067290Y0116312D01*
X0068027Y0115575D02*
X0064786Y0112334D01*
X0064049Y0113071D01*
X0067290Y0116312D01*
X0065323Y0112871D02*
X0064249Y0112871D01*
X0064386Y0113408D02*
X0065860Y0113408D01*
X0066397Y0113945D02*
X0064923Y0113945D01*
X0065460Y0114482D02*
X0066934Y0114482D01*
X0067471Y0115019D02*
X0065997Y0115019D01*
X0066534Y0115556D02*
X0068008Y0115556D01*
X0067509Y0116093D02*
X0067071Y0116093D01*
X0066635Y0116967D02*
X0065898Y0117704D01*
X0066635Y0116967D02*
X0063394Y0113726D01*
X0062657Y0114463D01*
X0065898Y0117704D01*
X0063931Y0114263D02*
X0062857Y0114263D01*
X0062994Y0114800D02*
X0064468Y0114800D01*
X0065005Y0115337D02*
X0063531Y0115337D01*
X0064068Y0115874D02*
X0065542Y0115874D01*
X0066079Y0116411D02*
X0064605Y0116411D01*
X0065142Y0116948D02*
X0066616Y0116948D01*
X0066117Y0117485D02*
X0065679Y0117485D01*
X0065243Y0118359D02*
X0064506Y0119096D01*
X0065243Y0118359D02*
X0062002Y0115118D01*
X0061265Y0115855D01*
X0064506Y0119096D01*
X0062539Y0115655D02*
X0061465Y0115655D01*
X0061602Y0116192D02*
X0063076Y0116192D01*
X0063613Y0116729D02*
X0062139Y0116729D01*
X0062676Y0117266D02*
X0064150Y0117266D01*
X0064687Y0117803D02*
X0063213Y0117803D01*
X0063750Y0118340D02*
X0065224Y0118340D01*
X0064725Y0118877D02*
X0064287Y0118877D01*
X0063851Y0119751D02*
X0063114Y0120488D01*
X0063851Y0119751D02*
X0060610Y0116510D01*
X0059873Y0117247D01*
X0063114Y0120488D01*
X0061147Y0117047D02*
X0060073Y0117047D01*
X0060210Y0117584D02*
X0061684Y0117584D01*
X0062221Y0118121D02*
X0060747Y0118121D01*
X0061284Y0118658D02*
X0062758Y0118658D01*
X0063295Y0119195D02*
X0061821Y0119195D01*
X0062358Y0119732D02*
X0063832Y0119732D01*
X0063333Y0120269D02*
X0062895Y0120269D01*
X0063114Y0124862D02*
X0063851Y0125599D01*
X0063114Y0124862D02*
X0059873Y0128103D01*
X0060610Y0128840D01*
X0063851Y0125599D01*
X0063651Y0125399D02*
X0062577Y0125399D01*
X0062040Y0125936D02*
X0063514Y0125936D01*
X0062977Y0126473D02*
X0061503Y0126473D01*
X0060966Y0127010D02*
X0062440Y0127010D01*
X0061903Y0127547D02*
X0060429Y0127547D01*
X0059892Y0128084D02*
X0061366Y0128084D01*
X0060829Y0128621D02*
X0060391Y0128621D01*
X0064506Y0126254D02*
X0065243Y0126991D01*
X0064506Y0126254D02*
X0061265Y0129495D01*
X0062002Y0130232D01*
X0065243Y0126991D01*
X0065043Y0126791D02*
X0063969Y0126791D01*
X0063432Y0127328D02*
X0064906Y0127328D01*
X0064369Y0127865D02*
X0062895Y0127865D01*
X0062358Y0128402D02*
X0063832Y0128402D01*
X0063295Y0128939D02*
X0061821Y0128939D01*
X0061284Y0129476D02*
X0062758Y0129476D01*
X0062221Y0130013D02*
X0061783Y0130013D01*
X0065898Y0127646D02*
X0066635Y0128383D01*
X0065898Y0127646D02*
X0062657Y0130887D01*
X0063394Y0131624D01*
X0066635Y0128383D01*
X0066435Y0128183D02*
X0065361Y0128183D01*
X0064824Y0128720D02*
X0066298Y0128720D01*
X0065761Y0129257D02*
X0064287Y0129257D01*
X0063750Y0129794D02*
X0065224Y0129794D01*
X0064687Y0130331D02*
X0063213Y0130331D01*
X0062676Y0130868D02*
X0064150Y0130868D01*
X0063613Y0131405D02*
X0063175Y0131405D01*
X0067290Y0129038D02*
X0068027Y0129775D01*
X0067290Y0129038D02*
X0064049Y0132279D01*
X0064786Y0133016D01*
X0068027Y0129775D01*
X0067827Y0129575D02*
X0066753Y0129575D01*
X0066216Y0130112D02*
X0067690Y0130112D01*
X0067153Y0130649D02*
X0065679Y0130649D01*
X0065142Y0131186D02*
X0066616Y0131186D01*
X0066079Y0131723D02*
X0064605Y0131723D01*
X0064068Y0132260D02*
X0065542Y0132260D01*
X0065005Y0132797D02*
X0064567Y0132797D01*
X0068682Y0130430D02*
X0069419Y0131167D01*
X0068682Y0130430D02*
X0065441Y0133671D01*
X0066178Y0134408D01*
X0069419Y0131167D01*
X0069219Y0130967D02*
X0068145Y0130967D01*
X0067608Y0131504D02*
X0069082Y0131504D01*
X0068545Y0132041D02*
X0067071Y0132041D01*
X0066534Y0132578D02*
X0068008Y0132578D01*
X0067471Y0133115D02*
X0065997Y0133115D01*
X0065460Y0133652D02*
X0066934Y0133652D01*
X0066397Y0134189D02*
X0065959Y0134189D01*
X0070074Y0131822D02*
X0070811Y0132559D01*
X0070074Y0131822D02*
X0066833Y0135063D01*
X0067570Y0135800D01*
X0070811Y0132559D01*
X0070611Y0132359D02*
X0069537Y0132359D01*
X0069000Y0132896D02*
X0070474Y0132896D01*
X0069937Y0133433D02*
X0068463Y0133433D01*
X0067926Y0133970D02*
X0069400Y0133970D01*
X0068863Y0134507D02*
X0067389Y0134507D01*
X0066852Y0135044D02*
X0068326Y0135044D01*
X0067789Y0135581D02*
X0067351Y0135581D01*
X0071466Y0133214D02*
X0072203Y0133951D01*
X0071466Y0133214D02*
X0068225Y0136455D01*
X0068962Y0137192D01*
X0072203Y0133951D01*
X0072003Y0133751D02*
X0070929Y0133751D01*
X0070392Y0134288D02*
X0071866Y0134288D01*
X0071329Y0134825D02*
X0069855Y0134825D01*
X0069318Y0135362D02*
X0070792Y0135362D01*
X0070255Y0135899D02*
X0068781Y0135899D01*
X0068244Y0136436D02*
X0069718Y0136436D01*
X0069181Y0136973D02*
X0068743Y0136973D01*
X0072858Y0134605D02*
X0073595Y0135342D01*
X0072858Y0134605D02*
X0069617Y0137846D01*
X0070354Y0138583D01*
X0073595Y0135342D01*
X0073395Y0135142D02*
X0072321Y0135142D01*
X0071784Y0135679D02*
X0073258Y0135679D01*
X0072721Y0136216D02*
X0071247Y0136216D01*
X0070710Y0136753D02*
X0072184Y0136753D01*
X0071647Y0137290D02*
X0070173Y0137290D01*
X0069636Y0137827D02*
X0071110Y0137827D01*
X0070573Y0138364D02*
X0070135Y0138364D01*
X0074250Y0135997D02*
X0074987Y0136734D01*
X0074250Y0135997D02*
X0071009Y0139238D01*
X0071746Y0139975D01*
X0074987Y0136734D01*
X0074787Y0136534D02*
X0073713Y0136534D01*
X0073176Y0137071D02*
X0074650Y0137071D01*
X0074113Y0137608D02*
X0072639Y0137608D01*
X0072102Y0138145D02*
X0073576Y0138145D01*
X0073039Y0138682D02*
X0071565Y0138682D01*
X0071028Y0139219D02*
X0072502Y0139219D01*
X0071965Y0139756D02*
X0071527Y0139756D01*
X0075642Y0137389D02*
X0076379Y0138126D01*
X0075642Y0137389D02*
X0072401Y0140630D01*
X0073138Y0141367D01*
X0076379Y0138126D01*
X0076179Y0137926D02*
X0075105Y0137926D01*
X0074568Y0138463D02*
X0076042Y0138463D01*
X0075505Y0139000D02*
X0074031Y0139000D01*
X0073494Y0139537D02*
X0074968Y0139537D01*
X0074431Y0140074D02*
X0072957Y0140074D01*
X0072420Y0140611D02*
X0073894Y0140611D01*
X0073357Y0141148D02*
X0072919Y0141148D01*
X0077033Y0138781D02*
X0077770Y0139518D01*
X0077033Y0138781D02*
X0073792Y0142022D01*
X0074529Y0142759D01*
X0077770Y0139518D01*
X0077570Y0139318D02*
X0076496Y0139318D01*
X0075959Y0139855D02*
X0077433Y0139855D01*
X0076896Y0140392D02*
X0075422Y0140392D01*
X0074885Y0140929D02*
X0076359Y0140929D01*
X0075822Y0141466D02*
X0074348Y0141466D01*
X0073811Y0142003D02*
X0075285Y0142003D01*
X0074748Y0142540D02*
X0074310Y0142540D01*
X0078425Y0140173D02*
X0079162Y0140910D01*
X0078425Y0140173D02*
X0075184Y0143414D01*
X0075921Y0144151D01*
X0079162Y0140910D01*
X0078962Y0140710D02*
X0077888Y0140710D01*
X0077351Y0141247D02*
X0078825Y0141247D01*
X0078288Y0141784D02*
X0076814Y0141784D01*
X0076277Y0142321D02*
X0077751Y0142321D01*
X0077214Y0142858D02*
X0075740Y0142858D01*
X0075203Y0143395D02*
X0076677Y0143395D01*
X0076140Y0143932D02*
X0075702Y0143932D01*
X0086777Y0144151D02*
X0087514Y0143414D01*
X0084273Y0140173D01*
X0083536Y0140910D01*
X0086777Y0144151D01*
X0084810Y0140710D02*
X0083736Y0140710D01*
X0083873Y0141247D02*
X0085347Y0141247D01*
X0085884Y0141784D02*
X0084410Y0141784D01*
X0084947Y0142321D02*
X0086421Y0142321D01*
X0086958Y0142858D02*
X0085484Y0142858D01*
X0086021Y0143395D02*
X0087495Y0143395D01*
X0086996Y0143932D02*
X0086558Y0143932D01*
X0088169Y0142759D02*
X0088906Y0142022D01*
X0085665Y0138781D01*
X0084928Y0139518D01*
X0088169Y0142759D01*
X0086202Y0139318D02*
X0085128Y0139318D01*
X0085265Y0139855D02*
X0086739Y0139855D01*
X0087276Y0140392D02*
X0085802Y0140392D01*
X0086339Y0140929D02*
X0087813Y0140929D01*
X0088350Y0141466D02*
X0086876Y0141466D01*
X0087413Y0142003D02*
X0088887Y0142003D01*
X0088388Y0142540D02*
X0087950Y0142540D01*
X0089561Y0141367D02*
X0090298Y0140630D01*
X0087057Y0137389D01*
X0086320Y0138126D01*
X0089561Y0141367D01*
X0087594Y0137926D02*
X0086520Y0137926D01*
X0086657Y0138463D02*
X0088131Y0138463D01*
X0088668Y0139000D02*
X0087194Y0139000D01*
X0087731Y0139537D02*
X0089205Y0139537D01*
X0089742Y0140074D02*
X0088268Y0140074D01*
X0088805Y0140611D02*
X0090279Y0140611D01*
X0089780Y0141148D02*
X0089342Y0141148D01*
X0090953Y0139975D02*
X0091690Y0139238D01*
X0088449Y0135997D01*
X0087712Y0136734D01*
X0090953Y0139975D01*
X0088986Y0136534D02*
X0087912Y0136534D01*
X0088049Y0137071D02*
X0089523Y0137071D01*
X0090060Y0137608D02*
X0088586Y0137608D01*
X0089123Y0138145D02*
X0090597Y0138145D01*
X0091134Y0138682D02*
X0089660Y0138682D01*
X0090197Y0139219D02*
X0091671Y0139219D01*
X0091172Y0139756D02*
X0090734Y0139756D01*
X0092345Y0138583D02*
X0093082Y0137846D01*
X0089841Y0134605D01*
X0089104Y0135342D01*
X0092345Y0138583D01*
X0090378Y0135142D02*
X0089304Y0135142D01*
X0089441Y0135679D02*
X0090915Y0135679D01*
X0091452Y0136216D02*
X0089978Y0136216D01*
X0090515Y0136753D02*
X0091989Y0136753D01*
X0092526Y0137290D02*
X0091052Y0137290D01*
X0091589Y0137827D02*
X0093063Y0137827D01*
X0092564Y0138364D02*
X0092126Y0138364D01*
X0093737Y0137192D02*
X0094474Y0136455D01*
X0091233Y0133214D01*
X0090496Y0133951D01*
X0093737Y0137192D01*
X0091770Y0133751D02*
X0090696Y0133751D01*
X0090833Y0134288D02*
X0092307Y0134288D01*
X0092844Y0134825D02*
X0091370Y0134825D01*
X0091907Y0135362D02*
X0093381Y0135362D01*
X0093918Y0135899D02*
X0092444Y0135899D01*
X0092981Y0136436D02*
X0094455Y0136436D01*
X0093956Y0136973D02*
X0093518Y0136973D01*
X0095129Y0135800D02*
X0095866Y0135063D01*
X0092625Y0131822D01*
X0091888Y0132559D01*
X0095129Y0135800D01*
X0093162Y0132359D02*
X0092088Y0132359D01*
X0092225Y0132896D02*
X0093699Y0132896D01*
X0094236Y0133433D02*
X0092762Y0133433D01*
X0093299Y0133970D02*
X0094773Y0133970D01*
X0095310Y0134507D02*
X0093836Y0134507D01*
X0094373Y0135044D02*
X0095847Y0135044D01*
X0095348Y0135581D02*
X0094910Y0135581D01*
X0096521Y0134408D02*
X0097258Y0133671D01*
X0094017Y0130430D01*
X0093280Y0131167D01*
X0096521Y0134408D01*
X0094554Y0130967D02*
X0093480Y0130967D01*
X0093617Y0131504D02*
X0095091Y0131504D01*
X0095628Y0132041D02*
X0094154Y0132041D01*
X0094691Y0132578D02*
X0096165Y0132578D01*
X0096702Y0133115D02*
X0095228Y0133115D01*
X0095765Y0133652D02*
X0097239Y0133652D01*
X0096740Y0134189D02*
X0096302Y0134189D01*
X0097913Y0133016D02*
X0098650Y0132279D01*
X0095409Y0129038D01*
X0094672Y0129775D01*
X0097913Y0133016D01*
X0095946Y0129575D02*
X0094872Y0129575D01*
X0095009Y0130112D02*
X0096483Y0130112D01*
X0097020Y0130649D02*
X0095546Y0130649D01*
X0096083Y0131186D02*
X0097557Y0131186D01*
X0098094Y0131723D02*
X0096620Y0131723D01*
X0097157Y0132260D02*
X0098631Y0132260D01*
X0098132Y0132797D02*
X0097694Y0132797D01*
X0099305Y0131624D02*
X0100042Y0130887D01*
X0096801Y0127646D01*
X0096064Y0128383D01*
X0099305Y0131624D01*
X0097338Y0128183D02*
X0096264Y0128183D01*
X0096401Y0128720D02*
X0097875Y0128720D01*
X0098412Y0129257D02*
X0096938Y0129257D01*
X0097475Y0129794D02*
X0098949Y0129794D01*
X0099486Y0130331D02*
X0098012Y0130331D01*
X0098549Y0130868D02*
X0100023Y0130868D01*
X0099524Y0131405D02*
X0099086Y0131405D01*
X0100697Y0130232D02*
X0101434Y0129495D01*
X0098193Y0126254D01*
X0097456Y0126991D01*
X0100697Y0130232D01*
X0098730Y0126791D02*
X0097656Y0126791D01*
X0097793Y0127328D02*
X0099267Y0127328D01*
X0099804Y0127865D02*
X0098330Y0127865D01*
X0098867Y0128402D02*
X0100341Y0128402D01*
X0100878Y0128939D02*
X0099404Y0128939D01*
X0099941Y0129476D02*
X0101415Y0129476D01*
X0100916Y0130013D02*
X0100478Y0130013D01*
X0102088Y0128840D02*
X0102825Y0128103D01*
X0099584Y0124862D01*
X0098847Y0125599D01*
X0102088Y0128840D01*
X0100121Y0125399D02*
X0099047Y0125399D01*
X0099184Y0125936D02*
X0100658Y0125936D01*
X0101195Y0126473D02*
X0099721Y0126473D01*
X0100258Y0127010D02*
X0101732Y0127010D01*
X0102269Y0127547D02*
X0100795Y0127547D01*
X0101332Y0128084D02*
X0102806Y0128084D01*
X0102307Y0128621D02*
X0101869Y0128621D01*
D12*
X0073548Y0057867D02*
X0073548Y0055575D01*
X0073548Y0057867D02*
X0078202Y0057867D01*
X0078202Y0055575D01*
X0073548Y0055575D01*
X0073548Y0056044D02*
X0078202Y0056044D01*
X0078202Y0056513D02*
X0073548Y0056513D01*
X0073548Y0056982D02*
X0078202Y0056982D01*
X0078202Y0057451D02*
X0073548Y0057451D01*
X0073548Y0054127D02*
X0073548Y0051835D01*
X0073548Y0054127D02*
X0078202Y0054127D01*
X0078202Y0051835D01*
X0073548Y0051835D01*
X0073548Y0052304D02*
X0078202Y0052304D01*
X0078202Y0052773D02*
X0073548Y0052773D01*
X0073548Y0053242D02*
X0078202Y0053242D01*
X0078202Y0053711D02*
X0073548Y0053711D01*
X0073548Y0050387D02*
X0073548Y0048095D01*
X0073548Y0050387D02*
X0078202Y0050387D01*
X0078202Y0048095D01*
X0073548Y0048095D01*
X0073548Y0048564D02*
X0078202Y0048564D01*
X0078202Y0049033D02*
X0073548Y0049033D01*
X0073548Y0049502D02*
X0078202Y0049502D01*
X0078202Y0049971D02*
X0073548Y0049971D01*
X0064493Y0050387D02*
X0064493Y0048095D01*
X0064493Y0050387D02*
X0069147Y0050387D01*
X0069147Y0048095D01*
X0064493Y0048095D01*
X0064493Y0048564D02*
X0069147Y0048564D01*
X0069147Y0049033D02*
X0064493Y0049033D01*
X0064493Y0049502D02*
X0069147Y0049502D01*
X0069147Y0049971D02*
X0064493Y0049971D01*
X0064493Y0055575D02*
X0064493Y0057867D01*
X0069147Y0057867D01*
X0069147Y0055575D01*
X0064493Y0055575D01*
X0064493Y0056044D02*
X0069147Y0056044D01*
X0069147Y0056513D02*
X0064493Y0056513D01*
X0064493Y0056982D02*
X0069147Y0056982D01*
X0069147Y0057451D02*
X0064493Y0057451D01*
X0044935Y0056362D02*
X0042643Y0056362D01*
X0042643Y0059442D01*
X0044935Y0059442D01*
X0044935Y0056362D01*
X0044935Y0056831D02*
X0042643Y0056831D01*
X0042643Y0057300D02*
X0044935Y0057300D01*
X0044935Y0057769D02*
X0042643Y0057769D01*
X0042643Y0058238D02*
X0044935Y0058238D01*
X0044935Y0058707D02*
X0042643Y0058707D01*
X0042643Y0059176D02*
X0044935Y0059176D01*
X0044935Y0046520D02*
X0042643Y0046520D01*
X0042643Y0049600D01*
X0044935Y0049600D01*
X0044935Y0046520D01*
X0044935Y0046989D02*
X0042643Y0046989D01*
X0042643Y0047458D02*
X0044935Y0047458D01*
X0044935Y0047927D02*
X0042643Y0047927D01*
X0042643Y0048396D02*
X0044935Y0048396D01*
X0044935Y0048865D02*
X0042643Y0048865D01*
X0042643Y0049334D02*
X0044935Y0049334D01*
X0025250Y0176441D02*
X0022958Y0176441D01*
X0022958Y0179521D01*
X0025250Y0179521D01*
X0025250Y0176441D01*
X0025250Y0176910D02*
X0022958Y0176910D01*
X0022958Y0177379D02*
X0025250Y0177379D01*
X0025250Y0177848D02*
X0022958Y0177848D01*
X0022958Y0178317D02*
X0025250Y0178317D01*
X0025250Y0178786D02*
X0022958Y0178786D01*
X0022958Y0179255D02*
X0025250Y0179255D01*
X0025250Y0186284D02*
X0022958Y0186284D01*
X0022958Y0189364D01*
X0025250Y0189364D01*
X0025250Y0186284D01*
X0025250Y0186753D02*
X0022958Y0186753D01*
X0022958Y0187222D02*
X0025250Y0187222D01*
X0025250Y0187691D02*
X0022958Y0187691D01*
X0022958Y0188160D02*
X0025250Y0188160D01*
X0025250Y0188629D02*
X0022958Y0188629D01*
X0022958Y0189098D02*
X0025250Y0189098D01*
D13*
X0037866Y0188397D02*
X0037866Y0184101D01*
X0033964Y0184101D01*
X0033964Y0188397D01*
X0037866Y0188397D01*
X0037866Y0184534D02*
X0033964Y0184534D01*
X0033964Y0184967D02*
X0037866Y0184967D01*
X0037866Y0185400D02*
X0033964Y0185400D01*
X0033964Y0185833D02*
X0037866Y0185833D01*
X0037866Y0186266D02*
X0033964Y0186266D01*
X0033964Y0186699D02*
X0037866Y0186699D01*
X0037866Y0187132D02*
X0033964Y0187132D01*
X0033964Y0187565D02*
X0037866Y0187565D01*
X0037866Y0187998D02*
X0033964Y0187998D01*
X0037866Y0181704D02*
X0037866Y0177408D01*
X0033964Y0177408D01*
X0033964Y0181704D01*
X0037866Y0181704D01*
X0037866Y0177841D02*
X0033964Y0177841D01*
X0033964Y0178274D02*
X0037866Y0178274D01*
X0037866Y0178707D02*
X0033964Y0178707D01*
X0033964Y0179140D02*
X0037866Y0179140D01*
X0037866Y0179573D02*
X0033964Y0179573D01*
X0033964Y0180006D02*
X0037866Y0180006D01*
X0037866Y0180439D02*
X0033964Y0180439D01*
X0033964Y0180872D02*
X0037866Y0180872D01*
X0037866Y0181305D02*
X0033964Y0181305D01*
X0033176Y0173042D02*
X0037472Y0173042D01*
X0037472Y0169140D01*
X0033176Y0169140D01*
X0033176Y0173042D01*
X0033176Y0169573D02*
X0037472Y0169573D01*
X0037472Y0170006D02*
X0033176Y0170006D01*
X0033176Y0170439D02*
X0037472Y0170439D01*
X0037472Y0170872D02*
X0033176Y0170872D01*
X0033176Y0171305D02*
X0037472Y0171305D01*
X0037472Y0171738D02*
X0033176Y0171738D01*
X0033176Y0172171D02*
X0037472Y0172171D01*
X0037472Y0172604D02*
X0033176Y0172604D01*
X0033176Y0173037D02*
X0037472Y0173037D01*
X0030779Y0173042D02*
X0026483Y0173042D01*
X0030779Y0173042D02*
X0030779Y0169140D01*
X0026483Y0169140D01*
X0026483Y0173042D01*
X0026483Y0169573D02*
X0030779Y0169573D01*
X0030779Y0170006D02*
X0026483Y0170006D01*
X0026483Y0170439D02*
X0030779Y0170439D01*
X0030779Y0170872D02*
X0026483Y0170872D01*
X0026483Y0171305D02*
X0030779Y0171305D01*
X0030779Y0171738D02*
X0026483Y0171738D01*
X0026483Y0172171D02*
X0030779Y0172171D01*
X0030779Y0172604D02*
X0026483Y0172604D01*
X0026483Y0173037D02*
X0030779Y0173037D01*
X0010145Y0177605D02*
X0010145Y0181507D01*
X0014441Y0181507D01*
X0014441Y0177605D01*
X0010145Y0177605D01*
X0010145Y0178038D02*
X0014441Y0178038D01*
X0014441Y0178471D02*
X0010145Y0178471D01*
X0010145Y0178904D02*
X0014441Y0178904D01*
X0014441Y0179337D02*
X0010145Y0179337D01*
X0010145Y0179770D02*
X0014441Y0179770D01*
X0014441Y0180203D02*
X0010145Y0180203D01*
X0010145Y0180636D02*
X0014441Y0180636D01*
X0014441Y0181069D02*
X0010145Y0181069D01*
X0010145Y0181502D02*
X0014441Y0181502D01*
X0010145Y0184298D02*
X0010145Y0188200D01*
X0014441Y0188200D01*
X0014441Y0184298D01*
X0010145Y0184298D01*
X0010145Y0184731D02*
X0014441Y0184731D01*
X0014441Y0185164D02*
X0010145Y0185164D01*
X0010145Y0185597D02*
X0014441Y0185597D01*
X0014441Y0186030D02*
X0010145Y0186030D01*
X0010145Y0186463D02*
X0014441Y0186463D01*
X0014441Y0186896D02*
X0010145Y0186896D01*
X0010145Y0187329D02*
X0014441Y0187329D01*
X0014441Y0187762D02*
X0010145Y0187762D01*
X0010145Y0188195D02*
X0014441Y0188195D01*
X0014441Y0213038D02*
X0014441Y0216940D01*
X0014441Y0213038D02*
X0010145Y0213038D01*
X0010145Y0216940D01*
X0014441Y0216940D01*
X0014441Y0213471D02*
X0010145Y0213471D01*
X0010145Y0213904D02*
X0014441Y0213904D01*
X0014441Y0214337D02*
X0010145Y0214337D01*
X0010145Y0214770D02*
X0014441Y0214770D01*
X0014441Y0215203D02*
X0010145Y0215203D01*
X0010145Y0215636D02*
X0014441Y0215636D01*
X0014441Y0216069D02*
X0010145Y0216069D01*
X0010145Y0216502D02*
X0014441Y0216502D01*
X0014441Y0216935D02*
X0010145Y0216935D01*
X0014441Y0219731D02*
X0014441Y0223633D01*
X0014441Y0219731D02*
X0010145Y0219731D01*
X0010145Y0223633D01*
X0014441Y0223633D01*
X0014441Y0220164D02*
X0010145Y0220164D01*
X0010145Y0220597D02*
X0014441Y0220597D01*
X0014441Y0221030D02*
X0010145Y0221030D01*
X0010145Y0221463D02*
X0014441Y0221463D01*
X0014441Y0221896D02*
X0010145Y0221896D01*
X0010145Y0222329D02*
X0014441Y0222329D01*
X0014441Y0222762D02*
X0010145Y0222762D01*
X0010145Y0223195D02*
X0014441Y0223195D01*
X0014441Y0223628D02*
X0010145Y0223628D01*
X0018216Y0228589D02*
X0018216Y0232885D01*
X0022118Y0232885D01*
X0022118Y0228589D01*
X0018216Y0228589D01*
X0018216Y0229022D02*
X0022118Y0229022D01*
X0022118Y0229455D02*
X0018216Y0229455D01*
X0018216Y0229888D02*
X0022118Y0229888D01*
X0022118Y0230321D02*
X0018216Y0230321D01*
X0018216Y0230754D02*
X0022118Y0230754D01*
X0022118Y0231187D02*
X0018216Y0231187D01*
X0018216Y0231620D02*
X0022118Y0231620D01*
X0022118Y0232053D02*
X0018216Y0232053D01*
X0018216Y0232486D02*
X0022118Y0232486D01*
X0018216Y0235282D02*
X0018216Y0239578D01*
X0022118Y0239578D01*
X0022118Y0235282D01*
X0018216Y0235282D01*
X0018216Y0235715D02*
X0022118Y0235715D01*
X0022118Y0236148D02*
X0018216Y0236148D01*
X0018216Y0236581D02*
X0022118Y0236581D01*
X0022118Y0237014D02*
X0018216Y0237014D01*
X0018216Y0237447D02*
X0022118Y0237447D01*
X0022118Y0237880D02*
X0018216Y0237880D01*
X0018216Y0238313D02*
X0022118Y0238313D01*
X0022118Y0238746D02*
X0018216Y0238746D01*
X0018216Y0239179D02*
X0022118Y0239179D01*
X0026252Y0223633D02*
X0026252Y0219731D01*
X0021956Y0219731D01*
X0021956Y0223633D01*
X0026252Y0223633D01*
X0026252Y0220164D02*
X0021956Y0220164D01*
X0021956Y0220597D02*
X0026252Y0220597D01*
X0026252Y0221030D02*
X0021956Y0221030D01*
X0021956Y0221463D02*
X0026252Y0221463D01*
X0026252Y0221896D02*
X0021956Y0221896D01*
X0021956Y0222329D02*
X0026252Y0222329D01*
X0026252Y0222762D02*
X0021956Y0222762D01*
X0021956Y0223195D02*
X0026252Y0223195D01*
X0026252Y0223628D02*
X0021956Y0223628D01*
X0026252Y0216940D02*
X0026252Y0213038D01*
X0021956Y0213038D01*
X0021956Y0216940D01*
X0026252Y0216940D01*
X0026252Y0213471D02*
X0021956Y0213471D01*
X0021956Y0213904D02*
X0026252Y0213904D01*
X0026252Y0214337D02*
X0021956Y0214337D01*
X0021956Y0214770D02*
X0026252Y0214770D01*
X0026252Y0215203D02*
X0021956Y0215203D01*
X0021956Y0215636D02*
X0026252Y0215636D01*
X0026252Y0216069D02*
X0021956Y0216069D01*
X0021956Y0216502D02*
X0026252Y0216502D01*
X0026252Y0216935D02*
X0021956Y0216935D01*
X0033964Y0217137D02*
X0033964Y0212841D01*
X0033964Y0217137D02*
X0037866Y0217137D01*
X0037866Y0212841D01*
X0033964Y0212841D01*
X0033964Y0213274D02*
X0037866Y0213274D01*
X0037866Y0213707D02*
X0033964Y0213707D01*
X0033964Y0214140D02*
X0037866Y0214140D01*
X0037866Y0214573D02*
X0033964Y0214573D01*
X0033964Y0215006D02*
X0037866Y0215006D01*
X0037866Y0215439D02*
X0033964Y0215439D01*
X0033964Y0215872D02*
X0037866Y0215872D01*
X0037866Y0216305D02*
X0033964Y0216305D01*
X0033964Y0216738D02*
X0037866Y0216738D01*
X0033964Y0219534D02*
X0033964Y0223830D01*
X0037866Y0223830D01*
X0037866Y0219534D01*
X0033964Y0219534D01*
X0033964Y0219967D02*
X0037866Y0219967D01*
X0037866Y0220400D02*
X0033964Y0220400D01*
X0033964Y0220833D02*
X0037866Y0220833D01*
X0037866Y0221266D02*
X0033964Y0221266D01*
X0033964Y0221699D02*
X0037866Y0221699D01*
X0037866Y0222132D02*
X0033964Y0222132D01*
X0033964Y0222565D02*
X0037866Y0222565D01*
X0037866Y0222998D02*
X0033964Y0222998D01*
X0033964Y0223431D02*
X0037866Y0223431D01*
X0049874Y0223633D02*
X0049874Y0219731D01*
X0045578Y0219731D01*
X0045578Y0223633D01*
X0049874Y0223633D01*
X0049874Y0220164D02*
X0045578Y0220164D01*
X0045578Y0220597D02*
X0049874Y0220597D01*
X0049874Y0221030D02*
X0045578Y0221030D01*
X0045578Y0221463D02*
X0049874Y0221463D01*
X0049874Y0221896D02*
X0045578Y0221896D01*
X0045578Y0222329D02*
X0049874Y0222329D01*
X0049874Y0222762D02*
X0045578Y0222762D01*
X0045578Y0223195D02*
X0049874Y0223195D01*
X0049874Y0223628D02*
X0045578Y0223628D01*
X0049874Y0216940D02*
X0049874Y0213038D01*
X0045578Y0213038D01*
X0045578Y0216940D01*
X0049874Y0216940D01*
X0049874Y0213471D02*
X0045578Y0213471D01*
X0045578Y0213904D02*
X0049874Y0213904D01*
X0049874Y0214337D02*
X0045578Y0214337D01*
X0045578Y0214770D02*
X0049874Y0214770D01*
X0049874Y0215203D02*
X0045578Y0215203D01*
X0045578Y0215636D02*
X0049874Y0215636D01*
X0049874Y0216069D02*
X0045578Y0216069D01*
X0045578Y0216502D02*
X0049874Y0216502D01*
X0049874Y0216935D02*
X0045578Y0216935D01*
X0049712Y0228589D02*
X0049712Y0232885D01*
X0053614Y0232885D01*
X0053614Y0228589D01*
X0049712Y0228589D01*
X0049712Y0229022D02*
X0053614Y0229022D01*
X0053614Y0229455D02*
X0049712Y0229455D01*
X0049712Y0229888D02*
X0053614Y0229888D01*
X0053614Y0230321D02*
X0049712Y0230321D01*
X0049712Y0230754D02*
X0053614Y0230754D01*
X0053614Y0231187D02*
X0049712Y0231187D01*
X0049712Y0231620D02*
X0053614Y0231620D01*
X0053614Y0232053D02*
X0049712Y0232053D01*
X0049712Y0232486D02*
X0053614Y0232486D01*
X0049712Y0235282D02*
X0049712Y0239578D01*
X0053614Y0239578D01*
X0053614Y0235282D01*
X0049712Y0235282D01*
X0049712Y0235715D02*
X0053614Y0235715D01*
X0053614Y0236148D02*
X0049712Y0236148D01*
X0049712Y0236581D02*
X0053614Y0236581D01*
X0053614Y0237014D02*
X0049712Y0237014D01*
X0049712Y0237447D02*
X0053614Y0237447D01*
X0053614Y0237880D02*
X0049712Y0237880D01*
X0049712Y0238313D02*
X0053614Y0238313D01*
X0053614Y0238746D02*
X0049712Y0238746D01*
X0049712Y0239179D02*
X0053614Y0239179D01*
X0061685Y0223633D02*
X0061685Y0219731D01*
X0057389Y0219731D01*
X0057389Y0223633D01*
X0061685Y0223633D01*
X0061685Y0220164D02*
X0057389Y0220164D01*
X0057389Y0220597D02*
X0061685Y0220597D01*
X0061685Y0221030D02*
X0057389Y0221030D01*
X0057389Y0221463D02*
X0061685Y0221463D01*
X0061685Y0221896D02*
X0057389Y0221896D01*
X0057389Y0222329D02*
X0061685Y0222329D01*
X0061685Y0222762D02*
X0057389Y0222762D01*
X0057389Y0223195D02*
X0061685Y0223195D01*
X0061685Y0223628D02*
X0057389Y0223628D01*
X0061685Y0216940D02*
X0061685Y0213038D01*
X0057389Y0213038D01*
X0057389Y0216940D01*
X0061685Y0216940D01*
X0061685Y0213471D02*
X0057389Y0213471D01*
X0057389Y0213904D02*
X0061685Y0213904D01*
X0061685Y0214337D02*
X0057389Y0214337D01*
X0057389Y0214770D02*
X0061685Y0214770D01*
X0061685Y0215203D02*
X0057389Y0215203D01*
X0057389Y0215636D02*
X0061685Y0215636D01*
X0061685Y0216069D02*
X0057389Y0216069D01*
X0057389Y0216502D02*
X0061685Y0216502D01*
X0061685Y0216935D02*
X0057389Y0216935D01*
X0069397Y0217137D02*
X0069397Y0212841D01*
X0069397Y0217137D02*
X0073299Y0217137D01*
X0073299Y0212841D01*
X0069397Y0212841D01*
X0069397Y0213274D02*
X0073299Y0213274D01*
X0073299Y0213707D02*
X0069397Y0213707D01*
X0069397Y0214140D02*
X0073299Y0214140D01*
X0073299Y0214573D02*
X0069397Y0214573D01*
X0069397Y0215006D02*
X0073299Y0215006D01*
X0073299Y0215439D02*
X0069397Y0215439D01*
X0069397Y0215872D02*
X0073299Y0215872D01*
X0073299Y0216305D02*
X0069397Y0216305D01*
X0069397Y0216738D02*
X0073299Y0216738D01*
X0069397Y0219534D02*
X0069397Y0223830D01*
X0073299Y0223830D01*
X0073299Y0219534D01*
X0069397Y0219534D01*
X0069397Y0219967D02*
X0073299Y0219967D01*
X0073299Y0220400D02*
X0069397Y0220400D01*
X0069397Y0220833D02*
X0073299Y0220833D01*
X0073299Y0221266D02*
X0069397Y0221266D01*
X0069397Y0221699D02*
X0073299Y0221699D01*
X0073299Y0222132D02*
X0069397Y0222132D01*
X0069397Y0222565D02*
X0073299Y0222565D01*
X0073299Y0222998D02*
X0069397Y0222998D01*
X0069397Y0223431D02*
X0073299Y0223431D01*
X0085307Y0223633D02*
X0085307Y0219731D01*
X0081011Y0219731D01*
X0081011Y0223633D01*
X0085307Y0223633D01*
X0085307Y0220164D02*
X0081011Y0220164D01*
X0081011Y0220597D02*
X0085307Y0220597D01*
X0085307Y0221030D02*
X0081011Y0221030D01*
X0081011Y0221463D02*
X0085307Y0221463D01*
X0085307Y0221896D02*
X0081011Y0221896D01*
X0081011Y0222329D02*
X0085307Y0222329D01*
X0085307Y0222762D02*
X0081011Y0222762D01*
X0081011Y0223195D02*
X0085307Y0223195D01*
X0085307Y0223628D02*
X0081011Y0223628D01*
X0081208Y0228589D02*
X0081208Y0232885D01*
X0085110Y0232885D01*
X0085110Y0228589D01*
X0081208Y0228589D01*
X0081208Y0229022D02*
X0085110Y0229022D01*
X0085110Y0229455D02*
X0081208Y0229455D01*
X0081208Y0229888D02*
X0085110Y0229888D01*
X0085110Y0230321D02*
X0081208Y0230321D01*
X0081208Y0230754D02*
X0085110Y0230754D01*
X0085110Y0231187D02*
X0081208Y0231187D01*
X0081208Y0231620D02*
X0085110Y0231620D01*
X0085110Y0232053D02*
X0081208Y0232053D01*
X0081208Y0232486D02*
X0085110Y0232486D01*
X0081208Y0235282D02*
X0081208Y0239578D01*
X0085110Y0239578D01*
X0085110Y0235282D01*
X0081208Y0235282D01*
X0081208Y0235715D02*
X0085110Y0235715D01*
X0085110Y0236148D02*
X0081208Y0236148D01*
X0081208Y0236581D02*
X0085110Y0236581D01*
X0085110Y0237014D02*
X0081208Y0237014D01*
X0081208Y0237447D02*
X0085110Y0237447D01*
X0085110Y0237880D02*
X0081208Y0237880D01*
X0081208Y0238313D02*
X0085110Y0238313D01*
X0085110Y0238746D02*
X0081208Y0238746D01*
X0081208Y0239179D02*
X0085110Y0239179D01*
X0097118Y0223633D02*
X0097118Y0219731D01*
X0092822Y0219731D01*
X0092822Y0223633D01*
X0097118Y0223633D01*
X0097118Y0220164D02*
X0092822Y0220164D01*
X0092822Y0220597D02*
X0097118Y0220597D01*
X0097118Y0221030D02*
X0092822Y0221030D01*
X0092822Y0221463D02*
X0097118Y0221463D01*
X0097118Y0221896D02*
X0092822Y0221896D01*
X0092822Y0222329D02*
X0097118Y0222329D01*
X0097118Y0222762D02*
X0092822Y0222762D01*
X0092822Y0223195D02*
X0097118Y0223195D01*
X0097118Y0223628D02*
X0092822Y0223628D01*
X0097118Y0216940D02*
X0097118Y0213038D01*
X0092822Y0213038D01*
X0092822Y0216940D01*
X0097118Y0216940D01*
X0097118Y0213471D02*
X0092822Y0213471D01*
X0092822Y0213904D02*
X0097118Y0213904D01*
X0097118Y0214337D02*
X0092822Y0214337D01*
X0092822Y0214770D02*
X0097118Y0214770D01*
X0097118Y0215203D02*
X0092822Y0215203D01*
X0092822Y0215636D02*
X0097118Y0215636D01*
X0097118Y0216069D02*
X0092822Y0216069D01*
X0092822Y0216502D02*
X0097118Y0216502D01*
X0097118Y0216935D02*
X0092822Y0216935D01*
X0085307Y0216940D02*
X0085307Y0213038D01*
X0081011Y0213038D01*
X0081011Y0216940D01*
X0085307Y0216940D01*
X0085307Y0213471D02*
X0081011Y0213471D01*
X0081011Y0213904D02*
X0085307Y0213904D01*
X0085307Y0214337D02*
X0081011Y0214337D01*
X0081011Y0214770D02*
X0085307Y0214770D01*
X0085307Y0215203D02*
X0081011Y0215203D01*
X0081011Y0215636D02*
X0085307Y0215636D01*
X0085307Y0216069D02*
X0081011Y0216069D01*
X0081011Y0216502D02*
X0085307Y0216502D01*
X0085307Y0216935D02*
X0081011Y0216935D01*
X0104830Y0217137D02*
X0104830Y0212841D01*
X0104830Y0217137D02*
X0108732Y0217137D01*
X0108732Y0212841D01*
X0104830Y0212841D01*
X0104830Y0213274D02*
X0108732Y0213274D01*
X0108732Y0213707D02*
X0104830Y0213707D01*
X0104830Y0214140D02*
X0108732Y0214140D01*
X0108732Y0214573D02*
X0104830Y0214573D01*
X0104830Y0215006D02*
X0108732Y0215006D01*
X0108732Y0215439D02*
X0104830Y0215439D01*
X0104830Y0215872D02*
X0108732Y0215872D01*
X0108732Y0216305D02*
X0104830Y0216305D01*
X0104830Y0216738D02*
X0108732Y0216738D01*
X0104830Y0219534D02*
X0104830Y0223830D01*
X0108732Y0223830D01*
X0108732Y0219534D01*
X0104830Y0219534D01*
X0104830Y0219967D02*
X0108732Y0219967D01*
X0108732Y0220400D02*
X0104830Y0220400D01*
X0104830Y0220833D02*
X0108732Y0220833D01*
X0108732Y0221266D02*
X0104830Y0221266D01*
X0104830Y0221699D02*
X0108732Y0221699D01*
X0108732Y0222132D02*
X0104830Y0222132D01*
X0104830Y0222565D02*
X0108732Y0222565D01*
X0108732Y0222998D02*
X0104830Y0222998D01*
X0104830Y0223431D02*
X0108732Y0223431D01*
X0112704Y0228589D02*
X0112704Y0232885D01*
X0116606Y0232885D01*
X0116606Y0228589D01*
X0112704Y0228589D01*
X0112704Y0229022D02*
X0116606Y0229022D01*
X0116606Y0229455D02*
X0112704Y0229455D01*
X0112704Y0229888D02*
X0116606Y0229888D01*
X0116606Y0230321D02*
X0112704Y0230321D01*
X0112704Y0230754D02*
X0116606Y0230754D01*
X0116606Y0231187D02*
X0112704Y0231187D01*
X0112704Y0231620D02*
X0116606Y0231620D01*
X0116606Y0232053D02*
X0112704Y0232053D01*
X0112704Y0232486D02*
X0116606Y0232486D01*
X0112704Y0235282D02*
X0112704Y0239578D01*
X0116606Y0239578D01*
X0116606Y0235282D01*
X0112704Y0235282D01*
X0112704Y0235715D02*
X0116606Y0235715D01*
X0116606Y0236148D02*
X0112704Y0236148D01*
X0112704Y0236581D02*
X0116606Y0236581D01*
X0116606Y0237014D02*
X0112704Y0237014D01*
X0112704Y0237447D02*
X0116606Y0237447D01*
X0116606Y0237880D02*
X0112704Y0237880D01*
X0112704Y0238313D02*
X0116606Y0238313D01*
X0116606Y0238746D02*
X0112704Y0238746D01*
X0112704Y0239179D02*
X0116606Y0239179D01*
X0120740Y0223633D02*
X0120740Y0219731D01*
X0116444Y0219731D01*
X0116444Y0223633D01*
X0120740Y0223633D01*
X0120740Y0220164D02*
X0116444Y0220164D01*
X0116444Y0220597D02*
X0120740Y0220597D01*
X0120740Y0221030D02*
X0116444Y0221030D01*
X0116444Y0221463D02*
X0120740Y0221463D01*
X0120740Y0221896D02*
X0116444Y0221896D01*
X0116444Y0222329D02*
X0120740Y0222329D01*
X0120740Y0222762D02*
X0116444Y0222762D01*
X0116444Y0223195D02*
X0120740Y0223195D01*
X0120740Y0223628D02*
X0116444Y0223628D01*
X0120740Y0216940D02*
X0120740Y0213038D01*
X0116444Y0213038D01*
X0116444Y0216940D01*
X0120740Y0216940D01*
X0120740Y0213471D02*
X0116444Y0213471D01*
X0116444Y0213904D02*
X0120740Y0213904D01*
X0120740Y0214337D02*
X0116444Y0214337D01*
X0116444Y0214770D02*
X0120740Y0214770D01*
X0120740Y0215203D02*
X0116444Y0215203D01*
X0116444Y0215636D02*
X0120740Y0215636D01*
X0120740Y0216069D02*
X0116444Y0216069D01*
X0116444Y0216502D02*
X0120740Y0216502D01*
X0120740Y0216935D02*
X0116444Y0216935D01*
X0132551Y0216940D02*
X0132551Y0213038D01*
X0128255Y0213038D01*
X0128255Y0216940D01*
X0132551Y0216940D01*
X0132551Y0213471D02*
X0128255Y0213471D01*
X0128255Y0213904D02*
X0132551Y0213904D01*
X0132551Y0214337D02*
X0128255Y0214337D01*
X0128255Y0214770D02*
X0132551Y0214770D01*
X0132551Y0215203D02*
X0128255Y0215203D01*
X0128255Y0215636D02*
X0132551Y0215636D01*
X0132551Y0216069D02*
X0128255Y0216069D01*
X0128255Y0216502D02*
X0132551Y0216502D01*
X0132551Y0216935D02*
X0128255Y0216935D01*
X0132551Y0219731D02*
X0132551Y0223633D01*
X0132551Y0219731D02*
X0128255Y0219731D01*
X0128255Y0223633D01*
X0132551Y0223633D01*
X0132551Y0220164D02*
X0128255Y0220164D01*
X0128255Y0220597D02*
X0132551Y0220597D01*
X0132551Y0221030D02*
X0128255Y0221030D01*
X0128255Y0221463D02*
X0132551Y0221463D01*
X0132551Y0221896D02*
X0128255Y0221896D01*
X0128255Y0222329D02*
X0132551Y0222329D01*
X0132551Y0222762D02*
X0128255Y0222762D01*
X0128255Y0223195D02*
X0132551Y0223195D01*
X0132551Y0223628D02*
X0128255Y0223628D01*
X0140263Y0223830D02*
X0140263Y0219534D01*
X0140263Y0223830D02*
X0144165Y0223830D01*
X0144165Y0219534D01*
X0140263Y0219534D01*
X0140263Y0219967D02*
X0144165Y0219967D01*
X0144165Y0220400D02*
X0140263Y0220400D01*
X0140263Y0220833D02*
X0144165Y0220833D01*
X0144165Y0221266D02*
X0140263Y0221266D01*
X0140263Y0221699D02*
X0144165Y0221699D01*
X0144165Y0222132D02*
X0140263Y0222132D01*
X0140263Y0222565D02*
X0144165Y0222565D01*
X0144165Y0222998D02*
X0140263Y0222998D01*
X0140263Y0223431D02*
X0144165Y0223431D01*
X0140263Y0217137D02*
X0140263Y0212841D01*
X0140263Y0217137D02*
X0144165Y0217137D01*
X0144165Y0212841D01*
X0140263Y0212841D01*
X0140263Y0213274D02*
X0144165Y0213274D01*
X0144165Y0213707D02*
X0140263Y0213707D01*
X0140263Y0214140D02*
X0144165Y0214140D01*
X0144165Y0214573D02*
X0140263Y0214573D01*
X0140263Y0215006D02*
X0144165Y0215006D01*
X0144165Y0215439D02*
X0140263Y0215439D01*
X0140263Y0215872D02*
X0144165Y0215872D01*
X0144165Y0216305D02*
X0140263Y0216305D01*
X0140263Y0216738D02*
X0144165Y0216738D01*
X0120381Y0176389D02*
X0120381Y0172487D01*
X0120381Y0176389D02*
X0124677Y0176389D01*
X0124677Y0172487D01*
X0120381Y0172487D01*
X0120381Y0172920D02*
X0124677Y0172920D01*
X0124677Y0173353D02*
X0120381Y0173353D01*
X0120381Y0173786D02*
X0124677Y0173786D01*
X0124677Y0174219D02*
X0120381Y0174219D01*
X0120381Y0174652D02*
X0124677Y0174652D01*
X0124677Y0175085D02*
X0120381Y0175085D01*
X0120381Y0175518D02*
X0124677Y0175518D01*
X0124677Y0175951D02*
X0120381Y0175951D01*
X0120381Y0176384D02*
X0124677Y0176384D01*
X0120381Y0169696D02*
X0120381Y0165794D01*
X0120381Y0169696D02*
X0124677Y0169696D01*
X0124677Y0165794D01*
X0120381Y0165794D01*
X0120381Y0166227D02*
X0124677Y0166227D01*
X0124677Y0166660D02*
X0120381Y0166660D01*
X0120381Y0167093D02*
X0124677Y0167093D01*
X0124677Y0167526D02*
X0120381Y0167526D01*
X0120381Y0167959D02*
X0124677Y0167959D01*
X0124677Y0168392D02*
X0120381Y0168392D01*
X0120381Y0168825D02*
X0124677Y0168825D01*
X0124677Y0169258D02*
X0120381Y0169258D01*
X0120381Y0169691D02*
X0124677Y0169691D01*
X0124677Y0160641D02*
X0124677Y0156739D01*
X0120381Y0156739D01*
X0120381Y0160641D01*
X0124677Y0160641D01*
X0124677Y0157172D02*
X0120381Y0157172D01*
X0120381Y0157605D02*
X0124677Y0157605D01*
X0124677Y0158038D02*
X0120381Y0158038D01*
X0120381Y0158471D02*
X0124677Y0158471D01*
X0124677Y0158904D02*
X0120381Y0158904D01*
X0120381Y0159337D02*
X0124677Y0159337D01*
X0124677Y0159770D02*
X0120381Y0159770D01*
X0120381Y0160203D02*
X0124677Y0160203D01*
X0124677Y0160636D02*
X0120381Y0160636D01*
X0124677Y0153948D02*
X0124677Y0150046D01*
X0120381Y0150046D01*
X0120381Y0153948D01*
X0124677Y0153948D01*
X0124677Y0150479D02*
X0120381Y0150479D01*
X0120381Y0150912D02*
X0124677Y0150912D01*
X0124677Y0151345D02*
X0120381Y0151345D01*
X0120381Y0151778D02*
X0124677Y0151778D01*
X0124677Y0152211D02*
X0120381Y0152211D01*
X0120381Y0152644D02*
X0124677Y0152644D01*
X0124677Y0153077D02*
X0120381Y0153077D01*
X0120381Y0153510D02*
X0124677Y0153510D01*
X0124677Y0153943D02*
X0120381Y0153943D01*
X0120381Y0144893D02*
X0120381Y0140991D01*
X0120381Y0144893D02*
X0124677Y0144893D01*
X0124677Y0140991D01*
X0120381Y0140991D01*
X0120381Y0141424D02*
X0124677Y0141424D01*
X0124677Y0141857D02*
X0120381Y0141857D01*
X0120381Y0142290D02*
X0124677Y0142290D01*
X0124677Y0142723D02*
X0120381Y0142723D01*
X0120381Y0143156D02*
X0124677Y0143156D01*
X0124677Y0143589D02*
X0120381Y0143589D01*
X0120381Y0144022D02*
X0124677Y0144022D01*
X0124677Y0144455D02*
X0120381Y0144455D01*
X0120381Y0144888D02*
X0124677Y0144888D01*
X0120381Y0138200D02*
X0120381Y0134298D01*
X0120381Y0138200D02*
X0124677Y0138200D01*
X0124677Y0134298D01*
X0120381Y0134298D01*
X0120381Y0134731D02*
X0124677Y0134731D01*
X0124677Y0135164D02*
X0120381Y0135164D01*
X0120381Y0135597D02*
X0124677Y0135597D01*
X0124677Y0136030D02*
X0120381Y0136030D01*
X0120381Y0136463D02*
X0124677Y0136463D01*
X0124677Y0136896D02*
X0120381Y0136896D01*
X0120381Y0137329D02*
X0124677Y0137329D01*
X0124677Y0137762D02*
X0120381Y0137762D01*
X0120381Y0138195D02*
X0124677Y0138195D01*
X0120381Y0129145D02*
X0120381Y0125243D01*
X0120381Y0129145D02*
X0124677Y0129145D01*
X0124677Y0125243D01*
X0120381Y0125243D01*
X0120381Y0125676D02*
X0124677Y0125676D01*
X0124677Y0126109D02*
X0120381Y0126109D01*
X0120381Y0126542D02*
X0124677Y0126542D01*
X0124677Y0126975D02*
X0120381Y0126975D01*
X0120381Y0127408D02*
X0124677Y0127408D01*
X0124677Y0127841D02*
X0120381Y0127841D01*
X0120381Y0128274D02*
X0124677Y0128274D01*
X0124677Y0128707D02*
X0120381Y0128707D01*
X0120381Y0129140D02*
X0124677Y0129140D01*
X0120381Y0122452D02*
X0120381Y0118550D01*
X0120381Y0122452D02*
X0124677Y0122452D01*
X0124677Y0118550D01*
X0120381Y0118550D01*
X0120381Y0118983D02*
X0124677Y0118983D01*
X0124677Y0119416D02*
X0120381Y0119416D01*
X0120381Y0119849D02*
X0124677Y0119849D01*
X0124677Y0120282D02*
X0120381Y0120282D01*
X0120381Y0120715D02*
X0124677Y0120715D01*
X0124677Y0121148D02*
X0120381Y0121148D01*
X0120381Y0121581D02*
X0124677Y0121581D01*
X0124677Y0122014D02*
X0120381Y0122014D01*
X0120381Y0122447D02*
X0124677Y0122447D01*
X0104830Y0105720D02*
X0104830Y0101424D01*
X0104830Y0105720D02*
X0108732Y0105720D01*
X0108732Y0101424D01*
X0104830Y0101424D01*
X0104830Y0101857D02*
X0108732Y0101857D01*
X0108732Y0102290D02*
X0104830Y0102290D01*
X0104830Y0102723D02*
X0108732Y0102723D01*
X0108732Y0103156D02*
X0104830Y0103156D01*
X0104830Y0103589D02*
X0108732Y0103589D01*
X0108732Y0104022D02*
X0104830Y0104022D01*
X0104830Y0104455D02*
X0108732Y0104455D01*
X0108732Y0104888D02*
X0104830Y0104888D01*
X0104830Y0105321D02*
X0108732Y0105321D01*
X0104830Y0099027D02*
X0104830Y0094731D01*
X0104830Y0099027D02*
X0108732Y0099027D01*
X0108732Y0094731D01*
X0104830Y0094731D01*
X0104830Y0095164D02*
X0108732Y0095164D01*
X0108732Y0095597D02*
X0104830Y0095597D01*
X0104830Y0096030D02*
X0108732Y0096030D01*
X0108732Y0096463D02*
X0104830Y0096463D01*
X0104830Y0096896D02*
X0108732Y0096896D01*
X0108732Y0097329D02*
X0104830Y0097329D01*
X0104830Y0097762D02*
X0108732Y0097762D01*
X0108732Y0098195D02*
X0104830Y0098195D01*
X0104830Y0098628D02*
X0108732Y0098628D01*
X0112669Y0089972D02*
X0112669Y0085676D01*
X0108767Y0085676D01*
X0108767Y0089972D01*
X0112669Y0089972D01*
X0112669Y0086109D02*
X0108767Y0086109D01*
X0108767Y0086542D02*
X0112669Y0086542D01*
X0112669Y0086975D02*
X0108767Y0086975D01*
X0108767Y0087408D02*
X0112669Y0087408D01*
X0112669Y0087841D02*
X0108767Y0087841D01*
X0108767Y0088274D02*
X0112669Y0088274D01*
X0112669Y0088707D02*
X0108767Y0088707D01*
X0108767Y0089140D02*
X0112669Y0089140D01*
X0112669Y0089573D02*
X0108767Y0089573D01*
X0100696Y0089775D02*
X0100696Y0085873D01*
X0100696Y0089775D02*
X0104992Y0089775D01*
X0104992Y0085873D01*
X0100696Y0085873D01*
X0100696Y0086306D02*
X0104992Y0086306D01*
X0104992Y0086739D02*
X0100696Y0086739D01*
X0100696Y0087172D02*
X0104992Y0087172D01*
X0104992Y0087605D02*
X0100696Y0087605D01*
X0100696Y0088038D02*
X0104992Y0088038D01*
X0104992Y0088471D02*
X0100696Y0088471D01*
X0100696Y0088904D02*
X0104992Y0088904D01*
X0104992Y0089337D02*
X0100696Y0089337D01*
X0100696Y0089770D02*
X0104992Y0089770D01*
X0100696Y0083082D02*
X0100696Y0079180D01*
X0100696Y0083082D02*
X0104992Y0083082D01*
X0104992Y0079180D01*
X0100696Y0079180D01*
X0100696Y0079613D02*
X0104992Y0079613D01*
X0104992Y0080046D02*
X0100696Y0080046D01*
X0100696Y0080479D02*
X0104992Y0080479D01*
X0104992Y0080912D02*
X0100696Y0080912D01*
X0100696Y0081345D02*
X0104992Y0081345D01*
X0104992Y0081778D02*
X0100696Y0081778D01*
X0100696Y0082211D02*
X0104992Y0082211D01*
X0104992Y0082644D02*
X0100696Y0082644D01*
X0100696Y0083077D02*
X0104992Y0083077D01*
X0112669Y0083279D02*
X0112669Y0078983D01*
X0108767Y0078983D01*
X0108767Y0083279D01*
X0112669Y0083279D01*
X0112669Y0079416D02*
X0108767Y0079416D01*
X0108767Y0079849D02*
X0112669Y0079849D01*
X0112669Y0080282D02*
X0108767Y0080282D01*
X0108767Y0080715D02*
X0112669Y0080715D01*
X0112669Y0081148D02*
X0108767Y0081148D01*
X0108767Y0081581D02*
X0112669Y0081581D01*
X0112669Y0082014D02*
X0108767Y0082014D01*
X0108767Y0082447D02*
X0112669Y0082447D01*
X0112669Y0082880D02*
X0108767Y0082880D01*
X0112507Y0077964D02*
X0112507Y0074062D01*
X0112507Y0077964D02*
X0116803Y0077964D01*
X0116803Y0074062D01*
X0112507Y0074062D01*
X0112507Y0074495D02*
X0116803Y0074495D01*
X0116803Y0074928D02*
X0112507Y0074928D01*
X0112507Y0075361D02*
X0116803Y0075361D01*
X0116803Y0075794D02*
X0112507Y0075794D01*
X0112507Y0076227D02*
X0116803Y0076227D01*
X0116803Y0076660D02*
X0112507Y0076660D01*
X0112507Y0077093D02*
X0116803Y0077093D01*
X0116803Y0077526D02*
X0112507Y0077526D01*
X0112507Y0077959D02*
X0116803Y0077959D01*
X0112507Y0071271D02*
X0112507Y0067369D01*
X0112507Y0071271D02*
X0116803Y0071271D01*
X0116803Y0067369D01*
X0112507Y0067369D01*
X0112507Y0067802D02*
X0116803Y0067802D01*
X0116803Y0068235D02*
X0112507Y0068235D01*
X0112507Y0068668D02*
X0116803Y0068668D01*
X0116803Y0069101D02*
X0112507Y0069101D01*
X0112507Y0069534D02*
X0116803Y0069534D01*
X0116803Y0069967D02*
X0112507Y0069967D01*
X0112507Y0070400D02*
X0116803Y0070400D01*
X0116803Y0070833D02*
X0112507Y0070833D01*
X0112507Y0071266D02*
X0116803Y0071266D01*
X0113688Y0062413D02*
X0113688Y0058117D01*
X0113688Y0062413D02*
X0117590Y0062413D01*
X0117590Y0058117D01*
X0113688Y0058117D01*
X0113688Y0058550D02*
X0117590Y0058550D01*
X0117590Y0058983D02*
X0113688Y0058983D01*
X0113688Y0059416D02*
X0117590Y0059416D01*
X0117590Y0059849D02*
X0113688Y0059849D01*
X0113688Y0060282D02*
X0117590Y0060282D01*
X0117590Y0060715D02*
X0113688Y0060715D01*
X0113688Y0061148D02*
X0117590Y0061148D01*
X0117590Y0061581D02*
X0113688Y0061581D01*
X0113688Y0062014D02*
X0117590Y0062014D01*
X0121365Y0062216D02*
X0121365Y0058314D01*
X0121365Y0062216D02*
X0125661Y0062216D01*
X0125661Y0058314D01*
X0121365Y0058314D01*
X0121365Y0058747D02*
X0125661Y0058747D01*
X0125661Y0059180D02*
X0121365Y0059180D01*
X0121365Y0059613D02*
X0125661Y0059613D01*
X0125661Y0060046D02*
X0121365Y0060046D01*
X0121365Y0060479D02*
X0125661Y0060479D01*
X0125661Y0060912D02*
X0121365Y0060912D01*
X0121365Y0061345D02*
X0125661Y0061345D01*
X0125661Y0061778D02*
X0121365Y0061778D01*
X0121365Y0062211D02*
X0125661Y0062211D01*
X0121365Y0055523D02*
X0121365Y0051621D01*
X0121365Y0055523D02*
X0125661Y0055523D01*
X0125661Y0051621D01*
X0121365Y0051621D01*
X0121365Y0052054D02*
X0125661Y0052054D01*
X0125661Y0052487D02*
X0121365Y0052487D01*
X0121365Y0052920D02*
X0125661Y0052920D01*
X0125661Y0053353D02*
X0121365Y0053353D01*
X0121365Y0053786D02*
X0125661Y0053786D01*
X0125661Y0054219D02*
X0121365Y0054219D01*
X0121365Y0054652D02*
X0125661Y0054652D01*
X0125661Y0055085D02*
X0121365Y0055085D01*
X0121365Y0055518D02*
X0125661Y0055518D01*
X0113688Y0055720D02*
X0113688Y0051424D01*
X0113688Y0055720D02*
X0117590Y0055720D01*
X0117590Y0051424D01*
X0113688Y0051424D01*
X0113688Y0051857D02*
X0117590Y0051857D01*
X0117590Y0052290D02*
X0113688Y0052290D01*
X0113688Y0052723D02*
X0117590Y0052723D01*
X0117590Y0053156D02*
X0113688Y0053156D01*
X0113688Y0053589D02*
X0117590Y0053589D01*
X0117590Y0054022D02*
X0113688Y0054022D01*
X0113688Y0054455D02*
X0117590Y0054455D01*
X0117590Y0054888D02*
X0113688Y0054888D01*
X0113688Y0055321D02*
X0117590Y0055321D01*
X0088885Y0054377D02*
X0088885Y0058279D01*
X0093181Y0058279D01*
X0093181Y0054377D01*
X0088885Y0054377D01*
X0088885Y0054810D02*
X0093181Y0054810D01*
X0093181Y0055243D02*
X0088885Y0055243D01*
X0088885Y0055676D02*
X0093181Y0055676D01*
X0093181Y0056109D02*
X0088885Y0056109D01*
X0088885Y0056542D02*
X0093181Y0056542D01*
X0093181Y0056975D02*
X0088885Y0056975D01*
X0088885Y0057408D02*
X0093181Y0057408D01*
X0093181Y0057841D02*
X0088885Y0057841D01*
X0088885Y0058274D02*
X0093181Y0058274D01*
X0088885Y0051586D02*
X0088885Y0047684D01*
X0088885Y0051586D02*
X0093181Y0051586D01*
X0093181Y0047684D01*
X0088885Y0047684D01*
X0088885Y0048117D02*
X0093181Y0048117D01*
X0093181Y0048550D02*
X0088885Y0048550D01*
X0088885Y0048983D02*
X0093181Y0048983D01*
X0093181Y0049416D02*
X0088885Y0049416D01*
X0088885Y0049849D02*
X0093181Y0049849D01*
X0093181Y0050282D02*
X0088885Y0050282D01*
X0088885Y0050715D02*
X0093181Y0050715D01*
X0093181Y0051148D02*
X0088885Y0051148D01*
X0088885Y0051581D02*
X0093181Y0051581D01*
X0085110Y0051783D02*
X0085110Y0047487D01*
X0081208Y0047487D01*
X0081208Y0051783D01*
X0085110Y0051783D01*
X0085110Y0047920D02*
X0081208Y0047920D01*
X0081208Y0048353D02*
X0085110Y0048353D01*
X0085110Y0048786D02*
X0081208Y0048786D01*
X0081208Y0049219D02*
X0085110Y0049219D01*
X0085110Y0049652D02*
X0081208Y0049652D01*
X0081208Y0050085D02*
X0085110Y0050085D01*
X0085110Y0050518D02*
X0081208Y0050518D01*
X0081208Y0050951D02*
X0085110Y0050951D01*
X0085110Y0051384D02*
X0081208Y0051384D01*
X0085110Y0054180D02*
X0085110Y0058476D01*
X0085110Y0054180D02*
X0081208Y0054180D01*
X0081208Y0058476D01*
X0085110Y0058476D01*
X0085110Y0054613D02*
X0081208Y0054613D01*
X0081208Y0055046D02*
X0085110Y0055046D01*
X0085110Y0055479D02*
X0081208Y0055479D01*
X0081208Y0055912D02*
X0085110Y0055912D01*
X0085110Y0056345D02*
X0081208Y0056345D01*
X0081208Y0056778D02*
X0085110Y0056778D01*
X0085110Y0057211D02*
X0081208Y0057211D01*
X0081208Y0057644D02*
X0085110Y0057644D01*
X0085110Y0058077D02*
X0081208Y0058077D01*
X0080642Y0072631D02*
X0076740Y0072631D01*
X0076740Y0076927D01*
X0080642Y0076927D01*
X0080642Y0072631D01*
X0080642Y0073064D02*
X0076740Y0073064D01*
X0076740Y0073497D02*
X0080642Y0073497D01*
X0080642Y0073930D02*
X0076740Y0073930D01*
X0076740Y0074363D02*
X0080642Y0074363D01*
X0080642Y0074796D02*
X0076740Y0074796D01*
X0076740Y0075229D02*
X0080642Y0075229D01*
X0080642Y0075662D02*
X0076740Y0075662D01*
X0076740Y0076095D02*
X0080642Y0076095D01*
X0080642Y0076528D02*
X0076740Y0076528D01*
X0073949Y0072631D02*
X0070047Y0072631D01*
X0070047Y0076927D01*
X0073949Y0076927D01*
X0073949Y0072631D01*
X0073949Y0073064D02*
X0070047Y0073064D01*
X0070047Y0073497D02*
X0073949Y0073497D01*
X0073949Y0073930D02*
X0070047Y0073930D01*
X0070047Y0074363D02*
X0073949Y0074363D01*
X0073949Y0074796D02*
X0070047Y0074796D01*
X0070047Y0075229D02*
X0073949Y0075229D01*
X0073949Y0075662D02*
X0070047Y0075662D01*
X0070047Y0076095D02*
X0073949Y0076095D01*
X0073949Y0076528D02*
X0070047Y0076528D01*
X0057551Y0082920D02*
X0057551Y0087216D01*
X0057551Y0082920D02*
X0053649Y0082920D01*
X0053649Y0087216D01*
X0057551Y0087216D01*
X0057551Y0083353D02*
X0053649Y0083353D01*
X0053649Y0083786D02*
X0057551Y0083786D01*
X0057551Y0084219D02*
X0053649Y0084219D01*
X0053649Y0084652D02*
X0057551Y0084652D01*
X0057551Y0085085D02*
X0053649Y0085085D01*
X0053649Y0085518D02*
X0057551Y0085518D01*
X0057551Y0085951D02*
X0053649Y0085951D01*
X0053649Y0086384D02*
X0057551Y0086384D01*
X0057551Y0086817D02*
X0053649Y0086817D01*
X0057551Y0089613D02*
X0057551Y0093909D01*
X0057551Y0089613D02*
X0053649Y0089613D01*
X0053649Y0093909D01*
X0057551Y0093909D01*
X0057551Y0090046D02*
X0053649Y0090046D01*
X0053649Y0090479D02*
X0057551Y0090479D01*
X0057551Y0090912D02*
X0053649Y0090912D01*
X0053649Y0091345D02*
X0057551Y0091345D01*
X0057551Y0091778D02*
X0053649Y0091778D01*
X0053649Y0092211D02*
X0057551Y0092211D01*
X0057551Y0092644D02*
X0053649Y0092644D01*
X0053649Y0093077D02*
X0057551Y0093077D01*
X0057551Y0093510D02*
X0053649Y0093510D01*
X0045740Y0118353D02*
X0045740Y0122649D01*
X0045740Y0118353D02*
X0041838Y0118353D01*
X0041838Y0122649D01*
X0045740Y0122649D01*
X0045740Y0118786D02*
X0041838Y0118786D01*
X0041838Y0119219D02*
X0045740Y0119219D01*
X0045740Y0119652D02*
X0041838Y0119652D01*
X0041838Y0120085D02*
X0045740Y0120085D01*
X0045740Y0120518D02*
X0041838Y0120518D01*
X0041838Y0120951D02*
X0045740Y0120951D01*
X0045740Y0121384D02*
X0041838Y0121384D01*
X0041838Y0121817D02*
X0045740Y0121817D01*
X0045740Y0122250D02*
X0041838Y0122250D01*
X0045740Y0125046D02*
X0045740Y0129342D01*
X0045740Y0125046D02*
X0041838Y0125046D01*
X0041838Y0129342D01*
X0045740Y0129342D01*
X0045740Y0125479D02*
X0041838Y0125479D01*
X0041838Y0125912D02*
X0045740Y0125912D01*
X0045740Y0126345D02*
X0041838Y0126345D01*
X0041838Y0126778D02*
X0045740Y0126778D01*
X0045740Y0127211D02*
X0041838Y0127211D01*
X0041838Y0127644D02*
X0045740Y0127644D01*
X0045740Y0128077D02*
X0041838Y0128077D01*
X0041838Y0128510D02*
X0045740Y0128510D01*
X0045740Y0128943D02*
X0041838Y0128943D01*
X0069790Y0159298D02*
X0074086Y0159298D01*
X0069790Y0159298D02*
X0069790Y0163200D01*
X0074086Y0163200D01*
X0074086Y0159298D01*
X0074086Y0159731D02*
X0069790Y0159731D01*
X0069790Y0160164D02*
X0074086Y0160164D01*
X0074086Y0160597D02*
X0069790Y0160597D01*
X0069790Y0161030D02*
X0074086Y0161030D01*
X0074086Y0161463D02*
X0069790Y0161463D01*
X0069790Y0161896D02*
X0074086Y0161896D01*
X0074086Y0162329D02*
X0069790Y0162329D01*
X0069790Y0162762D02*
X0074086Y0162762D01*
X0074086Y0163195D02*
X0069790Y0163195D01*
X0076483Y0159298D02*
X0080779Y0159298D01*
X0076483Y0159298D02*
X0076483Y0163200D01*
X0080779Y0163200D01*
X0080779Y0159298D01*
X0080779Y0159731D02*
X0076483Y0159731D01*
X0076483Y0160164D02*
X0080779Y0160164D01*
X0080779Y0160597D02*
X0076483Y0160597D01*
X0076483Y0161030D02*
X0080779Y0161030D01*
X0080779Y0161463D02*
X0076483Y0161463D01*
X0076483Y0161896D02*
X0080779Y0161896D01*
X0080779Y0162329D02*
X0076483Y0162329D01*
X0076483Y0162762D02*
X0080779Y0162762D01*
X0080779Y0163195D02*
X0076483Y0163195D01*
X0100893Y0149027D02*
X0100893Y0144731D01*
X0100893Y0149027D02*
X0104795Y0149027D01*
X0104795Y0144731D01*
X0100893Y0144731D01*
X0100893Y0145164D02*
X0104795Y0145164D01*
X0104795Y0145597D02*
X0100893Y0145597D01*
X0100893Y0146030D02*
X0104795Y0146030D01*
X0104795Y0146463D02*
X0100893Y0146463D01*
X0100893Y0146896D02*
X0104795Y0146896D01*
X0104795Y0147329D02*
X0100893Y0147329D01*
X0100893Y0147762D02*
X0104795Y0147762D01*
X0104795Y0148195D02*
X0100893Y0148195D01*
X0100893Y0148628D02*
X0104795Y0148628D01*
X0100893Y0142334D02*
X0100893Y0138038D01*
X0100893Y0142334D02*
X0104795Y0142334D01*
X0104795Y0138038D01*
X0100893Y0138038D01*
X0100893Y0138471D02*
X0104795Y0138471D01*
X0104795Y0138904D02*
X0100893Y0138904D01*
X0100893Y0139337D02*
X0104795Y0139337D01*
X0104795Y0139770D02*
X0100893Y0139770D01*
X0100893Y0140203D02*
X0104795Y0140203D01*
X0104795Y0140636D02*
X0100893Y0140636D01*
X0100893Y0141069D02*
X0104795Y0141069D01*
X0104795Y0141502D02*
X0100893Y0141502D01*
X0100893Y0141935D02*
X0104795Y0141935D01*
X0088885Y0081901D02*
X0088885Y0077999D01*
X0088885Y0081901D02*
X0093181Y0081901D01*
X0093181Y0077999D01*
X0088885Y0077999D01*
X0088885Y0078432D02*
X0093181Y0078432D01*
X0093181Y0078865D02*
X0088885Y0078865D01*
X0088885Y0079298D02*
X0093181Y0079298D01*
X0093181Y0079731D02*
X0088885Y0079731D01*
X0088885Y0080164D02*
X0093181Y0080164D01*
X0093181Y0080597D02*
X0088885Y0080597D01*
X0088885Y0081030D02*
X0093181Y0081030D01*
X0093181Y0081463D02*
X0088885Y0081463D01*
X0088885Y0081896D02*
X0093181Y0081896D01*
X0088885Y0075208D02*
X0088885Y0071306D01*
X0088885Y0075208D02*
X0093181Y0075208D01*
X0093181Y0071306D01*
X0088885Y0071306D01*
X0088885Y0071739D02*
X0093181Y0071739D01*
X0093181Y0072172D02*
X0088885Y0072172D01*
X0088885Y0072605D02*
X0093181Y0072605D01*
X0093181Y0073038D02*
X0088885Y0073038D01*
X0088885Y0073471D02*
X0093181Y0073471D01*
X0093181Y0073904D02*
X0088885Y0073904D01*
X0088885Y0074337D02*
X0093181Y0074337D01*
X0093181Y0074770D02*
X0088885Y0074770D01*
X0088885Y0075203D02*
X0093181Y0075203D01*
X0057586Y0058476D02*
X0057586Y0054180D01*
X0057586Y0058476D02*
X0061488Y0058476D01*
X0061488Y0054180D01*
X0057586Y0054180D01*
X0057586Y0054613D02*
X0061488Y0054613D01*
X0061488Y0055046D02*
X0057586Y0055046D01*
X0057586Y0055479D02*
X0061488Y0055479D01*
X0061488Y0055912D02*
X0057586Y0055912D01*
X0057586Y0056345D02*
X0061488Y0056345D01*
X0061488Y0056778D02*
X0057586Y0056778D01*
X0057586Y0057211D02*
X0061488Y0057211D01*
X0061488Y0057644D02*
X0057586Y0057644D01*
X0057586Y0058077D02*
X0061488Y0058077D01*
X0057586Y0051783D02*
X0057586Y0047487D01*
X0057586Y0051783D02*
X0061488Y0051783D01*
X0061488Y0047487D01*
X0057586Y0047487D01*
X0057586Y0047920D02*
X0061488Y0047920D01*
X0061488Y0048353D02*
X0057586Y0048353D01*
X0057586Y0048786D02*
X0061488Y0048786D01*
X0061488Y0049219D02*
X0057586Y0049219D01*
X0057586Y0049652D02*
X0061488Y0049652D01*
X0061488Y0050085D02*
X0057586Y0050085D01*
X0057586Y0050518D02*
X0061488Y0050518D01*
X0061488Y0050951D02*
X0057586Y0050951D01*
X0057586Y0051384D02*
X0061488Y0051384D01*
X0049712Y0051783D02*
X0049712Y0047487D01*
X0049712Y0051783D02*
X0053614Y0051783D01*
X0053614Y0047487D01*
X0049712Y0047487D01*
X0049712Y0047920D02*
X0053614Y0047920D01*
X0053614Y0048353D02*
X0049712Y0048353D01*
X0049712Y0048786D02*
X0053614Y0048786D01*
X0053614Y0049219D02*
X0049712Y0049219D01*
X0049712Y0049652D02*
X0053614Y0049652D01*
X0053614Y0050085D02*
X0049712Y0050085D01*
X0049712Y0050518D02*
X0053614Y0050518D01*
X0053614Y0050951D02*
X0049712Y0050951D01*
X0049712Y0051384D02*
X0053614Y0051384D01*
X0049712Y0054180D02*
X0049712Y0058476D01*
X0053614Y0058476D01*
X0053614Y0054180D01*
X0049712Y0054180D01*
X0049712Y0054613D02*
X0053614Y0054613D01*
X0053614Y0055046D02*
X0049712Y0055046D01*
X0049712Y0055479D02*
X0053614Y0055479D01*
X0053614Y0055912D02*
X0049712Y0055912D01*
X0049712Y0056345D02*
X0053614Y0056345D01*
X0053614Y0056778D02*
X0049712Y0056778D01*
X0049712Y0057211D02*
X0053614Y0057211D01*
X0053614Y0057644D02*
X0049712Y0057644D01*
X0049712Y0058077D02*
X0053614Y0058077D01*
X0049712Y0042728D02*
X0049712Y0038432D01*
X0049712Y0042728D02*
X0053614Y0042728D01*
X0053614Y0038432D01*
X0049712Y0038432D01*
X0049712Y0038865D02*
X0053614Y0038865D01*
X0053614Y0039298D02*
X0049712Y0039298D01*
X0049712Y0039731D02*
X0053614Y0039731D01*
X0053614Y0040164D02*
X0049712Y0040164D01*
X0049712Y0040597D02*
X0053614Y0040597D01*
X0053614Y0041030D02*
X0049712Y0041030D01*
X0049712Y0041463D02*
X0053614Y0041463D01*
X0053614Y0041896D02*
X0049712Y0041896D01*
X0049712Y0042329D02*
X0053614Y0042329D01*
X0049712Y0036035D02*
X0049712Y0031739D01*
X0049712Y0036035D02*
X0053614Y0036035D01*
X0053614Y0031739D01*
X0049712Y0031739D01*
X0049712Y0032172D02*
X0053614Y0032172D01*
X0053614Y0032605D02*
X0049712Y0032605D01*
X0049712Y0033038D02*
X0053614Y0033038D01*
X0053614Y0033471D02*
X0049712Y0033471D01*
X0049712Y0033904D02*
X0053614Y0033904D01*
X0053614Y0034337D02*
X0049712Y0034337D01*
X0049712Y0034770D02*
X0053614Y0034770D01*
X0053614Y0035203D02*
X0049712Y0035203D01*
X0049712Y0035636D02*
X0053614Y0035636D01*
X0045937Y0035838D02*
X0045937Y0031936D01*
X0041641Y0031936D01*
X0041641Y0035838D01*
X0045937Y0035838D01*
X0045937Y0032369D02*
X0041641Y0032369D01*
X0041641Y0032802D02*
X0045937Y0032802D01*
X0045937Y0033235D02*
X0041641Y0033235D01*
X0041641Y0033668D02*
X0045937Y0033668D01*
X0045937Y0034101D02*
X0041641Y0034101D01*
X0041641Y0034534D02*
X0045937Y0034534D01*
X0045937Y0034967D02*
X0041641Y0034967D01*
X0041641Y0035400D02*
X0045937Y0035400D01*
X0045937Y0035833D02*
X0041641Y0035833D01*
X0045937Y0038629D02*
X0045937Y0042531D01*
X0045937Y0038629D02*
X0041641Y0038629D01*
X0041641Y0042531D01*
X0045937Y0042531D01*
X0045937Y0039062D02*
X0041641Y0039062D01*
X0041641Y0039495D02*
X0045937Y0039495D01*
X0045937Y0039928D02*
X0041641Y0039928D01*
X0041641Y0040361D02*
X0045937Y0040361D01*
X0045937Y0040794D02*
X0041641Y0040794D01*
X0041641Y0041227D02*
X0045937Y0041227D01*
X0045937Y0041660D02*
X0041641Y0041660D01*
X0041641Y0042093D02*
X0045937Y0042093D01*
X0045937Y0042526D02*
X0041641Y0042526D01*
X0038063Y0042531D02*
X0038063Y0038629D01*
X0033767Y0038629D01*
X0033767Y0042531D01*
X0038063Y0042531D01*
X0038063Y0039062D02*
X0033767Y0039062D01*
X0033767Y0039495D02*
X0038063Y0039495D01*
X0038063Y0039928D02*
X0033767Y0039928D01*
X0033767Y0040361D02*
X0038063Y0040361D01*
X0038063Y0040794D02*
X0033767Y0040794D01*
X0033767Y0041227D02*
X0038063Y0041227D01*
X0038063Y0041660D02*
X0033767Y0041660D01*
X0033767Y0042093D02*
X0038063Y0042093D01*
X0038063Y0042526D02*
X0033767Y0042526D01*
X0038063Y0035838D02*
X0038063Y0031936D01*
X0033767Y0031936D01*
X0033767Y0035838D01*
X0038063Y0035838D01*
X0038063Y0032369D02*
X0033767Y0032369D01*
X0033767Y0032802D02*
X0038063Y0032802D01*
X0038063Y0033235D02*
X0033767Y0033235D01*
X0033767Y0033668D02*
X0038063Y0033668D01*
X0038063Y0034101D02*
X0033767Y0034101D01*
X0033767Y0034534D02*
X0038063Y0034534D01*
X0038063Y0034967D02*
X0033767Y0034967D01*
X0033767Y0035400D02*
X0038063Y0035400D01*
X0038063Y0035833D02*
X0033767Y0035833D01*
X0045740Y0026979D02*
X0045740Y0022683D01*
X0041838Y0022683D01*
X0041838Y0026979D01*
X0045740Y0026979D01*
X0045740Y0023116D02*
X0041838Y0023116D01*
X0041838Y0023549D02*
X0045740Y0023549D01*
X0045740Y0023982D02*
X0041838Y0023982D01*
X0041838Y0024415D02*
X0045740Y0024415D01*
X0045740Y0024848D02*
X0041838Y0024848D01*
X0041838Y0025281D02*
X0045740Y0025281D01*
X0045740Y0025714D02*
X0041838Y0025714D01*
X0041838Y0026147D02*
X0045740Y0026147D01*
X0045740Y0026580D02*
X0041838Y0026580D01*
X0045740Y0020287D02*
X0045740Y0015991D01*
X0041838Y0015991D01*
X0041838Y0020287D01*
X0045740Y0020287D01*
X0045740Y0016424D02*
X0041838Y0016424D01*
X0041838Y0016857D02*
X0045740Y0016857D01*
X0045740Y0017290D02*
X0041838Y0017290D01*
X0041838Y0017723D02*
X0045740Y0017723D01*
X0045740Y0018156D02*
X0041838Y0018156D01*
X0041838Y0018589D02*
X0045740Y0018589D01*
X0045740Y0019022D02*
X0041838Y0019022D01*
X0041838Y0019455D02*
X0045740Y0019455D01*
X0045740Y0019888D02*
X0041838Y0019888D01*
X0073924Y0019337D02*
X0077826Y0019337D01*
X0073924Y0019337D02*
X0073924Y0023633D01*
X0077826Y0023633D01*
X0077826Y0019337D01*
X0077826Y0019770D02*
X0073924Y0019770D01*
X0073924Y0020203D02*
X0077826Y0020203D01*
X0077826Y0020636D02*
X0073924Y0020636D01*
X0073924Y0021069D02*
X0077826Y0021069D01*
X0077826Y0021502D02*
X0073924Y0021502D01*
X0073924Y0021935D02*
X0077826Y0021935D01*
X0077826Y0022368D02*
X0073924Y0022368D01*
X0073924Y0022801D02*
X0077826Y0022801D01*
X0077826Y0023234D02*
X0073924Y0023234D01*
X0073727Y0011660D02*
X0078023Y0011660D01*
X0073727Y0011660D02*
X0073727Y0015562D01*
X0078023Y0015562D01*
X0078023Y0011660D01*
X0078023Y0012093D02*
X0073727Y0012093D01*
X0073727Y0012526D02*
X0078023Y0012526D01*
X0078023Y0012959D02*
X0073727Y0012959D01*
X0073727Y0013392D02*
X0078023Y0013392D01*
X0078023Y0013825D02*
X0073727Y0013825D01*
X0073727Y0014258D02*
X0078023Y0014258D01*
X0078023Y0014691D02*
X0073727Y0014691D01*
X0073727Y0015124D02*
X0078023Y0015124D01*
X0078023Y0015557D02*
X0073727Y0015557D01*
X0080420Y0011660D02*
X0084716Y0011660D01*
X0080420Y0011660D02*
X0080420Y0015562D01*
X0084716Y0015562D01*
X0084716Y0011660D01*
X0084716Y0012093D02*
X0080420Y0012093D01*
X0080420Y0012526D02*
X0084716Y0012526D01*
X0084716Y0012959D02*
X0080420Y0012959D01*
X0080420Y0013392D02*
X0084716Y0013392D01*
X0084716Y0013825D02*
X0080420Y0013825D01*
X0080420Y0014258D02*
X0084716Y0014258D01*
X0084716Y0014691D02*
X0080420Y0014691D01*
X0080420Y0015124D02*
X0084716Y0015124D01*
X0084716Y0015557D02*
X0080420Y0015557D01*
X0080617Y0019337D02*
X0084519Y0019337D01*
X0080617Y0019337D02*
X0080617Y0023633D01*
X0084519Y0023633D01*
X0084519Y0019337D01*
X0084519Y0019770D02*
X0080617Y0019770D01*
X0080617Y0020203D02*
X0084519Y0020203D01*
X0084519Y0020636D02*
X0080617Y0020636D01*
X0080617Y0021069D02*
X0084519Y0021069D01*
X0084519Y0021502D02*
X0080617Y0021502D01*
X0080617Y0021935D02*
X0084519Y0021935D01*
X0084519Y0022368D02*
X0080617Y0022368D01*
X0080617Y0022801D02*
X0084519Y0022801D01*
X0084519Y0023234D02*
X0080617Y0023234D01*
D14*
X0069303Y0026232D02*
X0069303Y0008864D01*
X0062565Y0008864D01*
X0062565Y0026232D01*
X0069303Y0026232D01*
X0069303Y0009612D02*
X0062565Y0009612D01*
X0062565Y0010360D02*
X0069303Y0010360D01*
X0069303Y0011108D02*
X0062565Y0011108D01*
X0062565Y0011856D02*
X0069303Y0011856D01*
X0069303Y0012604D02*
X0062565Y0012604D01*
X0062565Y0013352D02*
X0069303Y0013352D01*
X0069303Y0014100D02*
X0062565Y0014100D01*
X0062565Y0014848D02*
X0069303Y0014848D01*
X0069303Y0015596D02*
X0062565Y0015596D01*
X0062565Y0016344D02*
X0069303Y0016344D01*
X0069303Y0017092D02*
X0062565Y0017092D01*
X0062565Y0017840D02*
X0069303Y0017840D01*
X0069303Y0018588D02*
X0062565Y0018588D01*
X0062565Y0019336D02*
X0069303Y0019336D01*
X0069303Y0020084D02*
X0062565Y0020084D01*
X0062565Y0020832D02*
X0069303Y0020832D01*
X0069303Y0021580D02*
X0062565Y0021580D01*
X0062565Y0022328D02*
X0069303Y0022328D01*
X0069303Y0023076D02*
X0062565Y0023076D01*
X0062565Y0023824D02*
X0069303Y0023824D01*
X0069303Y0024572D02*
X0062565Y0024572D01*
X0062565Y0025320D02*
X0069303Y0025320D01*
X0069303Y0026068D02*
X0062565Y0026068D01*
X0056508Y0026232D02*
X0056508Y0008864D01*
X0049770Y0008864D01*
X0049770Y0026232D01*
X0056508Y0026232D01*
X0056508Y0009612D02*
X0049770Y0009612D01*
X0049770Y0010360D02*
X0056508Y0010360D01*
X0056508Y0011108D02*
X0049770Y0011108D01*
X0049770Y0011856D02*
X0056508Y0011856D01*
X0056508Y0012604D02*
X0049770Y0012604D01*
X0049770Y0013352D02*
X0056508Y0013352D01*
X0056508Y0014100D02*
X0049770Y0014100D01*
X0049770Y0014848D02*
X0056508Y0014848D01*
X0056508Y0015596D02*
X0049770Y0015596D01*
X0049770Y0016344D02*
X0056508Y0016344D01*
X0056508Y0017092D02*
X0049770Y0017092D01*
X0049770Y0017840D02*
X0056508Y0017840D01*
X0056508Y0018588D02*
X0049770Y0018588D01*
X0049770Y0019336D02*
X0056508Y0019336D01*
X0056508Y0020084D02*
X0049770Y0020084D01*
X0049770Y0020832D02*
X0056508Y0020832D01*
X0056508Y0021580D02*
X0049770Y0021580D01*
X0049770Y0022328D02*
X0056508Y0022328D01*
X0056508Y0023076D02*
X0049770Y0023076D01*
X0049770Y0023824D02*
X0056508Y0023824D01*
X0056508Y0024572D02*
X0049770Y0024572D01*
X0049770Y0025320D02*
X0056508Y0025320D01*
X0056508Y0026068D02*
X0049770Y0026068D01*
X0009002Y0131994D02*
X0009002Y0138732D01*
X0016134Y0138732D01*
X0016134Y0131994D01*
X0009002Y0131994D01*
X0009002Y0132742D02*
X0016134Y0132742D01*
X0016134Y0133490D02*
X0009002Y0133490D01*
X0009002Y0134238D02*
X0016134Y0134238D01*
X0016134Y0134986D02*
X0009002Y0134986D01*
X0009002Y0135734D02*
X0016134Y0135734D01*
X0016134Y0136482D02*
X0009002Y0136482D01*
X0009002Y0137230D02*
X0016134Y0137230D01*
X0016134Y0137978D02*
X0009002Y0137978D01*
X0009002Y0138726D02*
X0016134Y0138726D01*
X0009002Y0161915D02*
X0009002Y0168653D01*
X0016134Y0168653D01*
X0016134Y0161915D01*
X0009002Y0161915D01*
X0009002Y0162663D02*
X0016134Y0162663D01*
X0016134Y0163411D02*
X0009002Y0163411D01*
X0009002Y0164159D02*
X0016134Y0164159D01*
X0016134Y0164907D02*
X0009002Y0164907D01*
X0009002Y0165655D02*
X0016134Y0165655D01*
X0016134Y0166403D02*
X0009002Y0166403D01*
X0009002Y0167151D02*
X0016134Y0167151D01*
X0016134Y0167899D02*
X0009002Y0167899D01*
X0009002Y0168647D02*
X0016134Y0168647D01*
D15*
X0009022Y0158594D02*
X0009022Y0151502D01*
X0009022Y0158594D02*
X0016114Y0158594D01*
X0016114Y0151502D01*
X0009022Y0151502D01*
X0009022Y0152289D02*
X0016114Y0152289D01*
X0016114Y0153076D02*
X0009022Y0153076D01*
X0009022Y0153863D02*
X0016114Y0153863D01*
X0016114Y0154650D02*
X0009022Y0154650D01*
X0009022Y0155437D02*
X0016114Y0155437D01*
X0016114Y0156224D02*
X0009022Y0156224D01*
X0009022Y0157011D02*
X0016114Y0157011D01*
X0016114Y0157798D02*
X0009022Y0157798D01*
X0009022Y0158585D02*
X0016114Y0158585D01*
X0009022Y0149145D02*
X0009022Y0142053D01*
X0009022Y0149145D02*
X0016114Y0149145D01*
X0016114Y0142053D01*
X0009022Y0142053D01*
X0009022Y0142840D02*
X0016114Y0142840D01*
X0016114Y0143627D02*
X0009022Y0143627D01*
X0009022Y0144414D02*
X0016114Y0144414D01*
X0016114Y0145201D02*
X0009022Y0145201D01*
X0009022Y0145988D02*
X0016114Y0145988D01*
X0016114Y0146775D02*
X0009022Y0146775D01*
X0009022Y0147562D02*
X0016114Y0147562D01*
X0016114Y0148349D02*
X0009022Y0148349D01*
X0009022Y0149136D02*
X0016114Y0149136D01*
D16*
X0019594Y0142118D02*
X0019594Y0134120D01*
X0019594Y0142118D02*
X0025622Y0142118D01*
X0025622Y0134120D01*
X0019594Y0134120D01*
X0019594Y0134789D02*
X0025622Y0134789D01*
X0025622Y0135458D02*
X0019594Y0135458D01*
X0019594Y0136127D02*
X0025622Y0136127D01*
X0025622Y0136796D02*
X0019594Y0136796D01*
X0019594Y0137465D02*
X0025622Y0137465D01*
X0025622Y0138134D02*
X0019594Y0138134D01*
X0019594Y0138803D02*
X0025622Y0138803D01*
X0025622Y0139472D02*
X0019594Y0139472D01*
X0019594Y0140141D02*
X0025622Y0140141D01*
X0025622Y0140810D02*
X0019594Y0140810D01*
X0019594Y0141479D02*
X0025622Y0141479D01*
X0019594Y0158529D02*
X0019594Y0166527D01*
X0025622Y0166527D01*
X0025622Y0158529D01*
X0019594Y0158529D01*
X0019594Y0159198D02*
X0025622Y0159198D01*
X0025622Y0159867D02*
X0019594Y0159867D01*
X0019594Y0160536D02*
X0025622Y0160536D01*
X0025622Y0161205D02*
X0019594Y0161205D01*
X0019594Y0161874D02*
X0025622Y0161874D01*
X0025622Y0162543D02*
X0019594Y0162543D01*
X0019594Y0163212D02*
X0025622Y0163212D01*
X0025622Y0163881D02*
X0019594Y0163881D01*
X0019594Y0164550D02*
X0025622Y0164550D01*
X0025622Y0165219D02*
X0019594Y0165219D01*
X0019594Y0165888D02*
X0025622Y0165888D01*
X0098727Y0048161D02*
X0104755Y0048161D01*
X0104755Y0036621D01*
X0098727Y0036621D01*
X0098727Y0048161D01*
X0098727Y0037290D02*
X0104755Y0037290D01*
X0104755Y0037959D02*
X0098727Y0037959D01*
X0098727Y0038628D02*
X0104755Y0038628D01*
X0104755Y0039297D02*
X0098727Y0039297D01*
X0098727Y0039966D02*
X0104755Y0039966D01*
X0104755Y0040635D02*
X0098727Y0040635D01*
X0098727Y0041304D02*
X0104755Y0041304D01*
X0104755Y0041973D02*
X0098727Y0041973D01*
X0098727Y0042642D02*
X0104755Y0042642D01*
X0104755Y0043311D02*
X0098727Y0043311D01*
X0098727Y0043980D02*
X0104755Y0043980D01*
X0104755Y0044649D02*
X0098727Y0044649D01*
X0098727Y0045318D02*
X0104755Y0045318D01*
X0104755Y0045987D02*
X0098727Y0045987D01*
X0098727Y0046656D02*
X0104755Y0046656D01*
X0104755Y0047325D02*
X0098727Y0047325D01*
X0098727Y0047994D02*
X0104755Y0047994D01*
X0116680Y0048161D02*
X0122708Y0048161D01*
X0122708Y0036621D01*
X0116680Y0036621D01*
X0116680Y0048161D01*
X0116680Y0037290D02*
X0122708Y0037290D01*
X0122708Y0037959D02*
X0116680Y0037959D01*
X0116680Y0038628D02*
X0122708Y0038628D01*
X0122708Y0039297D02*
X0116680Y0039297D01*
X0116680Y0039966D02*
X0122708Y0039966D01*
X0122708Y0040635D02*
X0116680Y0040635D01*
X0116680Y0041304D02*
X0122708Y0041304D01*
X0122708Y0041973D02*
X0116680Y0041973D01*
X0116680Y0042642D02*
X0122708Y0042642D01*
X0122708Y0043311D02*
X0116680Y0043311D01*
X0116680Y0043980D02*
X0122708Y0043980D01*
X0122708Y0044649D02*
X0116680Y0044649D01*
X0116680Y0045318D02*
X0122708Y0045318D01*
X0122708Y0045987D02*
X0116680Y0045987D01*
X0116680Y0046656D02*
X0122708Y0046656D01*
X0122708Y0047325D02*
X0116680Y0047325D01*
X0116680Y0047994D02*
X0122708Y0047994D01*
D17*
X0046592Y0152044D02*
X0046592Y0153524D01*
X0048860Y0153524D01*
X0048860Y0152044D01*
X0046592Y0152044D01*
X0046592Y0152537D02*
X0048860Y0152537D01*
X0048860Y0153030D02*
X0046592Y0153030D01*
X0046592Y0153523D02*
X0048860Y0153523D01*
X0046592Y0154603D02*
X0046592Y0156083D01*
X0048860Y0156083D01*
X0048860Y0154603D01*
X0046592Y0154603D01*
X0046592Y0155096D02*
X0048860Y0155096D01*
X0048860Y0155589D02*
X0046592Y0155589D01*
X0046592Y0156082D02*
X0048860Y0156082D01*
X0046592Y0157162D02*
X0046592Y0158642D01*
X0048860Y0158642D01*
X0048860Y0157162D01*
X0046592Y0157162D01*
X0046592Y0157655D02*
X0048860Y0157655D01*
X0048860Y0158148D02*
X0046592Y0158148D01*
X0046592Y0158641D02*
X0048860Y0158641D01*
X0038718Y0158642D02*
X0038718Y0157162D01*
X0038718Y0158642D02*
X0040986Y0158642D01*
X0040986Y0157162D01*
X0038718Y0157162D01*
X0038718Y0157655D02*
X0040986Y0157655D01*
X0040986Y0158148D02*
X0038718Y0158148D01*
X0038718Y0158641D02*
X0040986Y0158641D01*
X0038718Y0156083D02*
X0038718Y0154603D01*
X0038718Y0156083D02*
X0040986Y0156083D01*
X0040986Y0154603D01*
X0038718Y0154603D01*
X0038718Y0155096D02*
X0040986Y0155096D01*
X0040986Y0155589D02*
X0038718Y0155589D01*
X0038718Y0156082D02*
X0040986Y0156082D01*
X0038718Y0153524D02*
X0038718Y0152044D01*
X0038718Y0153524D02*
X0040986Y0153524D01*
X0040986Y0152044D01*
X0038718Y0152044D01*
X0038718Y0152537D02*
X0040986Y0152537D01*
X0040986Y0153030D02*
X0038718Y0153030D01*
X0038718Y0153523D02*
X0040986Y0153523D01*
X0020588Y0153623D02*
X0020588Y0152143D01*
X0020588Y0153623D02*
X0025808Y0153623D01*
X0025808Y0152143D01*
X0020588Y0152143D01*
X0020588Y0152636D02*
X0025808Y0152636D01*
X0025808Y0153129D02*
X0020588Y0153129D01*
X0020588Y0153622D02*
X0025808Y0153622D01*
X0020588Y0154702D02*
X0020588Y0156182D01*
X0025808Y0156182D01*
X0025808Y0154702D01*
X0020588Y0154702D01*
X0020588Y0155195D02*
X0025808Y0155195D01*
X0025808Y0155688D02*
X0020588Y0155688D01*
X0020588Y0156181D02*
X0025808Y0156181D01*
X0020588Y0151064D02*
X0020588Y0149584D01*
X0020588Y0151064D02*
X0025808Y0151064D01*
X0025808Y0149584D01*
X0020588Y0149584D01*
X0020588Y0150077D02*
X0025808Y0150077D01*
X0025808Y0150570D02*
X0020588Y0150570D01*
X0020588Y0151063D02*
X0025808Y0151063D01*
X0020588Y0148505D02*
X0020588Y0147025D01*
X0020588Y0148505D02*
X0025808Y0148505D01*
X0025808Y0147025D01*
X0020588Y0147025D01*
X0020588Y0147518D02*
X0025808Y0147518D01*
X0025808Y0148011D02*
X0020588Y0148011D01*
X0020588Y0148504D02*
X0025808Y0148504D01*
X0020588Y0145946D02*
X0020588Y0144466D01*
X0020588Y0145946D02*
X0025808Y0145946D01*
X0025808Y0144466D01*
X0020588Y0144466D01*
X0020588Y0144959D02*
X0025808Y0144959D01*
X0025808Y0145452D02*
X0020588Y0145452D01*
X0020588Y0145945D02*
X0025808Y0145945D01*
X0062143Y0244760D02*
X0063623Y0244760D01*
X0062143Y0244760D02*
X0062143Y0247028D01*
X0063623Y0247028D01*
X0063623Y0244760D01*
X0063623Y0245253D02*
X0062143Y0245253D01*
X0062143Y0245746D02*
X0063623Y0245746D01*
X0063623Y0246239D02*
X0062143Y0246239D01*
X0062143Y0246732D02*
X0063623Y0246732D01*
X0064702Y0244760D02*
X0066182Y0244760D01*
X0064702Y0244760D02*
X0064702Y0247028D01*
X0066182Y0247028D01*
X0066182Y0244760D01*
X0066182Y0245253D02*
X0064702Y0245253D01*
X0064702Y0245746D02*
X0066182Y0245746D01*
X0066182Y0246239D02*
X0064702Y0246239D01*
X0064702Y0246732D02*
X0066182Y0246732D01*
X0067261Y0244760D02*
X0068741Y0244760D01*
X0067261Y0244760D02*
X0067261Y0247028D01*
X0068741Y0247028D01*
X0068741Y0244760D01*
X0068741Y0245253D02*
X0067261Y0245253D01*
X0067261Y0245746D02*
X0068741Y0245746D01*
X0068741Y0246239D02*
X0067261Y0246239D01*
X0067261Y0246732D02*
X0068741Y0246732D01*
X0068741Y0252635D02*
X0067261Y0252635D01*
X0067261Y0254903D01*
X0068741Y0254903D01*
X0068741Y0252635D01*
X0068741Y0253128D02*
X0067261Y0253128D01*
X0067261Y0253621D02*
X0068741Y0253621D01*
X0068741Y0254114D02*
X0067261Y0254114D01*
X0067261Y0254607D02*
X0068741Y0254607D01*
X0066182Y0252635D02*
X0064702Y0252635D01*
X0064702Y0254903D01*
X0066182Y0254903D01*
X0066182Y0252635D01*
X0066182Y0253128D02*
X0064702Y0253128D01*
X0064702Y0253621D02*
X0066182Y0253621D01*
X0066182Y0254114D02*
X0064702Y0254114D01*
X0064702Y0254607D02*
X0066182Y0254607D01*
X0063623Y0252635D02*
X0062143Y0252635D01*
X0062143Y0254903D01*
X0063623Y0254903D01*
X0063623Y0252635D01*
X0063623Y0253128D02*
X0062143Y0253128D01*
X0062143Y0253621D02*
X0063623Y0253621D01*
X0063623Y0254114D02*
X0062143Y0254114D01*
X0062143Y0254607D02*
X0063623Y0254607D01*
D18*
X0064623Y0238875D02*
X0064623Y0236773D01*
X0059961Y0236773D01*
X0059961Y0238875D01*
X0064623Y0238875D01*
X0064623Y0237234D02*
X0059961Y0237234D01*
X0059961Y0237695D02*
X0064623Y0237695D01*
X0064623Y0238156D02*
X0059961Y0238156D01*
X0059961Y0238617D02*
X0064623Y0238617D01*
X0064623Y0231394D02*
X0064623Y0229292D01*
X0059961Y0229292D01*
X0059961Y0231394D01*
X0064623Y0231394D01*
X0064623Y0229753D02*
X0059961Y0229753D01*
X0059961Y0230214D02*
X0064623Y0230214D01*
X0064623Y0230675D02*
X0059961Y0230675D01*
X0059961Y0231136D02*
X0064623Y0231136D01*
X0074860Y0231394D02*
X0074860Y0229292D01*
X0070198Y0229292D01*
X0070198Y0231394D01*
X0074860Y0231394D01*
X0074860Y0229753D02*
X0070198Y0229753D01*
X0070198Y0230214D02*
X0074860Y0230214D01*
X0074860Y0230675D02*
X0070198Y0230675D01*
X0070198Y0231136D02*
X0074860Y0231136D01*
X0074860Y0233032D02*
X0074860Y0235134D01*
X0074860Y0233032D02*
X0070198Y0233032D01*
X0070198Y0235134D01*
X0074860Y0235134D01*
X0074860Y0233493D02*
X0070198Y0233493D01*
X0070198Y0233954D02*
X0074860Y0233954D01*
X0074860Y0234415D02*
X0070198Y0234415D01*
X0070198Y0234876D02*
X0074860Y0234876D01*
X0074860Y0236773D02*
X0074860Y0238875D01*
X0074860Y0236773D02*
X0070198Y0236773D01*
X0070198Y0238875D01*
X0074860Y0238875D01*
X0074860Y0237234D02*
X0070198Y0237234D01*
X0070198Y0237695D02*
X0074860Y0237695D01*
X0074860Y0238156D02*
X0070198Y0238156D01*
X0070198Y0238617D02*
X0074860Y0238617D01*
X0096119Y0238875D02*
X0096119Y0236773D01*
X0091457Y0236773D01*
X0091457Y0238875D01*
X0096119Y0238875D01*
X0096119Y0237234D02*
X0091457Y0237234D01*
X0091457Y0237695D02*
X0096119Y0237695D01*
X0096119Y0238156D02*
X0091457Y0238156D01*
X0091457Y0238617D02*
X0096119Y0238617D01*
X0096119Y0231394D02*
X0096119Y0229292D01*
X0091457Y0229292D01*
X0091457Y0231394D01*
X0096119Y0231394D01*
X0096119Y0229753D02*
X0091457Y0229753D01*
X0091457Y0230214D02*
X0096119Y0230214D01*
X0096119Y0230675D02*
X0091457Y0230675D01*
X0091457Y0231136D02*
X0096119Y0231136D01*
X0106356Y0231394D02*
X0106356Y0229292D01*
X0101694Y0229292D01*
X0101694Y0231394D01*
X0106356Y0231394D01*
X0106356Y0229753D02*
X0101694Y0229753D01*
X0101694Y0230214D02*
X0106356Y0230214D01*
X0106356Y0230675D02*
X0101694Y0230675D01*
X0101694Y0231136D02*
X0106356Y0231136D01*
X0106356Y0233032D02*
X0106356Y0235134D01*
X0106356Y0233032D02*
X0101694Y0233032D01*
X0101694Y0235134D01*
X0106356Y0235134D01*
X0106356Y0233493D02*
X0101694Y0233493D01*
X0101694Y0233954D02*
X0106356Y0233954D01*
X0106356Y0234415D02*
X0101694Y0234415D01*
X0101694Y0234876D02*
X0106356Y0234876D01*
X0106356Y0236773D02*
X0106356Y0238875D01*
X0106356Y0236773D02*
X0101694Y0236773D01*
X0101694Y0238875D01*
X0106356Y0238875D01*
X0106356Y0237234D02*
X0101694Y0237234D01*
X0101694Y0237695D02*
X0106356Y0237695D01*
X0106356Y0238156D02*
X0101694Y0238156D01*
X0101694Y0238617D02*
X0106356Y0238617D01*
X0127615Y0238875D02*
X0127615Y0236773D01*
X0122953Y0236773D01*
X0122953Y0238875D01*
X0127615Y0238875D01*
X0127615Y0237234D02*
X0122953Y0237234D01*
X0122953Y0237695D02*
X0127615Y0237695D01*
X0127615Y0238156D02*
X0122953Y0238156D01*
X0122953Y0238617D02*
X0127615Y0238617D01*
X0127615Y0231394D02*
X0127615Y0229292D01*
X0122953Y0229292D01*
X0122953Y0231394D01*
X0127615Y0231394D01*
X0127615Y0229753D02*
X0122953Y0229753D01*
X0122953Y0230214D02*
X0127615Y0230214D01*
X0127615Y0230675D02*
X0122953Y0230675D01*
X0122953Y0231136D02*
X0127615Y0231136D01*
X0137852Y0231394D02*
X0137852Y0229292D01*
X0133190Y0229292D01*
X0133190Y0231394D01*
X0137852Y0231394D01*
X0137852Y0229753D02*
X0133190Y0229753D01*
X0133190Y0230214D02*
X0137852Y0230214D01*
X0137852Y0230675D02*
X0133190Y0230675D01*
X0133190Y0231136D02*
X0137852Y0231136D01*
X0137852Y0233032D02*
X0137852Y0235134D01*
X0137852Y0233032D02*
X0133190Y0233032D01*
X0133190Y0235134D01*
X0137852Y0235134D01*
X0137852Y0233493D02*
X0133190Y0233493D01*
X0133190Y0233954D02*
X0137852Y0233954D01*
X0137852Y0234415D02*
X0133190Y0234415D01*
X0133190Y0234876D02*
X0137852Y0234876D01*
X0137852Y0236773D02*
X0137852Y0238875D01*
X0137852Y0236773D02*
X0133190Y0236773D01*
X0133190Y0238875D01*
X0137852Y0238875D01*
X0137852Y0237234D02*
X0133190Y0237234D01*
X0133190Y0237695D02*
X0137852Y0237695D01*
X0137852Y0238156D02*
X0133190Y0238156D01*
X0133190Y0238617D02*
X0137852Y0238617D01*
X0043364Y0238875D02*
X0043364Y0236773D01*
X0038702Y0236773D01*
X0038702Y0238875D01*
X0043364Y0238875D01*
X0043364Y0237234D02*
X0038702Y0237234D01*
X0038702Y0237695D02*
X0043364Y0237695D01*
X0043364Y0238156D02*
X0038702Y0238156D01*
X0038702Y0238617D02*
X0043364Y0238617D01*
X0043364Y0235134D02*
X0043364Y0233032D01*
X0038702Y0233032D01*
X0038702Y0235134D01*
X0043364Y0235134D01*
X0043364Y0233493D02*
X0038702Y0233493D01*
X0038702Y0233954D02*
X0043364Y0233954D01*
X0043364Y0234415D02*
X0038702Y0234415D01*
X0038702Y0234876D02*
X0043364Y0234876D01*
X0043364Y0231394D02*
X0043364Y0229292D01*
X0038702Y0229292D01*
X0038702Y0231394D01*
X0043364Y0231394D01*
X0043364Y0229753D02*
X0038702Y0229753D01*
X0038702Y0230214D02*
X0043364Y0230214D01*
X0043364Y0230675D02*
X0038702Y0230675D01*
X0038702Y0231136D02*
X0043364Y0231136D01*
X0033127Y0231394D02*
X0033127Y0229292D01*
X0028465Y0229292D01*
X0028465Y0231394D01*
X0033127Y0231394D01*
X0033127Y0229753D02*
X0028465Y0229753D01*
X0028465Y0230214D02*
X0033127Y0230214D01*
X0033127Y0230675D02*
X0028465Y0230675D01*
X0028465Y0231136D02*
X0033127Y0231136D01*
X0033127Y0236773D02*
X0033127Y0238875D01*
X0033127Y0236773D02*
X0028465Y0236773D01*
X0028465Y0238875D01*
X0033127Y0238875D01*
X0033127Y0237234D02*
X0028465Y0237234D01*
X0028465Y0237695D02*
X0033127Y0237695D01*
X0033127Y0238156D02*
X0028465Y0238156D01*
X0028465Y0238617D02*
X0033127Y0238617D01*
X0098053Y0072242D02*
X0100155Y0072242D01*
X0100155Y0067580D01*
X0098053Y0067580D01*
X0098053Y0072242D01*
X0098053Y0068041D02*
X0100155Y0068041D01*
X0100155Y0068502D02*
X0098053Y0068502D01*
X0098053Y0068963D02*
X0100155Y0068963D01*
X0100155Y0069424D02*
X0098053Y0069424D01*
X0098053Y0069885D02*
X0100155Y0069885D01*
X0100155Y0070346D02*
X0098053Y0070346D01*
X0098053Y0070807D02*
X0100155Y0070807D01*
X0100155Y0071268D02*
X0098053Y0071268D01*
X0098053Y0071729D02*
X0100155Y0071729D01*
X0100155Y0072190D02*
X0098053Y0072190D01*
X0101793Y0072242D02*
X0103895Y0072242D01*
X0103895Y0067580D01*
X0101793Y0067580D01*
X0101793Y0072242D01*
X0101793Y0068041D02*
X0103895Y0068041D01*
X0103895Y0068502D02*
X0101793Y0068502D01*
X0101793Y0068963D02*
X0103895Y0068963D01*
X0103895Y0069424D02*
X0101793Y0069424D01*
X0101793Y0069885D02*
X0103895Y0069885D01*
X0103895Y0070346D02*
X0101793Y0070346D01*
X0101793Y0070807D02*
X0103895Y0070807D01*
X0103895Y0071268D02*
X0101793Y0071268D01*
X0101793Y0071729D02*
X0103895Y0071729D01*
X0103895Y0072190D02*
X0101793Y0072190D01*
X0105533Y0072242D02*
X0107635Y0072242D01*
X0107635Y0067580D01*
X0105533Y0067580D01*
X0105533Y0072242D01*
X0105533Y0068041D02*
X0107635Y0068041D01*
X0107635Y0068502D02*
X0105533Y0068502D01*
X0105533Y0068963D02*
X0107635Y0068963D01*
X0107635Y0069424D02*
X0105533Y0069424D01*
X0105533Y0069885D02*
X0107635Y0069885D01*
X0107635Y0070346D02*
X0105533Y0070346D01*
X0105533Y0070807D02*
X0107635Y0070807D01*
X0107635Y0071268D02*
X0105533Y0071268D01*
X0105533Y0071729D02*
X0107635Y0071729D01*
X0107635Y0072190D02*
X0105533Y0072190D01*
X0105533Y0062005D02*
X0107635Y0062005D01*
X0107635Y0057343D01*
X0105533Y0057343D01*
X0105533Y0062005D01*
X0105533Y0057804D02*
X0107635Y0057804D01*
X0107635Y0058265D02*
X0105533Y0058265D01*
X0105533Y0058726D02*
X0107635Y0058726D01*
X0107635Y0059187D02*
X0105533Y0059187D01*
X0105533Y0059648D02*
X0107635Y0059648D01*
X0107635Y0060109D02*
X0105533Y0060109D01*
X0105533Y0060570D02*
X0107635Y0060570D01*
X0107635Y0061031D02*
X0105533Y0061031D01*
X0105533Y0061492D02*
X0107635Y0061492D01*
X0107635Y0061953D02*
X0105533Y0061953D01*
X0100155Y0062005D02*
X0098053Y0062005D01*
X0100155Y0062005D02*
X0100155Y0057343D01*
X0098053Y0057343D01*
X0098053Y0062005D01*
X0098053Y0057804D02*
X0100155Y0057804D01*
X0100155Y0058265D02*
X0098053Y0058265D01*
X0098053Y0058726D02*
X0100155Y0058726D01*
X0100155Y0059187D02*
X0098053Y0059187D01*
X0098053Y0059648D02*
X0100155Y0059648D01*
X0100155Y0060109D02*
X0098053Y0060109D01*
X0098053Y0060570D02*
X0100155Y0060570D01*
X0100155Y0061031D02*
X0098053Y0061031D01*
X0098053Y0061492D02*
X0100155Y0061492D01*
X0100155Y0061953D02*
X0098053Y0061953D01*
X0074860Y0042024D02*
X0074860Y0039922D01*
X0070198Y0039922D01*
X0070198Y0042024D01*
X0074860Y0042024D01*
X0074860Y0040383D02*
X0070198Y0040383D01*
X0070198Y0040844D02*
X0074860Y0040844D01*
X0074860Y0041305D02*
X0070198Y0041305D01*
X0070198Y0041766D02*
X0074860Y0041766D01*
X0074860Y0038284D02*
X0074860Y0036182D01*
X0070198Y0036182D01*
X0070198Y0038284D01*
X0074860Y0038284D01*
X0074860Y0036643D02*
X0070198Y0036643D01*
X0070198Y0037104D02*
X0074860Y0037104D01*
X0074860Y0037565D02*
X0070198Y0037565D01*
X0070198Y0038026D02*
X0074860Y0038026D01*
X0074860Y0034544D02*
X0074860Y0032442D01*
X0070198Y0032442D01*
X0070198Y0034544D01*
X0074860Y0034544D01*
X0074860Y0032903D02*
X0070198Y0032903D01*
X0070198Y0033364D02*
X0074860Y0033364D01*
X0074860Y0033825D02*
X0070198Y0033825D01*
X0070198Y0034286D02*
X0074860Y0034286D01*
X0064623Y0034544D02*
X0064623Y0032442D01*
X0059961Y0032442D01*
X0059961Y0034544D01*
X0064623Y0034544D01*
X0064623Y0032903D02*
X0059961Y0032903D01*
X0059961Y0033364D02*
X0064623Y0033364D01*
X0064623Y0033825D02*
X0059961Y0033825D01*
X0059961Y0034286D02*
X0064623Y0034286D01*
X0064623Y0039922D02*
X0064623Y0042024D01*
X0064623Y0039922D02*
X0059961Y0039922D01*
X0059961Y0042024D01*
X0064623Y0042024D01*
X0064623Y0040383D02*
X0059961Y0040383D01*
X0059961Y0040844D02*
X0064623Y0040844D01*
X0064623Y0041305D02*
X0059961Y0041305D01*
X0059961Y0041766D02*
X0064623Y0041766D01*
D19*
X0065191Y0166627D02*
X0065191Y0169177D01*
X0065191Y0166627D02*
X0057241Y0166627D01*
X0057241Y0169177D01*
X0065191Y0169177D01*
X0065191Y0167076D02*
X0057241Y0167076D01*
X0057241Y0167525D02*
X0065191Y0167525D01*
X0065191Y0167974D02*
X0057241Y0167974D01*
X0057241Y0168423D02*
X0065191Y0168423D01*
X0065191Y0168872D02*
X0057241Y0168872D01*
X0065191Y0171627D02*
X0065191Y0174177D01*
X0065191Y0171627D02*
X0057241Y0171627D01*
X0057241Y0174177D01*
X0065191Y0174177D01*
X0065191Y0172076D02*
X0057241Y0172076D01*
X0057241Y0172525D02*
X0065191Y0172525D01*
X0065191Y0172974D02*
X0057241Y0172974D01*
X0057241Y0173423D02*
X0065191Y0173423D01*
X0065191Y0173872D02*
X0057241Y0173872D01*
X0065191Y0176627D02*
X0065191Y0179177D01*
X0065191Y0176627D02*
X0057241Y0176627D01*
X0057241Y0179177D01*
X0065191Y0179177D01*
X0065191Y0177076D02*
X0057241Y0177076D01*
X0057241Y0177525D02*
X0065191Y0177525D01*
X0065191Y0177974D02*
X0057241Y0177974D01*
X0057241Y0178423D02*
X0065191Y0178423D01*
X0065191Y0178872D02*
X0057241Y0178872D01*
X0065191Y0181627D02*
X0065191Y0184177D01*
X0065191Y0181627D02*
X0057241Y0181627D01*
X0057241Y0184177D01*
X0065191Y0184177D01*
X0065191Y0182076D02*
X0057241Y0182076D01*
X0057241Y0182525D02*
X0065191Y0182525D01*
X0065191Y0182974D02*
X0057241Y0182974D01*
X0057241Y0183423D02*
X0065191Y0183423D01*
X0065191Y0183872D02*
X0057241Y0183872D01*
X0065191Y0186627D02*
X0065191Y0189177D01*
X0065191Y0186627D02*
X0057241Y0186627D01*
X0057241Y0189177D01*
X0065191Y0189177D01*
X0065191Y0187076D02*
X0057241Y0187076D01*
X0057241Y0187525D02*
X0065191Y0187525D01*
X0065191Y0187974D02*
X0057241Y0187974D01*
X0057241Y0188423D02*
X0065191Y0188423D01*
X0065191Y0188872D02*
X0057241Y0188872D01*
X0065191Y0191627D02*
X0065191Y0194177D01*
X0065191Y0191627D02*
X0057241Y0191627D01*
X0057241Y0194177D01*
X0065191Y0194177D01*
X0065191Y0192076D02*
X0057241Y0192076D01*
X0057241Y0192525D02*
X0065191Y0192525D01*
X0065191Y0192974D02*
X0057241Y0192974D01*
X0057241Y0193423D02*
X0065191Y0193423D01*
X0065191Y0193872D02*
X0057241Y0193872D01*
X0065191Y0196627D02*
X0065191Y0199177D01*
X0065191Y0196627D02*
X0057241Y0196627D01*
X0057241Y0199177D01*
X0065191Y0199177D01*
X0065191Y0197076D02*
X0057241Y0197076D01*
X0057241Y0197525D02*
X0065191Y0197525D01*
X0065191Y0197974D02*
X0057241Y0197974D01*
X0057241Y0198423D02*
X0065191Y0198423D01*
X0065191Y0198872D02*
X0057241Y0198872D01*
X0089391Y0199177D02*
X0089391Y0196627D01*
X0081441Y0196627D01*
X0081441Y0199177D01*
X0089391Y0199177D01*
X0089391Y0197076D02*
X0081441Y0197076D01*
X0081441Y0197525D02*
X0089391Y0197525D01*
X0089391Y0197974D02*
X0081441Y0197974D01*
X0081441Y0198423D02*
X0089391Y0198423D01*
X0089391Y0198872D02*
X0081441Y0198872D01*
X0089391Y0194177D02*
X0089391Y0191627D01*
X0081441Y0191627D01*
X0081441Y0194177D01*
X0089391Y0194177D01*
X0089391Y0192076D02*
X0081441Y0192076D01*
X0081441Y0192525D02*
X0089391Y0192525D01*
X0089391Y0192974D02*
X0081441Y0192974D01*
X0081441Y0193423D02*
X0089391Y0193423D01*
X0089391Y0193872D02*
X0081441Y0193872D01*
X0089391Y0189177D02*
X0089391Y0186627D01*
X0081441Y0186627D01*
X0081441Y0189177D01*
X0089391Y0189177D01*
X0089391Y0187076D02*
X0081441Y0187076D01*
X0081441Y0187525D02*
X0089391Y0187525D01*
X0089391Y0187974D02*
X0081441Y0187974D01*
X0081441Y0188423D02*
X0089391Y0188423D01*
X0089391Y0188872D02*
X0081441Y0188872D01*
X0089391Y0184177D02*
X0089391Y0181627D01*
X0081441Y0181627D01*
X0081441Y0184177D01*
X0089391Y0184177D01*
X0089391Y0182076D02*
X0081441Y0182076D01*
X0081441Y0182525D02*
X0089391Y0182525D01*
X0089391Y0182974D02*
X0081441Y0182974D01*
X0081441Y0183423D02*
X0089391Y0183423D01*
X0089391Y0183872D02*
X0081441Y0183872D01*
X0089391Y0179177D02*
X0089391Y0176627D01*
X0081441Y0176627D01*
X0081441Y0179177D01*
X0089391Y0179177D01*
X0089391Y0177076D02*
X0081441Y0177076D01*
X0081441Y0177525D02*
X0089391Y0177525D01*
X0089391Y0177974D02*
X0081441Y0177974D01*
X0081441Y0178423D02*
X0089391Y0178423D01*
X0089391Y0178872D02*
X0081441Y0178872D01*
X0089391Y0174177D02*
X0089391Y0171627D01*
X0081441Y0171627D01*
X0081441Y0174177D01*
X0089391Y0174177D01*
X0089391Y0172076D02*
X0081441Y0172076D01*
X0081441Y0172525D02*
X0089391Y0172525D01*
X0089391Y0172974D02*
X0081441Y0172974D01*
X0081441Y0173423D02*
X0089391Y0173423D01*
X0089391Y0173872D02*
X0081441Y0173872D01*
X0089391Y0169177D02*
X0089391Y0166627D01*
X0081441Y0166627D01*
X0081441Y0169177D01*
X0089391Y0169177D01*
X0089391Y0167076D02*
X0081441Y0167076D01*
X0081441Y0167525D02*
X0089391Y0167525D01*
X0089391Y0167974D02*
X0081441Y0167974D01*
X0081441Y0168423D02*
X0089391Y0168423D01*
X0089391Y0168872D02*
X0081441Y0168872D01*
D20*
X0086033Y0246831D02*
X0086033Y0252831D01*
X0096033Y0252831D02*
X0096033Y0246831D01*
X0040915Y0246831D02*
X0040915Y0252831D01*
X0030915Y0252831D02*
X0030915Y0246831D01*
X0070285Y0067792D02*
X0070285Y0061792D01*
X0080285Y0061792D02*
X0080285Y0067792D01*
D21*
X0101988Y0025713D02*
X0119448Y0025713D01*
X0119448Y0004753D01*
X0101988Y0004753D01*
X0101988Y0025713D01*
X0101988Y0006692D02*
X0119448Y0006692D01*
X0119448Y0008631D02*
X0101988Y0008631D01*
X0101988Y0010570D02*
X0119448Y0010570D01*
X0119448Y0012509D02*
X0101988Y0012509D01*
X0101988Y0014448D02*
X0119448Y0014448D01*
X0119448Y0016387D02*
X0101988Y0016387D01*
X0101988Y0018326D02*
X0119448Y0018326D01*
X0119448Y0020265D02*
X0101988Y0020265D01*
X0101988Y0022204D02*
X0119448Y0022204D01*
X0119448Y0024143D02*
X0101988Y0024143D01*
D22*
X0085541Y0028965D02*
X0085541Y0032509D01*
X0085541Y0028965D02*
X0080777Y0028965D01*
X0080777Y0032509D01*
X0085541Y0032509D01*
X0085541Y0029402D02*
X0080777Y0029402D01*
X0080777Y0029839D02*
X0085541Y0029839D01*
X0085541Y0030276D02*
X0080777Y0030276D01*
X0080777Y0030713D02*
X0085541Y0030713D01*
X0085541Y0031150D02*
X0080777Y0031150D01*
X0080777Y0031587D02*
X0085541Y0031587D01*
X0085541Y0032024D02*
X0080777Y0032024D01*
X0080777Y0032461D02*
X0085541Y0032461D01*
X0085541Y0041957D02*
X0085541Y0045501D01*
X0085541Y0041957D02*
X0080777Y0041957D01*
X0080777Y0045501D01*
X0085541Y0045501D01*
X0085541Y0042394D02*
X0080777Y0042394D01*
X0080777Y0042831D02*
X0085541Y0042831D01*
X0085541Y0043268D02*
X0080777Y0043268D01*
X0080777Y0043705D02*
X0085541Y0043705D01*
X0085541Y0044142D02*
X0080777Y0044142D01*
X0080777Y0044579D02*
X0085541Y0044579D01*
X0085541Y0045016D02*
X0080777Y0045016D01*
X0080777Y0045453D02*
X0085541Y0045453D01*
X0034360Y0123453D02*
X0034360Y0126997D01*
X0034360Y0123453D02*
X0029596Y0123453D01*
X0029596Y0126997D01*
X0034360Y0126997D01*
X0034360Y0123890D02*
X0029596Y0123890D01*
X0029596Y0124327D02*
X0034360Y0124327D01*
X0034360Y0124764D02*
X0029596Y0124764D01*
X0029596Y0125201D02*
X0034360Y0125201D01*
X0034360Y0125638D02*
X0029596Y0125638D01*
X0029596Y0126075D02*
X0034360Y0126075D01*
X0034360Y0126512D02*
X0029596Y0126512D01*
X0029596Y0126949D02*
X0034360Y0126949D01*
X0034360Y0136445D02*
X0034360Y0139989D01*
X0034360Y0136445D02*
X0029596Y0136445D01*
X0029596Y0139989D01*
X0034360Y0139989D01*
X0034360Y0136882D02*
X0029596Y0136882D01*
X0029596Y0137319D02*
X0034360Y0137319D01*
X0034360Y0137756D02*
X0029596Y0137756D01*
X0029596Y0138193D02*
X0034360Y0138193D01*
X0034360Y0138630D02*
X0029596Y0138630D01*
X0029596Y0139067D02*
X0034360Y0139067D01*
X0034360Y0139504D02*
X0029596Y0139504D01*
X0029596Y0139941D02*
X0034360Y0139941D01*
X0110324Y0247449D02*
X0113868Y0247449D01*
X0110324Y0247449D02*
X0110324Y0252213D01*
X0113868Y0252213D01*
X0113868Y0247449D01*
X0113868Y0247886D02*
X0110324Y0247886D01*
X0110324Y0248323D02*
X0113868Y0248323D01*
X0113868Y0248760D02*
X0110324Y0248760D01*
X0110324Y0249197D02*
X0113868Y0249197D01*
X0113868Y0249634D02*
X0110324Y0249634D01*
X0110324Y0250071D02*
X0113868Y0250071D01*
X0113868Y0250508D02*
X0110324Y0250508D01*
X0110324Y0250945D02*
X0113868Y0250945D01*
X0113868Y0251382D02*
X0110324Y0251382D01*
X0110324Y0251819D02*
X0113868Y0251819D01*
X0123316Y0247449D02*
X0126860Y0247449D01*
X0123316Y0247449D02*
X0123316Y0252213D01*
X0126860Y0252213D01*
X0126860Y0247449D01*
X0126860Y0247886D02*
X0123316Y0247886D01*
X0123316Y0248323D02*
X0126860Y0248323D01*
X0126860Y0248760D02*
X0123316Y0248760D01*
X0123316Y0249197D02*
X0126860Y0249197D01*
X0126860Y0249634D02*
X0123316Y0249634D01*
X0123316Y0250071D02*
X0126860Y0250071D01*
X0126860Y0250508D02*
X0123316Y0250508D01*
X0123316Y0250945D02*
X0126860Y0250945D01*
X0126860Y0251382D02*
X0123316Y0251382D01*
X0123316Y0251819D02*
X0126860Y0251819D01*
D23*
X0142214Y0085277D03*
X0137477Y0080540D03*
X0142214Y0075803D03*
D24*
X0143759Y0131161D02*
X0140669Y0131161D01*
X0140669Y0134251D01*
X0143759Y0134251D01*
X0143759Y0131161D01*
X0143759Y0131621D02*
X0140669Y0131621D01*
X0140669Y0132081D02*
X0143759Y0132081D01*
X0143759Y0132541D02*
X0140669Y0132541D01*
X0140669Y0133001D02*
X0143759Y0133001D01*
X0143759Y0133461D02*
X0140669Y0133461D01*
X0140669Y0133921D02*
X0143759Y0133921D01*
X0143759Y0137066D02*
X0140669Y0137066D01*
X0140669Y0140156D01*
X0143759Y0140156D01*
X0143759Y0137066D01*
X0143759Y0137526D02*
X0140669Y0137526D01*
X0140669Y0137986D02*
X0143759Y0137986D01*
X0143759Y0138446D02*
X0140669Y0138446D01*
X0140669Y0138906D02*
X0143759Y0138906D01*
X0143759Y0139366D02*
X0140669Y0139366D01*
X0140669Y0139826D02*
X0143759Y0139826D01*
X0143759Y0142972D02*
X0140669Y0142972D01*
X0140669Y0146062D01*
X0143759Y0146062D01*
X0143759Y0142972D01*
X0143759Y0143432D02*
X0140669Y0143432D01*
X0140669Y0143892D02*
X0143759Y0143892D01*
X0143759Y0144352D02*
X0140669Y0144352D01*
X0140669Y0144812D02*
X0143759Y0144812D01*
X0143759Y0145272D02*
X0140669Y0145272D01*
X0140669Y0145732D02*
X0143759Y0145732D01*
X0143759Y0148877D02*
X0140669Y0148877D01*
X0140669Y0151967D01*
X0143759Y0151967D01*
X0143759Y0148877D01*
X0143759Y0149337D02*
X0140669Y0149337D01*
X0140669Y0149797D02*
X0143759Y0149797D01*
X0143759Y0150257D02*
X0140669Y0150257D01*
X0140669Y0150717D02*
X0143759Y0150717D01*
X0143759Y0151177D02*
X0140669Y0151177D01*
X0140669Y0151637D02*
X0143759Y0151637D01*
X0143759Y0154783D02*
X0140669Y0154783D01*
X0140669Y0157873D01*
X0143759Y0157873D01*
X0143759Y0154783D01*
X0143759Y0155243D02*
X0140669Y0155243D01*
X0140669Y0155703D02*
X0143759Y0155703D01*
X0143759Y0156163D02*
X0140669Y0156163D01*
X0140669Y0156623D02*
X0143759Y0156623D01*
X0143759Y0157083D02*
X0140669Y0157083D01*
X0140669Y0157543D02*
X0143759Y0157543D01*
X0143759Y0160688D02*
X0140669Y0160688D01*
X0140669Y0163778D01*
X0143759Y0163778D01*
X0143759Y0160688D01*
X0143759Y0161148D02*
X0140669Y0161148D01*
X0140669Y0161608D02*
X0143759Y0161608D01*
X0143759Y0162068D02*
X0140669Y0162068D01*
X0140669Y0162528D02*
X0143759Y0162528D01*
X0143759Y0162988D02*
X0140669Y0162988D01*
X0140669Y0163448D02*
X0143759Y0163448D01*
X0143759Y0166594D02*
X0140669Y0166594D01*
X0140669Y0169684D01*
X0143759Y0169684D01*
X0143759Y0166594D01*
X0143759Y0167054D02*
X0140669Y0167054D01*
X0140669Y0167514D02*
X0143759Y0167514D01*
X0143759Y0167974D02*
X0140669Y0167974D01*
X0140669Y0168434D02*
X0143759Y0168434D01*
X0143759Y0168894D02*
X0140669Y0168894D01*
X0140669Y0169354D02*
X0143759Y0169354D01*
X0143759Y0172499D02*
X0140669Y0172499D01*
X0140669Y0175589D01*
X0143759Y0175589D01*
X0143759Y0172499D01*
X0143759Y0172959D02*
X0140669Y0172959D01*
X0140669Y0173419D02*
X0143759Y0173419D01*
X0143759Y0173879D02*
X0140669Y0173879D01*
X0140669Y0174339D02*
X0143759Y0174339D01*
X0143759Y0174799D02*
X0140669Y0174799D01*
X0140669Y0175259D02*
X0143759Y0175259D01*
D25*
X0015167Y0041603D03*
X0015167Y0051603D03*
X0015167Y0061603D03*
X0015167Y0071603D03*
X0015167Y0081603D03*
X0015167Y0091603D03*
X0015167Y0101603D03*
X0015167Y0111603D03*
X0025167Y0111603D03*
X0025167Y0101603D03*
X0025167Y0091603D03*
X0025167Y0081603D03*
X0025167Y0071603D03*
X0025167Y0061603D03*
X0025167Y0051603D03*
X0025167Y0041603D03*
X0129340Y0197587D03*
X0129340Y0207587D03*
X0139340Y0207587D03*
X0139340Y0197587D03*
D26*
X0120856Y0198946D03*
X0113277Y0210560D03*
X0108946Y0210265D03*
X0118690Y0227194D03*
X0119182Y0237824D03*
X0104419Y0241465D03*
X0099104Y0230934D03*
X0081289Y0203769D03*
X0076860Y0199339D03*
X0079222Y0195501D03*
X0077450Y0183001D03*
X0073907Y0176898D03*
X0076958Y0173847D03*
X0078828Y0166662D03*
X0074497Y0166367D03*
X0067411Y0175324D03*
X0067411Y0190481D03*
X0067903Y0202194D03*
X0070757Y0205442D03*
X0075186Y0209871D03*
X0077450Y0230934D03*
X0077450Y0237627D03*
X0068592Y0242154D03*
X0066623Y0235265D03*
X0056190Y0238020D03*
X0047135Y0231131D03*
X0040245Y0224536D03*
X0036112Y0237824D03*
X0019773Y0224831D03*
X0013474Y0226209D03*
X0013474Y0210461D03*
X0012391Y0190776D03*
X0032765Y0206328D03*
X0035915Y0200619D03*
X0042903Y0163020D03*
X0036013Y0153769D03*
X0031584Y0154162D03*
X0028434Y0151013D03*
X0032864Y0146583D03*
X0040245Y0139300D03*
X0043297Y0142450D03*
X0045757Y0149635D03*
X0049202Y0143631D03*
X0053927Y0136446D03*
X0056978Y0143631D03*
X0049202Y0127095D03*
X0048316Y0118729D03*
X0051663Y0110068D03*
X0058552Y0112922D03*
X0056781Y0121387D03*
X0059832Y0124438D03*
X0069871Y0124143D03*
X0073907Y0122076D03*
X0078041Y0120402D03*
X0082273Y0106820D03*
X0094084Y0098847D03*
X0093001Y0089398D03*
X0102450Y0106524D03*
X0106879Y0112233D03*
X0106190Y0119615D03*
X0103041Y0122666D03*
X0110226Y0123650D03*
X0105009Y0133690D03*
X0107568Y0137233D03*
X0109537Y0146091D03*
X0098119Y0153473D03*
X0092017Y0143040D03*
X0095265Y0140186D03*
X0098119Y0136446D03*
X0094182Y0126603D03*
X0081387Y0142351D03*
X0080009Y0149930D03*
X0077647Y0153670D03*
X0084340Y0150225D03*
X0087785Y0157706D03*
X0084734Y0160757D03*
X0093887Y0183001D03*
X0129222Y0129851D03*
X0131781Y0138611D03*
X0138572Y0147469D03*
X0138572Y0171091D03*
X0117411Y0117646D03*
X0106781Y0092154D03*
X0110226Y0072272D03*
X0112982Y0064792D03*
X0121249Y0064792D03*
X0102352Y0064398D03*
X0086702Y0060954D03*
X0071348Y0046879D03*
X0067214Y0040580D03*
X0056289Y0040580D03*
X0047135Y0050816D03*
X0047135Y0055146D03*
X0040738Y0044910D03*
X0061702Y0069812D03*
X0069871Y0082902D03*
X0067017Y0089792D03*
X0067017Y0095698D03*
X0065541Y0099930D03*
X0065541Y0104261D03*
X0076958Y0085757D03*
X0050482Y0085166D03*
X0049596Y0092351D03*
X0050285Y0097076D03*
M02*
