%
M48
M72
T01C0.01600
T02C0.04000
T03C0.04300
T04C0.12200
%
T01
X40738Y44910
X47135Y50816
X47135Y55146
X56289Y40580
X67214Y40580
X71348Y46879
X86702Y60954
X76958Y85757
X69871Y82902
X67017Y89792
X67017Y95698
X65541Y99930
X65541Y104261
X58552Y112922
X56781Y121387
X59832Y124438
X53927Y136446
X56978Y143631
X49202Y143631
X45757Y149635
X43297Y142450
X40245Y139300
X32864Y146583
X28434Y151013
X31584Y154162
X36013Y153769
X42903Y163020
X49202Y127095
X48316Y118729
X51663Y110068
X50285Y97076
X49596Y92351
X50482Y85166
X61702Y69812
X82273Y106820
X78041Y120402
X73907Y122076
X69871Y124143
X81387Y142351
X80009Y149930
X77647Y153670
X84340Y150225
X87785Y157706
X84734Y160757
X78828Y166662
X76958Y173847
X73907Y176898
X77450Y183001
X79222Y195501
X76860Y199339
X81289Y203769
X75186Y209871
X70757Y205442
X67903Y202194
X67411Y190481
X67411Y175324
X74497Y166367
X92017Y143040
X95265Y140186
X98119Y136446
X94182Y126603
X103041Y122666
X106190Y119615
X110226Y123650
X105009Y133690
X107568Y137233
X109537Y146091
X98119Y153473
X93887Y183001
X108946Y210265
X113277Y210560
X120856Y198946
X118690Y227194
X119182Y237824
X104419Y241465
X99104Y230934
X77450Y230934
X77450Y237627
X68592Y242154
X66623Y235265
X56190Y238020
X47135Y231131
X40245Y224536
X36112Y237824
X19773Y224831
X13474Y226209
X13474Y210461
X12391Y190776
X32765Y206328
X35915Y200619
X94084Y98847
X93001Y89398
X102450Y106524
X106879Y112233
X117411Y117646
X129222Y129851
X131781Y138611
X138572Y147469
X138572Y171091
X106781Y92154
X110226Y72272
X112982Y64792
X121249Y64792
X102352Y64398
T02
X15167Y41603
X15167Y51603
X15167Y61603
X15167Y71603
X15167Y81603
X15167Y91603
X15167Y101603
X15167Y111603
X25167Y111603
X25167Y101603
X25167Y91603
X25167Y81603
X25167Y71603
X25167Y61603
X25167Y51603
X25167Y41603
X70285Y64792
X80285Y64792
X129340Y197587
X129340Y207587
X139340Y207587
X139340Y197587
X96033Y249831
X86033Y249831
X40915Y249831
X30915Y249831
T03
X137477Y80540
X142214Y75803
X142214Y85277
T04
X142214Y119910
X142214Y41170
M30
