G75*
%MOIN*%
%OFA0B0*%
%FSLAX25Y25*%
%IPPOS*%
%LPD*%
%AMOC8*
5,1,8,0,0,1.08239X$1,22.5*
%
%ADD10C,0.12600*%
%ADD11R,0.01581X0.05124*%
%ADD12R,0.04337X0.04731*%
%ADD13R,0.03943X0.02762*%
%ADD14R,0.04731X0.04337*%
%ADD15C,0.06400*%
%ADD16R,0.02762X0.03943*%
%ADD17R,0.05124X0.02565*%
%ADD18R,0.03983X0.05203*%
%ADD19OC8,0.06850*%
%ADD20R,0.03550X0.03550*%
%ADD21R,0.01975X0.02762*%
%ADD22R,0.07487X0.18117*%
%ADD23R,0.02565X0.05124*%
%ADD24R,0.03943X0.03550*%
%ADD25OC8,0.06400*%
%ADD26R,0.05715X0.01975*%
%ADD27R,0.05912X0.06699*%
%ADD28C,0.06896*%
%ADD29R,0.07880X0.07880*%
%ADD30R,0.04534X0.02762*%
%ADD31R,0.10243X0.06699*%
%ADD32R,0.05124X0.03746*%
D10*
X0139595Y0041170D03*
X0139595Y0119910D03*
D11*
G36*
X0100588Y0117247D02*
X0099470Y0116129D01*
X0095848Y0119751D01*
X0096966Y0120869D01*
X0100588Y0117247D01*
G37*
G36*
X0099196Y0115855D02*
X0098078Y0114737D01*
X0094456Y0118359D01*
X0095574Y0119477D01*
X0099196Y0115855D01*
G37*
G36*
X0097804Y0114463D02*
X0096686Y0113345D01*
X0093064Y0116967D01*
X0094182Y0118085D01*
X0097804Y0114463D01*
G37*
G36*
X0096412Y0113071D02*
X0095294Y0111953D01*
X0091672Y0115575D01*
X0092790Y0116693D01*
X0096412Y0113071D01*
G37*
G36*
X0095020Y0111679D02*
X0093902Y0110561D01*
X0090280Y0114183D01*
X0091398Y0115301D01*
X0095020Y0111679D01*
G37*
G36*
X0093628Y0110287D02*
X0092510Y0109169D01*
X0088888Y0112791D01*
X0090006Y0113909D01*
X0093628Y0110287D01*
G37*
G36*
X0092236Y0108896D02*
X0091118Y0107778D01*
X0087496Y0111400D01*
X0088614Y0112518D01*
X0092236Y0108896D01*
G37*
G36*
X0090844Y0107504D02*
X0089726Y0106386D01*
X0086104Y0110008D01*
X0087222Y0111126D01*
X0090844Y0107504D01*
G37*
G36*
X0089452Y0106112D02*
X0088334Y0104994D01*
X0084712Y0108616D01*
X0085830Y0109734D01*
X0089452Y0106112D01*
G37*
G36*
X0088060Y0104720D02*
X0086942Y0103602D01*
X0083320Y0107224D01*
X0084438Y0108342D01*
X0088060Y0104720D01*
G37*
G36*
X0086668Y0103328D02*
X0085550Y0102210D01*
X0081928Y0105832D01*
X0083046Y0106950D01*
X0086668Y0103328D01*
G37*
G36*
X0085276Y0101936D02*
X0084158Y0100818D01*
X0080536Y0104440D01*
X0081654Y0105558D01*
X0085276Y0101936D01*
G37*
G36*
X0075807Y0105558D02*
X0076925Y0104440D01*
X0073303Y0100818D01*
X0072185Y0101936D01*
X0075807Y0105558D01*
G37*
G36*
X0074415Y0106950D02*
X0075533Y0105832D01*
X0071911Y0102210D01*
X0070793Y0103328D01*
X0074415Y0106950D01*
G37*
G36*
X0073023Y0108342D02*
X0074141Y0107224D01*
X0070519Y0103602D01*
X0069401Y0104720D01*
X0073023Y0108342D01*
G37*
G36*
X0071631Y0109734D02*
X0072749Y0108616D01*
X0069127Y0104994D01*
X0068009Y0106112D01*
X0071631Y0109734D01*
G37*
G36*
X0070239Y0111126D02*
X0071357Y0110008D01*
X0067735Y0106386D01*
X0066617Y0107504D01*
X0070239Y0111126D01*
G37*
G36*
X0068847Y0112518D02*
X0069965Y0111400D01*
X0066343Y0107778D01*
X0065225Y0108896D01*
X0068847Y0112518D01*
G37*
G36*
X0067455Y0113909D02*
X0068573Y0112791D01*
X0064951Y0109169D01*
X0063833Y0110287D01*
X0067455Y0113909D01*
G37*
G36*
X0066063Y0115301D02*
X0067181Y0114183D01*
X0063559Y0110561D01*
X0062441Y0111679D01*
X0066063Y0115301D01*
G37*
G36*
X0064671Y0116693D02*
X0065789Y0115575D01*
X0062167Y0111953D01*
X0061049Y0113071D01*
X0064671Y0116693D01*
G37*
G36*
X0063279Y0118085D02*
X0064397Y0116967D01*
X0060775Y0113345D01*
X0059657Y0114463D01*
X0063279Y0118085D01*
G37*
G36*
X0061887Y0119477D02*
X0063005Y0118359D01*
X0059383Y0114737D01*
X0058265Y0115855D01*
X0061887Y0119477D01*
G37*
G36*
X0060495Y0120869D02*
X0061613Y0119751D01*
X0057991Y0116129D01*
X0056873Y0117247D01*
X0060495Y0120869D01*
G37*
G36*
X0061613Y0125599D02*
X0060495Y0124481D01*
X0056873Y0128103D01*
X0057991Y0129221D01*
X0061613Y0125599D01*
G37*
G36*
X0063005Y0126991D02*
X0061887Y0125873D01*
X0058265Y0129495D01*
X0059383Y0130613D01*
X0063005Y0126991D01*
G37*
G36*
X0064397Y0128383D02*
X0063279Y0127265D01*
X0059657Y0130887D01*
X0060775Y0132005D01*
X0064397Y0128383D01*
G37*
G36*
X0065789Y0129775D02*
X0064671Y0128657D01*
X0061049Y0132279D01*
X0062167Y0133397D01*
X0065789Y0129775D01*
G37*
G36*
X0067181Y0131167D02*
X0066063Y0130049D01*
X0062441Y0133671D01*
X0063559Y0134789D01*
X0067181Y0131167D01*
G37*
G36*
X0068573Y0132559D02*
X0067455Y0131441D01*
X0063833Y0135063D01*
X0064951Y0136181D01*
X0068573Y0132559D01*
G37*
G36*
X0069965Y0133951D02*
X0068847Y0132833D01*
X0065225Y0136455D01*
X0066343Y0137573D01*
X0069965Y0133951D01*
G37*
G36*
X0071357Y0135342D02*
X0070239Y0134224D01*
X0066617Y0137846D01*
X0067735Y0138964D01*
X0071357Y0135342D01*
G37*
G36*
X0072749Y0136734D02*
X0071631Y0135616D01*
X0068009Y0139238D01*
X0069127Y0140356D01*
X0072749Y0136734D01*
G37*
G36*
X0074141Y0138126D02*
X0073023Y0137008D01*
X0069401Y0140630D01*
X0070519Y0141748D01*
X0074141Y0138126D01*
G37*
G36*
X0075533Y0139518D02*
X0074415Y0138400D01*
X0070793Y0142022D01*
X0071911Y0143140D01*
X0075533Y0139518D01*
G37*
G36*
X0076925Y0140910D02*
X0075807Y0139792D01*
X0072185Y0143414D01*
X0073303Y0144532D01*
X0076925Y0140910D01*
G37*
G36*
X0084158Y0144532D02*
X0085276Y0143414D01*
X0081654Y0139792D01*
X0080536Y0140910D01*
X0084158Y0144532D01*
G37*
G36*
X0085550Y0143140D02*
X0086668Y0142022D01*
X0083046Y0138400D01*
X0081928Y0139518D01*
X0085550Y0143140D01*
G37*
G36*
X0086942Y0141748D02*
X0088060Y0140630D01*
X0084438Y0137008D01*
X0083320Y0138126D01*
X0086942Y0141748D01*
G37*
G36*
X0088334Y0140356D02*
X0089452Y0139238D01*
X0085830Y0135616D01*
X0084712Y0136734D01*
X0088334Y0140356D01*
G37*
G36*
X0089726Y0138964D02*
X0090844Y0137846D01*
X0087222Y0134224D01*
X0086104Y0135342D01*
X0089726Y0138964D01*
G37*
G36*
X0091118Y0137573D02*
X0092236Y0136455D01*
X0088614Y0132833D01*
X0087496Y0133951D01*
X0091118Y0137573D01*
G37*
G36*
X0092510Y0136181D02*
X0093628Y0135063D01*
X0090006Y0131441D01*
X0088888Y0132559D01*
X0092510Y0136181D01*
G37*
G36*
X0093902Y0134789D02*
X0095020Y0133671D01*
X0091398Y0130049D01*
X0090280Y0131167D01*
X0093902Y0134789D01*
G37*
G36*
X0095294Y0133397D02*
X0096412Y0132279D01*
X0092790Y0128657D01*
X0091672Y0129775D01*
X0095294Y0133397D01*
G37*
G36*
X0096686Y0132005D02*
X0097804Y0130887D01*
X0094182Y0127265D01*
X0093064Y0128383D01*
X0096686Y0132005D01*
G37*
G36*
X0098078Y0130613D02*
X0099196Y0129495D01*
X0095574Y0125873D01*
X0094456Y0126991D01*
X0098078Y0130613D01*
G37*
G36*
X0099470Y0129221D02*
X0100588Y0128103D01*
X0096966Y0124481D01*
X0095848Y0125599D01*
X0099470Y0129221D01*
G37*
D12*
X0068729Y0056328D03*
X0068729Y0049635D03*
X0080540Y0020894D03*
X0080540Y0014202D03*
X0045107Y0049635D03*
X0045107Y0056328D03*
X0025422Y0175619D03*
X0025422Y0182312D03*
D13*
X0021485Y0195698D03*
X0021485Y0201603D03*
X0029359Y0201603D03*
X0029359Y0195698D03*
X0037233Y0195698D03*
X0037233Y0201603D03*
X0037233Y0211446D03*
X0037233Y0217351D03*
X0029359Y0217351D03*
X0029359Y0211446D03*
X0021485Y0211446D03*
X0021485Y0217351D03*
X0013611Y0217351D03*
X0013611Y0211446D03*
X0013611Y0201603D03*
X0013611Y0195698D03*
X0013611Y0181918D03*
X0013611Y0176013D03*
X0033296Y0146485D03*
X0033296Y0140580D03*
X0049044Y0187824D03*
X0049044Y0193729D03*
X0049044Y0199635D03*
X0049044Y0205540D03*
X0049044Y0211446D03*
X0049044Y0217351D03*
X0060855Y0227194D03*
X0060855Y0233099D03*
X0068729Y0233099D03*
X0068729Y0227194D03*
X0080540Y0227194D03*
X0080540Y0233099D03*
X0088414Y0233099D03*
X0088414Y0227194D03*
X0100225Y0227194D03*
X0100225Y0233099D03*
X0108099Y0233099D03*
X0108099Y0227194D03*
X0119910Y0227194D03*
X0119910Y0233099D03*
X0127784Y0233099D03*
X0127784Y0227194D03*
X0123847Y0201603D03*
X0123847Y0195698D03*
X0123847Y0185855D03*
X0123847Y0179950D03*
X0115973Y0179950D03*
X0115973Y0185855D03*
X0115973Y0195698D03*
X0115973Y0201603D03*
X0131721Y0201603D03*
X0131721Y0195698D03*
X0139595Y0195698D03*
X0139595Y0201603D03*
X0139595Y0185855D03*
X0139595Y0179950D03*
X0131721Y0179950D03*
X0131721Y0185855D03*
X0064792Y0246879D03*
X0064792Y0252784D03*
X0052981Y0252784D03*
X0052981Y0246879D03*
X0037233Y0246879D03*
X0037233Y0252784D03*
X0037233Y0237036D03*
X0037233Y0231131D03*
X0013611Y0231131D03*
X0013611Y0237036D03*
X0013611Y0246879D03*
X0013611Y0252784D03*
X0072666Y0067745D03*
X0072666Y0061839D03*
X0080540Y0061839D03*
X0080540Y0067745D03*
X0088414Y0067745D03*
X0088414Y0061839D03*
X0096288Y0061839D03*
X0096288Y0067745D03*
X0104162Y0067745D03*
X0104162Y0061839D03*
X0112036Y0061839D03*
X0112036Y0067745D03*
X0096288Y0024438D03*
X0096288Y0018532D03*
X0088414Y0018532D03*
X0088414Y0024438D03*
X0072666Y0020501D03*
X0072666Y0014595D03*
X0041170Y0016564D03*
X0041170Y0022469D03*
X0041170Y0028375D03*
X0041170Y0034280D03*
X0041170Y0040186D03*
X0037233Y0050028D03*
X0037233Y0055934D03*
X0033296Y0040186D03*
X0033296Y0034280D03*
X0033296Y0028375D03*
X0033296Y0022469D03*
X0041170Y0010658D03*
D14*
G36*
X0070956Y0089253D02*
X0074300Y0085909D01*
X0071234Y0082843D01*
X0067890Y0086187D01*
X0070956Y0089253D01*
G37*
G36*
X0066224Y0093985D02*
X0069568Y0090641D01*
X0066502Y0087575D01*
X0063158Y0090919D01*
X0066224Y0093985D01*
G37*
G36*
X0049883Y0129494D02*
X0046539Y0126150D01*
X0043473Y0129216D01*
X0046817Y0132560D01*
X0049883Y0129494D01*
G37*
G36*
X0054615Y0134227D02*
X0051271Y0130883D01*
X0048205Y0133949D01*
X0051549Y0137293D01*
X0054615Y0134227D01*
G37*
G36*
X0086187Y0150568D02*
X0082843Y0153912D01*
X0085909Y0156978D01*
X0089253Y0153634D01*
X0086187Y0150568D01*
G37*
G36*
X0090919Y0145835D02*
X0087575Y0149179D01*
X0090641Y0152245D01*
X0093985Y0148901D01*
X0090919Y0145835D01*
G37*
G36*
X0103324Y0106390D02*
X0106668Y0109734D01*
X0109734Y0106668D01*
X0106390Y0103324D01*
X0103324Y0106390D01*
G37*
G36*
X0098591Y0101657D02*
X0101935Y0105001D01*
X0105001Y0101935D01*
X0101657Y0098591D01*
X0098591Y0101657D01*
G37*
D15*
X0085540Y0183839D02*
X0085540Y0189839D01*
X0075540Y0189839D02*
X0075540Y0183839D01*
D16*
X0116898Y0152739D03*
X0122803Y0152739D03*
X0103178Y0035265D03*
X0097272Y0035265D03*
X0095304Y0009674D03*
X0089398Y0009674D03*
X0118926Y0012627D03*
X0118926Y0006229D03*
X0124831Y0006229D03*
X0124831Y0012627D03*
D17*
X0069911Y0033493D03*
X0069911Y0037233D03*
X0069911Y0040973D03*
X0059674Y0040973D03*
X0059674Y0033493D03*
X0059674Y0210658D03*
X0059674Y0214398D03*
X0059674Y0218139D03*
X0069911Y0218139D03*
X0069911Y0210658D03*
X0079359Y0210658D03*
X0079359Y0214398D03*
X0079359Y0218139D03*
X0089596Y0218139D03*
X0089596Y0210658D03*
X0099044Y0210658D03*
X0099044Y0214398D03*
X0099044Y0218139D03*
X0109281Y0218139D03*
X0109281Y0210658D03*
X0118729Y0210658D03*
X0118729Y0214398D03*
X0118729Y0218139D03*
X0128966Y0218139D03*
X0128966Y0210658D03*
D18*
X0134280Y0249831D03*
X0121288Y0249831D03*
X0039792Y0131721D03*
X0026800Y0131721D03*
X0077981Y0033296D03*
X0090973Y0033296D03*
D19*
X0133858Y0080540D03*
X0139595Y0074803D03*
X0139595Y0086277D03*
D20*
X0029359Y0231131D03*
X0029359Y0237036D03*
X0021485Y0237036D03*
X0021485Y0231131D03*
X0021485Y0246879D03*
X0021485Y0252784D03*
X0029359Y0252784D03*
X0029359Y0246879D03*
D21*
X0034674Y0186839D03*
X0037233Y0186839D03*
X0039792Y0186839D03*
X0039792Y0178965D03*
X0037233Y0178965D03*
X0034674Y0178965D03*
X0038611Y0147469D03*
X0041170Y0147469D03*
X0043729Y0147469D03*
X0043729Y0139595D03*
X0041170Y0139595D03*
X0038611Y0139595D03*
X0105540Y0163217D03*
X0108099Y0163217D03*
X0110658Y0163217D03*
X0110658Y0171091D03*
X0108099Y0171091D03*
X0105540Y0171091D03*
D22*
X0063316Y0017548D03*
X0050520Y0017548D03*
D23*
X0100422Y0041957D03*
X0104162Y0041957D03*
X0107902Y0041957D03*
X0107902Y0052194D03*
X0100422Y0052194D03*
D24*
X0104162Y0028178D03*
X0104162Y0020698D03*
X0104162Y0011150D03*
X0112036Y0007410D03*
X0112036Y0014891D03*
X0112036Y0024438D03*
D25*
X0012548Y0020343D03*
X0012548Y0030343D03*
X0012548Y0040343D03*
X0022548Y0040343D03*
X0022548Y0030343D03*
X0022548Y0020343D03*
X0023040Y0071524D03*
X0023040Y0081524D03*
X0023040Y0091524D03*
X0013040Y0091524D03*
X0013040Y0081524D03*
X0013040Y0071524D03*
X0078414Y0244831D03*
X0078414Y0254831D03*
X0088414Y0254831D03*
X0088414Y0244831D03*
X0098414Y0244831D03*
X0098414Y0254831D03*
D26*
X0017627Y0156524D03*
X0017627Y0153965D03*
X0017627Y0151406D03*
X0017627Y0148847D03*
X0017627Y0146288D03*
D27*
X0017627Y0138808D03*
X0017627Y0164005D03*
D28*
X0007095Y0164398D03*
X0007095Y0138414D03*
D29*
X0007095Y0146682D03*
X0007095Y0156131D03*
D30*
X0051603Y0056721D03*
X0051603Y0052981D03*
X0051603Y0049241D03*
X0062233Y0049241D03*
X0062233Y0056721D03*
D31*
X0077587Y0049044D03*
X0091367Y0049044D03*
D32*
X0037233Y0062135D03*
X0037233Y0075324D03*
M02*
