  0
SECTION
  2
HEADER
  9
$ACADVER
  1
AC1009
  9
$MEASUREMENT
 70
     1
  0
ENDSEC
  0
SECTION
  2
ENTITIES
  0
LWPOLYLINE
  8
0
 62
7
 90
5
 70
1
 10
12.000000
 20
16.600000
 10
11.600000
 20
16.600000
 10
11.600000
 20
15.700000
 10
12.400000
 20
15.700000
 10
12.400000
 20
16.600000
  0
LWPOLYLINE
  8
0
 62
7
 90
5
 70
1
 10
12.000000
 20
18.300000
 10
11.600000
 20
18.300000
 10
11.600000
 20
17.400000
 10
12.400000
 20
17.400000
 10
12.400000
 20
18.300000
  0
LWPOLYLINE
  8
0
 62
7
 90
5
 70
1
 10
12.000000
 20
13.400000
 10
12.400000
 20
13.400000
 10
12.400000
 20
14.300000
 10
11.600000
 20
14.300000
 10
11.600000
 20
13.400000
  0
LWPOLYLINE
  8
0
 62
7
 90
5
 70
1
 10
12.000000
 20
11.700000
 10
12.400000
 20
11.700000
 10
12.400000
 20
12.600000
 10
11.600000
 20
12.600000
 10
11.600000
 20
11.700000
  0
LWPOLYLINE
  8
0
 62
7
 90
5
 70
1
 10
14.000000
 20
13.400000
 10
14.400000
 20
13.400000
 10
14.400000
 20
14.300000
 10
13.600000
 20
14.300000
 10
13.600000
 20
13.400000
  0
LWPOLYLINE
  8
0
 62
7
 90
5
 70
1
 10
14.000000
 20
11.700000
 10
14.400000
 20
11.700000
 10
14.400000
 20
12.600000
 10
13.600000
 20
12.600000
 10
13.600000
 20
11.700000
  0
LWPOLYLINE
  8
0
 62
7
 90
5
 70
1
 10
29.000000
 20
55.400000
 10
29.400000
 20
55.400000
 10
29.400000
 20
56.300000
 10
28.600000
 20
56.300000
 10
28.600000
 20
55.400000
  0
LWPOLYLINE
  8
0
 62
7
 90
5
 70
1
 10
29.000000
 20
53.700000
 10
29.400000
 20
53.700000
 10
29.400000
 20
54.600000
 10
28.600000
 20
54.600000
 10
28.600000
 20
53.700000
  0
LWPOLYLINE
  8
0
 62
7
 90
5
 70
1
 10
23.000000
 20
55.400000
 10
23.400000
 20
55.400000
 10
23.400000
 20
56.300000
 10
22.600000
 20
56.300000
 10
22.600000
 20
55.400000
  0
LWPOLYLINE
  8
0
 62
7
 90
5
 70
1
 10
23.000000
 20
53.700000
 10
23.400000
 20
53.700000
 10
23.400000
 20
54.600000
 10
22.600000
 20
54.600000
 10
22.600000
 20
53.700000
  0
LWPOLYLINE
  8
0
 62
7
 90
5
 70
1
 10
35.000000
 20
51.400000
 10
35.400000
 20
51.400000
 10
35.400000
 20
52.300000
 10
34.600000
 20
52.300000
 10
34.600000
 20
51.400000
  0
LWPOLYLINE
  8
0
 62
7
 90
5
 70
1
 10
35.000000
 20
49.700000
 10
35.400000
 20
49.700000
 10
35.400000
 20
50.600000
 10
34.600000
 20
50.600000
 10
34.600000
 20
49.700000
  0
LWPOLYLINE
  8
0
 62
7
 90
5
 70
1
 10
17.000000
 20
55.400000
 10
17.400000
 20
55.400000
 10
17.400000
 20
56.300000
 10
16.600000
 20
56.300000
 10
16.600000
 20
55.400000
  0
LWPOLYLINE
  8
0
 62
7
 90
5
 70
1
 10
17.000000
 20
53.700000
 10
17.400000
 20
53.700000
 10
17.400000
 20
54.600000
 10
16.600000
 20
54.600000
 10
16.600000
 20
53.700000
  0
LWPOLYLINE
  8
0
 62
7
 90
5
 70
1
 10
20.000000
 20
12.600000
 10
19.600000
 20
12.600000
 10
19.600000
 20
11.700000
 10
20.400000
 20
11.700000
 10
20.400000
 20
12.600000
  0
LWPOLYLINE
  8
0
 62
7
 90
5
 70
1
 10
20.000000
 20
14.300000
 10
19.600000
 20
14.300000
 10
19.600000
 20
13.400000
 10
20.400000
 20
13.400000
 10
20.400000
 20
14.300000
  0
LWPOLYLINE
  8
0
 62
7
 90
5
 70
1
 10
27.000000
 20
20.600000
 10
26.600000
 20
20.600000
 10
26.600000
 20
19.700000
 10
27.400000
 20
19.700000
 10
27.400000
 20
20.600000
  0
LWPOLYLINE
  8
0
 62
7
 90
5
 70
1
 10
27.000000
 20
22.300000
 10
26.600000
 20
22.300000
 10
26.600000
 20
21.400000
 10
27.400000
 20
21.400000
 10
27.400000
 20
22.300000
  0
LWPOLYLINE
  8
0
 62
7
 90
5
 70
1
 10
17.282843
 20
21.717154
 10
17.000000
 20
21.434312
 10
17.636396
 20
20.797915
 10
18.202081
 20
21.363601
 10
17.565685
 20
21.999997
  0
LWPOLYLINE
  8
0
 62
7
 90
5
 70
1
 10
16.080758
 20
22.919239
 10
15.797915
 20
22.636396
 10
16.434312
 20
22.000000
 10
16.999997
 20
22.565685
 10
16.363601
 20
23.202081
  0
LWPOLYLINE
  8
0
 62
7
 90
5
 70
1
 10
11.717154
 20
32.717154
 10
11.434312
 20
32.999997
 10
10.797915
 20
32.363601
 10
11.363601
 20
31.797915
 10
11.999997
 20
32.434312
  0
LWPOLYLINE
  8
0
 62
7
 90
5
 70
1
 10
12.919239
 20
33.919239
 10
12.636396
 20
34.202081
 10
12.000000
 20
33.565685
 10
12.565685
 20
33.000000
 10
13.202081
 20
33.636396
  0
LWPOLYLINE
  8
0
 62
7
 90
5
 70
1
 10
26.282843
 20
26.282843
 10
26.565685
 20
26.000000
 10
27.202081
 20
26.636396
 10
26.636396
 20
27.202081
 10
26.000000
 20
26.565685
  0
LWPOLYLINE
  8
0
 62
7
 90
5
 70
1
 10
25.080758
 20
25.080758
 10
25.363601
 20
24.797915
 10
25.999997
 20
25.434312
 10
25.434312
 20
25.999997
 10
24.797915
 20
25.363601
  0
LWPOLYLINE
  8
0
 62
7
 90
5
 70
1
 10
21.717154
 20
38.282843
 10
21.999997
 20
38.565685
 10
21.363601
 20
39.202081
 10
20.797915
 20
38.636396
 10
21.434312
 20
38.000000
  0
LWPOLYLINE
  8
0
 62
7
 90
5
 70
1
 10
22.919239
 20
37.080758
 10
23.202081
 20
37.363601
 10
22.565685
 20
37.999997
 10
22.000000
 20
37.434312
 10
22.636396
 20
36.797915
  0
LWPOLYLINE
  8
0
 62
7
 90
5
 70
1
 10
12.000000
 20
9.400000
 10
12.400000
 20
9.400000
 10
12.400000
 20
10.300000
 10
11.600000
 20
10.300000
 10
11.600000
 20
9.400000
  0
LWPOLYLINE
  8
0
 62
7
 90
5
 70
1
 10
12.000000
 20
7.700000
 10
12.400000
 20
7.700000
 10
12.400000
 20
8.600000
 10
11.600000
 20
8.600000
 10
11.600000
 20
7.700000
  0
LWPOLYLINE
  8
0
 62
7
 90
5
 70
1
 10
18.600000
 20
3.000000
 10
18.600000
 20
3.400000
 10
17.700000
 20
3.400000
 10
17.700000
 20
2.600000
 10
18.600000
 20
2.600000
  0
LWPOLYLINE
  8
0
 62
7
 90
5
 70
1
 10
20.300000
 20
3.000000
 10
20.300000
 20
3.400000
 10
19.400000
 20
3.400000
 10
19.400000
 20
2.600000
 10
20.300000
 20
2.600000
  0
LWPOLYLINE
  8
0
 62
7
 90
5
 70
1
 10
10.000000
 20
4.600000
 10
9.600000
 20
4.600000
 10
9.600000
 20
3.700000
 10
10.400000
 20
3.700000
 10
10.400000
 20
4.600000
  0
LWPOLYLINE
  8
0
 62
7
 90
5
 70
1
 10
10.000000
 20
6.300000
 10
9.600000
 20
6.300000
 10
9.600000
 20
5.400000
 10
10.400000
 20
5.400000
 10
10.400000
 20
6.300000
  0
LWPOLYLINE
  8
0
 62
7
 90
5
 70
1
 10
35.000000
 20
59.400000
 10
35.400000
 20
59.400000
 10
35.400000
 20
60.300000
 10
34.600000
 20
60.300000
 10
34.600000
 20
59.400000
  0
LWPOLYLINE
  8
0
 62
7
 90
5
 70
1
 10
35.000000
 20
57.700000
 10
35.400000
 20
57.700000
 10
35.400000
 20
58.600000
 10
34.600000
 20
58.600000
 10
34.600000
 20
57.700000
  0
LWPOLYLINE
  8
0
 62
7
 90
5
 70
1
 10
22.000000
 20
59.400000
 10
22.400000
 20
59.400000
 10
22.400000
 20
60.300000
 10
21.600000
 20
60.300000
 10
21.600000
 20
59.400000
  0
LWPOLYLINE
  8
0
 62
7
 90
5
 70
1
 10
22.000000
 20
57.700000
 10
22.400000
 20
57.700000
 10
22.400000
 20
58.600000
 10
21.600000
 20
58.600000
 10
21.600000
 20
57.700000
  0
LWPOLYLINE
  8
0
 62
7
 90
5
 70
1
 10
29.000000
 20
59.400000
 10
29.400000
 20
59.400000
 10
29.400000
 20
60.300000
 10
28.600000
 20
60.300000
 10
28.600000
 20
59.400000
  0
LWPOLYLINE
  8
0
 62
7
 90
5
 70
1
 10
29.000000
 20
57.700000
 10
29.400000
 20
57.700000
 10
29.400000
 20
58.600000
 10
28.600000
 20
58.600000
 10
28.600000
 20
57.700000
  0
LWPOLYLINE
  8
0
 62
7
 90
5
 70
1
 10
16.000000
 20
59.400000
 10
16.400000
 20
59.400000
 10
16.400000
 20
60.300000
 10
15.600000
 20
60.300000
 10
15.600000
 20
59.400000
  0
LWPOLYLINE
  8
0
 62
7
 90
5
 70
1
 10
16.000000
 20
57.700000
 10
16.400000
 20
57.700000
 10
16.400000
 20
58.600000
 10
15.600000
 20
58.600000
 10
15.600000
 20
57.700000
  0
LWPOLYLINE
  8
0
 62
7
 90
5
 70
1
 10
28.250000
 20
14.400000
 10
28.650000
 20
14.400000
 10
28.650000
 20
15.300000
 10
27.850000
 20
15.300000
 10
27.850000
 20
14.400000
  0
LWPOLYLINE
  8
0
 62
7
 90
5
 70
1
 10
28.250000
 20
12.700000
 10
28.650000
 20
12.700000
 10
28.650000
 20
13.600000
 10
27.850000
 20
13.600000
 10
27.850000
 20
12.700000
  0
LWPOLYLINE
  8
0
 62
7
 90
5
 70
1
 10
17.600000
 20
40.500000
 10
17.600000
 20
40.900000
 10
16.700000
 20
40.900000
 10
16.700000
 20
40.100000
 10
17.600000
 20
40.100000
  0
LWPOLYLINE
  8
0
 62
7
 90
5
 70
1
 10
19.300000
 20
40.500000
 10
19.300000
 20
40.900000
 10
18.400000
 20
40.900000
 10
18.400000
 20
40.100000
 10
19.300000
 20
40.100000
  0
LWPOLYLINE
  8
0
 62
7
 90
5
 70
1
 10
10.200000
 20
14.250000
 10
10.200000
 20
14.550000
 10
9.800000
 20
14.550000
 10
9.800000
 20
13.950000
 10
10.200000
 20
13.950000
  0
LWPOLYLINE
  8
0
 62
7
 90
5
 70
1
 10
10.200000
 20
11.750000
 10
10.200000
 20
12.050000
 10
9.800000
 20
12.050000
 10
9.800000
 20
11.450000
 10
10.200000
 20
11.450000
  0
LWPOLYLINE
  8
0
 62
7
 90
5
 70
1
 10
8.800000
 20
15.750000
 10
8.800000
 20
15.450000
 10
9.200000
 20
15.450000
 10
9.200000
 20
16.050000
 10
8.800000
 20
16.050000
  0
LWPOLYLINE
  8
0
 62
7
 90
5
 70
1
 10
8.800000
 20
18.250000
 10
8.800000
 20
17.950000
 10
9.200000
 20
17.950000
 10
9.200000
 20
18.550000
 10
8.800000
 20
18.550000
  0
LWPOLYLINE
  8
0
 62
7
 90
5
 70
1
 10
20.573400
 20
42.420200
 10
19.657400
 20
42.420200
 10
19.657400
 20
41.959800
 10
21.489400
 20
41.959800
 10
21.489400
 20
42.420200
  0
LWPOLYLINE
  8
0
 62
7
 90
5
 70
1
 10
20.573400
 20
43.690200
 10
19.657400
 20
43.690200
 10
19.657400
 20
43.229800
 10
21.489400
 20
43.229800
 10
21.489400
 20
43.690200
  0
LWPOLYLINE
  8
0
 62
7
 90
5
 70
1
 10
20.573400
 20
44.960200
 10
19.657400
 20
44.960200
 10
19.657400
 20
44.499800
 10
21.489400
 20
44.499800
 10
21.489400
 20
44.960200
  0
LWPOLYLINE
  8
0
 62
7
 90
5
 70
1
 10
20.573400
 20
46.230200
 10
19.657400
 20
46.230200
 10
19.657400
 20
45.769800
 10
21.489400
 20
45.769800
 10
21.489400
 20
46.230200
  0
LWPOLYLINE
  8
0
 62
7
 90
5
 70
1
 10
20.573400
 20
47.500200
 10
19.657400
 20
47.500200
 10
19.657400
 20
47.039800
 10
21.489400
 20
47.039800
 10
21.489400
 20
47.500200
  0
LWPOLYLINE
  8
0
 62
7
 90
5
 70
1
 10
20.573400
 20
48.770200
 10
19.657400
 20
48.770200
 10
19.657400
 20
48.309800
 10
21.489400
 20
48.309800
 10
21.489400
 20
48.770200
  0
LWPOLYLINE
  8
0
 62
7
 90
5
 70
1
 10
20.573400
 20
50.040200
 10
19.657400
 20
50.040200
 10
19.657400
 20
49.579800
 10
21.489400
 20
49.579800
 10
21.489400
 20
50.040200
  0
LWPOLYLINE
  8
0
 62
7
 90
5
 70
1
 10
14.426600
 20
50.040200
 10
13.510600
 20
50.040200
 10
13.510600
 20
49.579800
 10
15.342600
 20
49.579800
 10
15.342600
 20
50.040200
  0
LWPOLYLINE
  8
0
 62
7
 90
5
 70
1
 10
14.426600
 20
48.770200
 10
13.510600
 20
48.770200
 10
13.510600
 20
48.309800
 10
15.342600
 20
48.309800
 10
15.342600
 20
48.770200
  0
LWPOLYLINE
  8
0
 62
7
 90
5
 70
1
 10
14.426600
 20
47.500200
 10
13.510600
 20
47.500200
 10
13.510600
 20
47.039800
 10
15.342600
 20
47.039800
 10
15.342600
 20
47.500200
  0
LWPOLYLINE
  8
0
 62
7
 90
5
 70
1
 10
14.426600
 20
46.230200
 10
13.510600
 20
46.230200
 10
13.510600
 20
45.769800
 10
15.342600
 20
45.769800
 10
15.342600
 20
46.230200
  0
LWPOLYLINE
  8
0
 62
7
 90
5
 70
1
 10
14.426600
 20
44.960200
 10
13.510600
 20
44.960200
 10
13.510600
 20
44.499800
 10
15.342600
 20
44.499800
 10
15.342600
 20
44.960200
  0
LWPOLYLINE
  8
0
 62
7
 90
5
 70
1
 10
14.426600
 20
43.690200
 10
13.510600
 20
43.690200
 10
13.510600
 20
43.229800
 10
15.342600
 20
43.229800
 10
15.342600
 20
43.690200
  0
LWPOLYLINE
  8
0
 62
7
 90
5
 70
1
 10
14.426600
 20
42.420200
 10
13.510600
 20
42.420200
 10
13.510600
 20
41.959800
 10
15.342600
 20
41.959800
 10
15.342600
 20
42.420200
  0
LWPOLYLINE
  8
0
 62
7
 90
5
 70
1
 10
7.400000
 20
45.000000
 10
7.400000
 20
44.600000
 10
8.300000
 20
44.600000
 10
8.300000
 20
45.400000
 10
7.400000
 20
45.400000
  0
LWPOLYLINE
  8
0
 62
7
 90
5
 70
1
 10
5.700000
 20
45.000000
 10
5.700000
 20
44.600000
 10
6.600000
 20
44.600000
 10
6.600000
 20
45.400000
 10
5.700000
 20
45.400000
  0
LWPOLYLINE
  8
0
 62
7
 90
5
 70
1
 10
6.700000
 20
59.750000
 10
6.700000
 20
59.450000
 10
7.300000
 20
59.450000
 10
7.300000
 20
60.050000
 10
6.700000
 20
60.050000
  0
LWPOLYLINE
  8
0
 62
7
 90
5
 70
1
 10
6.700000
 20
58.250000
 10
6.700000
 20
57.950000
 10
7.300000
 20
57.950000
 10
7.300000
 20
58.550000
 10
6.700000
 20
58.550000
  0
LWPOLYLINE
  8
0
 62
7
 90
5
 70
1
 10
4.700000
 20
59.750000
 10
4.700000
 20
59.450000
 10
5.300000
 20
59.450000
 10
5.300000
 20
60.050000
 10
4.700000
 20
60.050000
  0
LWPOLYLINE
  8
0
 62
7
 90
5
 70
1
 10
4.700000
 20
58.250000
 10
4.700000
 20
57.950000
 10
5.300000
 20
57.950000
 10
5.300000
 20
58.550000
 10
4.700000
 20
58.550000
  0
LWPOLYLINE
  8
0
 62
7
 90
5
 70
1
 10
6.700000
 20
63.750000
 10
6.700000
 20
63.450000
 10
7.300000
 20
63.450000
 10
7.300000
 20
64.050000
 10
6.700000
 20
64.050000
  0
LWPOLYLINE
  8
0
 62
7
 90
5
 70
1
 10
6.700000
 20
62.250000
 10
6.700000
 20
61.950000
 10
7.300000
 20
61.950000
 10
7.300000
 20
62.550000
 10
6.700000
 20
62.550000
  0
LWPOLYLINE
  8
0
 62
7
 90
5
 70
1
 10
4.700000
 20
63.750000
 10
4.700000
 20
63.450000
 10
5.300000
 20
63.450000
 10
5.300000
 20
64.050000
 10
4.700000
 20
64.050000
  0
LWPOLYLINE
  8
0
 62
7
 90
5
 70
1
 10
4.700000
 20
62.250000
 10
4.700000
 20
61.950000
 10
5.300000
 20
61.950000
 10
5.300000
 20
62.550000
 10
4.700000
 20
62.550000
  0
LWPOLYLINE
  8
0
 62
7
 90
5
 70
1
 10
28.580000
 20
10.310000
 10
28.580000
 20
8.910000
 10
29.980000
 20
8.910000
 10
29.980000
 20
11.710000
 10
28.580000
 20
11.710000
  0
LWPOLYLINE
  8
0
 62
7
 90
5
 70
1
 10
24.020000
 20
10.310000
 10
24.020000
 20
8.910000
 10
25.420000
 20
8.910000
 10
25.420000
 20
11.710000
 10
24.020000
 20
11.710000
  0
LWPOLYLINE
  8
0
 62
7
 90
5
 70
1
 10
24.687000
 20
3.412000
 10
24.687000
 20
0.654500
 10
29.313000
 20
0.654500
 10
29.313000
 20
6.169500
 10
24.687000
 20
6.169500
  0
LWPOLYLINE
  8
0
 62
7
 90
5
 70
1
 10
4.434834
 20
3.338388
 10
4.434834
 20
2.888387
 10
5.234834
 20
2.888387
 10
5.234834
 20
3.788388
 10
4.434834
 20
3.788388
  0
LWPOLYLINE
  8
0
 62
7
 90
5
 70
1
 10
2.734834
 20
3.338388
 10
2.734834
 20
2.888387
 10
3.534834
 20
2.888387
 10
3.534834
 20
3.788388
 10
2.734834
 20
3.788388
  0
LWPOLYLINE
  8
0
 62
7
 90
5
 70
1
 10
3.000000
 20
59.450000
 10
3.450000
 20
59.450000
 10
3.450000
 20
60.250000
 10
2.550000
 20
60.250000
 10
2.550000
 20
59.450000
  0
LWPOLYLINE
  8
0
 62
7
 90
5
 70
1
 10
3.000000
 20
57.750000
 10
3.450000
 20
57.750000
 10
3.450000
 20
58.550000
 10
2.550000
 20
58.550000
 10
2.550000
 20
57.750000
  0
LWPOLYLINE
  8
0
 62
7
 90
5
 70
1
 10
9.000000
 20
59.450000
 10
9.450000
 20
59.450000
 10
9.450000
 20
60.250000
 10
8.550000
 20
60.250000
 10
8.550000
 20
59.450000
  0
LWPOLYLINE
  8
0
 62
7
 90
5
 70
1
 10
9.000000
 20
57.750000
 10
9.450000
 20
57.750000
 10
9.450000
 20
58.550000
 10
8.550000
 20
58.550000
 10
8.550000
 20
57.750000
  0
LWPOLYLINE
  8
0
 62
7
 90
5
 70
1
 10
7.450000
 20
43.000000
 10
7.450000
 20
42.550000
 10
8.250000
 20
42.550000
 10
8.250000
 20
43.450000
 10
7.450000
 20
43.450000
  0
LWPOLYLINE
  8
0
 62
7
 90
5
 70
1
 10
5.750000
 20
43.000000
 10
5.750000
 20
42.550000
 10
6.550000
 20
42.550000
 10
6.550000
 20
43.450000
 10
5.750000
 20
43.450000
  0
LWPOLYLINE
  8
0
 62
7
 90
5
 70
1
 10
27.000000
 20
54.550000
 10
26.550000
 20
54.550000
 10
26.550000
 20
53.750000
 10
27.450000
 20
53.750000
 10
27.450000
 20
54.550000
  0
LWPOLYLINE
  8
0
 62
7
 90
5
 70
1
 10
27.000000
 20
56.250000
 10
26.550000
 20
56.250000
 10
26.550000
 20
55.450000
 10
27.450000
 20
55.450000
 10
27.450000
 20
56.250000
  0
LWPOLYLINE
  8
0
 62
7
 90
5
 70
1
 10
25.000000
 20
54.550000
 10
24.550000
 20
54.550000
 10
24.550000
 20
53.750000
 10
25.450000
 20
53.750000
 10
25.450000
 20
54.550000
  0
LWPOLYLINE
  8
0
 62
7
 90
5
 70
1
 10
25.000000
 20
56.250000
 10
24.550000
 20
56.250000
 10
24.550000
 20
55.450000
 10
25.450000
 20
55.450000
 10
25.450000
 20
56.250000
  0
LWPOLYLINE
  8
0
 62
7
 90
5
 70
1
 10
21.000000
 20
54.550000
 10
20.550000
 20
54.550000
 10
20.550000
 20
53.750000
 10
21.450000
 20
53.750000
 10
21.450000
 20
54.550000
  0
LWPOLYLINE
  8
0
 62
7
 90
5
 70
1
 10
21.000000
 20
56.250000
 10
20.550000
 20
56.250000
 10
20.550000
 20
55.450000
 10
21.450000
 20
55.450000
 10
21.450000
 20
56.250000
  0
LWPOLYLINE
  8
0
 62
7
 90
5
 70
1
 10
19.000000
 20
54.550000
 10
18.550000
 20
54.550000
 10
18.550000
 20
53.750000
 10
19.450000
 20
53.750000
 10
19.450000
 20
54.550000
  0
LWPOLYLINE
  8
0
 62
7
 90
5
 70
1
 10
19.000000
 20
56.250000
 10
18.550000
 20
56.250000
 10
18.550000
 20
55.450000
 10
19.450000
 20
55.450000
 10
19.450000
 20
56.250000
  0
LWPOLYLINE
  8
0
 62
7
 90
5
 70
1
 10
33.000000
 20
50.550000
 10
32.550000
 20
50.550000
 10
32.550000
 20
49.750000
 10
33.450000
 20
49.750000
 10
33.450000
 20
50.550000
  0
LWPOLYLINE
  8
0
 62
7
 90
5
 70
1
 10
33.000000
 20
52.250000
 10
32.550000
 20
52.250000
 10
32.550000
 20
51.450000
 10
33.450000
 20
51.450000
 10
33.450000
 20
52.250000
  0
LWPOLYLINE
  8
0
 62
7
 90
5
 70
1
 10
31.000000
 20
50.550000
 10
30.550000
 20
50.550000
 10
30.550000
 20
49.750000
 10
31.450000
 20
49.750000
 10
31.450000
 20
50.550000
  0
LWPOLYLINE
  8
0
 62
7
 90
5
 70
1
 10
31.000000
 20
52.250000
 10
30.550000
 20
52.250000
 10
30.550000
 20
51.450000
 10
31.450000
 20
51.450000
 10
31.450000
 20
52.250000
  0
LWPOLYLINE
  8
0
 62
7
 90
5
 70
1
 10
15.000000
 20
54.550000
 10
14.550000
 20
54.550000
 10
14.550000
 20
53.750000
 10
15.450000
 20
53.750000
 10
15.450000
 20
54.550000
  0
LWPOLYLINE
  8
0
 62
7
 90
5
 70
1
 10
15.000000
 20
56.250000
 10
14.550000
 20
56.250000
 10
14.550000
 20
55.450000
 10
15.450000
 20
55.450000
 10
15.450000
 20
56.250000
  0
LWPOLYLINE
  8
0
 62
7
 90
5
 70
1
 10
13.000000
 20
54.550000
 10
12.550000
 20
54.550000
 10
12.550000
 20
53.750000
 10
13.450000
 20
53.750000
 10
13.450000
 20
54.550000
  0
LWPOLYLINE
  8
0
 62
7
 90
5
 70
1
 10
13.000000
 20
56.250000
 10
12.550000
 20
56.250000
 10
12.550000
 20
55.450000
 10
13.450000
 20
55.450000
 10
13.450000
 20
56.250000
  0
LWPOLYLINE
  8
0
 62
7
 90
5
 70
1
 10
28.000000
 20
18.450000
 10
28.450000
 20
18.450000
 10
28.450000
 20
19.250000
 10
27.550000
 20
19.250000
 10
27.550000
 20
18.450000
  0
LWPOLYLINE
  8
0
 62
7
 90
5
 70
1
 10
28.000000
 20
16.750000
 10
28.450000
 20
16.750000
 10
28.450000
 20
17.550000
 10
27.550000
 20
17.550000
 10
27.550000
 20
16.750000
  0
LWPOLYLINE
  8
0
 62
7
 90
5
 70
1
 10
22.000000
 20
13.450000
 10
22.450000
 20
13.450000
 10
22.450000
 20
14.250000
 10
21.550000
 20
14.250000
 10
21.550000
 20
13.450000
  0
LWPOLYLINE
  8
0
 62
7
 90
5
 70
1
 10
22.000000
 20
11.750000
 10
22.450000
 20
11.750000
 10
22.450000
 20
12.550000
 10
21.550000
 20
12.550000
 10
21.550000
 20
11.750000
  0
LWPOLYLINE
  8
0
 62
7
 90
5
 70
1
 10
30.250000
 20
14.450000
 10
30.700000
 20
14.450000
 10
30.700000
 20
15.250000
 10
29.800000
 20
15.250000
 10
29.800000
 20
14.450000
  0
LWPOLYLINE
  8
0
 62
7
 90
5
 70
1
 10
30.250000
 20
12.750000
 10
30.700000
 20
12.750000
 10
30.700000
 20
13.550000
 10
29.800000
 20
13.550000
 10
29.800000
 20
12.750000
  0
LWPOLYLINE
  8
0
 62
7
 90
5
 70
1
 10
23.000000
 20
20.550000
 10
22.550000
 20
20.550000
 10
22.550000
 20
19.750000
 10
23.450000
 20
19.750000
 10
23.450000
 20
20.550000
  0
LWPOLYLINE
  8
0
 62
7
 90
5
 70
1
 10
23.000000
 20
22.250000
 10
22.550000
 20
22.250000
 10
22.550000
 20
21.450000
 10
23.450000
 20
21.450000
 10
23.450000
 20
22.250000
  0
LWPOLYLINE
  8
0
 62
7
 90
5
 70
1
 10
18.550000
 20
5.000000
 10
18.550000
 20
5.450000
 10
17.750000
 20
5.450000
 10
17.750000
 20
4.550000
 10
18.550000
 20
4.550000
  0
LWPOLYLINE
  8
0
 62
7
 90
5
 70
1
 10
20.250000
 20
5.000000
 10
20.250000
 20
5.450000
 10
19.450000
 20
5.450000
 10
19.450000
 20
4.550000
 10
20.250000
 20
4.550000
  0
LWPOLYLINE
  8
0
 62
7
 90
5
 70
1
 10
10.000000
 20
8.550000
 10
9.550000
 20
8.550000
 10
9.550000
 20
7.750000
 10
10.450000
 20
7.750000
 10
10.450000
 20
8.550000
  0
LWPOLYLINE
  8
0
 62
7
 90
5
 70
1
 10
10.000000
 20
10.250000
 10
9.550000
 20
10.250000
 10
9.550000
 20
9.450000
 10
10.450000
 20
9.450000
 10
10.450000
 20
10.250000
  0
LWPOLYLINE
  8
0
 62
7
 90
5
 70
1
 10
8.000000
 20
8.550000
 10
7.550000
 20
8.550000
 10
7.550000
 20
7.750000
 10
8.450000
 20
7.750000
 10
8.450000
 20
8.550000
  0
LWPOLYLINE
  8
0
 62
7
 90
5
 70
1
 10
8.000000
 20
10.250000
 10
7.550000
 20
10.250000
 10
7.550000
 20
9.450000
 10
8.450000
 20
9.450000
 10
8.450000
 20
10.250000
  0
LWPOLYLINE
  8
0
 62
7
 90
5
 70
1
 10
9.000000
 20
63.450000
 10
9.450000
 20
63.450000
 10
9.450000
 20
64.250000
 10
8.550000
 20
64.250000
 10
8.550000
 20
63.450000
  0
LWPOLYLINE
  8
0
 62
7
 90
5
 70
1
 10
9.000000
 20
61.750000
 10
9.450000
 20
61.750000
 10
9.450000
 20
62.550000
 10
8.550000
 20
62.550000
 10
8.550000
 20
61.750000
  0
LWPOLYLINE
  8
0
 62
7
 90
5
 70
1
 10
3.000000
 20
63.450000
 10
3.450000
 20
63.450000
 10
3.450000
 20
64.250000
 10
2.550000
 20
64.250000
 10
2.550000
 20
63.450000
  0
LWPOLYLINE
  8
0
 62
7
 90
5
 70
1
 10
3.000000
 20
61.750000
 10
3.450000
 20
61.750000
 10
3.450000
 20
62.550000
 10
2.550000
 20
62.550000
 10
2.550000
 20
61.750000
  0
LWPOLYLINE
  8
0
 62
7
 90
5
 70
1
 10
29.000000
 20
43.550000
 10
28.550000
 20
43.550000
 10
28.550000
 20
42.750000
 10
29.450000
 20
42.750000
 10
29.450000
 20
43.550000
  0
LWPOLYLINE
  8
0
 62
7
 90
5
 70
1
 10
29.000000
 20
45.250000
 10
28.550000
 20
45.250000
 10
28.550000
 20
44.450000
 10
29.450000
 20
44.450000
 10
29.450000
 20
45.250000
  0
LWPOLYLINE
  8
0
 62
7
 90
5
 70
1
 10
31.000000
 20
44.450000
 10
31.450000
 20
44.450000
 10
31.450000
 20
45.250000
 10
30.550000
 20
45.250000
 10
30.550000
 20
44.450000
  0
LWPOLYLINE
  8
0
 62
7
 90
5
 70
1
 10
31.000000
 20
42.750000
 10
31.450000
 20
42.750000
 10
31.450000
 20
43.550000
 10
30.550000
 20
43.550000
 10
30.550000
 20
42.750000
  0
LWPOLYLINE
  8
0
 62
7
 90
5
 70
1
 10
29.000000
 20
39.450000
 10
29.450000
 20
39.450000
 10
29.450000
 20
40.250000
 10
28.550000
 20
40.250000
 10
28.550000
 20
39.450000
  0
LWPOLYLINE
  8
0
 62
7
 90
5
 70
1
 10
29.000000
 20
37.750000
 10
29.450000
 20
37.750000
 10
29.450000
 20
38.550000
 10
28.550000
 20
38.550000
 10
28.550000
 20
37.750000
  0
LWPOLYLINE
  8
0
 62
7
 90
5
 70
1
 10
25.000000
 20
21.450000
 10
25.450000
 20
21.450000
 10
25.450000
 20
22.250000
 10
24.550000
 20
22.250000
 10
24.550000
 20
21.450000
  0
LWPOLYLINE
  8
0
 62
7
 90
5
 70
1
 10
25.000000
 20
19.750000
 10
25.450000
 20
19.750000
 10
25.450000
 20
20.550000
 10
24.550000
 20
20.550000
 10
24.550000
 20
19.750000
  0
LWPOLYLINE
  8
0
 62
7
 90
5
 70
1
 10
31.000000
 20
38.550000
 10
30.550000
 20
38.550000
 10
30.550000
 20
37.750000
 10
31.450000
 20
37.750000
 10
31.450000
 20
38.550000
  0
LWPOLYLINE
  8
0
 62
7
 90
5
 70
1
 10
31.000000
 20
40.250000
 10
30.550000
 20
40.250000
 10
30.550000
 20
39.450000
 10
31.450000
 20
39.450000
 10
31.450000
 20
40.250000
  0
LWPOLYLINE
  8
0
 62
7
 90
5
 70
1
 10
33.000000
 20
43.550000
 10
32.550000
 20
43.550000
 10
32.550000
 20
42.750000
 10
33.450000
 20
42.750000
 10
33.450000
 20
43.550000
  0
LWPOLYLINE
  8
0
 62
7
 90
5
 70
1
 10
33.000000
 20
45.250000
 10
32.550000
 20
45.250000
 10
32.550000
 20
44.450000
 10
33.450000
 20
44.450000
 10
33.450000
 20
45.250000
  0
LWPOLYLINE
  8
0
 62
7
 90
5
 70
1
 10
35.000000
 20
44.450000
 10
35.450000
 20
44.450000
 10
35.450000
 20
45.250000
 10
34.550000
 20
45.250000
 10
34.550000
 20
44.450000
  0
LWPOLYLINE
  8
0
 62
7
 90
5
 70
1
 10
35.000000
 20
42.750000
 10
35.450000
 20
42.750000
 10
35.450000
 20
43.550000
 10
34.550000
 20
43.550000
 10
34.550000
 20
42.750000
  0
LWPOLYLINE
  8
0
 62
7
 90
5
 70
1
 10
33.000000
 20
39.450000
 10
33.450000
 20
39.450000
 10
33.450000
 20
40.250000
 10
32.550000
 20
40.250000
 10
32.550000
 20
39.450000
  0
LWPOLYLINE
  8
0
 62
7
 90
5
 70
1
 10
33.000000
 20
37.750000
 10
33.450000
 20
37.750000
 10
33.450000
 20
38.550000
 10
32.550000
 20
38.550000
 10
32.550000
 20
37.750000
  0
LWPOLYLINE
  8
0
 62
7
 90
5
 70
1
 10
35.000000
 20
38.550000
 10
34.550000
 20
38.550000
 10
34.550000
 20
37.750000
 10
35.450000
 20
37.750000
 10
35.450000
 20
38.550000
  0
LWPOLYLINE
  8
0
 62
7
 90
5
 70
1
 10
35.000000
 20
40.250000
 10
34.550000
 20
40.250000
 10
34.550000
 20
39.450000
 10
35.450000
 20
39.450000
 10
35.450000
 20
40.250000
  0
LWPOLYLINE
  8
0
 62
7
 90
5
 70
1
 10
15.850000
 20
13.750000
 10
16.350000
 20
13.750000
 10
16.350000
 20
14.150000
 10
15.350000
 20
14.150000
 10
15.350000
 20
13.750000
  0
LWPOLYLINE
  8
0
 62
7
 90
5
 70
1
 10
18.150000
 20
12.800000
 10
18.650000
 20
12.800000
 10
18.650000
 20
13.200000
 10
17.650000
 20
13.200000
 10
17.650000
 20
12.800000
  0
LWPOLYLINE
  8
0
 62
7
 90
5
 70
1
 10
18.150000
 20
11.850000
 10
18.650000
 20
11.850000
 10
18.650000
 20
12.250000
 10
17.650000
 20
12.250000
 10
17.650000
 20
11.850000
  0
LWPOLYLINE
  8
0
 62
7
 90
5
 70
1
 10
18.150000
 20
13.750000
 10
18.650000
 20
13.750000
 10
18.650000
 20
14.150000
 10
17.650000
 20
14.150000
 10
17.650000
 20
13.750000
  0
LWPOLYLINE
  8
0
 62
7
 90
5
 70
1
 10
15.850000
 20
11.850000
 10
16.350000
 20
11.850000
 10
16.350000
 20
12.250000
 10
15.350000
 20
12.250000
 10
15.350000
 20
11.850000
  0
LWPOLYLINE
  8
0
 62
7
 90
5
 70
1
 10
20.636393
 20
25.787865
 10
20.282839
 20
26.141418
 10
20.212129
 20
26.070707
 10
20.919236
 20
25.363601
 10
20.989946
 20
25.434311
  0
LWPOLYLINE
  8
0
 62
7
 90
5
 70
1
 10
20.989946
 20
26.141418
 10
20.636393
 20
26.494971
 10
20.565682
 20
26.424261
 10
21.272789
 20
25.717154
 10
21.343499
 20
25.787864
  0
LWPOLYLINE
  8
0
 62
7
 90
5
 70
1
 10
21.343499
 20
26.494971
 10
20.989946
 20
26.848524
 10
20.919235
 20
26.777814
 10
21.626342
 20
26.070707
 10
21.697052
 20
26.141418
  0
LWPOLYLINE
  8
0
 62
7
 90
5
 70
1
 10
21.697052
 20
26.848524
 10
21.343499
 20
27.202077
 10
21.272788
 20
27.131367
 10
21.979895
 20
26.424260
 10
22.050606
 20
26.494971
  0
LWPOLYLINE
  8
0
 62
7
 90
5
 70
1
 10
22.050605
 20
27.202077
 10
21.697052
 20
27.555631
 10
21.626341
 20
27.484920
 10
22.333448
 20
26.777813
 10
22.404159
 20
26.848524
  0
LWPOLYLINE
  8
0
 62
7
 90
5
 70
1
 10
22.404158
 20
27.555630
 10
22.050605
 20
27.909184
 10
21.979894
 20
27.838473
 10
22.687001
 20
27.131366
 10
22.757712
 20
27.202077
  0
LWPOLYLINE
  8
0
 62
7
 90
5
 70
1
 10
22.757715
 20
27.909187
 10
22.404161
 20
28.262740
 10
22.333451
 20
28.192029
 10
23.040557
 20
27.484923
 10
23.111268
 20
27.555633
  0
LWPOLYLINE
  8
0
 62
7
 90
5
 70
1
 10
23.111268
 20
28.262740
 10
22.757714
 20
28.616293
 10
22.687004
 20
28.545582
 10
23.394111
 20
27.838476
 10
23.464821
 20
27.909186
  0
LWPOLYLINE
  8
0
 62
7
 90
5
 70
1
 10
23.464821
 20
28.616293
 10
23.111268
 20
28.969846
 10
23.040557
 20
28.899136
 10
23.747664
 20
28.192029
 10
23.818374
 20
28.262739
  0
LWPOLYLINE
  8
0
 62
7
 90
5
 70
1
 10
23.818374
 20
28.969846
 10
23.464821
 20
29.323399
 10
23.394110
 20
29.252689
 10
24.101217
 20
28.545582
 10
24.171927
 20
28.616293
  0
LWPOLYLINE
  8
0
 62
7
 90
5
 70
1
 10
24.171927
 20
29.323399
 10
23.818374
 20
29.676952
 10
23.747663
 20
29.606242
 10
24.454770
 20
28.899135
 10
24.525481
 20
28.969846
  0
LWPOLYLINE
  8
0
 62
7
 90
5
 70
1
 10
24.525480
 20
29.676952
 10
24.171927
 20
30.030506
 10
24.101216
 20
29.959795
 10
24.808323
 20
29.252688
 10
24.879034
 20
29.323399
  0
LWPOLYLINE
  8
0
 62
7
 90
5
 70
1
 10
24.454770
 20
31.798271
 10
24.101216
 20
31.444718
 10
24.171927
 20
31.374007
 10
24.879034
 20
32.081114
 10
24.808323
 20
32.151824
  0
LWPOLYLINE
  8
0
 62
7
 90
5
 70
1
 10
24.101217
 20
32.151827
 10
23.747663
 20
31.798274
 10
23.818374
 20
31.727563
 10
24.525481
 20
32.434670
 10
24.454770
 20
32.505381
  0
LWPOLYLINE
  8
0
 62
7
 90
5
 70
1
 10
23.747663
 20
32.505380
 10
23.394110
 20
32.151827
 10
23.464821
 20
32.081116
 10
24.171927
 20
32.788223
 10
24.101217
 20
32.858934
  0
LWPOLYLINE
  8
0
 62
7
 90
5
 70
1
 10
23.394110
 20
32.858933
 10
23.040557
 20
32.505380
 10
23.111268
 20
32.434669
 10
23.818374
 20
33.141776
 10
23.747664
 20
33.212487
  0
LWPOLYLINE
  8
0
 62
7
 90
5
 70
1
 10
23.040557
 20
33.212487
 10
22.687004
 20
32.858933
 10
22.757714
 20
32.788223
 10
23.464821
 20
33.495329
 10
23.394111
 20
33.566040
  0
LWPOLYLINE
  8
0
 62
7
 90
5
 70
1
 10
22.687004
 20
33.566040
 10
22.333451
 20
33.212486
 10
22.404161
 20
33.141776
 10
23.111268
 20
33.848882
 10
23.040557
 20
33.919593
  0
LWPOLYLINE
  8
0
 62
7
 90
5
 70
1
 10
22.333448
 20
33.919593
 10
21.979894
 20
33.566039
 10
22.050605
 20
33.495329
 10
22.757712
 20
34.202436
 10
22.687001
 20
34.273146
  0
LWPOLYLINE
  8
0
 62
7
 90
5
 70
1
 10
21.979895
 20
34.273146
 10
21.626341
 20
33.919593
 10
21.697052
 20
33.848882
 10
22.404159
 20
34.555989
 10
22.333448
 20
34.626699
  0
LWPOLYLINE
  8
0
 62
7
 90
5
 70
1
 10
21.626342
 20
34.626699
 10
21.272788
 20
34.273146
 10
21.343499
 20
34.202435
 10
22.050606
 20
34.909542
 10
21.979895
 20
34.980252
  0
LWPOLYLINE
  8
0
 62
7
 90
5
 70
1
 10
21.272788
 20
34.980252
 10
20.919235
 20
34.626699
 10
20.989946
 20
34.555988
 10
21.697052
 20
35.263095
 10
21.626342
 20
35.333806
  0
LWPOLYLINE
  8
0
 62
7
 90
5
 70
1
 10
20.919235
 20
35.333805
 10
20.565682
 20
34.980252
 10
20.636393
 20
34.909541
 10
21.343499
 20
35.616648
 10
21.272789
 20
35.687359
  0
LWPOLYLINE
  8
0
 62
7
 90
5
 70
1
 10
20.565682
 20
35.687358
 10
20.212129
 20
35.333805
 10
20.282839
 20
35.263094
 10
20.989946
 20
35.970201
 10
20.919236
 20
36.040912
  0
LWPOLYLINE
  8
0
 62
7
 90
5
 70
1
 10
18.515074
 20
35.687358
 10
18.161521
 20
36.040912
 10
18.090810
 20
35.970201
 10
18.797917
 20
35.263094
 10
18.868627
 20
35.333805
  0
LWPOLYLINE
  8
0
 62
7
 90
5
 70
1
 10
18.161518
 20
35.333805
 10
17.807964
 20
35.687359
 10
17.737254
 20
35.616648
 10
18.444361
 20
34.909541
 10
18.515071
 20
34.980252
  0
LWPOLYLINE
  8
0
 62
7
 90
5
 70
1
 10
17.807965
 20
34.980252
 10
17.454411
 20
35.333806
 10
17.383701
 20
35.263095
 10
18.090807
 20
34.555988
 10
18.161518
 20
34.626699
  0
LWPOLYLINE
  8
0
 62
7
 90
5
 70
1
 10
17.454412
 20
34.626699
 10
17.100858
 20
34.980252
 10
17.030148
 20
34.909542
 10
17.737254
 20
34.202435
 10
17.807965
 20
34.273146
  0
LWPOLYLINE
  8
0
 62
7
 90
5
 70
1
 10
17.100858
 20
34.273146
 10
16.747305
 20
34.626699
 10
16.676594
 20
34.555989
 10
17.383701
 20
33.848882
 10
17.454412
 20
33.919593
  0
LWPOLYLINE
  8
0
 62
7
 90
5
 70
1
 10
16.747305
 20
33.919593
 10
16.393752
 20
34.273146
 10
16.323041
 20
34.202436
 10
17.030148
 20
33.495329
 10
17.100859
 20
33.566039
  0
LWPOLYLINE
  8
0
 62
7
 90
5
 70
1
 10
16.393752
 20
33.566040
 10
16.040199
 20
33.919593
 10
15.969488
 20
33.848882
 10
16.676595
 20
33.141776
 10
16.747306
 20
33.212486
  0
LWPOLYLINE
  8
0
 62
7
 90
5
 70
1
 10
16.040199
 20
33.212487
 10
15.686646
 20
33.566040
 10
15.615935
 20
33.495329
 10
16.323042
 20
32.788223
 10
16.393752
 20
32.858933
  0
LWPOLYLINE
  8
0
 62
7
 90
5
 70
1
 10
15.686646
 20
32.858933
 10
15.333093
 20
33.212487
 10
15.262382
 20
33.141776
 10
15.969489
 20
32.434669
 10
16.040199
 20
32.505380
  0
LWPOLYLINE
  8
0
 62
7
 90
5
 70
1
 10
15.333093
 20
32.505380
 10
14.979539
 20
32.858934
 10
14.908829
 20
32.788223
 10
15.615936
 20
32.081116
 10
15.686646
 20
32.151827
  0
LWPOLYLINE
  8
0
 62
7
 90
5
 70
1
 10
14.979540
 20
32.151827
 10
14.625986
 20
32.505381
 10
14.555276
 20
32.434670
 10
15.262382
 20
31.727563
 10
15.333093
 20
31.798274
  0
LWPOLYLINE
  8
0
 62
7
 90
5
 70
1
 10
14.625987
 20
31.798271
 10
14.272433
 20
32.151824
 10
14.201723
 20
32.081114
 10
14.908829
 20
31.374007
 10
14.979540
 20
31.444718
  0
LWPOLYLINE
  8
0
 62
7
 90
5
 70
1
 10
14.555276
 20
29.676952
 10
14.201723
 20
29.323399
 10
14.272433
 20
29.252688
 10
14.979540
 20
29.959795
 10
14.908829
 20
30.030506
  0
LWPOLYLINE
  8
0
 62
7
 90
5
 70
1
 10
14.908829
 20
29.323399
 10
14.555276
 20
28.969846
 10
14.625986
 20
28.899135
 10
15.333093
 20
29.606242
 10
15.262382
 20
29.676952
  0
LWPOLYLINE
  8
0
 62
7
 90
5
 70
1
 10
15.262382
 20
28.969846
 10
14.908829
 20
28.616293
 10
14.979539
 20
28.545582
 10
15.686646
 20
29.252689
 10
15.615936
 20
29.323399
  0
LWPOLYLINE
  8
0
 62
7
 90
5
 70
1
 10
15.615935
 20
28.616293
 10
15.262382
 20
28.262739
 10
15.333093
 20
28.192029
 10
16.040199
 20
28.899136
 10
15.969489
 20
28.969846
  0
LWPOLYLINE
  8
0
 62
7
 90
5
 70
1
 10
15.969488
 20
28.262740
 10
15.615935
 20
27.909186
 10
15.686646
 20
27.838476
 10
16.393752
 20
28.545582
 10
16.323042
 20
28.616293
  0
LWPOLYLINE
  8
0
 62
7
 90
5
 70
1
 10
16.323042
 20
27.909187
 10
15.969488
 20
27.555633
 10
16.040199
 20
27.484923
 10
16.747306
 20
28.192029
 10
16.676595
 20
28.262740
  0
LWPOLYLINE
  8
0
 62
7
 90
5
 70
1
 10
16.676595
 20
27.555630
 10
16.323041
 20
27.202077
 10
16.393752
 20
27.131366
 10
17.100859
 20
27.838473
 10
17.030148
 20
27.909184
  0
LWPOLYLINE
  8
0
 62
7
 90
5
 70
1
 10
17.030148
 20
27.202077
 10
16.676594
 20
26.848524
 10
16.747305
 20
26.777813
 10
17.454412
 20
27.484920
 10
17.383701
 20
27.555631
  0
LWPOLYLINE
  8
0
 62
7
 90
5
 70
1
 10
17.383701
 20
26.848524
 10
17.030148
 20
26.494971
 10
17.100858
 20
26.424260
 10
17.807965
 20
27.131367
 10
17.737254
 20
27.202077
  0
LWPOLYLINE
  8
0
 62
7
 90
5
 70
1
 10
17.737254
 20
26.494971
 10
17.383701
 20
26.141418
 10
17.454411
 20
26.070707
 10
18.161518
 20
26.777814
 10
18.090807
 20
26.848524
  0
LWPOLYLINE
  8
0
 62
7
 90
5
 70
1
 10
18.090807
 20
26.141418
 10
17.737254
 20
25.787864
 10
17.807964
 20
25.717154
 10
18.515071
 20
26.424261
 10
18.444361
 20
26.494971
  0
LWPOLYLINE
  8
0
 62
7
 90
5
 70
1
 10
18.444363
 20
25.787865
 10
18.090810
 20
25.434311
 10
18.161521
 20
25.363601
 10
18.868627
 20
26.070707
 10
18.797917
 20
26.141418
  0
LWPOLYLINE
  8
0
 62
7
 90
5
 70
1
 10
35.300100
 20
54.225000
 10
34.800100
 20
54.225000
 10
34.800100
 20
53.875000
 10
35.800100
 20
53.875000
 10
35.800100
 20
54.225000
  0
LWPOLYLINE
  8
0
 62
7
 90
5
 70
1
 10
35.300100
 20
55.175000
 10
34.800100
 20
55.175000
 10
34.800100
 20
54.825000
 10
35.800100
 20
54.825000
 10
35.800100
 20
55.175000
  0
LWPOLYLINE
  8
0
 62
7
 90
5
 70
1
 10
35.300100
 20
56.125000
 10
34.800100
 20
56.125000
 10
34.800100
 20
55.775000
 10
35.800100
 20
55.775000
 10
35.800100
 20
56.125000
  0
LWPOLYLINE
  8
0
 62
7
 90
5
 70
1
 10
32.699900
 20
56.125000
 10
32.199900
 20
56.125000
 10
32.199900
 20
55.775000
 10
33.199900
 20
55.775000
 10
33.199900
 20
56.125000
  0
LWPOLYLINE
  8
0
 62
7
 90
5
 70
1
 10
32.699900
 20
54.225000
 10
32.199900
 20
54.225000
 10
32.199900
 20
53.875000
 10
33.199900
 20
53.875000
 10
33.199900
 20
54.225000
  0
LWPOLYLINE
  8
0
 62
7
 90
5
 70
1
 10
1.070000
 20
33.125000
 10
1.920000
 20
33.125000
 10
1.920000
 20
34.725000
 10
0.220000
 20
34.725000
 10
0.220000
 20
33.125000
  0
LWPOLYLINE
  8
0
 62
7
 90
5
 70
1
 10
1.070000
 20
40.725000
 10
1.920000
 20
40.725000
 10
1.920000
 20
42.325000
 10
0.220000
 20
42.325000
 10
0.220000
 20
40.725000
  0
LWPOLYLINE
  8
0
 62
7
 90
5
 70
1
 10
1.070000
 20
38.075000
 10
1.920000
 20
38.075000
 10
1.920000
 20
39.775000
 10
0.220000
 20
39.775000
 10
0.220000
 20
38.075000
  0
LWPOLYLINE
  8
0
 62
7
 90
5
 70
1
 10
1.070000
 20
35.675000
 10
1.920000
 20
35.675000
 10
1.920000
 20
37.375000
 10
0.220000
 20
37.375000
 10
0.220000
 20
35.675000
  0
LWPOLYLINE
  8
0
 62
7
 90
5
 70
1
 10
3.620000
 20
39.875000
 10
4.320000
 20
39.875000
 10
4.320000
 20
41.775000
 10
2.920000
 20
41.775000
 10
2.920000
 20
39.875000
  0
LWPOLYLINE
  8
0
 62
7
 90
5
 70
1
 10
3.620000
 20
33.675000
 10
4.320000
 20
33.675000
 10
4.320000
 20
35.575000
 10
2.920000
 20
35.575000
 10
2.920000
 20
33.675000
  0
LWPOLYLINE
  8
0
 62
7
 90
5
 70
1
 10
3.770000
 20
38.925000
 10
4.345000
 20
38.925000
 10
4.345000
 20
39.125000
 10
3.195000
 20
39.125000
 10
3.195000
 20
38.925000
  0
LWPOLYLINE
  8
0
 62
7
 90
5
 70
1
 10
3.770000
 20
38.275000
 10
4.345000
 20
38.275000
 10
4.345000
 20
38.475000
 10
3.195000
 20
38.475000
 10
3.195000
 20
38.275000
  0
LWPOLYLINE
  8
0
 62
7
 90
5
 70
1
 10
3.770000
 20
37.625000
 10
4.345000
 20
37.625000
 10
4.345000
 20
37.825000
 10
3.195000
 20
37.825000
 10
3.195000
 20
37.625000
  0
LWPOLYLINE
  8
0
 62
7
 90
5
 70
1
 10
3.770000
 20
36.975000
 10
4.345000
 20
36.975000
 10
4.345000
 20
37.175000
 10
3.195000
 20
37.175000
 10
3.195000
 20
36.975000
  0
LWPOLYLINE
  8
0
 62
7
 90
5
 70
1
 10
3.770000
 20
36.325000
 10
4.345000
 20
36.325000
 10
4.345000
 20
36.525000
 10
3.195000
 20
36.525000
 10
3.195000
 20
36.325000
  0
LWPOLYLINE
  8
0
 62
7
 90
5
 70
1
 10
27.300100
 20
58.225000
 10
26.800100
 20
58.225000
 10
26.800100
 20
57.875000
 10
27.800100
 20
57.875000
 10
27.800100
 20
58.225000
  0
LWPOLYLINE
  8
0
 62
7
 90
5
 70
1
 10
27.300100
 20
59.175000
 10
26.800100
 20
59.175000
 10
26.800100
 20
58.825000
 10
27.800100
 20
58.825000
 10
27.800100
 20
59.175000
  0
LWPOLYLINE
  8
0
 62
7
 90
5
 70
1
 10
27.300100
 20
60.125000
 10
26.800100
 20
60.125000
 10
26.800100
 20
59.775000
 10
27.800100
 20
59.775000
 10
27.800100
 20
60.125000
  0
LWPOLYLINE
  8
0
 62
7
 90
5
 70
1
 10
24.699900
 20
60.125000
 10
24.199900
 20
60.125000
 10
24.199900
 20
59.775000
 10
25.199900
 20
59.775000
 10
25.199900
 20
60.125000
  0
LWPOLYLINE
  8
0
 62
7
 90
5
 70
1
 10
24.699900
 20
58.225000
 10
24.199900
 20
58.225000
 10
24.199900
 20
57.875000
 10
25.199900
 20
57.875000
 10
25.199900
 20
58.225000
  0
LWPOLYLINE
  8
0
 62
7
 90
5
 70
1
 10
33.300100
 20
58.225000
 10
32.800100
 20
58.225000
 10
32.800100
 20
57.875000
 10
33.800100
 20
57.875000
 10
33.800100
 20
58.225000
  0
LWPOLYLINE
  8
0
 62
7
 90
5
 70
1
 10
33.300100
 20
59.175000
 10
32.800100
 20
59.175000
 10
32.800100
 20
58.825000
 10
33.800100
 20
58.825000
 10
33.800100
 20
59.175000
  0
LWPOLYLINE
  8
0
 62
7
 90
5
 70
1
 10
33.300100
 20
60.125000
 10
32.800100
 20
60.125000
 10
32.800100
 20
59.775000
 10
33.800100
 20
59.775000
 10
33.800100
 20
60.125000
  0
LWPOLYLINE
  8
0
 62
7
 90
5
 70
1
 10
30.699900
 20
60.125000
 10
30.199900
 20
60.125000
 10
30.199900
 20
59.775000
 10
31.199900
 20
59.775000
 10
31.199900
 20
60.125000
  0
LWPOLYLINE
  8
0
 62
7
 90
5
 70
1
 10
30.699900
 20
58.225000
 10
30.199900
 20
58.225000
 10
30.199900
 20
57.875000
 10
31.199900
 20
57.875000
 10
31.199900
 20
58.225000
  0
LWPOLYLINE
  8
0
 62
7
 90
5
 70
1
 10
20.300100
 20
58.225000
 10
19.800100
 20
58.225000
 10
19.800100
 20
57.875000
 10
20.800100
 20
57.875000
 10
20.800100
 20
58.225000
  0
LWPOLYLINE
  8
0
 62
7
 90
5
 70
1
 10
20.300100
 20
59.175000
 10
19.800100
 20
59.175000
 10
19.800100
 20
58.825000
 10
20.800100
 20
58.825000
 10
20.800100
 20
59.175000
  0
LWPOLYLINE
  8
0
 62
7
 90
5
 70
1
 10
20.300100
 20
60.125000
 10
19.800100
 20
60.125000
 10
19.800100
 20
59.775000
 10
20.800100
 20
59.775000
 10
20.800100
 20
60.125000
  0
LWPOLYLINE
  8
0
 62
7
 90
5
 70
1
 10
17.699900
 20
60.125000
 10
17.199900
 20
60.125000
 10
17.199900
 20
59.775000
 10
18.199900
 20
59.775000
 10
18.199900
 20
60.125000
  0
LWPOLYLINE
  8
0
 62
7
 90
5
 70
1
 10
17.699900
 20
58.225000
 10
17.199900
 20
58.225000
 10
17.199900
 20
57.875000
 10
18.199900
 20
57.875000
 10
18.199900
 20
58.225000
  0
LWPOLYLINE
  8
0
 62
7
 90
5
 70
1
 10
17.300100
 20
8.225000
 10
16.800100
 20
8.225000
 10
16.800100
 20
7.875000
 10
17.800100
 20
7.875000
 10
17.800100
 20
8.225000
  0
LWPOLYLINE
  8
0
 62
7
 90
5
 70
1
 10
17.300100
 20
9.175000
 10
16.800100
 20
9.175000
 10
16.800100
 20
8.825000
 10
17.800100
 20
8.825000
 10
17.800100
 20
9.175000
  0
LWPOLYLINE
  8
0
 62
7
 90
5
 70
1
 10
17.300100
 20
10.125000
 10
16.800100
 20
10.125000
 10
16.800100
 20
9.775000
 10
17.800100
 20
9.775000
 10
17.800100
 20
10.125000
  0
LWPOLYLINE
  8
0
 62
7
 90
5
 70
1
 10
14.699900
 20
10.125000
 10
14.199900
 20
10.125000
 10
14.199900
 20
9.775000
 10
15.199900
 20
9.775000
 10
15.199900
 20
10.125000
  0
LWPOLYLINE
  8
0
 62
7
 90
5
 70
1
 10
14.699900
 20
8.225000
 10
14.199900
 20
8.225000
 10
14.199900
 20
7.875000
 10
15.199900
 20
7.875000
 10
15.199900
 20
8.225000
  0
LWPOLYLINE
  8
0
 62
7
 90
5
 70
1
 10
20.000000
 20
7.705000
 10
19.490000
 20
7.705000
 10
19.490000
 20
6.995000
 10
20.510000
 20
6.995000
 10
20.510000
 20
7.705000
  0
LWPOLYLINE
  8
0
 62
7
 90
5
 70
1
 10
20.000000
 20
11.005000
 10
19.490000
 20
11.005000
 10
19.490000
 20
10.295000
 10
20.510000
 20
10.295000
 10
20.510000
 20
11.005000
  0
LWPOLYLINE
  8
0
 62
7
 90
5
 70
1
 10
32.705000
 20
63.000000
 10
32.705000
 20
63.510000
 10
31.995000
 20
63.510000
 10
31.995000
 20
62.490000
 10
32.705000
 20
62.490000
  0
LWPOLYLINE
  8
0
 62
7
 90
5
 70
1
 10
36.005000
 20
63.000000
 10
36.005000
 20
63.510000
 10
35.295000
 20
63.510000
 10
35.295000
 20
62.490000
 10
36.005000
 20
62.490000
  0
LWPOLYLINE
  8
0
 62
7
 90
5
 70
1
 10
22.950000
 20
62.000000
 10
22.950000
 20
62.200000
 10
22.750000
 20
62.200000
 10
22.750000
 20
61.800000
 10
22.950000
 20
61.800000
  0
LWPOLYLINE
  8
0
 62
7
 90
5
 70
1
 10
23.600000
 20
62.000000
 10
23.600000
 20
62.200000
 10
23.400000
 20
62.200000
 10
23.400000
 20
61.800000
 10
23.600000
 20
61.800000
  0
LWPOLYLINE
  8
0
 62
7
 90
5
 70
1
 10
24.250000
 20
62.000000
 10
24.250000
 20
62.200000
 10
24.050000
 20
62.200000
 10
24.050000
 20
61.800000
 10
24.250000
 20
61.800000
  0
LWPOLYLINE
  8
0
 62
7
 90
5
 70
1
 10
24.250000
 20
64.000000
 10
24.250000
 20
64.200000
 10
24.050000
 20
64.200000
 10
24.050000
 20
63.800000
 10
24.250000
 20
63.800000
  0
LWPOLYLINE
  8
0
 62
7
 90
5
 70
1
 10
23.600000
 20
64.000000
 10
23.600000
 20
64.200000
 10
23.400000
 20
64.200000
 10
23.400000
 20
63.800000
 10
23.600000
 20
63.800000
  0
LWPOLYLINE
  8
0
 62
7
 90
5
 70
1
 10
22.950000
 20
64.000000
 10
22.950000
 20
64.200000
 10
22.750000
 20
64.200000
 10
22.750000
 20
63.800000
 10
22.950000
 20
63.800000
  0
LWPOLYLINE
  8
0
 62
7
 90
5
 70
1
 10
9.000000
 20
39.550000
 10
9.200000
 20
39.550000
 10
9.200000
 20
39.750000
 10
8.800000
 20
39.750000
 10
8.800000
 20
39.550000
  0
LWPOLYLINE
  8
0
 62
7
 90
5
 70
1
 10
9.000000
 20
38.900000
 10
9.200000
 20
38.900000
 10
9.200000
 20
39.100000
 10
8.800000
 20
39.100000
 10
8.800000
 20
38.900000
  0
LWPOLYLINE
  8
0
 62
7
 90
5
 70
1
 10
9.000000
 20
38.250000
 10
9.200000
 20
38.250000
 10
9.200000
 20
38.450000
 10
8.800000
 20
38.450000
 10
8.800000
 20
38.250000
  0
LWPOLYLINE
  8
0
 62
7
 90
5
 70
1
 10
11.000000
 20
38.250000
 10
11.200000
 20
38.250000
 10
11.200000
 20
38.450000
 10
10.800000
 20
38.450000
 10
10.800000
 20
38.250000
  0
LWPOLYLINE
  8
0
 62
7
 90
5
 70
1
 10
11.000000
 20
38.900000
 10
11.200000
 20
38.900000
 10
11.200000
 20
39.100000
 10
10.800000
 20
39.100000
 10
10.800000
 20
38.900000
  0
LWPOLYLINE
  8
0
 62
7
 90
5
 70
1
 10
11.000000
 20
39.550000
 10
11.200000
 20
39.550000
 10
11.200000
 20
39.750000
 10
10.800000
 20
39.750000
 10
10.800000
 20
39.550000
  0
LWPOLYLINE
  8
0
 62
7
 90
5
 70
1
 10
7.000000
 20
32.705000
 10
6.490000
 20
32.705000
 10
6.490000
 20
31.995000
 10
7.510000
 20
31.995000
 10
7.510000
 20
32.705000
  0
LWPOLYLINE
  8
0
 62
7
 90
5
 70
1
 10
7.000000
 20
36.005000
 10
6.490000
 20
36.005000
 10
6.490000
 20
35.295000
 10
7.510000
 20
35.295000
 10
7.510000
 20
36.005000
  0
LWPOLYLINE
  8
0
 62
7
 90
5
 70
1
 10
12.375000
 20
6.150000
 10
11.575000
 20
6.150000
 10
11.575000
 20
1.850000
 10
13.175000
 20
1.850000
 10
13.175000
 20
6.150000
  0
LWPOLYLINE
  8
0
 62
7
 90
5
 70
1
 10
15.625000
 20
6.150000
 10
14.825000
 20
6.150000
 10
14.825000
 20
1.850000
 10
16.425000
 20
1.850000
 10
16.425000
 20
6.150000
  0
LWPOLYLINE
  8
0
 62
7
 90
5
 70
1
 10
25.775000
 20
17.300100
 10
25.775000
 20
16.800100
 10
26.125000
 20
16.800100
 10
26.125000
 20
17.800100
 10
25.775000
 20
17.800100
  0
LWPOLYLINE
  8
0
 62
7
 90
5
 70
1
 10
24.825000
 20
17.300100
 10
24.825000
 20
16.800100
 10
25.175000
 20
16.800100
 10
25.175000
 20
17.800100
 10
24.825000
 20
17.800100
  0
LWPOLYLINE
  8
0
 62
7
 90
5
 70
1
 10
23.875000
 20
17.300100
 10
23.875000
 20
16.800100
 10
24.225000
 20
16.800100
 10
24.225000
 20
17.800100
 10
23.875000
 20
17.800100
  0
LWPOLYLINE
  8
0
 62
7
 90
5
 70
1
 10
23.875000
 20
14.699900
 10
23.875000
 20
14.199900
 10
24.225000
 20
14.199900
 10
24.225000
 20
15.199900
 10
23.875000
 20
15.199900
  0
LWPOLYLINE
  8
0
 62
7
 90
5
 70
1
 10
25.775000
 20
14.699900
 10
25.775000
 20
14.199900
 10
26.125000
 20
14.199900
 10
26.125000
 20
15.199900
 10
25.775000
 20
15.199900
  0
ENDSEC
  0
EOF
